G75*
G70*
%OFA0B0*%
%FSLAX24Y24*%
%IPPOS*%
%LPD*%
%AMOC8*
5,1,8,0,0,1.08239X$1,22.5*
%
%ADD10C,0.0480*%
%ADD11C,0.0600*%
%ADD12R,0.0394X0.0433*%
%ADD13C,0.0480*%
%ADD14R,0.0433X0.0394*%
%ADD15C,0.0160*%
%ADD16C,0.0060*%
%ADD17C,0.0270*%
D10*
X000680Y005760D02*
X000680Y006240D01*
X001680Y006240D02*
X001680Y005760D01*
X002680Y005760D02*
X002680Y006240D01*
X003680Y006240D02*
X003680Y005760D01*
X004680Y005760D02*
X004680Y006240D01*
X005680Y006240D02*
X005680Y005760D01*
X006680Y005760D02*
X006680Y006240D01*
X007680Y006240D02*
X007680Y005760D01*
X008680Y005760D02*
X008680Y006240D01*
X009680Y006240D02*
X009680Y005760D01*
X010680Y005760D02*
X010680Y006240D01*
X011680Y006240D02*
X011680Y005760D01*
X012680Y005760D02*
X012680Y006240D01*
X013680Y006240D02*
X013680Y005760D01*
X014680Y005760D02*
X014680Y006240D01*
X015680Y006240D02*
X015680Y005760D01*
X016680Y005760D02*
X016680Y006240D01*
X017680Y006240D02*
X017680Y005760D01*
X018680Y005760D02*
X018680Y006240D01*
X019680Y006240D02*
X019680Y005760D01*
X019680Y011760D02*
X019680Y012240D01*
X018680Y012240D02*
X018680Y011760D01*
X017680Y011760D02*
X017680Y012240D01*
X016680Y012240D02*
X016680Y011760D01*
X015680Y011760D02*
X015680Y012240D01*
X014680Y012240D02*
X014680Y011760D01*
X013680Y011760D02*
X013680Y012240D01*
X012680Y012240D02*
X012680Y011760D01*
X011680Y011760D02*
X011680Y012240D01*
X010680Y012240D02*
X010680Y011760D01*
X009680Y011760D02*
X009680Y012240D01*
X008680Y012240D02*
X008680Y011760D01*
X007680Y011760D02*
X007680Y012240D01*
X006680Y012240D02*
X006680Y011760D01*
X005680Y011760D02*
X005680Y012240D01*
X004680Y012240D02*
X004680Y011760D01*
X003680Y011760D02*
X003680Y012240D01*
X002680Y012240D02*
X002680Y011760D01*
X001680Y011760D02*
X001680Y012240D01*
X000680Y012240D02*
X000680Y011760D01*
X004180Y013260D02*
X004180Y013740D01*
X005180Y013740D02*
X005180Y013260D01*
X006180Y013260D02*
X006180Y013740D01*
X007180Y013740D02*
X007180Y013260D01*
X008180Y013260D02*
X008180Y013740D01*
X009180Y013740D02*
X009180Y013260D01*
X010180Y013260D02*
X010180Y013740D01*
X011180Y013740D02*
X011180Y013260D01*
X012180Y013260D02*
X012180Y013740D01*
X013180Y013740D02*
X013180Y013260D01*
X014180Y013260D02*
X014180Y013740D01*
X015180Y013740D02*
X015180Y013260D01*
X016180Y013260D02*
X016180Y013740D01*
X017180Y013740D02*
X017180Y013260D01*
X018180Y013260D02*
X018180Y013740D01*
X019180Y013740D02*
X019180Y013260D01*
X019180Y019260D02*
X019180Y019740D01*
X018180Y019740D02*
X018180Y019260D01*
X017180Y019260D02*
X017180Y019740D01*
X016180Y019740D02*
X016180Y019260D01*
X015180Y019260D02*
X015180Y019740D01*
X014180Y019740D02*
X014180Y019260D01*
X013180Y019260D02*
X013180Y019740D01*
X012180Y019740D02*
X012180Y019260D01*
X011180Y019260D02*
X011180Y019740D01*
X010180Y019740D02*
X010180Y019260D01*
X009180Y019260D02*
X009180Y019740D01*
X008180Y019740D02*
X008180Y019260D01*
X007180Y019260D02*
X007180Y019740D01*
X006180Y019740D02*
X006180Y019260D01*
X005180Y019260D02*
X005180Y019740D01*
X004180Y019740D02*
X004180Y019260D01*
D11*
X016180Y005050D02*
X016180Y004450D01*
X017180Y004450D02*
X017180Y005050D01*
X018180Y005050D02*
X018180Y004450D01*
X019180Y004450D02*
X019180Y005050D01*
X005680Y004800D02*
X005680Y004200D01*
X004680Y004200D02*
X004680Y004800D01*
X003680Y004800D02*
X003680Y004200D01*
X002680Y004200D02*
X002680Y004800D01*
X001680Y004800D02*
X001680Y004200D01*
X000680Y004200D02*
X000680Y004800D01*
D12*
X002595Y003500D03*
X003265Y003500D03*
X005179Y003500D03*
X005849Y003500D03*
D13*
X012230Y004250D03*
X014130Y004250D03*
D14*
X014340Y005000D03*
X013670Y005000D03*
X012680Y005000D03*
X012010Y005000D03*
D15*
X000410Y003848D02*
X000410Y002980D01*
X019942Y002980D01*
X019942Y005485D01*
X019895Y005438D01*
X019756Y005380D01*
X019604Y005380D01*
X019465Y005438D01*
X019358Y005545D01*
X019300Y005684D01*
X019300Y006316D01*
X019358Y006455D01*
X019465Y006562D01*
X019604Y006620D01*
X019756Y006620D01*
X019895Y006562D01*
X019942Y006515D01*
X019942Y011485D01*
X019895Y011438D01*
X019756Y011380D01*
X019604Y011380D01*
X019465Y011438D01*
X019358Y011545D01*
X019300Y011684D01*
X019300Y012316D01*
X019358Y012455D01*
X019465Y012562D01*
X019604Y012620D01*
X019756Y012620D01*
X019760Y012618D01*
X019760Y013680D01*
X019584Y013855D01*
X019590Y013838D01*
X019600Y013773D01*
X019600Y013500D01*
X019180Y013500D01*
X019180Y013500D01*
X019180Y013500D01*
X019180Y014160D01*
X019213Y014160D01*
X019278Y014150D01*
X019295Y014144D01*
X018860Y014580D01*
X017090Y014580D01*
X017750Y013920D01*
X017816Y013854D01*
X017858Y013955D01*
X017965Y014062D01*
X018104Y014120D01*
X018256Y014120D01*
X018395Y014062D01*
X018502Y013955D01*
X018560Y013816D01*
X018560Y013184D01*
X018502Y013045D01*
X018395Y012938D01*
X018256Y012880D01*
X018104Y012880D01*
X017995Y012925D01*
X018412Y012509D01*
X018465Y012562D01*
X018604Y012620D01*
X018756Y012620D01*
X018895Y012562D01*
X019002Y012455D01*
X019060Y012316D01*
X019060Y011684D01*
X019002Y011545D01*
X018895Y011438D01*
X018756Y011380D01*
X018604Y011380D01*
X018465Y011438D01*
X018358Y011545D01*
X018300Y011684D01*
X018300Y012140D01*
X018015Y012425D01*
X018060Y012316D01*
X018060Y011684D01*
X018002Y011545D01*
X017895Y011438D01*
X017756Y011380D01*
X017604Y011380D01*
X017465Y011438D01*
X017358Y011545D01*
X017300Y011684D01*
X017300Y012316D01*
X017358Y012455D01*
X017465Y012562D01*
X017604Y012620D01*
X017756Y012620D01*
X017865Y012575D01*
X017510Y012930D01*
X017510Y013064D01*
X017502Y013045D01*
X017395Y012938D01*
X017256Y012880D01*
X017104Y012880D01*
X016965Y012938D01*
X016912Y012991D01*
X016495Y012575D01*
X016604Y012620D01*
X016756Y012620D01*
X016895Y012562D01*
X017002Y012455D01*
X017060Y012316D01*
X017060Y011684D01*
X017002Y011545D01*
X016895Y011438D01*
X016756Y011380D01*
X016604Y011380D01*
X016465Y011438D01*
X016358Y011545D01*
X016316Y011646D01*
X015250Y010580D01*
X007860Y010580D01*
X007760Y010680D01*
X006948Y011491D01*
X006895Y011438D01*
X006756Y011380D01*
X006604Y011380D01*
X006465Y011438D01*
X006358Y011545D01*
X006350Y011564D01*
X006350Y010720D01*
X007900Y009170D01*
X014250Y009170D01*
X015750Y007670D01*
X015850Y007570D01*
X015850Y006581D01*
X015895Y006562D01*
X016002Y006455D01*
X016060Y006316D01*
X016060Y005684D01*
X016002Y005545D01*
X015895Y005438D01*
X015756Y005380D01*
X015604Y005380D01*
X015465Y005438D01*
X015358Y005545D01*
X015300Y005684D01*
X015300Y006316D01*
X015358Y006455D01*
X015465Y006562D01*
X015510Y006581D01*
X015510Y007430D01*
X014205Y008735D01*
X014205Y008695D01*
X014163Y008594D01*
X014086Y008517D01*
X013985Y008475D01*
X013875Y008475D01*
X013774Y008517D01*
X013711Y008580D01*
X012945Y008580D01*
X012955Y008555D01*
X012955Y008445D01*
X012913Y008344D01*
X012836Y008267D01*
X012735Y008225D01*
X012625Y008225D01*
X012524Y008267D01*
X012461Y008330D01*
X011200Y008330D01*
X009850Y006980D01*
X009850Y006581D01*
X009895Y006562D01*
X010002Y006455D01*
X010060Y006316D01*
X010060Y005684D01*
X010002Y005545D01*
X009895Y005438D01*
X009756Y005380D01*
X009604Y005380D01*
X009465Y005438D01*
X009358Y005545D01*
X009350Y005564D01*
X009350Y005530D01*
X009250Y005430D01*
X008900Y005080D01*
X008360Y005080D01*
X008260Y005180D01*
X007948Y005491D01*
X007895Y005438D01*
X007756Y005380D01*
X007604Y005380D01*
X007465Y005438D01*
X007358Y005545D01*
X007300Y005684D01*
X007300Y006316D01*
X007358Y006455D01*
X007465Y006562D01*
X007604Y006620D01*
X007756Y006620D01*
X007895Y006562D01*
X008002Y006455D01*
X008060Y006316D01*
X008060Y005860D01*
X008345Y005575D01*
X008300Y005684D01*
X008300Y006316D01*
X008358Y006455D01*
X008465Y006562D01*
X008510Y006581D01*
X008510Y006980D01*
X007160Y008330D01*
X006149Y008330D01*
X006086Y008267D01*
X005985Y008225D01*
X005875Y008225D01*
X005774Y008267D01*
X005697Y008344D01*
X005655Y008445D01*
X005655Y008555D01*
X005697Y008656D01*
X005765Y008724D01*
X005010Y009480D01*
X005010Y011564D01*
X005002Y011545D01*
X004895Y011438D01*
X004756Y011380D01*
X004604Y011380D01*
X004465Y011438D01*
X004358Y011545D01*
X004300Y011684D01*
X004300Y012316D01*
X004345Y012425D01*
X004060Y012140D01*
X004060Y011684D01*
X004002Y011545D01*
X003895Y011438D01*
X003756Y011380D01*
X003604Y011380D01*
X003465Y011438D01*
X003358Y011545D01*
X003316Y011646D01*
X003250Y011580D01*
X002850Y011180D01*
X002850Y006581D01*
X002895Y006562D01*
X003002Y006455D01*
X003060Y006316D01*
X003060Y005684D01*
X003002Y005545D01*
X002895Y005438D01*
X002756Y005380D01*
X002604Y005380D01*
X002465Y005438D01*
X002358Y005545D01*
X002300Y005684D01*
X002300Y006316D01*
X002358Y006455D01*
X002465Y006562D01*
X002510Y006581D01*
X002510Y011320D01*
X002580Y011390D01*
X002465Y011438D01*
X002358Y011545D01*
X002316Y011646D01*
X002250Y011580D01*
X001850Y011180D01*
X001850Y006581D01*
X001895Y006562D01*
X002002Y006455D01*
X002060Y006316D01*
X002060Y005684D01*
X002002Y005545D01*
X001895Y005438D01*
X001756Y005380D01*
X001604Y005380D01*
X001465Y005438D01*
X001358Y005545D01*
X001300Y005684D01*
X001300Y006316D01*
X001358Y006455D01*
X001465Y006562D01*
X001510Y006581D01*
X001510Y011320D01*
X001580Y011390D01*
X001465Y011438D01*
X001358Y011545D01*
X001300Y011684D01*
X001300Y012316D01*
X001358Y012455D01*
X001465Y012562D01*
X001510Y012581D01*
X001510Y012740D01*
X001060Y012290D01*
X001060Y011684D01*
X001002Y011545D01*
X000895Y011438D01*
X000756Y011380D01*
X000604Y011380D01*
X000465Y011438D01*
X000410Y011493D01*
X000410Y006507D01*
X000465Y006562D01*
X000604Y006620D01*
X000756Y006620D01*
X000895Y006562D01*
X001002Y006455D01*
X001060Y006316D01*
X001060Y005684D01*
X001002Y005545D01*
X000900Y005443D01*
X000900Y005185D01*
X000929Y005173D01*
X001053Y005049D01*
X001120Y004888D01*
X001120Y004112D01*
X001053Y003951D01*
X000929Y003827D01*
X000768Y003760D01*
X000592Y003760D01*
X000431Y003827D01*
X000410Y003848D01*
X000410Y003701D02*
X002219Y003701D01*
X002219Y003740D02*
X002219Y003518D01*
X002577Y003518D01*
X002577Y003482D01*
X002219Y003482D01*
X002219Y003260D01*
X002231Y003214D01*
X002254Y003173D01*
X002288Y003139D01*
X002329Y003116D01*
X002375Y003103D01*
X002577Y003103D01*
X002577Y003482D01*
X002614Y003482D01*
X002614Y003103D01*
X002816Y003103D01*
X002862Y003116D01*
X002903Y003139D01*
X002936Y003173D01*
X002952Y003201D01*
X003010Y003143D01*
X003519Y003143D01*
X003601Y003225D01*
X003601Y003526D01*
X003884Y003808D01*
X003929Y003827D01*
X004053Y003951D01*
X004120Y004112D01*
X004120Y004888D01*
X004053Y005049D01*
X003929Y005173D01*
X003768Y005240D01*
X003592Y005240D01*
X003431Y005173D01*
X003307Y005049D01*
X003240Y004888D01*
X003240Y004112D01*
X003307Y003951D01*
X003356Y003902D01*
X003310Y003857D01*
X003015Y003857D01*
X003046Y003887D01*
X003091Y003948D01*
X003125Y004016D01*
X003148Y004088D01*
X003160Y004162D01*
X003160Y004480D01*
X002700Y004480D01*
X002700Y004520D01*
X002660Y004520D01*
X002660Y005280D01*
X002642Y005280D01*
X002568Y005268D01*
X002496Y005245D01*
X002428Y005211D01*
X002367Y005166D01*
X002314Y005113D01*
X002269Y005052D01*
X002235Y004984D01*
X002212Y004912D01*
X002200Y004838D01*
X002200Y004520D01*
X002660Y004520D01*
X002660Y004480D01*
X002200Y004480D01*
X002200Y004162D01*
X002212Y004088D01*
X002235Y004016D01*
X002269Y003948D01*
X002314Y003887D01*
X002321Y003880D01*
X002288Y003861D01*
X002254Y003827D01*
X002231Y003786D01*
X002219Y003740D01*
X002287Y003860D02*
X001962Y003860D01*
X001929Y003827D02*
X002053Y003951D01*
X002120Y004112D01*
X002120Y004888D01*
X002053Y005049D01*
X001929Y005173D01*
X001768Y005240D01*
X001592Y005240D01*
X001431Y005173D01*
X001307Y005049D01*
X001240Y004888D01*
X001240Y004112D01*
X001307Y003951D01*
X001431Y003827D01*
X001592Y003760D01*
X001768Y003760D01*
X001929Y003827D01*
X002081Y004018D02*
X002234Y004018D01*
X002200Y004177D02*
X002120Y004177D01*
X002120Y004335D02*
X002200Y004335D01*
X002120Y004494D02*
X002660Y004494D01*
X002700Y004494D02*
X003240Y004494D01*
X003160Y004520D02*
X003160Y004838D01*
X003148Y004912D01*
X003125Y004984D01*
X003091Y005052D01*
X003046Y005113D01*
X002993Y005166D01*
X002932Y005211D01*
X002864Y005245D01*
X002792Y005268D01*
X002718Y005280D01*
X002700Y005280D01*
X002700Y004520D01*
X003160Y004520D01*
X003160Y004652D02*
X003240Y004652D01*
X003240Y004811D02*
X003160Y004811D01*
X003130Y004969D02*
X003274Y004969D01*
X003385Y005128D02*
X003031Y005128D01*
X002700Y005128D02*
X002660Y005128D01*
X002660Y004969D02*
X002700Y004969D01*
X002700Y004811D02*
X002660Y004811D01*
X002660Y004652D02*
X002700Y004652D01*
X003160Y004335D02*
X003240Y004335D01*
X003240Y004177D02*
X003160Y004177D01*
X003126Y004018D02*
X003279Y004018D01*
X003313Y003860D02*
X003018Y003860D01*
X003265Y003500D02*
X003680Y003915D01*
X003680Y004500D01*
X004120Y004494D02*
X004240Y004494D01*
X004240Y004652D02*
X004120Y004652D01*
X004120Y004811D02*
X004240Y004811D01*
X004240Y004888D02*
X004240Y004112D01*
X004307Y003951D01*
X004431Y003827D01*
X004592Y003760D01*
X004609Y003760D01*
X004843Y003526D01*
X004843Y003225D01*
X004925Y003143D01*
X005434Y003143D01*
X005492Y003201D01*
X005508Y003173D01*
X005541Y003139D01*
X005582Y003116D01*
X005628Y003103D01*
X005830Y003103D01*
X005830Y003482D01*
X005867Y003482D01*
X005867Y003518D01*
X006225Y003518D01*
X006225Y003740D01*
X006213Y003786D01*
X006190Y003827D01*
X006156Y003861D01*
X006115Y003884D01*
X006069Y003897D01*
X005999Y003897D01*
X006053Y003951D01*
X006120Y004112D01*
X006120Y004888D01*
X006053Y005049D01*
X005929Y005173D01*
X005768Y005240D01*
X005592Y005240D01*
X005431Y005173D01*
X005307Y005049D01*
X005240Y004888D01*
X005240Y004112D01*
X005307Y003951D01*
X005401Y003857D01*
X005135Y003857D01*
X005047Y003944D01*
X005053Y003951D01*
X005120Y004112D01*
X005120Y004888D01*
X005053Y005049D01*
X004929Y005173D01*
X004768Y005240D01*
X004592Y005240D01*
X004431Y005173D01*
X004307Y005049D01*
X004240Y004888D01*
X004274Y004969D02*
X004086Y004969D01*
X003975Y005128D02*
X004385Y005128D01*
X004465Y005438D02*
X004604Y005380D01*
X004756Y005380D01*
X004895Y005438D01*
X005002Y005545D01*
X005060Y005684D01*
X005060Y006316D01*
X005002Y006455D01*
X004895Y006562D01*
X004756Y006620D01*
X004604Y006620D01*
X004465Y006562D01*
X004358Y006455D01*
X004300Y006316D01*
X004300Y005684D01*
X004358Y005545D01*
X004465Y005438D01*
X004458Y005445D02*
X003902Y005445D01*
X003895Y005438D02*
X004002Y005545D01*
X004060Y005684D01*
X004060Y006316D01*
X004002Y006455D01*
X003895Y006562D01*
X003756Y006620D01*
X003604Y006620D01*
X003465Y006562D01*
X003358Y006455D01*
X003300Y006316D01*
X003300Y005684D01*
X003358Y005545D01*
X003465Y005438D01*
X003604Y005380D01*
X003756Y005380D01*
X003895Y005438D01*
X004026Y005603D02*
X004334Y005603D01*
X004300Y005762D02*
X004060Y005762D01*
X004060Y005920D02*
X004300Y005920D01*
X004300Y006079D02*
X004060Y006079D01*
X004060Y006237D02*
X004300Y006237D01*
X004333Y006396D02*
X004027Y006396D01*
X003903Y006554D02*
X004457Y006554D01*
X004903Y006554D02*
X005457Y006554D01*
X005465Y006562D02*
X005358Y006455D01*
X005300Y006316D01*
X005300Y005684D01*
X005358Y005545D01*
X005465Y005438D01*
X005604Y005380D01*
X005756Y005380D01*
X005895Y005438D01*
X006002Y005545D01*
X006060Y005684D01*
X006060Y006316D01*
X006002Y006455D01*
X005895Y006562D01*
X005756Y006620D01*
X005604Y006620D01*
X005465Y006562D01*
X005333Y006396D02*
X005027Y006396D01*
X005060Y006237D02*
X005300Y006237D01*
X005300Y006079D02*
X005060Y006079D01*
X005060Y005920D02*
X005300Y005920D01*
X005300Y005762D02*
X005060Y005762D01*
X005026Y005603D02*
X005334Y005603D01*
X005458Y005445D02*
X004902Y005445D01*
X004975Y005128D02*
X005385Y005128D01*
X005274Y004969D02*
X005086Y004969D01*
X005120Y004811D02*
X005240Y004811D01*
X005240Y004652D02*
X005120Y004652D01*
X005120Y004494D02*
X005240Y004494D01*
X005240Y004335D02*
X005120Y004335D01*
X005120Y004177D02*
X005240Y004177D01*
X005279Y004018D02*
X005081Y004018D01*
X005132Y003860D02*
X005398Y003860D01*
X005180Y003500D02*
X004680Y004000D01*
X004680Y004500D01*
X004240Y004335D02*
X004120Y004335D01*
X004120Y004177D02*
X004240Y004177D01*
X004279Y004018D02*
X004081Y004018D01*
X003962Y003860D02*
X004398Y003860D01*
X004668Y003701D02*
X003777Y003701D01*
X003618Y003543D02*
X004826Y003543D01*
X004843Y003384D02*
X003601Y003384D01*
X003601Y003226D02*
X004843Y003226D01*
X005830Y003226D02*
X005867Y003226D01*
X005867Y003103D02*
X006069Y003103D01*
X006115Y003116D01*
X006156Y003139D01*
X006190Y003173D01*
X006213Y003214D01*
X006225Y003260D01*
X006225Y003482D01*
X005867Y003482D01*
X005867Y003103D01*
X005867Y003384D02*
X005830Y003384D01*
X006225Y003384D02*
X019942Y003384D01*
X019942Y003226D02*
X006216Y003226D01*
X006225Y003543D02*
X019942Y003543D01*
X019942Y003701D02*
X006225Y003701D01*
X006157Y003860D02*
X019942Y003860D01*
X019942Y004018D02*
X019389Y004018D01*
X019364Y004005D02*
X019432Y004039D01*
X019493Y004084D01*
X019546Y004137D01*
X019591Y004198D01*
X019625Y004266D01*
X019648Y004338D01*
X019660Y004412D01*
X019660Y004730D01*
X019200Y004730D01*
X019200Y004770D01*
X019660Y004770D01*
X019660Y005088D01*
X019648Y005162D01*
X019625Y005234D01*
X019591Y005302D01*
X019546Y005363D01*
X019493Y005416D01*
X019432Y005461D01*
X019364Y005495D01*
X019292Y005518D01*
X019218Y005530D01*
X019200Y005530D01*
X019200Y004770D01*
X019160Y004770D01*
X019160Y005530D01*
X019142Y005530D01*
X019068Y005518D01*
X018996Y005495D01*
X018928Y005461D01*
X018867Y005416D01*
X018814Y005363D01*
X018769Y005302D01*
X018735Y005234D01*
X018712Y005162D01*
X018700Y005088D01*
X018700Y004770D01*
X019160Y004770D01*
X019160Y004730D01*
X019200Y004730D01*
X019200Y003970D01*
X019218Y003970D01*
X019292Y003982D01*
X019364Y004005D01*
X019200Y004018D02*
X019160Y004018D01*
X019160Y003970D02*
X019160Y004730D01*
X018700Y004730D01*
X018700Y004412D01*
X018712Y004338D01*
X018735Y004266D01*
X018769Y004198D01*
X018814Y004137D01*
X018867Y004084D01*
X018928Y004039D01*
X018996Y004005D01*
X019068Y003982D01*
X019142Y003970D01*
X019160Y003970D01*
X018971Y004018D02*
X018287Y004018D01*
X018268Y004010D02*
X018429Y004077D01*
X018553Y004201D01*
X018620Y004362D01*
X018620Y005138D01*
X018553Y005299D01*
X018429Y005423D01*
X018268Y005490D01*
X018092Y005490D01*
X017931Y005423D01*
X017807Y005299D01*
X017740Y005138D01*
X017740Y004362D01*
X017807Y004201D01*
X017931Y004077D01*
X018092Y004010D01*
X018268Y004010D01*
X018073Y004018D02*
X017287Y004018D01*
X017268Y004010D02*
X017429Y004077D01*
X017553Y004201D01*
X017620Y004362D01*
X017620Y005138D01*
X017553Y005299D01*
X017429Y005423D01*
X017268Y005490D01*
X017092Y005490D01*
X016931Y005423D01*
X016807Y005299D01*
X016740Y005138D01*
X016740Y004362D01*
X016807Y004201D01*
X016931Y004077D01*
X017092Y004010D01*
X017268Y004010D01*
X017073Y004018D02*
X016287Y004018D01*
X016268Y004010D02*
X016429Y004077D01*
X016553Y004201D01*
X016620Y004362D01*
X016620Y005138D01*
X016553Y005299D01*
X016429Y005423D01*
X016268Y005490D01*
X016092Y005490D01*
X015931Y005423D01*
X015807Y005299D01*
X015740Y005138D01*
X015740Y004362D01*
X015807Y004201D01*
X015931Y004077D01*
X016092Y004010D01*
X016268Y004010D01*
X016073Y004018D02*
X014435Y004018D01*
X014452Y004035D02*
X014510Y004174D01*
X014510Y004326D01*
X014452Y004465D01*
X014345Y004572D01*
X014222Y004623D01*
X014321Y004623D01*
X014321Y004982D01*
X014358Y004982D01*
X014358Y005018D01*
X014736Y005018D01*
X014736Y005221D01*
X014724Y005266D01*
X014700Y005307D01*
X014667Y005341D01*
X014626Y005365D01*
X014580Y005377D01*
X014358Y005377D01*
X014358Y005018D01*
X014321Y005018D01*
X014321Y005377D01*
X014099Y005377D01*
X014054Y005365D01*
X014013Y005341D01*
X013979Y005307D01*
X013977Y005304D01*
X013945Y005337D01*
X013900Y005337D01*
X013900Y005443D01*
X014002Y005545D01*
X014060Y005684D01*
X014060Y006316D01*
X014002Y006455D01*
X013895Y006562D01*
X013756Y006620D01*
X013604Y006620D01*
X013465Y006562D01*
X013358Y006455D01*
X013300Y006316D01*
X013300Y005684D01*
X013358Y005545D01*
X013460Y005443D01*
X013460Y005337D01*
X013396Y005337D01*
X013314Y005255D01*
X013314Y004745D01*
X013396Y004663D01*
X013450Y004663D01*
X013450Y004619D01*
X013579Y004490D01*
X013750Y004319D01*
X013750Y004174D01*
X013808Y004035D01*
X013915Y003928D01*
X014054Y003870D01*
X014206Y003870D01*
X014345Y003928D01*
X014452Y004035D01*
X014510Y004177D02*
X015831Y004177D01*
X015751Y004335D02*
X014506Y004335D01*
X014424Y004494D02*
X015740Y004494D01*
X015740Y004652D02*
X014654Y004652D01*
X014667Y004659D02*
X014700Y004693D01*
X014724Y004734D01*
X014736Y004779D01*
X014736Y004982D01*
X014358Y004982D01*
X014358Y004623D01*
X014580Y004623D01*
X014626Y004635D01*
X014667Y004659D01*
X014736Y004811D02*
X015740Y004811D01*
X015740Y004969D02*
X014736Y004969D01*
X014736Y005128D02*
X015740Y005128D01*
X015802Y005286D02*
X014713Y005286D01*
X014756Y005380D02*
X014604Y005380D01*
X014465Y005438D01*
X014358Y005545D01*
X014300Y005684D01*
X014300Y006316D01*
X014358Y006455D01*
X014465Y006562D01*
X014604Y006620D01*
X014756Y006620D01*
X014895Y006562D01*
X015002Y006455D01*
X015060Y006316D01*
X015060Y005684D01*
X015002Y005545D01*
X014895Y005438D01*
X014756Y005380D01*
X014902Y005445D02*
X015458Y005445D01*
X015334Y005603D02*
X015026Y005603D01*
X015060Y005762D02*
X015300Y005762D01*
X015300Y005920D02*
X015060Y005920D01*
X015060Y006079D02*
X015300Y006079D01*
X015300Y006237D02*
X015060Y006237D01*
X015027Y006396D02*
X015333Y006396D01*
X015457Y006554D02*
X014903Y006554D01*
X014457Y006554D02*
X013903Y006554D01*
X014027Y006396D02*
X014333Y006396D01*
X014300Y006237D02*
X014060Y006237D01*
X014060Y006079D02*
X014300Y006079D01*
X014300Y005920D02*
X014060Y005920D01*
X014060Y005762D02*
X014300Y005762D01*
X014334Y005603D02*
X014026Y005603D01*
X013902Y005445D02*
X014458Y005445D01*
X014358Y005286D02*
X014321Y005286D01*
X014321Y005128D02*
X014358Y005128D01*
X014358Y004969D02*
X014321Y004969D01*
X014321Y004811D02*
X014358Y004811D01*
X014358Y004652D02*
X014321Y004652D01*
X014130Y004250D02*
X013670Y004710D01*
X013670Y005000D01*
X013680Y005010D01*
X013680Y006000D01*
X013300Y006079D02*
X013060Y006079D01*
X013060Y006237D02*
X013300Y006237D01*
X013333Y006396D02*
X013027Y006396D01*
X013002Y006455D02*
X012895Y006562D01*
X012756Y006620D01*
X012604Y006620D01*
X012465Y006562D01*
X012358Y006455D01*
X012300Y006316D01*
X012300Y005684D01*
X012358Y005545D01*
X012460Y005443D01*
X012460Y005337D01*
X012405Y005337D01*
X012373Y005304D01*
X012371Y005307D01*
X012337Y005341D01*
X012296Y005365D01*
X012251Y005377D01*
X012029Y005377D01*
X012029Y005018D01*
X011992Y005018D01*
X011992Y004982D01*
X011614Y004982D01*
X011614Y004779D01*
X011626Y004734D01*
X011650Y004693D01*
X011683Y004659D01*
X011724Y004635D01*
X011770Y004623D01*
X011992Y004623D01*
X011992Y004982D01*
X012029Y004982D01*
X012029Y004623D01*
X012138Y004623D01*
X012015Y004572D01*
X011908Y004465D01*
X011850Y004326D01*
X011850Y004174D01*
X011908Y004035D01*
X012015Y003928D01*
X012154Y003870D01*
X012306Y003870D01*
X012445Y003928D01*
X012552Y004035D01*
X012610Y004174D01*
X012610Y004319D01*
X012771Y004480D01*
X012900Y004609D01*
X012900Y004663D01*
X012954Y004663D01*
X013036Y004745D01*
X013036Y005255D01*
X012954Y005337D01*
X012900Y005337D01*
X012900Y005443D01*
X013002Y005545D01*
X013060Y005684D01*
X013060Y006316D01*
X013002Y006455D01*
X012903Y006554D02*
X013457Y006554D01*
X013300Y005920D02*
X013060Y005920D01*
X013060Y005762D02*
X013300Y005762D01*
X013334Y005603D02*
X013026Y005603D01*
X012902Y005445D02*
X013458Y005445D01*
X013345Y005286D02*
X013005Y005286D01*
X013036Y005128D02*
X013314Y005128D01*
X013314Y004969D02*
X013036Y004969D01*
X013036Y004811D02*
X013314Y004811D01*
X013450Y004652D02*
X012900Y004652D01*
X012785Y004494D02*
X013575Y004494D01*
X013734Y004335D02*
X012626Y004335D01*
X012610Y004177D02*
X013750Y004177D01*
X013825Y004018D02*
X012535Y004018D01*
X012230Y004250D02*
X012680Y004700D01*
X012680Y005000D01*
X012680Y006000D01*
X012300Y006079D02*
X012100Y006079D01*
X012100Y006000D02*
X012100Y006273D01*
X012090Y006338D01*
X012069Y006401D01*
X012039Y006460D01*
X012000Y006514D01*
X011954Y006560D01*
X011900Y006599D01*
X011841Y006629D01*
X011778Y006650D01*
X011713Y006660D01*
X011680Y006660D01*
X011680Y006000D01*
X011680Y006000D01*
X012100Y006000D01*
X011680Y006000D01*
X011680Y006000D01*
X011680Y005340D01*
X011682Y005340D01*
X011650Y005307D01*
X011626Y005266D01*
X011614Y005221D01*
X011614Y005018D01*
X011992Y005018D01*
X011992Y005377D01*
X011853Y005377D01*
X011900Y005401D01*
X011954Y005440D01*
X012000Y005486D01*
X012039Y005540D01*
X012069Y005599D01*
X012090Y005662D01*
X012100Y005727D01*
X012100Y006000D01*
X012100Y005920D02*
X012300Y005920D01*
X012300Y005762D02*
X012100Y005762D01*
X012071Y005603D02*
X012334Y005603D01*
X012458Y005445D02*
X011958Y005445D01*
X011992Y005286D02*
X012029Y005286D01*
X012029Y005128D02*
X011992Y005128D01*
X011992Y004969D02*
X012029Y004969D01*
X012029Y004811D02*
X011992Y004811D01*
X011992Y004652D02*
X012029Y004652D01*
X011936Y004494D02*
X006120Y004494D01*
X006120Y004652D02*
X011696Y004652D01*
X011614Y004811D02*
X006120Y004811D01*
X006086Y004969D02*
X011614Y004969D01*
X011614Y005128D02*
X008948Y005128D01*
X009106Y005286D02*
X011637Y005286D01*
X011647Y005340D02*
X011680Y005340D01*
X011680Y006000D01*
X011680Y006000D01*
X011680Y006000D01*
X011260Y006000D01*
X011260Y006273D01*
X011270Y006338D01*
X011291Y006401D01*
X011321Y006460D01*
X011360Y006514D01*
X011406Y006560D01*
X011460Y006599D01*
X011519Y006629D01*
X011582Y006650D01*
X011647Y006660D01*
X011680Y006660D01*
X011680Y006000D01*
X011260Y006000D01*
X011260Y005727D01*
X011270Y005662D01*
X011291Y005599D01*
X011321Y005540D01*
X011360Y005486D01*
X011406Y005440D01*
X011460Y005401D01*
X011519Y005371D01*
X011582Y005350D01*
X011647Y005340D01*
X011680Y005445D02*
X011680Y005445D01*
X011680Y005603D02*
X011680Y005603D01*
X011680Y005762D02*
X011680Y005762D01*
X011680Y005920D02*
X011680Y005920D01*
X011680Y006079D02*
X011680Y006079D01*
X011680Y006237D02*
X011680Y006237D01*
X011680Y006396D02*
X011680Y006396D01*
X011680Y006554D02*
X011680Y006554D01*
X011960Y006554D02*
X012457Y006554D01*
X012333Y006396D02*
X012071Y006396D01*
X012100Y006237D02*
X012300Y006237D01*
X011400Y006554D02*
X010903Y006554D01*
X010895Y006562D02*
X010756Y006620D01*
X010604Y006620D01*
X010465Y006562D01*
X010358Y006455D01*
X010300Y006316D01*
X010300Y005684D01*
X010358Y005545D01*
X010465Y005438D01*
X010604Y005380D01*
X010756Y005380D01*
X010895Y005438D01*
X011002Y005545D01*
X011060Y005684D01*
X011060Y006316D01*
X011002Y006455D01*
X010895Y006562D01*
X011027Y006396D02*
X011289Y006396D01*
X011260Y006237D02*
X011060Y006237D01*
X011060Y006079D02*
X011260Y006079D01*
X011260Y005920D02*
X011060Y005920D01*
X011060Y005762D02*
X011260Y005762D01*
X011289Y005603D02*
X011026Y005603D01*
X010902Y005445D02*
X011402Y005445D01*
X010458Y005445D02*
X009902Y005445D01*
X010026Y005603D02*
X010334Y005603D01*
X010300Y005762D02*
X010060Y005762D01*
X010060Y005920D02*
X010300Y005920D01*
X010300Y006079D02*
X010060Y006079D01*
X010060Y006237D02*
X010300Y006237D01*
X010333Y006396D02*
X010027Y006396D01*
X009903Y006554D02*
X010457Y006554D01*
X009850Y006713D02*
X015510Y006713D01*
X015510Y006871D02*
X009850Y006871D01*
X009900Y007030D02*
X015510Y007030D01*
X015510Y007188D02*
X010058Y007188D01*
X010217Y007347D02*
X015510Y007347D01*
X015435Y007505D02*
X010375Y007505D01*
X010534Y007664D02*
X015276Y007664D01*
X015118Y007822D02*
X010692Y007822D01*
X010851Y007981D02*
X014959Y007981D01*
X014801Y008139D02*
X011009Y008139D01*
X011168Y008298D02*
X012494Y008298D01*
X012866Y008298D02*
X014642Y008298D01*
X014484Y008456D02*
X012955Y008456D01*
X014172Y008615D02*
X014325Y008615D01*
X014647Y008773D02*
X019942Y008773D01*
X019942Y008615D02*
X014806Y008615D01*
X014964Y008456D02*
X019942Y008456D01*
X019942Y008298D02*
X015123Y008298D01*
X015281Y008139D02*
X019942Y008139D01*
X019942Y007981D02*
X015440Y007981D01*
X015598Y007822D02*
X019942Y007822D01*
X019942Y007664D02*
X015757Y007664D01*
X015850Y007505D02*
X019942Y007505D01*
X019942Y007347D02*
X015850Y007347D01*
X015850Y007188D02*
X019942Y007188D01*
X019942Y007030D02*
X015850Y007030D01*
X015850Y006871D02*
X019942Y006871D01*
X019942Y006713D02*
X015850Y006713D01*
X015903Y006554D02*
X016457Y006554D01*
X016465Y006562D02*
X016358Y006455D01*
X016300Y006316D01*
X016300Y005684D01*
X016358Y005545D01*
X016465Y005438D01*
X016604Y005380D01*
X016756Y005380D01*
X016895Y005438D01*
X017002Y005545D01*
X017060Y005684D01*
X017060Y006316D01*
X017002Y006455D01*
X016895Y006562D01*
X016756Y006620D01*
X016604Y006620D01*
X016465Y006562D01*
X016333Y006396D02*
X016027Y006396D01*
X016060Y006237D02*
X016300Y006237D01*
X016300Y006079D02*
X016060Y006079D01*
X016060Y005920D02*
X016300Y005920D01*
X016300Y005762D02*
X016060Y005762D01*
X016026Y005603D02*
X016334Y005603D01*
X016377Y005445D02*
X016458Y005445D01*
X016558Y005286D02*
X016802Y005286D01*
X016740Y005128D02*
X016620Y005128D01*
X016620Y004969D02*
X016740Y004969D01*
X016740Y004811D02*
X016620Y004811D01*
X016620Y004652D02*
X016740Y004652D01*
X016740Y004494D02*
X016620Y004494D01*
X016609Y004335D02*
X016751Y004335D01*
X016831Y004177D02*
X016529Y004177D01*
X017529Y004177D02*
X017831Y004177D01*
X017751Y004335D02*
X017609Y004335D01*
X017620Y004494D02*
X017740Y004494D01*
X017740Y004652D02*
X017620Y004652D01*
X017620Y004811D02*
X017740Y004811D01*
X017740Y004969D02*
X017620Y004969D01*
X017620Y005128D02*
X017740Y005128D01*
X017802Y005286D02*
X017558Y005286D01*
X017604Y005380D02*
X017465Y005438D01*
X017358Y005545D01*
X017300Y005684D01*
X017300Y006316D01*
X017358Y006455D01*
X017465Y006562D01*
X017604Y006620D01*
X017756Y006620D01*
X017895Y006562D01*
X018002Y006455D01*
X018060Y006316D01*
X018060Y005684D01*
X018002Y005545D01*
X017895Y005438D01*
X017756Y005380D01*
X017604Y005380D01*
X017458Y005445D02*
X017377Y005445D01*
X017334Y005603D02*
X017026Y005603D01*
X017060Y005762D02*
X017300Y005762D01*
X017300Y005920D02*
X017060Y005920D01*
X017060Y006079D02*
X017300Y006079D01*
X017300Y006237D02*
X017060Y006237D01*
X017027Y006396D02*
X017333Y006396D01*
X017457Y006554D02*
X016903Y006554D01*
X017903Y006554D02*
X018457Y006554D01*
X018465Y006562D02*
X018358Y006455D01*
X018300Y006316D01*
X018300Y005684D01*
X018358Y005545D01*
X018465Y005438D01*
X018604Y005380D01*
X018756Y005380D01*
X018895Y005438D01*
X019002Y005545D01*
X019060Y005684D01*
X019060Y006316D01*
X019002Y006455D01*
X018895Y006562D01*
X018756Y006620D01*
X018604Y006620D01*
X018465Y006562D01*
X018333Y006396D02*
X018027Y006396D01*
X018060Y006237D02*
X018300Y006237D01*
X018300Y006079D02*
X018060Y006079D01*
X018060Y005920D02*
X018300Y005920D01*
X018300Y005762D02*
X018060Y005762D01*
X018026Y005603D02*
X018334Y005603D01*
X018377Y005445D02*
X018458Y005445D01*
X018558Y005286D02*
X018762Y005286D01*
X018706Y005128D02*
X018620Y005128D01*
X018620Y004969D02*
X018700Y004969D01*
X018700Y004811D02*
X018620Y004811D01*
X018620Y004652D02*
X018700Y004652D01*
X018700Y004494D02*
X018620Y004494D01*
X018609Y004335D02*
X018713Y004335D01*
X018785Y004177D02*
X018529Y004177D01*
X019160Y004177D02*
X019200Y004177D01*
X019200Y004335D02*
X019160Y004335D01*
X019160Y004494D02*
X019200Y004494D01*
X019200Y004652D02*
X019160Y004652D01*
X019160Y004811D02*
X019200Y004811D01*
X019200Y004969D02*
X019160Y004969D01*
X019160Y005128D02*
X019200Y005128D01*
X019200Y005286D02*
X019160Y005286D01*
X019160Y005445D02*
X019200Y005445D01*
X019334Y005603D02*
X019026Y005603D01*
X019060Y005762D02*
X019300Y005762D01*
X019300Y005920D02*
X019060Y005920D01*
X019060Y006079D02*
X019300Y006079D01*
X019300Y006237D02*
X019060Y006237D01*
X019027Y006396D02*
X019333Y006396D01*
X019457Y006554D02*
X018903Y006554D01*
X019903Y006554D02*
X019942Y006554D01*
X019902Y005445D02*
X019942Y005445D01*
X019942Y005286D02*
X019598Y005286D01*
X019654Y005128D02*
X019942Y005128D01*
X019942Y004969D02*
X019660Y004969D01*
X019660Y004811D02*
X019942Y004811D01*
X019942Y004652D02*
X019660Y004652D01*
X019660Y004494D02*
X019942Y004494D01*
X019942Y004335D02*
X019647Y004335D01*
X019575Y004177D02*
X019942Y004177D01*
X019942Y003067D02*
X000410Y003067D01*
X000410Y003226D02*
X002228Y003226D01*
X002219Y003384D02*
X000410Y003384D01*
X000410Y003543D02*
X002219Y003543D01*
X002577Y003384D02*
X002614Y003384D01*
X002614Y003226D02*
X002577Y003226D01*
X001398Y003860D02*
X000962Y003860D01*
X001081Y004018D02*
X001279Y004018D01*
X001240Y004177D02*
X001120Y004177D01*
X001120Y004335D02*
X001240Y004335D01*
X001240Y004494D02*
X001120Y004494D01*
X001120Y004652D02*
X001240Y004652D01*
X001240Y004811D02*
X001120Y004811D01*
X001086Y004969D02*
X001274Y004969D01*
X001385Y005128D02*
X000975Y005128D01*
X000900Y005286D02*
X008154Y005286D01*
X008312Y005128D02*
X005975Y005128D01*
X005902Y005445D02*
X006458Y005445D01*
X006465Y005438D02*
X006604Y005380D01*
X006756Y005380D01*
X006895Y005438D01*
X007002Y005545D01*
X007060Y005684D01*
X007060Y006316D01*
X007002Y006455D01*
X006895Y006562D01*
X006756Y006620D01*
X006604Y006620D01*
X006465Y006562D01*
X006358Y006455D01*
X006300Y006316D01*
X006300Y005684D01*
X006358Y005545D01*
X006465Y005438D01*
X006334Y005603D02*
X006026Y005603D01*
X006060Y005762D02*
X006300Y005762D01*
X006300Y005920D02*
X006060Y005920D01*
X006060Y006079D02*
X006300Y006079D01*
X006300Y006237D02*
X006060Y006237D01*
X006027Y006396D02*
X006333Y006396D01*
X006457Y006554D02*
X005903Y006554D01*
X006903Y006554D02*
X007457Y006554D01*
X007333Y006396D02*
X007027Y006396D01*
X007060Y006237D02*
X007300Y006237D01*
X007300Y006079D02*
X007060Y006079D01*
X007060Y005920D02*
X007300Y005920D01*
X007300Y005762D02*
X007060Y005762D01*
X007026Y005603D02*
X007334Y005603D01*
X007458Y005445D02*
X006902Y005445D01*
X007902Y005445D02*
X007995Y005445D01*
X008317Y005603D02*
X008334Y005603D01*
X008300Y005762D02*
X008159Y005762D01*
X008060Y005920D02*
X008300Y005920D01*
X008300Y006079D02*
X008060Y006079D01*
X008060Y006237D02*
X008300Y006237D01*
X008333Y006396D02*
X008027Y006396D01*
X007903Y006554D02*
X008457Y006554D01*
X008510Y006713D02*
X002850Y006713D01*
X002850Y006871D02*
X008510Y006871D01*
X008460Y007030D02*
X002850Y007030D01*
X002850Y007188D02*
X008302Y007188D01*
X008143Y007347D02*
X002850Y007347D01*
X002850Y007505D02*
X007985Y007505D01*
X007826Y007664D02*
X002850Y007664D01*
X002850Y007822D02*
X007668Y007822D01*
X007509Y007981D02*
X002850Y007981D01*
X002850Y008139D02*
X007351Y008139D01*
X007192Y008298D02*
X006116Y008298D01*
X005744Y008298D02*
X002850Y008298D01*
X002850Y008456D02*
X005655Y008456D01*
X005680Y008615D02*
X002850Y008615D01*
X002850Y008773D02*
X005717Y008773D01*
X005558Y008932D02*
X002850Y008932D01*
X002850Y009090D02*
X005400Y009090D01*
X005241Y009249D02*
X002850Y009249D01*
X002850Y009407D02*
X005083Y009407D01*
X005010Y009566D02*
X002850Y009566D01*
X002850Y009724D02*
X005010Y009724D01*
X005010Y009883D02*
X002850Y009883D01*
X002850Y010041D02*
X005010Y010041D01*
X005010Y010200D02*
X002850Y010200D01*
X002850Y010358D02*
X005010Y010358D01*
X005010Y010517D02*
X002850Y010517D01*
X002850Y010675D02*
X005010Y010675D01*
X005010Y010834D02*
X002850Y010834D01*
X002850Y010992D02*
X005010Y010992D01*
X005010Y011151D02*
X002850Y011151D01*
X002979Y011309D02*
X005010Y011309D01*
X005010Y011468D02*
X004925Y011468D01*
X004435Y011468D02*
X003925Y011468D01*
X004036Y011626D02*
X004324Y011626D01*
X004300Y011785D02*
X004060Y011785D01*
X004060Y011943D02*
X004300Y011943D01*
X004300Y012102D02*
X004060Y012102D01*
X004180Y012260D02*
X004300Y012260D01*
X004339Y012419D02*
X004343Y012419D01*
X003324Y011626D02*
X003296Y011626D01*
X003435Y011468D02*
X003138Y011468D01*
X002510Y011309D02*
X001979Y011309D01*
X001850Y011151D02*
X002510Y011151D01*
X002510Y010992D02*
X001850Y010992D01*
X001850Y010834D02*
X002510Y010834D01*
X002510Y010675D02*
X001850Y010675D01*
X001850Y010517D02*
X002510Y010517D01*
X002510Y010358D02*
X001850Y010358D01*
X001850Y010200D02*
X002510Y010200D01*
X002510Y010041D02*
X001850Y010041D01*
X001850Y009883D02*
X002510Y009883D01*
X002510Y009724D02*
X001850Y009724D01*
X001850Y009566D02*
X002510Y009566D01*
X002510Y009407D02*
X001850Y009407D01*
X001850Y009249D02*
X002510Y009249D01*
X002510Y009090D02*
X001850Y009090D01*
X001850Y008932D02*
X002510Y008932D01*
X002510Y008773D02*
X001850Y008773D01*
X001850Y008615D02*
X002510Y008615D01*
X002510Y008456D02*
X001850Y008456D01*
X001850Y008298D02*
X002510Y008298D01*
X002510Y008139D02*
X001850Y008139D01*
X001850Y007981D02*
X002510Y007981D01*
X002510Y007822D02*
X001850Y007822D01*
X001850Y007664D02*
X002510Y007664D01*
X002510Y007505D02*
X001850Y007505D01*
X001850Y007347D02*
X002510Y007347D01*
X002510Y007188D02*
X001850Y007188D01*
X001850Y007030D02*
X002510Y007030D01*
X002510Y006871D02*
X001850Y006871D01*
X001850Y006713D02*
X002510Y006713D01*
X002457Y006554D02*
X001903Y006554D01*
X002027Y006396D02*
X002333Y006396D01*
X002300Y006237D02*
X002060Y006237D01*
X002060Y006079D02*
X002300Y006079D01*
X002300Y005920D02*
X002060Y005920D01*
X002060Y005762D02*
X002300Y005762D01*
X002334Y005603D02*
X002026Y005603D01*
X001902Y005445D02*
X002458Y005445D01*
X002329Y005128D02*
X001975Y005128D01*
X002086Y004969D02*
X002230Y004969D01*
X002200Y004811D02*
X002120Y004811D01*
X002120Y004652D02*
X002200Y004652D01*
X002902Y005445D02*
X003458Y005445D01*
X003334Y005603D02*
X003026Y005603D01*
X003060Y005762D02*
X003300Y005762D01*
X003300Y005920D02*
X003060Y005920D01*
X003060Y006079D02*
X003300Y006079D01*
X003300Y006237D02*
X003060Y006237D01*
X003027Y006396D02*
X003333Y006396D01*
X003457Y006554D02*
X002903Y006554D01*
X001510Y006713D02*
X000410Y006713D01*
X000410Y006871D02*
X001510Y006871D01*
X001510Y007030D02*
X000410Y007030D01*
X000410Y007188D02*
X001510Y007188D01*
X001510Y007347D02*
X000410Y007347D01*
X000410Y007505D02*
X001510Y007505D01*
X001510Y007664D02*
X000410Y007664D01*
X000410Y007822D02*
X001510Y007822D01*
X001510Y007981D02*
X000410Y007981D01*
X000410Y008139D02*
X001510Y008139D01*
X001510Y008298D02*
X000410Y008298D01*
X000410Y008456D02*
X001510Y008456D01*
X001510Y008615D02*
X000410Y008615D01*
X000410Y008773D02*
X001510Y008773D01*
X001510Y008932D02*
X000410Y008932D01*
X000410Y009090D02*
X001510Y009090D01*
X001510Y009249D02*
X000410Y009249D01*
X000410Y009407D02*
X001510Y009407D01*
X001510Y009566D02*
X000410Y009566D01*
X000410Y009724D02*
X001510Y009724D01*
X001510Y009883D02*
X000410Y009883D01*
X000410Y010041D02*
X001510Y010041D01*
X001510Y010200D02*
X000410Y010200D01*
X000410Y010358D02*
X001510Y010358D01*
X001510Y010517D02*
X000410Y010517D01*
X000410Y010675D02*
X001510Y010675D01*
X001510Y010834D02*
X000410Y010834D01*
X000410Y010992D02*
X001510Y010992D01*
X001510Y011151D02*
X000410Y011151D01*
X000410Y011309D02*
X001510Y011309D01*
X001435Y011468D02*
X000925Y011468D01*
X001036Y011626D02*
X001324Y011626D01*
X001300Y011785D02*
X001060Y011785D01*
X001060Y011943D02*
X001300Y011943D01*
X001300Y012102D02*
X001060Y012102D01*
X001060Y012260D02*
X001300Y012260D01*
X001343Y012419D02*
X001189Y012419D01*
X001347Y012577D02*
X001501Y012577D01*
X001506Y012736D02*
X001510Y012736D01*
X002296Y011626D02*
X002324Y011626D01*
X002435Y011468D02*
X002138Y011468D01*
X000435Y011468D02*
X000410Y011468D01*
X000410Y006554D02*
X000457Y006554D01*
X000903Y006554D02*
X001457Y006554D01*
X001333Y006396D02*
X001027Y006396D01*
X001060Y006237D02*
X001300Y006237D01*
X001300Y006079D02*
X001060Y006079D01*
X001060Y005920D02*
X001300Y005920D01*
X001300Y005762D02*
X001060Y005762D01*
X001026Y005603D02*
X001334Y005603D01*
X001458Y005445D02*
X000902Y005445D01*
X000680Y006000D02*
X000680Y004500D01*
X006081Y004018D02*
X011925Y004018D01*
X011850Y004177D02*
X006120Y004177D01*
X006120Y004335D02*
X011854Y004335D01*
X012680Y005000D02*
X012680Y005000D01*
X015902Y005445D02*
X015983Y005445D01*
X016902Y005445D02*
X016983Y005445D01*
X017902Y005445D02*
X017983Y005445D01*
X018902Y005445D02*
X018906Y005445D01*
X019454Y005445D02*
X019458Y005445D01*
X019942Y008932D02*
X014489Y008932D01*
X014330Y009090D02*
X019942Y009090D01*
X019942Y009249D02*
X007822Y009249D01*
X007663Y009407D02*
X019942Y009407D01*
X019942Y009566D02*
X007505Y009566D01*
X007346Y009724D02*
X019942Y009724D01*
X019942Y009883D02*
X007188Y009883D01*
X007029Y010041D02*
X019942Y010041D01*
X019942Y010200D02*
X006871Y010200D01*
X006712Y010358D02*
X019942Y010358D01*
X019942Y010517D02*
X006554Y010517D01*
X006395Y010675D02*
X007765Y010675D01*
X007606Y010834D02*
X006350Y010834D01*
X006350Y010992D02*
X007448Y010992D01*
X007289Y011151D02*
X006350Y011151D01*
X006350Y011309D02*
X007131Y011309D01*
X006972Y011468D02*
X006925Y011468D01*
X006435Y011468D02*
X006350Y011468D01*
X009265Y005445D02*
X009458Y005445D01*
X015345Y010675D02*
X019942Y010675D01*
X019942Y010834D02*
X015504Y010834D01*
X015662Y010992D02*
X019942Y010992D01*
X019942Y011151D02*
X015821Y011151D01*
X015979Y011309D02*
X019942Y011309D01*
X019925Y011468D02*
X019942Y011468D01*
X019435Y011468D02*
X018925Y011468D01*
X019036Y011626D02*
X019324Y011626D01*
X019300Y011785D02*
X019060Y011785D01*
X019060Y011943D02*
X019300Y011943D01*
X019300Y012102D02*
X019060Y012102D01*
X019060Y012260D02*
X019300Y012260D01*
X019343Y012419D02*
X019017Y012419D01*
X018859Y012577D02*
X019501Y012577D01*
X019760Y012736D02*
X018185Y012736D01*
X018289Y012894D02*
X018973Y012894D01*
X018960Y012901D02*
X019019Y012871D01*
X019082Y012850D01*
X019147Y012840D01*
X019180Y012840D01*
X019213Y012840D01*
X019278Y012850D01*
X019341Y012871D01*
X019400Y012901D01*
X019454Y012940D01*
X019500Y012986D01*
X019539Y013040D01*
X019569Y013099D01*
X019590Y013162D01*
X019600Y013227D01*
X019600Y013500D01*
X019180Y013500D01*
X019180Y012840D01*
X019180Y013500D01*
X019180Y013500D01*
X019180Y013500D01*
X018760Y013500D01*
X018760Y013773D01*
X018770Y013838D01*
X018791Y013901D01*
X018821Y013960D01*
X018860Y014014D01*
X018906Y014060D01*
X018960Y014099D01*
X019019Y014129D01*
X019082Y014150D01*
X019147Y014160D01*
X019180Y014160D01*
X019180Y013500D01*
X018760Y013500D01*
X018760Y013227D01*
X018770Y013162D01*
X018791Y013099D01*
X018821Y013040D01*
X018860Y012986D01*
X018906Y012940D01*
X018960Y012901D01*
X018814Y013053D02*
X018505Y013053D01*
X018560Y013211D02*
X018763Y013211D01*
X018760Y013370D02*
X018560Y013370D01*
X018560Y013528D02*
X018760Y013528D01*
X018760Y013687D02*
X018560Y013687D01*
X018548Y013845D02*
X018773Y013845D01*
X018852Y014004D02*
X018454Y014004D01*
X018961Y014479D02*
X017191Y014479D01*
X017350Y014321D02*
X019119Y014321D01*
X019278Y014162D02*
X017508Y014162D01*
X017667Y014004D02*
X017906Y014004D01*
X017510Y013053D02*
X017505Y013053D01*
X017546Y012894D02*
X017289Y012894D01*
X017071Y012894D02*
X016814Y012894D01*
X016656Y012736D02*
X017704Y012736D01*
X017859Y012577D02*
X017863Y012577D01*
X018017Y012419D02*
X018021Y012419D01*
X018060Y012260D02*
X018180Y012260D01*
X018060Y012102D02*
X018300Y012102D01*
X018300Y011943D02*
X018060Y011943D01*
X018060Y011785D02*
X018300Y011785D01*
X018324Y011626D02*
X018036Y011626D01*
X017925Y011468D02*
X018435Y011468D01*
X017435Y011468D02*
X016925Y011468D01*
X017036Y011626D02*
X017324Y011626D01*
X017300Y011785D02*
X017060Y011785D01*
X017060Y011943D02*
X017300Y011943D01*
X017300Y012102D02*
X017060Y012102D01*
X017060Y012260D02*
X017300Y012260D01*
X017343Y012419D02*
X017017Y012419D01*
X016859Y012577D02*
X017501Y012577D01*
X018026Y012894D02*
X018071Y012894D01*
X018343Y012577D02*
X018501Y012577D01*
X019180Y012894D02*
X019180Y012894D01*
X019180Y013053D02*
X019180Y013053D01*
X019180Y013211D02*
X019180Y013211D01*
X019180Y013370D02*
X019180Y013370D01*
X019180Y013528D02*
X019180Y013528D01*
X019180Y013687D02*
X019180Y013687D01*
X019180Y013845D02*
X019180Y013845D01*
X019180Y014004D02*
X019180Y014004D01*
X019587Y013845D02*
X019595Y013845D01*
X019600Y013687D02*
X019753Y013687D01*
X019760Y013528D02*
X019600Y013528D01*
X019600Y013370D02*
X019760Y013370D01*
X019760Y013211D02*
X019597Y013211D01*
X019546Y013053D02*
X019760Y013053D01*
X019760Y012894D02*
X019387Y012894D01*
X016501Y012577D02*
X016497Y012577D01*
X016324Y011626D02*
X016296Y011626D01*
X016435Y011468D02*
X016138Y011468D01*
D16*
X016180Y011750D02*
X016180Y012500D01*
X017180Y013500D01*
X017680Y013750D02*
X017680Y013000D01*
X018680Y012000D01*
X019680Y012000D02*
X019930Y012250D01*
X019930Y013750D01*
X018930Y014750D01*
X013430Y014750D01*
X013180Y014500D02*
X016930Y014500D01*
X017680Y013750D01*
X016180Y013500D02*
X015180Y012500D01*
X015180Y011750D01*
X014430Y011000D01*
X008680Y011000D01*
X007680Y012000D01*
X007180Y012750D02*
X007680Y013250D01*
X007680Y014750D01*
X006430Y015000D02*
X016680Y015000D01*
X016680Y017000D02*
X019180Y019500D01*
X017180Y019500D02*
X014930Y017250D01*
X006680Y017250D01*
X006430Y017000D01*
X006430Y017500D02*
X001680Y012750D01*
X001680Y012000D01*
X002180Y011750D02*
X002180Y012650D01*
X005780Y016250D01*
X008180Y016250D01*
X008430Y016000D02*
X005930Y016000D01*
X003180Y013250D01*
X003180Y011750D01*
X002680Y011250D01*
X002680Y006000D01*
X001680Y006000D02*
X001680Y011250D01*
X002180Y011750D01*
X001180Y013000D02*
X006430Y018250D01*
X011930Y018250D01*
X013180Y019500D01*
X013430Y017750D02*
X006280Y017750D01*
X000680Y012150D01*
X000680Y012000D01*
X003680Y012000D02*
X004680Y013000D01*
X004680Y013950D01*
X006480Y015750D01*
X014430Y015750D01*
X013180Y014500D02*
X012180Y013500D01*
X011830Y012850D02*
X012830Y012850D01*
X013680Y012000D01*
X012680Y012000D02*
X012080Y012600D01*
X011080Y012600D01*
X010180Y013500D01*
X009930Y012750D02*
X010680Y012000D01*
X009930Y012750D02*
X008930Y012750D01*
X008180Y013500D01*
X006680Y012000D02*
X007930Y010750D01*
X015180Y010750D01*
X016180Y011750D01*
X014180Y009000D02*
X015680Y007500D01*
X015680Y006000D01*
X013930Y008750D02*
X005980Y008750D01*
X005180Y009550D01*
X005180Y013500D01*
X005680Y014250D02*
X006430Y015000D01*
X005680Y014250D02*
X005680Y012000D01*
X006180Y010650D02*
X007830Y009000D01*
X014180Y009000D01*
X012680Y008500D02*
X011130Y008500D01*
X009680Y007050D01*
X009680Y006000D01*
X009180Y005600D02*
X009180Y008500D01*
X008680Y007050D02*
X008680Y006000D01*
X009180Y005600D02*
X008830Y005250D01*
X008430Y005250D01*
X007680Y006000D01*
X008680Y007050D02*
X007230Y008500D01*
X005930Y008500D01*
X006180Y010650D02*
X006180Y013500D01*
X007180Y016500D02*
X007680Y017000D01*
X016680Y017000D01*
X014180Y017500D02*
X016180Y019500D01*
X015180Y019500D02*
X013430Y017750D01*
X014180Y017500D02*
X006430Y017500D01*
X006180Y018500D02*
X010180Y018500D01*
X011180Y019500D01*
X009180Y016500D02*
X007680Y016500D01*
X009180Y016500D02*
X009430Y016250D01*
X011180Y013500D02*
X011830Y012850D01*
X006180Y018500D02*
X003180Y015500D01*
X003430Y017750D02*
X005180Y019500D01*
X005180Y003500D02*
X005179Y003500D01*
D17*
X005930Y008500D03*
X009180Y008500D03*
X012680Y008500D03*
X013930Y008750D03*
X013430Y014750D03*
X014430Y015750D03*
X016680Y015000D03*
X009430Y016250D03*
X008430Y016000D03*
X008180Y016250D03*
X007680Y016500D03*
X007180Y016500D03*
X006430Y017000D03*
X007680Y014750D03*
X007180Y012750D03*
X003180Y015500D03*
X003430Y017750D03*
X001180Y013000D03*
M02*
