%
M48
M72
T01C0.0130
T02C0.0320
T03C0.0400
%
T01
X5930Y8500
X9180Y8500
X12680Y8500
X13930Y8750
X13430Y14750
X14430Y15750
X16680Y15000
X9430Y16250
X8430Y16000
X8180Y16250
X7680Y16500
X7180Y16500
X6430Y17000
X7680Y14750
X7180Y12750
X3180Y15500
X3430Y17750
X1180Y13000
T02
X680Y12000
X1680Y12000
X2680Y12000
X3680Y12000
X4680Y12000
X5680Y12000
X6680Y12000
X7680Y12000
X8680Y12000
X9680Y12000
X10680Y12000
X11680Y12000
X12680Y12000
X13680Y12000
X14680Y12000
X15680Y12000
X16680Y12000
X17680Y12000
X18680Y12000
X19680Y12000
X19180Y13500
X18180Y13500
X17180Y13500
X16180Y13500
X15180Y13500
X14180Y13500
X13180Y13500
X12180Y13500
X11180Y13500
X10180Y13500
X9180Y13500
X8180Y13500
X7180Y13500
X6180Y13500
X5180Y13500
X4180Y13500
X4180Y19500
X5180Y19500
X6180Y19500
X7180Y19500
X8180Y19500
X9180Y19500
X10180Y19500
X11180Y19500
X12180Y19500
X13180Y19500
X14180Y19500
X15180Y19500
X16180Y19500
X17180Y19500
X18180Y19500
X19180Y19500
X18680Y6000
X17680Y6000
X16680Y6000
X15680Y6000
X14680Y6000
X13680Y6000
X12680Y6000
X11680Y6000
X10680Y6000
X9680Y6000
X8680Y6000
X7680Y6000
X6680Y6000
X5680Y6000
X4680Y6000
X3680Y6000
X2680Y6000
X1680Y6000
X680Y6000
X12230Y4250
X14130Y4250
X19680Y6000
T03
X680Y4500
X1680Y4500
X2680Y4500
X3680Y4500
X4680Y4500
X5680Y4500
X16180Y4750
X17180Y4750
X18180Y4750
X19180Y4750
M30
