G75*
G70*
%OFA0B0*%
%FSLAX24Y24*%
%IPPOS*%
%LPD*%
%AMOC8*
5,1,8,0,0,1.08239X$1,22.5*
%
%ADD10C,0.0000*%
%ADD11C,0.0040*%
%ADD12C,0.0060*%
%ADD13C,0.0070*%
%ADD14C,0.0160*%
%ADD15C,0.0050*%
D10*
X000180Y002750D02*
X000180Y020370D01*
X020172Y020370D01*
X020172Y002750D01*
X000180Y002750D01*
D11*
X006450Y003220D02*
X006450Y003373D01*
X006450Y003297D02*
X006910Y003297D01*
X006910Y003373D02*
X006910Y003220D01*
X006833Y003527D02*
X006526Y003527D01*
X006450Y003604D01*
X006450Y003757D01*
X006526Y003834D01*
X006526Y003987D02*
X006603Y003987D01*
X006680Y004064D01*
X006680Y004218D01*
X006757Y004294D01*
X006833Y004294D01*
X006910Y004218D01*
X006910Y004064D01*
X006833Y003987D01*
X006833Y003834D02*
X006910Y003757D01*
X006910Y003604D01*
X006833Y003527D01*
X006526Y003987D02*
X006450Y004064D01*
X006450Y004218D01*
X006526Y004294D01*
X006450Y004448D02*
X006450Y004678D01*
X006526Y004755D01*
X006680Y004755D01*
X006757Y004678D01*
X006757Y004448D01*
X006910Y004448D02*
X006450Y004448D01*
X002710Y013270D02*
X002300Y013270D01*
X002300Y013475D01*
X002368Y013544D01*
X002505Y013544D01*
X002573Y013475D01*
X002573Y013270D01*
X002573Y013407D02*
X002710Y013544D01*
X002642Y013684D02*
X002710Y013753D01*
X002710Y013958D01*
X002778Y013958D02*
X002847Y013890D01*
X002847Y013821D01*
X002778Y013958D02*
X002436Y013958D01*
X002642Y014099D02*
X002573Y014167D01*
X002573Y014372D01*
X002505Y014372D02*
X002710Y014372D01*
X002710Y014167D01*
X002642Y014099D01*
X002436Y014167D02*
X002436Y014304D01*
X002505Y014372D01*
X002436Y014513D02*
X002436Y014718D01*
X002505Y014787D01*
X002710Y014787D01*
X002710Y014513D02*
X002436Y014513D01*
X001860Y014513D02*
X001450Y014513D01*
X001450Y014718D01*
X001518Y014787D01*
X001655Y014787D01*
X001723Y014718D01*
X001723Y014513D01*
X001723Y014650D02*
X001860Y014787D01*
X001792Y014927D02*
X001860Y014996D01*
X001860Y015133D01*
X001792Y015201D01*
X001518Y015201D01*
X001450Y015133D01*
X001450Y014996D01*
X001518Y014927D01*
X001792Y014927D01*
X001860Y015342D02*
X001450Y015342D01*
X001586Y015479D01*
X001450Y015615D01*
X001860Y015615D01*
X002300Y015615D02*
X002436Y015479D01*
X002300Y015342D01*
X002710Y015342D01*
X002710Y015615D02*
X002300Y015615D01*
X002436Y015825D02*
X002436Y015961D01*
X002505Y016030D01*
X002710Y016030D01*
X002710Y015825D01*
X002642Y015756D01*
X002573Y015825D01*
X002573Y016030D01*
X002436Y016170D02*
X002436Y016239D01*
X002505Y016307D01*
X002436Y016376D01*
X002505Y016444D01*
X002710Y016444D01*
X002710Y016307D02*
X002505Y016307D01*
X002436Y016170D02*
X002710Y016170D01*
X002642Y016585D02*
X002710Y016653D01*
X002710Y016790D01*
X002642Y016858D01*
X002505Y016858D01*
X002436Y016790D01*
X002436Y016653D01*
X002505Y016585D01*
X002642Y016585D01*
X002710Y016999D02*
X002436Y016999D01*
X002436Y017204D01*
X002505Y017273D01*
X002710Y017273D01*
X002642Y017414D02*
X002710Y017482D01*
X002710Y017619D01*
X002573Y017687D02*
X002573Y017414D01*
X002505Y017414D02*
X002436Y017482D01*
X002436Y017619D01*
X002505Y017687D01*
X002573Y017687D01*
X002642Y017414D02*
X002505Y017414D01*
X001997Y017481D02*
X001997Y017550D01*
X001928Y017618D01*
X001586Y017618D01*
X001586Y017413D01*
X001655Y017344D01*
X001792Y017344D01*
X001860Y017413D01*
X001860Y017618D01*
X001860Y017759D02*
X001586Y017759D01*
X001586Y017896D02*
X001586Y017964D01*
X001586Y017896D02*
X001723Y017759D01*
X001792Y018104D02*
X001723Y018173D01*
X001723Y018378D01*
X001655Y018378D02*
X001860Y018378D01*
X001860Y018173D01*
X001792Y018104D01*
X001586Y018173D02*
X001586Y018309D01*
X001655Y018378D01*
X001586Y018518D02*
X001586Y018587D01*
X001655Y018655D01*
X001586Y018724D01*
X001655Y018792D01*
X001860Y018792D01*
X001860Y018655D02*
X001655Y018655D01*
X001586Y018518D02*
X001860Y018518D01*
X001860Y018933D02*
X001586Y018933D01*
X001586Y019001D01*
X001655Y019070D01*
X001586Y019138D01*
X001655Y019206D01*
X001860Y019206D01*
X001860Y019070D02*
X001655Y019070D01*
X001655Y019347D02*
X001586Y019416D01*
X001586Y019552D01*
X001655Y019621D01*
X001723Y019621D01*
X001723Y019347D01*
X001655Y019347D02*
X001792Y019347D01*
X001860Y019416D01*
X001860Y019552D01*
X001860Y019762D02*
X001586Y019762D01*
X001586Y019898D02*
X001586Y019967D01*
X001586Y019898D02*
X001723Y019762D01*
X002300Y019690D02*
X002300Y019554D01*
X002368Y019485D01*
X002300Y019690D02*
X002368Y019759D01*
X002436Y019759D01*
X002710Y019485D01*
X002710Y019759D01*
X002710Y019345D02*
X002710Y019071D01*
X002710Y019208D02*
X002300Y019208D01*
X002436Y019071D01*
X002368Y018930D02*
X002642Y018657D01*
X002710Y018725D01*
X002710Y018862D01*
X002642Y018930D01*
X002368Y018930D01*
X002300Y018862D01*
X002300Y018725D01*
X002368Y018657D01*
X002642Y018657D01*
X002710Y018516D02*
X002710Y018242D01*
X002436Y018516D01*
X002368Y018516D01*
X002300Y018447D01*
X002300Y018311D01*
X002368Y018242D01*
X001792Y017204D02*
X001655Y017204D01*
X001586Y017135D01*
X001586Y016999D01*
X001655Y016930D01*
X001792Y016930D01*
X001860Y016999D01*
X001860Y017135D01*
X001792Y017204D01*
X001586Y016790D02*
X001586Y016722D01*
X001723Y016585D01*
X001860Y016585D02*
X001586Y016585D01*
X001518Y016444D02*
X001655Y016444D01*
X001723Y016376D01*
X001723Y016170D01*
X001860Y016170D02*
X001450Y016170D01*
X001450Y016376D01*
X001518Y016444D01*
X001518Y014372D02*
X001655Y014372D01*
X001723Y014304D01*
X001723Y014099D01*
X001860Y014099D02*
X001450Y014099D01*
X001450Y014304D01*
X001518Y014372D01*
X001450Y013958D02*
X001450Y013684D01*
X001860Y013684D01*
X001860Y013958D01*
X001655Y013821D02*
X001655Y013684D01*
X001860Y013544D02*
X001860Y013270D01*
X001450Y013270D01*
X001450Y013544D01*
X001655Y013407D02*
X001655Y013270D01*
X002436Y013684D02*
X002642Y013684D01*
X016950Y003887D02*
X017410Y003580D01*
X017410Y003887D02*
X016950Y003580D01*
X016950Y003427D02*
X016950Y003120D01*
X016950Y003273D02*
X017410Y003273D01*
X017950Y003300D02*
X017950Y003070D01*
X018410Y003070D01*
X018257Y003070D02*
X018257Y003300D01*
X018180Y003377D01*
X018026Y003377D01*
X017950Y003300D01*
X017950Y003530D02*
X018410Y003837D01*
X018410Y003530D02*
X017950Y003837D01*
X018410Y003377D02*
X018257Y003223D01*
D12*
X018430Y004250D02*
X017930Y004250D01*
X017680Y004500D01*
X017430Y004250D01*
X016930Y004250D01*
X016680Y004500D01*
X016430Y004250D01*
X015930Y004250D01*
X015680Y004500D01*
X015680Y005000D01*
X015930Y005250D01*
X016430Y005250D01*
X016680Y005000D01*
X016930Y005250D01*
X017430Y005250D01*
X017680Y005000D01*
X017930Y005250D01*
X018430Y005250D01*
X018680Y005000D01*
X018930Y005250D01*
X019430Y005250D01*
X019680Y005000D01*
X019680Y004500D01*
X019430Y004250D01*
X018930Y004250D01*
X018680Y004500D01*
X018430Y004250D01*
X020180Y006550D02*
X000180Y006550D01*
X000180Y008500D01*
X000224Y008502D01*
X000267Y008508D01*
X000309Y008517D01*
X000351Y008530D01*
X000391Y008547D01*
X000430Y008567D01*
X000467Y008590D01*
X000501Y008617D01*
X000534Y008646D01*
X000563Y008679D01*
X000590Y008713D01*
X000613Y008750D01*
X000633Y008789D01*
X000650Y008829D01*
X000663Y008871D01*
X000672Y008913D01*
X000678Y008956D01*
X000680Y009000D01*
X000678Y009044D01*
X000672Y009087D01*
X000663Y009129D01*
X000650Y009171D01*
X000633Y009211D01*
X000613Y009250D01*
X000590Y009287D01*
X000563Y009321D01*
X000534Y009354D01*
X000501Y009383D01*
X000467Y009410D01*
X000430Y009433D01*
X000391Y009453D01*
X000351Y009470D01*
X000309Y009483D01*
X000267Y009492D01*
X000224Y009498D01*
X000180Y009500D01*
X000180Y011450D01*
X020180Y011450D01*
X020180Y006550D01*
X014330Y004950D02*
X012030Y004950D01*
X011979Y004948D01*
X011928Y004943D01*
X011878Y004933D01*
X011828Y004920D01*
X011780Y004904D01*
X011733Y004884D01*
X011687Y004860D01*
X011644Y004834D01*
X011602Y004804D01*
X011563Y004771D01*
X011526Y004736D01*
X011492Y004698D01*
X011461Y004657D01*
X011432Y004615D01*
X011407Y004570D01*
X011386Y004524D01*
X011367Y004476D01*
X011353Y004427D01*
X011342Y004377D01*
X011334Y004327D01*
X011330Y004276D01*
X011330Y004224D01*
X011334Y004173D01*
X011342Y004123D01*
X011353Y004073D01*
X011367Y004024D01*
X011386Y003976D01*
X011407Y003930D01*
X011432Y003885D01*
X011461Y003843D01*
X011492Y003802D01*
X011526Y003764D01*
X011563Y003729D01*
X011602Y003696D01*
X011644Y003666D01*
X011687Y003640D01*
X011733Y003616D01*
X011780Y003596D01*
X011828Y003580D01*
X011878Y003567D01*
X011928Y003557D01*
X011979Y003552D01*
X012030Y003550D01*
X014330Y003550D01*
X014381Y003552D01*
X014432Y003557D01*
X014482Y003567D01*
X014532Y003580D01*
X014580Y003596D01*
X014627Y003616D01*
X014673Y003640D01*
X014716Y003666D01*
X014758Y003696D01*
X014797Y003729D01*
X014834Y003764D01*
X014868Y003802D01*
X014899Y003843D01*
X014928Y003885D01*
X014953Y003930D01*
X014974Y003976D01*
X014993Y004024D01*
X015007Y004073D01*
X015018Y004123D01*
X015026Y004173D01*
X015030Y004224D01*
X015030Y004276D01*
X015026Y004327D01*
X015018Y004377D01*
X015007Y004427D01*
X014993Y004476D01*
X014974Y004524D01*
X014953Y004570D01*
X014928Y004615D01*
X014899Y004657D01*
X014868Y004698D01*
X014834Y004736D01*
X014797Y004771D01*
X014758Y004804D01*
X014716Y004834D01*
X014673Y004860D01*
X014627Y004884D01*
X014580Y004904D01*
X014532Y004920D01*
X014482Y004933D01*
X014432Y004943D01*
X014381Y004948D01*
X014330Y004950D01*
X013680Y004250D02*
X013430Y004250D01*
X013430Y003900D01*
X013280Y003900D02*
X013080Y003900D01*
X013080Y004600D01*
X013280Y004600D01*
X013280Y003900D01*
X012930Y003900D02*
X012930Y004250D01*
X012680Y004250D01*
X012930Y004250D02*
X012930Y004600D01*
X013430Y004600D02*
X013430Y004250D01*
X019680Y013850D02*
X003680Y013850D01*
X003680Y016100D01*
X003719Y016102D01*
X003758Y016108D01*
X003796Y016117D01*
X003833Y016130D01*
X003869Y016147D01*
X003902Y016167D01*
X003934Y016191D01*
X003963Y016217D01*
X003989Y016246D01*
X004013Y016278D01*
X004033Y016311D01*
X004050Y016347D01*
X004063Y016384D01*
X004072Y016422D01*
X004078Y016461D01*
X004080Y016500D01*
X004078Y016539D01*
X004072Y016578D01*
X004063Y016616D01*
X004050Y016653D01*
X004033Y016689D01*
X004013Y016722D01*
X003989Y016754D01*
X003963Y016783D01*
X003934Y016809D01*
X003902Y016833D01*
X003869Y016853D01*
X003833Y016870D01*
X003796Y016883D01*
X003758Y016892D01*
X003719Y016898D01*
X003680Y016900D01*
X003680Y019150D01*
X019680Y019150D01*
X019680Y013850D01*
X016472Y016180D02*
X016472Y016821D01*
X016472Y016500D02*
X016045Y016500D01*
X015827Y016500D02*
X015827Y016714D01*
X015720Y016821D01*
X015400Y016821D01*
X015400Y016180D01*
X015400Y016394D02*
X015720Y016394D01*
X015827Y016500D01*
X016045Y016180D02*
X016045Y016821D01*
X015183Y016607D02*
X015183Y016180D01*
X015183Y016500D02*
X014755Y016500D01*
X014755Y016607D02*
X014969Y016821D01*
X015183Y016607D01*
X014755Y016607D02*
X014755Y016180D01*
X014538Y016287D02*
X014431Y016180D01*
X014218Y016180D01*
X014111Y016287D01*
X014538Y016714D01*
X014538Y016287D01*
X014538Y016714D02*
X014431Y016821D01*
X014218Y016821D01*
X014111Y016714D01*
X014111Y016287D01*
X013893Y016180D02*
X013466Y016180D01*
X013680Y016180D02*
X013680Y016821D01*
X013466Y016607D01*
X013249Y016714D02*
X013249Y016287D01*
X013142Y016180D01*
X012929Y016180D01*
X012822Y016287D01*
X013249Y016714D01*
X013142Y016821D01*
X012929Y016821D01*
X012822Y016714D01*
X012822Y016287D01*
X012391Y016500D02*
X012177Y016500D01*
X011960Y016394D02*
X011960Y016287D01*
X011853Y016180D01*
X011640Y016180D01*
X011533Y016287D01*
X011315Y016287D02*
X011315Y016714D01*
X011208Y016821D01*
X010995Y016821D01*
X010888Y016714D01*
X010888Y016607D01*
X010995Y016500D01*
X011315Y016500D01*
X011315Y016287D02*
X011208Y016180D01*
X010995Y016180D01*
X010888Y016287D01*
X010671Y016287D02*
X010564Y016180D01*
X010350Y016180D01*
X010244Y016287D01*
X010457Y016500D02*
X010564Y016500D01*
X010671Y016394D01*
X010671Y016287D01*
X010564Y016500D02*
X010671Y016607D01*
X010671Y016714D01*
X010564Y016821D01*
X010350Y016821D01*
X010244Y016714D01*
X010026Y016821D02*
X009599Y016821D01*
X009813Y016821D02*
X009813Y016180D01*
X009382Y016287D02*
X009275Y016180D01*
X009061Y016180D01*
X008955Y016287D01*
X008737Y016287D02*
X008630Y016180D01*
X008417Y016180D01*
X008310Y016287D01*
X008417Y016500D02*
X008310Y016607D01*
X008310Y016714D01*
X008417Y016821D01*
X008630Y016821D01*
X008737Y016714D01*
X008955Y016714D02*
X008955Y016607D01*
X009061Y016500D01*
X009275Y016500D01*
X009382Y016394D01*
X009382Y016287D01*
X009382Y016714D02*
X009275Y016821D01*
X009061Y016821D01*
X008955Y016714D01*
X008737Y016394D02*
X008630Y016500D01*
X008417Y016500D01*
X008737Y016394D02*
X008737Y016287D01*
X011533Y016607D02*
X011640Y016500D01*
X011853Y016500D01*
X011960Y016394D01*
X012177Y016180D02*
X012177Y016821D01*
X012604Y016821D01*
X011960Y016714D02*
X011853Y016821D01*
X011640Y016821D01*
X011533Y016714D01*
X011533Y016607D01*
X005000Y016575D02*
X005000Y017002D01*
X005000Y016788D02*
X004359Y016788D01*
X004573Y016575D01*
X004359Y016357D02*
X004893Y016357D01*
X005000Y016250D01*
X005000Y016037D01*
X004893Y015930D01*
X004359Y015930D01*
D13*
X001745Y009880D02*
X001745Y009459D01*
X001745Y009669D02*
X001114Y009669D01*
X001325Y009459D01*
X001220Y009235D02*
X001114Y009130D01*
X001114Y008920D01*
X001220Y008815D01*
X001640Y008815D01*
X001745Y008920D01*
X001745Y009130D01*
X001640Y009235D01*
X001745Y008595D02*
X001745Y008385D01*
X001745Y008490D02*
X001114Y008490D01*
X001114Y008385D02*
X001114Y008595D01*
X007215Y008655D02*
X007215Y009286D01*
X007530Y009286D01*
X007635Y009180D01*
X007635Y008970D01*
X007530Y008865D01*
X007215Y008865D01*
X007860Y008655D02*
X008070Y008655D01*
X007965Y008655D02*
X007965Y009286D01*
X007860Y009286D02*
X008070Y009286D01*
X008289Y009180D02*
X008289Y008760D01*
X008394Y008655D01*
X008605Y008655D01*
X008710Y008760D01*
X008934Y008655D02*
X009354Y008655D01*
X009144Y008655D02*
X009144Y009286D01*
X008934Y009075D01*
X008710Y009180D02*
X008605Y009286D01*
X008394Y009286D01*
X008289Y009180D01*
X009578Y009180D02*
X009578Y009075D01*
X009683Y008970D01*
X009894Y008970D01*
X009999Y008865D01*
X009999Y008760D01*
X009894Y008655D01*
X009683Y008655D01*
X009578Y008760D01*
X009578Y008865D01*
X009683Y008970D01*
X009894Y008970D02*
X009999Y009075D01*
X009999Y009180D01*
X009894Y009286D01*
X009683Y009286D01*
X009578Y009180D01*
X010223Y009286D02*
X010223Y008655D01*
X010223Y008970D02*
X010433Y008970D01*
X010223Y009286D02*
X010643Y009286D01*
X010867Y008970D02*
X011288Y008970D01*
X011512Y008970D02*
X011722Y009075D01*
X011827Y009075D01*
X011932Y008970D01*
X011932Y008760D01*
X011827Y008655D01*
X011617Y008655D01*
X011512Y008760D01*
X011512Y008970D02*
X011512Y009286D01*
X011932Y009286D01*
X012157Y009286D02*
X012157Y008970D01*
X012367Y009075D01*
X012472Y009075D01*
X012577Y008970D01*
X012577Y008760D01*
X012472Y008655D01*
X012262Y008655D01*
X012157Y008760D01*
X012157Y009286D02*
X012577Y009286D01*
X012801Y009180D02*
X012906Y009286D01*
X013116Y009286D01*
X013221Y009180D01*
X012801Y008760D01*
X012906Y008655D01*
X013116Y008655D01*
X013221Y008760D01*
X013221Y009180D01*
X012801Y009180D02*
X012801Y008760D01*
X013446Y008550D02*
X013866Y008550D01*
X014090Y008970D02*
X014511Y008970D01*
X014405Y008655D02*
X014405Y009286D01*
X014090Y008970D01*
X014735Y008760D02*
X015155Y009180D01*
X015155Y008760D01*
X015050Y008655D01*
X014840Y008655D01*
X014735Y008760D01*
X014735Y009180D01*
X014840Y009286D01*
X015050Y009286D01*
X015155Y009180D01*
X011183Y009286D02*
X011183Y008655D01*
X010867Y008970D02*
X011183Y009286D01*
D14*
X012030Y005150D02*
X014330Y005150D01*
X014389Y005148D01*
X014447Y005142D01*
X014506Y005133D01*
X014563Y005119D01*
X014619Y005102D01*
X014674Y005081D01*
X014728Y005057D01*
X014780Y005029D01*
X014830Y004998D01*
X014878Y004964D01*
X014923Y004927D01*
X014966Y004886D01*
X015007Y004843D01*
X015044Y004798D01*
X015078Y004750D01*
X015109Y004700D01*
X015137Y004648D01*
X015161Y004594D01*
X015182Y004539D01*
X015199Y004483D01*
X015213Y004426D01*
X015222Y004367D01*
X015228Y004309D01*
X015230Y004250D01*
X015228Y004191D01*
X015222Y004133D01*
X015213Y004074D01*
X015199Y004017D01*
X015182Y003961D01*
X015161Y003906D01*
X015137Y003852D01*
X015109Y003800D01*
X015078Y003750D01*
X015044Y003702D01*
X015007Y003657D01*
X014966Y003614D01*
X014923Y003573D01*
X014878Y003536D01*
X014830Y003502D01*
X014780Y003471D01*
X014728Y003443D01*
X014674Y003419D01*
X014619Y003398D01*
X014563Y003381D01*
X014506Y003367D01*
X014447Y003358D01*
X014389Y003352D01*
X014330Y003350D01*
X012030Y003350D01*
X011971Y003352D01*
X011913Y003358D01*
X011854Y003367D01*
X011797Y003381D01*
X011741Y003398D01*
X011686Y003419D01*
X011632Y003443D01*
X011580Y003471D01*
X011530Y003502D01*
X011482Y003536D01*
X011437Y003573D01*
X011394Y003614D01*
X011353Y003657D01*
X011316Y003702D01*
X011282Y003750D01*
X011251Y003800D01*
X011223Y003852D01*
X011199Y003906D01*
X011178Y003961D01*
X011161Y004017D01*
X011147Y004074D01*
X011138Y004133D01*
X011132Y004191D01*
X011130Y004250D01*
X011132Y004309D01*
X011138Y004367D01*
X011147Y004426D01*
X011161Y004483D01*
X011178Y004539D01*
X011199Y004594D01*
X011223Y004648D01*
X011251Y004700D01*
X011282Y004750D01*
X011316Y004798D01*
X011353Y004843D01*
X011394Y004886D01*
X011437Y004927D01*
X011482Y004964D01*
X011530Y004998D01*
X011580Y005029D01*
X011632Y005057D01*
X011686Y005081D01*
X011741Y005102D01*
X011797Y005119D01*
X011854Y005133D01*
X011913Y005142D01*
X011971Y005148D01*
X012030Y005150D01*
D15*
X010816Y003625D02*
X010816Y003175D01*
X010966Y003175D02*
X010665Y003175D01*
X010505Y003175D02*
X010355Y003325D01*
X010280Y003175D02*
X010205Y003250D01*
X010205Y003550D01*
X010280Y003625D01*
X010430Y003625D01*
X010505Y003550D01*
X010505Y003250D01*
X010430Y003175D01*
X010280Y003175D01*
X010665Y003475D02*
X010816Y003625D01*
X015255Y004525D02*
X015555Y004525D01*
X015405Y004525D02*
X015405Y004975D01*
X015255Y004825D01*
X019805Y004750D02*
X020105Y004750D01*
X020030Y004525D02*
X020030Y004975D01*
X019805Y004750D01*
M02*
