G75*
G70*
%OFA0B0*%
%FSLAX24Y24*%
%IPPOS*%
%LPD*%
%AMOC8*
5,1,8,0,0,1.08239X$1,22.5*
%
%ADD10C,0.0560*%
%ADD11C,0.0680*%
%ADD12C,0.0560*%
%ADD13C,0.0350*%
D10*
X000680Y005760D02*
X000680Y006240D01*
X001680Y006240D02*
X001680Y005760D01*
X002680Y005760D02*
X002680Y006240D01*
X003680Y006240D02*
X003680Y005760D01*
X004680Y005760D02*
X004680Y006240D01*
X005680Y006240D02*
X005680Y005760D01*
X006680Y005760D02*
X006680Y006240D01*
X007680Y006240D02*
X007680Y005760D01*
X008680Y005760D02*
X008680Y006240D01*
X009680Y006240D02*
X009680Y005760D01*
X010680Y005760D02*
X010680Y006240D01*
X011680Y006240D02*
X011680Y005760D01*
X012680Y005760D02*
X012680Y006240D01*
X013680Y006240D02*
X013680Y005760D01*
X014680Y005760D02*
X014680Y006240D01*
X015680Y006240D02*
X015680Y005760D01*
X016680Y005760D02*
X016680Y006240D01*
X017680Y006240D02*
X017680Y005760D01*
X018680Y005760D02*
X018680Y006240D01*
X019680Y006240D02*
X019680Y005760D01*
X019680Y011760D02*
X019680Y012240D01*
X018680Y012240D02*
X018680Y011760D01*
X017680Y011760D02*
X017680Y012240D01*
X016680Y012240D02*
X016680Y011760D01*
X015680Y011760D02*
X015680Y012240D01*
X014680Y012240D02*
X014680Y011760D01*
X013680Y011760D02*
X013680Y012240D01*
X012680Y012240D02*
X012680Y011760D01*
X011680Y011760D02*
X011680Y012240D01*
X010680Y012240D02*
X010680Y011760D01*
X009680Y011760D02*
X009680Y012240D01*
X008680Y012240D02*
X008680Y011760D01*
X007680Y011760D02*
X007680Y012240D01*
X006680Y012240D02*
X006680Y011760D01*
X005680Y011760D02*
X005680Y012240D01*
X004680Y012240D02*
X004680Y011760D01*
X003680Y011760D02*
X003680Y012240D01*
X002680Y012240D02*
X002680Y011760D01*
X001680Y011760D02*
X001680Y012240D01*
X000680Y012240D02*
X000680Y011760D01*
X004180Y013260D02*
X004180Y013740D01*
X005180Y013740D02*
X005180Y013260D01*
X006180Y013260D02*
X006180Y013740D01*
X007180Y013740D02*
X007180Y013260D01*
X008180Y013260D02*
X008180Y013740D01*
X009180Y013740D02*
X009180Y013260D01*
X010180Y013260D02*
X010180Y013740D01*
X011180Y013740D02*
X011180Y013260D01*
X012180Y013260D02*
X012180Y013740D01*
X013180Y013740D02*
X013180Y013260D01*
X014180Y013260D02*
X014180Y013740D01*
X015180Y013740D02*
X015180Y013260D01*
X016180Y013260D02*
X016180Y013740D01*
X017180Y013740D02*
X017180Y013260D01*
X018180Y013260D02*
X018180Y013740D01*
X019180Y013740D02*
X019180Y013260D01*
X019180Y019260D02*
X019180Y019740D01*
X018180Y019740D02*
X018180Y019260D01*
X017180Y019260D02*
X017180Y019740D01*
X016180Y019740D02*
X016180Y019260D01*
X015180Y019260D02*
X015180Y019740D01*
X014180Y019740D02*
X014180Y019260D01*
X013180Y019260D02*
X013180Y019740D01*
X012180Y019740D02*
X012180Y019260D01*
X011180Y019260D02*
X011180Y019740D01*
X010180Y019740D02*
X010180Y019260D01*
X009180Y019260D02*
X009180Y019740D01*
X008180Y019740D02*
X008180Y019260D01*
X007180Y019260D02*
X007180Y019740D01*
X006180Y019740D02*
X006180Y019260D01*
X005180Y019260D02*
X005180Y019740D01*
X004180Y019740D02*
X004180Y019260D01*
D11*
X000680Y004800D02*
X000680Y004200D01*
X001680Y004200D02*
X001680Y004800D01*
X002680Y004800D02*
X002680Y004200D01*
X003680Y004200D02*
X003680Y004800D01*
X004680Y004800D02*
X004680Y004200D01*
X005680Y004200D02*
X005680Y004800D01*
X016180Y005050D02*
X016180Y004450D01*
X017180Y004450D02*
X017180Y005050D01*
X018180Y005050D02*
X018180Y004450D01*
X019180Y004450D02*
X019180Y005050D01*
D12*
X014130Y004250D03*
X012230Y004250D03*
D13*
X012680Y008500D03*
X013930Y008750D03*
X009180Y008500D03*
X005930Y008500D03*
X007180Y012750D03*
X007680Y014750D03*
X008430Y016000D03*
X008180Y016250D03*
X007680Y016500D03*
X007180Y016500D03*
X006430Y017000D03*
X009430Y016250D03*
X013430Y014750D03*
X014430Y015750D03*
X016680Y015000D03*
X003430Y017750D03*
X003180Y015500D03*
X001180Y013000D03*
M02*
