G75*
G70*
%OFA0B0*%
%FSLAX24Y24*%
%IPPOS*%
%LPD*%
%AMOC8*
5,1,8,0,0,1.08239X$1,22.5*
%
%ADD10C,0.0480*%
%ADD11C,0.0600*%
%ADD12C,0.0480*%
%ADD13C,0.0060*%
%ADD14C,0.0270*%
%ADD15C,0.0160*%
D10*
X000680Y005760D02*
X000680Y006240D01*
X001680Y006240D02*
X001680Y005760D01*
X002680Y005760D02*
X002680Y006240D01*
X003680Y006240D02*
X003680Y005760D01*
X004680Y005760D02*
X004680Y006240D01*
X005680Y006240D02*
X005680Y005760D01*
X006680Y005760D02*
X006680Y006240D01*
X007680Y006240D02*
X007680Y005760D01*
X008680Y005760D02*
X008680Y006240D01*
X009680Y006240D02*
X009680Y005760D01*
X010680Y005760D02*
X010680Y006240D01*
X011680Y006240D02*
X011680Y005760D01*
X012680Y005760D02*
X012680Y006240D01*
X013680Y006240D02*
X013680Y005760D01*
X014680Y005760D02*
X014680Y006240D01*
X015680Y006240D02*
X015680Y005760D01*
X016680Y005760D02*
X016680Y006240D01*
X017680Y006240D02*
X017680Y005760D01*
X018680Y005760D02*
X018680Y006240D01*
X019680Y006240D02*
X019680Y005760D01*
X019680Y011760D02*
X019680Y012240D01*
X018680Y012240D02*
X018680Y011760D01*
X017680Y011760D02*
X017680Y012240D01*
X016680Y012240D02*
X016680Y011760D01*
X015680Y011760D02*
X015680Y012240D01*
X014680Y012240D02*
X014680Y011760D01*
X013680Y011760D02*
X013680Y012240D01*
X012680Y012240D02*
X012680Y011760D01*
X011680Y011760D02*
X011680Y012240D01*
X010680Y012240D02*
X010680Y011760D01*
X009680Y011760D02*
X009680Y012240D01*
X008680Y012240D02*
X008680Y011760D01*
X007680Y011760D02*
X007680Y012240D01*
X006680Y012240D02*
X006680Y011760D01*
X005680Y011760D02*
X005680Y012240D01*
X004680Y012240D02*
X004680Y011760D01*
X003680Y011760D02*
X003680Y012240D01*
X002680Y012240D02*
X002680Y011760D01*
X001680Y011760D02*
X001680Y012240D01*
X000680Y012240D02*
X000680Y011760D01*
X004180Y013260D02*
X004180Y013740D01*
X005180Y013740D02*
X005180Y013260D01*
X006180Y013260D02*
X006180Y013740D01*
X007180Y013740D02*
X007180Y013260D01*
X008180Y013260D02*
X008180Y013740D01*
X009180Y013740D02*
X009180Y013260D01*
X010180Y013260D02*
X010180Y013740D01*
X011180Y013740D02*
X011180Y013260D01*
X012180Y013260D02*
X012180Y013740D01*
X013180Y013740D02*
X013180Y013260D01*
X014180Y013260D02*
X014180Y013740D01*
X015180Y013740D02*
X015180Y013260D01*
X016180Y013260D02*
X016180Y013740D01*
X017180Y013740D02*
X017180Y013260D01*
X018180Y013260D02*
X018180Y013740D01*
X019180Y013740D02*
X019180Y013260D01*
X019180Y019260D02*
X019180Y019740D01*
X018180Y019740D02*
X018180Y019260D01*
X017180Y019260D02*
X017180Y019740D01*
X016180Y019740D02*
X016180Y019260D01*
X015180Y019260D02*
X015180Y019740D01*
X014180Y019740D02*
X014180Y019260D01*
X013180Y019260D02*
X013180Y019740D01*
X012180Y019740D02*
X012180Y019260D01*
X011180Y019260D02*
X011180Y019740D01*
X010180Y019740D02*
X010180Y019260D01*
X009180Y019260D02*
X009180Y019740D01*
X008180Y019740D02*
X008180Y019260D01*
X007180Y019260D02*
X007180Y019740D01*
X006180Y019740D02*
X006180Y019260D01*
X005180Y019260D02*
X005180Y019740D01*
X004180Y019740D02*
X004180Y019260D01*
D11*
X016180Y005050D02*
X016180Y004450D01*
X017180Y004450D02*
X017180Y005050D01*
X018180Y005050D02*
X018180Y004450D01*
X019180Y004450D02*
X019180Y005050D01*
X005680Y004800D02*
X005680Y004200D01*
X004680Y004200D02*
X004680Y004800D01*
X003680Y004800D02*
X003680Y004200D01*
X002680Y004200D02*
X002680Y004800D01*
X001680Y004800D02*
X001680Y004200D01*
X000680Y004200D02*
X000680Y004800D01*
D12*
X012230Y004250D03*
X014130Y004250D03*
D13*
X015180Y004500D02*
X015930Y003750D01*
X017730Y003750D01*
X018180Y004200D01*
X018180Y004750D01*
X017180Y004750D02*
X017180Y007000D01*
X015680Y008500D01*
X015680Y012000D01*
X016180Y012500D02*
X016180Y011500D01*
X018680Y009000D01*
X018680Y006000D01*
X019680Y006000D02*
X019680Y009000D01*
X017180Y011500D01*
X017180Y012500D01*
X016680Y013000D01*
X016680Y014000D01*
X016180Y014500D01*
X014680Y014500D01*
X014180Y014000D01*
X014180Y013500D01*
X013680Y013000D02*
X013680Y019000D01*
X014180Y019500D01*
X012180Y019500D02*
X012180Y018450D01*
X010980Y017250D01*
X009930Y017250D01*
X008680Y016000D01*
X008680Y012950D01*
X009180Y012450D01*
X009180Y008500D01*
X008680Y007500D02*
X008680Y012000D01*
X007680Y013000D01*
X007680Y014000D01*
X007430Y014250D01*
X007430Y016700D01*
X005430Y018700D01*
X004380Y018700D01*
X004180Y018900D01*
X004180Y019500D01*
X003180Y018000D02*
X005430Y018000D01*
X006430Y017000D01*
X007180Y016500D02*
X005680Y015000D01*
X005680Y013000D01*
X004680Y012000D01*
X004180Y012300D02*
X003430Y013050D01*
X003430Y017750D01*
X003180Y018000D02*
X002680Y017500D01*
X002680Y012000D01*
X001680Y012000D02*
X001680Y011400D01*
X004180Y008900D01*
X004180Y005000D01*
X004680Y004500D01*
X003680Y004500D02*
X003680Y004750D01*
X003180Y005250D01*
X003180Y008350D01*
X000680Y010850D01*
X000680Y012000D01*
X001180Y011150D02*
X001180Y013000D01*
X001180Y011150D02*
X003680Y008650D01*
X003680Y006000D01*
X004680Y006000D02*
X004680Y009100D01*
X003180Y010600D01*
X003180Y015500D01*
X006180Y012500D02*
X007180Y013500D01*
X007180Y012750D02*
X007180Y006500D01*
X006680Y006000D01*
X006180Y006500D02*
X006180Y012500D01*
X004180Y012300D02*
X004180Y010250D01*
X005930Y008500D01*
X006180Y006500D02*
X005680Y006000D01*
X008680Y007500D02*
X009130Y007050D01*
X010230Y007050D01*
X010680Y006600D01*
X010680Y006000D01*
X010680Y005450D01*
X008730Y003500D01*
X001930Y003500D01*
X001680Y003850D01*
X001680Y004500D01*
X009180Y013500D02*
X009180Y014000D01*
X009480Y014300D01*
X011180Y014300D01*
X011680Y013800D01*
X011680Y012000D01*
X012180Y012500D02*
X012680Y012900D01*
X012680Y014350D01*
X010780Y016250D01*
X009430Y016250D01*
X008930Y017000D02*
X008930Y019000D01*
X009180Y019250D01*
X009180Y019500D01*
X009930Y019000D02*
X010180Y019250D01*
X010180Y019500D01*
X009930Y019000D02*
X009930Y017500D01*
X008430Y016000D01*
X008180Y016250D02*
X008930Y017000D01*
X007680Y016500D02*
X007680Y017900D01*
X007180Y018400D01*
X007180Y019500D01*
X007930Y018750D02*
X008180Y019000D01*
X008180Y019500D01*
X007930Y018750D02*
X007930Y015000D01*
X007680Y014750D01*
X012180Y012500D02*
X012180Y007750D01*
X012930Y007000D01*
X014280Y007000D01*
X014680Y006500D01*
X014680Y006000D01*
X015180Y006500D02*
X015180Y004500D01*
X016680Y006000D02*
X016680Y006650D01*
X014580Y008750D01*
X013930Y008750D01*
X013680Y008000D02*
X015180Y006500D01*
X013680Y008000D02*
X013680Y011000D01*
X014680Y012000D01*
X013680Y013000D02*
X013180Y012500D01*
X013180Y009000D01*
X012680Y008500D01*
X016180Y012500D02*
X015180Y013500D01*
X016680Y015000D02*
X017430Y015000D01*
X018180Y014250D01*
X018180Y013500D01*
X015230Y015750D02*
X014430Y015750D01*
X015230Y015750D02*
X018180Y018700D01*
X018180Y019500D01*
X013430Y014750D02*
X013180Y014500D01*
X013180Y013500D01*
D14*
X013430Y014750D03*
X014430Y015750D03*
X016680Y015000D03*
X013930Y008750D03*
X012680Y008500D03*
X009180Y008500D03*
X005930Y008500D03*
X007180Y012750D03*
X007680Y014750D03*
X008430Y016000D03*
X008180Y016250D03*
X007680Y016500D03*
X007180Y016500D03*
X006430Y017000D03*
X009430Y016250D03*
X003430Y017750D03*
X003180Y015500D03*
X001180Y013000D03*
D15*
X000410Y003848D02*
X000410Y002980D01*
X019942Y002980D01*
X019942Y005485D01*
X019895Y005438D01*
X019756Y005380D01*
X019604Y005380D01*
X019465Y005438D01*
X019358Y005545D01*
X019300Y005684D01*
X019300Y006316D01*
X019358Y006455D01*
X019465Y006562D01*
X019510Y006581D01*
X019510Y008930D01*
X017110Y011330D01*
X017010Y011430D01*
X017010Y011564D01*
X017002Y011545D01*
X016895Y011438D01*
X016756Y011380D01*
X016604Y011380D01*
X016495Y011425D01*
X018850Y009070D01*
X018850Y006581D01*
X018895Y006562D01*
X019002Y006455D01*
X019060Y006316D01*
X019060Y005684D01*
X019002Y005545D01*
X018895Y005438D01*
X018756Y005380D01*
X018604Y005380D01*
X018465Y005438D01*
X018358Y005545D01*
X018300Y005684D01*
X018300Y006316D01*
X018358Y006455D01*
X018465Y006562D01*
X018510Y006581D01*
X018510Y008930D01*
X016110Y011330D01*
X016010Y011430D01*
X016010Y011564D01*
X016002Y011545D01*
X015895Y011438D01*
X015850Y011419D01*
X015850Y008570D01*
X017250Y007170D01*
X017350Y007070D01*
X017350Y006436D01*
X017358Y006455D01*
X017465Y006562D01*
X017604Y006620D01*
X017756Y006620D01*
X017895Y006562D01*
X018002Y006455D01*
X018060Y006316D01*
X018060Y005684D01*
X018002Y005545D01*
X017895Y005438D01*
X017756Y005380D01*
X017604Y005380D01*
X017465Y005438D01*
X017358Y005545D01*
X017350Y005564D01*
X017350Y005456D01*
X017429Y005423D01*
X017553Y005299D01*
X017620Y005138D01*
X017620Y004362D01*
X017553Y004201D01*
X017429Y004077D01*
X017268Y004010D01*
X017092Y004010D01*
X016931Y004077D01*
X016807Y004201D01*
X016740Y004362D01*
X016740Y005138D01*
X016807Y005299D01*
X016931Y005423D01*
X017010Y005456D01*
X017010Y005564D01*
X017002Y005545D01*
X016895Y005438D01*
X016756Y005380D01*
X016604Y005380D01*
X016465Y005438D01*
X016358Y005545D01*
X016300Y005684D01*
X016300Y006316D01*
X016358Y006455D01*
X016465Y006562D01*
X016509Y006581D01*
X014510Y008580D01*
X014149Y008580D01*
X014086Y008517D01*
X013985Y008475D01*
X013875Y008475D01*
X013850Y008485D01*
X013850Y008070D01*
X015250Y006670D01*
X015350Y006570D01*
X015350Y006436D01*
X015358Y006455D01*
X015465Y006562D01*
X015604Y006620D01*
X015756Y006620D01*
X015895Y006562D01*
X016002Y006455D01*
X016060Y006316D01*
X016060Y005684D01*
X016002Y005545D01*
X015895Y005438D01*
X015756Y005380D01*
X015604Y005380D01*
X015465Y005438D01*
X015358Y005545D01*
X015350Y005564D01*
X015350Y004570D01*
X016000Y003920D01*
X017660Y003920D01*
X017874Y004134D01*
X017807Y004201D01*
X017740Y004362D01*
X017740Y005138D01*
X017807Y005299D01*
X017931Y005423D01*
X018092Y005490D01*
X018268Y005490D01*
X018429Y005423D01*
X018553Y005299D01*
X018620Y005138D01*
X018620Y004362D01*
X018553Y004201D01*
X018429Y004077D01*
X018268Y004010D01*
X018230Y004010D01*
X017900Y003680D01*
X017800Y003580D01*
X015860Y003580D01*
X015760Y003680D01*
X015010Y004430D01*
X015010Y005564D01*
X015002Y005545D01*
X014895Y005438D01*
X014756Y005380D01*
X014604Y005380D01*
X014465Y005438D01*
X014358Y005545D01*
X014300Y005684D01*
X014300Y006316D01*
X014358Y006455D01*
X014436Y006533D01*
X014198Y006830D01*
X012860Y006830D01*
X012760Y006930D01*
X012110Y007580D01*
X012010Y007680D01*
X012010Y011564D01*
X012002Y011545D01*
X011895Y011438D01*
X011756Y011380D01*
X011604Y011380D01*
X011465Y011438D01*
X011358Y011545D01*
X011300Y011684D01*
X011300Y012316D01*
X011358Y012455D01*
X011465Y012562D01*
X011510Y012581D01*
X011510Y013064D01*
X011502Y013045D01*
X011395Y012938D01*
X011256Y012880D01*
X011104Y012880D01*
X010965Y012938D01*
X010858Y013045D01*
X010800Y013184D01*
X010800Y013816D01*
X010858Y013955D01*
X010965Y014062D01*
X011104Y014120D01*
X011120Y014120D01*
X011110Y014130D01*
X009550Y014130D01*
X009439Y014018D01*
X009502Y013955D01*
X009560Y013816D01*
X009560Y013184D01*
X009502Y013045D01*
X009395Y012938D01*
X009256Y012880D01*
X009104Y012880D01*
X008965Y012938D01*
X008858Y013045D01*
X008850Y013064D01*
X008850Y013020D01*
X009350Y012520D01*
X009350Y012500D01*
X009360Y012514D01*
X009406Y012560D01*
X009460Y012599D01*
X009519Y012629D01*
X009582Y012650D01*
X009647Y012660D01*
X009680Y012660D01*
X009680Y012000D01*
X009680Y012000D01*
X010100Y012000D01*
X010100Y012273D01*
X010090Y012338D01*
X010069Y012401D01*
X010039Y012460D01*
X010000Y012514D01*
X009954Y012560D01*
X009900Y012599D01*
X009841Y012629D01*
X009778Y012650D01*
X009713Y012660D01*
X009680Y012660D01*
X009680Y012000D01*
X009680Y012000D01*
X010100Y012000D01*
X010100Y011727D01*
X010090Y011662D01*
X010069Y011599D01*
X010039Y011540D01*
X010000Y011486D01*
X009954Y011440D01*
X009900Y011401D01*
X009841Y011371D01*
X009778Y011350D01*
X009713Y011340D01*
X009680Y011340D01*
X009680Y012000D01*
X009680Y012000D01*
X009680Y011340D01*
X009647Y011340D01*
X009582Y011350D01*
X009519Y011371D01*
X009460Y011401D01*
X009406Y011440D01*
X009360Y011486D01*
X009350Y011500D01*
X009350Y008719D01*
X009413Y008656D01*
X009455Y008555D01*
X009455Y008445D01*
X009413Y008344D01*
X009336Y008267D01*
X009235Y008225D01*
X009125Y008225D01*
X009024Y008267D01*
X008947Y008344D01*
X008905Y008445D01*
X008905Y008555D01*
X008947Y008656D01*
X009010Y008719D01*
X009010Y011564D01*
X009002Y011545D01*
X008895Y011438D01*
X008850Y011419D01*
X008850Y007570D01*
X009200Y007220D01*
X010300Y007220D01*
X010750Y006770D01*
X010850Y006670D01*
X010850Y006581D01*
X010895Y006562D01*
X011002Y006455D01*
X011060Y006316D01*
X011060Y005684D01*
X011002Y005545D01*
X010895Y005438D01*
X010850Y005419D01*
X010850Y005380D01*
X008800Y003330D01*
X001984Y003330D01*
X001972Y003321D01*
X001916Y003330D01*
X001860Y003330D01*
X001848Y003341D01*
X001833Y003344D01*
X001800Y003390D01*
X001760Y003430D01*
X001760Y003446D01*
X001550Y003740D01*
X001510Y003780D01*
X001510Y003794D01*
X001431Y003827D01*
X001307Y003951D01*
X001240Y004112D01*
X001240Y004888D01*
X001307Y005049D01*
X001431Y005173D01*
X001592Y005240D01*
X001768Y005240D01*
X001929Y005173D01*
X002053Y005049D01*
X002120Y004888D01*
X002120Y004112D01*
X002053Y003951D01*
X001929Y003827D01*
X001911Y003819D01*
X002017Y003670D01*
X008660Y003670D01*
X010446Y005457D01*
X010358Y005545D01*
X010300Y005684D01*
X010300Y006316D01*
X010358Y006455D01*
X010465Y006562D01*
X010474Y006566D01*
X010160Y006880D01*
X009060Y006880D01*
X008960Y006980D01*
X008610Y007330D01*
X008610Y007330D01*
X008510Y007430D01*
X008510Y011419D01*
X008465Y011438D01*
X008358Y011545D01*
X008300Y011684D01*
X008300Y012140D01*
X008015Y012425D01*
X008060Y012316D01*
X008060Y011684D01*
X008002Y011545D01*
X007895Y011438D01*
X007756Y011380D01*
X007604Y011380D01*
X007465Y011438D01*
X007358Y011545D01*
X007350Y011564D01*
X007350Y006436D01*
X007358Y006455D01*
X007465Y006562D01*
X007604Y006620D01*
X007756Y006620D01*
X007895Y006562D01*
X008002Y006455D01*
X008060Y006316D01*
X008060Y005684D01*
X008002Y005545D01*
X007895Y005438D01*
X007756Y005380D01*
X007604Y005380D01*
X007465Y005438D01*
X007358Y005545D01*
X007300Y005684D01*
X007300Y006316D01*
X007345Y006425D01*
X007250Y006330D01*
X007060Y006140D01*
X007060Y005684D01*
X007002Y005545D01*
X006895Y005438D01*
X006756Y005380D01*
X006604Y005380D01*
X006465Y005438D01*
X006358Y005545D01*
X006300Y005684D01*
X006300Y006316D01*
X006345Y006425D01*
X006060Y006140D01*
X006060Y005684D01*
X006002Y005545D01*
X005895Y005438D01*
X005756Y005380D01*
X005604Y005380D01*
X005465Y005438D01*
X005358Y005545D01*
X005300Y005684D01*
X005300Y006316D01*
X005358Y006455D01*
X005465Y006562D01*
X005604Y006620D01*
X005756Y006620D01*
X005895Y006562D01*
X005948Y006509D01*
X006010Y006570D01*
X006010Y008235D01*
X005985Y008225D01*
X005875Y008225D01*
X005774Y008267D01*
X005697Y008344D01*
X005655Y008445D01*
X005655Y008535D01*
X004110Y010080D01*
X004010Y010180D01*
X004010Y011564D01*
X004002Y011545D01*
X003895Y011438D01*
X003756Y011380D01*
X003604Y011380D01*
X003465Y011438D01*
X003358Y011545D01*
X003350Y011564D01*
X003350Y010670D01*
X004850Y009170D01*
X004850Y006581D01*
X004895Y006562D01*
X005002Y006455D01*
X005060Y006316D01*
X005060Y005684D01*
X005002Y005545D01*
X004895Y005438D01*
X004756Y005380D01*
X004604Y005380D01*
X004465Y005438D01*
X004358Y005545D01*
X004350Y005564D01*
X004350Y005092D01*
X004431Y005173D01*
X004592Y005240D01*
X004768Y005240D01*
X004929Y005173D01*
X005053Y005049D01*
X005120Y004888D01*
X005120Y004112D01*
X005053Y003951D01*
X004929Y003827D01*
X004768Y003760D01*
X004592Y003760D01*
X004431Y003827D01*
X004307Y003951D01*
X004240Y004112D01*
X004240Y004700D01*
X004120Y004820D01*
X004120Y004112D01*
X004053Y003951D01*
X003929Y003827D01*
X003768Y003760D01*
X003592Y003760D01*
X003431Y003827D01*
X003307Y003951D01*
X003240Y004112D01*
X003240Y004888D01*
X003258Y004931D01*
X003010Y005180D01*
X003010Y005564D01*
X003002Y005545D01*
X002895Y005438D01*
X002756Y005380D01*
X002604Y005380D01*
X002465Y005438D01*
X002358Y005545D01*
X002300Y005684D01*
X002300Y006316D01*
X002358Y006455D01*
X002465Y006562D01*
X002604Y006620D01*
X002756Y006620D01*
X002895Y006562D01*
X003002Y006455D01*
X003010Y006436D01*
X003010Y008280D01*
X000610Y010680D01*
X000510Y010780D01*
X000510Y011419D01*
X000465Y011438D01*
X000410Y011493D01*
X000410Y006507D01*
X000465Y006562D01*
X000604Y006620D01*
X000756Y006620D01*
X000895Y006562D01*
X001002Y006455D01*
X001060Y006316D01*
X001060Y005684D01*
X001002Y005545D01*
X000895Y005438D01*
X000756Y005380D01*
X000604Y005380D01*
X000465Y005438D01*
X000410Y005493D01*
X000410Y005152D01*
X000431Y005173D01*
X000592Y005240D01*
X000768Y005240D01*
X000929Y005173D01*
X001053Y005049D01*
X001120Y004888D01*
X001120Y004112D01*
X001053Y003951D01*
X000929Y003827D01*
X000768Y003760D01*
X000592Y003760D01*
X000431Y003827D01*
X000410Y003848D01*
X000410Y003701D02*
X001578Y003701D01*
X001691Y003543D02*
X000410Y003543D01*
X000410Y003384D02*
X001804Y003384D01*
X001995Y003701D02*
X008691Y003701D01*
X008849Y003860D02*
X005962Y003860D01*
X005929Y003827D02*
X006053Y003951D01*
X006120Y004112D01*
X006120Y004888D01*
X006053Y005049D01*
X005929Y005173D01*
X005768Y005240D01*
X005592Y005240D01*
X005431Y005173D01*
X005307Y005049D01*
X005240Y004888D01*
X005240Y004112D01*
X005307Y003951D01*
X005431Y003827D01*
X005592Y003760D01*
X005768Y003760D01*
X005929Y003827D01*
X006081Y004018D02*
X009008Y004018D01*
X009166Y004177D02*
X006120Y004177D01*
X006120Y004335D02*
X009325Y004335D01*
X009483Y004494D02*
X006120Y004494D01*
X006120Y004652D02*
X009642Y004652D01*
X009800Y004811D02*
X006120Y004811D01*
X006086Y004969D02*
X009959Y004969D01*
X010117Y005128D02*
X005975Y005128D01*
X005902Y005445D02*
X006458Y005445D01*
X006334Y005603D02*
X006026Y005603D01*
X006060Y005762D02*
X006300Y005762D01*
X006300Y005920D02*
X006060Y005920D01*
X006060Y006079D02*
X006300Y006079D01*
X006300Y006237D02*
X006157Y006237D01*
X006316Y006396D02*
X006333Y006396D01*
X005994Y006554D02*
X005903Y006554D01*
X006010Y006713D02*
X004850Y006713D01*
X004850Y006871D02*
X006010Y006871D01*
X006010Y007030D02*
X004850Y007030D01*
X004850Y007188D02*
X006010Y007188D01*
X006010Y007347D02*
X004850Y007347D01*
X004850Y007505D02*
X006010Y007505D01*
X006010Y007664D02*
X004850Y007664D01*
X004850Y007822D02*
X006010Y007822D01*
X006010Y007981D02*
X004850Y007981D01*
X004850Y008139D02*
X006010Y008139D01*
X005744Y008298D02*
X004850Y008298D01*
X004850Y008456D02*
X005655Y008456D01*
X005575Y008615D02*
X004850Y008615D01*
X004850Y008773D02*
X005417Y008773D01*
X005258Y008932D02*
X004850Y008932D01*
X004850Y009090D02*
X005100Y009090D01*
X004941Y009249D02*
X004772Y009249D01*
X004783Y009407D02*
X004613Y009407D01*
X004624Y009566D02*
X004455Y009566D01*
X004466Y009724D02*
X004296Y009724D01*
X004307Y009883D02*
X004138Y009883D01*
X004149Y010041D02*
X003979Y010041D01*
X004010Y010200D02*
X003821Y010200D01*
X003662Y010358D02*
X004010Y010358D01*
X004010Y010517D02*
X003504Y010517D01*
X003350Y010675D02*
X004010Y010675D01*
X004010Y010834D02*
X003350Y010834D01*
X003350Y010992D02*
X004010Y010992D01*
X004010Y011151D02*
X003350Y011151D01*
X003350Y011309D02*
X004010Y011309D01*
X004010Y011468D02*
X003925Y011468D01*
X003435Y011468D02*
X003350Y011468D01*
X003010Y011468D02*
X002925Y011468D01*
X002895Y011438D02*
X003002Y011545D01*
X003010Y011564D01*
X003010Y010530D01*
X003110Y010430D01*
X004510Y009030D01*
X004510Y006581D01*
X004465Y006562D01*
X004358Y006455D01*
X004350Y006436D01*
X004350Y008970D01*
X001886Y011434D01*
X001895Y011438D01*
X002002Y011545D01*
X002060Y011684D01*
X002060Y012316D01*
X002002Y012455D01*
X001895Y012562D01*
X001756Y012620D01*
X001604Y012620D01*
X001465Y012562D01*
X001358Y012455D01*
X001350Y012436D01*
X001350Y012781D01*
X001413Y012844D01*
X001455Y012945D01*
X001455Y013055D01*
X001413Y013156D01*
X001336Y013233D01*
X001235Y013275D01*
X001125Y013275D01*
X001024Y013233D01*
X000947Y013156D01*
X000905Y013055D01*
X000905Y012945D01*
X000947Y012844D01*
X001010Y012781D01*
X001010Y012436D01*
X001002Y012455D01*
X000895Y012562D01*
X000756Y012620D01*
X000604Y012620D01*
X000465Y012562D01*
X000410Y012507D01*
X000410Y020140D01*
X019942Y020140D01*
X019942Y012515D01*
X019895Y012562D01*
X019756Y012620D01*
X019604Y012620D01*
X019465Y012562D01*
X019358Y012455D01*
X019300Y012316D01*
X019300Y011684D01*
X019358Y011545D01*
X019465Y011438D01*
X019604Y011380D01*
X019756Y011380D01*
X019895Y011438D01*
X019942Y011485D01*
X019942Y006515D01*
X019895Y006562D01*
X019850Y006581D01*
X019850Y009070D01*
X017495Y011425D01*
X017604Y011380D01*
X017756Y011380D01*
X017895Y011438D01*
X018002Y011545D01*
X018060Y011684D01*
X018060Y012316D01*
X018002Y012455D01*
X017895Y012562D01*
X017756Y012620D01*
X017604Y012620D01*
X017465Y012562D01*
X017358Y012455D01*
X017350Y012436D01*
X017350Y012570D01*
X016995Y012925D01*
X017104Y012880D01*
X017256Y012880D01*
X017395Y012938D01*
X017502Y013045D01*
X017560Y013184D01*
X017560Y013816D01*
X017502Y013955D01*
X017395Y014062D01*
X017256Y014120D01*
X017104Y014120D01*
X016965Y014062D01*
X016858Y013955D01*
X016850Y013936D01*
X016850Y014070D01*
X016350Y014570D01*
X016250Y014670D01*
X014610Y014670D01*
X014028Y014088D01*
X013965Y014062D01*
X013858Y013955D01*
X013850Y013936D01*
X013850Y018930D01*
X013912Y018991D01*
X013965Y018938D01*
X014104Y018880D01*
X014256Y018880D01*
X014395Y018938D01*
X014502Y019045D01*
X014560Y019184D01*
X014560Y019816D01*
X014502Y019955D01*
X014395Y020062D01*
X014256Y020120D01*
X014104Y020120D01*
X013965Y020062D01*
X013858Y019955D01*
X013800Y019816D01*
X013800Y019360D01*
X013515Y019075D01*
X013560Y019184D01*
X013560Y019816D01*
X013502Y019955D01*
X013395Y020062D01*
X013256Y020120D01*
X013104Y020120D01*
X012965Y020062D01*
X012858Y019955D01*
X012800Y019816D01*
X012800Y019184D01*
X012858Y019045D01*
X012965Y018938D01*
X013104Y018880D01*
X013256Y018880D01*
X013395Y018938D01*
X013502Y019045D01*
X013510Y019064D01*
X013510Y015015D01*
X013485Y015025D01*
X013375Y015025D01*
X013274Y014983D01*
X013197Y014906D01*
X013155Y014805D01*
X013155Y014715D01*
X013010Y014570D01*
X013010Y014081D01*
X012965Y014062D01*
X012858Y013955D01*
X012850Y013936D01*
X012850Y014420D01*
X010850Y016420D01*
X009649Y016420D01*
X009586Y016483D01*
X009485Y016525D01*
X009445Y016525D01*
X010000Y017080D01*
X011050Y017080D01*
X011150Y017180D01*
X012350Y018380D01*
X012350Y018919D01*
X012395Y018938D01*
X012502Y019045D01*
X012560Y019184D01*
X012560Y019816D01*
X012502Y019955D01*
X012395Y020062D01*
X012256Y020120D01*
X012104Y020120D01*
X011965Y020062D01*
X011858Y019955D01*
X011800Y019816D01*
X011800Y019184D01*
X011858Y019045D01*
X011965Y018938D01*
X012010Y018919D01*
X012010Y018520D01*
X010910Y017420D01*
X010090Y017420D01*
X010100Y017430D01*
X010100Y018882D01*
X010104Y018880D01*
X010256Y018880D01*
X010395Y018938D01*
X010502Y019045D01*
X010560Y019184D01*
X010560Y019816D01*
X010502Y019955D01*
X010395Y020062D01*
X010256Y020120D01*
X010104Y020120D01*
X009965Y020062D01*
X009858Y019955D01*
X009800Y019816D01*
X009800Y019184D01*
X009822Y019132D01*
X009760Y019070D01*
X009760Y017570D01*
X008465Y016275D01*
X008455Y016275D01*
X008455Y016285D01*
X009000Y016830D01*
X009100Y016930D01*
X009100Y018882D01*
X009104Y018880D01*
X009256Y018880D01*
X009395Y018938D01*
X009502Y019045D01*
X009560Y019184D01*
X009560Y019816D01*
X009502Y019955D01*
X009395Y020062D01*
X009256Y020120D01*
X009104Y020120D01*
X008965Y020062D01*
X008858Y019955D01*
X008800Y019816D01*
X008800Y019184D01*
X008822Y019132D01*
X008760Y019070D01*
X008760Y017070D01*
X008215Y016525D01*
X008125Y016525D01*
X008100Y016515D01*
X008100Y018680D01*
X008250Y018830D01*
X008332Y018912D01*
X008395Y018938D01*
X008502Y019045D01*
X008560Y019184D01*
X008560Y019816D01*
X008502Y019955D01*
X008395Y020062D01*
X008256Y020120D01*
X008104Y020120D01*
X007965Y020062D01*
X007858Y019955D01*
X007800Y019816D01*
X007800Y019184D01*
X007858Y019045D01*
X007921Y018982D01*
X007760Y018820D01*
X007760Y018060D01*
X007750Y018070D01*
X007350Y018470D01*
X007350Y018919D01*
X007395Y018938D01*
X007502Y019045D01*
X007560Y019184D01*
X007560Y019816D01*
X007502Y019955D01*
X007395Y020062D01*
X007256Y020120D01*
X007104Y020120D01*
X006965Y020062D01*
X006858Y019955D01*
X006800Y019816D01*
X006800Y019184D01*
X006858Y019045D01*
X006965Y018938D01*
X007010Y018919D01*
X007010Y018330D01*
X007110Y018230D01*
X007510Y017830D01*
X007510Y016860D01*
X007500Y016870D01*
X005500Y018870D01*
X005360Y018870D01*
X004450Y018870D01*
X004386Y018934D01*
X004395Y018938D01*
X004502Y019045D01*
X004560Y019184D01*
X004560Y019816D01*
X004502Y019955D01*
X004395Y020062D01*
X004256Y020120D01*
X004104Y020120D01*
X003965Y020062D01*
X003858Y019955D01*
X003800Y019816D01*
X003800Y019184D01*
X003858Y019045D01*
X003965Y018938D01*
X004010Y018919D01*
X004010Y018830D01*
X004110Y018730D01*
X004310Y018530D01*
X005360Y018530D01*
X007118Y016772D01*
X007024Y016733D01*
X006947Y016656D01*
X006905Y016555D01*
X006905Y016465D01*
X005510Y015070D01*
X005510Y013936D01*
X005502Y013955D01*
X005395Y014062D01*
X005256Y014120D01*
X005104Y014120D01*
X004965Y014062D01*
X004858Y013955D01*
X004800Y013816D01*
X004800Y013184D01*
X004858Y013045D01*
X004965Y012938D01*
X005104Y012880D01*
X005256Y012880D01*
X005365Y012925D01*
X004948Y012509D01*
X004895Y012562D01*
X004756Y012620D01*
X004604Y012620D01*
X004465Y012562D01*
X004358Y012455D01*
X004331Y012390D01*
X003600Y013120D01*
X003600Y017531D01*
X003663Y017594D01*
X003705Y017695D01*
X003705Y017805D01*
X003695Y017830D01*
X005360Y017830D01*
X006155Y017035D01*
X006155Y016945D01*
X006197Y016844D01*
X006274Y016767D01*
X006375Y016725D01*
X006485Y016725D01*
X006586Y016767D01*
X006663Y016844D01*
X006705Y016945D01*
X006705Y017055D01*
X006663Y017156D01*
X006586Y017233D01*
X006485Y017275D01*
X006395Y017275D01*
X005500Y018170D01*
X003110Y018170D01*
X003010Y018070D01*
X002610Y017670D01*
X002610Y017670D01*
X002510Y017570D01*
X002510Y012581D01*
X002465Y012562D01*
X002358Y012455D01*
X002300Y012316D01*
X002300Y011684D01*
X002358Y011545D01*
X002465Y011438D01*
X002604Y011380D01*
X002756Y011380D01*
X002895Y011438D01*
X003010Y011309D02*
X002011Y011309D01*
X001925Y011468D02*
X002435Y011468D01*
X002324Y011626D02*
X002036Y011626D01*
X002060Y011785D02*
X002300Y011785D01*
X002300Y011943D02*
X002060Y011943D01*
X002060Y012102D02*
X002300Y012102D01*
X002300Y012260D02*
X002060Y012260D01*
X002017Y012419D02*
X002343Y012419D01*
X002501Y012577D02*
X001859Y012577D01*
X001501Y012577D02*
X001350Y012577D01*
X001350Y012736D02*
X002510Y012736D01*
X002510Y012894D02*
X001434Y012894D01*
X001455Y013053D02*
X002510Y013053D01*
X002510Y013211D02*
X001358Y013211D01*
X001002Y013211D02*
X000410Y013211D01*
X000410Y013053D02*
X000905Y013053D01*
X000926Y012894D02*
X000410Y012894D01*
X000410Y012736D02*
X001010Y012736D01*
X001010Y012577D02*
X000859Y012577D01*
X000501Y012577D02*
X000410Y012577D01*
X000410Y013370D02*
X002510Y013370D01*
X002510Y013528D02*
X000410Y013528D01*
X000410Y013687D02*
X002510Y013687D01*
X002510Y013845D02*
X000410Y013845D01*
X000410Y014004D02*
X002510Y014004D01*
X002510Y014162D02*
X000410Y014162D01*
X000410Y014321D02*
X002510Y014321D01*
X002510Y014479D02*
X000410Y014479D01*
X000410Y014638D02*
X002510Y014638D01*
X002510Y014796D02*
X000410Y014796D01*
X000410Y014955D02*
X002510Y014955D01*
X002510Y015113D02*
X000410Y015113D01*
X000410Y015272D02*
X002510Y015272D01*
X002510Y015430D02*
X000410Y015430D01*
X000410Y015589D02*
X002510Y015589D01*
X002510Y015747D02*
X000410Y015747D01*
X000410Y015906D02*
X002510Y015906D01*
X002510Y016064D02*
X000410Y016064D01*
X000410Y016223D02*
X002510Y016223D01*
X002510Y016381D02*
X000410Y016381D01*
X000410Y016540D02*
X002510Y016540D01*
X002510Y016698D02*
X000410Y016698D01*
X000410Y016857D02*
X002510Y016857D01*
X002510Y017015D02*
X000410Y017015D01*
X000410Y017174D02*
X002510Y017174D01*
X002510Y017332D02*
X000410Y017332D01*
X000410Y017491D02*
X002510Y017491D01*
X002589Y017649D02*
X000410Y017649D01*
X000410Y017808D02*
X002747Y017808D01*
X002906Y017966D02*
X000410Y017966D01*
X000410Y018125D02*
X003064Y018125D01*
X003010Y018070D02*
X003010Y018070D01*
X003600Y017491D02*
X005699Y017491D01*
X005541Y017649D02*
X003686Y017649D01*
X003704Y017808D02*
X005382Y017808D01*
X005704Y017966D02*
X005924Y017966D01*
X005863Y017808D02*
X006082Y017808D01*
X006021Y017649D02*
X006241Y017649D01*
X006180Y017491D02*
X006399Y017491D01*
X006338Y017332D02*
X006558Y017332D01*
X006645Y017174D02*
X006716Y017174D01*
X006705Y017015D02*
X006875Y017015D01*
X007033Y016857D02*
X006668Y016857D01*
X006989Y016698D02*
X003600Y016698D01*
X003600Y016540D02*
X006905Y016540D01*
X006821Y016381D02*
X003600Y016381D01*
X003600Y016223D02*
X006662Y016223D01*
X006504Y016064D02*
X003600Y016064D01*
X003600Y015906D02*
X006345Y015906D01*
X006187Y015747D02*
X003600Y015747D01*
X003600Y015589D02*
X006028Y015589D01*
X005870Y015430D02*
X003600Y015430D01*
X003600Y015272D02*
X005711Y015272D01*
X005553Y015113D02*
X003600Y015113D01*
X003600Y014955D02*
X005510Y014955D01*
X005510Y014796D02*
X003600Y014796D01*
X003600Y014638D02*
X005510Y014638D01*
X005510Y014479D02*
X003600Y014479D01*
X003600Y014321D02*
X005510Y014321D01*
X005510Y014162D02*
X003600Y014162D01*
X003600Y014004D02*
X003906Y014004D01*
X003858Y013955D02*
X003965Y014062D01*
X004104Y014120D01*
X004256Y014120D01*
X004395Y014062D01*
X004502Y013955D01*
X004560Y013816D01*
X004560Y013184D01*
X004502Y013045D01*
X004395Y012938D01*
X004256Y012880D01*
X004104Y012880D01*
X003965Y012938D01*
X003858Y013045D01*
X003800Y013184D01*
X003800Y013816D01*
X003858Y013955D01*
X003812Y013845D02*
X003600Y013845D01*
X003600Y013687D02*
X003800Y013687D01*
X003800Y013528D02*
X003600Y013528D01*
X003600Y013370D02*
X003800Y013370D01*
X003800Y013211D02*
X003600Y013211D01*
X003668Y013053D02*
X003855Y013053D01*
X003826Y012894D02*
X004071Y012894D01*
X003985Y012736D02*
X005175Y012736D01*
X005071Y012894D02*
X004289Y012894D01*
X004143Y012577D02*
X004501Y012577D01*
X004343Y012419D02*
X004302Y012419D01*
X004859Y012577D02*
X005017Y012577D01*
X005289Y012894D02*
X005334Y012894D01*
X004855Y013053D02*
X004505Y013053D01*
X004560Y013211D02*
X004800Y013211D01*
X004800Y013370D02*
X004560Y013370D01*
X004560Y013528D02*
X004800Y013528D01*
X004800Y013687D02*
X004560Y013687D01*
X004548Y013845D02*
X004812Y013845D01*
X004906Y014004D02*
X004454Y014004D01*
X005454Y014004D02*
X005510Y014004D01*
X008017Y012419D02*
X008021Y012419D01*
X008060Y012260D02*
X008180Y012260D01*
X008060Y012102D02*
X008300Y012102D01*
X008300Y011943D02*
X008060Y011943D01*
X008060Y011785D02*
X008300Y011785D01*
X008324Y011626D02*
X008036Y011626D01*
X007925Y011468D02*
X008435Y011468D01*
X008510Y011309D02*
X007350Y011309D01*
X007350Y011151D02*
X008510Y011151D01*
X008510Y010992D02*
X007350Y010992D01*
X007350Y010834D02*
X008510Y010834D01*
X008510Y010675D02*
X007350Y010675D01*
X007350Y010517D02*
X008510Y010517D01*
X008510Y010358D02*
X007350Y010358D01*
X007350Y010200D02*
X008510Y010200D01*
X008510Y010041D02*
X007350Y010041D01*
X007350Y009883D02*
X008510Y009883D01*
X008510Y009724D02*
X007350Y009724D01*
X007350Y009566D02*
X008510Y009566D01*
X008510Y009407D02*
X007350Y009407D01*
X007350Y009249D02*
X008510Y009249D01*
X008510Y009090D02*
X007350Y009090D01*
X007350Y008932D02*
X008510Y008932D01*
X008510Y008773D02*
X007350Y008773D01*
X007350Y008615D02*
X008510Y008615D01*
X008510Y008456D02*
X007350Y008456D01*
X007350Y008298D02*
X008510Y008298D01*
X008510Y008139D02*
X007350Y008139D01*
X007350Y007981D02*
X008510Y007981D01*
X008510Y007822D02*
X007350Y007822D01*
X007350Y007664D02*
X008510Y007664D01*
X008510Y007505D02*
X007350Y007505D01*
X007350Y007347D02*
X008593Y007347D01*
X008752Y007188D02*
X007350Y007188D01*
X007350Y007030D02*
X008910Y007030D01*
X009074Y007347D02*
X012343Y007347D01*
X012185Y007505D02*
X008915Y007505D01*
X008850Y007664D02*
X012026Y007664D01*
X012010Y007822D02*
X008850Y007822D01*
X008850Y007981D02*
X012010Y007981D01*
X012010Y008139D02*
X008850Y008139D01*
X008850Y008298D02*
X008994Y008298D01*
X008905Y008456D02*
X008850Y008456D01*
X008850Y008615D02*
X008930Y008615D01*
X008850Y008773D02*
X009010Y008773D01*
X009010Y008932D02*
X008850Y008932D01*
X008850Y009090D02*
X009010Y009090D01*
X009010Y009249D02*
X008850Y009249D01*
X008850Y009407D02*
X009010Y009407D01*
X009010Y009566D02*
X008850Y009566D01*
X008850Y009724D02*
X009010Y009724D01*
X009010Y009883D02*
X008850Y009883D01*
X008850Y010041D02*
X009010Y010041D01*
X009010Y010200D02*
X008850Y010200D01*
X008850Y010358D02*
X009010Y010358D01*
X009010Y010517D02*
X008850Y010517D01*
X008850Y010675D02*
X009010Y010675D01*
X009010Y010834D02*
X008850Y010834D01*
X008850Y010992D02*
X009010Y010992D01*
X009010Y011151D02*
X008850Y011151D01*
X008850Y011309D02*
X009010Y011309D01*
X009010Y011468D02*
X008925Y011468D01*
X009350Y011468D02*
X009379Y011468D01*
X009350Y011309D02*
X012010Y011309D01*
X012010Y011151D02*
X009350Y011151D01*
X009350Y010992D02*
X012010Y010992D01*
X012010Y010834D02*
X009350Y010834D01*
X009350Y010675D02*
X012010Y010675D01*
X012010Y010517D02*
X009350Y010517D01*
X009350Y010358D02*
X012010Y010358D01*
X012010Y010200D02*
X009350Y010200D01*
X009350Y010041D02*
X012010Y010041D01*
X012010Y009883D02*
X009350Y009883D01*
X009350Y009724D02*
X012010Y009724D01*
X012010Y009566D02*
X009350Y009566D01*
X009350Y009407D02*
X012010Y009407D01*
X012010Y009249D02*
X009350Y009249D01*
X009350Y009090D02*
X012010Y009090D01*
X012010Y008932D02*
X009350Y008932D01*
X009350Y008773D02*
X012010Y008773D01*
X012010Y008615D02*
X009430Y008615D01*
X009455Y008456D02*
X012010Y008456D01*
X012010Y008298D02*
X009366Y008298D01*
X010332Y007188D02*
X012502Y007188D01*
X012660Y007030D02*
X010491Y007030D01*
X010649Y006871D02*
X012819Y006871D01*
X012756Y006620D02*
X012604Y006620D01*
X012465Y006562D01*
X012358Y006455D01*
X012300Y006316D01*
X012300Y005684D01*
X012358Y005545D01*
X012465Y005438D01*
X012604Y005380D01*
X012756Y005380D01*
X012895Y005438D01*
X013002Y005545D01*
X013060Y005684D01*
X013060Y006316D01*
X013002Y006455D01*
X012895Y006562D01*
X012756Y006620D01*
X012903Y006554D02*
X013457Y006554D01*
X013465Y006562D02*
X013358Y006455D01*
X013300Y006316D01*
X013300Y005684D01*
X013358Y005545D01*
X013465Y005438D01*
X013604Y005380D01*
X013756Y005380D01*
X013895Y005438D01*
X014002Y005545D01*
X014060Y005684D01*
X014060Y006316D01*
X014002Y006455D01*
X013895Y006562D01*
X013756Y006620D01*
X013604Y006620D01*
X013465Y006562D01*
X013333Y006396D02*
X013027Y006396D01*
X013060Y006237D02*
X013300Y006237D01*
X013300Y006079D02*
X013060Y006079D01*
X013060Y005920D02*
X013300Y005920D01*
X013300Y005762D02*
X013060Y005762D01*
X013026Y005603D02*
X013334Y005603D01*
X013458Y005445D02*
X012902Y005445D01*
X012458Y005445D02*
X011958Y005445D01*
X011954Y005440D02*
X012000Y005486D01*
X012039Y005540D01*
X012069Y005599D01*
X012090Y005662D01*
X012100Y005727D01*
X012100Y006000D01*
X012100Y006273D01*
X012090Y006338D01*
X012069Y006401D01*
X012039Y006460D01*
X012000Y006514D01*
X011954Y006560D01*
X011900Y006599D01*
X011841Y006629D01*
X011778Y006650D01*
X011713Y006660D01*
X011680Y006660D01*
X011680Y006000D01*
X012100Y006000D01*
X011680Y006000D01*
X011680Y006000D01*
X011680Y006000D01*
X011680Y005340D01*
X011713Y005340D01*
X011778Y005350D01*
X011841Y005371D01*
X011900Y005401D01*
X011954Y005440D01*
X012071Y005603D02*
X012334Y005603D01*
X012300Y005762D02*
X012100Y005762D01*
X012100Y005920D02*
X012300Y005920D01*
X012300Y006079D02*
X012100Y006079D01*
X012100Y006237D02*
X012300Y006237D01*
X012333Y006396D02*
X012071Y006396D01*
X011960Y006554D02*
X012457Y006554D01*
X011680Y006554D02*
X011680Y006554D01*
X011680Y006660D02*
X011647Y006660D01*
X011582Y006650D01*
X011519Y006629D01*
X011460Y006599D01*
X011406Y006560D01*
X011360Y006514D01*
X011321Y006460D01*
X011291Y006401D01*
X011270Y006338D01*
X011260Y006273D01*
X011260Y006000D01*
X011680Y006000D01*
X011680Y006000D01*
X011680Y006000D01*
X011680Y006660D01*
X011680Y006396D02*
X011680Y006396D01*
X011680Y006237D02*
X011680Y006237D01*
X011680Y006079D02*
X011680Y006079D01*
X011680Y006000D02*
X011260Y006000D01*
X011260Y005727D01*
X011270Y005662D01*
X011291Y005599D01*
X011321Y005540D01*
X011360Y005486D01*
X011406Y005440D01*
X011460Y005401D01*
X011519Y005371D01*
X011582Y005350D01*
X011647Y005340D01*
X011680Y005340D01*
X011680Y006000D01*
X011680Y005920D02*
X011680Y005920D01*
X011680Y005762D02*
X011680Y005762D01*
X011680Y005603D02*
X011680Y005603D01*
X011680Y005445D02*
X011680Y005445D01*
X011402Y005445D02*
X010902Y005445D01*
X011026Y005603D02*
X011289Y005603D01*
X011260Y005762D02*
X011060Y005762D01*
X011060Y005920D02*
X011260Y005920D01*
X011260Y006079D02*
X011060Y006079D01*
X011060Y006237D02*
X011260Y006237D01*
X011289Y006396D02*
X011027Y006396D01*
X010903Y006554D02*
X011400Y006554D01*
X010808Y006713D02*
X014292Y006713D01*
X014419Y006554D02*
X013903Y006554D01*
X014027Y006396D02*
X014333Y006396D01*
X014300Y006237D02*
X014060Y006237D01*
X014060Y006079D02*
X014300Y006079D01*
X014300Y005920D02*
X014060Y005920D01*
X014060Y005762D02*
X014300Y005762D01*
X014334Y005603D02*
X014026Y005603D01*
X013902Y005445D02*
X014458Y005445D01*
X014902Y005445D02*
X015010Y005445D01*
X015010Y005286D02*
X010756Y005286D01*
X010598Y005128D02*
X015010Y005128D01*
X015010Y004969D02*
X010439Y004969D01*
X010281Y004811D02*
X015010Y004811D01*
X015010Y004652D02*
X010122Y004652D01*
X009964Y004494D02*
X011936Y004494D01*
X011908Y004465D02*
X011850Y004326D01*
X011850Y004174D01*
X011908Y004035D01*
X012015Y003928D01*
X012154Y003870D01*
X012306Y003870D01*
X012445Y003928D01*
X012552Y004035D01*
X012610Y004174D01*
X012610Y004326D01*
X012552Y004465D01*
X012445Y004572D01*
X012306Y004630D01*
X012154Y004630D01*
X012015Y004572D01*
X011908Y004465D01*
X011854Y004335D02*
X009805Y004335D01*
X009647Y004177D02*
X011850Y004177D01*
X011925Y004018D02*
X009488Y004018D01*
X009330Y003860D02*
X015580Y003860D01*
X015422Y004018D02*
X014435Y004018D01*
X014452Y004035D02*
X014510Y004174D01*
X014510Y004326D01*
X014452Y004465D01*
X014345Y004572D01*
X014206Y004630D01*
X014054Y004630D01*
X013915Y004572D01*
X013808Y004465D01*
X013750Y004326D01*
X013750Y004174D01*
X013808Y004035D01*
X013915Y003928D01*
X014054Y003870D01*
X014206Y003870D01*
X014345Y003928D01*
X014452Y004035D01*
X014510Y004177D02*
X015263Y004177D01*
X015105Y004335D02*
X014506Y004335D01*
X014424Y004494D02*
X015010Y004494D01*
X015350Y004652D02*
X015740Y004652D01*
X015740Y004494D02*
X015427Y004494D01*
X015585Y004335D02*
X015751Y004335D01*
X015740Y004362D02*
X015807Y004201D01*
X015931Y004077D01*
X016092Y004010D01*
X016268Y004010D01*
X016429Y004077D01*
X016553Y004201D01*
X016620Y004362D01*
X016620Y005138D01*
X016553Y005299D01*
X016429Y005423D01*
X016268Y005490D01*
X016092Y005490D01*
X015931Y005423D01*
X015807Y005299D01*
X015740Y005138D01*
X015740Y004362D01*
X015744Y004177D02*
X015831Y004177D01*
X015902Y004018D02*
X016073Y004018D01*
X016287Y004018D02*
X017073Y004018D01*
X017287Y004018D02*
X017758Y004018D01*
X017831Y004177D02*
X017529Y004177D01*
X017609Y004335D02*
X017751Y004335D01*
X017740Y004494D02*
X017620Y004494D01*
X017620Y004652D02*
X017740Y004652D01*
X017740Y004811D02*
X017620Y004811D01*
X017620Y004969D02*
X017740Y004969D01*
X017740Y005128D02*
X017620Y005128D01*
X017558Y005286D02*
X017802Y005286D01*
X017902Y005445D02*
X017983Y005445D01*
X018026Y005603D02*
X018334Y005603D01*
X018300Y005762D02*
X018060Y005762D01*
X018060Y005920D02*
X018300Y005920D01*
X018300Y006079D02*
X018060Y006079D01*
X018060Y006237D02*
X018300Y006237D01*
X018333Y006396D02*
X018027Y006396D01*
X017903Y006554D02*
X018457Y006554D01*
X018510Y006713D02*
X017350Y006713D01*
X017350Y006871D02*
X018510Y006871D01*
X018510Y007030D02*
X017350Y007030D01*
X017232Y007188D02*
X018510Y007188D01*
X018510Y007347D02*
X017074Y007347D01*
X016915Y007505D02*
X018510Y007505D01*
X018510Y007664D02*
X016757Y007664D01*
X016598Y007822D02*
X018510Y007822D01*
X018510Y007981D02*
X016440Y007981D01*
X016281Y008139D02*
X018510Y008139D01*
X018510Y008298D02*
X016123Y008298D01*
X015964Y008456D02*
X018510Y008456D01*
X018510Y008615D02*
X015850Y008615D01*
X015850Y008773D02*
X018510Y008773D01*
X018508Y008932D02*
X015850Y008932D01*
X015850Y009090D02*
X018350Y009090D01*
X018191Y009249D02*
X015850Y009249D01*
X015850Y009407D02*
X018033Y009407D01*
X017874Y009566D02*
X015850Y009566D01*
X015850Y009724D02*
X017716Y009724D01*
X017557Y009883D02*
X015850Y009883D01*
X015850Y010041D02*
X017399Y010041D01*
X017240Y010200D02*
X015850Y010200D01*
X015850Y010358D02*
X017082Y010358D01*
X016923Y010517D02*
X015850Y010517D01*
X015850Y010675D02*
X016765Y010675D01*
X016606Y010834D02*
X015850Y010834D01*
X015850Y010992D02*
X016448Y010992D01*
X016289Y011151D02*
X015850Y011151D01*
X015850Y011309D02*
X016131Y011309D01*
X016010Y011468D02*
X015925Y011468D01*
X016611Y011309D02*
X017131Y011309D01*
X017010Y011468D02*
X016925Y011468D01*
X016770Y011151D02*
X017289Y011151D01*
X017448Y010992D02*
X016928Y010992D01*
X017087Y010834D02*
X017606Y010834D01*
X017765Y010675D02*
X017245Y010675D01*
X017404Y010517D02*
X017923Y010517D01*
X018082Y010358D02*
X017562Y010358D01*
X017721Y010200D02*
X018240Y010200D01*
X018399Y010041D02*
X017879Y010041D01*
X018038Y009883D02*
X018557Y009883D01*
X018716Y009724D02*
X018196Y009724D01*
X018355Y009566D02*
X018874Y009566D01*
X019033Y009407D02*
X018513Y009407D01*
X018672Y009249D02*
X019191Y009249D01*
X019350Y009090D02*
X018830Y009090D01*
X018850Y008932D02*
X019508Y008932D01*
X019510Y008773D02*
X018850Y008773D01*
X018850Y008615D02*
X019510Y008615D01*
X019510Y008456D02*
X018850Y008456D01*
X018850Y008298D02*
X019510Y008298D01*
X019510Y008139D02*
X018850Y008139D01*
X018850Y007981D02*
X019510Y007981D01*
X019510Y007822D02*
X018850Y007822D01*
X018850Y007664D02*
X019510Y007664D01*
X019510Y007505D02*
X018850Y007505D01*
X018850Y007347D02*
X019510Y007347D01*
X019510Y007188D02*
X018850Y007188D01*
X018850Y007030D02*
X019510Y007030D01*
X019510Y006871D02*
X018850Y006871D01*
X018850Y006713D02*
X019510Y006713D01*
X019457Y006554D02*
X018903Y006554D01*
X019027Y006396D02*
X019333Y006396D01*
X019300Y006237D02*
X019060Y006237D01*
X019060Y006079D02*
X019300Y006079D01*
X019300Y005920D02*
X019060Y005920D01*
X019060Y005762D02*
X019300Y005762D01*
X019334Y005603D02*
X019026Y005603D01*
X019068Y005518D02*
X018996Y005495D01*
X018928Y005461D01*
X018867Y005416D01*
X018814Y005363D01*
X018769Y005302D01*
X018735Y005234D01*
X018712Y005162D01*
X018700Y005088D01*
X018700Y004770D01*
X019160Y004770D01*
X019160Y005530D01*
X019142Y005530D01*
X019068Y005518D01*
X019160Y005445D02*
X019200Y005445D01*
X019200Y005530D02*
X019200Y004770D01*
X019660Y004770D01*
X019660Y005088D01*
X019648Y005162D01*
X019625Y005234D01*
X019591Y005302D01*
X019546Y005363D01*
X019493Y005416D01*
X019432Y005461D01*
X019364Y005495D01*
X019292Y005518D01*
X019218Y005530D01*
X019200Y005530D01*
X019200Y005286D02*
X019160Y005286D01*
X019160Y005128D02*
X019200Y005128D01*
X019200Y004969D02*
X019160Y004969D01*
X019160Y004811D02*
X019200Y004811D01*
X019200Y004770D02*
X019160Y004770D01*
X019160Y004730D01*
X019200Y004730D01*
X019200Y004770D01*
X019200Y004730D02*
X019660Y004730D01*
X019660Y004412D01*
X019648Y004338D01*
X019625Y004266D01*
X019591Y004198D01*
X019546Y004137D01*
X019493Y004084D01*
X019432Y004039D01*
X019364Y004005D01*
X019292Y003982D01*
X019218Y003970D01*
X019200Y003970D01*
X019200Y004730D01*
X019160Y004730D02*
X019160Y003970D01*
X019142Y003970D01*
X019068Y003982D01*
X018996Y004005D01*
X018928Y004039D01*
X018867Y004084D01*
X018814Y004137D01*
X018769Y004198D01*
X018735Y004266D01*
X018712Y004338D01*
X018700Y004412D01*
X018700Y004730D01*
X019160Y004730D01*
X019160Y004652D02*
X019200Y004652D01*
X019200Y004494D02*
X019160Y004494D01*
X019160Y004335D02*
X019200Y004335D01*
X019200Y004177D02*
X019160Y004177D01*
X019160Y004018D02*
X019200Y004018D01*
X019389Y004018D02*
X019942Y004018D01*
X019942Y003860D02*
X018080Y003860D01*
X017921Y003701D02*
X019942Y003701D01*
X019942Y003543D02*
X009013Y003543D01*
X009171Y003701D02*
X015739Y003701D01*
X016529Y004177D02*
X016831Y004177D01*
X016751Y004335D02*
X016609Y004335D01*
X016620Y004494D02*
X016740Y004494D01*
X016740Y004652D02*
X016620Y004652D01*
X016620Y004811D02*
X016740Y004811D01*
X016740Y004969D02*
X016620Y004969D01*
X016620Y005128D02*
X016740Y005128D01*
X016802Y005286D02*
X016558Y005286D01*
X016458Y005445D02*
X016377Y005445D01*
X016334Y005603D02*
X016026Y005603D01*
X016060Y005762D02*
X016300Y005762D01*
X016300Y005920D02*
X016060Y005920D01*
X016060Y006079D02*
X016300Y006079D01*
X016300Y006237D02*
X016060Y006237D01*
X016027Y006396D02*
X016333Y006396D01*
X016457Y006554D02*
X015903Y006554D01*
X015457Y006554D02*
X015350Y006554D01*
X015208Y006713D02*
X016377Y006713D01*
X016219Y006871D02*
X015049Y006871D01*
X014891Y007030D02*
X016060Y007030D01*
X015902Y007188D02*
X014732Y007188D01*
X014574Y007347D02*
X015743Y007347D01*
X015585Y007505D02*
X014415Y007505D01*
X014257Y007664D02*
X015426Y007664D01*
X015268Y007822D02*
X014098Y007822D01*
X013940Y007981D02*
X015109Y007981D01*
X014951Y008139D02*
X013850Y008139D01*
X013850Y008298D02*
X014792Y008298D01*
X014634Y008456D02*
X013850Y008456D01*
X012010Y011468D02*
X011925Y011468D01*
X011435Y011468D02*
X010925Y011468D01*
X010895Y011438D02*
X011002Y011545D01*
X011060Y011684D01*
X011060Y012316D01*
X011002Y012455D01*
X010895Y012562D01*
X010756Y012620D01*
X010604Y012620D01*
X010465Y012562D01*
X010358Y012455D01*
X010300Y012316D01*
X010300Y011684D01*
X010358Y011545D01*
X010465Y011438D01*
X010604Y011380D01*
X010756Y011380D01*
X010895Y011438D01*
X011036Y011626D02*
X011324Y011626D01*
X011300Y011785D02*
X011060Y011785D01*
X011060Y011943D02*
X011300Y011943D01*
X011300Y012102D02*
X011060Y012102D01*
X011060Y012260D02*
X011300Y012260D01*
X011343Y012419D02*
X011017Y012419D01*
X010859Y012577D02*
X011501Y012577D01*
X011510Y012736D02*
X009135Y012736D01*
X009071Y012894D02*
X008976Y012894D01*
X008855Y013053D02*
X008850Y013053D01*
X009289Y012894D02*
X010071Y012894D01*
X010104Y012880D02*
X010256Y012880D01*
X010395Y012938D01*
X010502Y013045D01*
X010560Y013184D01*
X010560Y013816D01*
X010502Y013955D01*
X010395Y014062D01*
X010256Y014120D01*
X010104Y014120D01*
X009965Y014062D01*
X009858Y013955D01*
X009800Y013816D01*
X009800Y013184D01*
X009858Y013045D01*
X009965Y012938D01*
X010104Y012880D01*
X010289Y012894D02*
X011071Y012894D01*
X011289Y012894D02*
X011510Y012894D01*
X011505Y013053D02*
X011510Y013053D01*
X010855Y013053D02*
X010505Y013053D01*
X010560Y013211D02*
X010800Y013211D01*
X010800Y013370D02*
X010560Y013370D01*
X010560Y013528D02*
X010800Y013528D01*
X010800Y013687D02*
X010560Y013687D01*
X010548Y013845D02*
X010812Y013845D01*
X010906Y014004D02*
X010454Y014004D01*
X009906Y014004D02*
X009454Y014004D01*
X009548Y013845D02*
X009812Y013845D01*
X009800Y013687D02*
X009560Y013687D01*
X009560Y013528D02*
X009800Y013528D01*
X009800Y013370D02*
X009560Y013370D01*
X009560Y013211D02*
X009800Y013211D01*
X009855Y013053D02*
X009505Y013053D01*
X009429Y012577D02*
X009293Y012577D01*
X009680Y012577D02*
X009680Y012577D01*
X009680Y012419D02*
X009680Y012419D01*
X009680Y012260D02*
X009680Y012260D01*
X009680Y012102D02*
X009680Y012102D01*
X009680Y011943D02*
X009680Y011943D01*
X009680Y011785D02*
X009680Y011785D01*
X009680Y011626D02*
X009680Y011626D01*
X009680Y011468D02*
X009680Y011468D01*
X009981Y011468D02*
X010435Y011468D01*
X010324Y011626D02*
X010078Y011626D01*
X010100Y011785D02*
X010300Y011785D01*
X010300Y011943D02*
X010100Y011943D01*
X010100Y012102D02*
X010300Y012102D01*
X010300Y012260D02*
X010100Y012260D01*
X010060Y012419D02*
X010343Y012419D01*
X010501Y012577D02*
X009931Y012577D01*
X007435Y011468D02*
X007350Y011468D01*
X004510Y008932D02*
X004350Y008932D01*
X004350Y008773D02*
X004510Y008773D01*
X004510Y008615D02*
X004350Y008615D01*
X004350Y008456D02*
X004510Y008456D01*
X004510Y008298D02*
X004350Y008298D01*
X004350Y008139D02*
X004510Y008139D01*
X004510Y007981D02*
X004350Y007981D01*
X004350Y007822D02*
X004510Y007822D01*
X004510Y007664D02*
X004350Y007664D01*
X004350Y007505D02*
X004510Y007505D01*
X004510Y007347D02*
X004350Y007347D01*
X004350Y007188D02*
X004510Y007188D01*
X004510Y007030D02*
X004350Y007030D01*
X004350Y006871D02*
X004510Y006871D01*
X004510Y006713D02*
X004350Y006713D01*
X004350Y006554D02*
X004457Y006554D01*
X004903Y006554D02*
X005457Y006554D01*
X005333Y006396D02*
X005027Y006396D01*
X005060Y006237D02*
X005300Y006237D01*
X005300Y006079D02*
X005060Y006079D01*
X005060Y005920D02*
X005300Y005920D01*
X005300Y005762D02*
X005060Y005762D01*
X005026Y005603D02*
X005334Y005603D01*
X005458Y005445D02*
X004902Y005445D01*
X004975Y005128D02*
X005385Y005128D01*
X005274Y004969D02*
X005086Y004969D01*
X005120Y004811D02*
X005240Y004811D01*
X005240Y004652D02*
X005120Y004652D01*
X005120Y004494D02*
X005240Y004494D01*
X005240Y004335D02*
X005120Y004335D01*
X005120Y004177D02*
X005240Y004177D01*
X005279Y004018D02*
X005081Y004018D01*
X004962Y003860D02*
X005398Y003860D01*
X004398Y003860D02*
X003962Y003860D01*
X004081Y004018D02*
X004279Y004018D01*
X004240Y004177D02*
X004120Y004177D01*
X004120Y004335D02*
X004240Y004335D01*
X004240Y004494D02*
X004120Y004494D01*
X004120Y004652D02*
X004240Y004652D01*
X004129Y004811D02*
X004120Y004811D01*
X004350Y005128D02*
X004385Y005128D01*
X004350Y005286D02*
X010276Y005286D01*
X010434Y005445D02*
X009902Y005445D01*
X009895Y005438D02*
X010002Y005545D01*
X010060Y005684D01*
X010060Y006316D01*
X010002Y006455D01*
X009895Y006562D01*
X009756Y006620D01*
X009604Y006620D01*
X009465Y006562D01*
X009358Y006455D01*
X009300Y006316D01*
X009300Y005684D01*
X009358Y005545D01*
X009465Y005438D01*
X009604Y005380D01*
X009756Y005380D01*
X009895Y005438D01*
X010026Y005603D02*
X010334Y005603D01*
X010300Y005762D02*
X010060Y005762D01*
X010060Y005920D02*
X010300Y005920D01*
X010300Y006079D02*
X010060Y006079D01*
X010060Y006237D02*
X010300Y006237D01*
X010333Y006396D02*
X010027Y006396D01*
X009903Y006554D02*
X010457Y006554D01*
X010327Y006713D02*
X007350Y006713D01*
X007350Y006871D02*
X010169Y006871D01*
X009457Y006554D02*
X008903Y006554D01*
X008895Y006562D02*
X008756Y006620D01*
X008604Y006620D01*
X008465Y006562D01*
X008358Y006455D01*
X008300Y006316D01*
X008300Y005684D01*
X008358Y005545D01*
X008465Y005438D01*
X008604Y005380D01*
X008756Y005380D01*
X008895Y005438D01*
X009002Y005545D01*
X009060Y005684D01*
X009060Y006316D01*
X009002Y006455D01*
X008895Y006562D01*
X009027Y006396D02*
X009333Y006396D01*
X009300Y006237D02*
X009060Y006237D01*
X009060Y006079D02*
X009300Y006079D01*
X009300Y005920D02*
X009060Y005920D01*
X009060Y005762D02*
X009300Y005762D01*
X009334Y005603D02*
X009026Y005603D01*
X008902Y005445D02*
X009458Y005445D01*
X008458Y005445D02*
X007902Y005445D01*
X008026Y005603D02*
X008334Y005603D01*
X008300Y005762D02*
X008060Y005762D01*
X008060Y005920D02*
X008300Y005920D01*
X008300Y006079D02*
X008060Y006079D01*
X008060Y006237D02*
X008300Y006237D01*
X008333Y006396D02*
X008027Y006396D01*
X007903Y006554D02*
X008457Y006554D01*
X007457Y006554D02*
X007350Y006554D01*
X007333Y006396D02*
X007316Y006396D01*
X007300Y006237D02*
X007157Y006237D01*
X007060Y006079D02*
X007300Y006079D01*
X007300Y005920D02*
X007060Y005920D01*
X007060Y005762D02*
X007300Y005762D01*
X007334Y005603D02*
X007026Y005603D01*
X006902Y005445D02*
X007458Y005445D01*
X008854Y003384D02*
X019942Y003384D01*
X019942Y003226D02*
X000410Y003226D01*
X000410Y003067D02*
X019942Y003067D01*
X018971Y004018D02*
X018287Y004018D01*
X018529Y004177D02*
X018785Y004177D01*
X018713Y004335D02*
X018609Y004335D01*
X018620Y004494D02*
X018700Y004494D01*
X018700Y004652D02*
X018620Y004652D01*
X018620Y004811D02*
X018700Y004811D01*
X018700Y004969D02*
X018620Y004969D01*
X018620Y005128D02*
X018706Y005128D01*
X018762Y005286D02*
X018558Y005286D01*
X018458Y005445D02*
X018377Y005445D01*
X018902Y005445D02*
X018906Y005445D01*
X019454Y005445D02*
X019458Y005445D01*
X019598Y005286D02*
X019942Y005286D01*
X019942Y005128D02*
X019654Y005128D01*
X019660Y004969D02*
X019942Y004969D01*
X019942Y004811D02*
X019660Y004811D01*
X019660Y004652D02*
X019942Y004652D01*
X019942Y004494D02*
X019660Y004494D01*
X019647Y004335D02*
X019942Y004335D01*
X019942Y004177D02*
X019575Y004177D01*
X019902Y005445D02*
X019942Y005445D01*
X019903Y006554D02*
X019942Y006554D01*
X019942Y006713D02*
X019850Y006713D01*
X019850Y006871D02*
X019942Y006871D01*
X019942Y007030D02*
X019850Y007030D01*
X019850Y007188D02*
X019942Y007188D01*
X019942Y007347D02*
X019850Y007347D01*
X019850Y007505D02*
X019942Y007505D01*
X019942Y007664D02*
X019850Y007664D01*
X019850Y007822D02*
X019942Y007822D01*
X019942Y007981D02*
X019850Y007981D01*
X019850Y008139D02*
X019942Y008139D01*
X019942Y008298D02*
X019850Y008298D01*
X019850Y008456D02*
X019942Y008456D01*
X019942Y008615D02*
X019850Y008615D01*
X019850Y008773D02*
X019942Y008773D01*
X019942Y008932D02*
X019850Y008932D01*
X019830Y009090D02*
X019942Y009090D01*
X019942Y009249D02*
X019672Y009249D01*
X019513Y009407D02*
X019942Y009407D01*
X019942Y009566D02*
X019355Y009566D01*
X019196Y009724D02*
X019942Y009724D01*
X019942Y009883D02*
X019038Y009883D01*
X018879Y010041D02*
X019942Y010041D01*
X019942Y010200D02*
X018721Y010200D01*
X018562Y010358D02*
X019942Y010358D01*
X019942Y010517D02*
X018404Y010517D01*
X018245Y010675D02*
X019942Y010675D01*
X019942Y010834D02*
X018087Y010834D01*
X017928Y010992D02*
X019942Y010992D01*
X019942Y011151D02*
X017770Y011151D01*
X017611Y011309D02*
X019942Y011309D01*
X019925Y011468D02*
X019942Y011468D01*
X019435Y011468D02*
X018925Y011468D01*
X018895Y011438D02*
X019002Y011545D01*
X019060Y011684D01*
X019060Y012316D01*
X019002Y012455D01*
X018895Y012562D01*
X018756Y012620D01*
X018604Y012620D01*
X018465Y012562D01*
X018358Y012455D01*
X018300Y012316D01*
X018300Y011684D01*
X018358Y011545D01*
X018465Y011438D01*
X018604Y011380D01*
X018756Y011380D01*
X018895Y011438D01*
X019036Y011626D02*
X019324Y011626D01*
X019300Y011785D02*
X019060Y011785D01*
X019060Y011943D02*
X019300Y011943D01*
X019300Y012102D02*
X019060Y012102D01*
X019060Y012260D02*
X019300Y012260D01*
X019343Y012419D02*
X019017Y012419D01*
X018859Y012577D02*
X019501Y012577D01*
X019341Y012871D02*
X019400Y012901D01*
X019454Y012940D01*
X019500Y012986D01*
X019539Y013040D01*
X019569Y013099D01*
X019590Y013162D01*
X019600Y013227D01*
X019600Y013500D01*
X019600Y013773D01*
X019590Y013838D01*
X019569Y013901D01*
X019539Y013960D01*
X019500Y014014D01*
X019454Y014060D01*
X019400Y014099D01*
X019341Y014129D01*
X019278Y014150D01*
X019213Y014160D01*
X019180Y014160D01*
X019180Y013500D01*
X019600Y013500D01*
X019180Y013500D01*
X019180Y013500D01*
X019180Y013500D01*
X019180Y012840D01*
X019213Y012840D01*
X019278Y012850D01*
X019341Y012871D01*
X019387Y012894D02*
X019942Y012894D01*
X019942Y012736D02*
X017185Y012736D01*
X017289Y012894D02*
X018071Y012894D01*
X018104Y012880D02*
X018256Y012880D01*
X018395Y012938D01*
X018502Y013045D01*
X018560Y013184D01*
X018560Y013816D01*
X018502Y013955D01*
X018395Y014062D01*
X018350Y014081D01*
X018350Y014320D01*
X017600Y015070D01*
X017500Y015170D01*
X016899Y015170D01*
X016836Y015233D01*
X016735Y015275D01*
X016625Y015275D01*
X016524Y015233D01*
X016447Y015156D01*
X016405Y015055D01*
X016405Y014945D01*
X016447Y014844D01*
X016524Y014767D01*
X016625Y014725D01*
X016735Y014725D01*
X016836Y014767D01*
X016899Y014830D01*
X017360Y014830D01*
X018010Y014180D01*
X018010Y014081D01*
X017965Y014062D01*
X017858Y013955D01*
X017800Y013816D01*
X017800Y013184D01*
X017858Y013045D01*
X017965Y012938D01*
X018104Y012880D01*
X018289Y012894D02*
X018973Y012894D01*
X018960Y012901D02*
X019019Y012871D01*
X019082Y012850D01*
X019147Y012840D01*
X019180Y012840D01*
X019180Y013500D01*
X019180Y013500D01*
X019180Y013500D01*
X018760Y013500D01*
X018760Y013773D01*
X018770Y013838D01*
X018791Y013901D01*
X018821Y013960D01*
X018860Y014014D01*
X018906Y014060D01*
X018960Y014099D01*
X019019Y014129D01*
X019082Y014150D01*
X019147Y014160D01*
X019180Y014160D01*
X019180Y013500D01*
X018760Y013500D01*
X018760Y013227D01*
X018770Y013162D01*
X018791Y013099D01*
X018821Y013040D01*
X018860Y012986D01*
X018906Y012940D01*
X018960Y012901D01*
X018814Y013053D02*
X018505Y013053D01*
X018560Y013211D02*
X018763Y013211D01*
X018760Y013370D02*
X018560Y013370D01*
X018560Y013528D02*
X018760Y013528D01*
X018760Y013687D02*
X018560Y013687D01*
X018548Y013845D02*
X018773Y013845D01*
X018852Y014004D02*
X018454Y014004D01*
X018350Y014162D02*
X019942Y014162D01*
X019942Y014004D02*
X019508Y014004D01*
X019587Y013845D02*
X019942Y013845D01*
X019942Y013687D02*
X019600Y013687D01*
X019600Y013528D02*
X019942Y013528D01*
X019942Y013370D02*
X019600Y013370D01*
X019597Y013211D02*
X019942Y013211D01*
X019942Y013053D02*
X019546Y013053D01*
X019180Y013053D02*
X019180Y013053D01*
X019180Y013211D02*
X019180Y013211D01*
X019180Y013370D02*
X019180Y013370D01*
X019180Y013528D02*
X019180Y013528D01*
X019180Y013687D02*
X019180Y013687D01*
X019180Y013845D02*
X019180Y013845D01*
X019180Y014004D02*
X019180Y014004D01*
X019942Y014321D02*
X018350Y014321D01*
X018191Y014479D02*
X019942Y014479D01*
X019942Y014638D02*
X018033Y014638D01*
X017874Y014796D02*
X019942Y014796D01*
X019942Y014955D02*
X017716Y014955D01*
X017557Y015113D02*
X019942Y015113D01*
X019942Y015272D02*
X016743Y015272D01*
X016617Y015272D02*
X013850Y015272D01*
X013850Y015430D02*
X019942Y015430D01*
X019942Y015589D02*
X015309Y015589D01*
X015300Y015580D02*
X015400Y015680D01*
X018350Y018630D01*
X018350Y018919D01*
X018395Y018938D01*
X018502Y019045D01*
X018560Y019184D01*
X018560Y019816D01*
X018502Y019955D01*
X018395Y020062D01*
X018256Y020120D01*
X018104Y020120D01*
X017965Y020062D01*
X017858Y019955D01*
X017800Y019816D01*
X017800Y019184D01*
X017858Y019045D01*
X017965Y018938D01*
X018010Y018919D01*
X018010Y018770D01*
X015160Y015920D01*
X014649Y015920D01*
X014586Y015983D01*
X014485Y016025D01*
X014375Y016025D01*
X014274Y015983D01*
X014197Y015906D01*
X014155Y015805D01*
X014155Y015695D01*
X014197Y015594D01*
X014274Y015517D01*
X014375Y015475D01*
X014485Y015475D01*
X014586Y015517D01*
X014649Y015580D01*
X015300Y015580D01*
X015467Y015747D02*
X019942Y015747D01*
X019942Y015906D02*
X015626Y015906D01*
X015784Y016064D02*
X019942Y016064D01*
X019942Y016223D02*
X015943Y016223D01*
X016101Y016381D02*
X019942Y016381D01*
X019942Y016540D02*
X016260Y016540D01*
X016418Y016698D02*
X019942Y016698D01*
X019942Y016857D02*
X016577Y016857D01*
X016735Y017015D02*
X019942Y017015D01*
X019942Y017174D02*
X016894Y017174D01*
X017052Y017332D02*
X019942Y017332D01*
X019942Y017491D02*
X017211Y017491D01*
X017369Y017649D02*
X019942Y017649D01*
X019942Y017808D02*
X017528Y017808D01*
X017686Y017966D02*
X019942Y017966D01*
X019942Y018125D02*
X017845Y018125D01*
X018003Y018283D02*
X019942Y018283D01*
X019942Y018442D02*
X018162Y018442D01*
X018320Y018600D02*
X019942Y018600D01*
X019942Y018759D02*
X018350Y018759D01*
X018350Y018917D02*
X019015Y018917D01*
X018965Y018938D02*
X019104Y018880D01*
X019256Y018880D01*
X019395Y018938D01*
X019502Y019045D01*
X019560Y019184D01*
X019560Y019816D01*
X019502Y019955D01*
X019395Y020062D01*
X019256Y020120D01*
X019104Y020120D01*
X018965Y020062D01*
X018858Y019955D01*
X018800Y019816D01*
X018800Y019184D01*
X018858Y019045D01*
X018965Y018938D01*
X018845Y019076D02*
X018515Y019076D01*
X018560Y019234D02*
X018800Y019234D01*
X018800Y019393D02*
X018560Y019393D01*
X018560Y019551D02*
X018800Y019551D01*
X018800Y019710D02*
X018560Y019710D01*
X018538Y019868D02*
X018822Y019868D01*
X018929Y020027D02*
X018431Y020027D01*
X017929Y020027D02*
X017431Y020027D01*
X017395Y020062D02*
X017256Y020120D01*
X017104Y020120D01*
X016965Y020062D01*
X016858Y019955D01*
X016800Y019816D01*
X016800Y019184D01*
X016858Y019045D01*
X016965Y018938D01*
X017104Y018880D01*
X017256Y018880D01*
X017395Y018938D01*
X017502Y019045D01*
X017560Y019184D01*
X017560Y019816D01*
X017502Y019955D01*
X017395Y020062D01*
X017538Y019868D02*
X017822Y019868D01*
X017800Y019710D02*
X017560Y019710D01*
X017560Y019551D02*
X017800Y019551D01*
X017800Y019393D02*
X017560Y019393D01*
X017560Y019234D02*
X017800Y019234D01*
X017845Y019076D02*
X017515Y019076D01*
X017345Y018917D02*
X018010Y018917D01*
X017998Y018759D02*
X013850Y018759D01*
X013850Y018917D02*
X014015Y018917D01*
X014345Y018917D02*
X015015Y018917D01*
X014965Y018938D02*
X015104Y018880D01*
X015256Y018880D01*
X015395Y018938D01*
X015502Y019045D01*
X015560Y019184D01*
X015560Y019816D01*
X015502Y019955D01*
X015395Y020062D01*
X015256Y020120D01*
X015104Y020120D01*
X014965Y020062D01*
X014858Y019955D01*
X014800Y019816D01*
X014800Y019184D01*
X014858Y019045D01*
X014965Y018938D01*
X014845Y019076D02*
X014515Y019076D01*
X014560Y019234D02*
X014800Y019234D01*
X014800Y019393D02*
X014560Y019393D01*
X014560Y019551D02*
X014800Y019551D01*
X014800Y019710D02*
X014560Y019710D01*
X014538Y019868D02*
X014822Y019868D01*
X014929Y020027D02*
X014431Y020027D01*
X013929Y020027D02*
X013431Y020027D01*
X013538Y019868D02*
X013822Y019868D01*
X013800Y019710D02*
X013560Y019710D01*
X013560Y019551D02*
X013800Y019551D01*
X013800Y019393D02*
X013560Y019393D01*
X013560Y019234D02*
X013674Y019234D01*
X013515Y019076D02*
X013515Y019076D01*
X013510Y018917D02*
X013345Y018917D01*
X013510Y018759D02*
X012350Y018759D01*
X012350Y018917D02*
X013015Y018917D01*
X012845Y019076D02*
X012515Y019076D01*
X012560Y019234D02*
X012800Y019234D01*
X012800Y019393D02*
X012560Y019393D01*
X012560Y019551D02*
X012800Y019551D01*
X012800Y019710D02*
X012560Y019710D01*
X012538Y019868D02*
X012822Y019868D01*
X012929Y020027D02*
X012431Y020027D01*
X011929Y020027D02*
X011431Y020027D01*
X011395Y020062D02*
X011256Y020120D01*
X011104Y020120D01*
X010965Y020062D01*
X010858Y019955D01*
X010800Y019816D01*
X010800Y019184D01*
X010858Y019045D01*
X010965Y018938D01*
X011104Y018880D01*
X011256Y018880D01*
X011395Y018938D01*
X011502Y019045D01*
X011560Y019184D01*
X011560Y019816D01*
X011502Y019955D01*
X011395Y020062D01*
X011538Y019868D02*
X011822Y019868D01*
X011800Y019710D02*
X011560Y019710D01*
X011560Y019551D02*
X011800Y019551D01*
X011800Y019393D02*
X011560Y019393D01*
X011560Y019234D02*
X011800Y019234D01*
X011845Y019076D02*
X011515Y019076D01*
X011345Y018917D02*
X012010Y018917D01*
X012010Y018759D02*
X010100Y018759D01*
X010100Y018600D02*
X012010Y018600D01*
X011931Y018442D02*
X010100Y018442D01*
X010100Y018283D02*
X011773Y018283D01*
X011614Y018125D02*
X010100Y018125D01*
X010100Y017966D02*
X011456Y017966D01*
X011297Y017808D02*
X010100Y017808D01*
X010100Y017649D02*
X011139Y017649D01*
X010980Y017491D02*
X010100Y017491D01*
X009760Y017649D02*
X009100Y017649D01*
X009100Y017491D02*
X009680Y017491D01*
X009522Y017332D02*
X009100Y017332D01*
X009100Y017174D02*
X009363Y017174D01*
X009205Y017015D02*
X009100Y017015D01*
X009046Y016857D02*
X009027Y016857D01*
X008888Y016698D02*
X008868Y016698D01*
X008729Y016540D02*
X008710Y016540D01*
X008571Y016381D02*
X008551Y016381D01*
X008229Y016540D02*
X008100Y016540D01*
X008100Y016698D02*
X008388Y016698D01*
X008546Y016857D02*
X008100Y016857D01*
X008100Y017015D02*
X008705Y017015D01*
X008760Y017174D02*
X008100Y017174D01*
X008100Y017332D02*
X008760Y017332D01*
X008760Y017491D02*
X008100Y017491D01*
X008100Y017649D02*
X008760Y017649D01*
X008760Y017808D02*
X008100Y017808D01*
X008100Y017966D02*
X008760Y017966D01*
X008760Y018125D02*
X008100Y018125D01*
X008100Y018283D02*
X008760Y018283D01*
X008760Y018442D02*
X008100Y018442D01*
X008100Y018600D02*
X008760Y018600D01*
X008760Y018759D02*
X008179Y018759D01*
X008345Y018917D02*
X008760Y018917D01*
X008765Y019076D02*
X008515Y019076D01*
X008560Y019234D02*
X008800Y019234D01*
X008800Y019393D02*
X008560Y019393D01*
X008560Y019551D02*
X008800Y019551D01*
X008800Y019710D02*
X008560Y019710D01*
X008538Y019868D02*
X008822Y019868D01*
X008929Y020027D02*
X008431Y020027D01*
X007929Y020027D02*
X007431Y020027D01*
X007538Y019868D02*
X007822Y019868D01*
X007800Y019710D02*
X007560Y019710D01*
X007560Y019551D02*
X007800Y019551D01*
X007800Y019393D02*
X007560Y019393D01*
X007560Y019234D02*
X007800Y019234D01*
X007845Y019076D02*
X007515Y019076D01*
X007350Y018917D02*
X007857Y018917D01*
X007760Y018759D02*
X007350Y018759D01*
X007350Y018600D02*
X007760Y018600D01*
X007760Y018442D02*
X007379Y018442D01*
X007537Y018283D02*
X007760Y018283D01*
X007760Y018125D02*
X007696Y018125D01*
X007374Y017966D02*
X006404Y017966D01*
X006246Y018125D02*
X007215Y018125D01*
X007057Y018283D02*
X006087Y018283D01*
X005929Y018442D02*
X007010Y018442D01*
X007010Y018600D02*
X005770Y018600D01*
X005612Y018759D02*
X007010Y018759D01*
X007010Y018917D02*
X006345Y018917D01*
X006395Y018938D02*
X006502Y019045D01*
X006560Y019184D01*
X006560Y019816D01*
X006502Y019955D01*
X006395Y020062D01*
X006256Y020120D01*
X006104Y020120D01*
X005965Y020062D01*
X005858Y019955D01*
X005800Y019816D01*
X005800Y019184D01*
X005858Y019045D01*
X005965Y018938D01*
X006104Y018880D01*
X006256Y018880D01*
X006395Y018938D01*
X006515Y019076D02*
X006845Y019076D01*
X006800Y019234D02*
X006560Y019234D01*
X006560Y019393D02*
X006800Y019393D01*
X006800Y019551D02*
X006560Y019551D01*
X006560Y019710D02*
X006800Y019710D01*
X006822Y019868D02*
X006538Y019868D01*
X006431Y020027D02*
X006929Y020027D01*
X005929Y020027D02*
X005431Y020027D01*
X005395Y020062D02*
X005256Y020120D01*
X005104Y020120D01*
X004965Y020062D01*
X004858Y019955D01*
X004800Y019816D01*
X004800Y019184D01*
X004858Y019045D01*
X004965Y018938D01*
X005104Y018880D01*
X005256Y018880D01*
X005395Y018938D01*
X005502Y019045D01*
X005560Y019184D01*
X005560Y019816D01*
X005502Y019955D01*
X005395Y020062D01*
X005538Y019868D02*
X005822Y019868D01*
X005800Y019710D02*
X005560Y019710D01*
X005560Y019551D02*
X005800Y019551D01*
X005800Y019393D02*
X005560Y019393D01*
X005560Y019234D02*
X005800Y019234D01*
X005845Y019076D02*
X005515Y019076D01*
X005345Y018917D02*
X006015Y018917D01*
X005448Y018442D02*
X000410Y018442D01*
X000410Y018600D02*
X004240Y018600D01*
X004081Y018759D02*
X000410Y018759D01*
X000410Y018917D02*
X004010Y018917D01*
X003845Y019076D02*
X000410Y019076D01*
X000410Y019234D02*
X003800Y019234D01*
X003800Y019393D02*
X000410Y019393D01*
X000410Y019551D02*
X003800Y019551D01*
X003800Y019710D02*
X000410Y019710D01*
X000410Y019868D02*
X003822Y019868D01*
X003929Y020027D02*
X000410Y020027D01*
X000410Y018283D02*
X005607Y018283D01*
X005546Y018125D02*
X005765Y018125D01*
X005858Y017332D02*
X003600Y017332D01*
X003600Y017174D02*
X006016Y017174D01*
X006155Y017015D02*
X003600Y017015D01*
X003600Y016857D02*
X006192Y016857D01*
X006880Y017491D02*
X007510Y017491D01*
X007510Y017649D02*
X006721Y017649D01*
X006563Y017808D02*
X007510Y017808D01*
X007510Y017332D02*
X007038Y017332D01*
X007197Y017174D02*
X007510Y017174D01*
X007510Y017015D02*
X007355Y017015D01*
X009100Y017808D02*
X009760Y017808D01*
X009760Y017966D02*
X009100Y017966D01*
X009100Y018125D02*
X009760Y018125D01*
X009760Y018283D02*
X009100Y018283D01*
X009100Y018442D02*
X009760Y018442D01*
X009760Y018600D02*
X009100Y018600D01*
X009100Y018759D02*
X009760Y018759D01*
X009760Y018917D02*
X009345Y018917D01*
X009515Y019076D02*
X009765Y019076D01*
X009800Y019234D02*
X009560Y019234D01*
X009560Y019393D02*
X009800Y019393D01*
X009800Y019551D02*
X009560Y019551D01*
X009560Y019710D02*
X009800Y019710D01*
X009822Y019868D02*
X009538Y019868D01*
X009431Y020027D02*
X009929Y020027D01*
X010431Y020027D02*
X010929Y020027D01*
X010822Y019868D02*
X010538Y019868D01*
X010560Y019710D02*
X010800Y019710D01*
X010800Y019551D02*
X010560Y019551D01*
X010560Y019393D02*
X010800Y019393D01*
X010800Y019234D02*
X010560Y019234D01*
X010515Y019076D02*
X010845Y019076D01*
X011015Y018917D02*
X010345Y018917D01*
X011619Y017649D02*
X013510Y017649D01*
X013510Y017491D02*
X011461Y017491D01*
X011302Y017332D02*
X013510Y017332D01*
X013510Y017174D02*
X011144Y017174D01*
X011778Y017808D02*
X013510Y017808D01*
X013510Y017966D02*
X011936Y017966D01*
X012095Y018125D02*
X013510Y018125D01*
X013510Y018283D02*
X012253Y018283D01*
X012350Y018442D02*
X013510Y018442D01*
X013510Y018600D02*
X012350Y018600D01*
X013850Y018600D02*
X017840Y018600D01*
X017681Y018442D02*
X013850Y018442D01*
X013850Y018283D02*
X017523Y018283D01*
X017364Y018125D02*
X013850Y018125D01*
X013850Y017966D02*
X017206Y017966D01*
X017047Y017808D02*
X013850Y017808D01*
X013850Y017649D02*
X016889Y017649D01*
X016730Y017491D02*
X013850Y017491D01*
X013850Y017332D02*
X016572Y017332D01*
X016413Y017174D02*
X013850Y017174D01*
X013850Y017015D02*
X016255Y017015D01*
X016096Y016857D02*
X013850Y016857D01*
X013850Y016698D02*
X015938Y016698D01*
X015779Y016540D02*
X013850Y016540D01*
X013850Y016381D02*
X015621Y016381D01*
X015462Y016223D02*
X013850Y016223D01*
X013850Y016064D02*
X015304Y016064D01*
X014197Y015906D02*
X013850Y015906D01*
X013850Y015747D02*
X014155Y015747D01*
X014203Y015589D02*
X013850Y015589D01*
X013510Y015589D02*
X011682Y015589D01*
X011523Y015747D02*
X013510Y015747D01*
X013510Y015906D02*
X011365Y015906D01*
X011206Y016064D02*
X013510Y016064D01*
X013510Y016223D02*
X011048Y016223D01*
X010889Y016381D02*
X013510Y016381D01*
X013510Y016540D02*
X009460Y016540D01*
X009618Y016698D02*
X013510Y016698D01*
X013510Y016857D02*
X009777Y016857D01*
X009935Y017015D02*
X013510Y017015D01*
X013510Y015430D02*
X011840Y015430D01*
X011999Y015272D02*
X013510Y015272D01*
X013510Y015113D02*
X012157Y015113D01*
X012316Y014955D02*
X013246Y014955D01*
X013155Y014796D02*
X012474Y014796D01*
X012633Y014638D02*
X013077Y014638D01*
X013010Y014479D02*
X012791Y014479D01*
X012850Y014321D02*
X013010Y014321D01*
X013010Y014162D02*
X012850Y014162D01*
X012850Y014004D02*
X012906Y014004D01*
X013850Y014004D02*
X013906Y014004D01*
X013850Y014162D02*
X014102Y014162D01*
X014260Y014321D02*
X013850Y014321D01*
X013850Y014479D02*
X014419Y014479D01*
X014577Y014638D02*
X013850Y014638D01*
X013850Y014796D02*
X016495Y014796D01*
X016405Y014955D02*
X013850Y014955D01*
X013850Y015113D02*
X016429Y015113D01*
X016283Y014638D02*
X017552Y014638D01*
X017394Y014796D02*
X016865Y014796D01*
X016441Y014479D02*
X017711Y014479D01*
X017869Y014321D02*
X016600Y014321D01*
X016758Y014162D02*
X018010Y014162D01*
X017906Y014004D02*
X017454Y014004D01*
X017548Y013845D02*
X017812Y013845D01*
X017800Y013687D02*
X017560Y013687D01*
X017560Y013528D02*
X017800Y013528D01*
X017800Y013370D02*
X017560Y013370D01*
X017560Y013211D02*
X017800Y013211D01*
X017855Y013053D02*
X017505Y013053D01*
X017071Y012894D02*
X017026Y012894D01*
X017343Y012577D02*
X017501Y012577D01*
X017859Y012577D02*
X018501Y012577D01*
X018343Y012419D02*
X018017Y012419D01*
X018060Y012260D02*
X018300Y012260D01*
X018300Y012102D02*
X018060Y012102D01*
X018060Y011943D02*
X018300Y011943D01*
X018300Y011785D02*
X018060Y011785D01*
X018036Y011626D02*
X018324Y011626D01*
X018435Y011468D02*
X017925Y011468D01*
X019180Y012894D02*
X019180Y012894D01*
X019859Y012577D02*
X019942Y012577D01*
X016906Y014004D02*
X016850Y014004D01*
X016256Y018880D02*
X016104Y018880D01*
X015965Y018938D01*
X015858Y019045D01*
X015800Y019184D01*
X015800Y019816D01*
X015858Y019955D01*
X015965Y020062D01*
X016104Y020120D01*
X016256Y020120D01*
X016395Y020062D01*
X016502Y019955D01*
X016560Y019816D01*
X016560Y019184D01*
X016502Y019045D01*
X016395Y018938D01*
X016256Y018880D01*
X016345Y018917D02*
X017015Y018917D01*
X016845Y019076D02*
X016515Y019076D01*
X016560Y019234D02*
X016800Y019234D01*
X016800Y019393D02*
X016560Y019393D01*
X016560Y019551D02*
X016800Y019551D01*
X016800Y019710D02*
X016560Y019710D01*
X016538Y019868D02*
X016822Y019868D01*
X016929Y020027D02*
X016431Y020027D01*
X015929Y020027D02*
X015431Y020027D01*
X015538Y019868D02*
X015822Y019868D01*
X015800Y019710D02*
X015560Y019710D01*
X015560Y019551D02*
X015800Y019551D01*
X015800Y019393D02*
X015560Y019393D01*
X015560Y019234D02*
X015800Y019234D01*
X015845Y019076D02*
X015515Y019076D01*
X015345Y018917D02*
X016015Y018917D01*
X019345Y018917D02*
X019942Y018917D01*
X019942Y019076D02*
X019515Y019076D01*
X019560Y019234D02*
X019942Y019234D01*
X019942Y019393D02*
X019560Y019393D01*
X019560Y019551D02*
X019942Y019551D01*
X019942Y019710D02*
X019560Y019710D01*
X019538Y019868D02*
X019942Y019868D01*
X019942Y020027D02*
X019431Y020027D01*
X017457Y006554D02*
X017350Y006554D01*
X017377Y005445D02*
X017458Y005445D01*
X016983Y005445D02*
X016902Y005445D01*
X015983Y005445D02*
X015902Y005445D01*
X015802Y005286D02*
X015350Y005286D01*
X015350Y005128D02*
X015740Y005128D01*
X015740Y004969D02*
X015350Y004969D01*
X015350Y004811D02*
X015740Y004811D01*
X015458Y005445D02*
X015350Y005445D01*
X013836Y004494D02*
X012524Y004494D01*
X012606Y004335D02*
X013754Y004335D01*
X013750Y004177D02*
X012610Y004177D01*
X012535Y004018D02*
X013825Y004018D01*
X004458Y005445D02*
X004350Y005445D01*
X003221Y004969D02*
X003130Y004969D01*
X003125Y004984D02*
X003091Y005052D01*
X003046Y005113D01*
X002993Y005166D01*
X002932Y005211D01*
X002864Y005245D01*
X002792Y005268D01*
X002718Y005280D01*
X002700Y005280D01*
X002700Y004520D01*
X002660Y004520D01*
X002660Y005280D01*
X002642Y005280D01*
X002568Y005268D01*
X002496Y005245D01*
X002428Y005211D01*
X002367Y005166D01*
X002314Y005113D01*
X002269Y005052D01*
X002235Y004984D01*
X002212Y004912D01*
X002200Y004838D01*
X002200Y004520D01*
X002660Y004520D01*
X002660Y004480D01*
X002200Y004480D01*
X002200Y004162D01*
X002212Y004088D01*
X002235Y004016D01*
X002269Y003948D01*
X002314Y003887D01*
X002367Y003834D01*
X002428Y003789D01*
X002496Y003755D01*
X002568Y003732D01*
X002642Y003720D01*
X002660Y003720D01*
X002660Y004480D01*
X002700Y004480D01*
X002700Y004520D01*
X003160Y004520D01*
X003160Y004838D01*
X003148Y004912D01*
X003125Y004984D01*
X003062Y005128D02*
X003031Y005128D01*
X003010Y005286D02*
X000410Y005286D01*
X000410Y005445D02*
X000458Y005445D01*
X000902Y005445D02*
X001458Y005445D01*
X001465Y005438D02*
X001604Y005380D01*
X001756Y005380D01*
X001895Y005438D01*
X002002Y005545D01*
X002060Y005684D01*
X002060Y006316D01*
X002002Y006455D01*
X001895Y006562D01*
X001756Y006620D01*
X001604Y006620D01*
X001465Y006562D01*
X001358Y006455D01*
X001300Y006316D01*
X001300Y005684D01*
X001358Y005545D01*
X001465Y005438D01*
X001334Y005603D02*
X001026Y005603D01*
X001060Y005762D02*
X001300Y005762D01*
X001300Y005920D02*
X001060Y005920D01*
X001060Y006079D02*
X001300Y006079D01*
X001300Y006237D02*
X001060Y006237D01*
X001027Y006396D02*
X001333Y006396D01*
X001457Y006554D02*
X000903Y006554D01*
X000457Y006554D02*
X000410Y006554D01*
X000410Y006713D02*
X003010Y006713D01*
X003010Y006871D02*
X000410Y006871D01*
X000410Y007030D02*
X003010Y007030D01*
X003010Y007188D02*
X000410Y007188D01*
X000410Y007347D02*
X003010Y007347D01*
X003010Y007505D02*
X000410Y007505D01*
X000410Y007664D02*
X003010Y007664D01*
X003010Y007822D02*
X000410Y007822D01*
X000410Y007981D02*
X003010Y007981D01*
X003010Y008139D02*
X000410Y008139D01*
X000410Y008298D02*
X002992Y008298D01*
X002834Y008456D02*
X000410Y008456D01*
X000410Y008615D02*
X002675Y008615D01*
X002517Y008773D02*
X000410Y008773D01*
X000410Y008932D02*
X002358Y008932D01*
X002200Y009090D02*
X000410Y009090D01*
X000410Y009249D02*
X002041Y009249D01*
X001883Y009407D02*
X000410Y009407D01*
X000410Y009566D02*
X001724Y009566D01*
X001566Y009724D02*
X000410Y009724D01*
X000410Y009883D02*
X001407Y009883D01*
X001249Y010041D02*
X000410Y010041D01*
X000410Y010200D02*
X001090Y010200D01*
X000932Y010358D02*
X000410Y010358D01*
X000410Y010517D02*
X000773Y010517D01*
X000615Y010675D02*
X000410Y010675D01*
X000410Y010834D02*
X000510Y010834D01*
X000510Y010992D02*
X000410Y010992D01*
X000410Y011151D02*
X000510Y011151D01*
X000510Y011309D02*
X000410Y011309D01*
X000410Y011468D02*
X000435Y011468D01*
X002170Y011151D02*
X003010Y011151D01*
X003010Y010992D02*
X002328Y010992D01*
X002487Y010834D02*
X003010Y010834D01*
X003010Y010675D02*
X002645Y010675D01*
X002804Y010517D02*
X003023Y010517D01*
X002962Y010358D02*
X003182Y010358D01*
X003121Y010200D02*
X003340Y010200D01*
X003279Y010041D02*
X003499Y010041D01*
X003438Y009883D02*
X003657Y009883D01*
X003596Y009724D02*
X003816Y009724D01*
X003755Y009566D02*
X003974Y009566D01*
X003913Y009407D02*
X004133Y009407D01*
X004072Y009249D02*
X004291Y009249D01*
X004230Y009090D02*
X004450Y009090D01*
X003010Y006554D02*
X002903Y006554D01*
X002457Y006554D02*
X001903Y006554D01*
X002027Y006396D02*
X002333Y006396D01*
X002300Y006237D02*
X002060Y006237D01*
X002060Y006079D02*
X002300Y006079D01*
X002300Y005920D02*
X002060Y005920D01*
X002060Y005762D02*
X002300Y005762D01*
X002334Y005603D02*
X002026Y005603D01*
X001902Y005445D02*
X002458Y005445D01*
X002329Y005128D02*
X001975Y005128D01*
X002086Y004969D02*
X002230Y004969D01*
X002200Y004811D02*
X002120Y004811D01*
X002120Y004652D02*
X002200Y004652D01*
X002120Y004494D02*
X002660Y004494D01*
X002700Y004494D02*
X003240Y004494D01*
X003160Y004480D02*
X002700Y004480D01*
X002700Y003720D01*
X002718Y003720D01*
X002792Y003732D01*
X002864Y003755D01*
X002932Y003789D01*
X002993Y003834D01*
X003046Y003887D01*
X003091Y003948D01*
X003125Y004016D01*
X003148Y004088D01*
X003160Y004162D01*
X003160Y004480D01*
X003160Y004335D02*
X003240Y004335D01*
X003240Y004177D02*
X003160Y004177D01*
X003126Y004018D02*
X003279Y004018D01*
X003398Y003860D02*
X003018Y003860D01*
X002700Y003860D02*
X002660Y003860D01*
X002660Y004018D02*
X002700Y004018D01*
X002700Y004177D02*
X002660Y004177D01*
X002660Y004335D02*
X002700Y004335D01*
X002700Y004652D02*
X002660Y004652D01*
X002660Y004811D02*
X002700Y004811D01*
X002700Y004969D02*
X002660Y004969D01*
X002660Y005128D02*
X002700Y005128D01*
X002902Y005445D02*
X003010Y005445D01*
X003160Y004811D02*
X003240Y004811D01*
X003240Y004652D02*
X003160Y004652D01*
X002342Y003860D02*
X001962Y003860D01*
X002081Y004018D02*
X002234Y004018D01*
X002200Y004177D02*
X002120Y004177D01*
X002120Y004335D02*
X002200Y004335D01*
X001398Y003860D02*
X000962Y003860D01*
X001081Y004018D02*
X001279Y004018D01*
X001240Y004177D02*
X001120Y004177D01*
X001120Y004335D02*
X001240Y004335D01*
X001240Y004494D02*
X001120Y004494D01*
X001120Y004652D02*
X001240Y004652D01*
X001240Y004811D02*
X001120Y004811D01*
X001086Y004969D02*
X001274Y004969D01*
X001385Y005128D02*
X000975Y005128D01*
X004403Y018917D02*
X005015Y018917D01*
X004845Y019076D02*
X004515Y019076D01*
X004560Y019234D02*
X004800Y019234D01*
X004800Y019393D02*
X004560Y019393D01*
X004560Y019551D02*
X004800Y019551D01*
X004800Y019710D02*
X004560Y019710D01*
X004538Y019868D02*
X004822Y019868D01*
X004929Y020027D02*
X004431Y020027D01*
M02*
