G75*
G70*
%OFA0B0*%
%FSLAX24Y24*%
%IPPOS*%
%LPD*%
%AMOC8*
5,1,8,0,0,1.08239X$1,22.5*
%
%ADD10C,0.0000*%
D10*
X012382Y005162D02*
X012382Y028784D01*
X012384Y028878D01*
X012391Y028971D01*
X012402Y029064D01*
X012418Y029157D01*
X012438Y029248D01*
X012462Y029339D01*
X012490Y029428D01*
X012523Y029516D01*
X012560Y029602D01*
X012601Y029686D01*
X012646Y029769D01*
X012695Y029849D01*
X012747Y029926D01*
X012803Y030001D01*
X012863Y030073D01*
X012926Y030143D01*
X012992Y030209D01*
X013062Y030272D01*
X013134Y030332D01*
X013209Y030388D01*
X013286Y030440D01*
X013367Y030489D01*
X013449Y030534D01*
X013533Y030575D01*
X013619Y030612D01*
X013707Y030645D01*
X013796Y030673D01*
X013887Y030697D01*
X013978Y030717D01*
X014071Y030733D01*
X014164Y030744D01*
X014257Y030751D01*
X014351Y030753D01*
X043878Y030753D01*
X043972Y030751D01*
X044065Y030744D01*
X044158Y030733D01*
X044251Y030717D01*
X044342Y030697D01*
X044433Y030673D01*
X044522Y030645D01*
X044610Y030612D01*
X044696Y030575D01*
X044780Y030534D01*
X044863Y030489D01*
X044943Y030440D01*
X045020Y030388D01*
X045095Y030332D01*
X045167Y030272D01*
X045237Y030209D01*
X045303Y030143D01*
X045366Y030073D01*
X045426Y030001D01*
X045482Y029926D01*
X045534Y029849D01*
X045583Y029769D01*
X045628Y029686D01*
X045669Y029602D01*
X045706Y029516D01*
X045739Y029428D01*
X045767Y029339D01*
X045791Y029248D01*
X045811Y029157D01*
X045827Y029064D01*
X045838Y028971D01*
X045845Y028878D01*
X045847Y028784D01*
X045847Y005162D01*
X045845Y005068D01*
X045838Y004975D01*
X045827Y004882D01*
X045811Y004789D01*
X045791Y004698D01*
X045767Y004607D01*
X045739Y004518D01*
X045706Y004430D01*
X045669Y004344D01*
X045628Y004260D01*
X045583Y004178D01*
X045534Y004097D01*
X045482Y004020D01*
X045426Y003945D01*
X045366Y003873D01*
X045303Y003803D01*
X045237Y003737D01*
X045167Y003674D01*
X045095Y003614D01*
X045020Y003558D01*
X044943Y003506D01*
X044863Y003457D01*
X044780Y003412D01*
X044696Y003371D01*
X044610Y003334D01*
X044522Y003301D01*
X044433Y003273D01*
X044342Y003249D01*
X044251Y003229D01*
X044158Y003213D01*
X044065Y003202D01*
X043972Y003195D01*
X043878Y003193D01*
X043878Y003194D02*
X014351Y003194D01*
X014351Y003193D02*
X014257Y003195D01*
X014164Y003202D01*
X014071Y003213D01*
X013978Y003229D01*
X013887Y003249D01*
X013796Y003273D01*
X013707Y003301D01*
X013619Y003334D01*
X013533Y003371D01*
X013449Y003412D01*
X013366Y003457D01*
X013286Y003506D01*
X013209Y003558D01*
X013134Y003614D01*
X013062Y003674D01*
X012992Y003737D01*
X012926Y003803D01*
X012863Y003873D01*
X012803Y003945D01*
X012747Y004020D01*
X012695Y004097D01*
X012646Y004178D01*
X012601Y004260D01*
X012560Y004344D01*
X012523Y004430D01*
X012490Y004518D01*
X012462Y004607D01*
X012438Y004698D01*
X012418Y004789D01*
X012402Y004882D01*
X012391Y004975D01*
X012384Y005068D01*
X012382Y005162D01*
X034587Y005495D02*
X034589Y005522D01*
X034595Y005549D01*
X034604Y005575D01*
X034617Y005599D01*
X034633Y005622D01*
X034652Y005641D01*
X034674Y005658D01*
X034698Y005672D01*
X034723Y005682D01*
X034750Y005689D01*
X034777Y005692D01*
X034805Y005691D01*
X034832Y005686D01*
X034858Y005678D01*
X034882Y005666D01*
X034905Y005650D01*
X034926Y005632D01*
X034943Y005611D01*
X034958Y005587D01*
X034969Y005562D01*
X034977Y005536D01*
X034981Y005509D01*
X034981Y005481D01*
X034977Y005454D01*
X034969Y005428D01*
X034958Y005403D01*
X034943Y005379D01*
X034926Y005358D01*
X034905Y005340D01*
X034883Y005324D01*
X034858Y005312D01*
X034832Y005304D01*
X034805Y005299D01*
X034777Y005298D01*
X034750Y005301D01*
X034723Y005308D01*
X034698Y005318D01*
X034674Y005332D01*
X034652Y005349D01*
X034633Y005368D01*
X034617Y005391D01*
X034604Y005415D01*
X034595Y005441D01*
X034589Y005468D01*
X034587Y005495D01*
X036319Y005495D02*
X036321Y005522D01*
X036327Y005549D01*
X036336Y005575D01*
X036349Y005599D01*
X036365Y005622D01*
X036384Y005641D01*
X036406Y005658D01*
X036430Y005672D01*
X036455Y005682D01*
X036482Y005689D01*
X036509Y005692D01*
X036537Y005691D01*
X036564Y005686D01*
X036590Y005678D01*
X036614Y005666D01*
X036637Y005650D01*
X036658Y005632D01*
X036675Y005611D01*
X036690Y005587D01*
X036701Y005562D01*
X036709Y005536D01*
X036713Y005509D01*
X036713Y005481D01*
X036709Y005454D01*
X036701Y005428D01*
X036690Y005403D01*
X036675Y005379D01*
X036658Y005358D01*
X036637Y005340D01*
X036615Y005324D01*
X036590Y005312D01*
X036564Y005304D01*
X036537Y005299D01*
X036509Y005298D01*
X036482Y005301D01*
X036455Y005308D01*
X036430Y005318D01*
X036406Y005332D01*
X036384Y005349D01*
X036365Y005368D01*
X036349Y005391D01*
X036336Y005415D01*
X036327Y005441D01*
X036321Y005468D01*
X036319Y005495D01*
X039698Y004986D02*
X039700Y005020D01*
X039706Y005054D01*
X039716Y005087D01*
X039729Y005118D01*
X039747Y005148D01*
X039767Y005176D01*
X039791Y005201D01*
X039817Y005223D01*
X039845Y005241D01*
X039876Y005257D01*
X039908Y005269D01*
X039942Y005277D01*
X039976Y005281D01*
X040010Y005281D01*
X040044Y005277D01*
X040078Y005269D01*
X040110Y005257D01*
X040140Y005241D01*
X040169Y005223D01*
X040195Y005201D01*
X040219Y005176D01*
X040239Y005148D01*
X040257Y005118D01*
X040270Y005087D01*
X040280Y005054D01*
X040286Y005020D01*
X040288Y004986D01*
X040286Y004952D01*
X040280Y004918D01*
X040270Y004885D01*
X040257Y004854D01*
X040239Y004824D01*
X040219Y004796D01*
X040195Y004771D01*
X040169Y004749D01*
X040141Y004731D01*
X040110Y004715D01*
X040078Y004703D01*
X040044Y004695D01*
X040010Y004691D01*
X039976Y004691D01*
X039942Y004695D01*
X039908Y004703D01*
X039876Y004715D01*
X039845Y004731D01*
X039817Y004749D01*
X039791Y004771D01*
X039767Y004796D01*
X039747Y004824D01*
X039729Y004854D01*
X039716Y004885D01*
X039706Y004918D01*
X039700Y004952D01*
X039698Y004986D01*
X027365Y028722D02*
X027367Y028743D01*
X027373Y028763D01*
X027382Y028783D01*
X027394Y028800D01*
X027409Y028814D01*
X027427Y028826D01*
X027447Y028834D01*
X027467Y028839D01*
X027488Y028840D01*
X027509Y028837D01*
X027529Y028831D01*
X027548Y028820D01*
X027565Y028807D01*
X027578Y028791D01*
X027589Y028773D01*
X027597Y028753D01*
X027601Y028733D01*
X027601Y028711D01*
X027597Y028691D01*
X027589Y028671D01*
X027578Y028653D01*
X027565Y028637D01*
X027548Y028624D01*
X027529Y028613D01*
X027509Y028607D01*
X027488Y028604D01*
X027467Y028605D01*
X027447Y028610D01*
X027427Y028618D01*
X027409Y028630D01*
X027394Y028644D01*
X027382Y028661D01*
X027373Y028681D01*
X027367Y028701D01*
X027365Y028722D01*
X021813Y028722D02*
X021815Y028743D01*
X021821Y028763D01*
X021830Y028783D01*
X021842Y028800D01*
X021857Y028814D01*
X021875Y028826D01*
X021895Y028834D01*
X021915Y028839D01*
X021936Y028840D01*
X021957Y028837D01*
X021977Y028831D01*
X021996Y028820D01*
X022013Y028807D01*
X022026Y028791D01*
X022037Y028773D01*
X022045Y028753D01*
X022049Y028733D01*
X022049Y028711D01*
X022045Y028691D01*
X022037Y028671D01*
X022026Y028653D01*
X022013Y028637D01*
X021996Y028624D01*
X021977Y028613D01*
X021957Y028607D01*
X021936Y028604D01*
X021915Y028605D01*
X021895Y028610D01*
X021875Y028618D01*
X021857Y028630D01*
X021842Y028644D01*
X021830Y028661D01*
X021821Y028681D01*
X021815Y028701D01*
X021813Y028722D01*
M02*
