%
M48
M72
T01C0.0130
T02C0.0236
T03C0.0315
T04C0.0394
T05C0.0400
T06C0.0591
T07C0.1200
%
T01
X12960Y6233
X13960Y7233
X14960Y8233
X15960Y7233
X16960Y6233
X15960Y5233
X16960Y4233
X21680Y7253
X21500Y8153
X19920Y8213
X19920Y7713
X19920Y8713
X19920Y9213
X19100Y10493
X18800Y10793
X18500Y11273
X16960Y10233
X15960Y11233
X14960Y10233
X13960Y11233
X12960Y12233
X14960Y12233
X16280Y12653
X16160Y13133
X14960Y14233
X13973Y14420
X14357Y15050
X14633Y15680
X14462Y15995
X13973Y16310
X14251Y16625
X13960Y17233
X14960Y18233
X14180Y18830
X14000Y19144
X14180Y19459
X14000Y19774
X14180Y20089
X14000Y20404
X14180Y20719
X13960Y21233
X14095Y22214
X12960Y22233
X15774Y20719
X15609Y20404
X15804Y20089
X15639Y19774
X15960Y19233
X16960Y18233
X18729Y17885
X18834Y18200
X18939Y18515
X19220Y19193
X19460Y19433
X19700Y19193
X19940Y19433
X21560Y20393
X21880Y20678
X21560Y21173
X21560Y21713
X22100Y21953
X22340Y21713
X23180Y22493
X23670Y22673
X24029Y22457
X23620Y22183
X24500Y22253
X24860Y22553
X24480Y22773
X25160Y22193
X25940Y21953
X26194Y22473
X27260Y22733
X28163Y22457
X28950Y22043
X29852Y22506
X30148Y22731
X30722Y22457
X31160Y22613
X31717Y22476
X32900Y22613
X33140Y22853
X33920Y23393
X34220Y23153
X34220Y23633
X33920Y23873
X34220Y24113
X33920Y24353
X33500Y24713
X32780Y24893
X32660Y24533
X31940Y24953
X31340Y25233
X31580Y25493
X30980Y25733
X32060Y25973
X32480Y26213
X32840Y26573
X33200Y25673
X33620Y25733
X33889Y25464
X34160Y25733
X34460Y26453
X35308Y25605
X35034Y25399
X35582Y25392
X35855Y25598
X36560Y25013
X36860Y25193
X37160Y25013
X37460Y25193
X37520Y25973
X37520Y26333
X37520Y26693
X37520Y27053
X37520Y27413
X36020Y26693
X35857Y26993
X36800Y28853
X37220Y29633
X38120Y29633
X37700Y28853
X38600Y28853
X39020Y29633
X39500Y28853
X40460Y27773
X40960Y27233
X40460Y26813
X39860Y26573
X40040Y25553
X40040Y24773
X38440Y24247
X38240Y23573
X37820Y23213
X37700Y22193
X37700Y21593
X37768Y21173
X36860Y20213
X36619Y19613
X36380Y19013
X37387Y19300
X38540Y19913
X39960Y20233
X39960Y22233
X41009Y22973
X42960Y23233
X44000Y22973
X44240Y23393
X44960Y23233
X43960Y22233
X44960Y21233
X43960Y20233
X44960Y19233
X43960Y18233
X43060Y18353
X42205Y18108
X41530Y17423
X41130Y17423
X40455Y18048
X38960Y17233
X37960Y16233
X36960Y15233
X36130Y14003
X34830Y13653
X34220Y13853
X33920Y13613
X33615Y13788
X32391Y14182
X32304Y13592
X31400Y12893
X28580Y12413
X28580Y12053
X28580Y11693
X26980Y12005
X26517Y12005
X26134Y11979
X25790Y12005
X24816Y12005
X23180Y11993
X23660Y13073
X21880Y14182
X21680Y13788
X21620Y14633
X21860Y14873
X21620Y15113
X22760Y15113
X22040Y15773
X21680Y15773
X21920Y16253
X20552Y15560
X18960Y16233
X18542Y16940
X19960Y17233
X21880Y17529
X22320Y18333
X21880Y18907
X21860Y19553
X20319Y21034
X19700Y21713
X19460Y21473
X18542Y21034
X19700Y22673
X19400Y23153
X19100Y22913
X18800Y23273
X18080Y23633
X17595Y23513
X17095Y23608
X19100Y24173
X19100Y24593
X19960Y25233
X20960Y25073
X21200Y24833
X21440Y24593
X21200Y24353
X20960Y24113
X21800Y24593
X22160Y24593
X22754Y24473
X23240Y24593
X24423Y25073
X24816Y25073
X25210Y25073
X25604Y25073
X25997Y25073
X26391Y25313
X26785Y25309
X28040Y26033
X28220Y26333
X28340Y26693
X28460Y27053
X28520Y28373
X29060Y28673
X29300Y29333
X28940Y29453
X30380Y28673
X30080Y28373
X32120Y28493
X33020Y28853
X33380Y28973
X33740Y29093
X34100Y29213
X34460Y29333
X34820Y29453
X36140Y29633
X32660Y27413
X29840Y25793
X28580Y24533
X29120Y23993
X29540Y23753
X29934Y23788
X29687Y24233
X28420Y23752
X27906Y23752
X27572Y23752
X27178Y23752
X24440Y25493
X24680Y25733
X24920Y25973
X25160Y26213
X25520Y26393
X25880Y26393
X23900Y26093
X21960Y27233
X22400Y28133
X23900Y28013
X24140Y28253
X24380Y28013
X24620Y28253
X24920Y28013
X25220Y28253
X25820Y28253
X26300Y28253
X26960Y28133
X20960Y26233
X19414Y26853
X19020Y26853
X17607Y27214
X17095Y27214
X15960Y27233
X13960Y27233
X12960Y26233
X13960Y25233
X12960Y24233
X16760Y25652
X17960Y25233
X20900Y22913
X21500Y23153
X21740Y23393
X22651Y22744
X24620Y21533
X24980Y21533
X24980Y20453
X24620Y20453
X26960Y20393
X27320Y20393
X27680Y20393
X29600Y20393
X29960Y20393
X29960Y20993
X29600Y20993
X31464Y19300
X31464Y18710
X32180Y18113
X31940Y17873
X32189Y17624
X31940Y17333
X32480Y16973
X32304Y15757
X34487Y15560
X34760Y15953
X35034Y16347
X35308Y16561
X35582Y17255
X35855Y17529
X36129Y17922
X37700Y17933
X34200Y20188
X34200Y20548
X33661Y20952
X33920Y21466
X32568Y19641
X32240Y19733
X32540Y19013
X33600Y18868
X33920Y18293
X33600Y18148
X27680Y18833
X27320Y18833
X26960Y18833
X26960Y17453
X27320Y17453
X27680Y17453
X27680Y16133
X27320Y16133
X26960Y16133
X26960Y15233
X27320Y15233
X27680Y15233
X27680Y14393
X27320Y14393
X26960Y14393
X23540Y10673
X22940Y10613
X22580Y10613
X22220Y10673
X21800Y10613
X21740Y10253
X21980Y10013
X21680Y9713
X24440Y9473
X25220Y9593
X26120Y10193
X26780Y9953
X27500Y9953
X27769Y10196
X28103Y10196
X28403Y10196
X28753Y10196
X29120Y10193
X27960Y9233
X26960Y8233
X26060Y7913
X26000Y8273
X25700Y7553
X25960Y7233
X26960Y6233
X27960Y7233
X29960Y7233
X29996Y8213
X31414Y8213
X33210Y7023
X35650Y8163
X35335Y8418
X36960Y7233
X37960Y8233
X39840Y9973
X40170Y10443
X40910Y10443
X40910Y9493
X41960Y8233
X40960Y7233
X39960Y6233
X40960Y5233
X39960Y4233
X41960Y4233
X41960Y6233
X42960Y7233
X43960Y8233
X42960Y9233
X40240Y12113
X39940Y12593
X39640Y12113
X39640Y13073
X38980Y13403
X38980Y14103
X37755Y13803
X37405Y13803
X37405Y13403
X37755Y13403
X37755Y13003
X37405Y13003
X35960Y13253
X32960Y10233
X32180Y10493
X31820Y10493
X31520Y10733
X31220Y10553
X33304Y9669
X30960Y6233
X29960Y5233
X29060Y4553
X27960Y5233
X31435Y4713
X31960Y5233
X32780Y4713
X35960Y4233
X36960Y5233
X25220Y8753
X24140Y7553
X20552Y12173
X20312Y13044
X20552Y13985
X18542Y13475
X18542Y12845
X18542Y15365
X12860Y18515
X15960Y9233
X16800Y9213
X32660Y23573
X41960Y28233
X42960Y27233
X41960Y30233
X42574Y24247
X44960Y17233
X43960Y16233
X43060Y15023
X43500Y14673
X41960Y14233
X40240Y13073
X44507Y12407
X44987Y12407
X45467Y12407
X44960Y13233
X45080Y15023
X19807Y28626
X19960Y29233
X18626Y28607
X17960Y29233
X16960Y30233
X15960Y29233
X14960Y30233
X18960Y30233
T02
X21931Y28722
X27483Y28722
X41520Y20945
X41520Y20453
X41520Y19961
X41520Y19469
T03
X44994Y9601
X44994Y8813
X44994Y8026
T04
X36516Y5495
X34784Y5495
T05
X26605Y5588
X25605Y5588
X24605Y5588
X23605Y5588
X22605Y5588
X21605Y5588
X20605Y5588
X19605Y5588
X18605Y5588
X17605Y5588
X17605Y4588
X18605Y4588
X19605Y4588
X20605Y4588
X21605Y4588
X22605Y4588
X23605Y4588
X24605Y4588
X25605Y4588
X26605Y4588
T06
X39008Y4986
X39993Y4986
X41804Y4986
X39343Y6955
X41075Y7978
X39658Y8136
X44994Y7199
X44994Y10427
T07
X43878Y5162
X14351Y5162
X14351Y28784
X43878Y28784
M30
