G75*
G70*
%OFA0B0*%
%FSLAX24Y24*%
%IPPOS*%
%LPD*%
%AMOC8*
5,1,8,0,0,1.08239X$1,22.5*
%
%ADD10R,0.0114X0.0551*%
%ADD11R,0.0551X0.0114*%
%ADD12R,0.0560X0.0280*%
%ADD13R,0.0472X0.0394*%
%ADD14R,0.0472X0.0276*%
%ADD15R,0.0315X0.0394*%
%ADD16R,0.1102X0.0394*%
%ADD17R,0.0748X0.0512*%
%ADD18R,0.0433X0.0394*%
%ADD19R,0.1181X0.1181*%
%ADD20R,0.0787X0.0433*%
%ADD21R,0.0551X0.0394*%
%ADD22R,0.0315X0.0315*%
%ADD23R,0.1654X0.0591*%
%ADD24R,0.0945X0.0291*%
%ADD25R,0.0118X0.0472*%
%ADD26R,0.0236X0.0807*%
%ADD27R,0.0118X0.0630*%
%ADD28R,0.0550X0.0170*%
%ADD29R,0.0650X0.1120*%
%ADD30R,0.0120X0.0320*%
%ADD31R,0.0940X0.0250*%
%ADD32R,0.0197X0.0886*%
%ADD33R,0.0787X0.0984*%
%ADD34R,0.0354X0.0276*%
%ADD35R,0.0276X0.0354*%
%ADD36R,0.1811X0.0394*%
%ADD37R,0.1339X0.0630*%
%ADD38R,0.0200X0.0480*%
%ADD39R,0.0984X0.2244*%
%ADD40R,0.0866X0.0630*%
%ADD41R,0.0591X0.0512*%
%ADD42R,0.0594X0.0180*%
%ADD43R,0.0394X0.0433*%
D10*
X022060Y011210D03*
X022257Y011210D03*
X022454Y011210D03*
X022651Y011210D03*
X022848Y011210D03*
X023045Y011210D03*
X023241Y011210D03*
X023438Y011210D03*
X023635Y011210D03*
X023832Y011210D03*
X024029Y011210D03*
X024226Y011210D03*
X024423Y011210D03*
X024619Y011210D03*
X024816Y011210D03*
X025013Y011210D03*
X025210Y011210D03*
X025407Y011210D03*
X025604Y011210D03*
X025800Y011210D03*
X025997Y011210D03*
X026194Y011210D03*
X026391Y011210D03*
X026588Y011210D03*
X026785Y011210D03*
X026982Y011210D03*
X027178Y011210D03*
X027375Y011210D03*
X027572Y011210D03*
X027769Y011210D03*
X027966Y011210D03*
X028163Y011210D03*
X028360Y011210D03*
X028556Y011210D03*
X028753Y011210D03*
X028950Y011210D03*
X029147Y011210D03*
X029344Y011210D03*
X029541Y011210D03*
X029737Y011210D03*
X029934Y011210D03*
X030131Y011210D03*
X030328Y011210D03*
X030525Y011210D03*
X030722Y011210D03*
X030919Y011210D03*
X031115Y011210D03*
X031312Y011210D03*
X031509Y011210D03*
X031706Y011210D03*
X031903Y011210D03*
X032100Y011210D03*
X032100Y023257D03*
X031903Y023257D03*
X031706Y023257D03*
X031509Y023257D03*
X031312Y023257D03*
X031115Y023257D03*
X030919Y023257D03*
X030722Y023257D03*
X030525Y023257D03*
X030328Y023257D03*
X030131Y023257D03*
X029934Y023257D03*
X029737Y023257D03*
X029541Y023257D03*
X029344Y023257D03*
X029147Y023257D03*
X028950Y023257D03*
X028753Y023257D03*
X028556Y023257D03*
X028360Y023257D03*
X028163Y023257D03*
X027966Y023257D03*
X027769Y023257D03*
X027572Y023257D03*
X027375Y023257D03*
X027178Y023257D03*
X026982Y023257D03*
X026785Y023257D03*
X026588Y023257D03*
X026391Y023257D03*
X026194Y023257D03*
X025997Y023257D03*
X025800Y023257D03*
X025604Y023257D03*
X025407Y023257D03*
X025210Y023257D03*
X025013Y023257D03*
X024816Y023257D03*
X024619Y023257D03*
X024423Y023257D03*
X024226Y023257D03*
X024029Y023257D03*
X023832Y023257D03*
X023635Y023257D03*
X023438Y023257D03*
X023241Y023257D03*
X023045Y023257D03*
X022848Y023257D03*
X022651Y023257D03*
X022454Y023257D03*
X022257Y023257D03*
X022060Y023257D03*
D11*
X021056Y022253D03*
X021056Y022056D03*
X021056Y021859D03*
X021056Y021662D03*
X021056Y021466D03*
X021056Y021269D03*
X021056Y021072D03*
X021056Y020875D03*
X021056Y020678D03*
X021056Y020481D03*
X021056Y020284D03*
X021056Y020088D03*
X021056Y019891D03*
X021056Y019694D03*
X021056Y019497D03*
X021056Y019300D03*
X021056Y019103D03*
X021056Y018907D03*
X021056Y018710D03*
X021056Y018513D03*
X021056Y018316D03*
X021056Y018119D03*
X021056Y017922D03*
X021056Y017725D03*
X021056Y017529D03*
X021056Y017332D03*
X021056Y017135D03*
X021056Y016938D03*
X021056Y016741D03*
X021056Y016544D03*
X021056Y016347D03*
X021056Y016151D03*
X021056Y015954D03*
X021056Y015757D03*
X021056Y015560D03*
X021056Y015363D03*
X021056Y015166D03*
X021056Y014970D03*
X021056Y014773D03*
X021056Y014576D03*
X021056Y014379D03*
X021056Y014182D03*
X021056Y013985D03*
X021056Y013788D03*
X021056Y013592D03*
X021056Y013395D03*
X021056Y013198D03*
X021056Y013001D03*
X021056Y012804D03*
X021056Y012607D03*
X021056Y012410D03*
X021056Y012214D03*
X033104Y012214D03*
X033104Y012410D03*
X033104Y012607D03*
X033104Y012804D03*
X033104Y013001D03*
X033104Y013198D03*
X033104Y013395D03*
X033104Y013592D03*
X033104Y013788D03*
X033104Y013985D03*
X033104Y014182D03*
X033104Y014379D03*
X033104Y014576D03*
X033104Y014773D03*
X033104Y014970D03*
X033104Y015166D03*
X033104Y015363D03*
X033104Y015560D03*
X033104Y015757D03*
X033104Y015954D03*
X033104Y016151D03*
X033104Y016347D03*
X033104Y016544D03*
X033104Y016741D03*
X033104Y016938D03*
X033104Y017135D03*
X033104Y017332D03*
X033104Y017529D03*
X033104Y017725D03*
X033104Y017922D03*
X033104Y018119D03*
X033104Y018316D03*
X033104Y018513D03*
X033104Y018710D03*
X033104Y018907D03*
X033104Y019103D03*
X033104Y019300D03*
X033104Y019497D03*
X033104Y019694D03*
X033104Y019891D03*
X033104Y020088D03*
X033104Y020284D03*
X033104Y020481D03*
X033104Y020678D03*
X033104Y020875D03*
X033104Y021072D03*
X033104Y021269D03*
X033104Y021466D03*
X033104Y021662D03*
X033104Y021859D03*
X033104Y022056D03*
X033104Y022253D03*
D12*
X039348Y022515D03*
X039348Y022948D03*
X039348Y023381D03*
X039348Y023814D03*
X039348Y024247D03*
X039348Y024680D03*
X039348Y025113D03*
X039348Y025546D03*
D13*
X039368Y026157D03*
X041061Y021757D03*
D14*
X039368Y022141D03*
D15*
X043502Y021757D03*
D16*
X045136Y021757D03*
D17*
X045313Y027072D03*
D18*
X019482Y027346D03*
X018958Y027346D03*
X018958Y028015D03*
X019482Y028015D03*
X029327Y007788D03*
X029996Y007788D03*
X031414Y007788D03*
X032083Y007788D03*
D19*
X032083Y009108D03*
X029327Y009108D03*
D20*
X030335Y005722D03*
X030335Y004265D03*
X027815Y004265D03*
X027815Y005722D03*
D21*
X034497Y009669D03*
X034497Y010417D03*
X035363Y010043D03*
D22*
X032405Y004713D03*
X031815Y004713D03*
X044110Y015023D03*
X044701Y015023D03*
D23*
X013375Y007972D03*
X013375Y010255D03*
D24*
X017612Y009213D03*
X017612Y008713D03*
X017612Y008213D03*
X017612Y007713D03*
X017612Y007213D03*
X019148Y007213D03*
X019148Y007713D03*
X019148Y008213D03*
X019148Y008713D03*
X019148Y009213D03*
D25*
X031920Y027946D03*
X032117Y027946D03*
X032314Y027946D03*
X032511Y027946D03*
X032708Y027946D03*
X032905Y027946D03*
X033102Y027946D03*
X033298Y027946D03*
X033495Y027946D03*
X033692Y027946D03*
X033889Y027946D03*
X034086Y027946D03*
X034283Y027946D03*
X034480Y027946D03*
X034676Y027946D03*
X034873Y027946D03*
X035070Y027946D03*
X035267Y027946D03*
X035464Y027946D03*
X035661Y027946D03*
X035857Y027946D03*
X036054Y027946D03*
X036251Y027946D03*
X036448Y027946D03*
X036645Y027946D03*
X036842Y027946D03*
X037039Y027946D03*
X037235Y027946D03*
X037432Y027946D03*
X037629Y027946D03*
X037826Y027946D03*
X038023Y027946D03*
X038220Y027946D03*
X038417Y027946D03*
X038613Y027946D03*
X038810Y027946D03*
X039007Y027946D03*
X039204Y027946D03*
X039401Y027946D03*
X039598Y027946D03*
D26*
X017595Y026534D03*
X017095Y026534D03*
X016595Y026534D03*
X016095Y026534D03*
X015595Y026534D03*
X015095Y026534D03*
X014595Y026534D03*
X014095Y026534D03*
X014095Y022873D03*
X014595Y022873D03*
X015095Y022873D03*
X015595Y022873D03*
X016095Y022873D03*
X016595Y022873D03*
X017095Y022873D03*
X017595Y022873D03*
D27*
X022345Y027423D03*
X022542Y027423D03*
X022739Y027423D03*
X022935Y027423D03*
X023132Y027423D03*
X023329Y027423D03*
X023526Y027423D03*
X023723Y027423D03*
X023920Y027423D03*
X024117Y027423D03*
X024313Y027423D03*
X024510Y027423D03*
X024707Y027423D03*
X024904Y027423D03*
X025101Y027423D03*
X025298Y027423D03*
X025494Y027423D03*
X025691Y027423D03*
X025888Y027423D03*
X026085Y027423D03*
X026282Y027423D03*
X026479Y027423D03*
X026676Y027423D03*
X026872Y027423D03*
X027069Y027423D03*
X027069Y028841D03*
X026872Y028841D03*
X026676Y028841D03*
X026479Y028841D03*
X026282Y028841D03*
X026085Y028841D03*
X025888Y028841D03*
X025691Y028841D03*
X025494Y028841D03*
X025298Y028841D03*
X025101Y028841D03*
X024904Y028841D03*
X024707Y028841D03*
X024510Y028841D03*
X024313Y028841D03*
X024117Y028841D03*
X023920Y028841D03*
X023723Y028841D03*
X023526Y028841D03*
X023329Y028841D03*
X023132Y028841D03*
X022935Y028841D03*
X022739Y028841D03*
X022542Y028841D03*
X022345Y028841D03*
D28*
X036720Y014043D03*
X036720Y013783D03*
X036720Y013533D03*
X036720Y013273D03*
X036720Y013023D03*
X036720Y012763D03*
X038440Y012763D03*
X038440Y013023D03*
X038440Y013273D03*
X038440Y013533D03*
X038440Y013783D03*
X038440Y014043D03*
D29*
X037580Y013403D03*
D30*
X040940Y017053D03*
X041130Y017053D03*
X041330Y017053D03*
X041530Y017053D03*
X041720Y017053D03*
X041720Y017793D03*
X041530Y017793D03*
X041330Y017793D03*
X041130Y017793D03*
X040940Y017793D03*
D31*
X041330Y017423D03*
D32*
X036280Y006556D03*
X035965Y006556D03*
X035650Y006556D03*
X035335Y006556D03*
X035020Y006556D03*
D33*
X033898Y006507D03*
X033898Y004361D03*
X037402Y004361D03*
X037402Y006507D03*
D34*
X034460Y011137D03*
X034460Y011649D03*
X035230Y013747D03*
X035730Y013747D03*
X035730Y014259D03*
X035230Y014259D03*
X040455Y017167D03*
X040455Y017679D03*
X042205Y017679D03*
X042205Y017167D03*
X041330Y015929D03*
X041330Y015417D03*
D35*
X041130Y018693D03*
X041530Y018693D03*
X042042Y018693D03*
X040618Y018693D03*
X035536Y013253D03*
X035024Y013253D03*
D36*
X042151Y013194D03*
X042151Y012407D03*
D37*
X044198Y011462D03*
X044198Y014139D03*
D38*
X040910Y010913D03*
X040170Y010913D03*
X040170Y009973D03*
X040540Y009973D03*
X040910Y009973D03*
D39*
X038663Y011203D03*
X036497Y011203D03*
D40*
X040330Y015122D03*
X040330Y016224D03*
X042330Y016224D03*
X042330Y015122D03*
D41*
X042780Y017124D03*
X042780Y017872D03*
X039880Y017872D03*
X039880Y017124D03*
D42*
X018011Y017255D03*
X018011Y017570D03*
X018011Y017885D03*
X018011Y018200D03*
X018011Y018515D03*
X018011Y018830D03*
X018011Y019144D03*
X018011Y019459D03*
X018011Y019774D03*
X018011Y020089D03*
X018011Y020404D03*
X018011Y020719D03*
X018011Y021034D03*
X013416Y021034D03*
X013416Y020719D03*
X013416Y020404D03*
X013416Y020089D03*
X013416Y019774D03*
X013416Y019459D03*
X013416Y019144D03*
X013416Y018830D03*
X013416Y018515D03*
X013416Y018200D03*
X013416Y017885D03*
X013416Y017570D03*
X013416Y017255D03*
X013416Y016940D03*
X013416Y016625D03*
X013416Y016310D03*
X013416Y015995D03*
X013416Y015680D03*
X013416Y015365D03*
X013416Y015050D03*
X013416Y014735D03*
X013416Y014420D03*
X013416Y014105D03*
X013416Y013790D03*
X013416Y013475D03*
X013416Y013160D03*
X013416Y012845D03*
X018011Y012845D03*
X018011Y013160D03*
X018011Y013475D03*
X018011Y013790D03*
X018011Y014105D03*
X018011Y014420D03*
X018011Y014735D03*
X018011Y015050D03*
X018011Y015365D03*
X018011Y015680D03*
X018011Y015995D03*
X018011Y016310D03*
X018011Y016625D03*
X018011Y016940D03*
D43*
X036105Y009473D03*
X036775Y009473D03*
M02*
