G75*
G70*
%OFA0B0*%
%FSLAX24Y24*%
%IPPOS*%
%LPD*%
%AMOC8*
5,1,8,0,0,1.08239X$1,22.5*
%
%ADD10C,0.0050*%
%ADD11C,0.0000*%
%ADD12C,0.0100*%
%ADD13C,0.0160*%
%ADD14R,0.0100X0.0250*%
%ADD15R,0.0250X0.0100*%
%ADD16C,0.0040*%
%ADD17C,0.0080*%
%ADD18C,0.0060*%
%ADD19R,0.0098X0.0098*%
%ADD20C,0.0020*%
%ADD21C,0.0250*%
%ADD22C,0.0200*%
%ADD23C,0.0030*%
%ADD24C,0.0098*%
%ADD25C,0.0197*%
D10*
X017711Y006963D02*
X017711Y009463D01*
X019049Y009463D01*
X019049Y006963D01*
X017711Y006963D01*
X025779Y006368D02*
X025854Y006293D01*
X025929Y006293D01*
X026004Y006368D01*
X026004Y006744D01*
X025929Y006744D02*
X026079Y006744D01*
X026239Y006594D02*
X026389Y006744D01*
X026389Y006293D01*
X026239Y006293D02*
X026539Y006293D01*
X026700Y006293D02*
X027000Y006293D01*
X026850Y006293D02*
X026850Y006744D01*
X026700Y006594D01*
X028051Y006017D02*
X030099Y006017D01*
X030099Y003970D01*
X028051Y003970D01*
X028051Y006017D01*
X028642Y004993D02*
X028644Y005034D01*
X028650Y005075D01*
X028660Y005115D01*
X028673Y005154D01*
X028690Y005191D01*
X028711Y005227D01*
X028735Y005261D01*
X028762Y005292D01*
X028791Y005320D01*
X028824Y005346D01*
X028858Y005368D01*
X028895Y005387D01*
X028933Y005402D01*
X028973Y005414D01*
X029013Y005422D01*
X029054Y005426D01*
X029096Y005426D01*
X029137Y005422D01*
X029177Y005414D01*
X029217Y005402D01*
X029255Y005387D01*
X029291Y005368D01*
X029326Y005346D01*
X029359Y005320D01*
X029388Y005292D01*
X029415Y005261D01*
X029439Y005227D01*
X029460Y005191D01*
X029477Y005154D01*
X029490Y005115D01*
X029500Y005075D01*
X029506Y005034D01*
X029508Y004993D01*
X029506Y004952D01*
X029500Y004911D01*
X029490Y004871D01*
X029477Y004832D01*
X029460Y004795D01*
X029439Y004759D01*
X029415Y004725D01*
X029388Y004694D01*
X029359Y004666D01*
X029326Y004640D01*
X029292Y004618D01*
X029255Y004599D01*
X029217Y004584D01*
X029177Y004572D01*
X029137Y004564D01*
X029096Y004560D01*
X029054Y004560D01*
X029013Y004564D01*
X028973Y004572D01*
X028933Y004584D01*
X028895Y004599D01*
X028859Y004618D01*
X028824Y004640D01*
X028791Y004666D01*
X028762Y004694D01*
X028735Y004725D01*
X028711Y004759D01*
X028690Y004795D01*
X028673Y004832D01*
X028660Y004871D01*
X028650Y004911D01*
X028644Y004952D01*
X028642Y004993D01*
X038930Y003215D02*
X038930Y008136D01*
X041882Y008136D01*
X041882Y003215D01*
X038930Y003215D01*
X044128Y007120D02*
X045860Y007120D01*
X045860Y008813D01*
X047435Y008813D01*
X047435Y009601D01*
X045860Y009601D01*
X045860Y010506D01*
X044128Y010506D01*
X044128Y007120D01*
X045860Y008813D02*
X045860Y009601D01*
X039765Y010158D02*
X039765Y010308D01*
X039690Y010384D01*
X039315Y010384D01*
X039390Y010544D02*
X039315Y010619D01*
X039315Y010769D01*
X039390Y010844D01*
X039465Y010844D01*
X039765Y010544D01*
X039765Y010844D01*
X039765Y010158D02*
X039690Y010083D01*
X039315Y010083D01*
X037941Y014438D02*
X037640Y014438D01*
X037791Y014438D02*
X037791Y014889D01*
X037640Y014739D01*
X037480Y014889D02*
X037480Y014513D01*
X037405Y014438D01*
X037255Y014438D01*
X037180Y014513D01*
X037180Y014889D01*
X038180Y016723D02*
X040430Y016723D01*
X040430Y016923D01*
X040380Y016823D01*
X040480Y016823D01*
X040430Y016923D01*
X040984Y016548D02*
X041059Y016623D01*
X041210Y016623D01*
X041285Y016548D01*
X041445Y016548D02*
X041445Y016173D01*
X041285Y016248D02*
X041210Y016173D01*
X041059Y016173D01*
X040984Y016248D01*
X040984Y016323D01*
X041059Y016398D01*
X040984Y016473D01*
X040984Y016548D01*
X041059Y016398D02*
X041134Y016398D01*
X041445Y016548D02*
X041520Y016623D01*
X041670Y016623D01*
X041745Y016548D01*
X041745Y016173D01*
X042230Y016723D02*
X042230Y016923D01*
X042180Y016823D01*
X042280Y016823D01*
X042230Y016923D01*
X042230Y016723D02*
X044630Y016723D01*
X045549Y021747D02*
X039270Y021747D01*
X039270Y027062D01*
X045648Y027062D01*
X045648Y022338D01*
X045549Y022239D01*
X045549Y021747D01*
X040543Y028064D02*
X040543Y029718D01*
X040779Y029718D01*
X040779Y030033D01*
X030739Y030033D01*
X030739Y029718D01*
X030976Y029718D01*
X030976Y028064D01*
X040543Y028064D01*
X027601Y027384D02*
X021813Y027384D01*
X021813Y028880D01*
X027601Y028880D01*
X027601Y027384D01*
X017873Y026180D02*
X017873Y023227D01*
X013817Y023227D01*
X013817Y026180D01*
X017873Y026180D01*
D11*
X012382Y028784D02*
X012382Y005162D01*
X012384Y005068D01*
X012391Y004975D01*
X012402Y004882D01*
X012418Y004789D01*
X012438Y004698D01*
X012462Y004607D01*
X012490Y004518D01*
X012523Y004430D01*
X012560Y004344D01*
X012601Y004260D01*
X012646Y004178D01*
X012695Y004097D01*
X012747Y004020D01*
X012803Y003945D01*
X012863Y003873D01*
X012926Y003803D01*
X012992Y003737D01*
X013062Y003674D01*
X013134Y003614D01*
X013209Y003558D01*
X013286Y003506D01*
X013366Y003457D01*
X013449Y003412D01*
X013533Y003371D01*
X013619Y003334D01*
X013707Y003301D01*
X013796Y003273D01*
X013887Y003249D01*
X013978Y003229D01*
X014071Y003213D01*
X014164Y003202D01*
X014257Y003195D01*
X014351Y003193D01*
X014351Y003194D02*
X043878Y003194D01*
X043878Y003193D02*
X043972Y003195D01*
X044065Y003202D01*
X044158Y003213D01*
X044251Y003229D01*
X044342Y003249D01*
X044433Y003273D01*
X044522Y003301D01*
X044610Y003334D01*
X044696Y003371D01*
X044780Y003412D01*
X044863Y003457D01*
X044943Y003506D01*
X045020Y003558D01*
X045095Y003614D01*
X045167Y003674D01*
X045237Y003737D01*
X045303Y003803D01*
X045366Y003873D01*
X045426Y003945D01*
X045482Y004020D01*
X045534Y004097D01*
X045583Y004178D01*
X045628Y004260D01*
X045669Y004344D01*
X045706Y004430D01*
X045739Y004518D01*
X045767Y004607D01*
X045791Y004698D01*
X045811Y004789D01*
X045827Y004882D01*
X045838Y004975D01*
X045845Y005068D01*
X045847Y005162D01*
X045847Y028784D01*
X045845Y028878D01*
X045838Y028971D01*
X045827Y029064D01*
X045811Y029157D01*
X045791Y029248D01*
X045767Y029339D01*
X045739Y029428D01*
X045706Y029516D01*
X045669Y029602D01*
X045628Y029686D01*
X045583Y029769D01*
X045534Y029849D01*
X045482Y029926D01*
X045426Y030001D01*
X045366Y030073D01*
X045303Y030143D01*
X045237Y030209D01*
X045167Y030272D01*
X045095Y030332D01*
X045020Y030388D01*
X044943Y030440D01*
X044863Y030489D01*
X044780Y030534D01*
X044696Y030575D01*
X044610Y030612D01*
X044522Y030645D01*
X044433Y030673D01*
X044342Y030697D01*
X044251Y030717D01*
X044158Y030733D01*
X044065Y030744D01*
X043972Y030751D01*
X043878Y030753D01*
X014351Y030753D01*
X014257Y030751D01*
X014164Y030744D01*
X014071Y030733D01*
X013978Y030717D01*
X013887Y030697D01*
X013796Y030673D01*
X013707Y030645D01*
X013619Y030612D01*
X013533Y030575D01*
X013449Y030534D01*
X013367Y030489D01*
X013286Y030440D01*
X013209Y030388D01*
X013134Y030332D01*
X013062Y030272D01*
X012992Y030209D01*
X012926Y030143D01*
X012863Y030073D01*
X012803Y030001D01*
X012747Y029926D01*
X012695Y029849D01*
X012646Y029769D01*
X012601Y029686D01*
X012560Y029602D01*
X012523Y029516D01*
X012490Y029428D01*
X012462Y029339D01*
X012438Y029248D01*
X012418Y029157D01*
X012402Y029064D01*
X012391Y028971D01*
X012384Y028878D01*
X012382Y028784D01*
X021813Y028722D02*
X021815Y028743D01*
X021821Y028763D01*
X021830Y028783D01*
X021842Y028800D01*
X021857Y028814D01*
X021875Y028826D01*
X021895Y028834D01*
X021915Y028839D01*
X021936Y028840D01*
X021957Y028837D01*
X021977Y028831D01*
X021996Y028820D01*
X022013Y028807D01*
X022026Y028791D01*
X022037Y028773D01*
X022045Y028753D01*
X022049Y028733D01*
X022049Y028711D01*
X022045Y028691D01*
X022037Y028671D01*
X022026Y028653D01*
X022013Y028637D01*
X021996Y028624D01*
X021977Y028613D01*
X021957Y028607D01*
X021936Y028604D01*
X021915Y028605D01*
X021895Y028610D01*
X021875Y028618D01*
X021857Y028630D01*
X021842Y028644D01*
X021830Y028661D01*
X021821Y028681D01*
X021815Y028701D01*
X021813Y028722D01*
X027365Y028722D02*
X027367Y028743D01*
X027373Y028763D01*
X027382Y028783D01*
X027394Y028800D01*
X027409Y028814D01*
X027427Y028826D01*
X027447Y028834D01*
X027467Y028839D01*
X027488Y028840D01*
X027509Y028837D01*
X027529Y028831D01*
X027548Y028820D01*
X027565Y028807D01*
X027578Y028791D01*
X027589Y028773D01*
X027597Y028753D01*
X027601Y028733D01*
X027601Y028711D01*
X027597Y028691D01*
X027589Y028671D01*
X027578Y028653D01*
X027565Y028637D01*
X027548Y028624D01*
X027529Y028613D01*
X027509Y028607D01*
X027488Y028604D01*
X027467Y028605D01*
X027447Y028610D01*
X027427Y028618D01*
X027409Y028630D01*
X027394Y028644D01*
X027382Y028661D01*
X027373Y028681D01*
X027367Y028701D01*
X027365Y028722D01*
X039950Y010563D02*
X039971Y010561D01*
X039991Y010556D01*
X040010Y010547D01*
X040027Y010535D01*
X040042Y010520D01*
X040054Y010503D01*
X040063Y010484D01*
X040068Y010464D01*
X040070Y010443D01*
X040068Y010422D01*
X040063Y010402D01*
X040054Y010383D01*
X040042Y010366D01*
X040027Y010351D01*
X040010Y010339D01*
X039991Y010330D01*
X039971Y010325D01*
X039950Y010323D01*
X036319Y005495D02*
X036321Y005522D01*
X036327Y005549D01*
X036336Y005575D01*
X036349Y005599D01*
X036365Y005622D01*
X036384Y005641D01*
X036406Y005658D01*
X036430Y005672D01*
X036455Y005682D01*
X036482Y005689D01*
X036509Y005692D01*
X036537Y005691D01*
X036564Y005686D01*
X036590Y005678D01*
X036614Y005666D01*
X036637Y005650D01*
X036658Y005632D01*
X036675Y005611D01*
X036690Y005587D01*
X036701Y005562D01*
X036709Y005536D01*
X036713Y005509D01*
X036713Y005481D01*
X036709Y005454D01*
X036701Y005428D01*
X036690Y005403D01*
X036675Y005379D01*
X036658Y005358D01*
X036637Y005340D01*
X036615Y005324D01*
X036590Y005312D01*
X036564Y005304D01*
X036537Y005299D01*
X036509Y005298D01*
X036482Y005301D01*
X036455Y005308D01*
X036430Y005318D01*
X036406Y005332D01*
X036384Y005349D01*
X036365Y005368D01*
X036349Y005391D01*
X036336Y005415D01*
X036327Y005441D01*
X036321Y005468D01*
X036319Y005495D01*
X034587Y005495D02*
X034589Y005522D01*
X034595Y005549D01*
X034604Y005575D01*
X034617Y005599D01*
X034633Y005622D01*
X034652Y005641D01*
X034674Y005658D01*
X034698Y005672D01*
X034723Y005682D01*
X034750Y005689D01*
X034777Y005692D01*
X034805Y005691D01*
X034832Y005686D01*
X034858Y005678D01*
X034882Y005666D01*
X034905Y005650D01*
X034926Y005632D01*
X034943Y005611D01*
X034958Y005587D01*
X034969Y005562D01*
X034977Y005536D01*
X034981Y005509D01*
X034981Y005481D01*
X034977Y005454D01*
X034969Y005428D01*
X034958Y005403D01*
X034943Y005379D01*
X034926Y005358D01*
X034905Y005340D01*
X034883Y005324D01*
X034858Y005312D01*
X034832Y005304D01*
X034805Y005299D01*
X034777Y005298D01*
X034750Y005301D01*
X034723Y005308D01*
X034698Y005318D01*
X034674Y005332D01*
X034652Y005349D01*
X034633Y005368D01*
X034617Y005391D01*
X034604Y005415D01*
X034595Y005441D01*
X034589Y005468D01*
X034587Y005495D01*
X039698Y004986D02*
X039700Y005020D01*
X039706Y005054D01*
X039716Y005087D01*
X039729Y005118D01*
X039747Y005148D01*
X039767Y005176D01*
X039791Y005201D01*
X039817Y005223D01*
X039845Y005241D01*
X039876Y005257D01*
X039908Y005269D01*
X039942Y005277D01*
X039976Y005281D01*
X040010Y005281D01*
X040044Y005277D01*
X040078Y005269D01*
X040110Y005257D01*
X040140Y005241D01*
X040169Y005223D01*
X040195Y005201D01*
X040219Y005176D01*
X040239Y005148D01*
X040257Y005118D01*
X040270Y005087D01*
X040280Y005054D01*
X040286Y005020D01*
X040288Y004986D01*
X040286Y004952D01*
X040280Y004918D01*
X040270Y004885D01*
X040257Y004854D01*
X040239Y004824D01*
X040219Y004796D01*
X040195Y004771D01*
X040169Y004749D01*
X040141Y004731D01*
X040110Y004715D01*
X040078Y004703D01*
X040044Y004695D01*
X040010Y004691D01*
X039976Y004691D01*
X039942Y004695D01*
X039908Y004703D01*
X039876Y004715D01*
X039845Y004731D01*
X039817Y004749D01*
X039791Y004771D01*
X039767Y004796D01*
X039747Y004824D01*
X039729Y004854D01*
X039716Y004885D01*
X039706Y004918D01*
X039700Y004952D01*
X039698Y004986D01*
D12*
X037945Y005003D02*
X037945Y003720D01*
X037363Y003720D01*
X037363Y002995D01*
X033937Y002995D01*
X033937Y003720D01*
X033355Y003720D01*
X033355Y005003D01*
X033937Y005003D01*
X033937Y005865D01*
X033355Y005865D01*
X033355Y007149D01*
X037945Y007149D01*
X037945Y005865D01*
X037363Y005865D01*
X037363Y005003D01*
X037945Y005003D01*
X032592Y011721D02*
X021962Y011721D01*
X021568Y012115D01*
X021568Y022745D01*
X032592Y022745D01*
X032592Y011721D01*
X021605Y011052D02*
X021607Y011069D01*
X021612Y011086D01*
X021622Y011101D01*
X021634Y011114D01*
X021648Y011124D01*
X021664Y011130D01*
X021682Y011133D01*
X021699Y011132D01*
X021716Y011127D01*
X021731Y011119D01*
X021745Y011108D01*
X021755Y011094D01*
X021763Y011078D01*
X021767Y011061D01*
X021767Y011043D01*
X021763Y011026D01*
X021755Y011010D01*
X021745Y010996D01*
X021731Y010985D01*
X021716Y010977D01*
X021699Y010972D01*
X021682Y010971D01*
X021664Y010974D01*
X021648Y010980D01*
X021634Y010990D01*
X021622Y011003D01*
X021612Y011018D01*
X021607Y011035D01*
X021605Y011052D01*
D13*
X021962Y012233D02*
X021964Y012254D01*
X021970Y012274D01*
X021979Y012294D01*
X021991Y012311D01*
X022006Y012325D01*
X022024Y012337D01*
X022044Y012345D01*
X022064Y012350D01*
X022085Y012351D01*
X022106Y012348D01*
X022126Y012342D01*
X022145Y012331D01*
X022162Y012318D01*
X022175Y012302D01*
X022186Y012284D01*
X022194Y012264D01*
X022198Y012244D01*
X022198Y012222D01*
X022194Y012202D01*
X022186Y012182D01*
X022175Y012164D01*
X022162Y012148D01*
X022145Y012135D01*
X022126Y012124D01*
X022106Y012118D01*
X022085Y012115D01*
X022064Y012116D01*
X022044Y012121D01*
X022024Y012129D01*
X022006Y012141D01*
X021991Y012155D01*
X021979Y012172D01*
X021970Y012192D01*
X021964Y012212D01*
X021962Y012233D01*
D14*
X022060Y011558D03*
X022257Y011558D03*
X022454Y011558D03*
X022651Y011558D03*
X022847Y011558D03*
X023044Y011558D03*
X023241Y011558D03*
X023438Y011558D03*
X023635Y011558D03*
X023832Y011558D03*
X024029Y011558D03*
X024225Y011558D03*
X024422Y011558D03*
X024619Y011558D03*
X024816Y011558D03*
X025013Y011558D03*
X025210Y011558D03*
X025406Y011558D03*
X025603Y011558D03*
X025800Y011558D03*
X025997Y011558D03*
X026194Y011558D03*
X026391Y011558D03*
X026588Y011558D03*
X026784Y011558D03*
X026981Y011558D03*
X027178Y011558D03*
X027375Y011558D03*
X027572Y011558D03*
X027769Y011558D03*
X027966Y011558D03*
X028162Y011558D03*
X028359Y011558D03*
X028556Y011558D03*
X028753Y011558D03*
X028950Y011558D03*
X029147Y011558D03*
X029343Y011558D03*
X029540Y011558D03*
X029737Y011558D03*
X029934Y011558D03*
X030131Y011558D03*
X030328Y011558D03*
X030525Y011558D03*
X030721Y011558D03*
X030918Y011558D03*
X031115Y011558D03*
X031312Y011558D03*
X031509Y011558D03*
X031706Y011558D03*
X031903Y011558D03*
X032099Y011558D03*
X032100Y022908D03*
X031903Y022908D03*
X031706Y022908D03*
X031509Y022908D03*
X031313Y022908D03*
X031116Y022908D03*
X030919Y022908D03*
X030722Y022908D03*
X030525Y022908D03*
X030328Y022908D03*
X030131Y022908D03*
X029935Y022908D03*
X029738Y022908D03*
X029541Y022908D03*
X029344Y022908D03*
X029147Y022908D03*
X028950Y022908D03*
X028754Y022908D03*
X028557Y022908D03*
X028360Y022908D03*
X028163Y022908D03*
X027966Y022908D03*
X027769Y022908D03*
X027572Y022908D03*
X027376Y022908D03*
X027179Y022908D03*
X026982Y022908D03*
X026785Y022908D03*
X026588Y022908D03*
X026391Y022908D03*
X026194Y022908D03*
X025998Y022908D03*
X025801Y022908D03*
X025604Y022908D03*
X025407Y022908D03*
X025210Y022908D03*
X025013Y022908D03*
X024817Y022908D03*
X024620Y022908D03*
X024423Y022908D03*
X024226Y022908D03*
X024029Y022908D03*
X023832Y022908D03*
X023635Y022908D03*
X023439Y022908D03*
X023242Y022908D03*
X023045Y022908D03*
X022848Y022908D03*
X022651Y022908D03*
X022454Y022908D03*
X022257Y022908D03*
X022061Y022908D03*
D15*
X021405Y022253D03*
X021405Y022056D03*
X021405Y021860D03*
X021405Y021663D03*
X021405Y021466D03*
X021405Y021269D03*
X021405Y021072D03*
X021405Y020875D03*
X021405Y020679D03*
X021405Y020482D03*
X021405Y020285D03*
X021405Y020088D03*
X021405Y019891D03*
X021405Y019694D03*
X021405Y019497D03*
X021405Y019301D03*
X021405Y019104D03*
X021405Y018907D03*
X021405Y018710D03*
X021405Y018513D03*
X021405Y018316D03*
X021405Y018119D03*
X021405Y017923D03*
X021405Y017726D03*
X021405Y017529D03*
X021405Y017332D03*
X021405Y017135D03*
X021405Y016938D03*
X021405Y016741D03*
X021405Y016545D03*
X021405Y016348D03*
X021405Y016151D03*
X021405Y015954D03*
X021405Y015757D03*
X021405Y015560D03*
X021405Y015364D03*
X021405Y015167D03*
X021405Y014970D03*
X021405Y014773D03*
X021405Y014576D03*
X021405Y014379D03*
X021405Y014182D03*
X021405Y013986D03*
X021405Y013789D03*
X021405Y013592D03*
X021405Y013395D03*
X021405Y013198D03*
X021405Y013001D03*
X021405Y012804D03*
X021405Y012608D03*
X021405Y012411D03*
X021405Y012214D03*
X032755Y012213D03*
X032755Y012410D03*
X032755Y012607D03*
X032755Y012804D03*
X032755Y013001D03*
X032755Y013198D03*
X032755Y013394D03*
X032755Y013591D03*
X032755Y013788D03*
X032755Y013985D03*
X032755Y014182D03*
X032755Y014379D03*
X032755Y014576D03*
X032755Y014772D03*
X032755Y014969D03*
X032755Y015166D03*
X032755Y015363D03*
X032755Y015560D03*
X032755Y015757D03*
X032755Y015953D03*
X032755Y016150D03*
X032755Y016347D03*
X032755Y016544D03*
X032755Y016741D03*
X032755Y016938D03*
X032755Y017135D03*
X032755Y017331D03*
X032755Y017528D03*
X032755Y017725D03*
X032755Y017922D03*
X032755Y018119D03*
X032755Y018316D03*
X032755Y018513D03*
X032755Y018709D03*
X032755Y018906D03*
X032755Y019103D03*
X032755Y019300D03*
X032755Y019497D03*
X032755Y019694D03*
X032755Y019890D03*
X032755Y020087D03*
X032755Y020284D03*
X032755Y020481D03*
X032755Y020678D03*
X032755Y020875D03*
X032755Y021072D03*
X032755Y021268D03*
X032755Y021465D03*
X032755Y021662D03*
X032755Y021859D03*
X032755Y022056D03*
X032755Y022253D03*
D16*
X029620Y018424D02*
X029697Y018347D01*
X029697Y018270D01*
X029620Y018194D01*
X029466Y018194D01*
X029390Y018270D01*
X029390Y018347D01*
X029466Y018424D01*
X029620Y018424D01*
X029620Y018194D02*
X029697Y018117D01*
X029697Y018040D01*
X029620Y017963D01*
X029466Y017963D01*
X029390Y018040D01*
X029390Y018117D01*
X029466Y018194D01*
X029236Y018347D02*
X029236Y018040D01*
X029159Y017963D01*
X029006Y017963D01*
X028929Y018040D01*
X029236Y018347D01*
X029159Y018424D01*
X029006Y018424D01*
X028929Y018347D01*
X028929Y018040D01*
X028776Y017963D02*
X028469Y017963D01*
X028776Y018270D01*
X028776Y018347D01*
X028699Y018424D01*
X028546Y018424D01*
X028469Y018347D01*
X028315Y018194D02*
X028008Y018194D01*
X027855Y018424D02*
X027548Y017963D01*
X027395Y018040D02*
X027318Y017963D01*
X027164Y017963D01*
X027088Y018040D01*
X027088Y018117D01*
X027164Y018194D01*
X027318Y018194D01*
X027395Y018117D01*
X027395Y018040D01*
X027318Y018194D02*
X027395Y018270D01*
X027395Y018347D01*
X027318Y018424D01*
X027164Y018424D01*
X027088Y018347D01*
X027088Y018270D01*
X027164Y018194D01*
X026934Y017887D02*
X026627Y017887D01*
X026474Y017963D02*
X026167Y018424D01*
X026013Y018424D02*
X026013Y018347D01*
X025706Y018040D01*
X025706Y017963D01*
X025553Y018347D02*
X025246Y018040D01*
X025246Y017963D01*
X025093Y017963D02*
X024786Y017963D01*
X024939Y017963D02*
X024939Y018424D01*
X024786Y018270D01*
X024632Y018347D02*
X024555Y018424D01*
X024402Y018424D01*
X024325Y018347D01*
X024325Y018040D01*
X024402Y017963D01*
X024555Y017963D01*
X024632Y018040D01*
X024172Y018194D02*
X024172Y018347D01*
X024095Y018424D01*
X023865Y018424D01*
X023865Y017963D01*
X023711Y017963D02*
X023404Y017963D01*
X023404Y018424D01*
X023865Y018117D02*
X024095Y018117D01*
X024172Y018194D01*
X025246Y018424D02*
X025553Y018424D01*
X025553Y018347D01*
X025706Y018424D02*
X026013Y018424D01*
X026474Y018424D02*
X026167Y017963D01*
X027548Y018424D02*
X027855Y017963D01*
X034900Y015420D02*
X034900Y015113D01*
X035130Y015113D01*
X035053Y015266D01*
X035053Y015343D01*
X035130Y015420D01*
X035283Y015420D01*
X035360Y015343D01*
X035360Y015190D01*
X035283Y015113D01*
X035360Y014959D02*
X035207Y014806D01*
X035207Y014883D02*
X035207Y014653D01*
X035360Y014653D02*
X034900Y014653D01*
X034900Y014883D01*
X034976Y014959D01*
X035130Y014959D01*
X035207Y014883D01*
X035600Y014883D02*
X035600Y014729D01*
X035676Y014653D01*
X035983Y014653D01*
X036060Y014729D01*
X036060Y014883D01*
X035983Y014959D01*
X036060Y015113D02*
X035753Y015420D01*
X035676Y015420D01*
X035600Y015343D01*
X035600Y015190D01*
X035676Y015113D01*
X035676Y014959D02*
X035600Y014883D01*
X036060Y015113D02*
X036060Y015420D01*
X038204Y016168D02*
X038204Y016629D01*
X038434Y016629D01*
X038511Y016552D01*
X038511Y016399D01*
X038434Y016322D01*
X038204Y016322D01*
X038358Y016322D02*
X038511Y016168D01*
X038665Y016168D02*
X038665Y016245D01*
X038972Y016552D01*
X038972Y016629D01*
X038665Y016629D01*
X039051Y017068D02*
X039358Y017068D01*
X039435Y017145D01*
X039435Y017299D01*
X039358Y017375D01*
X039435Y017529D02*
X039435Y017836D01*
X039435Y017989D02*
X039435Y018296D01*
X039435Y018143D02*
X038975Y018143D01*
X039128Y017989D01*
X038975Y017682D02*
X039435Y017682D01*
X039128Y017529D02*
X038975Y017682D01*
X039051Y017375D02*
X038975Y017299D01*
X038975Y017145D01*
X039051Y017068D01*
X039301Y016086D02*
X039378Y016086D01*
X039455Y016009D01*
X039532Y016086D01*
X039608Y016086D01*
X039685Y016009D01*
X039685Y015855D01*
X039608Y015779D01*
X039685Y015625D02*
X039685Y015318D01*
X039225Y015318D01*
X039301Y015779D02*
X039225Y015855D01*
X039225Y016009D01*
X039301Y016086D01*
X039455Y016009D02*
X039455Y015932D01*
X041100Y014963D02*
X041176Y015040D01*
X041483Y014733D01*
X041560Y014810D01*
X041560Y014963D01*
X041483Y015040D01*
X041176Y015040D01*
X041100Y014963D02*
X041100Y014810D01*
X041176Y014733D01*
X041483Y014733D01*
X041560Y014579D02*
X041560Y014273D01*
X041560Y014426D02*
X041100Y014426D01*
X041253Y014273D01*
X041176Y014119D02*
X041100Y014042D01*
X041100Y013889D01*
X041176Y013812D01*
X041483Y013812D01*
X041560Y013889D01*
X041560Y014042D01*
X041483Y014119D01*
X042975Y015318D02*
X043435Y015318D01*
X043435Y015625D01*
X043435Y015779D02*
X043128Y016086D01*
X043051Y016086D01*
X042975Y016009D01*
X042975Y015855D01*
X043051Y015779D01*
X043435Y015779D02*
X043435Y016086D01*
X043754Y016168D02*
X043754Y016629D01*
X043984Y016629D01*
X044061Y016552D01*
X044061Y016399D01*
X043984Y016322D01*
X043754Y016322D01*
X043908Y016322D02*
X044061Y016168D01*
X044215Y016245D02*
X044291Y016168D01*
X044445Y016168D01*
X044522Y016245D01*
X044522Y016322D01*
X044445Y016399D01*
X044215Y016399D01*
X044215Y016245D01*
X044215Y016399D02*
X044368Y016552D01*
X044522Y016629D01*
X044504Y015854D02*
X044504Y015393D01*
X044351Y015470D02*
X044274Y015393D01*
X044121Y015393D01*
X044044Y015470D01*
X044044Y015777D01*
X044121Y015854D01*
X044274Y015854D01*
X044351Y015777D01*
X044504Y015624D02*
X044811Y015624D01*
X044965Y015777D02*
X044965Y015470D01*
X045042Y015393D01*
X045195Y015393D01*
X045272Y015470D01*
X045272Y015624D01*
X045118Y015624D01*
X044965Y015777D02*
X045042Y015854D01*
X045195Y015854D01*
X045272Y015777D01*
X044811Y015854D02*
X044811Y015393D01*
X043558Y017043D02*
X043635Y017120D01*
X043635Y017274D01*
X043558Y017350D01*
X043558Y017504D02*
X043635Y017580D01*
X043635Y017734D01*
X043558Y017811D01*
X043251Y017811D01*
X043175Y017734D01*
X043175Y017580D01*
X043251Y017504D01*
X043328Y017504D01*
X043405Y017580D01*
X043405Y017811D01*
X043251Y017350D02*
X043175Y017274D01*
X043175Y017120D01*
X043251Y017043D01*
X043558Y017043D01*
X043066Y018463D02*
X042913Y018463D01*
X042836Y018540D01*
X042836Y018617D01*
X042913Y018694D01*
X043066Y018694D01*
X043143Y018617D01*
X043143Y018540D01*
X043066Y018463D01*
X043066Y018694D02*
X043143Y018770D01*
X043143Y018847D01*
X043066Y018924D01*
X042913Y018924D01*
X042836Y018847D01*
X042836Y018770D01*
X042913Y018694D01*
X042683Y018694D02*
X042606Y018617D01*
X042376Y018617D01*
X042529Y018617D02*
X042683Y018463D01*
X042683Y018694D02*
X042683Y018847D01*
X042606Y018924D01*
X042376Y018924D01*
X042376Y018463D01*
X040191Y018540D02*
X040191Y018847D01*
X040115Y018924D01*
X039961Y018924D01*
X039884Y018847D01*
X039884Y018770D01*
X039961Y018694D01*
X040191Y018694D01*
X040191Y018540D02*
X040115Y018463D01*
X039961Y018463D01*
X039884Y018540D01*
X039731Y018463D02*
X039578Y018617D01*
X039654Y018617D02*
X039424Y018617D01*
X039424Y018463D02*
X039424Y018924D01*
X039654Y018924D01*
X039731Y018847D01*
X039731Y018694D01*
X039654Y018617D01*
X040485Y020619D02*
X040485Y020772D01*
X040485Y020696D02*
X040868Y020696D01*
X040945Y020619D01*
X040945Y020542D01*
X040868Y020465D01*
X040715Y020926D02*
X040715Y021233D01*
X040945Y021156D02*
X040485Y021156D01*
X040715Y020926D01*
X042234Y022935D02*
X042388Y023088D01*
X042234Y023241D01*
X042695Y023241D01*
X042695Y023395D02*
X042695Y023548D01*
X042695Y023472D02*
X042388Y023472D01*
X042388Y023395D01*
X042234Y023472D02*
X042157Y023472D01*
X042464Y023702D02*
X042388Y023779D01*
X042388Y024009D01*
X042388Y024162D02*
X042695Y024162D01*
X042695Y024009D02*
X042695Y023779D01*
X042618Y023702D01*
X042464Y023702D01*
X042541Y024162D02*
X042388Y024316D01*
X042388Y024392D01*
X042464Y024546D02*
X042618Y024546D01*
X042695Y024623D01*
X042695Y024776D01*
X042618Y024853D01*
X042464Y024853D01*
X042388Y024776D01*
X042388Y024623D01*
X042464Y024546D01*
X042388Y025467D02*
X042464Y025543D01*
X042464Y025697D01*
X042541Y025774D01*
X042618Y025774D01*
X042695Y025697D01*
X042695Y025543D01*
X042618Y025467D01*
X042388Y025467D02*
X042311Y025467D01*
X042234Y025543D01*
X042234Y025697D01*
X042311Y025774D01*
X042234Y025927D02*
X042234Y026157D01*
X042311Y026234D01*
X042618Y026234D01*
X042695Y026157D01*
X042695Y025927D01*
X042234Y025927D01*
X042234Y022935D02*
X042695Y022935D01*
X031744Y027541D02*
X031667Y027464D01*
X031514Y027464D01*
X031437Y027541D01*
X031437Y027618D01*
X031514Y027695D01*
X031667Y027695D01*
X031744Y027618D01*
X031744Y027541D01*
X031667Y027695D02*
X031744Y027771D01*
X031744Y027848D01*
X031667Y027925D01*
X031514Y027925D01*
X031437Y027848D01*
X031437Y027771D01*
X031514Y027695D01*
X031283Y027925D02*
X031130Y027925D01*
X031207Y027925D02*
X031207Y027541D01*
X031130Y027464D01*
X031053Y027464D01*
X030977Y027541D01*
X028230Y027518D02*
X028230Y027441D01*
X028154Y027364D01*
X028230Y027518D02*
X028154Y027595D01*
X027770Y027595D01*
X027770Y027671D02*
X027770Y027518D01*
X027847Y027825D02*
X027923Y027825D01*
X028000Y027902D01*
X028000Y028132D01*
X027847Y028132D02*
X027770Y028055D01*
X027770Y027902D01*
X027847Y027825D01*
X028154Y027825D02*
X028230Y027902D01*
X028230Y028055D01*
X028154Y028132D01*
X027847Y028132D01*
X020422Y028027D02*
X020422Y028181D01*
X020345Y028257D01*
X020038Y028257D01*
X019961Y028181D01*
X019961Y028027D01*
X020038Y027950D01*
X020115Y027950D01*
X020191Y028027D01*
X020191Y028257D01*
X020422Y028027D02*
X020345Y027950D01*
X020422Y027797D02*
X020422Y027490D01*
X020115Y027797D01*
X020038Y027797D01*
X019961Y027720D01*
X019961Y027567D01*
X020038Y027490D01*
X020038Y027336D02*
X020191Y027336D01*
X020268Y027260D01*
X020268Y027030D01*
X020268Y027183D02*
X020422Y027336D01*
X020422Y027030D02*
X019961Y027030D01*
X019961Y027260D01*
X020038Y027336D01*
X018478Y027336D02*
X018325Y027183D01*
X018325Y027260D02*
X018325Y027030D01*
X018478Y027030D02*
X018018Y027030D01*
X018018Y027260D01*
X018095Y027336D01*
X018248Y027336D01*
X018325Y027260D01*
X018402Y027490D02*
X018478Y027567D01*
X018478Y027720D01*
X018402Y027797D01*
X018325Y027797D01*
X018248Y027720D01*
X018248Y027643D01*
X018248Y027720D02*
X018171Y027797D01*
X018095Y027797D01*
X018018Y027720D01*
X018018Y027567D01*
X018095Y027490D01*
X018095Y027950D02*
X018018Y028027D01*
X018018Y028181D01*
X018095Y028257D01*
X018402Y027950D01*
X018478Y028027D01*
X018478Y028181D01*
X018402Y028257D01*
X018095Y028257D01*
X018095Y027950D02*
X018402Y027950D01*
X018472Y025108D02*
X018549Y025031D01*
X018549Y024878D01*
X018472Y024801D01*
X018319Y024801D02*
X018242Y024954D01*
X018242Y025031D01*
X018319Y025108D01*
X018472Y025108D01*
X018319Y024801D02*
X018089Y024801D01*
X018089Y025108D01*
X018089Y024647D02*
X018472Y024647D01*
X018549Y024571D01*
X018549Y024417D01*
X018472Y024340D01*
X018089Y024340D01*
X034850Y012884D02*
X035080Y012884D01*
X035157Y012807D01*
X035157Y012654D01*
X035080Y012577D01*
X034850Y012577D01*
X035003Y012577D02*
X035157Y012423D01*
X035310Y012423D02*
X035617Y012423D01*
X035464Y012423D02*
X035464Y012884D01*
X035310Y012730D01*
X034850Y012884D02*
X034850Y012423D01*
X034050Y011853D02*
X034050Y011700D01*
X033973Y011623D01*
X033666Y011930D01*
X033973Y011930D01*
X034050Y011853D01*
X033973Y011623D02*
X033666Y011623D01*
X033590Y011700D01*
X033590Y011853D01*
X033666Y011930D01*
X033666Y011469D02*
X033590Y011393D01*
X033590Y011239D01*
X033666Y011163D01*
X033666Y011009D02*
X033820Y011009D01*
X033897Y010932D01*
X033897Y010702D01*
X034050Y010702D02*
X033590Y010702D01*
X033590Y010932D01*
X033666Y011009D01*
X033897Y010856D02*
X034050Y011009D01*
X034050Y011163D02*
X033743Y011469D01*
X033666Y011469D01*
X034050Y011469D02*
X034050Y011163D01*
X031695Y010560D02*
X031388Y010253D01*
X031695Y010253D01*
X031695Y010560D02*
X031388Y010560D01*
X031234Y010483D02*
X030928Y010483D01*
X030928Y010253D02*
X030928Y010713D01*
X030774Y010713D02*
X030774Y010253D01*
X030467Y010253D02*
X030467Y010713D01*
X030621Y010560D01*
X030774Y010713D01*
X031234Y010713D02*
X031234Y010253D01*
X030314Y010253D02*
X030007Y010253D01*
X030314Y010560D01*
X030314Y010636D01*
X030237Y010713D01*
X030083Y010713D01*
X030007Y010636D01*
X029700Y010713D02*
X029700Y010253D01*
X029853Y010253D02*
X029546Y010253D01*
X029546Y010560D02*
X029700Y010713D01*
X028627Y008196D02*
X028627Y007736D01*
X028780Y007736D02*
X028473Y007736D01*
X028166Y007736D02*
X028166Y007966D01*
X028320Y008120D01*
X028320Y008196D01*
X028473Y008043D02*
X028627Y008196D01*
X028166Y007966D02*
X028013Y008120D01*
X028013Y008196D01*
X029057Y007317D02*
X029057Y007010D01*
X029133Y006933D01*
X029287Y006933D01*
X029364Y007010D01*
X029517Y006933D02*
X029824Y006933D01*
X029671Y006933D02*
X029671Y007394D01*
X029517Y007240D01*
X029364Y007317D02*
X029287Y007394D01*
X029133Y007394D01*
X029057Y007317D01*
X029977Y007317D02*
X030054Y007394D01*
X030208Y007394D01*
X030284Y007317D01*
X030284Y007240D01*
X030208Y007164D01*
X030284Y007087D01*
X030284Y007010D01*
X030208Y006933D01*
X030054Y006933D01*
X029977Y007010D01*
X030131Y007164D02*
X030208Y007164D01*
X031012Y007317D02*
X031012Y007010D01*
X031089Y006933D01*
X031242Y006933D01*
X031319Y007010D01*
X031473Y006933D02*
X031779Y006933D01*
X031626Y006933D02*
X031626Y007394D01*
X031473Y007240D01*
X031319Y007317D02*
X031242Y007394D01*
X031089Y007394D01*
X031012Y007317D01*
X031933Y007317D02*
X032010Y007394D01*
X032163Y007394D01*
X032240Y007317D01*
X032240Y007240D01*
X031933Y006933D01*
X032240Y006933D01*
X032189Y005519D02*
X032036Y005519D01*
X031959Y005442D01*
X031959Y005365D01*
X032036Y005289D01*
X032189Y005289D01*
X032266Y005212D01*
X032266Y005135D01*
X032189Y005058D01*
X032036Y005058D01*
X031959Y005135D01*
X031806Y005135D02*
X031806Y005519D01*
X031499Y005519D02*
X031499Y005135D01*
X031576Y005058D01*
X031729Y005058D01*
X031806Y005135D01*
X032189Y005519D02*
X032266Y005442D01*
X032420Y005519D02*
X032650Y005519D01*
X032727Y005442D01*
X032727Y005365D01*
X032650Y005289D01*
X032420Y005289D01*
X032420Y005519D02*
X032420Y005058D01*
X032650Y005058D01*
X032727Y005135D01*
X032727Y005212D01*
X032650Y005289D01*
X029964Y006160D02*
X029888Y006237D01*
X029888Y006544D01*
X029811Y006467D02*
X029964Y006467D01*
X029658Y006391D02*
X029658Y006314D01*
X029351Y006314D01*
X029351Y006391D02*
X029427Y006467D01*
X029581Y006467D01*
X029658Y006391D01*
X029581Y006160D02*
X029427Y006160D01*
X029351Y006237D01*
X029351Y006391D01*
X029197Y006467D02*
X028967Y006467D01*
X028890Y006391D01*
X028967Y006314D01*
X029120Y006314D01*
X029197Y006237D01*
X029120Y006160D01*
X028890Y006160D01*
X028737Y006314D02*
X028430Y006314D01*
X028430Y006391D02*
X028507Y006467D01*
X028660Y006467D01*
X028737Y006391D01*
X028737Y006314D01*
X028660Y006160D02*
X028507Y006160D01*
X028430Y006237D01*
X028430Y006391D01*
X028276Y006391D02*
X028200Y006314D01*
X027969Y006314D01*
X027969Y006160D02*
X027969Y006621D01*
X028200Y006621D01*
X028276Y006544D01*
X028276Y006391D01*
X028123Y006314D02*
X028276Y006160D01*
X034465Y008920D02*
X034542Y008843D01*
X034695Y008843D01*
X034772Y008920D01*
X034772Y009227D01*
X034695Y009304D01*
X034542Y009304D01*
X034465Y009227D01*
X034465Y008920D01*
X034618Y008997D02*
X034772Y008843D01*
X034925Y008843D02*
X035232Y008843D01*
X035079Y008843D02*
X035079Y009304D01*
X034925Y009150D01*
X036090Y009124D02*
X036090Y008663D01*
X036397Y008663D01*
X036550Y008740D02*
X036627Y008663D01*
X036781Y008663D01*
X036857Y008740D01*
X036857Y008817D01*
X036781Y008894D01*
X036550Y008894D01*
X036550Y008740D01*
X036550Y008894D02*
X036704Y009047D01*
X036857Y009124D01*
X041658Y010693D02*
X041735Y010617D01*
X041812Y010617D01*
X041889Y010693D01*
X041889Y011077D01*
X041965Y011077D02*
X041812Y011077D01*
X042119Y011000D02*
X042195Y011077D01*
X042349Y011077D01*
X042426Y011000D01*
X042426Y010923D01*
X042349Y010847D01*
X042426Y010770D01*
X042426Y010693D01*
X042349Y010617D01*
X042195Y010617D01*
X042119Y010693D01*
X042272Y010847D02*
X042349Y010847D01*
X042475Y007643D02*
X042552Y007566D01*
X042552Y007413D01*
X042475Y007336D01*
X042169Y007336D01*
X042092Y007413D01*
X042092Y007566D01*
X042169Y007643D01*
X042169Y007183D02*
X042092Y007106D01*
X042092Y006876D01*
X042552Y006876D01*
X042552Y007106D01*
X042475Y007183D01*
X042169Y007183D01*
X042092Y006722D02*
X042399Y006722D01*
X042552Y006569D01*
X042399Y006415D01*
X042092Y006415D01*
X042092Y006262D02*
X042092Y005955D01*
X042322Y005955D01*
X042245Y006108D01*
X042245Y006185D01*
X042322Y006262D01*
X042475Y006262D01*
X042552Y006185D01*
X042552Y006032D01*
X042475Y005955D01*
X042611Y003875D02*
X042611Y003415D01*
X042458Y003415D02*
X042765Y003415D01*
X042458Y003722D02*
X042611Y003875D01*
X042304Y003875D02*
X042151Y003875D01*
X042228Y003875D02*
X042228Y003491D01*
X042151Y003415D01*
X042074Y003415D01*
X041998Y003491D01*
X021297Y011612D02*
X020990Y011305D01*
X020990Y011228D01*
X020836Y011305D02*
X020836Y011689D01*
X020990Y011689D02*
X021297Y011689D01*
X021297Y011612D01*
X020836Y011305D02*
X020759Y011228D01*
X020606Y011228D01*
X020529Y011305D01*
X020529Y011689D01*
X019070Y010085D02*
X018917Y010085D01*
X018840Y010008D01*
X018840Y009702D01*
X018917Y009625D01*
X019070Y009625D01*
X019147Y009702D01*
X019147Y009855D01*
X018994Y009855D01*
X019147Y010008D02*
X019070Y010085D01*
X018687Y009932D02*
X018687Y009625D01*
X018687Y009855D02*
X018380Y009855D01*
X018380Y009932D02*
X018380Y009625D01*
X018380Y009932D02*
X018533Y010085D01*
X018687Y009932D01*
X018226Y010085D02*
X017919Y010085D01*
X017766Y010085D02*
X017612Y010085D01*
X017689Y010085D02*
X017689Y009702D01*
X017612Y009625D01*
X017536Y009625D01*
X017459Y009702D01*
X018073Y009625D02*
X018073Y010085D01*
X015983Y011840D02*
X015983Y012300D01*
X015753Y012070D01*
X016060Y012070D01*
X015600Y011916D02*
X015600Y012300D01*
X015293Y012300D02*
X015293Y011916D01*
X015369Y011840D01*
X015523Y011840D01*
X015600Y011916D01*
D17*
X029130Y009994D02*
X029130Y008222D01*
X032280Y008222D01*
X032280Y009994D01*
X029130Y009994D01*
X041836Y011226D02*
X043214Y011226D01*
X042820Y011541D02*
X041836Y011541D01*
X041836Y011226D01*
X042820Y011541D02*
X042820Y012013D01*
X044789Y012013D02*
X044789Y013588D01*
X043214Y014375D02*
X041836Y014375D01*
X041836Y014060D01*
X042820Y014060D01*
X042820Y013588D01*
X041126Y019223D02*
X045457Y019223D01*
X045457Y021191D01*
X041126Y021191D01*
X041126Y019223D01*
D18*
X040740Y017813D02*
X040740Y017603D01*
X040740Y017243D02*
X040740Y017033D01*
X041920Y017033D02*
X041920Y017243D01*
X041920Y017603D02*
X041920Y017813D01*
X038060Y014203D02*
X037100Y014203D01*
X037100Y012603D02*
X037460Y012603D01*
X037700Y012603D01*
X038060Y012603D01*
X037520Y012713D02*
X037505Y012702D01*
X037491Y012689D01*
X037480Y012674D01*
X037471Y012657D01*
X037465Y012640D01*
X037461Y012622D01*
X037460Y012603D01*
X037640Y012713D02*
X037655Y012702D01*
X037669Y012689D01*
X037680Y012674D01*
X037689Y012657D01*
X037695Y012640D01*
X037699Y012622D01*
X037700Y012603D01*
X039950Y010623D02*
X039950Y010563D01*
X039950Y010323D01*
X039950Y010263D01*
X040400Y010763D02*
X040680Y010763D01*
X041130Y010623D02*
X041130Y010263D01*
X035190Y010603D02*
X035190Y009483D01*
X034670Y009483D01*
X034670Y010603D01*
X035190Y010603D01*
X027105Y006088D02*
X027105Y004088D01*
X026205Y004088D01*
X026105Y004188D01*
X026005Y004088D01*
X025205Y004088D01*
X025105Y004188D01*
X025005Y004088D01*
X024205Y004088D01*
X024105Y004188D01*
X024005Y004088D01*
X023205Y004088D01*
X023105Y004188D01*
X023005Y004088D01*
X022205Y004088D01*
X022105Y004188D01*
X022005Y004088D01*
X021205Y004088D01*
X021105Y004188D01*
X021005Y004088D01*
X020205Y004088D01*
X020105Y004188D01*
X020005Y004088D01*
X019205Y004088D01*
X019105Y004188D01*
X019005Y004088D01*
X018205Y004088D01*
X018105Y004188D01*
X018005Y004088D01*
X017105Y004088D01*
X017105Y006088D01*
X018005Y006088D01*
X018105Y005988D01*
X018205Y006088D01*
X019005Y006088D01*
X019105Y005988D01*
X019205Y006088D01*
X020005Y006088D01*
X020105Y005988D01*
X020205Y006088D01*
X021005Y006088D01*
X021105Y005988D01*
X021205Y006088D01*
X022005Y006088D01*
X022105Y005988D01*
X022205Y006088D01*
X023005Y006088D01*
X023105Y005988D01*
X023205Y006088D01*
X024005Y006088D01*
X024105Y005988D01*
X024205Y006088D01*
X025005Y006088D01*
X025105Y005988D01*
X025205Y006088D01*
X026005Y006088D01*
X026105Y005988D01*
X026205Y006088D01*
X027105Y006088D01*
D19*
X032159Y004713D03*
X044356Y015023D03*
D20*
X043526Y019342D02*
X043565Y019381D01*
X043565Y019534D01*
X043526Y019572D01*
X043411Y019572D01*
X043411Y019342D01*
X043526Y019342D01*
X043334Y019342D02*
X043181Y019342D01*
X043181Y019572D01*
X043334Y019572D01*
X043258Y019457D02*
X043181Y019457D01*
X043104Y019342D02*
X042951Y019342D01*
X042951Y019572D01*
X042989Y019842D02*
X043066Y019842D01*
X043104Y019881D01*
X043104Y019957D01*
X043028Y019957D01*
X043104Y020034D02*
X043066Y020072D01*
X042989Y020072D01*
X042951Y020034D01*
X042951Y019881D01*
X042989Y019842D01*
X043181Y019842D02*
X043181Y020072D01*
X043334Y019842D01*
X043334Y020072D01*
X043411Y020072D02*
X043526Y020072D01*
X043565Y020034D01*
X043565Y019881D01*
X043526Y019842D01*
X043411Y019842D01*
X043411Y020072D01*
X043334Y020342D02*
X043181Y020572D01*
X043104Y020572D02*
X042951Y020572D01*
X043028Y020572D02*
X043028Y020342D01*
X043181Y020342D02*
X043334Y020572D01*
X043334Y020842D02*
X043181Y021072D01*
X043104Y021034D02*
X043104Y020957D01*
X043066Y020919D01*
X042951Y020919D01*
X043028Y020919D02*
X043104Y020842D01*
X043181Y020842D02*
X043334Y021072D01*
X043104Y021034D02*
X043066Y021072D01*
X042951Y021072D01*
X042951Y020842D01*
X042644Y020957D02*
X042490Y020957D01*
X042183Y020957D02*
X042030Y020957D01*
X042145Y021072D01*
X042145Y020842D01*
X042145Y020572D02*
X042183Y020534D01*
X042183Y020496D01*
X042145Y020457D01*
X042183Y020419D01*
X042183Y020381D01*
X042145Y020342D01*
X042068Y020342D01*
X042030Y020381D01*
X042107Y020457D02*
X042145Y020457D01*
X042145Y020572D02*
X042068Y020572D01*
X042030Y020534D01*
X042490Y020457D02*
X042644Y020457D01*
X042644Y019957D02*
X042490Y019957D01*
X042183Y019996D02*
X042183Y020034D01*
X042145Y020072D01*
X042068Y020072D01*
X042030Y020034D01*
X042183Y019996D02*
X042030Y019842D01*
X042183Y019842D01*
X042107Y019572D02*
X042107Y019342D01*
X042183Y019342D02*
X042030Y019342D01*
X042030Y019496D02*
X042107Y019572D01*
X042490Y019457D02*
X042644Y019457D01*
D21*
X018166Y026534D02*
X018168Y026554D01*
X018174Y026572D01*
X018183Y026590D01*
X018195Y026605D01*
X018210Y026617D01*
X018228Y026626D01*
X018246Y026632D01*
X018266Y026634D01*
X018286Y026632D01*
X018304Y026626D01*
X018322Y026617D01*
X018337Y026605D01*
X018349Y026590D01*
X018358Y026572D01*
X018364Y026554D01*
X018366Y026534D01*
X018364Y026514D01*
X018358Y026496D01*
X018349Y026478D01*
X018337Y026463D01*
X018322Y026451D01*
X018304Y026442D01*
X018286Y026436D01*
X018266Y026434D01*
X018246Y026436D01*
X018228Y026442D01*
X018210Y026451D01*
X018195Y026463D01*
X018183Y026478D01*
X018174Y026496D01*
X018168Y026514D01*
X018166Y026534D01*
D22*
X016605Y004838D02*
X016855Y004588D01*
X016605Y004338D01*
X016605Y004838D01*
D23*
X038441Y012236D02*
X038755Y012550D01*
X038598Y012550D02*
X038598Y012236D01*
X038755Y012236D02*
X038441Y012550D01*
X038441Y012393D02*
X038755Y012393D01*
X039613Y009972D02*
X039927Y009658D01*
X039927Y009815D02*
X039613Y009815D01*
X039613Y009658D02*
X039927Y009972D01*
X039770Y009972D02*
X039770Y009658D01*
D24*
X017714Y012566D02*
X013714Y012566D01*
X013714Y021314D01*
X017714Y021314D01*
X017714Y012566D01*
D25*
X017288Y012924D02*
X017290Y012942D01*
X017296Y012958D01*
X017305Y012973D01*
X017318Y012986D01*
X017333Y012995D01*
X017349Y013001D01*
X017367Y013003D01*
X017385Y013001D01*
X017401Y012995D01*
X017416Y012986D01*
X017429Y012973D01*
X017438Y012958D01*
X017444Y012942D01*
X017446Y012924D01*
X017444Y012906D01*
X017438Y012890D01*
X017429Y012875D01*
X017416Y012862D01*
X017401Y012853D01*
X017385Y012847D01*
X017367Y012845D01*
X017349Y012847D01*
X017333Y012853D01*
X017318Y012862D01*
X017305Y012875D01*
X017296Y012890D01*
X017290Y012906D01*
X017288Y012924D01*
M02*
