G75*
G70*
%OFA0B0*%
%FSLAX24Y24*%
%IPPOS*%
%LPD*%
%AMOC8*
5,1,8,0,0,1.08239X$1,22.5*
%
%ADD10C,0.0000*%
D10*
X000149Y000164D02*
X000149Y014534D01*
X017472Y014534D01*
X017472Y000164D01*
X000149Y000164D01*
X014677Y007841D02*
X014679Y007867D01*
X014685Y007893D01*
X014695Y007918D01*
X014708Y007941D01*
X014724Y007961D01*
X014744Y007979D01*
X014766Y007994D01*
X014789Y008006D01*
X014815Y008014D01*
X014841Y008018D01*
X014867Y008018D01*
X014893Y008014D01*
X014919Y008006D01*
X014943Y007994D01*
X014964Y007979D01*
X014984Y007961D01*
X015000Y007941D01*
X015013Y007918D01*
X015023Y007893D01*
X015029Y007867D01*
X015031Y007841D01*
X015029Y007815D01*
X015023Y007789D01*
X015013Y007764D01*
X015000Y007741D01*
X014984Y007721D01*
X014964Y007703D01*
X014942Y007688D01*
X014919Y007676D01*
X014893Y007668D01*
X014867Y007664D01*
X014841Y007664D01*
X014815Y007668D01*
X014789Y007676D01*
X014765Y007688D01*
X014744Y007703D01*
X014724Y007721D01*
X014708Y007741D01*
X014695Y007764D01*
X014685Y007789D01*
X014679Y007815D01*
X014677Y007841D01*
X014677Y009219D02*
X014679Y009245D01*
X014685Y009271D01*
X014695Y009296D01*
X014708Y009319D01*
X014724Y009339D01*
X014744Y009357D01*
X014766Y009372D01*
X014789Y009384D01*
X014815Y009392D01*
X014841Y009396D01*
X014867Y009396D01*
X014893Y009392D01*
X014919Y009384D01*
X014943Y009372D01*
X014964Y009357D01*
X014984Y009339D01*
X015000Y009319D01*
X015013Y009296D01*
X015023Y009271D01*
X015029Y009245D01*
X015031Y009219D01*
X015029Y009193D01*
X015023Y009167D01*
X015013Y009142D01*
X015000Y009119D01*
X014984Y009099D01*
X014964Y009081D01*
X014942Y009066D01*
X014919Y009054D01*
X014893Y009046D01*
X014867Y009042D01*
X014841Y009042D01*
X014815Y009046D01*
X014789Y009054D01*
X014765Y009066D01*
X014744Y009081D01*
X014724Y009099D01*
X014708Y009119D01*
X014695Y009142D01*
X014685Y009167D01*
X014679Y009193D01*
X014677Y009219D01*
M02*
