G75*
G70*
%OFA0B0*%
%FSLAX24Y24*%
%IPPOS*%
%LPD*%
%AMOC8*
5,1,8,0,0,1.08239X$1,22.5*
%
%ADD10C,0.0000*%
%ADD11C,0.0020*%
%ADD12C,0.0049*%
%ADD13C,0.0040*%
%ADD14C,0.0080*%
D10*
X000149Y000164D02*
X000149Y014534D01*
X017472Y014534D01*
X017472Y000164D01*
X000149Y000164D01*
X014677Y007841D02*
X014679Y007867D01*
X014685Y007893D01*
X014695Y007918D01*
X014708Y007941D01*
X014724Y007961D01*
X014744Y007979D01*
X014766Y007994D01*
X014789Y008006D01*
X014815Y008014D01*
X014841Y008018D01*
X014867Y008018D01*
X014893Y008014D01*
X014919Y008006D01*
X014943Y007994D01*
X014964Y007979D01*
X014984Y007961D01*
X015000Y007941D01*
X015013Y007918D01*
X015023Y007893D01*
X015029Y007867D01*
X015031Y007841D01*
X015029Y007815D01*
X015023Y007789D01*
X015013Y007764D01*
X015000Y007741D01*
X014984Y007721D01*
X014964Y007703D01*
X014942Y007688D01*
X014919Y007676D01*
X014893Y007668D01*
X014867Y007664D01*
X014841Y007664D01*
X014815Y007668D01*
X014789Y007676D01*
X014765Y007688D01*
X014744Y007703D01*
X014724Y007721D01*
X014708Y007741D01*
X014695Y007764D01*
X014685Y007789D01*
X014679Y007815D01*
X014677Y007841D01*
X014677Y009219D02*
X014679Y009245D01*
X014685Y009271D01*
X014695Y009296D01*
X014708Y009319D01*
X014724Y009339D01*
X014744Y009357D01*
X014766Y009372D01*
X014789Y009384D01*
X014815Y009392D01*
X014841Y009396D01*
X014867Y009396D01*
X014893Y009392D01*
X014919Y009384D01*
X014943Y009372D01*
X014964Y009357D01*
X014984Y009339D01*
X015000Y009319D01*
X015013Y009296D01*
X015023Y009271D01*
X015029Y009245D01*
X015031Y009219D01*
X015029Y009193D01*
X015023Y009167D01*
X015013Y009142D01*
X015000Y009119D01*
X014984Y009099D01*
X014964Y009081D01*
X014942Y009066D01*
X014919Y009054D01*
X014893Y009046D01*
X014867Y009042D01*
X014841Y009042D01*
X014815Y009046D01*
X014789Y009054D01*
X014765Y009066D01*
X014744Y009081D01*
X014724Y009099D01*
X014708Y009119D01*
X014695Y009142D01*
X014685Y009167D01*
X014679Y009193D01*
X014677Y009219D01*
D11*
X014904Y000794D02*
X015050Y000794D01*
X014977Y000794D02*
X014977Y000574D01*
X014829Y000610D02*
X014829Y000684D01*
X014793Y000721D01*
X014719Y000721D01*
X014683Y000684D01*
X014683Y000647D01*
X014829Y000647D01*
X014829Y000610D02*
X014793Y000574D01*
X014719Y000574D01*
X014608Y000574D02*
X014498Y000574D01*
X014462Y000610D01*
X014498Y000647D01*
X014572Y000647D01*
X014608Y000684D01*
X014572Y000721D01*
X014462Y000721D01*
X014387Y000721D02*
X014314Y000721D01*
X014351Y000757D02*
X014351Y000610D01*
X014314Y000574D01*
X014019Y000574D02*
X014019Y000794D01*
X013909Y000794D01*
X013872Y000757D01*
X013872Y000721D01*
X013909Y000684D01*
X014019Y000684D01*
X013909Y000684D02*
X013872Y000647D01*
X013872Y000610D01*
X013909Y000574D01*
X014019Y000574D01*
X013798Y000610D02*
X013761Y000574D01*
X013688Y000574D01*
X013651Y000610D01*
X013651Y000684D01*
X013688Y000721D01*
X013761Y000721D01*
X013798Y000684D01*
X013798Y000610D01*
X013577Y000610D02*
X013540Y000574D01*
X013430Y000574D01*
X013430Y000684D01*
X013467Y000721D01*
X013540Y000721D01*
X013540Y000647D02*
X013430Y000647D01*
X013356Y000647D02*
X013283Y000721D01*
X013246Y000721D01*
X013172Y000684D02*
X013135Y000721D01*
X013025Y000721D01*
X013025Y000794D02*
X013025Y000574D01*
X013135Y000574D01*
X013172Y000610D01*
X013172Y000684D01*
X013356Y000721D02*
X013356Y000574D01*
X013540Y000647D02*
X013577Y000610D01*
X012589Y000574D02*
X012589Y000794D01*
X012479Y000794D01*
X012442Y000757D01*
X012442Y000684D01*
X012479Y000647D01*
X012589Y000647D01*
X012516Y000647D02*
X012442Y000574D01*
X012368Y000610D02*
X012368Y000684D01*
X012332Y000721D01*
X012258Y000721D01*
X012221Y000684D01*
X012221Y000647D01*
X012368Y000647D01*
X012368Y000610D02*
X012332Y000574D01*
X012258Y000574D01*
X012147Y000721D02*
X012074Y000574D01*
X012000Y000721D01*
X011705Y000721D02*
X011632Y000794D01*
X011632Y000574D01*
X011705Y000574D02*
X011558Y000574D01*
X015346Y000610D02*
X015346Y000757D01*
X015382Y000794D01*
X015456Y000794D01*
X015492Y000757D01*
X015492Y000721D01*
X015456Y000684D01*
X015346Y000684D01*
X015346Y000610D02*
X015382Y000574D01*
X015456Y000574D01*
X015492Y000610D01*
X015566Y000684D02*
X015713Y000684D01*
X015603Y000794D01*
X015603Y000574D01*
X015787Y000757D02*
X015934Y000610D01*
X015934Y000574D01*
X016008Y000610D02*
X016045Y000574D01*
X016119Y000574D01*
X016155Y000610D01*
X016155Y000684D02*
X016082Y000721D01*
X016045Y000721D01*
X016008Y000684D01*
X016008Y000610D01*
X016155Y000684D02*
X016155Y000794D01*
X016008Y000794D01*
X015934Y000794D02*
X015787Y000794D01*
X015787Y000757D01*
X016229Y000757D02*
X016266Y000794D01*
X016340Y000794D01*
X016376Y000757D01*
X016376Y000721D01*
X016340Y000684D01*
X016266Y000684D01*
X016229Y000647D01*
X016229Y000610D01*
X016266Y000574D01*
X016340Y000574D01*
X016376Y000610D01*
X016450Y000610D02*
X016487Y000574D01*
X016561Y000574D01*
X016597Y000610D01*
X016671Y000574D02*
X016671Y000794D01*
X016745Y000721D01*
X016818Y000794D01*
X016818Y000574D01*
X016892Y000574D02*
X017039Y000574D01*
X017039Y000794D01*
X016597Y000757D02*
X016561Y000794D01*
X016487Y000794D01*
X016450Y000757D01*
X016450Y000721D01*
X016487Y000684D01*
X016450Y000647D01*
X016450Y000610D01*
X016487Y000684D02*
X016524Y000684D01*
D12*
X012749Y000464D02*
X011349Y000464D01*
X011349Y000964D01*
X012749Y000964D01*
X012749Y000464D01*
D13*
X012900Y001754D02*
X012900Y002214D01*
X012670Y002214D01*
X012593Y002138D01*
X012593Y001984D01*
X012670Y001908D01*
X012900Y001908D01*
X012746Y001908D02*
X012593Y001754D01*
X012439Y001984D02*
X012133Y001984D01*
X012209Y001754D02*
X012209Y002214D01*
X012439Y001984D01*
X013366Y003981D02*
X013827Y003981D01*
X013827Y004212D01*
X013750Y004288D01*
X013597Y004288D01*
X013520Y004212D01*
X013520Y003981D01*
X013520Y004135D02*
X013366Y004288D01*
X013366Y004442D02*
X013673Y004749D01*
X013750Y004749D01*
X013827Y004672D01*
X013827Y004519D01*
X013750Y004442D01*
X013366Y004442D02*
X013366Y004749D01*
X015063Y005948D02*
X015139Y005871D01*
X015293Y005871D01*
X015370Y005948D01*
X015370Y006024D01*
X015293Y006101D01*
X015139Y006101D01*
X015063Y006024D01*
X015063Y005948D01*
X015139Y006101D02*
X015063Y006178D01*
X015063Y006254D01*
X015139Y006331D01*
X015293Y006331D01*
X015370Y006254D01*
X015370Y006178D01*
X015293Y006101D01*
X015523Y006254D02*
X015600Y006331D01*
X015753Y006331D01*
X015830Y006254D01*
X015830Y005948D01*
X015753Y005871D01*
X015600Y005871D01*
X015523Y005948D01*
X016159Y005243D02*
X016236Y005320D01*
X016313Y005320D01*
X016390Y005243D01*
X016390Y005166D01*
X016390Y005243D02*
X016466Y005320D01*
X016543Y005320D01*
X016620Y005243D01*
X016620Y005089D01*
X016543Y005013D01*
X016543Y004859D02*
X016390Y004859D01*
X016313Y004783D01*
X016313Y004552D01*
X016159Y004552D02*
X016620Y004552D01*
X016620Y004783D01*
X016543Y004859D01*
X016313Y004706D02*
X016159Y004859D01*
X016236Y005013D02*
X016159Y005089D01*
X016159Y005243D01*
X012700Y006634D02*
X012700Y007094D01*
X012470Y007094D01*
X012393Y007017D01*
X012393Y006864D01*
X012470Y006787D01*
X012700Y006787D01*
X012547Y006787D02*
X012393Y006634D01*
X012240Y006711D02*
X012163Y006634D01*
X012009Y006634D01*
X011933Y006711D01*
X011933Y006864D01*
X012009Y006941D01*
X012086Y006941D01*
X012240Y006864D01*
X012240Y007094D01*
X011933Y007094D01*
X010801Y007167D02*
X010571Y006937D01*
X010571Y007244D01*
X010801Y007167D02*
X010340Y007167D01*
X010340Y006784D02*
X010340Y006477D01*
X010340Y006630D02*
X010801Y006630D01*
X010647Y006477D01*
X010724Y006323D02*
X010801Y006247D01*
X010801Y006093D01*
X010724Y006016D01*
X010417Y006016D01*
X010340Y006093D01*
X010340Y006247D01*
X010417Y006323D01*
X009232Y006158D02*
X009232Y006004D01*
X009155Y005927D01*
X008848Y005927D01*
X009155Y006234D01*
X008848Y006234D01*
X008772Y006158D01*
X008772Y006004D01*
X008848Y005927D01*
X008772Y005774D02*
X008772Y005467D01*
X008772Y005620D02*
X009232Y005620D01*
X009079Y005467D01*
X009155Y005314D02*
X009232Y005237D01*
X009232Y005083D01*
X009155Y005007D01*
X008848Y005007D01*
X008772Y005083D01*
X008772Y005237D01*
X008848Y005314D01*
X009232Y006158D02*
X009155Y006234D01*
X009249Y007585D02*
X009173Y007662D01*
X009249Y007585D02*
X009403Y007585D01*
X009480Y007662D01*
X009480Y007969D01*
X009403Y008046D01*
X009249Y008046D01*
X009173Y007969D01*
X009019Y008046D02*
X009019Y007816D01*
X008866Y007892D01*
X008789Y007892D01*
X008712Y007816D01*
X008712Y007662D01*
X008789Y007585D01*
X008942Y007585D01*
X009019Y007662D01*
X009019Y008046D02*
X008712Y008046D01*
X008405Y007796D02*
X008405Y007642D01*
X008328Y007566D01*
X008022Y007566D01*
X007945Y007642D01*
X007945Y007796D01*
X008022Y007873D01*
X008022Y008026D02*
X007945Y008103D01*
X007945Y008256D01*
X008022Y008333D01*
X008098Y008333D01*
X008175Y008256D01*
X008175Y008026D01*
X008022Y008026D01*
X008175Y008026D02*
X008328Y008180D01*
X008405Y008333D01*
X008350Y008609D02*
X008657Y008609D01*
X008504Y008609D02*
X008504Y009069D01*
X008657Y008916D01*
X008964Y009069D02*
X008964Y008609D01*
X008811Y008609D02*
X009118Y008609D01*
X009271Y008686D02*
X009348Y008609D01*
X009501Y008609D01*
X009578Y008686D01*
X009578Y008993D01*
X009501Y009069D01*
X009348Y009069D01*
X009271Y008993D01*
X009118Y008916D02*
X008964Y009069D01*
X009793Y009056D02*
X010254Y009056D01*
X010100Y008903D01*
X010177Y008749D02*
X010254Y008673D01*
X010254Y008519D01*
X010177Y008442D01*
X009870Y008442D01*
X009793Y008519D01*
X009793Y008673D01*
X009870Y008749D01*
X009793Y008903D02*
X009793Y009210D01*
X009870Y009363D02*
X009793Y009440D01*
X009793Y009593D01*
X009870Y009670D01*
X010023Y009670D01*
X010100Y009593D01*
X010100Y009517D01*
X010023Y009363D01*
X010254Y009363D01*
X010254Y009670D01*
X012370Y009928D02*
X012677Y009928D01*
X012523Y009928D02*
X012523Y010389D01*
X012677Y010235D01*
X012830Y010389D02*
X012830Y010005D01*
X012907Y009928D01*
X013060Y009928D01*
X013137Y010005D01*
X013137Y010389D01*
X008405Y007796D02*
X008328Y007873D01*
X007019Y007457D02*
X007019Y007150D01*
X006942Y007074D01*
X006789Y007074D01*
X006712Y007150D01*
X006559Y007150D02*
X006482Y007074D01*
X006328Y007074D01*
X006252Y007150D01*
X006252Y007227D01*
X006328Y007304D01*
X006405Y007304D01*
X006328Y007304D02*
X006252Y007380D01*
X006252Y007457D01*
X006328Y007534D01*
X006482Y007534D01*
X006559Y007457D01*
X006712Y007457D02*
X006789Y007534D01*
X006942Y007534D01*
X007019Y007457D01*
X006647Y006353D02*
X006494Y006353D01*
X006417Y006276D01*
X006263Y006276D02*
X006263Y006199D01*
X006187Y006123D01*
X005956Y006123D01*
X005956Y006276D02*
X005956Y005969D01*
X006033Y005892D01*
X006187Y005892D01*
X006263Y005969D01*
X006417Y005969D02*
X006494Y005892D01*
X006647Y005892D01*
X006724Y005969D01*
X006724Y006276D01*
X006647Y006353D01*
X006901Y006209D02*
X007362Y006209D01*
X007132Y005979D01*
X007132Y006286D01*
X007285Y005825D02*
X007362Y005749D01*
X007362Y005595D01*
X007285Y005518D01*
X006978Y005518D01*
X006901Y005595D01*
X006901Y005749D01*
X006978Y005825D01*
X006263Y006276D02*
X006187Y006353D01*
X006033Y006353D01*
X005956Y006276D01*
X005966Y008530D02*
X005890Y008607D01*
X005890Y008684D01*
X005966Y008760D01*
X006197Y008760D01*
X006197Y008607D01*
X006120Y008530D01*
X005966Y008530D01*
X006197Y008760D02*
X006043Y008914D01*
X005890Y008991D01*
X006350Y008530D02*
X006657Y008530D01*
X006504Y008530D02*
X006504Y008991D01*
X006657Y008837D01*
X006810Y008914D02*
X006887Y008991D01*
X007041Y008991D01*
X007117Y008914D01*
X007117Y008607D01*
X007041Y008530D01*
X006887Y008530D01*
X006810Y008607D01*
X006886Y009987D02*
X006579Y009987D01*
X006886Y009987D02*
X006579Y010294D01*
X006579Y010371D01*
X006655Y010447D01*
X006809Y010447D01*
X006886Y010371D01*
X007193Y010447D02*
X007193Y009987D01*
X007346Y009987D02*
X007039Y009987D01*
X007346Y010294D02*
X007193Y010447D01*
X007499Y010371D02*
X007576Y010447D01*
X007730Y010447D01*
X007806Y010371D01*
X007806Y010064D01*
X007730Y009987D01*
X007576Y009987D01*
X007499Y010064D01*
X005543Y010064D02*
X005466Y009987D01*
X005312Y009987D01*
X005236Y010064D01*
X005082Y010064D02*
X005082Y009987D01*
X005082Y010064D02*
X004775Y010371D01*
X004775Y010447D01*
X005082Y010447D01*
X005236Y010371D02*
X005312Y010447D01*
X005466Y010447D01*
X005543Y010371D01*
X005543Y010064D01*
D14*
X012048Y009820D02*
X012048Y007240D01*
X013448Y007240D01*
X013448Y009820D01*
X012048Y009820D01*
M02*
