G75*
G70*
%OFA0B0*%
%FSLAX24Y24*%
%IPPOS*%
%LPD*%
%AMOC8*
5,1,8,0,0,1.08239X$1,22.5*
%
%ADD10C,0.0472*%
%ADD11R,0.0433X0.0394*%
%ADD12R,0.0394X0.0433*%
%ADD13R,0.0787X0.0591*%
%ADD14R,0.0787X0.1496*%
%ADD15C,0.0337*%
%ADD16R,0.0600X0.0600*%
%ADD17C,0.0600*%
%ADD18C,0.0295*%
%ADD19C,0.0270*%
%ADD20C,0.0197*%
%ADD21C,0.0240*%
%ADD22C,0.0098*%
D10*
X013830Y007093D02*
X014303Y007093D01*
X015917Y007093D02*
X016389Y007093D01*
X016389Y009967D02*
X015917Y009967D01*
X014303Y009967D02*
X013830Y009967D01*
D11*
X009362Y008313D03*
X008693Y008313D03*
X008712Y007309D03*
X009381Y007309D03*
X006941Y006758D03*
X006271Y006758D03*
X006567Y005577D03*
X005897Y005577D03*
X006252Y008215D03*
X006921Y008215D03*
X006862Y009672D03*
X007531Y009672D03*
X005484Y009672D03*
X004815Y009672D03*
X014215Y004829D03*
X014215Y004160D03*
X014608Y005636D03*
X015278Y005636D03*
X016929Y005302D03*
X016929Y004632D03*
D12*
X012784Y001384D03*
X012114Y001384D03*
X008476Y005203D03*
X008476Y005872D03*
X007649Y005636D03*
X007649Y006306D03*
X007649Y007605D03*
X007649Y008274D03*
X010582Y008215D03*
X010582Y008766D03*
X010582Y009435D03*
X010582Y007546D03*
X011915Y006364D03*
X012584Y006364D03*
D13*
X011507Y007624D03*
X011507Y008530D03*
X011507Y009435D03*
D14*
X013988Y008530D03*
D15*
X013703Y002861D02*
X013367Y002861D01*
X013367Y002369D02*
X013703Y002369D01*
X013703Y001876D02*
X013367Y001876D01*
X013367Y001384D02*
X013703Y001384D01*
D16*
X001049Y012064D03*
X011149Y013664D03*
X013649Y012664D03*
D17*
X014649Y012664D03*
X015649Y012664D03*
X016649Y012664D03*
X016649Y013664D03*
X015649Y013664D03*
X014649Y013664D03*
X013649Y013664D03*
X011149Y012664D03*
X010149Y012664D03*
X009149Y012664D03*
X008149Y012664D03*
X007149Y012664D03*
X006149Y012664D03*
X005149Y012664D03*
X004149Y012664D03*
X004149Y013664D03*
X005149Y013664D03*
X006149Y013664D03*
X007149Y013664D03*
X008149Y013664D03*
X009149Y013664D03*
X010149Y013664D03*
X002049Y012064D03*
X002049Y011064D03*
X001049Y011064D03*
X001049Y010064D03*
X002049Y010064D03*
X002049Y009064D03*
X001049Y009064D03*
X001049Y008064D03*
X002049Y008064D03*
X002049Y007064D03*
X001049Y007064D03*
X001049Y006064D03*
X002049Y006064D03*
X002049Y005064D03*
X001049Y005064D03*
X001049Y004064D03*
X002049Y004064D03*
X002049Y003064D03*
X001049Y003064D03*
X001049Y002064D03*
X002049Y002064D03*
X002049Y001064D03*
X001049Y001064D03*
D18*
X005484Y005577D02*
X005484Y007782D01*
X005484Y008924D01*
X005484Y009672D01*
X005484Y009120D02*
X006665Y009120D01*
X007531Y009120D01*
X007531Y009672D01*
X007531Y009120D02*
X009027Y009120D01*
X009421Y009120D01*
X009618Y008924D01*
X010130Y009435D01*
X010582Y009435D01*
X011507Y009435D01*
X009815Y008727D02*
X009815Y007939D01*
X009815Y005577D01*
X009815Y005380D01*
X009224Y004790D01*
X008830Y004790D01*
X008456Y004790D01*
X006901Y004790D01*
X010582Y007546D02*
X011429Y007546D01*
X011507Y007624D01*
X009815Y008727D02*
X009618Y008924D01*
X005484Y008924D02*
X005484Y009120D01*
D19*
X005484Y008924D03*
X005110Y008628D03*
X005838Y008215D03*
X005484Y007782D03*
X005110Y007644D03*
X005838Y006758D03*
X005110Y006424D03*
X005484Y005577D03*
X005110Y005282D03*
X005849Y004864D03*
X005549Y004464D03*
X006881Y004416D03*
X006901Y004790D03*
X007649Y005144D03*
X008004Y004416D03*
X008830Y004790D03*
X009086Y004416D03*
X010189Y005183D03*
X009815Y005577D03*
X010189Y005872D03*
X009401Y006758D03*
X010189Y007132D03*
X009815Y007939D03*
X010189Y008195D03*
X009027Y009120D03*
X008771Y009494D03*
X008004Y009494D03*
X007649Y008766D03*
X006665Y009120D03*
X006330Y009494D03*
X011449Y006364D03*
X012551Y005577D03*
X013049Y006364D03*
X012157Y007408D03*
X013259Y009160D03*
X014749Y006264D03*
X014215Y005341D03*
X016929Y005735D03*
D20*
X016927Y004634D02*
X016929Y004632D01*
X012157Y007408D02*
X011941Y007624D01*
X011507Y007624D01*
X009815Y007939D02*
X009815Y008313D01*
X009362Y008313D01*
X009381Y007309D02*
X009401Y006758D01*
X007649Y005636D02*
X007649Y005144D01*
X008476Y005203D02*
X008456Y004790D01*
X006271Y006758D02*
X005838Y006758D01*
X005897Y005577D02*
X005484Y005577D01*
X005838Y008215D02*
X006252Y008215D01*
X007649Y008274D02*
X007649Y008766D01*
D21*
X001449Y000464D02*
X000649Y000464D01*
X000449Y000664D01*
X000449Y014264D01*
X003049Y014264D01*
X003049Y013164D01*
X003549Y012664D01*
X004149Y012664D01*
X004149Y012673D01*
X005485Y011337D01*
X005485Y009672D01*
X005484Y009672D01*
X003049Y014264D02*
X013049Y014264D01*
X013649Y013664D01*
X002049Y001064D02*
X001449Y000464D01*
D22*
X001673Y000363D02*
X001965Y000656D01*
X001968Y000655D01*
X002131Y000655D01*
X002281Y000717D01*
X002396Y000832D01*
X002458Y000982D01*
X002458Y001145D01*
X002396Y001296D01*
X002281Y001411D01*
X002131Y001473D01*
X001968Y001473D01*
X001817Y001411D01*
X001702Y001296D01*
X001640Y001145D01*
X001640Y000982D01*
X001641Y000980D01*
X001354Y000693D01*
X001303Y000693D01*
X001342Y000721D01*
X001392Y000771D01*
X001433Y000828D01*
X001466Y000891D01*
X001487Y000959D01*
X001496Y001015D01*
X001098Y001015D01*
X001098Y001113D01*
X001000Y001113D01*
X001000Y001511D01*
X000944Y001502D01*
X000877Y001480D01*
X000814Y001448D01*
X000757Y001406D01*
X000707Y001356D01*
X000678Y001318D01*
X000678Y001890D01*
X000702Y001832D01*
X000817Y001717D01*
X000968Y001655D01*
X001131Y001655D01*
X001281Y001717D01*
X001396Y001832D01*
X001458Y001982D01*
X001458Y002145D01*
X001396Y002296D01*
X001281Y002411D01*
X001131Y002473D01*
X000968Y002473D01*
X000817Y002411D01*
X000702Y002296D01*
X000678Y002238D01*
X000678Y002890D01*
X000702Y002832D01*
X000817Y002717D01*
X000968Y002655D01*
X001131Y002655D01*
X001281Y002717D01*
X001396Y002832D01*
X001458Y002982D01*
X001458Y003145D01*
X001396Y003296D01*
X001281Y003411D01*
X001131Y003473D01*
X000968Y003473D01*
X000817Y003411D01*
X000702Y003296D01*
X000678Y003238D01*
X000678Y003890D01*
X000702Y003832D01*
X000817Y003717D01*
X000968Y003655D01*
X001131Y003655D01*
X001281Y003717D01*
X001396Y003832D01*
X001458Y003982D01*
X001458Y004145D01*
X001396Y004296D01*
X001281Y004411D01*
X001131Y004473D01*
X000968Y004473D01*
X000817Y004411D01*
X000702Y004296D01*
X000678Y004238D01*
X000678Y004890D01*
X000702Y004832D01*
X000817Y004717D01*
X000968Y004655D01*
X001131Y004655D01*
X001281Y004717D01*
X001396Y004832D01*
X001458Y004982D01*
X001458Y005145D01*
X001396Y005296D01*
X001281Y005411D01*
X001131Y005473D01*
X000968Y005473D01*
X000817Y005411D01*
X000702Y005296D01*
X000678Y005238D01*
X000678Y005890D01*
X000702Y005832D01*
X000817Y005717D01*
X000968Y005655D01*
X001131Y005655D01*
X001281Y005717D01*
X001396Y005832D01*
X001458Y005982D01*
X001458Y006145D01*
X001396Y006296D01*
X001281Y006411D01*
X001131Y006473D01*
X000968Y006473D01*
X000817Y006411D01*
X000702Y006296D01*
X000678Y006238D01*
X000678Y006890D01*
X000702Y006832D01*
X000817Y006717D01*
X000968Y006655D01*
X001131Y006655D01*
X001281Y006717D01*
X001396Y006832D01*
X001458Y006982D01*
X001458Y007145D01*
X001396Y007296D01*
X001281Y007411D01*
X001131Y007473D01*
X000968Y007473D01*
X000817Y007411D01*
X000702Y007296D01*
X000678Y007238D01*
X000678Y007890D01*
X000702Y007832D01*
X000817Y007717D01*
X000968Y007655D01*
X001131Y007655D01*
X001281Y007717D01*
X001396Y007832D01*
X001458Y007982D01*
X001458Y008145D01*
X001396Y008296D01*
X001281Y008411D01*
X001131Y008473D01*
X000968Y008473D01*
X000817Y008411D01*
X000702Y008296D01*
X000678Y008238D01*
X000678Y008890D01*
X000702Y008832D01*
X000817Y008717D01*
X000968Y008655D01*
X001131Y008655D01*
X001281Y008717D01*
X001396Y008832D01*
X001458Y008982D01*
X001458Y009145D01*
X001396Y009296D01*
X001281Y009411D01*
X001131Y009473D01*
X000968Y009473D01*
X000817Y009411D01*
X000702Y009296D01*
X000678Y009238D01*
X000678Y009890D01*
X000702Y009832D01*
X000817Y009717D01*
X000968Y009655D01*
X001131Y009655D01*
X001281Y009717D01*
X001396Y009832D01*
X001458Y009982D01*
X001458Y010145D01*
X001396Y010296D01*
X001281Y010411D01*
X001131Y010473D01*
X000968Y010473D01*
X000817Y010411D01*
X000702Y010296D01*
X000678Y010238D01*
X000678Y010890D01*
X000702Y010832D01*
X000817Y010717D01*
X000968Y010655D01*
X001131Y010655D01*
X001281Y010717D01*
X001396Y010832D01*
X001458Y010982D01*
X001458Y011145D01*
X001396Y011296D01*
X001281Y011411D01*
X001131Y011473D01*
X000968Y011473D01*
X000817Y011411D01*
X000702Y011296D01*
X000678Y011238D01*
X000678Y011680D01*
X000704Y011655D01*
X001394Y011655D01*
X001458Y011719D01*
X001458Y012409D01*
X001394Y012473D01*
X000704Y012473D01*
X000678Y012447D01*
X000678Y014035D01*
X002820Y014035D01*
X002820Y013069D01*
X002954Y012935D01*
X003320Y012569D01*
X003320Y012569D01*
X003454Y012435D01*
X003801Y012435D01*
X003802Y012432D01*
X003917Y012317D01*
X004068Y012255D01*
X004231Y012255D01*
X004239Y012258D01*
X005255Y011242D01*
X005255Y009978D01*
X005222Y009978D01*
X005170Y009926D01*
X005151Y009960D01*
X005123Y009988D01*
X005089Y010008D01*
X005051Y010018D01*
X004864Y010018D01*
X004864Y009721D01*
X004765Y009721D01*
X004765Y009622D01*
X004864Y009622D01*
X004864Y009326D01*
X005051Y009326D01*
X005089Y009336D01*
X005123Y009355D01*
X005151Y009383D01*
X005170Y009417D01*
X005170Y009417D01*
X005222Y009366D01*
X005227Y009366D01*
X005227Y005526D01*
X005266Y005432D01*
X005338Y005359D01*
X005433Y005320D01*
X005535Y005320D01*
X005571Y005335D01*
X005635Y005271D01*
X006159Y005271D01*
X006211Y005323D01*
X006211Y005323D01*
X006231Y005289D01*
X006258Y005261D01*
X006292Y005241D01*
X006330Y005231D01*
X006517Y005231D01*
X006517Y005528D01*
X006616Y005528D01*
X006616Y005626D01*
X006932Y005626D01*
X006932Y005794D01*
X006922Y005832D01*
X006902Y005866D01*
X006875Y005893D01*
X006841Y005913D01*
X006803Y005923D01*
X006616Y005923D01*
X006616Y005626D01*
X006517Y005626D01*
X006517Y005923D01*
X006330Y005923D01*
X006292Y005913D01*
X006258Y005893D01*
X006231Y005866D01*
X006211Y005832D01*
X006211Y005831D01*
X006159Y005883D01*
X005741Y005883D01*
X005741Y006534D01*
X005790Y006514D01*
X005887Y006514D01*
X005946Y006538D01*
X005946Y006516D01*
X006009Y006452D01*
X006533Y006452D01*
X006585Y006504D01*
X006585Y006504D01*
X006605Y006470D01*
X006632Y006442D01*
X006666Y006422D01*
X006704Y006412D01*
X006891Y006412D01*
X006891Y006709D01*
X006990Y006709D01*
X006990Y006807D01*
X007306Y006807D01*
X007306Y006975D01*
X007296Y007013D01*
X007276Y007047D01*
X007249Y007075D01*
X007215Y007094D01*
X007177Y007104D01*
X006990Y007104D01*
X006990Y006807D01*
X006891Y006807D01*
X006891Y007104D01*
X006704Y007104D01*
X006666Y007094D01*
X006632Y007075D01*
X006605Y007047D01*
X006585Y007013D01*
X006585Y007012D01*
X006533Y007064D01*
X006009Y007064D01*
X005946Y007000D01*
X005946Y006978D01*
X005887Y007002D01*
X005790Y007002D01*
X005741Y006982D01*
X005741Y007991D01*
X005790Y007971D01*
X005887Y007971D01*
X005926Y007987D01*
X005926Y007973D01*
X005990Y007909D01*
X006513Y007909D01*
X006565Y007961D01*
X006565Y007961D01*
X006585Y007926D01*
X006613Y007899D01*
X006647Y007879D01*
X006685Y007869D01*
X006872Y007869D01*
X006872Y008166D01*
X006970Y008166D01*
X006970Y008264D01*
X007287Y008264D01*
X007287Y008431D01*
X007276Y008469D01*
X007257Y008503D01*
X007229Y008531D01*
X007195Y008551D01*
X007157Y008561D01*
X006970Y008561D01*
X006970Y008264D01*
X006872Y008264D01*
X006872Y008561D01*
X006685Y008561D01*
X006647Y008551D01*
X006613Y008531D01*
X006585Y008503D01*
X006565Y008469D01*
X006513Y008521D01*
X005990Y008521D01*
X005926Y008457D01*
X005926Y008443D01*
X005887Y008459D01*
X005790Y008459D01*
X005741Y008439D01*
X005741Y008864D01*
X007425Y008864D01*
X007405Y008815D01*
X007405Y008718D01*
X007442Y008629D01*
X007442Y008600D01*
X007407Y008600D01*
X007343Y008536D01*
X007343Y008012D01*
X007395Y007960D01*
X007395Y007960D01*
X007361Y007941D01*
X007333Y007913D01*
X007313Y007879D01*
X007303Y007841D01*
X007303Y007654D01*
X007600Y007654D01*
X007600Y007556D01*
X007303Y007556D01*
X007303Y007369D01*
X007313Y007331D01*
X007333Y007297D01*
X007361Y007269D01*
X007395Y007249D01*
X007433Y007239D01*
X007600Y007239D01*
X007600Y007556D01*
X007698Y007556D01*
X007698Y007654D01*
X007995Y007654D01*
X007995Y007841D01*
X007985Y007879D01*
X007965Y007913D01*
X007938Y007941D01*
X007904Y007960D01*
X007903Y007960D01*
X007955Y008012D01*
X007955Y008536D01*
X007891Y008600D01*
X007857Y008600D01*
X007857Y008629D01*
X007893Y008718D01*
X007893Y008815D01*
X007873Y008864D01*
X009314Y008864D01*
X009400Y008778D01*
X009558Y008620D01*
X009558Y008619D01*
X009100Y008619D01*
X009048Y008568D01*
X009028Y008602D01*
X009001Y008630D01*
X008967Y008649D01*
X008929Y008659D01*
X008742Y008659D01*
X008742Y008363D01*
X008643Y008363D01*
X008643Y008659D01*
X008456Y008659D01*
X008418Y008649D01*
X008384Y008630D01*
X008357Y008602D01*
X008337Y008568D01*
X008327Y008530D01*
X008327Y008363D01*
X008643Y008363D01*
X008643Y008264D01*
X008327Y008264D01*
X008327Y008097D01*
X008337Y008059D01*
X008357Y008025D01*
X008384Y007997D01*
X008418Y007977D01*
X008456Y007967D01*
X008643Y007967D01*
X008643Y008264D01*
X008742Y008264D01*
X008742Y007967D01*
X008929Y007967D01*
X008967Y007977D01*
X009001Y007997D01*
X009028Y008025D01*
X009048Y008059D01*
X009048Y008059D01*
X009100Y008007D01*
X009558Y008007D01*
X009558Y007616D01*
X009120Y007616D01*
X009068Y007564D01*
X009048Y007598D01*
X009020Y007626D01*
X008986Y007645D01*
X008948Y007656D01*
X008761Y007656D01*
X008761Y007359D01*
X008663Y007359D01*
X008663Y007656D01*
X008476Y007656D01*
X008438Y007645D01*
X008404Y007626D01*
X008376Y007598D01*
X008357Y007564D01*
X008346Y007526D01*
X008346Y007359D01*
X008663Y007359D01*
X008663Y007260D01*
X008761Y007260D01*
X008761Y006963D01*
X008948Y006963D01*
X008986Y006974D01*
X009020Y006993D01*
X009048Y007021D01*
X009068Y007055D01*
X009068Y007055D01*
X009120Y007003D01*
X009185Y007003D01*
X009189Y006884D01*
X009157Y006807D01*
X009157Y006710D01*
X009194Y006620D01*
X009263Y006551D01*
X009353Y006514D01*
X009450Y006514D01*
X009540Y006551D01*
X009558Y006569D01*
X009558Y005487D01*
X009118Y005047D01*
X008782Y005047D01*
X008782Y005465D01*
X008730Y005517D01*
X008730Y005517D01*
X008764Y005537D01*
X008792Y005564D01*
X008812Y005598D01*
X008822Y005636D01*
X008822Y005823D01*
X008525Y005823D01*
X008525Y005922D01*
X008427Y005922D01*
X008427Y006238D01*
X008259Y006238D01*
X008222Y006228D01*
X008188Y006208D01*
X008160Y006181D01*
X008140Y006147D01*
X008130Y006109D01*
X008130Y005922D01*
X008427Y005922D01*
X008427Y005823D01*
X008130Y005823D01*
X008130Y005636D01*
X008140Y005598D01*
X008160Y005564D01*
X008188Y005537D01*
X008222Y005517D01*
X008170Y005465D01*
X008170Y005047D01*
X007873Y005047D01*
X007893Y005096D01*
X007893Y005193D01*
X007857Y005281D01*
X007857Y005310D01*
X007891Y005310D01*
X007955Y005374D01*
X007955Y005898D01*
X007903Y005950D01*
X007904Y005950D01*
X007938Y005970D01*
X007965Y005997D01*
X007985Y006031D01*
X007995Y006069D01*
X007995Y006256D01*
X007698Y006256D01*
X007698Y006355D01*
X007600Y006355D01*
X007600Y006671D01*
X007433Y006671D01*
X007395Y006661D01*
X007361Y006641D01*
X007333Y006614D01*
X007313Y006580D01*
X007306Y006553D01*
X007306Y006709D01*
X006990Y006709D01*
X006990Y006412D01*
X007177Y006412D01*
X007215Y006422D01*
X007249Y006442D01*
X007276Y006470D01*
X007296Y006504D01*
X007303Y006530D01*
X007303Y006355D01*
X007600Y006355D01*
X007600Y006256D01*
X007303Y006256D01*
X007303Y006069D01*
X007313Y006031D01*
X007333Y005997D01*
X007361Y005970D01*
X007395Y005950D01*
X007343Y005898D01*
X007343Y005374D01*
X007407Y005310D01*
X007442Y005310D01*
X007442Y005281D01*
X007405Y005193D01*
X007405Y005096D01*
X007425Y005047D01*
X006850Y005047D01*
X006756Y005008D01*
X006683Y004935D01*
X006644Y004841D01*
X006644Y004739D01*
X006683Y004644D01*
X006756Y004572D01*
X006850Y004533D01*
X009275Y004533D01*
X009370Y004572D01*
X009442Y004644D01*
X010032Y005235D01*
X010071Y005329D01*
X010071Y008778D01*
X010032Y008872D01*
X009981Y008924D01*
X010236Y009179D01*
X010276Y009179D01*
X010276Y009174D01*
X010328Y009122D01*
X010328Y009122D01*
X010294Y009102D01*
X010266Y009074D01*
X010246Y009040D01*
X010236Y009002D01*
X010236Y008815D01*
X010533Y008815D01*
X010533Y008717D01*
X010236Y008717D01*
X010236Y008530D01*
X010246Y008492D01*
X010247Y008491D01*
X010246Y008489D01*
X010236Y008451D01*
X010236Y008264D01*
X010533Y008264D01*
X010533Y008166D01*
X010236Y008166D01*
X010236Y007979D01*
X010246Y007941D01*
X010266Y007907D01*
X010294Y007879D01*
X010328Y007859D01*
X010276Y007807D01*
X010276Y007284D01*
X010340Y007220D01*
X010824Y007220D01*
X010888Y007284D01*
X010888Y007289D01*
X011005Y007289D01*
X011005Y007284D01*
X011069Y007220D01*
X011946Y007220D01*
X011973Y007247D01*
X012019Y007201D01*
X012109Y007164D01*
X012206Y007164D01*
X012295Y007201D01*
X012364Y007270D01*
X012401Y007359D01*
X012401Y007456D01*
X012364Y007546D01*
X012295Y007615D01*
X012207Y007651D01*
X012027Y007832D01*
X012010Y007832D01*
X012010Y007965D01*
X011946Y008029D01*
X011069Y008029D01*
X011005Y007965D01*
X011005Y007803D01*
X010888Y007803D01*
X010888Y007807D01*
X010836Y007859D01*
X010837Y007859D01*
X010871Y007879D01*
X010899Y007907D01*
X010918Y007941D01*
X010928Y007979D01*
X010928Y008166D01*
X010631Y008166D01*
X010631Y008264D01*
X010533Y008264D01*
X010533Y008717D01*
X010631Y008717D01*
X010631Y008400D01*
X010631Y008264D01*
X010928Y008264D01*
X010928Y008451D01*
X010918Y008489D01*
X010917Y008491D01*
X010918Y008492D01*
X010928Y008530D01*
X010928Y008717D01*
X010631Y008717D01*
X010631Y008815D01*
X010928Y008815D01*
X010928Y009002D01*
X010918Y009040D01*
X010899Y009074D01*
X010871Y009102D01*
X010837Y009122D01*
X010836Y009122D01*
X010888Y009174D01*
X010888Y009179D01*
X011005Y009179D01*
X011005Y009095D01*
X011069Y009031D01*
X011946Y009031D01*
X012010Y009095D01*
X012010Y009776D01*
X011946Y009840D01*
X011069Y009840D01*
X011005Y009776D01*
X011005Y009692D01*
X010888Y009692D01*
X010888Y009697D01*
X010824Y009761D01*
X010340Y009761D01*
X010276Y009697D01*
X010276Y009692D01*
X010078Y009692D01*
X009984Y009653D01*
X009912Y009581D01*
X009912Y009581D01*
X009618Y009287D01*
X009566Y009338D01*
X009472Y009377D01*
X007805Y009377D01*
X007857Y009430D01*
X007857Y009914D01*
X007793Y009978D01*
X007269Y009978D01*
X007217Y009926D01*
X007198Y009960D01*
X007170Y009988D01*
X007136Y010008D01*
X007098Y010018D01*
X006911Y010018D01*
X006911Y009721D01*
X006813Y009721D01*
X006813Y010018D01*
X006626Y010018D01*
X006588Y010008D01*
X006554Y009988D01*
X006526Y009960D01*
X006506Y009926D01*
X006496Y009888D01*
X006496Y009721D01*
X006813Y009721D01*
X006813Y009622D01*
X006496Y009622D01*
X006496Y009455D01*
X006506Y009417D01*
X006526Y009383D01*
X006532Y009377D01*
X005757Y009377D01*
X005810Y009430D01*
X005810Y009914D01*
X005746Y009978D01*
X005714Y009978D01*
X005714Y011432D01*
X005579Y011566D01*
X004558Y012588D01*
X004558Y012745D01*
X004496Y012896D01*
X004381Y013011D01*
X004231Y013073D01*
X004068Y013073D01*
X003917Y013011D01*
X003802Y012896D01*
X003801Y012893D01*
X003644Y012893D01*
X003278Y013259D01*
X003278Y014035D01*
X003895Y014035D01*
X003857Y014006D01*
X003807Y013956D01*
X003765Y013899D01*
X003733Y013836D01*
X003711Y013769D01*
X003702Y013713D01*
X004100Y013713D01*
X004100Y013615D01*
X003702Y013615D01*
X003711Y013559D01*
X003733Y013491D01*
X003765Y013428D01*
X003807Y013371D01*
X003857Y013321D01*
X003914Y013280D01*
X003977Y013247D01*
X004044Y013226D01*
X004100Y013217D01*
X004100Y013615D01*
X004198Y013615D01*
X004198Y013217D01*
X004254Y013226D01*
X004322Y013247D01*
X004385Y013280D01*
X004442Y013321D01*
X004492Y013371D01*
X004533Y013428D01*
X004566Y013491D01*
X004587Y013559D01*
X004596Y013615D01*
X004198Y013615D01*
X004198Y013713D01*
X004596Y013713D01*
X004587Y013769D01*
X004566Y013836D01*
X004533Y013899D01*
X004492Y013956D01*
X004442Y014006D01*
X004403Y014035D01*
X004975Y014035D01*
X004917Y014011D01*
X004802Y013896D01*
X004740Y013745D01*
X004740Y013582D01*
X004802Y013432D01*
X004917Y013317D01*
X005068Y013255D01*
X005231Y013255D01*
X005381Y013317D01*
X005496Y013432D01*
X005558Y013582D01*
X005558Y013745D01*
X005496Y013896D01*
X005381Y014011D01*
X005323Y014035D01*
X005975Y014035D01*
X005917Y014011D01*
X005802Y013896D01*
X005740Y013745D01*
X005740Y013582D01*
X005802Y013432D01*
X005917Y013317D01*
X006068Y013255D01*
X006231Y013255D01*
X006381Y013317D01*
X006496Y013432D01*
X006558Y013582D01*
X006558Y013745D01*
X006496Y013896D01*
X006381Y014011D01*
X006323Y014035D01*
X006975Y014035D01*
X006917Y014011D01*
X006802Y013896D01*
X006740Y013745D01*
X006740Y013582D01*
X006802Y013432D01*
X006917Y013317D01*
X007068Y013255D01*
X007231Y013255D01*
X007381Y013317D01*
X007496Y013432D01*
X007558Y013582D01*
X007558Y013745D01*
X007496Y013896D01*
X007381Y014011D01*
X007323Y014035D01*
X007975Y014035D01*
X007917Y014011D01*
X007802Y013896D01*
X007740Y013745D01*
X007740Y013582D01*
X007802Y013432D01*
X007917Y013317D01*
X008068Y013255D01*
X008231Y013255D01*
X008381Y013317D01*
X008496Y013432D01*
X008558Y013582D01*
X008558Y013745D01*
X008496Y013896D01*
X008381Y014011D01*
X008323Y014035D01*
X008975Y014035D01*
X008917Y014011D01*
X008802Y013896D01*
X008740Y013745D01*
X008740Y013582D01*
X008802Y013432D01*
X008917Y013317D01*
X009068Y013255D01*
X009231Y013255D01*
X009381Y013317D01*
X009496Y013432D01*
X009558Y013582D01*
X009558Y013745D01*
X009496Y013896D01*
X009381Y014011D01*
X009323Y014035D01*
X009975Y014035D01*
X009917Y014011D01*
X009802Y013896D01*
X009740Y013745D01*
X009740Y013582D01*
X009802Y013432D01*
X009917Y013317D01*
X010068Y013255D01*
X010231Y013255D01*
X010381Y013317D01*
X010496Y013432D01*
X010558Y013582D01*
X010558Y013745D01*
X010496Y013896D01*
X010381Y014011D01*
X010323Y014035D01*
X010766Y014035D01*
X010740Y014009D01*
X010740Y013319D01*
X010804Y013255D01*
X011494Y013255D01*
X011558Y013319D01*
X011558Y014009D01*
X011533Y014035D01*
X012954Y014035D01*
X013241Y013748D01*
X013240Y013745D01*
X013240Y013582D01*
X013302Y013432D01*
X013417Y013317D01*
X013568Y013255D01*
X013731Y013255D01*
X013881Y013317D01*
X013996Y013432D01*
X014058Y013582D01*
X014058Y013745D01*
X013996Y013896D01*
X013881Y014011D01*
X013731Y014073D01*
X013568Y014073D01*
X013565Y014072D01*
X013302Y014335D01*
X017273Y014335D01*
X017273Y000363D01*
X001673Y000363D01*
X001764Y000455D02*
X017273Y000455D01*
X017273Y000551D02*
X001861Y000551D01*
X001958Y000648D02*
X017273Y000648D01*
X017273Y000745D02*
X002309Y000745D01*
X002400Y000842D02*
X017273Y000842D01*
X017273Y000939D02*
X002441Y000939D01*
X002458Y001036D02*
X011847Y001036D01*
X011860Y001028D02*
X011898Y001018D01*
X012065Y001018D01*
X012065Y001335D01*
X011768Y001335D01*
X011768Y001148D01*
X011779Y001110D01*
X011798Y001076D01*
X011826Y001048D01*
X011860Y001028D01*
X011772Y001133D02*
X002458Y001133D01*
X002423Y001230D02*
X011768Y001230D01*
X011768Y001327D02*
X002365Y001327D01*
X002249Y001424D02*
X012065Y001424D01*
X012065Y001433D02*
X012065Y001335D01*
X012164Y001335D01*
X012164Y001433D01*
X012460Y001433D01*
X012460Y001620D01*
X012450Y001658D01*
X012431Y001692D01*
X012403Y001720D01*
X012369Y001740D01*
X012331Y001750D01*
X012164Y001750D01*
X012164Y001433D01*
X012065Y001433D01*
X011768Y001433D01*
X011768Y001620D01*
X011779Y001658D01*
X011798Y001692D01*
X011826Y001720D01*
X011860Y001740D01*
X011898Y001750D01*
X012065Y001750D01*
X012065Y001433D01*
X012065Y001521D02*
X012164Y001521D01*
X012164Y001618D02*
X012065Y001618D01*
X012065Y001715D02*
X012164Y001715D01*
X012408Y001715D02*
X013093Y001715D01*
X013085Y001726D02*
X013120Y001674D01*
X013164Y001630D01*
X013197Y001608D01*
X013132Y001543D01*
X013090Y001543D01*
X013090Y001646D01*
X013026Y001710D01*
X012542Y001710D01*
X012478Y001646D01*
X012478Y001122D01*
X012542Y001058D01*
X013026Y001058D01*
X013090Y001122D01*
X013090Y001226D01*
X013132Y001226D01*
X013209Y001149D01*
X013311Y001107D01*
X013759Y001107D01*
X013861Y001149D01*
X013939Y001227D01*
X013981Y001329D01*
X013981Y001439D01*
X013939Y001542D01*
X013873Y001608D01*
X013906Y001630D01*
X013950Y001674D01*
X013985Y001726D01*
X014009Y001784D01*
X014021Y001845D01*
X014021Y001876D01*
X013535Y001876D01*
X013049Y001876D01*
X013049Y001845D01*
X013061Y001784D01*
X013085Y001726D01*
X013056Y001812D02*
X002376Y001812D01*
X002396Y001832D02*
X002458Y001982D01*
X002458Y002145D01*
X002396Y002296D01*
X002281Y002411D01*
X002131Y002473D01*
X001968Y002473D01*
X001817Y002411D01*
X001702Y002296D01*
X001640Y002145D01*
X001640Y001982D01*
X001702Y001832D01*
X001817Y001717D01*
X001968Y001655D01*
X002131Y001655D01*
X002281Y001717D01*
X002396Y001832D01*
X002428Y001908D02*
X013049Y001908D01*
X013049Y001876D01*
X013535Y001876D01*
X013535Y001876D01*
X013535Y001876D01*
X014021Y001876D01*
X014021Y001908D01*
X014009Y001969D01*
X013985Y002027D01*
X013950Y002079D01*
X013906Y002123D01*
X013873Y002145D01*
X013939Y002211D01*
X013981Y002313D01*
X013981Y002424D01*
X013939Y002526D01*
X013861Y002604D01*
X013835Y002615D01*
X013861Y002625D01*
X013939Y002703D01*
X013981Y002805D01*
X013981Y002916D01*
X013939Y003018D01*
X013861Y003096D01*
X013759Y003138D01*
X013311Y003138D01*
X013209Y003096D01*
X013133Y003019D01*
X007915Y003022D01*
X006093Y004844D01*
X006093Y004912D01*
X006056Y005002D01*
X005988Y005071D01*
X005898Y005108D01*
X005801Y005108D01*
X005711Y005071D01*
X005642Y005002D01*
X005605Y004912D01*
X005605Y004815D01*
X005642Y004725D01*
X005711Y004657D01*
X005801Y004620D01*
X005869Y004620D01*
X007737Y002752D01*
X007784Y002705D01*
X007850Y002705D01*
X013132Y002702D01*
X013209Y002625D01*
X013235Y002615D01*
X013209Y002604D01*
X013132Y002527D01*
X007617Y002522D01*
X005793Y004437D01*
X005793Y004512D01*
X005756Y004602D01*
X005688Y004671D01*
X005598Y004708D01*
X005501Y004708D01*
X005411Y004671D01*
X005342Y004602D01*
X005305Y004512D01*
X005305Y004415D01*
X005342Y004325D01*
X005411Y004257D01*
X005501Y004220D01*
X005563Y004220D01*
X007391Y002300D01*
X007391Y002298D01*
X007436Y002253D01*
X007480Y002207D01*
X007482Y002207D01*
X007484Y002205D01*
X007547Y002205D01*
X007611Y002204D01*
X007613Y002205D01*
X013133Y002210D01*
X013197Y002145D01*
X013164Y002123D01*
X013120Y002079D01*
X013085Y002027D01*
X013061Y001969D01*
X013049Y001908D01*
X013076Y002005D02*
X002458Y002005D01*
X002458Y002102D02*
X013143Y002102D01*
X013143Y002199D02*
X002436Y002199D01*
X002396Y002296D02*
X007393Y002296D01*
X007303Y002393D02*
X002299Y002393D01*
X002201Y002684D02*
X007026Y002684D01*
X007118Y002587D02*
X000678Y002587D01*
X000678Y002684D02*
X000897Y002684D01*
X000754Y002781D02*
X000678Y002781D01*
X000678Y002878D02*
X000683Y002878D01*
X000678Y003265D02*
X000690Y003265D01*
X000678Y003362D02*
X000769Y003362D01*
X000678Y003459D02*
X000935Y003459D01*
X001164Y003459D02*
X001935Y003459D01*
X001968Y003473D02*
X001817Y003411D01*
X001702Y003296D01*
X001640Y003145D01*
X001640Y002982D01*
X001702Y002832D01*
X001817Y002717D01*
X001968Y002655D01*
X002131Y002655D01*
X002281Y002717D01*
X002396Y002832D01*
X002458Y002982D01*
X002458Y003145D01*
X002396Y003296D01*
X002281Y003411D01*
X002131Y003473D01*
X001968Y003473D01*
X001968Y003655D02*
X002131Y003655D01*
X002281Y003717D01*
X002396Y003832D01*
X002458Y003982D01*
X002458Y004145D01*
X002396Y004296D01*
X002281Y004411D01*
X002131Y004473D01*
X001968Y004473D01*
X001817Y004411D01*
X001702Y004296D01*
X001640Y004145D01*
X001640Y003982D01*
X001702Y003832D01*
X001817Y003717D01*
X001968Y003655D01*
X002164Y003459D02*
X006287Y003459D01*
X006379Y003362D02*
X002329Y003362D01*
X002409Y003265D02*
X006472Y003265D01*
X006564Y003168D02*
X002449Y003168D01*
X002458Y003072D02*
X006656Y003072D01*
X006749Y002975D02*
X002455Y002975D01*
X002415Y002878D02*
X006841Y002878D01*
X006933Y002781D02*
X002345Y002781D01*
X001897Y002684D02*
X001201Y002684D01*
X001345Y002781D02*
X001754Y002781D01*
X001683Y002878D02*
X001415Y002878D01*
X001455Y002975D02*
X001643Y002975D01*
X001640Y003072D02*
X001458Y003072D01*
X001449Y003168D02*
X001650Y003168D01*
X001690Y003265D02*
X001409Y003265D01*
X001329Y003362D02*
X001769Y003362D01*
X001784Y003750D02*
X001314Y003750D01*
X001402Y003847D02*
X001696Y003847D01*
X001656Y003944D02*
X001442Y003944D01*
X001458Y004041D02*
X001640Y004041D01*
X001640Y004138D02*
X001458Y004138D01*
X001421Y004235D02*
X001677Y004235D01*
X001738Y004332D02*
X001360Y004332D01*
X001238Y004428D02*
X001860Y004428D01*
X001968Y004655D02*
X002131Y004655D01*
X002281Y004717D01*
X002396Y004832D01*
X002458Y004982D01*
X002458Y005145D01*
X002396Y005296D01*
X002281Y005411D01*
X002131Y005473D01*
X001968Y005473D01*
X001817Y005411D01*
X001702Y005296D01*
X001640Y005145D01*
X001640Y004982D01*
X001702Y004832D01*
X001817Y004717D01*
X001968Y004655D01*
X001815Y004719D02*
X001283Y004719D01*
X001380Y004816D02*
X001718Y004816D01*
X001669Y004913D02*
X001430Y004913D01*
X001458Y005010D02*
X001640Y005010D01*
X001640Y005107D02*
X001458Y005107D01*
X001434Y005204D02*
X001664Y005204D01*
X001708Y005301D02*
X001391Y005301D01*
X001294Y005398D02*
X001804Y005398D01*
X001886Y005689D02*
X001213Y005689D01*
X001350Y005785D02*
X001749Y005785D01*
X001702Y005832D02*
X001817Y005717D01*
X001968Y005655D01*
X002131Y005655D01*
X002281Y005717D01*
X002396Y005832D01*
X002458Y005982D01*
X002458Y006145D01*
X002396Y006296D01*
X002281Y006411D01*
X002131Y006473D01*
X001968Y006473D01*
X001817Y006411D01*
X001702Y006296D01*
X001640Y006145D01*
X001640Y005982D01*
X001702Y005832D01*
X001681Y005882D02*
X001417Y005882D01*
X001457Y005979D02*
X001641Y005979D01*
X001640Y006076D02*
X001458Y006076D01*
X001447Y006173D02*
X001652Y006173D01*
X001692Y006270D02*
X001407Y006270D01*
X001325Y006367D02*
X001774Y006367D01*
X001946Y006464D02*
X001152Y006464D01*
X001138Y006658D02*
X001960Y006658D01*
X001968Y006655D02*
X001817Y006717D01*
X001702Y006832D01*
X001640Y006982D01*
X001640Y007145D01*
X001702Y007296D01*
X001817Y007411D01*
X001968Y007473D01*
X002131Y007473D01*
X002281Y007411D01*
X002396Y007296D01*
X002458Y007145D01*
X002458Y006982D01*
X002396Y006832D01*
X002281Y006717D01*
X002131Y006655D01*
X001968Y006655D01*
X002138Y006658D02*
X005227Y006658D01*
X005227Y006755D02*
X002319Y006755D01*
X002404Y006852D02*
X005227Y006852D01*
X005227Y006949D02*
X002444Y006949D01*
X002458Y007045D02*
X005227Y007045D01*
X005227Y007142D02*
X002458Y007142D01*
X002419Y007239D02*
X005227Y007239D01*
X005227Y007336D02*
X002355Y007336D01*
X002227Y007433D02*
X005227Y007433D01*
X005227Y007530D02*
X000678Y007530D01*
X000678Y007433D02*
X000872Y007433D01*
X000743Y007336D02*
X000678Y007336D01*
X000678Y007239D02*
X000679Y007239D01*
X000678Y007627D02*
X005227Y007627D01*
X005227Y007724D02*
X002288Y007724D01*
X002281Y007717D02*
X002396Y007832D01*
X002458Y007982D01*
X002458Y008145D01*
X002396Y008296D01*
X002281Y008411D01*
X002131Y008473D01*
X001968Y008473D01*
X001817Y008411D01*
X001702Y008296D01*
X001640Y008145D01*
X001640Y007982D01*
X001702Y007832D01*
X001817Y007717D01*
X001968Y007655D01*
X002131Y007655D01*
X002281Y007717D01*
X002385Y007821D02*
X005227Y007821D01*
X005227Y007918D02*
X002432Y007918D01*
X002458Y008015D02*
X005227Y008015D01*
X005227Y008112D02*
X002458Y008112D01*
X002432Y008209D02*
X005227Y008209D01*
X005227Y008306D02*
X002386Y008306D01*
X002289Y008402D02*
X005227Y008402D01*
X005227Y008499D02*
X000678Y008499D01*
X000678Y008402D02*
X000809Y008402D01*
X000712Y008306D02*
X000678Y008306D01*
X000678Y008596D02*
X005227Y008596D01*
X005227Y008693D02*
X002224Y008693D01*
X002281Y008717D02*
X002396Y008832D01*
X002458Y008982D01*
X002458Y009145D01*
X002396Y009296D01*
X002281Y009411D01*
X002131Y009473D01*
X001968Y009473D01*
X001817Y009411D01*
X001702Y009296D01*
X001640Y009145D01*
X001640Y008982D01*
X001702Y008832D01*
X001817Y008717D01*
X001968Y008655D01*
X002131Y008655D01*
X002281Y008717D01*
X002354Y008790D02*
X005227Y008790D01*
X005227Y008887D02*
X002419Y008887D01*
X002458Y008984D02*
X005227Y008984D01*
X005227Y009081D02*
X002458Y009081D01*
X002445Y009178D02*
X005227Y009178D01*
X005227Y009275D02*
X002405Y009275D01*
X002320Y009372D02*
X004490Y009372D01*
X004479Y009383D02*
X004506Y009355D01*
X004540Y009336D01*
X004578Y009326D01*
X004765Y009326D01*
X004765Y009622D01*
X004449Y009622D01*
X004449Y009455D01*
X004459Y009417D01*
X004479Y009383D01*
X004449Y009469D02*
X002141Y009469D01*
X001957Y009469D02*
X001141Y009469D01*
X000957Y009469D02*
X000678Y009469D01*
X000678Y009566D02*
X004449Y009566D01*
X004449Y009721D02*
X004765Y009721D01*
X004765Y010018D01*
X004578Y010018D01*
X004540Y010008D01*
X004506Y009988D01*
X004479Y009960D01*
X004459Y009926D01*
X004449Y009888D01*
X004449Y009721D01*
X004449Y009759D02*
X002324Y009759D01*
X002281Y009717D02*
X002396Y009832D01*
X002458Y009982D01*
X002458Y010145D01*
X002396Y010296D01*
X002281Y010411D01*
X002131Y010473D01*
X001968Y010473D01*
X001817Y010411D01*
X001702Y010296D01*
X001640Y010145D01*
X001640Y009982D01*
X001702Y009832D01*
X001817Y009717D01*
X001968Y009655D01*
X002131Y009655D01*
X002281Y009717D01*
X002150Y009662D02*
X004765Y009662D01*
X004765Y009566D02*
X004864Y009566D01*
X004864Y009469D02*
X004765Y009469D01*
X004765Y009372D02*
X004864Y009372D01*
X005139Y009372D02*
X005216Y009372D01*
X004864Y009759D02*
X004765Y009759D01*
X004765Y009856D02*
X004864Y009856D01*
X004864Y009953D02*
X004765Y009953D01*
X004475Y009953D02*
X002446Y009953D01*
X002458Y010050D02*
X005255Y010050D01*
X005255Y010147D02*
X002458Y010147D01*
X002417Y010244D02*
X005255Y010244D01*
X005255Y010341D02*
X002351Y010341D01*
X002215Y010438D02*
X005255Y010438D01*
X005255Y010535D02*
X000678Y010535D01*
X000678Y010632D02*
X005255Y010632D01*
X005255Y010729D02*
X002293Y010729D01*
X002281Y010717D02*
X002131Y010655D01*
X001968Y010655D01*
X001817Y010717D01*
X001702Y010832D01*
X001640Y010982D01*
X001640Y011145D01*
X001702Y011296D01*
X001817Y011411D01*
X001968Y011473D01*
X002131Y011473D01*
X002281Y011411D01*
X002396Y011296D01*
X002458Y011145D01*
X002458Y010982D01*
X002396Y010832D01*
X002281Y010717D01*
X002390Y010826D02*
X005255Y010826D01*
X005255Y010923D02*
X002434Y010923D01*
X002458Y011019D02*
X005255Y011019D01*
X005255Y011116D02*
X002458Y011116D01*
X002430Y011213D02*
X005255Y011213D01*
X005187Y011310D02*
X002381Y011310D01*
X002285Y011407D02*
X005091Y011407D01*
X004994Y011504D02*
X000678Y011504D01*
X000678Y011407D02*
X000814Y011407D01*
X000717Y011310D02*
X000678Y011310D01*
X000678Y011601D02*
X004897Y011601D01*
X004800Y011698D02*
X002235Y011698D01*
X002281Y011717D02*
X002396Y011832D01*
X002458Y011982D01*
X002458Y012145D01*
X002396Y012296D01*
X002281Y012411D01*
X002131Y012473D01*
X001968Y012473D01*
X001817Y012411D01*
X001702Y012296D01*
X001640Y012145D01*
X001640Y011982D01*
X001702Y011832D01*
X001817Y011717D01*
X001968Y011655D01*
X002131Y011655D01*
X002281Y011717D01*
X002359Y011795D02*
X004703Y011795D01*
X004606Y011892D02*
X002421Y011892D01*
X002458Y011989D02*
X004509Y011989D01*
X004412Y012086D02*
X002458Y012086D01*
X002443Y012183D02*
X004315Y012183D01*
X004008Y012279D02*
X002403Y012279D01*
X002315Y012376D02*
X003858Y012376D01*
X003416Y012473D02*
X000678Y012473D01*
X000678Y012570D02*
X003319Y012570D01*
X003222Y012667D02*
X000678Y012667D01*
X000678Y012764D02*
X003125Y012764D01*
X003028Y012861D02*
X000678Y012861D01*
X000678Y012958D02*
X002931Y012958D01*
X002834Y013055D02*
X000678Y013055D01*
X000678Y013152D02*
X002820Y013152D01*
X002820Y013249D02*
X000678Y013249D01*
X000678Y013346D02*
X002820Y013346D01*
X002820Y013443D02*
X000678Y013443D01*
X000678Y013539D02*
X002820Y013539D01*
X002820Y013636D02*
X000678Y013636D01*
X000678Y013733D02*
X002820Y013733D01*
X002820Y013830D02*
X000678Y013830D01*
X000678Y013927D02*
X002820Y013927D01*
X002820Y014024D02*
X000678Y014024D01*
X001458Y012376D02*
X001783Y012376D01*
X001696Y012279D02*
X001458Y012279D01*
X001458Y012183D02*
X001655Y012183D01*
X001640Y012086D02*
X001458Y012086D01*
X001458Y011989D02*
X001640Y011989D01*
X001678Y011892D02*
X001458Y011892D01*
X001458Y011795D02*
X001739Y011795D01*
X001863Y011698D02*
X001438Y011698D01*
X001285Y011407D02*
X001814Y011407D01*
X001717Y011310D02*
X001381Y011310D01*
X001430Y011213D02*
X001668Y011213D01*
X001640Y011116D02*
X001458Y011116D01*
X001458Y011019D02*
X001640Y011019D01*
X001665Y010923D02*
X001434Y010923D01*
X001390Y010826D02*
X001709Y010826D01*
X001806Y010729D02*
X001293Y010729D01*
X001215Y010438D02*
X001883Y010438D01*
X001748Y010341D02*
X001351Y010341D01*
X001417Y010244D02*
X001681Y010244D01*
X001641Y010147D02*
X001458Y010147D01*
X001458Y010050D02*
X001640Y010050D01*
X001652Y009953D02*
X001446Y009953D01*
X001406Y009856D02*
X001692Y009856D01*
X001775Y009759D02*
X001324Y009759D01*
X001150Y009662D02*
X001949Y009662D01*
X001778Y009372D02*
X001320Y009372D01*
X001405Y009275D02*
X001694Y009275D01*
X001654Y009178D02*
X001445Y009178D01*
X001458Y009081D02*
X001640Y009081D01*
X001640Y008984D02*
X001458Y008984D01*
X001419Y008887D02*
X001679Y008887D01*
X001744Y008790D02*
X001354Y008790D01*
X001224Y008693D02*
X001874Y008693D01*
X001809Y008402D02*
X001289Y008402D01*
X001386Y008306D02*
X001712Y008306D01*
X001666Y008209D02*
X001432Y008209D01*
X001458Y008112D02*
X001640Y008112D01*
X001640Y008015D02*
X001458Y008015D01*
X001432Y007918D02*
X001667Y007918D01*
X001713Y007821D02*
X001385Y007821D01*
X001288Y007724D02*
X001810Y007724D01*
X001872Y007433D02*
X001227Y007433D01*
X001355Y007336D02*
X001743Y007336D01*
X001679Y007239D02*
X001419Y007239D01*
X001458Y007142D02*
X001640Y007142D01*
X001640Y007045D02*
X001458Y007045D01*
X001444Y006949D02*
X001654Y006949D01*
X001694Y006852D02*
X001404Y006852D01*
X001319Y006755D02*
X001780Y006755D01*
X002152Y006464D02*
X005227Y006464D01*
X005227Y006561D02*
X000678Y006561D01*
X000678Y006658D02*
X000960Y006658D01*
X000946Y006464D02*
X000678Y006464D01*
X000678Y006367D02*
X000774Y006367D01*
X000692Y006270D02*
X000678Y006270D01*
X000678Y005882D02*
X000681Y005882D01*
X000678Y005785D02*
X000749Y005785D01*
X000678Y005689D02*
X000886Y005689D01*
X000678Y005592D02*
X005227Y005592D01*
X005227Y005689D02*
X002213Y005689D01*
X002350Y005785D02*
X005227Y005785D01*
X005227Y005882D02*
X002417Y005882D01*
X002457Y005979D02*
X005227Y005979D01*
X005227Y006076D02*
X002458Y006076D01*
X002447Y006173D02*
X005227Y006173D01*
X005227Y006270D02*
X002407Y006270D01*
X002325Y006367D02*
X005227Y006367D01*
X005741Y006367D02*
X007303Y006367D01*
X007303Y006464D02*
X007271Y006464D01*
X007306Y006561D02*
X007308Y006561D01*
X007306Y006658D02*
X007389Y006658D01*
X007306Y006852D02*
X009176Y006852D01*
X009187Y006949D02*
X007306Y006949D01*
X007277Y007045D02*
X008362Y007045D01*
X008357Y007055D02*
X008376Y007021D01*
X008404Y006993D01*
X008438Y006974D01*
X008476Y006963D01*
X008663Y006963D01*
X008663Y007260D01*
X008346Y007260D01*
X008346Y007093D01*
X008357Y007055D01*
X008346Y007142D02*
X005741Y007142D01*
X005741Y007045D02*
X005991Y007045D01*
X005741Y007239D02*
X007431Y007239D01*
X007312Y007336D02*
X005741Y007336D01*
X005741Y007433D02*
X007303Y007433D01*
X007303Y007530D02*
X005741Y007530D01*
X005741Y007627D02*
X007600Y007627D01*
X007600Y007530D02*
X007698Y007530D01*
X007698Y007556D02*
X007698Y007239D01*
X007866Y007239D01*
X007904Y007249D01*
X007938Y007269D01*
X007965Y007297D01*
X007985Y007331D01*
X007995Y007369D01*
X007995Y007556D01*
X007698Y007556D01*
X007698Y007627D02*
X008406Y007627D01*
X008348Y007530D02*
X007995Y007530D01*
X007995Y007433D02*
X008346Y007433D01*
X008346Y007239D02*
X007867Y007239D01*
X007987Y007336D02*
X008663Y007336D01*
X008663Y007239D02*
X008761Y007239D01*
X008761Y007142D02*
X008663Y007142D01*
X008663Y007045D02*
X008761Y007045D01*
X009062Y007045D02*
X009078Y007045D01*
X009157Y006755D02*
X006990Y006755D01*
X006990Y006852D02*
X006891Y006852D01*
X006891Y006949D02*
X006990Y006949D01*
X006990Y007045D02*
X006891Y007045D01*
X006604Y007045D02*
X006552Y007045D01*
X006891Y006658D02*
X006990Y006658D01*
X006990Y006561D02*
X006891Y006561D01*
X006891Y006464D02*
X006990Y006464D01*
X007303Y006173D02*
X005741Y006173D01*
X005741Y006076D02*
X007303Y006076D01*
X007351Y005979D02*
X005741Y005979D01*
X005741Y006270D02*
X007600Y006270D01*
X007600Y006367D02*
X007698Y006367D01*
X007698Y006355D02*
X007698Y006671D01*
X007866Y006671D01*
X007904Y006661D01*
X007938Y006641D01*
X007965Y006614D01*
X007985Y006580D01*
X007995Y006542D01*
X007995Y006355D01*
X007698Y006355D01*
X007698Y006270D02*
X009558Y006270D01*
X009558Y006173D02*
X008797Y006173D01*
X008792Y006181D02*
X008764Y006208D01*
X008730Y006228D01*
X008692Y006238D01*
X008525Y006238D01*
X008525Y005922D01*
X008822Y005922D01*
X008822Y006109D01*
X008812Y006147D01*
X008792Y006181D01*
X008822Y006076D02*
X009558Y006076D01*
X009558Y005979D02*
X008822Y005979D01*
X008822Y005785D02*
X009558Y005785D01*
X009558Y005689D02*
X008822Y005689D01*
X008808Y005592D02*
X009558Y005592D01*
X009558Y005495D02*
X008752Y005495D01*
X008782Y005398D02*
X009469Y005398D01*
X009372Y005301D02*
X008782Y005301D01*
X008782Y005204D02*
X009275Y005204D01*
X009178Y005107D02*
X008782Y005107D01*
X009420Y004622D02*
X013282Y004622D01*
X013378Y004525D02*
X006412Y004525D01*
X006509Y004428D02*
X013475Y004428D01*
X013572Y004332D02*
X006605Y004332D01*
X006702Y004235D02*
X013669Y004235D01*
X013766Y004138D02*
X006799Y004138D01*
X006896Y004041D02*
X013863Y004041D01*
X013889Y004015D02*
X013889Y003918D01*
X013953Y003854D01*
X014476Y003854D01*
X014540Y003918D01*
X014540Y004001D01*
X016522Y004001D01*
X016615Y004094D01*
X016847Y004326D01*
X017191Y004326D01*
X017254Y004390D01*
X017254Y004874D01*
X017191Y004938D01*
X016667Y004938D01*
X016603Y004874D01*
X016603Y004531D01*
X016391Y004318D01*
X014540Y004318D01*
X014540Y004402D01*
X014476Y004466D01*
X013953Y004466D01*
X013919Y004433D01*
X012795Y005557D01*
X012795Y005626D01*
X012758Y005715D01*
X012689Y005784D01*
X012599Y005821D01*
X012502Y005821D01*
X012412Y005784D01*
X012344Y005715D01*
X012307Y005626D01*
X012307Y005529D01*
X012344Y005439D01*
X012412Y005370D01*
X012502Y005333D01*
X012571Y005333D01*
X013810Y004094D01*
X013889Y004015D01*
X013889Y003944D02*
X006993Y003944D01*
X007090Y003847D02*
X017273Y003847D01*
X017273Y003944D02*
X014540Y003944D01*
X014215Y004160D02*
X016456Y004160D01*
X016929Y004632D01*
X017254Y004622D02*
X017273Y004622D01*
X017273Y004525D02*
X017254Y004525D01*
X017254Y004428D02*
X017273Y004428D01*
X017273Y004332D02*
X017196Y004332D01*
X017273Y004235D02*
X016755Y004235D01*
X016658Y004138D02*
X017273Y004138D01*
X017273Y004041D02*
X016561Y004041D01*
X016404Y004332D02*
X014540Y004332D01*
X014514Y004428D02*
X016501Y004428D01*
X016598Y004525D02*
X014479Y004525D01*
X014476Y004523D02*
X014540Y004587D01*
X014540Y005071D01*
X014476Y005135D01*
X014373Y005135D01*
X014373Y005154D01*
X014422Y005203D01*
X014459Y005292D01*
X014459Y005326D01*
X014464Y005330D01*
X014870Y005330D01*
X014922Y005382D01*
X014922Y005382D01*
X014942Y005348D01*
X014969Y005320D01*
X015003Y005300D01*
X015041Y005290D01*
X015228Y005290D01*
X015228Y005587D01*
X015327Y005587D01*
X015327Y005685D01*
X015643Y005685D01*
X015643Y005853D01*
X015633Y005891D01*
X015613Y005925D01*
X015586Y005952D01*
X015552Y005972D01*
X015514Y005982D01*
X015327Y005982D01*
X015327Y005685D01*
X015228Y005685D01*
X015228Y005982D01*
X015041Y005982D01*
X015003Y005972D01*
X014969Y005952D01*
X014942Y005925D01*
X014922Y005891D01*
X014922Y005890D01*
X014870Y005942D01*
X014346Y005942D01*
X014283Y005878D01*
X014283Y005590D01*
X014272Y005582D01*
X014263Y005585D01*
X014166Y005585D01*
X014076Y005548D01*
X014008Y005479D01*
X013970Y005390D01*
X013970Y005292D01*
X014008Y005203D01*
X014056Y005154D01*
X014056Y005135D01*
X013953Y005135D01*
X013889Y005071D01*
X013889Y004587D01*
X013953Y004523D01*
X014476Y004523D01*
X014540Y004622D02*
X016603Y004622D01*
X016603Y004719D02*
X014540Y004719D01*
X014540Y004816D02*
X016603Y004816D01*
X016642Y004913D02*
X014540Y004913D01*
X014540Y005010D02*
X016652Y005010D01*
X016667Y004996D02*
X017191Y004996D01*
X017254Y005059D01*
X017254Y005544D01*
X017191Y005608D01*
X017140Y005608D01*
X017173Y005686D01*
X017173Y005783D01*
X017136Y005873D01*
X017067Y005942D01*
X016977Y005979D01*
X016880Y005979D01*
X016790Y005942D01*
X016722Y005873D01*
X016685Y005783D01*
X016685Y005686D01*
X016717Y005608D01*
X016667Y005608D01*
X016603Y005544D01*
X016603Y005059D01*
X016667Y004996D01*
X016603Y005107D02*
X014505Y005107D01*
X014422Y005204D02*
X016603Y005204D01*
X016603Y005301D02*
X015553Y005301D01*
X015552Y005300D02*
X015586Y005320D01*
X015613Y005348D01*
X015633Y005382D01*
X015643Y005420D01*
X015643Y005587D01*
X015327Y005587D01*
X015327Y005290D01*
X015514Y005290D01*
X015552Y005300D01*
X015637Y005398D02*
X016603Y005398D01*
X016603Y005495D02*
X015643Y005495D01*
X015643Y005689D02*
X016685Y005689D01*
X016685Y005785D02*
X015643Y005785D01*
X015635Y005882D02*
X016731Y005882D01*
X016929Y005735D02*
X016929Y005302D01*
X017254Y005301D02*
X017273Y005301D01*
X017273Y005398D02*
X017254Y005398D01*
X017254Y005495D02*
X017273Y005495D01*
X017273Y005592D02*
X017207Y005592D01*
X017173Y005689D02*
X017273Y005689D01*
X017273Y005785D02*
X017172Y005785D01*
X017126Y005882D02*
X017273Y005882D01*
X017273Y005979D02*
X015525Y005979D01*
X015327Y005979D02*
X015228Y005979D01*
X015228Y005882D02*
X015327Y005882D01*
X015327Y005785D02*
X015228Y005785D01*
X015228Y005689D02*
X015327Y005689D01*
X015327Y005592D02*
X016651Y005592D01*
X017254Y005204D02*
X017273Y005204D01*
X017273Y005107D02*
X017254Y005107D01*
X017273Y005010D02*
X017205Y005010D01*
X017216Y004913D02*
X017273Y004913D01*
X017273Y004816D02*
X017254Y004816D01*
X017254Y004719D02*
X017273Y004719D01*
X017273Y003750D02*
X007187Y003750D01*
X007284Y003653D02*
X017273Y003653D01*
X017273Y003556D02*
X007381Y003556D01*
X007478Y003459D02*
X017273Y003459D01*
X017273Y003362D02*
X007575Y003362D01*
X007672Y003265D02*
X017273Y003265D01*
X017273Y003168D02*
X007769Y003168D01*
X007865Y003072D02*
X013185Y003072D01*
X013151Y002684D02*
X007463Y002684D01*
X007371Y002781D02*
X007708Y002781D01*
X007784Y002705D02*
X007784Y002705D01*
X007784Y002705D01*
X007849Y002864D02*
X013535Y002861D01*
X013885Y003072D02*
X017273Y003072D01*
X017273Y002975D02*
X013957Y002975D01*
X013981Y002878D02*
X017273Y002878D01*
X017273Y002781D02*
X013971Y002781D01*
X013919Y002684D02*
X017273Y002684D01*
X017273Y002587D02*
X013878Y002587D01*
X013954Y002490D02*
X017273Y002490D01*
X017273Y002393D02*
X013981Y002393D01*
X013974Y002296D02*
X017273Y002296D01*
X017273Y002199D02*
X013927Y002199D01*
X013927Y002102D02*
X017273Y002102D01*
X017273Y002005D02*
X013994Y002005D01*
X014021Y001908D02*
X017273Y001908D01*
X017273Y001812D02*
X014014Y001812D01*
X013977Y001715D02*
X017273Y001715D01*
X017273Y001618D02*
X013888Y001618D01*
X013947Y001521D02*
X017273Y001521D01*
X017273Y001424D02*
X013981Y001424D01*
X013980Y001327D02*
X017273Y001327D01*
X017273Y001230D02*
X013940Y001230D01*
X013822Y001133D02*
X017273Y001133D01*
X017273Y001036D02*
X012382Y001036D01*
X012369Y001028D02*
X012403Y001048D01*
X012431Y001076D01*
X012450Y001110D01*
X012460Y001148D01*
X012460Y001335D01*
X012164Y001335D01*
X012164Y001018D01*
X012331Y001018D01*
X012369Y001028D01*
X012456Y001133D02*
X012478Y001133D01*
X012478Y001230D02*
X012460Y001230D01*
X012460Y001327D02*
X012478Y001327D01*
X012478Y001424D02*
X012164Y001424D01*
X012164Y001327D02*
X012065Y001327D01*
X012065Y001230D02*
X012164Y001230D01*
X012164Y001133D02*
X012065Y001133D01*
X012065Y001036D02*
X012164Y001036D01*
X012460Y001521D02*
X012478Y001521D01*
X012478Y001618D02*
X012460Y001618D01*
X012784Y001384D02*
X012784Y001384D01*
X013535Y001384D01*
X013248Y001133D02*
X013090Y001133D01*
X013090Y001618D02*
X013182Y001618D01*
X013535Y002369D02*
X007549Y002364D01*
X005549Y004464D01*
X005362Y004622D02*
X000678Y004622D01*
X000678Y004525D02*
X005310Y004525D01*
X005305Y004428D02*
X002238Y004428D01*
X002360Y004332D02*
X005340Y004332D01*
X005464Y004235D02*
X002421Y004235D01*
X002458Y004138D02*
X005641Y004138D01*
X005733Y004041D02*
X002458Y004041D01*
X002442Y003944D02*
X005826Y003944D01*
X005918Y003847D02*
X002402Y003847D01*
X002314Y003750D02*
X006010Y003750D01*
X006103Y003653D02*
X000678Y003653D01*
X000678Y003556D02*
X006195Y003556D01*
X006448Y003750D02*
X006739Y003750D01*
X006836Y003653D02*
X006540Y003653D01*
X006632Y003556D02*
X006933Y003556D01*
X007030Y003459D02*
X006725Y003459D01*
X006817Y003362D02*
X007127Y003362D01*
X007224Y003265D02*
X006909Y003265D01*
X007002Y003168D02*
X007320Y003168D01*
X007417Y003072D02*
X007094Y003072D01*
X007186Y002975D02*
X007514Y002975D01*
X007611Y002878D02*
X007279Y002878D01*
X007555Y002587D02*
X013192Y002587D01*
X011821Y001715D02*
X002276Y001715D01*
X001823Y001715D02*
X001276Y001715D01*
X001376Y001812D02*
X001723Y001812D01*
X001671Y001908D02*
X001428Y001908D01*
X001458Y002005D02*
X001640Y002005D01*
X001640Y002102D02*
X001458Y002102D01*
X001436Y002199D02*
X001662Y002199D01*
X001703Y002296D02*
X001396Y002296D01*
X001299Y002393D02*
X001800Y002393D01*
X000800Y002393D02*
X000678Y002393D01*
X000678Y002296D02*
X000703Y002296D01*
X000678Y002490D02*
X007210Y002490D01*
X007849Y002864D02*
X005849Y004864D01*
X005650Y005010D02*
X002458Y005010D01*
X002458Y005107D02*
X005798Y005107D01*
X005900Y005107D02*
X007405Y005107D01*
X007410Y005204D02*
X002434Y005204D01*
X002391Y005301D02*
X005606Y005301D01*
X005571Y005335D02*
X005571Y005335D01*
X005300Y005398D02*
X002294Y005398D01*
X002430Y004913D02*
X005605Y004913D01*
X005605Y004816D02*
X002380Y004816D01*
X002283Y004719D02*
X005648Y004719D01*
X005736Y004622D02*
X005794Y004622D01*
X005788Y004525D02*
X005964Y004525D01*
X006060Y004428D02*
X005802Y004428D01*
X005894Y004332D02*
X006157Y004332D01*
X006254Y004235D02*
X005986Y004235D01*
X006079Y004138D02*
X006351Y004138D01*
X006448Y004041D02*
X006171Y004041D01*
X006263Y003944D02*
X006545Y003944D01*
X006642Y003847D02*
X006355Y003847D01*
X006315Y004622D02*
X006705Y004622D01*
X006652Y004719D02*
X006218Y004719D01*
X006121Y004816D02*
X006644Y004816D01*
X006674Y004913D02*
X006093Y004913D01*
X006048Y005010D02*
X006762Y005010D01*
X006803Y005231D02*
X006616Y005231D01*
X006616Y005528D01*
X006932Y005528D01*
X006932Y005361D01*
X006922Y005323D01*
X006902Y005289D01*
X006875Y005261D01*
X006841Y005241D01*
X006803Y005231D01*
X006909Y005301D02*
X007442Y005301D01*
X007343Y005398D02*
X006932Y005398D01*
X006932Y005495D02*
X007343Y005495D01*
X007343Y005592D02*
X006616Y005592D01*
X006616Y005689D02*
X006517Y005689D01*
X006517Y005785D02*
X006616Y005785D01*
X006616Y005882D02*
X006517Y005882D01*
X006247Y005882D02*
X006160Y005882D01*
X006517Y005495D02*
X006616Y005495D01*
X006616Y005398D02*
X006517Y005398D01*
X006517Y005301D02*
X006616Y005301D01*
X006932Y005689D02*
X007343Y005689D01*
X007343Y005785D02*
X006932Y005785D01*
X006886Y005882D02*
X007343Y005882D01*
X007395Y005950D02*
X007395Y005950D01*
X007947Y005979D02*
X008130Y005979D01*
X008130Y006076D02*
X007995Y006076D01*
X007995Y006173D02*
X008155Y006173D01*
X007995Y006367D02*
X009558Y006367D01*
X009558Y006464D02*
X007995Y006464D01*
X007990Y006561D02*
X009253Y006561D01*
X009178Y006658D02*
X007909Y006658D01*
X007698Y006658D02*
X007600Y006658D01*
X007600Y006561D02*
X007698Y006561D01*
X007698Y006464D02*
X007600Y006464D01*
X007955Y005882D02*
X008427Y005882D01*
X008427Y005979D02*
X008525Y005979D01*
X008525Y005882D02*
X009558Y005882D01*
X010071Y005882D02*
X014287Y005882D01*
X014283Y005785D02*
X012686Y005785D01*
X012769Y005689D02*
X014283Y005689D01*
X014283Y005592D02*
X012795Y005592D01*
X012857Y005495D02*
X014023Y005495D01*
X013974Y005398D02*
X012954Y005398D01*
X013051Y005301D02*
X013970Y005301D01*
X014007Y005204D02*
X013148Y005204D01*
X013245Y005107D02*
X013925Y005107D01*
X013889Y005010D02*
X013342Y005010D01*
X013439Y004913D02*
X013889Y004913D01*
X013889Y004816D02*
X013536Y004816D01*
X013633Y004719D02*
X013889Y004719D01*
X013889Y004622D02*
X013730Y004622D01*
X013827Y004525D02*
X013950Y004525D01*
X013968Y004160D02*
X014215Y004160D01*
X013968Y004160D02*
X012551Y005577D01*
X012385Y005398D02*
X010071Y005398D01*
X010071Y005495D02*
X012321Y005495D01*
X012307Y005592D02*
X010071Y005592D01*
X010071Y005689D02*
X012333Y005689D01*
X012415Y005785D02*
X010071Y005785D01*
X010071Y005979D02*
X015030Y005979D01*
X014907Y006076D02*
X017273Y006076D01*
X017273Y006173D02*
X014976Y006173D01*
X014993Y006215D02*
X014993Y006284D01*
X015508Y006798D01*
X015508Y011329D01*
X015415Y011422D01*
X015308Y011529D01*
X015308Y012427D01*
X015417Y012317D01*
X015568Y012255D01*
X015731Y012255D01*
X015881Y012317D01*
X015996Y012432D01*
X016058Y012582D01*
X016058Y012745D01*
X015996Y012896D01*
X015881Y013011D01*
X015731Y013073D01*
X015568Y013073D01*
X015417Y013011D01*
X015308Y012901D01*
X015308Y013229D01*
X015028Y013509D01*
X015058Y013582D01*
X015058Y013745D01*
X014996Y013896D01*
X014881Y014011D01*
X014731Y014073D01*
X014568Y014073D01*
X014417Y014011D01*
X014302Y013896D01*
X014240Y013745D01*
X014240Y013582D01*
X014302Y013432D01*
X014417Y013317D01*
X014568Y013255D01*
X014731Y013255D01*
X014804Y013285D01*
X014991Y013098D01*
X014991Y012901D01*
X014881Y013011D01*
X014731Y013073D01*
X014568Y013073D01*
X014417Y013011D01*
X014302Y012896D01*
X014240Y012745D01*
X014240Y012582D01*
X014302Y012432D01*
X014417Y012317D01*
X014568Y012255D01*
X014731Y012255D01*
X014881Y012317D01*
X014991Y012427D01*
X014991Y011398D01*
X015191Y011198D01*
X015191Y009389D01*
X015173Y009432D01*
X015067Y009538D01*
X014929Y009595D01*
X014779Y009595D01*
X014641Y009538D01*
X014535Y009432D01*
X014506Y009361D01*
X014501Y009370D01*
X014473Y009397D01*
X014439Y009417D01*
X014401Y009427D01*
X014037Y009427D01*
X014037Y008579D01*
X013939Y008579D01*
X013939Y009427D01*
X013574Y009427D01*
X013536Y009417D01*
X013502Y009397D01*
X013475Y009370D01*
X013455Y009336D01*
X013445Y009298D01*
X013445Y008579D01*
X013939Y008579D01*
X013939Y008481D01*
X014037Y008481D01*
X014037Y007633D01*
X014401Y007633D01*
X014439Y007643D01*
X014473Y007662D01*
X014501Y007690D01*
X014506Y007698D01*
X014535Y007628D01*
X014641Y007522D01*
X014779Y007465D01*
X014929Y007465D01*
X015067Y007522D01*
X015173Y007628D01*
X015191Y007671D01*
X015191Y006929D01*
X014769Y006508D01*
X014701Y006508D01*
X014611Y006471D01*
X014542Y006402D01*
X014505Y006312D01*
X014505Y006215D01*
X014542Y006125D01*
X014611Y006057D01*
X014701Y006020D01*
X014798Y006020D01*
X014888Y006057D01*
X014956Y006125D01*
X014993Y006215D01*
X014993Y006270D02*
X017273Y006270D01*
X017273Y006367D02*
X015076Y006367D01*
X015173Y006464D02*
X017273Y006464D01*
X017273Y006561D02*
X015270Y006561D01*
X015367Y006658D02*
X017273Y006658D01*
X017273Y006755D02*
X016476Y006755D01*
X016458Y006747D02*
X016585Y006800D01*
X016682Y006897D01*
X016735Y007024D01*
X016735Y007162D01*
X016682Y007289D01*
X016585Y007386D01*
X016458Y007438D01*
X015848Y007438D01*
X015721Y007386D01*
X015624Y007289D01*
X015571Y007162D01*
X015571Y007024D01*
X015624Y006897D01*
X015721Y006800D01*
X015848Y006747D01*
X016458Y006747D01*
X016637Y006852D02*
X017273Y006852D01*
X017273Y006949D02*
X016703Y006949D01*
X016735Y007045D02*
X017273Y007045D01*
X017273Y007142D02*
X016735Y007142D01*
X016703Y007239D02*
X017273Y007239D01*
X017273Y007336D02*
X016635Y007336D01*
X016471Y007433D02*
X017273Y007433D01*
X017273Y007530D02*
X015508Y007530D01*
X015508Y007433D02*
X015836Y007433D01*
X015672Y007336D02*
X015508Y007336D01*
X015508Y007239D02*
X015604Y007239D01*
X015571Y007142D02*
X015508Y007142D01*
X015508Y007045D02*
X015571Y007045D01*
X015603Y006949D02*
X015508Y006949D01*
X015508Y006852D02*
X015670Y006852D01*
X015831Y006755D02*
X015464Y006755D01*
X015349Y006864D02*
X014749Y006264D01*
X014505Y006270D02*
X013275Y006270D01*
X013256Y006225D02*
X013293Y006315D01*
X013293Y006412D01*
X013256Y006502D01*
X013188Y006571D01*
X013098Y006608D01*
X013001Y006608D01*
X012911Y006571D01*
X012890Y006550D01*
X012890Y006626D01*
X012826Y006690D01*
X012342Y006690D01*
X012278Y006626D01*
X012278Y006102D01*
X012342Y006038D01*
X012826Y006038D01*
X012890Y006102D01*
X012890Y006178D01*
X012911Y006157D01*
X013001Y006120D01*
X013098Y006120D01*
X013188Y006157D01*
X013256Y006225D01*
X013204Y006173D02*
X014522Y006173D01*
X014591Y006076D02*
X012864Y006076D01*
X012890Y006173D02*
X012894Y006173D01*
X013049Y006364D02*
X012584Y006364D01*
X012278Y006367D02*
X012221Y006367D01*
X012221Y006270D02*
X012278Y006270D01*
X012278Y006173D02*
X012221Y006173D01*
X012221Y006102D02*
X012157Y006038D01*
X011672Y006038D01*
X011609Y006102D01*
X011609Y006178D01*
X011588Y006157D01*
X011498Y006120D01*
X011401Y006120D01*
X011311Y006157D01*
X011242Y006225D01*
X011205Y006315D01*
X011205Y006412D01*
X011242Y006502D01*
X011311Y006571D01*
X011401Y006608D01*
X011498Y006608D01*
X011588Y006571D01*
X011609Y006550D01*
X011609Y006626D01*
X011672Y006690D01*
X012157Y006690D01*
X012221Y006626D01*
X012221Y006102D01*
X012195Y006076D02*
X012304Y006076D01*
X011915Y006364D02*
X011449Y006364D01*
X011294Y006173D02*
X010071Y006173D01*
X010071Y006076D02*
X011634Y006076D01*
X011609Y006173D02*
X011604Y006173D01*
X011598Y006561D02*
X011609Y006561D01*
X011641Y006658D02*
X010071Y006658D01*
X010071Y006755D02*
X013744Y006755D01*
X013762Y006747D02*
X013635Y006800D01*
X013537Y006897D01*
X013485Y007024D01*
X013485Y007162D01*
X013537Y007289D01*
X013635Y007386D01*
X013762Y007438D01*
X014371Y007438D01*
X014498Y007386D01*
X014596Y007289D01*
X014648Y007162D01*
X014648Y007024D01*
X014596Y006897D01*
X014498Y006800D01*
X014371Y006747D01*
X013762Y006747D01*
X013583Y006852D02*
X010071Y006852D01*
X010071Y006949D02*
X013516Y006949D01*
X013485Y007045D02*
X010071Y007045D01*
X010071Y007142D02*
X013485Y007142D01*
X013517Y007239D02*
X012334Y007239D01*
X012392Y007336D02*
X013585Y007336D01*
X013749Y007433D02*
X012401Y007433D01*
X012371Y007530D02*
X014632Y007530D01*
X014536Y007627D02*
X012266Y007627D01*
X012135Y007724D02*
X013455Y007724D01*
X013475Y007690D01*
X013502Y007662D01*
X013536Y007643D01*
X013574Y007633D01*
X013939Y007633D01*
X013939Y008481D01*
X013445Y008481D01*
X013445Y007762D01*
X013455Y007724D01*
X013445Y007821D02*
X012038Y007821D01*
X012010Y007918D02*
X013445Y007918D01*
X013445Y008015D02*
X011961Y008015D01*
X011959Y008096D02*
X011993Y008115D01*
X012021Y008143D01*
X012040Y008177D01*
X012050Y008215D01*
X012050Y008481D01*
X011557Y008481D01*
X011557Y008579D01*
X012050Y008579D01*
X012050Y008845D01*
X012040Y008883D01*
X012021Y008917D01*
X011993Y008945D01*
X011959Y008964D01*
X011921Y008974D01*
X011557Y008974D01*
X011557Y008579D01*
X011458Y008579D01*
X011458Y008481D01*
X010965Y008481D01*
X010965Y008215D01*
X010975Y008177D01*
X010994Y008143D01*
X011022Y008115D01*
X011056Y008096D01*
X011094Y008085D01*
X011458Y008085D01*
X011458Y008481D01*
X011557Y008481D01*
X011557Y008085D01*
X011921Y008085D01*
X011959Y008096D01*
X011987Y008112D02*
X013445Y008112D01*
X013445Y008209D02*
X012049Y008209D01*
X012050Y008306D02*
X013445Y008306D01*
X013445Y008402D02*
X012050Y008402D01*
X012050Y008596D02*
X013445Y008596D01*
X013445Y008693D02*
X012050Y008693D01*
X012050Y008790D02*
X013445Y008790D01*
X013445Y008887D02*
X012038Y008887D01*
X011996Y009081D02*
X013445Y009081D01*
X013445Y009178D02*
X012010Y009178D01*
X012010Y009275D02*
X013445Y009275D01*
X013477Y009372D02*
X012010Y009372D01*
X012010Y009469D02*
X014571Y009469D01*
X014510Y009372D02*
X014499Y009372D01*
X014371Y009621D02*
X014498Y009674D01*
X014596Y009771D01*
X014648Y009898D01*
X014648Y010036D01*
X014596Y010163D01*
X014498Y010260D01*
X014371Y010312D01*
X013762Y010312D01*
X013635Y010260D01*
X013537Y010163D01*
X013485Y010036D01*
X013485Y009898D01*
X013537Y009771D01*
X013635Y009674D01*
X013762Y009621D01*
X014371Y009621D01*
X014470Y009662D02*
X015191Y009662D01*
X015191Y009566D02*
X015001Y009566D01*
X015136Y009469D02*
X015191Y009469D01*
X015191Y009759D02*
X014584Y009759D01*
X014631Y009856D02*
X015191Y009856D01*
X015191Y009953D02*
X014648Y009953D01*
X014642Y010050D02*
X015191Y010050D01*
X015191Y010147D02*
X014602Y010147D01*
X014514Y010244D02*
X015191Y010244D01*
X015191Y010341D02*
X005714Y010341D01*
X005714Y010438D02*
X015191Y010438D01*
X015191Y010535D02*
X005714Y010535D01*
X005714Y010632D02*
X015191Y010632D01*
X015191Y010729D02*
X005714Y010729D01*
X005714Y010826D02*
X015191Y010826D01*
X015191Y010923D02*
X005714Y010923D01*
X005714Y011019D02*
X015191Y011019D01*
X015191Y011116D02*
X005714Y011116D01*
X005714Y011213D02*
X015176Y011213D01*
X015079Y011310D02*
X005714Y011310D01*
X005714Y011407D02*
X014991Y011407D01*
X014991Y011504D02*
X005642Y011504D01*
X005545Y011601D02*
X014991Y011601D01*
X014991Y011698D02*
X005448Y011698D01*
X005351Y011795D02*
X014991Y011795D01*
X014991Y011892D02*
X005254Y011892D01*
X005157Y011989D02*
X014991Y011989D01*
X014991Y012086D02*
X005060Y012086D01*
X004963Y012183D02*
X014991Y012183D01*
X014991Y012279D02*
X014791Y012279D01*
X014941Y012376D02*
X014991Y012376D01*
X015308Y012376D02*
X015358Y012376D01*
X015308Y012279D02*
X015508Y012279D01*
X015308Y012183D02*
X017273Y012183D01*
X017273Y012279D02*
X016791Y012279D01*
X016731Y012255D02*
X016881Y012317D01*
X016996Y012432D01*
X017058Y012582D01*
X017058Y012745D01*
X016996Y012896D01*
X016881Y013011D01*
X016731Y013073D01*
X016568Y013073D01*
X016417Y013011D01*
X016302Y012896D01*
X016240Y012745D01*
X016240Y012582D01*
X016302Y012432D01*
X016417Y012317D01*
X016568Y012255D01*
X016731Y012255D01*
X016508Y012279D02*
X015791Y012279D01*
X015941Y012376D02*
X016358Y012376D01*
X016285Y012473D02*
X016013Y012473D01*
X016053Y012570D02*
X016245Y012570D01*
X016240Y012667D02*
X016058Y012667D01*
X016051Y012764D02*
X016248Y012764D01*
X016288Y012861D02*
X016010Y012861D01*
X015934Y012958D02*
X016365Y012958D01*
X016524Y013055D02*
X015774Y013055D01*
X015754Y013226D02*
X015698Y013217D01*
X015698Y013615D01*
X015600Y013615D01*
X015202Y013615D01*
X015211Y013559D01*
X015233Y013491D01*
X015265Y013428D01*
X015307Y013371D01*
X015357Y013321D01*
X015414Y013280D01*
X015477Y013247D01*
X015544Y013226D01*
X015600Y013217D01*
X015600Y013615D01*
X015600Y013713D01*
X015600Y014111D01*
X015544Y014102D01*
X015477Y014080D01*
X015414Y014048D01*
X015357Y014006D01*
X015307Y013956D01*
X015265Y013899D01*
X015233Y013836D01*
X015211Y013769D01*
X015202Y013713D01*
X015600Y013713D01*
X015698Y013713D01*
X015698Y014111D01*
X015754Y014102D01*
X015822Y014080D01*
X015885Y014048D01*
X015942Y014006D01*
X015992Y013956D01*
X016033Y013899D01*
X016066Y013836D01*
X016087Y013769D01*
X016096Y013713D01*
X015698Y013713D01*
X015698Y013615D01*
X016096Y013615D01*
X016087Y013559D01*
X016066Y013491D01*
X016033Y013428D01*
X015992Y013371D01*
X015942Y013321D01*
X015885Y013280D01*
X015822Y013247D01*
X015754Y013226D01*
X015698Y013249D02*
X015600Y013249D01*
X015600Y013346D02*
X015698Y013346D01*
X015698Y013443D02*
X015600Y013443D01*
X015600Y013539D02*
X015698Y013539D01*
X015698Y013636D02*
X016600Y013636D01*
X016600Y013615D02*
X016202Y013615D01*
X016211Y013559D01*
X016233Y013491D01*
X016265Y013428D01*
X016307Y013371D01*
X016357Y013321D01*
X016414Y013280D01*
X016477Y013247D01*
X016544Y013226D01*
X016600Y013217D01*
X016600Y013615D01*
X016600Y013713D01*
X016600Y014111D01*
X016544Y014102D01*
X016477Y014080D01*
X016414Y014048D01*
X016357Y014006D01*
X016307Y013956D01*
X016265Y013899D01*
X016233Y013836D01*
X016211Y013769D01*
X016202Y013713D01*
X016600Y013713D01*
X016698Y013713D01*
X016698Y014111D01*
X016754Y014102D01*
X016822Y014080D01*
X016885Y014048D01*
X016942Y014006D01*
X016992Y013956D01*
X017033Y013899D01*
X017066Y013836D01*
X017087Y013769D01*
X017096Y013713D01*
X016698Y013713D01*
X016698Y013615D01*
X016698Y013217D01*
X016754Y013226D01*
X016822Y013247D01*
X016885Y013280D01*
X016942Y013321D01*
X016992Y013371D01*
X017033Y013428D01*
X017066Y013491D01*
X017087Y013559D01*
X017096Y013615D01*
X016698Y013615D01*
X016600Y013615D01*
X016600Y013539D02*
X016698Y013539D01*
X016698Y013443D02*
X016600Y013443D01*
X016600Y013346D02*
X016698Y013346D01*
X016698Y013249D02*
X016600Y013249D01*
X016474Y013249D02*
X015824Y013249D01*
X015966Y013346D02*
X016332Y013346D01*
X016258Y013443D02*
X016041Y013443D01*
X016081Y013539D02*
X016217Y013539D01*
X016205Y013733D02*
X016093Y013733D01*
X016067Y013830D02*
X016231Y013830D01*
X016285Y013927D02*
X016013Y013927D01*
X015917Y014024D02*
X016381Y014024D01*
X016600Y014024D02*
X016698Y014024D01*
X016698Y013927D02*
X016600Y013927D01*
X016600Y013830D02*
X016698Y013830D01*
X016698Y013733D02*
X016600Y013733D01*
X016698Y013636D02*
X017273Y013636D01*
X017273Y013539D02*
X017081Y013539D01*
X017041Y013443D02*
X017273Y013443D01*
X017273Y013346D02*
X016966Y013346D01*
X016824Y013249D02*
X017273Y013249D01*
X017273Y013152D02*
X015308Y013152D01*
X015308Y013055D02*
X015524Y013055D01*
X015365Y012958D02*
X015308Y012958D01*
X015149Y013164D02*
X014649Y013664D01*
X014334Y013927D02*
X013965Y013927D01*
X014023Y013830D02*
X014275Y013830D01*
X014240Y013733D02*
X014058Y013733D01*
X014058Y013636D02*
X014240Y013636D01*
X014258Y013539D02*
X014041Y013539D01*
X014001Y013443D02*
X014298Y013443D01*
X014389Y013346D02*
X013910Y013346D01*
X013994Y013073D02*
X013304Y013073D01*
X013240Y013009D01*
X013240Y012319D01*
X013304Y012255D01*
X013994Y012255D01*
X014058Y012319D01*
X014058Y013009D01*
X013994Y013073D01*
X014013Y013055D02*
X014524Y013055D01*
X014365Y012958D02*
X014058Y012958D01*
X014058Y012861D02*
X014288Y012861D01*
X014248Y012764D02*
X014058Y012764D01*
X014058Y012667D02*
X014240Y012667D01*
X014245Y012570D02*
X014058Y012570D01*
X014058Y012473D02*
X014285Y012473D01*
X014358Y012376D02*
X014058Y012376D01*
X014019Y012279D02*
X014508Y012279D01*
X015308Y012086D02*
X017273Y012086D01*
X017273Y011989D02*
X015308Y011989D01*
X015308Y011892D02*
X017273Y011892D01*
X017273Y011795D02*
X015308Y011795D01*
X015308Y011698D02*
X017273Y011698D01*
X017273Y011601D02*
X015308Y011601D01*
X015333Y011504D02*
X017273Y011504D01*
X017273Y011407D02*
X015430Y011407D01*
X015508Y011310D02*
X017273Y011310D01*
X017273Y011213D02*
X015508Y011213D01*
X015508Y011116D02*
X017273Y011116D01*
X017273Y011019D02*
X015508Y011019D01*
X015508Y010923D02*
X017273Y010923D01*
X017273Y010826D02*
X015508Y010826D01*
X015508Y010729D02*
X017273Y010729D01*
X017273Y010632D02*
X015508Y010632D01*
X015508Y010535D02*
X017273Y010535D01*
X017273Y010438D02*
X015508Y010438D01*
X015508Y010341D02*
X017273Y010341D01*
X017273Y010244D02*
X016601Y010244D01*
X016585Y010260D02*
X016458Y010312D01*
X015848Y010312D01*
X015721Y010260D01*
X015624Y010163D01*
X015571Y010036D01*
X015571Y009898D01*
X015624Y009771D01*
X015721Y009674D01*
X015848Y009621D01*
X016458Y009621D01*
X016585Y009674D01*
X016682Y009771D01*
X016735Y009898D01*
X016735Y010036D01*
X016682Y010163D01*
X016585Y010260D01*
X016689Y010147D02*
X017273Y010147D01*
X017273Y010050D02*
X016729Y010050D01*
X016735Y009953D02*
X017273Y009953D01*
X017273Y009856D02*
X016717Y009856D01*
X016670Y009759D02*
X017273Y009759D01*
X017273Y009662D02*
X016557Y009662D01*
X017273Y009566D02*
X015508Y009566D01*
X015508Y009662D02*
X015749Y009662D01*
X015636Y009759D02*
X015508Y009759D01*
X015508Y009856D02*
X015589Y009856D01*
X015571Y009953D02*
X015508Y009953D01*
X015508Y010050D02*
X015578Y010050D01*
X015618Y010147D02*
X015508Y010147D01*
X015508Y010244D02*
X015706Y010244D01*
X015508Y009469D02*
X017273Y009469D01*
X017273Y009372D02*
X015508Y009372D01*
X015508Y009275D02*
X017273Y009275D01*
X017273Y009178D02*
X015508Y009178D01*
X015508Y009081D02*
X017273Y009081D01*
X017273Y008984D02*
X015508Y008984D01*
X015508Y008887D02*
X017273Y008887D01*
X017273Y008790D02*
X015508Y008790D01*
X015508Y008693D02*
X017273Y008693D01*
X017273Y008596D02*
X015508Y008596D01*
X015508Y008499D02*
X017273Y008499D01*
X017273Y008402D02*
X015508Y008402D01*
X015508Y008306D02*
X017273Y008306D01*
X017273Y008209D02*
X015508Y008209D01*
X015508Y008112D02*
X017273Y008112D01*
X017273Y008015D02*
X015508Y008015D01*
X015508Y007918D02*
X017273Y007918D01*
X017273Y007821D02*
X015508Y007821D01*
X015508Y007724D02*
X017273Y007724D01*
X017273Y007627D02*
X015508Y007627D01*
X015191Y007627D02*
X015172Y007627D01*
X015191Y007530D02*
X015075Y007530D01*
X015191Y007433D02*
X014384Y007433D01*
X014548Y007336D02*
X015191Y007336D01*
X015191Y007239D02*
X014616Y007239D01*
X014648Y007142D02*
X015191Y007142D01*
X015191Y007045D02*
X014648Y007045D01*
X014617Y006949D02*
X015191Y006949D01*
X015113Y006852D02*
X014550Y006852D01*
X014389Y006755D02*
X015016Y006755D01*
X014919Y006658D02*
X012858Y006658D01*
X012890Y006561D02*
X012901Y006561D01*
X013198Y006561D02*
X014822Y006561D01*
X014604Y006464D02*
X013272Y006464D01*
X013293Y006367D02*
X014528Y006367D01*
X015349Y006864D02*
X015349Y011264D01*
X015149Y011464D01*
X015149Y013164D01*
X015288Y013249D02*
X015474Y013249D01*
X015332Y013346D02*
X015191Y013346D01*
X015258Y013443D02*
X015094Y013443D01*
X015041Y013539D02*
X015217Y013539D01*
X015058Y013636D02*
X015600Y013636D01*
X015600Y013733D02*
X015698Y013733D01*
X015698Y013830D02*
X015600Y013830D01*
X015600Y013927D02*
X015698Y013927D01*
X015698Y014024D02*
X015600Y014024D01*
X015381Y014024D02*
X014849Y014024D01*
X014965Y013927D02*
X015285Y013927D01*
X015231Y013830D02*
X015023Y013830D01*
X015058Y013733D02*
X015205Y013733D01*
X014840Y013249D02*
X004324Y013249D01*
X004198Y013249D02*
X004100Y013249D01*
X004100Y013346D02*
X004198Y013346D01*
X004198Y013443D02*
X004100Y013443D01*
X004100Y013539D02*
X004198Y013539D01*
X004198Y013636D02*
X004740Y013636D01*
X004740Y013733D02*
X004593Y013733D01*
X004567Y013830D02*
X004775Y013830D01*
X004834Y013927D02*
X004513Y013927D01*
X004417Y014024D02*
X004950Y014024D01*
X005349Y014024D02*
X005950Y014024D01*
X005834Y013927D02*
X005465Y013927D01*
X005523Y013830D02*
X005775Y013830D01*
X005740Y013733D02*
X005558Y013733D01*
X005558Y013636D02*
X005740Y013636D01*
X005758Y013539D02*
X005541Y013539D01*
X005501Y013443D02*
X005798Y013443D01*
X005889Y013346D02*
X005410Y013346D01*
X005231Y013073D02*
X005068Y013073D01*
X004917Y013011D01*
X004802Y012896D01*
X004740Y012745D01*
X004740Y012582D01*
X004802Y012432D01*
X004917Y012317D01*
X005068Y012255D01*
X005231Y012255D01*
X005381Y012317D01*
X005496Y012432D01*
X005558Y012582D01*
X005558Y012745D01*
X005496Y012896D01*
X005381Y013011D01*
X005231Y013073D01*
X005274Y013055D02*
X006024Y013055D01*
X006068Y013073D02*
X005917Y013011D01*
X005802Y012896D01*
X005740Y012745D01*
X005740Y012582D01*
X005802Y012432D01*
X005917Y012317D01*
X006068Y012255D01*
X006231Y012255D01*
X006381Y012317D01*
X006496Y012432D01*
X006558Y012582D01*
X006558Y012745D01*
X006496Y012896D01*
X006381Y013011D01*
X006231Y013073D01*
X006068Y013073D01*
X005865Y012958D02*
X005434Y012958D01*
X005510Y012861D02*
X005788Y012861D01*
X005748Y012764D02*
X005551Y012764D01*
X005558Y012667D02*
X005740Y012667D01*
X005745Y012570D02*
X005553Y012570D01*
X005513Y012473D02*
X005785Y012473D01*
X005858Y012376D02*
X005441Y012376D01*
X005291Y012279D02*
X006008Y012279D01*
X006291Y012279D02*
X007008Y012279D01*
X007068Y012255D02*
X007231Y012255D01*
X007381Y012317D01*
X007496Y012432D01*
X007558Y012582D01*
X007558Y012745D01*
X007496Y012896D01*
X007381Y013011D01*
X007231Y013073D01*
X007068Y013073D01*
X006917Y013011D01*
X006802Y012896D01*
X006740Y012745D01*
X006740Y012582D01*
X006802Y012432D01*
X006917Y012317D01*
X007068Y012255D01*
X007291Y012279D02*
X008008Y012279D01*
X008068Y012255D02*
X007917Y012317D01*
X007802Y012432D01*
X007740Y012582D01*
X007740Y012745D01*
X007802Y012896D01*
X007917Y013011D01*
X008068Y013073D01*
X008231Y013073D01*
X008381Y013011D01*
X008496Y012896D01*
X008558Y012745D01*
X008558Y012582D01*
X008496Y012432D01*
X008381Y012317D01*
X008231Y012255D01*
X008068Y012255D01*
X008291Y012279D02*
X009008Y012279D01*
X009068Y012255D02*
X009231Y012255D01*
X009381Y012317D01*
X009496Y012432D01*
X009558Y012582D01*
X009558Y012745D01*
X009496Y012896D01*
X009381Y013011D01*
X009231Y013073D01*
X009068Y013073D01*
X008917Y013011D01*
X008802Y012896D01*
X008740Y012745D01*
X008740Y012582D01*
X008802Y012432D01*
X008917Y012317D01*
X009068Y012255D01*
X009291Y012279D02*
X010008Y012279D01*
X010068Y012255D02*
X009917Y012317D01*
X009802Y012432D01*
X009740Y012582D01*
X009740Y012745D01*
X009802Y012896D01*
X009917Y013011D01*
X010068Y013073D01*
X010231Y013073D01*
X010381Y013011D01*
X010496Y012896D01*
X010558Y012745D01*
X010558Y012582D01*
X010496Y012432D01*
X010381Y012317D01*
X010231Y012255D01*
X010068Y012255D01*
X010291Y012279D02*
X011008Y012279D01*
X011068Y012255D02*
X011231Y012255D01*
X011381Y012317D01*
X011496Y012432D01*
X011558Y012582D01*
X011558Y012745D01*
X011496Y012896D01*
X011381Y013011D01*
X011231Y013073D01*
X011068Y013073D01*
X010917Y013011D01*
X010802Y012896D01*
X010740Y012745D01*
X010740Y012582D01*
X010802Y012432D01*
X010917Y012317D01*
X011068Y012255D01*
X010858Y012376D02*
X010441Y012376D01*
X010513Y012473D02*
X010785Y012473D01*
X010745Y012570D02*
X010553Y012570D01*
X010558Y012667D02*
X010740Y012667D01*
X010748Y012764D02*
X010551Y012764D01*
X010510Y012861D02*
X010788Y012861D01*
X010865Y012958D02*
X010434Y012958D01*
X010274Y013055D02*
X011024Y013055D01*
X011274Y013055D02*
X013286Y013055D01*
X013240Y012958D02*
X011434Y012958D01*
X011510Y012861D02*
X013240Y012861D01*
X013240Y012764D02*
X011551Y012764D01*
X011558Y012667D02*
X013240Y012667D01*
X013240Y012570D02*
X011553Y012570D01*
X011513Y012473D02*
X013240Y012473D01*
X013240Y012376D02*
X011441Y012376D01*
X011291Y012279D02*
X013279Y012279D01*
X013389Y013346D02*
X011558Y013346D01*
X011558Y013443D02*
X013298Y013443D01*
X013258Y013539D02*
X011558Y013539D01*
X011558Y013636D02*
X013240Y013636D01*
X013240Y013733D02*
X011558Y013733D01*
X011558Y013830D02*
X013159Y013830D01*
X013062Y013927D02*
X011558Y013927D01*
X011543Y014024D02*
X012965Y014024D01*
X013322Y014315D02*
X017273Y014315D01*
X017273Y014218D02*
X013419Y014218D01*
X013516Y014121D02*
X017273Y014121D01*
X017273Y014024D02*
X016917Y014024D01*
X017013Y013927D02*
X017273Y013927D01*
X017273Y013830D02*
X017067Y013830D01*
X017093Y013733D02*
X017273Y013733D01*
X017273Y013055D02*
X016774Y013055D01*
X016934Y012958D02*
X017273Y012958D01*
X017273Y012861D02*
X017010Y012861D01*
X017051Y012764D02*
X017273Y012764D01*
X017273Y012667D02*
X017058Y012667D01*
X017053Y012570D02*
X017273Y012570D01*
X017273Y012473D02*
X017013Y012473D01*
X016941Y012376D02*
X017273Y012376D01*
X014991Y012958D02*
X014934Y012958D01*
X014991Y013055D02*
X014774Y013055D01*
X014937Y013152D02*
X003385Y013152D01*
X003288Y013249D02*
X003974Y013249D01*
X003832Y013346D02*
X003278Y013346D01*
X003278Y013443D02*
X003758Y013443D01*
X003717Y013539D02*
X003278Y013539D01*
X003278Y013636D02*
X004100Y013636D01*
X003705Y013733D02*
X003278Y013733D01*
X003278Y013830D02*
X003731Y013830D01*
X003785Y013927D02*
X003278Y013927D01*
X003278Y014024D02*
X003881Y014024D01*
X004581Y013539D02*
X004758Y013539D01*
X004798Y013443D02*
X004541Y013443D01*
X004466Y013346D02*
X004889Y013346D01*
X005024Y013055D02*
X004274Y013055D01*
X004434Y012958D02*
X004865Y012958D01*
X004788Y012861D02*
X004510Y012861D01*
X004551Y012764D02*
X004748Y012764D01*
X004740Y012667D02*
X004558Y012667D01*
X004576Y012570D02*
X004745Y012570D01*
X004785Y012473D02*
X004673Y012473D01*
X004770Y012376D02*
X004858Y012376D01*
X004866Y012279D02*
X005008Y012279D01*
X004024Y013055D02*
X003482Y013055D01*
X003579Y012958D02*
X003865Y012958D01*
X006274Y013055D02*
X007024Y013055D01*
X006865Y012958D02*
X006434Y012958D01*
X006510Y012861D02*
X006788Y012861D01*
X006748Y012764D02*
X006551Y012764D01*
X006558Y012667D02*
X006740Y012667D01*
X006745Y012570D02*
X006553Y012570D01*
X006513Y012473D02*
X006785Y012473D01*
X006858Y012376D02*
X006441Y012376D01*
X007274Y013055D02*
X008024Y013055D01*
X007865Y012958D02*
X007434Y012958D01*
X007510Y012861D02*
X007788Y012861D01*
X007748Y012764D02*
X007551Y012764D01*
X007558Y012667D02*
X007740Y012667D01*
X007745Y012570D02*
X007553Y012570D01*
X007513Y012473D02*
X007785Y012473D01*
X007858Y012376D02*
X007441Y012376D01*
X008274Y013055D02*
X009024Y013055D01*
X008865Y012958D02*
X008434Y012958D01*
X008510Y012861D02*
X008788Y012861D01*
X008748Y012764D02*
X008551Y012764D01*
X008558Y012667D02*
X008740Y012667D01*
X008745Y012570D02*
X008553Y012570D01*
X008513Y012473D02*
X008785Y012473D01*
X008858Y012376D02*
X008441Y012376D01*
X009274Y013055D02*
X010024Y013055D01*
X009865Y012958D02*
X009434Y012958D01*
X009510Y012861D02*
X009788Y012861D01*
X009748Y012764D02*
X009551Y012764D01*
X009558Y012667D02*
X009740Y012667D01*
X009745Y012570D02*
X009553Y012570D01*
X009513Y012473D02*
X009785Y012473D01*
X009858Y012376D02*
X009441Y012376D01*
X009410Y013346D02*
X009889Y013346D01*
X009798Y013443D02*
X009501Y013443D01*
X009541Y013539D02*
X009758Y013539D01*
X009740Y013636D02*
X009558Y013636D01*
X009558Y013733D02*
X009740Y013733D01*
X009775Y013830D02*
X009523Y013830D01*
X009465Y013927D02*
X009834Y013927D01*
X009950Y014024D02*
X009349Y014024D01*
X008950Y014024D02*
X008349Y014024D01*
X008465Y013927D02*
X008834Y013927D01*
X008775Y013830D02*
X008523Y013830D01*
X008558Y013733D02*
X008740Y013733D01*
X008740Y013636D02*
X008558Y013636D01*
X008541Y013539D02*
X008758Y013539D01*
X008798Y013443D02*
X008501Y013443D01*
X008410Y013346D02*
X008889Y013346D01*
X007889Y013346D02*
X007410Y013346D01*
X007501Y013443D02*
X007798Y013443D01*
X007758Y013539D02*
X007541Y013539D01*
X007558Y013636D02*
X007740Y013636D01*
X007740Y013733D02*
X007558Y013733D01*
X007523Y013830D02*
X007775Y013830D01*
X007834Y013927D02*
X007465Y013927D01*
X007349Y014024D02*
X007950Y014024D01*
X006950Y014024D02*
X006349Y014024D01*
X006465Y013927D02*
X006834Y013927D01*
X006775Y013830D02*
X006523Y013830D01*
X006558Y013733D02*
X006740Y013733D01*
X006740Y013636D02*
X006558Y013636D01*
X006541Y013539D02*
X006758Y013539D01*
X006798Y013443D02*
X006501Y013443D01*
X006410Y013346D02*
X006889Y013346D01*
X010349Y014024D02*
X010755Y014024D01*
X010740Y013927D02*
X010465Y013927D01*
X010523Y013830D02*
X010740Y013830D01*
X010740Y013733D02*
X010558Y013733D01*
X010558Y013636D02*
X010740Y013636D01*
X010740Y013539D02*
X010541Y013539D01*
X010501Y013443D02*
X010740Y013443D01*
X010740Y013346D02*
X010410Y013346D01*
X013849Y014024D02*
X014450Y014024D01*
X013619Y010244D02*
X005714Y010244D01*
X005714Y010147D02*
X013531Y010147D01*
X013491Y010050D02*
X005714Y010050D01*
X005770Y009953D02*
X006522Y009953D01*
X006496Y009856D02*
X005810Y009856D01*
X005810Y009759D02*
X006496Y009759D01*
X006496Y009566D02*
X005810Y009566D01*
X005810Y009662D02*
X006813Y009662D01*
X006813Y009759D02*
X006911Y009759D01*
X006911Y009856D02*
X006813Y009856D01*
X006813Y009953D02*
X006911Y009953D01*
X007202Y009953D02*
X007245Y009953D01*
X007217Y009926D02*
X007217Y009926D01*
X007817Y009953D02*
X013485Y009953D01*
X013502Y009856D02*
X007857Y009856D01*
X007857Y009759D02*
X010338Y009759D01*
X010006Y009662D02*
X007857Y009662D01*
X007857Y009566D02*
X009896Y009566D01*
X009799Y009469D02*
X007857Y009469D01*
X007893Y008790D02*
X009388Y008790D01*
X009485Y008693D02*
X007883Y008693D01*
X007895Y008596D02*
X008353Y008596D01*
X008327Y008499D02*
X007955Y008499D01*
X007955Y008402D02*
X008327Y008402D01*
X008327Y008209D02*
X007955Y008209D01*
X007955Y008306D02*
X008643Y008306D01*
X008643Y008402D02*
X008742Y008402D01*
X008742Y008499D02*
X008643Y008499D01*
X008643Y008596D02*
X008742Y008596D01*
X009032Y008596D02*
X009077Y008596D01*
X009048Y008568D02*
X009048Y008568D01*
X008742Y008209D02*
X008643Y008209D01*
X008643Y008112D02*
X008742Y008112D01*
X008742Y008015D02*
X008643Y008015D01*
X008367Y008015D02*
X007955Y008015D01*
X007955Y008112D02*
X008327Y008112D01*
X007961Y007918D02*
X009558Y007918D01*
X009558Y007821D02*
X007995Y007821D01*
X007995Y007724D02*
X009558Y007724D01*
X009558Y007627D02*
X009018Y007627D01*
X009068Y007564D02*
X009068Y007564D01*
X008761Y007530D02*
X008663Y007530D01*
X008663Y007433D02*
X008761Y007433D01*
X008761Y007627D02*
X008663Y007627D01*
X009018Y008015D02*
X009093Y008015D01*
X010071Y008015D02*
X010236Y008015D01*
X010236Y008112D02*
X010071Y008112D01*
X010071Y008209D02*
X010533Y008209D01*
X010533Y008306D02*
X010631Y008306D01*
X010631Y008402D02*
X010533Y008402D01*
X010533Y008499D02*
X010631Y008499D01*
X010631Y008596D02*
X010533Y008596D01*
X010533Y008693D02*
X010631Y008693D01*
X010631Y008790D02*
X010965Y008790D01*
X010965Y008845D02*
X010965Y008579D01*
X011458Y008579D01*
X011458Y008974D01*
X011094Y008974D01*
X011056Y008964D01*
X011022Y008945D01*
X010994Y008917D01*
X010975Y008883D01*
X010965Y008845D01*
X010977Y008887D02*
X010928Y008887D01*
X010928Y008984D02*
X013445Y008984D01*
X013939Y008984D02*
X014037Y008984D01*
X014037Y009081D02*
X013939Y009081D01*
X013939Y009178D02*
X014037Y009178D01*
X014037Y009275D02*
X013939Y009275D01*
X013939Y009372D02*
X014037Y009372D01*
X013663Y009662D02*
X012010Y009662D01*
X012010Y009566D02*
X014707Y009566D01*
X014037Y008887D02*
X013939Y008887D01*
X013939Y008790D02*
X014037Y008790D01*
X014037Y008693D02*
X013939Y008693D01*
X013939Y008596D02*
X014037Y008596D01*
X013939Y008499D02*
X011557Y008499D01*
X011557Y008402D02*
X011458Y008402D01*
X011458Y008306D02*
X011557Y008306D01*
X011557Y008209D02*
X011458Y008209D01*
X011458Y008112D02*
X011557Y008112D01*
X011458Y008499D02*
X010920Y008499D01*
X010928Y008402D02*
X010965Y008402D01*
X010965Y008306D02*
X010928Y008306D01*
X010966Y008209D02*
X010631Y008209D01*
X010928Y008112D02*
X011028Y008112D01*
X011054Y008015D02*
X010928Y008015D01*
X010905Y007918D02*
X011005Y007918D01*
X011005Y007821D02*
X010875Y007821D01*
X010328Y007859D02*
X010328Y007859D01*
X010290Y007821D02*
X010071Y007821D01*
X010071Y007918D02*
X010260Y007918D01*
X010276Y007724D02*
X010071Y007724D01*
X010071Y007627D02*
X010276Y007627D01*
X010276Y007530D02*
X010071Y007530D01*
X010071Y007433D02*
X010276Y007433D01*
X010276Y007336D02*
X010071Y007336D01*
X010071Y007239D02*
X010321Y007239D01*
X010844Y007239D02*
X011049Y007239D01*
X011301Y006561D02*
X010071Y006561D01*
X010071Y006464D02*
X011226Y006464D01*
X011205Y006367D02*
X010071Y006367D01*
X010071Y006270D02*
X011224Y006270D01*
X012221Y006464D02*
X012278Y006464D01*
X012278Y006561D02*
X012221Y006561D01*
X012188Y006658D02*
X012310Y006658D01*
X011980Y007239D02*
X011966Y007239D01*
X011557Y008596D02*
X011458Y008596D01*
X011458Y008693D02*
X011557Y008693D01*
X011557Y008790D02*
X011458Y008790D01*
X011458Y008887D02*
X011557Y008887D01*
X011019Y009081D02*
X010892Y009081D01*
X010888Y009178D02*
X011005Y009178D01*
X010965Y008693D02*
X010928Y008693D01*
X010928Y008596D02*
X010965Y008596D01*
X010533Y008790D02*
X010066Y008790D01*
X010071Y008693D02*
X010236Y008693D01*
X010236Y008596D02*
X010071Y008596D01*
X010071Y008499D02*
X010244Y008499D01*
X010236Y008402D02*
X010071Y008402D01*
X010071Y008306D02*
X010236Y008306D01*
X010236Y008887D02*
X010018Y008887D01*
X010041Y008984D02*
X010236Y008984D01*
X010273Y009081D02*
X010138Y009081D01*
X010235Y009178D02*
X010276Y009178D01*
X009703Y009372D02*
X009486Y009372D01*
X010826Y009759D02*
X011005Y009759D01*
X012010Y009759D02*
X013549Y009759D01*
X013939Y008402D02*
X014037Y008402D01*
X014037Y008306D02*
X013939Y008306D01*
X013939Y008209D02*
X014037Y008209D01*
X014037Y008112D02*
X013939Y008112D01*
X013939Y008015D02*
X014037Y008015D01*
X014037Y007918D02*
X013939Y007918D01*
X013939Y007821D02*
X014037Y007821D01*
X014037Y007724D02*
X013939Y007724D01*
X014608Y005636D02*
X014215Y005341D01*
X014215Y004829D01*
X014459Y005301D02*
X015003Y005301D01*
X015228Y005301D02*
X015327Y005301D01*
X015327Y005398D02*
X015228Y005398D01*
X015228Y005495D02*
X015327Y005495D01*
X013185Y004719D02*
X009517Y004719D01*
X009614Y004816D02*
X013088Y004816D01*
X012991Y004913D02*
X009711Y004913D01*
X009808Y005010D02*
X012894Y005010D01*
X012797Y005107D02*
X009904Y005107D01*
X010001Y005204D02*
X012700Y005204D01*
X012603Y005301D02*
X010060Y005301D01*
X009558Y006561D02*
X009549Y006561D01*
X008525Y006173D02*
X008427Y006173D01*
X008427Y006076D02*
X008525Y006076D01*
X008130Y005785D02*
X007955Y005785D01*
X007955Y005689D02*
X008130Y005689D01*
X008144Y005592D02*
X007955Y005592D01*
X007955Y005495D02*
X008200Y005495D01*
X008222Y005517D02*
X008222Y005517D01*
X008170Y005398D02*
X007955Y005398D01*
X007857Y005301D02*
X008170Y005301D01*
X008170Y005204D02*
X007889Y005204D01*
X007893Y005107D02*
X008170Y005107D01*
X006610Y006464D02*
X006545Y006464D01*
X005998Y006464D02*
X005741Y006464D01*
X005240Y005495D02*
X000678Y005495D01*
X000678Y005398D02*
X000804Y005398D01*
X000708Y005301D02*
X000678Y005301D01*
X000678Y004816D02*
X000718Y004816D01*
X000678Y004719D02*
X000815Y004719D01*
X000860Y004428D02*
X000678Y004428D01*
X000678Y004332D02*
X000738Y004332D01*
X000696Y003847D02*
X000678Y003847D01*
X000678Y003750D02*
X000784Y003750D01*
X000723Y001812D02*
X000678Y001812D01*
X000678Y001715D02*
X000823Y001715D01*
X000678Y001618D02*
X011768Y001618D01*
X011768Y001521D02*
X000678Y001521D01*
X000678Y001424D02*
X000781Y001424D01*
X000685Y001327D02*
X000678Y001327D01*
X001000Y001327D02*
X001098Y001327D01*
X001098Y001424D02*
X001000Y001424D01*
X001098Y001511D02*
X001098Y001113D01*
X001496Y001113D01*
X001487Y001169D01*
X001466Y001236D01*
X001433Y001299D01*
X001392Y001356D01*
X001342Y001406D01*
X001285Y001448D01*
X001222Y001480D01*
X001154Y001502D01*
X001098Y001511D01*
X001318Y001424D02*
X001849Y001424D01*
X001734Y001327D02*
X001413Y001327D01*
X001468Y001230D02*
X001675Y001230D01*
X001640Y001133D02*
X001493Y001133D01*
X001640Y001036D02*
X001098Y001036D01*
X001098Y001133D02*
X001000Y001133D01*
X001000Y001230D02*
X001098Y001230D01*
X001481Y000939D02*
X001600Y000939D01*
X001504Y000842D02*
X001441Y000842D01*
X001407Y000745D02*
X001366Y000745D01*
X006189Y005301D02*
X006224Y005301D01*
X007600Y007239D02*
X007698Y007239D01*
X007698Y007336D02*
X007600Y007336D01*
X007600Y007433D02*
X007698Y007433D01*
X007303Y007724D02*
X005741Y007724D01*
X005741Y007821D02*
X007303Y007821D01*
X007338Y007918D02*
X007248Y007918D01*
X007257Y007926D02*
X007276Y007961D01*
X007287Y007998D01*
X007287Y008166D01*
X006970Y008166D01*
X006970Y007869D01*
X007157Y007869D01*
X007195Y007879D01*
X007229Y007899D01*
X007257Y007926D01*
X007287Y008015D02*
X007343Y008015D01*
X007343Y008112D02*
X007287Y008112D01*
X007343Y008209D02*
X006970Y008209D01*
X006970Y008306D02*
X006872Y008306D01*
X006872Y008402D02*
X006970Y008402D01*
X006970Y008499D02*
X006872Y008499D01*
X006583Y008499D02*
X006535Y008499D01*
X006565Y008469D02*
X006565Y008469D01*
X006872Y008112D02*
X006970Y008112D01*
X006970Y008015D02*
X006872Y008015D01*
X006872Y007918D02*
X006970Y007918D01*
X006594Y007918D02*
X006522Y007918D01*
X005981Y007918D02*
X005741Y007918D01*
X005741Y008499D02*
X005968Y008499D01*
X005741Y008596D02*
X007404Y008596D01*
X007415Y008693D02*
X005741Y008693D01*
X005741Y008790D02*
X007405Y008790D01*
X007343Y008499D02*
X007259Y008499D01*
X007287Y008402D02*
X007343Y008402D01*
X007343Y008306D02*
X007287Y008306D01*
X006496Y009469D02*
X005810Y009469D01*
X005198Y009953D02*
X005154Y009953D01*
X005170Y009926D02*
X005170Y009926D01*
X004449Y009856D02*
X002406Y009856D01*
X000949Y009662D02*
X000678Y009662D01*
X000678Y009759D02*
X000775Y009759D01*
X000692Y009856D02*
X000678Y009856D01*
X000678Y010244D02*
X000681Y010244D01*
X000678Y010341D02*
X000748Y010341D01*
X000678Y010438D02*
X000883Y010438D01*
X000806Y010729D02*
X000678Y010729D01*
X000678Y010826D02*
X000709Y010826D01*
X000678Y009372D02*
X000778Y009372D01*
X000694Y009275D02*
X000678Y009275D01*
X000678Y008887D02*
X000679Y008887D01*
X000678Y008790D02*
X000744Y008790D01*
X000678Y008693D02*
X000874Y008693D01*
X000713Y007821D02*
X000678Y007821D01*
X000678Y007724D02*
X000810Y007724D01*
X000694Y006852D02*
X000678Y006852D01*
X000678Y006755D02*
X000780Y006755D01*
M02*
