G75*
G70*
%OFA0B0*%
%FSLAX24Y24*%
%IPPOS*%
%LPD*%
%AMOC8*
5,1,8,0,0,1.08239X$1,22.5*
%
%ADD10C,0.0552*%
%ADD11C,0.0434*%
%ADD12R,0.0513X0.0474*%
%ADD13R,0.0474X0.0513*%
%ADD14R,0.0867X0.0671*%
%ADD15R,0.0867X0.1576*%
%ADD16C,0.0417*%
%ADD17R,0.0680X0.0680*%
%ADD18C,0.0680*%
D10*
X013830Y007093D02*
X014303Y007093D01*
X015917Y007093D02*
X016389Y007093D01*
X016389Y009967D02*
X015917Y009967D01*
X014303Y009967D02*
X013830Y009967D01*
D11*
X014854Y009219D03*
X014854Y007841D03*
D12*
X014608Y005636D03*
X015278Y005636D03*
X014215Y004829D03*
X014215Y004160D03*
X016929Y004632D03*
X016929Y005302D03*
X009381Y007309D03*
X008712Y007309D03*
X008693Y008313D03*
X009362Y008313D03*
X007531Y009672D03*
X006862Y009672D03*
X005484Y009672D03*
X004815Y009672D03*
X006252Y008215D03*
X006921Y008215D03*
X006941Y006758D03*
X006271Y006758D03*
X006567Y005577D03*
X005897Y005577D03*
D13*
X007649Y005636D03*
X007649Y006306D03*
X008476Y005872D03*
X008476Y005203D03*
X007649Y007605D03*
X007649Y008274D03*
X010582Y008215D03*
X010582Y008766D03*
X010582Y009435D03*
X010582Y007546D03*
X011915Y006364D03*
X012584Y006364D03*
X012784Y001384D03*
X012114Y001384D03*
D14*
X011507Y007624D03*
X011507Y008530D03*
X011507Y009435D03*
D15*
X013988Y008530D03*
D16*
X013703Y002861D02*
X013367Y002861D01*
X013367Y002369D02*
X013703Y002369D01*
X013703Y001876D02*
X013367Y001876D01*
X013367Y001384D02*
X013703Y001384D01*
D17*
X001049Y012064D03*
X011149Y013664D03*
X013649Y012664D03*
D18*
X001049Y001064D03*
X002049Y001064D03*
X002049Y002064D03*
X002049Y003064D03*
X001049Y003064D03*
X001049Y002064D03*
X001049Y004064D03*
X002049Y004064D03*
X002049Y005064D03*
X001049Y005064D03*
X001049Y006064D03*
X002049Y006064D03*
X002049Y007064D03*
X002049Y008064D03*
X001049Y008064D03*
X001049Y007064D03*
X001049Y009064D03*
X002049Y009064D03*
X002049Y010064D03*
X001049Y010064D03*
X001049Y011064D03*
X002049Y011064D03*
X002049Y012064D03*
X004149Y012664D03*
X005149Y012664D03*
X006149Y012664D03*
X007149Y012664D03*
X008149Y012664D03*
X009149Y012664D03*
X010149Y012664D03*
X011149Y012664D03*
X010149Y013664D03*
X009149Y013664D03*
X008149Y013664D03*
X007149Y013664D03*
X006149Y013664D03*
X005149Y013664D03*
X004149Y013664D03*
X013649Y013664D03*
X014649Y013664D03*
X015649Y013664D03*
X016649Y013664D03*
X016649Y012664D03*
X015649Y012664D03*
X014649Y012664D03*
M02*
