%
M48
M72
T01C0.0130
T02C0.0197
T03C0.0315
T04C0.0354
T05C0.0400
%
T01
X5549Y4464
X5849Y4864
X5484Y5577
X5110Y5282
X5110Y6424
X5838Y6758
X5484Y7782
X5110Y7644
X5838Y8215
X5110Y8628
X5484Y8924
X6330Y9494
X6665Y9120
X7649Y8766
X8004Y9494
X8771Y9494
X9027Y9120
X10189Y8195
X9815Y7939
X10189Y7132
X9401Y6758
X10189Y5872
X9815Y5577
X10189Y5183
X9086Y4416
X8830Y4790
X8004Y4416
X7649Y5144
X6901Y4790
X6881Y4416
X11449Y6364
X12551Y5577
X13049Y6364
X12157Y7408
X13259Y9160
X14749Y6264
X14215Y5341
X16929Y5735
T02
X13535Y2861
X13535Y2369
X13535Y1876
X13535Y1384
T03
X14067Y7093
X16153Y7093
X16153Y9967
X14067Y9967
T04
X14854Y9219
X14854Y7841
T05
X1049Y1064
X2049Y1064
X2049Y2064
X2049Y3064
X1049Y3064
X1049Y2064
X1049Y4064
X2049Y4064
X2049Y5064
X1049Y5064
X1049Y6064
X2049Y6064
X2049Y7064
X2049Y8064
X1049Y8064
X1049Y7064
X1049Y9064
X2049Y9064
X2049Y10064
X1049Y10064
X1049Y11064
X2049Y11064
X2049Y12064
X1049Y12064
X4149Y12664
X5149Y12664
X6149Y12664
X7149Y12664
X8149Y12664
X9149Y12664
X10149Y12664
X11149Y12664
X11149Y13664
X10149Y13664
X9149Y13664
X8149Y13664
X7149Y13664
X6149Y13664
X5149Y13664
X4149Y13664
X13649Y13664
X14649Y13664
X15649Y13664
X16649Y13664
X16649Y12664
X15649Y12664
X14649Y12664
X13649Y12664
M30
