G75*
G70*
%OFA0B0*%
%FSLAX24Y24*%
%IPPOS*%
%LPD*%
%AMOC8*
5,1,8,0,0,1.08239X$1,22.5*
%
%ADD10C,0.0000*%
%ADD11C,0.0030*%
%ADD12C,0.0050*%
%ADD13C,0.0079*%
%ADD14C,0.0472*%
%ADD15C,0.0197*%
%ADD16C,0.0010*%
%ADD17C,0.0040*%
%ADD18C,0.0080*%
%ADD19R,0.0098X0.0098*%
%ADD20C,0.0020*%
%ADD21C,0.0060*%
D10*
X000149Y000164D02*
X000149Y014534D01*
X017472Y014534D01*
X017472Y000164D01*
X000149Y000164D01*
X014677Y007841D02*
X014679Y007867D01*
X014685Y007893D01*
X014695Y007918D01*
X014708Y007941D01*
X014724Y007961D01*
X014744Y007979D01*
X014766Y007994D01*
X014789Y008006D01*
X014815Y008014D01*
X014841Y008018D01*
X014867Y008018D01*
X014893Y008014D01*
X014919Y008006D01*
X014943Y007994D01*
X014964Y007979D01*
X014984Y007961D01*
X015000Y007941D01*
X015013Y007918D01*
X015023Y007893D01*
X015029Y007867D01*
X015031Y007841D01*
X015029Y007815D01*
X015023Y007789D01*
X015013Y007764D01*
X015000Y007741D01*
X014984Y007721D01*
X014964Y007703D01*
X014942Y007688D01*
X014919Y007676D01*
X014893Y007668D01*
X014867Y007664D01*
X014841Y007664D01*
X014815Y007668D01*
X014789Y007676D01*
X014765Y007688D01*
X014744Y007703D01*
X014724Y007721D01*
X014708Y007741D01*
X014695Y007764D01*
X014685Y007789D01*
X014679Y007815D01*
X014677Y007841D01*
X014677Y009219D02*
X014679Y009245D01*
X014685Y009271D01*
X014695Y009296D01*
X014708Y009319D01*
X014724Y009339D01*
X014744Y009357D01*
X014766Y009372D01*
X014789Y009384D01*
X014815Y009392D01*
X014841Y009396D01*
X014867Y009396D01*
X014893Y009392D01*
X014919Y009384D01*
X014943Y009372D01*
X014964Y009357D01*
X014984Y009339D01*
X015000Y009319D01*
X015013Y009296D01*
X015023Y009271D01*
X015029Y009245D01*
X015031Y009219D01*
X015029Y009193D01*
X015023Y009167D01*
X015013Y009142D01*
X015000Y009119D01*
X014984Y009099D01*
X014964Y009081D01*
X014942Y009066D01*
X014919Y009054D01*
X014893Y009046D01*
X014867Y009042D01*
X014841Y009042D01*
X014815Y009046D01*
X014789Y009054D01*
X014765Y009066D01*
X014744Y009081D01*
X014724Y009099D01*
X014708Y009119D01*
X014695Y009142D01*
X014685Y009167D01*
X014679Y009193D01*
X014677Y009219D01*
D11*
X014697Y004430D02*
X014601Y004430D01*
X014552Y004381D01*
X014552Y004333D01*
X014601Y004285D01*
X014697Y004285D01*
X014746Y004236D01*
X014746Y004188D01*
X014697Y004139D01*
X014601Y004139D01*
X014552Y004188D01*
X014746Y004381D02*
X014697Y004430D01*
X014847Y004430D02*
X014847Y004139D01*
X014944Y004236D01*
X015040Y004139D01*
X015040Y004430D01*
X015142Y004333D02*
X015238Y004430D01*
X015238Y004139D01*
X015142Y004139D02*
X015335Y004139D01*
X016928Y002746D02*
X017198Y002746D01*
X017198Y002701D02*
X017198Y002791D01*
X017198Y002604D02*
X017063Y002604D01*
X017018Y002559D01*
X017018Y002469D01*
X017108Y002469D02*
X017108Y002604D01*
X017198Y002604D02*
X017198Y002469D01*
X017153Y002424D01*
X017108Y002469D01*
X017198Y002330D02*
X017198Y002240D01*
X017198Y002285D02*
X017018Y002285D01*
X017018Y002240D01*
X017018Y002145D02*
X017018Y002100D01*
X017108Y002010D01*
X017198Y002010D02*
X017018Y002010D01*
X017063Y001914D02*
X017108Y001914D01*
X017108Y001734D01*
X017153Y001734D02*
X017063Y001734D01*
X017018Y001779D01*
X017018Y001869D01*
X017063Y001914D01*
X017198Y001869D02*
X017198Y001779D01*
X017153Y001734D01*
X017153Y001638D02*
X017198Y001593D01*
X017198Y001503D01*
X017153Y001458D01*
X017063Y001503D02*
X017018Y001458D01*
X016973Y001458D01*
X016928Y001503D01*
X016928Y001593D01*
X016973Y001638D01*
X017063Y001593D02*
X017108Y001638D01*
X017153Y001638D01*
X017063Y001593D02*
X017063Y001503D01*
X016928Y002285D02*
X016883Y002285D01*
X016928Y002701D02*
X016928Y002746D01*
X007388Y000704D02*
X007343Y000749D01*
X007253Y000749D01*
X007208Y000704D01*
X007388Y000704D02*
X007388Y000659D01*
X007208Y000479D01*
X007388Y000479D01*
X007112Y000479D02*
X006932Y000479D01*
X007022Y000479D02*
X007022Y000749D01*
X006932Y000659D01*
X006835Y000704D02*
X006655Y000524D01*
X006700Y000479D01*
X006790Y000479D01*
X006835Y000524D01*
X006835Y000704D01*
X006790Y000749D01*
X006700Y000749D01*
X006655Y000704D01*
X006655Y000524D01*
X006559Y000479D02*
X006379Y000479D01*
X006559Y000659D01*
X006559Y000704D01*
X006514Y000749D01*
X006424Y000749D01*
X006379Y000704D01*
X006007Y000614D02*
X006007Y000569D01*
X005827Y000569D01*
X005827Y000524D02*
X005827Y000614D01*
X005872Y000659D01*
X005962Y000659D01*
X006007Y000614D01*
X005962Y000479D02*
X005872Y000479D01*
X005827Y000524D01*
X005730Y000479D02*
X005730Y000614D01*
X005685Y000659D01*
X005550Y000659D01*
X005550Y000479D01*
X005454Y000524D02*
X005454Y000614D01*
X005409Y000659D01*
X005319Y000659D01*
X005274Y000614D01*
X005274Y000524D01*
X005319Y000479D01*
X005409Y000479D01*
X005454Y000524D01*
X005178Y000479D02*
X005178Y000614D01*
X005133Y000659D01*
X005088Y000614D01*
X005088Y000479D01*
X004998Y000479D02*
X004998Y000659D01*
X005043Y000659D01*
X005088Y000614D01*
X004902Y000614D02*
X004902Y000479D01*
X004767Y000479D01*
X004722Y000524D01*
X004767Y000569D01*
X004902Y000569D01*
X004902Y000614D02*
X004857Y000659D01*
X004767Y000659D01*
X004626Y000749D02*
X004626Y000479D01*
X004445Y000479D02*
X004445Y000749D01*
X004535Y000659D01*
X004626Y000749D01*
X004073Y000614D02*
X004073Y000479D01*
X004073Y000614D02*
X004028Y000659D01*
X003893Y000659D01*
X003893Y000479D01*
X003797Y000479D02*
X003662Y000479D01*
X003617Y000524D01*
X003662Y000569D01*
X003797Y000569D01*
X003797Y000614D02*
X003797Y000479D01*
X003797Y000614D02*
X003752Y000659D01*
X003662Y000659D01*
X003521Y000659D02*
X003521Y000434D01*
X003476Y000389D01*
X003431Y000389D01*
X003385Y000479D02*
X003521Y000479D01*
X003385Y000479D02*
X003340Y000524D01*
X003340Y000659D01*
X003244Y000704D02*
X003244Y000614D01*
X003199Y000569D01*
X003064Y000569D01*
X003064Y000479D02*
X003064Y000749D01*
X003199Y000749D01*
X003244Y000704D01*
X003154Y000569D02*
X003244Y000479D01*
D12*
X013919Y003943D02*
X015967Y003943D01*
X015967Y005991D01*
X013919Y005991D01*
X013919Y003943D01*
X014510Y004967D02*
X014512Y005008D01*
X014518Y005049D01*
X014528Y005089D01*
X014541Y005128D01*
X014558Y005165D01*
X014579Y005201D01*
X014603Y005235D01*
X014630Y005266D01*
X014659Y005294D01*
X014692Y005320D01*
X014726Y005342D01*
X014763Y005361D01*
X014801Y005376D01*
X014841Y005388D01*
X014881Y005396D01*
X014922Y005400D01*
X014964Y005400D01*
X015005Y005396D01*
X015045Y005388D01*
X015085Y005376D01*
X015123Y005361D01*
X015159Y005342D01*
X015194Y005320D01*
X015227Y005294D01*
X015256Y005266D01*
X015283Y005235D01*
X015307Y005201D01*
X015328Y005165D01*
X015345Y005128D01*
X015358Y005089D01*
X015368Y005049D01*
X015374Y005008D01*
X015376Y004967D01*
X015374Y004926D01*
X015368Y004885D01*
X015358Y004845D01*
X015345Y004806D01*
X015328Y004769D01*
X015307Y004733D01*
X015283Y004699D01*
X015256Y004668D01*
X015227Y004640D01*
X015194Y004614D01*
X015160Y004592D01*
X015123Y004573D01*
X015085Y004558D01*
X015045Y004546D01*
X015005Y004538D01*
X014964Y004534D01*
X014922Y004534D01*
X014881Y004538D01*
X014841Y004546D01*
X014801Y004558D01*
X014763Y004573D01*
X014727Y004592D01*
X014692Y004614D01*
X014659Y004640D01*
X014630Y004668D01*
X014603Y004699D01*
X014579Y004733D01*
X014558Y004769D01*
X014541Y004806D01*
X014528Y004845D01*
X014518Y004885D01*
X014512Y004926D01*
X014510Y004967D01*
X014530Y011539D02*
X014681Y011539D01*
X014756Y011614D01*
X014756Y011989D01*
X014916Y011914D02*
X014916Y011614D01*
X014991Y011539D01*
X015141Y011539D01*
X015216Y011614D01*
X015216Y011764D01*
X015066Y011764D01*
X015216Y011914D02*
X015141Y011989D01*
X014991Y011989D01*
X014916Y011914D01*
X014455Y011989D02*
X014455Y011614D01*
X014530Y011539D01*
X014295Y011614D02*
X014220Y011539D01*
X013995Y011539D01*
X013995Y011989D01*
X014220Y011989D01*
X014295Y011914D01*
X014295Y011839D01*
X014220Y011764D01*
X013995Y011764D01*
X014220Y011764D02*
X014295Y011689D01*
X014295Y011614D01*
X013835Y011539D02*
X013535Y011539D01*
X013535Y011989D01*
X013835Y011989D01*
X013685Y011764D02*
X013535Y011764D01*
X013374Y011614D02*
X013374Y011914D01*
X013299Y011989D01*
X013074Y011989D01*
X013074Y011539D01*
X013299Y011539D01*
X013374Y011614D01*
X012749Y012464D02*
X012999Y012664D01*
X012749Y012864D01*
X012749Y012464D01*
X012749Y012483D02*
X012773Y012483D01*
X012749Y012531D02*
X012834Y012531D01*
X012894Y012580D02*
X012749Y012580D01*
X012749Y012628D02*
X012955Y012628D01*
X012983Y012677D02*
X012749Y012677D01*
X012749Y012725D02*
X012922Y012725D01*
X012862Y012774D02*
X012749Y012774D01*
X012749Y012822D02*
X012801Y012822D01*
X012049Y013464D02*
X012049Y013864D01*
X011799Y013664D01*
X012049Y013464D01*
X012049Y013501D02*
X012002Y013501D01*
X012049Y013550D02*
X011942Y013550D01*
X011881Y013598D02*
X012049Y013598D01*
X012049Y013647D02*
X011820Y013647D01*
X011839Y013695D02*
X012049Y013695D01*
X012049Y013744D02*
X011899Y013744D01*
X011960Y013792D02*
X012049Y013792D01*
X012049Y013841D02*
X012021Y013841D01*
X011314Y012039D02*
X011164Y011964D01*
X011014Y011814D01*
X011239Y011814D01*
X011314Y011739D01*
X011314Y011664D01*
X011239Y011589D01*
X011089Y011589D01*
X011014Y011664D01*
X011014Y011814D01*
X010854Y012039D02*
X010704Y012039D01*
X010779Y012039D02*
X010779Y011664D01*
X010704Y011589D01*
X010628Y011589D01*
X010553Y011664D01*
X016474Y011664D02*
X016549Y011589D01*
X016624Y011589D01*
X016699Y011664D01*
X016699Y012039D01*
X016624Y012039D02*
X016774Y012039D01*
X016935Y011889D02*
X017085Y012039D01*
X017085Y011589D01*
X016935Y011589D02*
X017235Y011589D01*
X003174Y011543D02*
X003174Y011618D01*
X003099Y011693D01*
X002724Y011693D01*
X002724Y011618D02*
X002724Y011768D01*
X002724Y011928D02*
X002724Y012229D01*
X002799Y012229D01*
X003099Y011928D01*
X003174Y011928D01*
X003174Y011543D02*
X003099Y011468D01*
X001249Y012964D02*
X000849Y012964D01*
X001049Y012714D01*
X001249Y012964D01*
X001214Y012919D02*
X000885Y012919D01*
X000924Y012871D02*
X001175Y012871D01*
X001136Y012822D02*
X000962Y012822D01*
X001001Y012774D02*
X001097Y012774D01*
X001058Y012725D02*
X001040Y012725D01*
D13*
X005070Y009534D02*
X005070Y004376D01*
X010228Y004376D01*
X010228Y009534D01*
X005070Y009534D01*
D14*
X005464Y009140D03*
D15*
X004421Y009593D03*
D16*
X004436Y009972D02*
X004347Y009972D01*
X004391Y009972D02*
X004391Y010238D01*
X004347Y010238D02*
X004436Y010238D01*
X004516Y010193D02*
X004516Y010016D01*
X004561Y009972D01*
X004649Y009972D01*
X004694Y010016D01*
X004770Y009972D02*
X004947Y009972D01*
X004859Y009972D02*
X004859Y010238D01*
X004770Y010149D01*
X004694Y010193D02*
X004649Y010238D01*
X004561Y010238D01*
X004516Y010193D01*
X006670Y007226D02*
X006670Y006960D01*
X006847Y006960D01*
X006924Y006960D02*
X006924Y007226D01*
X007012Y007137D01*
X007101Y007226D01*
X007101Y006960D01*
X007177Y007004D02*
X007222Y006960D01*
X007310Y006960D01*
X007355Y007004D01*
X007355Y007049D01*
X007310Y007093D01*
X007266Y007093D01*
X007310Y007093D02*
X007355Y007137D01*
X007355Y007182D01*
X007310Y007226D01*
X007222Y007226D01*
X007177Y007182D01*
X007431Y007182D02*
X007476Y007226D01*
X007564Y007226D01*
X007608Y007182D01*
X007685Y007226D02*
X007685Y007093D01*
X007774Y007137D01*
X007818Y007137D01*
X007862Y007093D01*
X007862Y007004D01*
X007818Y006960D01*
X007729Y006960D01*
X007685Y007004D01*
X007608Y007004D02*
X007564Y006960D01*
X007476Y006960D01*
X007431Y007004D01*
X007476Y007093D02*
X007564Y007093D01*
X007608Y007049D01*
X007608Y007004D01*
X007476Y007093D02*
X007431Y007137D01*
X007431Y007182D01*
X007685Y007226D02*
X007862Y007226D01*
X007939Y007226D02*
X008116Y007226D01*
X008116Y007182D01*
X007939Y007004D01*
X007939Y006960D01*
X008193Y007093D02*
X008370Y007093D01*
X008446Y007137D02*
X008491Y007093D01*
X008623Y007093D01*
X008623Y007004D02*
X008623Y007182D01*
X008579Y007226D01*
X008491Y007226D01*
X008446Y007182D01*
X008446Y007137D01*
X008446Y007004D02*
X008491Y006960D01*
X008579Y006960D01*
X008623Y007004D01*
X008325Y006960D02*
X008325Y007226D01*
X008193Y007093D01*
D17*
X011514Y009489D02*
X011514Y009949D01*
X011744Y009949D01*
X011821Y009873D01*
X011821Y009719D01*
X011744Y009642D01*
X011514Y009642D01*
X011667Y009642D02*
X011821Y009489D01*
X011974Y009489D02*
X012281Y009489D01*
X012128Y009489D02*
X012128Y009949D01*
X011974Y009796D01*
X011947Y008782D02*
X012254Y008782D01*
X012407Y008782D02*
X012637Y008782D01*
X012714Y008705D01*
X012714Y008629D01*
X012637Y008552D01*
X012407Y008552D01*
X012407Y008322D02*
X012407Y008782D01*
X012637Y008552D02*
X012714Y008475D01*
X012714Y008398D01*
X012637Y008322D01*
X012407Y008322D01*
X012100Y008552D02*
X011947Y008552D01*
X011947Y008322D02*
X011947Y008782D01*
X012868Y008629D02*
X013021Y008782D01*
X013021Y008322D01*
X012868Y008322D02*
X013174Y008322D01*
X013850Y007528D02*
X013850Y007032D01*
X017354Y007032D01*
X017354Y010029D01*
X013850Y010029D01*
X013850Y009526D01*
X013852Y009504D01*
X013857Y009483D01*
X013865Y009463D01*
X013876Y009445D01*
X013890Y009428D01*
X013907Y009414D01*
X013925Y009403D01*
X013945Y009395D01*
X013966Y009390D01*
X013988Y009388D01*
X014219Y009388D01*
X015108Y008814D02*
X015108Y008235D01*
X015107Y008235D02*
X015109Y008214D01*
X015114Y008194D01*
X015122Y008175D01*
X015132Y008157D01*
X015146Y008141D01*
X015162Y008127D01*
X015180Y008117D01*
X015199Y008109D01*
X015219Y008104D01*
X015240Y008102D01*
X016824Y008019D01*
X016838Y008020D01*
X016851Y008025D01*
X016862Y008033D01*
X016871Y008043D01*
X016877Y008056D01*
X016880Y008069D01*
X016879Y008083D01*
X016874Y008096D01*
X016866Y008107D01*
X016856Y008116D01*
X016843Y008122D01*
X016830Y008125D01*
X016830Y008124D02*
X015605Y008191D01*
X015581Y008193D01*
X015557Y008198D01*
X015534Y008206D01*
X015513Y008218D01*
X015493Y008233D01*
X015476Y008250D01*
X015461Y008270D01*
X015449Y008291D01*
X015441Y008314D01*
X015436Y008338D01*
X015434Y008362D01*
X015434Y008709D01*
X015433Y008709D02*
X015435Y008733D01*
X015440Y008756D01*
X015448Y008778D01*
X015459Y008799D01*
X015474Y008818D01*
X015490Y008834D01*
X015509Y008849D01*
X015530Y008860D01*
X015552Y008868D01*
X015575Y008873D01*
X015599Y008875D01*
X015627Y008875D01*
X016824Y008930D01*
X016825Y008930D02*
X016838Y008932D01*
X016851Y008938D01*
X016862Y008947D01*
X016870Y008958D01*
X016875Y008971D01*
X016877Y008985D01*
X016875Y008999D01*
X016870Y009012D01*
X016862Y009023D01*
X016851Y009032D01*
X016838Y009038D01*
X016825Y009040D01*
X016824Y009041D02*
X015251Y008958D01*
X015228Y008956D01*
X015206Y008951D01*
X015186Y008942D01*
X015166Y008930D01*
X015149Y008916D01*
X015135Y008899D01*
X015123Y008879D01*
X015114Y008859D01*
X015109Y008837D01*
X015107Y008814D01*
X015285Y009195D02*
X016731Y009261D01*
X016747Y009261D01*
X016769Y009263D01*
X016790Y009268D01*
X016810Y009276D01*
X016828Y009287D01*
X016845Y009301D01*
X016859Y009318D01*
X016870Y009336D01*
X016878Y009356D01*
X016883Y009377D01*
X016885Y009399D01*
X016885Y010006D01*
X016609Y009593D02*
X015268Y009681D01*
X015256Y009683D01*
X015245Y009689D01*
X015236Y009697D01*
X015229Y009707D01*
X015225Y009718D01*
X015224Y009730D01*
X015224Y010006D01*
X015279Y009311D02*
X016615Y009399D01*
X016614Y009399D02*
X016633Y009402D01*
X016650Y009409D01*
X016666Y009418D01*
X016680Y009431D01*
X016691Y009446D01*
X016699Y009462D01*
X016704Y009480D01*
X016705Y009499D01*
X016703Y009517D01*
X016697Y009535D01*
X016688Y009551D01*
X016676Y009565D01*
X016661Y009577D01*
X016645Y009586D01*
X016627Y009591D01*
X016609Y009593D01*
X015279Y009311D02*
X015265Y009309D01*
X015253Y009303D01*
X015241Y009294D01*
X015233Y009284D01*
X015227Y009271D01*
X015224Y009257D01*
X015225Y009243D01*
X015229Y009230D01*
X015236Y009218D01*
X015246Y009208D01*
X015257Y009200D01*
X015271Y009196D01*
X015285Y009195D01*
X015285Y007865D02*
X016731Y007799D01*
X016747Y007799D01*
X016769Y007797D01*
X016790Y007792D01*
X016810Y007784D01*
X016828Y007773D01*
X016845Y007759D01*
X016859Y007742D01*
X016870Y007724D01*
X016878Y007704D01*
X016883Y007683D01*
X016885Y007661D01*
X016885Y007054D01*
X016829Y006869D02*
X016752Y006792D01*
X016829Y006869D02*
X016982Y006869D01*
X017059Y006792D01*
X017059Y006715D01*
X016982Y006638D01*
X017059Y006562D01*
X017059Y006485D01*
X016982Y006408D01*
X016829Y006408D01*
X016752Y006485D01*
X016906Y006638D02*
X016982Y006638D01*
X016599Y006869D02*
X016445Y006869D01*
X016522Y006869D02*
X016522Y006485D01*
X016445Y006408D01*
X016368Y006408D01*
X016292Y006485D01*
X016609Y007468D02*
X015268Y007379D01*
X015256Y007377D01*
X015245Y007371D01*
X015236Y007363D01*
X015229Y007353D01*
X015225Y007342D01*
X015224Y007330D01*
X015224Y007054D01*
X015279Y007749D02*
X016615Y007661D01*
X016614Y007661D02*
X016633Y007658D01*
X016650Y007651D01*
X016666Y007642D01*
X016680Y007629D01*
X016691Y007614D01*
X016699Y007598D01*
X016704Y007580D01*
X016705Y007561D01*
X016703Y007543D01*
X016697Y007525D01*
X016688Y007509D01*
X016676Y007495D01*
X016661Y007483D01*
X016645Y007474D01*
X016627Y007469D01*
X016609Y007467D01*
X015279Y007749D02*
X015265Y007751D01*
X015253Y007757D01*
X015241Y007766D01*
X015233Y007776D01*
X015227Y007789D01*
X015224Y007803D01*
X015225Y007817D01*
X015229Y007830D01*
X015236Y007842D01*
X015246Y007852D01*
X015257Y007860D01*
X015271Y007864D01*
X015285Y007865D01*
X014203Y007672D02*
X013993Y007672D01*
X013993Y007671D02*
X013971Y007669D01*
X013949Y007664D01*
X013928Y007655D01*
X013909Y007644D01*
X013892Y007629D01*
X013877Y007612D01*
X013866Y007593D01*
X013857Y007572D01*
X013852Y007550D01*
X013850Y007528D01*
X013717Y006037D02*
X013641Y005960D01*
X013334Y005960D01*
X013410Y005884D02*
X013410Y006037D01*
X013487Y005730D02*
X013564Y005730D01*
X013564Y005423D01*
X013641Y005423D02*
X013487Y005423D01*
X013410Y005500D01*
X013410Y005653D01*
X013487Y005730D01*
X013717Y005653D02*
X013717Y005500D01*
X013641Y005423D01*
X013641Y005270D02*
X013564Y005193D01*
X013564Y005040D01*
X013487Y004963D01*
X013410Y005040D01*
X013410Y005270D01*
X013641Y005270D02*
X013717Y005193D01*
X013717Y004963D01*
X013564Y004809D02*
X013564Y004502D01*
X013641Y004502D02*
X013487Y004502D01*
X013410Y004579D01*
X013410Y004733D01*
X013487Y004809D01*
X013564Y004809D01*
X013717Y004733D02*
X013717Y004579D01*
X013641Y004502D01*
X013717Y004349D02*
X013564Y004196D01*
X013564Y004272D02*
X013564Y004042D01*
X013717Y004042D02*
X013257Y004042D01*
X013257Y004272D01*
X013334Y004349D01*
X013487Y004349D01*
X013564Y004272D01*
X011728Y003315D02*
X011652Y003392D01*
X011498Y003392D01*
X011421Y003315D01*
X011268Y003315D02*
X011191Y003392D01*
X011038Y003392D01*
X010961Y003315D01*
X010961Y003009D01*
X011038Y002932D01*
X011191Y002932D01*
X011268Y003009D01*
X011421Y002932D02*
X011728Y003239D01*
X011728Y003315D01*
X011728Y002932D02*
X011421Y002932D01*
X011488Y001038D02*
X011795Y000577D01*
X011949Y000577D02*
X012255Y000577D01*
X012102Y000577D02*
X012102Y001038D01*
X011949Y000884D01*
X011795Y001038D02*
X011488Y000577D01*
X010509Y000627D02*
X010202Y000320D01*
X010509Y000320D01*
X010509Y000627D02*
X010202Y000627D01*
X010049Y000550D02*
X009742Y000550D01*
X009742Y000320D02*
X009742Y000780D01*
X009588Y000780D02*
X009588Y000320D01*
X009281Y000320D02*
X009281Y000780D01*
X009435Y000627D01*
X009588Y000780D01*
X009128Y000704D02*
X009128Y000627D01*
X009051Y000550D01*
X008898Y000550D01*
X008821Y000627D01*
X008821Y000704D01*
X008898Y000780D01*
X009051Y000780D01*
X009128Y000704D01*
X009051Y000550D02*
X009128Y000473D01*
X009128Y000397D01*
X009051Y000320D01*
X008898Y000320D01*
X008821Y000397D01*
X008821Y000473D01*
X008898Y000550D01*
X010049Y000780D02*
X010049Y000320D01*
X008382Y002932D02*
X008075Y002932D01*
X008228Y002932D02*
X008228Y003392D01*
X008075Y003239D01*
X007921Y003315D02*
X007845Y003392D01*
X007691Y003392D01*
X007615Y003315D01*
X007615Y003009D01*
X007691Y002932D01*
X007845Y002932D01*
X007921Y003009D01*
X013220Y000602D02*
X013297Y000525D01*
X013374Y000525D01*
X013451Y000602D01*
X013451Y000986D01*
X013527Y000986D02*
X013374Y000986D01*
X013681Y000755D02*
X013988Y000755D01*
X013911Y000525D02*
X013911Y000986D01*
X013681Y000755D01*
X016194Y004211D02*
X016194Y004442D01*
X016271Y004518D01*
X016425Y004518D01*
X016501Y004442D01*
X016501Y004211D01*
X016655Y004211D02*
X016194Y004211D01*
X016194Y004672D02*
X016655Y004672D01*
X016501Y004825D01*
X016655Y004979D01*
X016194Y004979D01*
X016194Y005132D02*
X016194Y005362D01*
X016271Y005439D01*
X016425Y005439D01*
X016501Y005362D01*
X016501Y005132D01*
X016501Y005286D02*
X016655Y005439D01*
X016655Y005132D02*
X016194Y005132D01*
D18*
X017472Y003107D02*
X013141Y003107D01*
X013141Y001138D01*
X017472Y001138D01*
X017472Y003107D01*
X011291Y002664D02*
X011291Y000892D01*
X008141Y000892D01*
X008141Y002664D01*
X011291Y002664D01*
D19*
X012200Y006364D03*
X016929Y004918D03*
D20*
X015349Y002988D02*
X015196Y002757D01*
X015119Y002757D02*
X015043Y002834D01*
X015081Y002834D02*
X014966Y002834D01*
X014966Y002757D02*
X014966Y002988D01*
X015081Y002988D01*
X015119Y002949D01*
X015119Y002873D01*
X015081Y002834D01*
X015196Y002988D02*
X015349Y002757D01*
X015349Y002488D02*
X015196Y002257D01*
X015043Y002257D02*
X015043Y002488D01*
X015119Y002488D02*
X014966Y002488D01*
X014659Y002373D02*
X014505Y002373D01*
X014199Y002411D02*
X014160Y002373D01*
X014199Y002334D01*
X014199Y002296D01*
X014160Y002257D01*
X014083Y002257D01*
X014045Y002296D01*
X014122Y002373D02*
X014160Y002373D01*
X014199Y002411D02*
X014199Y002449D01*
X014160Y002488D01*
X014083Y002488D01*
X014045Y002449D01*
X014160Y002757D02*
X014160Y002988D01*
X014045Y002873D01*
X014199Y002873D01*
X014505Y002873D02*
X014659Y002873D01*
X015196Y002488D02*
X015349Y002257D01*
X015349Y001988D02*
X015349Y001757D01*
X015196Y001988D01*
X015196Y001757D01*
X015119Y001796D02*
X015119Y001873D01*
X015043Y001873D01*
X015119Y001949D02*
X015081Y001988D01*
X015004Y001988D01*
X014966Y001949D01*
X014966Y001796D01*
X015004Y001757D01*
X015081Y001757D01*
X015119Y001796D01*
X015426Y001757D02*
X015541Y001757D01*
X015580Y001796D01*
X015580Y001949D01*
X015541Y001988D01*
X015426Y001988D01*
X015426Y001757D01*
X015426Y001488D02*
X015541Y001488D01*
X015580Y001449D01*
X015580Y001296D01*
X015541Y001257D01*
X015426Y001257D01*
X015426Y001488D01*
X015349Y001488D02*
X015196Y001488D01*
X015196Y001257D01*
X015349Y001257D01*
X015273Y001373D02*
X015196Y001373D01*
X015119Y001257D02*
X014966Y001257D01*
X014966Y001488D01*
X014659Y001373D02*
X014505Y001373D01*
X014199Y001257D02*
X014045Y001257D01*
X014122Y001257D02*
X014122Y001488D01*
X014045Y001411D01*
X014045Y001757D02*
X014199Y001911D01*
X014199Y001949D01*
X014160Y001988D01*
X014083Y001988D01*
X014045Y001949D01*
X014045Y001757D02*
X014199Y001757D01*
X014505Y001873D02*
X014659Y001873D01*
D21*
X002549Y001814D02*
X002299Y001564D01*
X002549Y001314D01*
X002549Y000814D01*
X002299Y000564D01*
X000799Y000564D01*
X000549Y000814D01*
X000549Y001314D01*
X000799Y001564D01*
X000549Y001814D01*
X000549Y002314D01*
X000799Y002564D01*
X000549Y002814D01*
X000549Y003314D01*
X000799Y003564D01*
X000549Y003814D01*
X000549Y004314D01*
X000799Y004564D01*
X000549Y004814D01*
X000549Y005314D01*
X000799Y005564D01*
X000549Y005814D01*
X000549Y006314D01*
X000799Y006564D01*
X000549Y006814D01*
X000549Y007314D01*
X000799Y007564D01*
X000549Y007814D01*
X000549Y008314D01*
X000799Y008564D01*
X000549Y008814D01*
X000549Y009314D01*
X000799Y009564D01*
X000549Y009814D01*
X000549Y010314D01*
X000799Y010564D01*
X000549Y010814D01*
X000549Y011314D01*
X000799Y011564D01*
X000549Y011814D01*
X000549Y012314D01*
X000799Y012564D01*
X002299Y012564D01*
X002549Y012314D01*
X002549Y011814D01*
X002299Y011564D01*
X002549Y011314D01*
X002549Y010814D01*
X002299Y010564D01*
X002549Y010314D01*
X002549Y009814D01*
X002299Y009564D01*
X002549Y009314D01*
X002549Y008814D01*
X002299Y008564D01*
X002549Y008314D01*
X002549Y007814D01*
X002299Y007564D01*
X002549Y007314D01*
X002549Y006814D01*
X002299Y006564D01*
X002549Y006314D01*
X002549Y005814D01*
X002299Y005564D01*
X002549Y005314D01*
X002549Y004814D01*
X002299Y004564D01*
X002549Y004314D01*
X002549Y003814D01*
X002299Y003564D01*
X002549Y003314D01*
X002549Y002814D01*
X002299Y002564D01*
X002549Y002314D01*
X002549Y001814D01*
X003899Y012164D02*
X003649Y012414D01*
X003649Y013914D01*
X003899Y014164D01*
X004399Y014164D01*
X004649Y013914D01*
X004899Y014164D01*
X005399Y014164D01*
X005649Y013914D01*
X005899Y014164D01*
X006399Y014164D01*
X006649Y013914D01*
X006899Y014164D01*
X007399Y014164D01*
X007649Y013914D01*
X007899Y014164D01*
X008399Y014164D01*
X008649Y013914D01*
X008899Y014164D01*
X009399Y014164D01*
X009649Y013914D01*
X009899Y014164D01*
X010399Y014164D01*
X010649Y013914D01*
X010899Y014164D01*
X011399Y014164D01*
X011649Y013914D01*
X011649Y012414D01*
X011399Y012164D01*
X010899Y012164D01*
X010649Y012414D01*
X010399Y012164D01*
X009899Y012164D01*
X009649Y012414D01*
X009399Y012164D01*
X008899Y012164D01*
X008649Y012414D01*
X008399Y012164D01*
X007899Y012164D01*
X007649Y012414D01*
X007399Y012164D01*
X006899Y012164D01*
X006649Y012414D01*
X006399Y012164D01*
X005899Y012164D01*
X005649Y012414D01*
X005399Y012164D01*
X004899Y012164D01*
X004649Y012414D01*
X004399Y012164D01*
X003899Y012164D01*
X013149Y012414D02*
X013399Y012164D01*
X013899Y012164D01*
X014149Y012414D01*
X014399Y012164D01*
X014899Y012164D01*
X015149Y012414D01*
X015399Y012164D01*
X015899Y012164D01*
X016149Y012414D01*
X016399Y012164D01*
X016899Y012164D01*
X017149Y012414D01*
X017149Y013914D01*
X016899Y014164D01*
X016399Y014164D01*
X016149Y013914D01*
X015899Y014164D01*
X015399Y014164D01*
X015149Y013914D01*
X014899Y014164D01*
X014399Y014164D01*
X014149Y013914D01*
X013899Y014164D01*
X013399Y014164D01*
X013149Y013914D01*
X013149Y012414D01*
M02*
