G75*
G70*
%OFA0B0*%
%FSLAX24Y24*%
%IPPOS*%
%LPD*%
%AMOC8*
5,1,8,0,0,1.08239X$1,22.5*
%
%ADD10C,0.0474*%
%ADD11R,0.0630X0.0157*%
%ADD12R,0.0157X0.0630*%
%ADD13R,0.0474X0.0513*%
%ADD14C,0.0552*%
%ADD15R,0.0867X0.0277*%
%ADD16C,0.0434*%
%ADD17R,0.1261X0.1261*%
%ADD18R,0.0513X0.0474*%
%ADD19R,0.0513X0.0867*%
%ADD20R,0.0395X0.0395*%
%ADD21C,0.0417*%
%ADD22R,0.0592X0.0671*%
%ADD23R,0.0680X0.0680*%
%ADD24C,0.0680*%
D10*
X004618Y003924D03*
X010681Y009987D03*
D11*
X010681Y009317D03*
X010681Y009120D03*
X010681Y008924D03*
X010681Y008727D03*
X010681Y008530D03*
X010681Y008333D03*
X010681Y008136D03*
X010681Y007939D03*
X010681Y007743D03*
X010681Y007546D03*
X010681Y007349D03*
X010681Y007152D03*
X010681Y006955D03*
X010681Y006758D03*
X010681Y006561D03*
X010681Y006365D03*
X010681Y006168D03*
X010681Y005971D03*
X010681Y005774D03*
X010681Y005577D03*
X010681Y005380D03*
X010681Y005183D03*
X010681Y004987D03*
X010681Y004790D03*
X010681Y004593D03*
X004618Y004593D03*
X004618Y004790D03*
X004618Y004987D03*
X004618Y005183D03*
X004618Y005380D03*
X004618Y005577D03*
X004618Y005774D03*
X004618Y005971D03*
X004618Y006168D03*
X004618Y006365D03*
X004618Y006561D03*
X004618Y006758D03*
X004618Y006955D03*
X004618Y007152D03*
X004618Y007349D03*
X004618Y007546D03*
X004618Y007743D03*
X004618Y007939D03*
X004618Y008136D03*
X004618Y008333D03*
X004618Y008530D03*
X004618Y008727D03*
X004618Y008924D03*
X004618Y009120D03*
X004618Y009317D03*
D12*
X005287Y009987D03*
X005484Y009987D03*
X005681Y009987D03*
X005878Y009987D03*
X006074Y009987D03*
X006271Y009987D03*
X006468Y009987D03*
X006665Y009987D03*
X006862Y009987D03*
X007059Y009987D03*
X007256Y009987D03*
X007452Y009987D03*
X007649Y009987D03*
X007846Y009987D03*
X008043Y009987D03*
X008240Y009987D03*
X008437Y009987D03*
X008633Y009987D03*
X008830Y009987D03*
X009027Y009987D03*
X009224Y009987D03*
X009421Y009987D03*
X009618Y009987D03*
X009815Y009987D03*
X010011Y009987D03*
X010011Y003924D03*
X009815Y003924D03*
X009618Y003924D03*
X009421Y003924D03*
X009224Y003924D03*
X009027Y003924D03*
X008830Y003924D03*
X008633Y003924D03*
X008437Y003924D03*
X008240Y003924D03*
X008043Y003924D03*
X007846Y003924D03*
X007649Y003924D03*
X007452Y003924D03*
X007256Y003924D03*
X007059Y003924D03*
X006862Y003924D03*
X006665Y003924D03*
X006468Y003924D03*
X006271Y003924D03*
X006074Y003924D03*
X005878Y003924D03*
X005681Y003924D03*
X005484Y003924D03*
X005287Y003924D03*
D13*
X011567Y009160D03*
X012236Y009160D03*
D14*
X013830Y009967D02*
X014303Y009967D01*
X015917Y009967D02*
X016389Y009967D01*
X016389Y007093D02*
X015917Y007093D01*
X014303Y007093D02*
X013830Y007093D01*
D15*
X013968Y007900D03*
X013968Y008215D03*
X013968Y008530D03*
X013968Y008845D03*
X013968Y009160D03*
D16*
X014854Y009219D03*
X014854Y007841D03*
D17*
X011094Y001778D03*
X008338Y001778D03*
D18*
X008791Y003117D03*
X009460Y003117D03*
X009972Y003117D03*
X010641Y003117D03*
D19*
X014215Y003707D03*
X015671Y003707D03*
X015671Y006227D03*
X014215Y006227D03*
D20*
X012544Y006364D03*
X011954Y006364D03*
X016929Y005262D03*
X016929Y004672D03*
D21*
X013703Y002861D02*
X013367Y002861D01*
X013367Y002369D02*
X013703Y002369D01*
X013703Y001876D02*
X013367Y001876D01*
X013367Y001384D02*
X013703Y001384D01*
D22*
X012905Y007900D03*
X012157Y007900D03*
D23*
X013649Y012664D03*
X011149Y013664D03*
X001049Y012064D03*
D24*
X001049Y001064D03*
X002049Y001064D03*
X002049Y002064D03*
X002049Y003064D03*
X001049Y003064D03*
X001049Y002064D03*
X001049Y004064D03*
X002049Y004064D03*
X002049Y005064D03*
X001049Y005064D03*
X001049Y006064D03*
X002049Y006064D03*
X002049Y007064D03*
X002049Y008064D03*
X001049Y008064D03*
X001049Y007064D03*
X001049Y009064D03*
X002049Y009064D03*
X002049Y010064D03*
X001049Y010064D03*
X001049Y011064D03*
X002049Y011064D03*
X002049Y012064D03*
X004149Y012664D03*
X005149Y012664D03*
X006149Y012664D03*
X007149Y012664D03*
X008149Y012664D03*
X009149Y012664D03*
X010149Y012664D03*
X011149Y012664D03*
X010149Y013664D03*
X009149Y013664D03*
X008149Y013664D03*
X007149Y013664D03*
X006149Y013664D03*
X005149Y013664D03*
X004149Y013664D03*
X013649Y013664D03*
X014649Y013664D03*
X015649Y013664D03*
X016649Y013664D03*
X016649Y012664D03*
X015649Y012664D03*
X014649Y012664D03*
M02*
