G75*
G70*
%OFA0B0*%
%FSLAX24Y24*%
%IPPOS*%
%LPD*%
%AMOC8*
5,1,8,0,0,1.08239X$1,22.5*
%
%ADD10R,0.0591X0.0118*%
%ADD11R,0.0118X0.0591*%
%ADD12C,0.0394*%
%ADD13R,0.0394X0.0433*%
%ADD14C,0.0472*%
%ADD15R,0.0787X0.0197*%
%ADD16R,0.1181X0.1181*%
%ADD17R,0.0433X0.0394*%
%ADD18R,0.0433X0.0787*%
%ADD19R,0.0315X0.0315*%
%ADD20C,0.0337*%
%ADD21R,0.0512X0.0591*%
%ADD22R,0.0600X0.0600*%
%ADD23C,0.0600*%
%ADD24C,0.0098*%
%ADD25C,0.0270*%
%ADD26C,0.0197*%
%ADD27C,0.0295*%
D10*
X004618Y004593D03*
X004618Y004790D03*
X004618Y004987D03*
X004618Y005183D03*
X004618Y005380D03*
X004618Y005577D03*
X004618Y005774D03*
X004618Y005971D03*
X004618Y006168D03*
X004618Y006365D03*
X004618Y006561D03*
X004618Y006758D03*
X004618Y006955D03*
X004618Y007152D03*
X004618Y007349D03*
X004618Y007546D03*
X004618Y007743D03*
X004618Y007939D03*
X004618Y008136D03*
X004618Y008333D03*
X004618Y008530D03*
X004618Y008727D03*
X004618Y008924D03*
X004618Y009120D03*
X004618Y009317D03*
X010681Y009317D03*
X010681Y009120D03*
X010681Y008924D03*
X010681Y008727D03*
X010681Y008530D03*
X010681Y008333D03*
X010681Y008136D03*
X010681Y007939D03*
X010681Y007743D03*
X010681Y007546D03*
X010681Y007349D03*
X010681Y007152D03*
X010681Y006955D03*
X010681Y006758D03*
X010681Y006561D03*
X010681Y006365D03*
X010681Y006168D03*
X010681Y005971D03*
X010681Y005774D03*
X010681Y005577D03*
X010681Y005380D03*
X010681Y005183D03*
X010681Y004987D03*
X010681Y004790D03*
X010681Y004593D03*
D11*
X010011Y003924D03*
X009815Y003924D03*
X009618Y003924D03*
X009421Y003924D03*
X009224Y003924D03*
X009027Y003924D03*
X008830Y003924D03*
X008633Y003924D03*
X008437Y003924D03*
X008240Y003924D03*
X008043Y003924D03*
X007846Y003924D03*
X007649Y003924D03*
X007452Y003924D03*
X007256Y003924D03*
X007059Y003924D03*
X006862Y003924D03*
X006665Y003924D03*
X006468Y003924D03*
X006271Y003924D03*
X006074Y003924D03*
X005878Y003924D03*
X005681Y003924D03*
X005484Y003924D03*
X005287Y003924D03*
X005287Y009987D03*
X005484Y009987D03*
X005681Y009987D03*
X005878Y009987D03*
X006074Y009987D03*
X006271Y009987D03*
X006468Y009987D03*
X006665Y009987D03*
X006862Y009987D03*
X007059Y009987D03*
X007256Y009987D03*
X007452Y009987D03*
X007649Y009987D03*
X007846Y009987D03*
X008043Y009987D03*
X008240Y009987D03*
X008437Y009987D03*
X008633Y009987D03*
X008830Y009987D03*
X009027Y009987D03*
X009224Y009987D03*
X009421Y009987D03*
X009618Y009987D03*
X009815Y009987D03*
X010011Y009987D03*
D12*
X010681Y009987D03*
X004618Y003924D03*
D13*
X011567Y009160D03*
X012236Y009160D03*
D14*
X013830Y009967D02*
X014303Y009967D01*
X015917Y009967D02*
X016389Y009967D01*
X016389Y007093D02*
X015917Y007093D01*
X014303Y007093D02*
X013830Y007093D01*
D15*
X013968Y007900D03*
X013968Y008215D03*
X013968Y008530D03*
X013968Y008845D03*
X013968Y009160D03*
D16*
X011094Y001778D03*
X008338Y001778D03*
D17*
X008791Y003117D03*
X009460Y003117D03*
X009972Y003117D03*
X010641Y003117D03*
D18*
X014215Y003707D03*
X015671Y003707D03*
X015671Y006227D03*
X014215Y006227D03*
D19*
X012544Y006364D03*
X011954Y006364D03*
X016929Y005262D03*
X016929Y004672D03*
D20*
X013703Y002861D02*
X013367Y002861D01*
X013367Y002369D02*
X013703Y002369D01*
X013703Y001876D02*
X013367Y001876D01*
X013367Y001384D02*
X013703Y001384D01*
D21*
X012905Y007900D03*
X012157Y007900D03*
D22*
X013649Y012664D03*
X011149Y013664D03*
X001049Y012064D03*
D23*
X002049Y012064D03*
X002049Y011064D03*
X001049Y011064D03*
X001049Y010064D03*
X002049Y010064D03*
X002049Y009064D03*
X001049Y009064D03*
X001049Y008064D03*
X002049Y008064D03*
X002049Y007064D03*
X001049Y007064D03*
X001049Y006064D03*
X002049Y006064D03*
X002049Y005064D03*
X001049Y005064D03*
X001049Y004064D03*
X002049Y004064D03*
X002049Y003064D03*
X001049Y003064D03*
X001049Y002064D03*
X002049Y002064D03*
X002049Y001064D03*
X001049Y001064D03*
X004149Y012664D03*
X005149Y012664D03*
X006149Y012664D03*
X007149Y012664D03*
X008149Y012664D03*
X009149Y012664D03*
X010149Y012664D03*
X011149Y012664D03*
X010149Y013664D03*
X009149Y013664D03*
X008149Y013664D03*
X007149Y013664D03*
X006149Y013664D03*
X005149Y013664D03*
X004149Y013664D03*
X013649Y013664D03*
X014649Y013664D03*
X015649Y013664D03*
X016649Y013664D03*
X016649Y012664D03*
X015649Y012664D03*
X014649Y012664D03*
D24*
X000348Y014335D02*
X000348Y000363D01*
X017273Y000363D01*
X017273Y006965D01*
X016710Y006965D01*
X016682Y006897D01*
X016585Y006800D01*
X016458Y006747D01*
X015966Y006747D01*
X015979Y006740D01*
X016007Y006712D01*
X016027Y006678D01*
X016037Y006640D01*
X016037Y006276D01*
X015720Y006276D01*
X015622Y006276D01*
X015622Y006178D01*
X015306Y006178D01*
X015306Y005813D01*
X015316Y005775D01*
X015335Y005741D01*
X015363Y005714D01*
X015397Y005694D01*
X015435Y005684D01*
X015622Y005684D01*
X015622Y006178D01*
X015720Y006178D01*
X015720Y005684D01*
X015907Y005684D01*
X015945Y005694D01*
X015979Y005714D01*
X016007Y005741D01*
X016027Y005775D01*
X016037Y005813D01*
X016037Y006178D01*
X015720Y006178D01*
X015720Y006276D01*
X015720Y006770D01*
X015795Y006770D01*
X015721Y006800D01*
X015624Y006897D01*
X015596Y006965D01*
X015011Y006965D01*
X014982Y006994D01*
X014982Y007487D01*
X014929Y007465D01*
X014779Y007465D01*
X014641Y007522D01*
X014535Y007628D01*
X014483Y007752D01*
X014467Y007752D01*
X014407Y007692D01*
X013270Y007692D01*
X013270Y007559D01*
X013206Y007496D01*
X012604Y007496D01*
X012540Y007559D01*
X012540Y008175D01*
X012522Y008175D01*
X012522Y007559D01*
X012458Y007496D01*
X012385Y007496D01*
X012401Y007456D01*
X012401Y007359D01*
X012381Y007310D01*
X012974Y007310D01*
X013889Y006395D01*
X013889Y006666D01*
X013953Y006730D01*
X014476Y006730D01*
X014540Y006666D01*
X014540Y006422D01*
X014562Y006422D01*
X014611Y006471D01*
X014701Y006508D01*
X014798Y006508D01*
X014888Y006471D01*
X014956Y006402D01*
X014993Y006312D01*
X014993Y006215D01*
X014956Y006125D01*
X014888Y006057D01*
X014798Y006020D01*
X014701Y006020D01*
X014611Y006057D01*
X014562Y006105D01*
X014540Y006105D01*
X014540Y005788D01*
X014476Y005724D01*
X014471Y005724D01*
X014471Y004210D01*
X014476Y004210D01*
X014540Y004146D01*
X014540Y003268D01*
X014476Y003204D01*
X013953Y003204D01*
X013889Y003268D01*
X013889Y004146D01*
X013953Y004210D01*
X013958Y004210D01*
X013958Y005724D01*
X013953Y005724D01*
X013889Y005788D01*
X013889Y006068D01*
X013768Y006068D01*
X013675Y006161D01*
X013675Y006161D01*
X012843Y006994D01*
X011125Y006994D01*
X011125Y006955D01*
X010681Y006955D01*
X010681Y006955D01*
X011125Y006955D01*
X011125Y006876D01*
X011115Y006838D01*
X011095Y006804D01*
X011085Y006794D01*
X011085Y006326D01*
X011188Y006326D01*
X011205Y006344D01*
X011205Y006412D01*
X011242Y006502D01*
X011311Y006571D01*
X011401Y006608D01*
X011498Y006608D01*
X011588Y006571D01*
X011647Y006511D01*
X011647Y006541D01*
X011657Y006579D01*
X011677Y006613D01*
X011705Y006641D01*
X011739Y006660D01*
X011777Y006670D01*
X011924Y006670D01*
X011924Y006393D01*
X011983Y006393D01*
X011983Y006670D01*
X012131Y006670D01*
X012169Y006660D01*
X012203Y006641D01*
X012231Y006613D01*
X012250Y006579D01*
X012261Y006541D01*
X012261Y006393D01*
X011983Y006393D01*
X011983Y006334D01*
X011983Y006057D01*
X012131Y006057D01*
X012169Y006067D01*
X012203Y006087D01*
X012231Y006115D01*
X012250Y006149D01*
X012261Y006187D01*
X012261Y006334D01*
X011983Y006334D01*
X011924Y006334D01*
X011924Y006057D01*
X011777Y006057D01*
X011739Y006067D01*
X011705Y006087D01*
X011677Y006115D01*
X011657Y006149D01*
X011647Y006187D01*
X011647Y006216D01*
X011588Y006157D01*
X011498Y006120D01*
X011429Y006120D01*
X011412Y006102D01*
X011319Y006009D01*
X011085Y006009D01*
X011085Y005935D01*
X011095Y005925D01*
X011115Y005891D01*
X011125Y005853D01*
X011125Y005774D01*
X010681Y005774D01*
X011125Y005774D01*
X011125Y005736D01*
X012364Y005736D01*
X012412Y005784D01*
X012502Y005821D01*
X012599Y005821D01*
X012689Y005784D01*
X012758Y005715D01*
X012795Y005626D01*
X012795Y005529D01*
X012758Y005439D01*
X012689Y005370D01*
X012599Y005333D01*
X012502Y005333D01*
X012412Y005370D01*
X012364Y005419D01*
X011085Y005419D01*
X011085Y005344D01*
X011095Y005334D01*
X011115Y005300D01*
X011125Y005262D01*
X011125Y005183D01*
X010681Y005183D01*
X010681Y005183D01*
X011125Y005183D01*
X011125Y005105D01*
X011115Y005067D01*
X011095Y005033D01*
X011085Y005023D01*
X011085Y004489D01*
X011021Y004425D01*
X010340Y004425D01*
X010276Y004489D01*
X010276Y005023D01*
X010266Y005033D01*
X010246Y005067D01*
X010236Y005105D01*
X010236Y005183D01*
X010681Y005183D01*
X010189Y005183D01*
X010236Y005183D02*
X010681Y005183D01*
X010681Y005183D01*
X010681Y005577D02*
X012551Y005577D01*
X012717Y005398D02*
X013958Y005398D01*
X013958Y005495D02*
X012781Y005495D01*
X012795Y005592D02*
X013958Y005592D01*
X013958Y005689D02*
X012769Y005689D01*
X012686Y005785D02*
X013891Y005785D01*
X013889Y005882D02*
X011117Y005882D01*
X011125Y005785D02*
X012415Y005785D01*
X012342Y006097D02*
X012278Y006161D01*
X012278Y006566D01*
X012342Y006630D01*
X012747Y006630D01*
X012811Y006566D01*
X012811Y006522D01*
X012862Y006522D01*
X012911Y006571D01*
X013001Y006608D01*
X013098Y006608D01*
X013188Y006571D01*
X013256Y006502D01*
X013293Y006412D01*
X013293Y006315D01*
X013256Y006225D01*
X013188Y006157D01*
X013098Y006120D01*
X013001Y006120D01*
X012911Y006157D01*
X012862Y006205D01*
X012811Y006205D01*
X012811Y006161D01*
X012747Y006097D01*
X012342Y006097D01*
X012278Y006173D02*
X012257Y006173D01*
X012261Y006270D02*
X012278Y006270D01*
X012278Y006367D02*
X011983Y006367D01*
X011983Y006270D02*
X011924Y006270D01*
X011924Y006173D02*
X011983Y006173D01*
X011983Y006076D02*
X011924Y006076D01*
X011723Y006076D02*
X011386Y006076D01*
X011253Y006168D02*
X010681Y006168D01*
X010685Y006164D01*
X010681Y005774D02*
X010236Y005774D01*
X010236Y005736D01*
X010002Y005736D01*
X009953Y005784D01*
X009863Y005821D01*
X009766Y005821D01*
X009676Y005784D01*
X009608Y005715D01*
X009570Y005626D01*
X009570Y005529D01*
X009608Y005439D01*
X009676Y005370D01*
X009766Y005333D01*
X009863Y005333D01*
X009953Y005370D01*
X010002Y005419D01*
X010276Y005419D01*
X010276Y005344D01*
X010266Y005334D01*
X010246Y005300D01*
X010236Y005262D01*
X010236Y005183D01*
X010236Y005204D02*
X007906Y005204D01*
X007906Y005301D02*
X010247Y005301D01*
X010276Y005398D02*
X009981Y005398D01*
X009815Y005577D02*
X010681Y005577D01*
X010681Y005774D02*
X010236Y005774D01*
X010236Y005853D01*
X010246Y005891D01*
X010266Y005925D01*
X010276Y005935D01*
X010276Y006525D01*
X010220Y006501D01*
X007906Y006501D01*
X007906Y004384D01*
X007899Y004368D01*
X007925Y004368D01*
X007963Y004358D01*
X007997Y004338D01*
X008007Y004328D01*
X008672Y004328D01*
X008672Y004603D01*
X008623Y004651D01*
X008586Y004741D01*
X008586Y004838D01*
X008623Y004928D01*
X008692Y004997D01*
X008782Y005034D01*
X008879Y005034D01*
X008969Y004997D01*
X009037Y004928D01*
X009075Y004838D01*
X009075Y004741D01*
X009037Y004651D01*
X008989Y004603D01*
X008989Y004368D01*
X009027Y004368D01*
X009027Y003924D01*
X009027Y003924D01*
X009027Y004368D01*
X009106Y004368D01*
X009144Y004358D01*
X009178Y004338D01*
X009188Y004328D01*
X010116Y004328D01*
X010180Y004264D01*
X010180Y003583D01*
X010116Y003519D01*
X009973Y003519D01*
X009973Y003423D01*
X010234Y003423D01*
X010286Y003371D01*
X010286Y003371D01*
X010305Y003405D01*
X010333Y003433D01*
X010367Y003452D01*
X010405Y003463D01*
X010592Y003463D01*
X010592Y003166D01*
X010691Y003166D01*
X011007Y003166D01*
X011007Y003333D01*
X010997Y003371D01*
X010977Y003405D01*
X010949Y003433D01*
X010915Y003452D01*
X010878Y003463D01*
X010691Y003463D01*
X010691Y003166D01*
X010691Y003067D01*
X011007Y003067D01*
X011007Y002900D01*
X010997Y002862D01*
X010977Y002828D01*
X010949Y002800D01*
X010915Y002781D01*
X010878Y002770D01*
X010691Y002770D01*
X010691Y003067D01*
X010592Y003067D01*
X010592Y002770D01*
X010405Y002770D01*
X010392Y002774D01*
X010688Y002478D01*
X011730Y002478D01*
X011794Y002414D01*
X011794Y001142D01*
X011730Y001078D01*
X010458Y001078D01*
X010394Y001142D01*
X010394Y002184D01*
X009768Y002810D01*
X009664Y002810D01*
X009038Y002184D01*
X009038Y001142D01*
X008974Y001078D01*
X007702Y001078D01*
X007638Y001142D01*
X007638Y002414D01*
X007702Y002478D01*
X008744Y002478D01*
X009041Y002774D01*
X009027Y002770D01*
X008840Y002770D01*
X008840Y003067D01*
X008742Y003067D01*
X008742Y002770D01*
X008555Y002770D01*
X008517Y002781D01*
X008483Y002800D01*
X008455Y002828D01*
X008435Y002862D01*
X008425Y002900D01*
X008425Y003067D01*
X008742Y003067D01*
X008742Y003166D01*
X008742Y003463D01*
X008555Y003463D01*
X008517Y003452D01*
X008483Y003433D01*
X008455Y003405D01*
X008435Y003371D01*
X008425Y003333D01*
X008425Y003166D01*
X008742Y003166D01*
X008840Y003166D01*
X008840Y003463D01*
X009027Y003463D01*
X009065Y003452D01*
X009099Y003433D01*
X009127Y003405D01*
X009147Y003371D01*
X009147Y003371D01*
X009198Y003423D01*
X009459Y003423D01*
X009459Y003519D01*
X009188Y003519D01*
X009178Y003509D01*
X009144Y003489D01*
X009106Y003479D01*
X009027Y003479D01*
X009027Y003924D01*
X009027Y004357D01*
X009086Y004416D01*
X008989Y004428D02*
X010336Y004428D01*
X010276Y004525D02*
X008989Y004525D01*
X009008Y004622D02*
X010276Y004622D01*
X010276Y004719D02*
X009065Y004719D01*
X009075Y004816D02*
X010276Y004816D01*
X010276Y004913D02*
X009044Y004913D01*
X008937Y005010D02*
X010276Y005010D01*
X010236Y005107D02*
X007906Y005107D01*
X007906Y005010D02*
X008724Y005010D01*
X008617Y004913D02*
X007906Y004913D01*
X007906Y004816D02*
X008586Y004816D01*
X008595Y004719D02*
X007906Y004719D01*
X007906Y004622D02*
X008652Y004622D01*
X008672Y004525D02*
X007906Y004525D01*
X007906Y004428D02*
X008672Y004428D01*
X008672Y004332D02*
X008003Y004332D01*
X008004Y004416D02*
X007846Y004258D01*
X007846Y003924D01*
X007846Y004269D01*
X007846Y004269D01*
X007846Y003924D01*
X007846Y003924D01*
X007846Y003924D01*
X007846Y003479D01*
X007767Y003479D01*
X007729Y003489D01*
X007695Y003509D01*
X007685Y003519D01*
X007610Y003519D01*
X007610Y002298D01*
X007518Y002206D01*
X006217Y000905D01*
X003984Y000905D01*
X003891Y000998D01*
X003484Y001405D01*
X002286Y001405D01*
X002396Y001296D01*
X002458Y001145D01*
X002458Y000982D01*
X002396Y000832D01*
X002281Y000717D01*
X002131Y000655D01*
X001968Y000655D01*
X001817Y000717D01*
X001702Y000832D01*
X001640Y000982D01*
X001640Y001145D01*
X001702Y001296D01*
X001812Y001405D01*
X001484Y001405D01*
X001391Y001498D01*
X001204Y001685D01*
X001131Y001655D01*
X000968Y001655D01*
X000817Y001717D01*
X000702Y001832D01*
X000640Y001982D01*
X000640Y002145D01*
X000702Y002296D01*
X000817Y002411D01*
X000968Y002473D01*
X001131Y002473D01*
X001281Y002411D01*
X001396Y002296D01*
X001458Y002145D01*
X001458Y001982D01*
X001428Y001909D01*
X001615Y001722D01*
X001812Y001722D01*
X001702Y001832D01*
X001640Y001982D01*
X001640Y002145D01*
X001702Y002296D01*
X001812Y002405D01*
X001484Y002405D01*
X001391Y002498D01*
X001204Y002685D01*
X001131Y002655D01*
X000968Y002655D01*
X000817Y002717D01*
X000702Y002832D01*
X000640Y002982D01*
X000640Y003145D01*
X000702Y003296D01*
X000817Y003411D01*
X000968Y003473D01*
X001131Y003473D01*
X001281Y003411D01*
X001396Y003296D01*
X001458Y003145D01*
X001458Y002982D01*
X001428Y002909D01*
X001615Y002722D01*
X001812Y002722D01*
X001702Y002832D01*
X001640Y002982D01*
X001640Y003145D01*
X001702Y003296D01*
X001812Y003405D01*
X001484Y003405D01*
X001391Y003498D01*
X001204Y003685D01*
X001131Y003655D01*
X000968Y003655D01*
X000817Y003717D01*
X000702Y003832D01*
X000640Y003982D01*
X000640Y004145D01*
X000702Y004296D01*
X000817Y004411D01*
X000968Y004473D01*
X001131Y004473D01*
X001281Y004411D01*
X001396Y004296D01*
X001458Y004145D01*
X001458Y003982D01*
X001428Y003909D01*
X001615Y003722D01*
X001812Y003722D01*
X001702Y003832D01*
X001640Y003982D01*
X001640Y004145D01*
X001702Y004296D01*
X001812Y004405D01*
X001484Y004405D01*
X001391Y004498D01*
X001204Y004685D01*
X001131Y004655D01*
X000968Y004655D01*
X000817Y004717D01*
X000702Y004832D01*
X000640Y004982D01*
X000640Y005145D01*
X000702Y005296D01*
X000817Y005411D01*
X000968Y005473D01*
X001131Y005473D01*
X001281Y005411D01*
X001396Y005296D01*
X001458Y005145D01*
X001458Y004982D01*
X001428Y004909D01*
X001615Y004722D01*
X001812Y004722D01*
X001702Y004832D01*
X001640Y004982D01*
X001640Y005145D01*
X001702Y005296D01*
X001817Y005411D01*
X001968Y005473D01*
X002131Y005473D01*
X002281Y005411D01*
X002396Y005296D01*
X002427Y005222D01*
X002896Y005222D01*
X002341Y005777D01*
X002281Y005717D01*
X002131Y005655D01*
X001968Y005655D01*
X001817Y005717D01*
X001702Y005832D01*
X001640Y005982D01*
X001640Y006145D01*
X001702Y006296D01*
X001812Y006405D01*
X001615Y006405D01*
X001428Y006219D01*
X001458Y006145D01*
X001458Y005982D01*
X001396Y005832D01*
X001281Y005717D01*
X001131Y005655D01*
X000968Y005655D01*
X000817Y005717D01*
X000702Y005832D01*
X000640Y005982D01*
X000640Y006145D01*
X000702Y006296D01*
X000817Y006411D01*
X000968Y006473D01*
X001131Y006473D01*
X001204Y006443D01*
X001391Y006629D01*
X001484Y006722D01*
X001812Y006722D01*
X001702Y006832D01*
X001640Y006982D01*
X001640Y007145D01*
X001702Y007296D01*
X001812Y007405D01*
X001615Y007405D01*
X001428Y007219D01*
X001458Y007145D01*
X001458Y006982D01*
X001396Y006832D01*
X001281Y006717D01*
X001131Y006655D01*
X000968Y006655D01*
X000817Y006717D01*
X000702Y006832D01*
X000640Y006982D01*
X000640Y007145D01*
X000702Y007296D01*
X000817Y007411D01*
X000968Y007473D01*
X001131Y007473D01*
X001204Y007443D01*
X001391Y007629D01*
X001484Y007722D01*
X001812Y007722D01*
X001702Y007832D01*
X001640Y007982D01*
X001640Y008145D01*
X001702Y008296D01*
X001812Y008405D01*
X001615Y008405D01*
X001428Y008219D01*
X001458Y008145D01*
X001458Y007982D01*
X001396Y007832D01*
X001281Y007717D01*
X001131Y007655D01*
X000968Y007655D01*
X000817Y007717D01*
X000702Y007832D01*
X000640Y007982D01*
X000640Y008145D01*
X000702Y008296D01*
X000817Y008411D01*
X000968Y008473D01*
X001131Y008473D01*
X001204Y008443D01*
X001391Y008629D01*
X001484Y008722D01*
X001812Y008722D01*
X001702Y008832D01*
X001640Y008982D01*
X001640Y009145D01*
X001702Y009296D01*
X001812Y009405D01*
X001615Y009405D01*
X001428Y009219D01*
X001458Y009145D01*
X001458Y008982D01*
X001396Y008832D01*
X001281Y008717D01*
X001131Y008655D01*
X000968Y008655D01*
X000817Y008717D01*
X000702Y008832D01*
X000640Y008982D01*
X000640Y009145D01*
X000702Y009296D01*
X000817Y009411D01*
X000968Y009473D01*
X001131Y009473D01*
X001204Y009443D01*
X001391Y009629D01*
X001484Y009722D01*
X001812Y009722D01*
X001702Y009832D01*
X001640Y009982D01*
X001640Y010145D01*
X001702Y010296D01*
X001812Y010405D01*
X001615Y010405D01*
X001428Y010219D01*
X001458Y010145D01*
X001458Y009982D01*
X001396Y009832D01*
X001281Y009717D01*
X001131Y009655D01*
X000968Y009655D01*
X000817Y009717D01*
X000702Y009832D01*
X000640Y009982D01*
X000640Y010145D01*
X000702Y010296D01*
X000817Y010411D01*
X000968Y010473D01*
X001131Y010473D01*
X001204Y010443D01*
X001391Y010629D01*
X001484Y010722D01*
X001812Y010722D01*
X001702Y010832D01*
X001640Y010982D01*
X001640Y011145D01*
X001702Y011296D01*
X001812Y011405D01*
X001615Y011405D01*
X001428Y011219D01*
X001458Y011145D01*
X001458Y010982D01*
X001396Y010832D01*
X001281Y010717D01*
X001131Y010655D01*
X000968Y010655D01*
X000817Y010717D01*
X000702Y010832D01*
X000640Y010982D01*
X000640Y011145D01*
X000702Y011296D01*
X000817Y011411D01*
X000968Y011473D01*
X001131Y011473D01*
X001204Y011443D01*
X001391Y011629D01*
X001484Y011722D01*
X001812Y011722D01*
X001702Y011832D01*
X001640Y011982D01*
X001640Y012145D01*
X001702Y012296D01*
X001812Y012405D01*
X001615Y012405D01*
X001458Y012249D01*
X001458Y011719D01*
X001394Y011655D01*
X000704Y011655D01*
X000640Y011719D01*
X000640Y012409D01*
X000704Y012473D01*
X001234Y012473D01*
X001391Y012629D01*
X001484Y012722D01*
X002615Y012722D01*
X004215Y011122D01*
X004308Y011029D01*
X004308Y009524D01*
X004346Y009486D01*
X004958Y009486D01*
X005022Y009422D01*
X005022Y009082D01*
X005297Y009082D01*
X005346Y009131D01*
X005435Y009168D01*
X005532Y009168D01*
X005622Y009131D01*
X005691Y009062D01*
X005728Y008972D01*
X005728Y008875D01*
X005691Y008785D01*
X005622Y008717D01*
X005532Y008679D01*
X005435Y008679D01*
X005346Y008717D01*
X005297Y008765D01*
X005062Y008765D01*
X005062Y008727D01*
X004618Y008727D01*
X004618Y008727D01*
X005062Y008727D01*
X005062Y008648D01*
X005052Y008610D01*
X005032Y008576D01*
X005022Y008566D01*
X005022Y008449D01*
X005078Y008472D01*
X007392Y008472D01*
X007392Y009526D01*
X007416Y009582D01*
X006823Y009582D01*
X006823Y009307D01*
X006872Y009259D01*
X006909Y009169D01*
X006909Y009072D01*
X006872Y008982D01*
X006803Y008913D01*
X006714Y008876D01*
X006616Y008876D01*
X006527Y008913D01*
X006458Y008982D01*
X006421Y009072D01*
X006421Y009169D01*
X006458Y009259D01*
X006507Y009307D01*
X006507Y009542D01*
X006468Y009542D01*
X006468Y009987D01*
X006468Y009632D01*
X006330Y009494D01*
X006351Y009552D02*
X006389Y009542D01*
X006468Y009542D01*
X006468Y009987D01*
X006468Y009987D01*
X006468Y009953D02*
X006468Y009953D01*
X006468Y009856D02*
X006468Y009856D01*
X006468Y009759D02*
X006468Y009759D01*
X006468Y009662D02*
X006468Y009662D01*
X006468Y009566D02*
X006468Y009566D01*
X006507Y009469D02*
X004975Y009469D01*
X005022Y009372D02*
X006507Y009372D01*
X006474Y009275D02*
X005022Y009275D01*
X005022Y009178D02*
X006424Y009178D01*
X006421Y009081D02*
X005672Y009081D01*
X005723Y008984D02*
X006457Y008984D01*
X006590Y008887D02*
X005728Y008887D01*
X005693Y008790D02*
X007392Y008790D01*
X007392Y008693D02*
X005566Y008693D01*
X005402Y008693D02*
X005062Y008693D01*
X005011Y008727D02*
X004618Y008727D01*
X004618Y008924D02*
X005484Y008924D01*
X005110Y008628D02*
X005011Y008727D01*
X005044Y008596D02*
X007392Y008596D01*
X007392Y008499D02*
X005022Y008499D01*
X005130Y008215D02*
X004933Y008136D01*
X004618Y008136D01*
X004618Y007939D02*
X005326Y007939D01*
X005484Y007782D01*
X005653Y007958D02*
X005691Y007920D01*
X005728Y007830D01*
X005728Y007733D01*
X005691Y007644D01*
X005622Y007575D01*
X005532Y007538D01*
X005435Y007538D01*
X005346Y007575D01*
X005277Y007644D01*
X005240Y007733D01*
X005240Y007781D01*
X005062Y007781D01*
X005062Y007743D01*
X004618Y007743D01*
X004618Y007743D01*
X005011Y007743D01*
X005110Y007644D01*
X005062Y007664D02*
X005062Y007743D01*
X004618Y007743D01*
X004618Y007546D02*
X004618Y007546D01*
X004267Y007546D01*
X004049Y007764D01*
X004049Y008064D01*
X003349Y008764D01*
X003349Y009764D01*
X002549Y010564D01*
X001549Y010564D01*
X001049Y010064D01*
X000640Y010050D02*
X000348Y010050D01*
X000348Y009953D02*
X000652Y009953D01*
X000692Y009856D02*
X000348Y009856D01*
X000348Y009759D02*
X000775Y009759D01*
X000949Y009662D02*
X000348Y009662D01*
X000348Y009566D02*
X001327Y009566D01*
X001424Y009662D02*
X001150Y009662D01*
X001141Y009469D02*
X001230Y009469D01*
X000957Y009469D02*
X000348Y009469D01*
X000348Y009372D02*
X000778Y009372D01*
X000694Y009275D02*
X000348Y009275D01*
X000348Y009178D02*
X000654Y009178D01*
X000640Y009081D02*
X000348Y009081D01*
X000348Y008984D02*
X000640Y008984D01*
X000679Y008887D02*
X000348Y008887D01*
X000348Y008790D02*
X000744Y008790D01*
X000874Y008693D02*
X000348Y008693D01*
X000348Y008596D02*
X001358Y008596D01*
X001455Y008693D02*
X001224Y008693D01*
X001354Y008790D02*
X001744Y008790D01*
X001679Y008887D02*
X001419Y008887D01*
X001458Y008984D02*
X001640Y008984D01*
X001640Y009081D02*
X001458Y009081D01*
X001445Y009178D02*
X001654Y009178D01*
X001694Y009275D02*
X001484Y009275D01*
X001581Y009372D02*
X001778Y009372D01*
X001549Y009564D02*
X002549Y009564D01*
X002949Y009164D01*
X002949Y008574D01*
X003649Y007864D01*
X003649Y006874D01*
X004159Y006364D01*
X004618Y006364D01*
X004618Y006365D01*
X004618Y006561D02*
X005022Y006561D01*
X005022Y006561D01*
X004618Y006561D01*
X004618Y006561D01*
X004972Y006561D01*
X005110Y006424D01*
X005052Y006445D02*
X005062Y006483D01*
X005062Y006533D01*
X005137Y006501D01*
X007392Y006501D01*
X007392Y004384D01*
X007416Y004328D01*
X006826Y004328D01*
X006816Y004338D01*
X006782Y004358D01*
X006744Y004368D01*
X006704Y004368D01*
X006881Y004546D01*
X006950Y004546D01*
X007040Y004583D01*
X007108Y004651D01*
X007145Y004741D01*
X007145Y004838D01*
X007108Y004928D01*
X007040Y004997D01*
X006950Y005034D01*
X006853Y005034D01*
X006763Y004997D01*
X006694Y004928D01*
X006657Y004838D01*
X006657Y004770D01*
X006310Y004422D01*
X006310Y004328D01*
X005757Y004328D01*
X005793Y004415D01*
X005793Y004512D01*
X005756Y004602D01*
X005688Y004671D01*
X005604Y004705D01*
X005662Y004705D01*
X005711Y004657D01*
X005801Y004620D01*
X005898Y004620D01*
X005988Y004657D01*
X006056Y004725D01*
X006093Y004815D01*
X006093Y004912D01*
X006056Y005002D01*
X005988Y005071D01*
X005898Y005108D01*
X005801Y005108D01*
X005711Y005071D01*
X005662Y005022D01*
X005423Y005022D01*
X005221Y004820D01*
X005128Y004727D01*
X005128Y004274D01*
X005119Y004264D01*
X005119Y003583D01*
X005183Y003519D01*
X005522Y003519D01*
X005522Y003453D01*
X005391Y003322D01*
X004815Y003322D01*
X004493Y003644D01*
X004557Y003618D01*
X004679Y003618D01*
X004791Y003664D01*
X004877Y003750D01*
X005119Y003750D01*
X005119Y003653D02*
X004764Y003653D01*
X004877Y003750D02*
X004924Y003863D01*
X004924Y003985D01*
X004877Y004097D01*
X004791Y004183D01*
X004679Y004230D01*
X004557Y004230D01*
X004444Y004183D01*
X004358Y004097D01*
X004312Y003985D01*
X004312Y003863D01*
X004338Y003799D01*
X003703Y004434D01*
X004268Y004434D01*
X004277Y004425D01*
X004958Y004425D01*
X005022Y004489D01*
X005022Y005219D01*
X005032Y005230D01*
X005052Y005264D01*
X005062Y005302D01*
X005062Y005380D01*
X004618Y005380D01*
X004618Y005380D01*
X005062Y005380D01*
X005062Y005419D01*
X005297Y005419D01*
X005346Y005370D01*
X005435Y005333D01*
X005532Y005333D01*
X005622Y005370D01*
X005691Y005439D01*
X005728Y005529D01*
X005728Y005626D01*
X005691Y005715D01*
X005622Y005784D01*
X005532Y005821D01*
X005435Y005821D01*
X005346Y005784D01*
X005297Y005736D01*
X005022Y005736D01*
X005022Y006401D01*
X005032Y006411D01*
X005052Y006445D01*
X005057Y006464D02*
X007392Y006464D01*
X007392Y006367D02*
X005022Y006367D01*
X005022Y006270D02*
X007392Y006270D01*
X007392Y006173D02*
X005022Y006173D01*
X005022Y006076D02*
X007392Y006076D01*
X007392Y005979D02*
X005022Y005979D01*
X005022Y005882D02*
X007392Y005882D01*
X007392Y005785D02*
X005619Y005785D01*
X005702Y005689D02*
X007392Y005689D01*
X007392Y005592D02*
X005728Y005592D01*
X005714Y005495D02*
X007392Y005495D01*
X007392Y005398D02*
X005650Y005398D01*
X005484Y005577D02*
X004618Y005577D01*
X004618Y005380D02*
X005011Y005380D01*
X005110Y005282D01*
X005062Y005301D02*
X007392Y005301D01*
X007392Y005204D02*
X005022Y005204D01*
X005022Y005107D02*
X005798Y005107D01*
X005900Y005107D02*
X007392Y005107D01*
X007392Y005010D02*
X007008Y005010D01*
X007114Y004913D02*
X007392Y004913D01*
X007392Y004816D02*
X007145Y004816D01*
X007136Y004719D02*
X007392Y004719D01*
X007392Y004622D02*
X007079Y004622D01*
X006861Y004525D02*
X007392Y004525D01*
X007392Y004428D02*
X006764Y004428D01*
X006842Y004416D02*
X006665Y004239D01*
X006665Y003924D01*
X006665Y004330D01*
X006665Y004329D01*
X006665Y003924D01*
X006665Y003924D01*
X006665Y003479D01*
X006703Y003479D01*
X006703Y003029D01*
X006429Y002755D01*
X006429Y003519D01*
X006504Y003519D01*
X006514Y003509D01*
X006548Y003489D01*
X006586Y003479D01*
X006665Y003479D01*
X006665Y003924D01*
X006665Y003924D01*
X006665Y003944D02*
X006665Y003944D01*
X006665Y004041D02*
X006665Y004041D01*
X006665Y004138D02*
X006665Y004138D01*
X006665Y004235D02*
X006665Y004235D01*
X006822Y004332D02*
X007414Y004332D01*
X007649Y004435D02*
X007649Y003924D01*
X007452Y003923D02*
X007452Y003924D01*
X007452Y003923D02*
X007452Y002364D01*
X006152Y001064D01*
X004049Y001064D01*
X003549Y001564D01*
X001549Y001564D01*
X001049Y002064D01*
X000671Y001908D02*
X000348Y001908D01*
X000348Y001812D02*
X000723Y001812D01*
X000823Y001715D02*
X000348Y001715D01*
X000348Y001618D02*
X001271Y001618D01*
X001368Y001521D02*
X000348Y001521D01*
X000348Y001424D02*
X000781Y001424D01*
X000757Y001406D02*
X000707Y001356D01*
X000665Y001299D01*
X000633Y001236D01*
X000611Y001169D01*
X000602Y001113D01*
X001000Y001113D01*
X001000Y001511D01*
X000944Y001502D01*
X000877Y001480D01*
X000814Y001448D01*
X000757Y001406D01*
X000685Y001327D02*
X000348Y001327D01*
X000348Y001230D02*
X000631Y001230D01*
X000605Y001133D02*
X000348Y001133D01*
X000348Y001036D02*
X001000Y001036D01*
X001000Y001015D02*
X001000Y001113D01*
X001098Y001113D01*
X001098Y001511D01*
X001154Y001502D01*
X001222Y001480D01*
X001285Y001448D01*
X001342Y001406D01*
X001392Y001356D01*
X001433Y001299D01*
X001466Y001236D01*
X001487Y001169D01*
X001496Y001113D01*
X001098Y001113D01*
X001098Y001015D01*
X001098Y000617D01*
X001154Y000626D01*
X001222Y000647D01*
X001285Y000680D01*
X001342Y000721D01*
X001392Y000771D01*
X001433Y000828D01*
X001466Y000891D01*
X001487Y000959D01*
X001496Y001015D01*
X001098Y001015D01*
X001000Y001015D01*
X000602Y001015D01*
X000611Y000959D01*
X000633Y000891D01*
X000665Y000828D01*
X000707Y000771D01*
X000757Y000721D01*
X000814Y000680D01*
X000877Y000647D01*
X000944Y000626D01*
X001000Y000617D01*
X001000Y001015D01*
X001000Y000939D02*
X001098Y000939D01*
X001098Y000842D02*
X001000Y000842D01*
X001000Y000745D02*
X001098Y000745D01*
X001098Y000648D02*
X001000Y000648D01*
X000875Y000648D02*
X000348Y000648D01*
X000348Y000551D02*
X017273Y000551D01*
X017273Y000455D02*
X000348Y000455D01*
X000348Y000745D02*
X000732Y000745D01*
X000658Y000842D02*
X000348Y000842D01*
X000348Y000939D02*
X000617Y000939D01*
X001000Y001133D02*
X001098Y001133D01*
X001098Y001036D02*
X001640Y001036D01*
X001640Y001133D02*
X001493Y001133D01*
X001468Y001230D02*
X001675Y001230D01*
X001734Y001327D02*
X001413Y001327D01*
X001465Y001424D02*
X001318Y001424D01*
X001098Y001424D02*
X001000Y001424D01*
X001000Y001327D02*
X001098Y001327D01*
X001098Y001230D02*
X001000Y001230D01*
X001481Y000939D02*
X001658Y000939D01*
X001698Y000842D02*
X001441Y000842D01*
X001366Y000745D02*
X001789Y000745D01*
X002309Y000745D02*
X017273Y000745D01*
X017273Y000648D02*
X001223Y000648D01*
X002400Y000842D02*
X017273Y000842D01*
X017273Y000939D02*
X006251Y000939D01*
X006348Y001036D02*
X017273Y001036D01*
X017273Y001133D02*
X013822Y001133D01*
X013861Y001149D02*
X013939Y001227D01*
X013981Y001329D01*
X013981Y001439D01*
X013939Y001542D01*
X013873Y001608D01*
X013906Y001630D01*
X013950Y001674D01*
X013985Y001726D01*
X014009Y001784D01*
X014021Y001845D01*
X014021Y001876D01*
X013535Y001876D01*
X013049Y001876D01*
X013049Y001845D01*
X013061Y001784D01*
X013085Y001726D01*
X013120Y001674D01*
X013164Y001630D01*
X013197Y001608D01*
X013131Y001542D01*
X013089Y001439D01*
X013089Y001329D01*
X013131Y001227D01*
X013209Y001149D01*
X013311Y001107D01*
X013759Y001107D01*
X013861Y001149D01*
X013940Y001230D02*
X017273Y001230D01*
X017273Y001327D02*
X013980Y001327D01*
X013981Y001424D02*
X017273Y001424D01*
X017273Y001521D02*
X013947Y001521D01*
X013888Y001618D02*
X017273Y001618D01*
X017273Y001715D02*
X013977Y001715D01*
X014014Y001812D02*
X017273Y001812D01*
X017273Y001908D02*
X014021Y001908D01*
X014009Y001969D01*
X013985Y002027D01*
X013950Y002079D01*
X013906Y002123D01*
X013873Y002145D01*
X013939Y002211D01*
X013981Y002313D01*
X013981Y002424D01*
X013939Y002526D01*
X013861Y002604D01*
X013835Y002615D01*
X013861Y002625D01*
X013939Y002703D01*
X013981Y002805D01*
X013981Y002916D01*
X013939Y003018D01*
X013861Y003096D01*
X013759Y003138D01*
X013311Y003138D01*
X013209Y003096D01*
X013131Y003018D01*
X013089Y002916D01*
X013089Y002805D01*
X013131Y002703D01*
X013209Y002625D01*
X013235Y002615D01*
X013209Y002604D01*
X013131Y002526D01*
X013089Y002424D01*
X013089Y002313D01*
X013131Y002211D01*
X013197Y002145D01*
X013164Y002123D01*
X013120Y002079D01*
X013085Y002027D01*
X013061Y001969D01*
X013049Y001908D01*
X013049Y001876D01*
X013535Y001876D01*
X013535Y001876D01*
X013535Y001876D01*
X014021Y001876D01*
X014021Y001908D01*
X013994Y002005D02*
X017273Y002005D01*
X017273Y002102D02*
X013927Y002102D01*
X013927Y002199D02*
X017273Y002199D01*
X017273Y002296D02*
X013974Y002296D01*
X013981Y002393D02*
X017273Y002393D01*
X017273Y002490D02*
X013954Y002490D01*
X013878Y002587D02*
X017273Y002587D01*
X017273Y002684D02*
X013919Y002684D01*
X013971Y002781D02*
X017273Y002781D01*
X017273Y002878D02*
X013981Y002878D01*
X013957Y002975D02*
X017273Y002975D01*
X017273Y003072D02*
X013885Y003072D01*
X013892Y003265D02*
X011007Y003265D01*
X011007Y003168D02*
X015419Y003168D01*
X015435Y003164D02*
X015622Y003164D01*
X015622Y003658D01*
X015306Y003658D01*
X015306Y003294D01*
X015316Y003256D01*
X015335Y003222D01*
X015363Y003194D01*
X015397Y003174D01*
X015435Y003164D01*
X015313Y003265D02*
X014538Y003265D01*
X014540Y003362D02*
X015306Y003362D01*
X015306Y003459D02*
X014540Y003459D01*
X014540Y003556D02*
X015306Y003556D01*
X015306Y003653D02*
X014540Y003653D01*
X014540Y003750D02*
X015622Y003750D01*
X015622Y003756D02*
X015622Y003658D01*
X015720Y003658D01*
X015720Y003164D01*
X015907Y003164D01*
X015945Y003174D01*
X015979Y003194D01*
X016007Y003222D01*
X016027Y003256D01*
X016037Y003294D01*
X016037Y003658D01*
X015720Y003658D01*
X015720Y003756D01*
X015622Y003756D01*
X015306Y003756D01*
X015306Y004120D01*
X015316Y004158D01*
X015335Y004192D01*
X015363Y004220D01*
X015397Y004240D01*
X015435Y004250D01*
X015622Y004250D01*
X015622Y003756D01*
X015622Y003847D02*
X015720Y003847D01*
X015720Y003756D02*
X015720Y004250D01*
X015907Y004250D01*
X015945Y004240D01*
X015979Y004220D01*
X016007Y004192D01*
X016027Y004158D01*
X016037Y004120D01*
X016037Y003756D01*
X015720Y003756D01*
X015720Y003750D02*
X017273Y003750D01*
X017273Y003653D02*
X016037Y003653D01*
X016037Y003556D02*
X017273Y003556D01*
X017273Y003459D02*
X016037Y003459D01*
X016037Y003362D02*
X017273Y003362D01*
X017273Y003265D02*
X016029Y003265D01*
X015923Y003168D02*
X017273Y003168D01*
X017273Y003847D02*
X016037Y003847D01*
X016037Y003944D02*
X017273Y003944D01*
X017273Y004041D02*
X016037Y004041D01*
X016032Y004138D02*
X017273Y004138D01*
X017273Y004235D02*
X015954Y004235D01*
X015720Y004235D02*
X015622Y004235D01*
X015622Y004138D02*
X015720Y004138D01*
X015720Y004041D02*
X015622Y004041D01*
X015622Y003944D02*
X015720Y003944D01*
X015720Y003653D02*
X015622Y003653D01*
X015622Y003556D02*
X015720Y003556D01*
X015720Y003459D02*
X015622Y003459D01*
X015622Y003362D02*
X015720Y003362D01*
X015720Y003265D02*
X015622Y003265D01*
X015622Y003168D02*
X015720Y003168D01*
X015306Y003847D02*
X014540Y003847D01*
X014540Y003944D02*
X015306Y003944D01*
X015306Y004041D02*
X014540Y004041D01*
X014540Y004138D02*
X015310Y004138D01*
X015388Y004235D02*
X014471Y004235D01*
X014471Y004332D02*
X017273Y004332D01*
X017273Y004428D02*
X017209Y004428D01*
X017206Y004423D02*
X017225Y004457D01*
X017235Y004495D01*
X017235Y004642D01*
X016958Y004642D01*
X016958Y004365D01*
X017106Y004365D01*
X017144Y004375D01*
X017178Y004395D01*
X017206Y004423D01*
X017235Y004525D02*
X017273Y004525D01*
X017273Y004622D02*
X017235Y004622D01*
X017235Y004701D02*
X017235Y004849D01*
X017225Y004887D01*
X017206Y004921D01*
X017178Y004949D01*
X017144Y004968D01*
X017106Y004978D01*
X016958Y004978D01*
X016958Y004701D01*
X016899Y004701D01*
X016899Y004642D01*
X016622Y004642D01*
X016622Y004495D01*
X016632Y004457D01*
X016652Y004423D01*
X016680Y004395D01*
X016714Y004375D01*
X016752Y004365D01*
X016899Y004365D01*
X016899Y004642D01*
X016958Y004642D01*
X016958Y004701D01*
X017235Y004701D01*
X017235Y004719D02*
X017273Y004719D01*
X017273Y004816D02*
X017235Y004816D01*
X017210Y004913D02*
X017273Y004913D01*
X017273Y005010D02*
X017146Y005010D01*
X017131Y004996D02*
X017195Y005059D01*
X017195Y005465D01*
X017131Y005529D01*
X017087Y005529D01*
X017087Y005548D01*
X017136Y005596D01*
X017173Y005686D01*
X017173Y005783D01*
X017136Y005873D01*
X017067Y005942D01*
X016977Y005979D01*
X016880Y005979D01*
X016790Y005942D01*
X016722Y005873D01*
X016685Y005783D01*
X016685Y005686D01*
X016722Y005596D01*
X016770Y005548D01*
X016770Y005529D01*
X016726Y005529D01*
X016662Y005465D01*
X016662Y005059D01*
X016726Y004996D01*
X017131Y004996D01*
X017195Y005107D02*
X017273Y005107D01*
X017273Y005204D02*
X017195Y005204D01*
X017195Y005301D02*
X017273Y005301D01*
X017273Y005398D02*
X017195Y005398D01*
X017166Y005495D02*
X017273Y005495D01*
X017273Y005592D02*
X017131Y005592D01*
X017173Y005689D02*
X017273Y005689D01*
X017273Y005785D02*
X017172Y005785D01*
X017126Y005882D02*
X017273Y005882D01*
X017273Y005979D02*
X016037Y005979D01*
X016037Y005882D02*
X016731Y005882D01*
X016685Y005785D02*
X016030Y005785D01*
X015925Y005689D02*
X016685Y005689D01*
X016726Y005592D02*
X014471Y005592D01*
X014471Y005689D02*
X015418Y005689D01*
X015313Y005785D02*
X014538Y005785D01*
X014540Y005882D02*
X015306Y005882D01*
X015306Y005979D02*
X014540Y005979D01*
X014540Y006076D02*
X014591Y006076D01*
X014749Y006264D02*
X014249Y006264D01*
X014249Y006261D01*
X014215Y006227D01*
X013833Y006227D01*
X012908Y007152D01*
X010681Y007152D01*
X010681Y006955D02*
X010335Y006955D01*
X010335Y006955D01*
X010681Y006955D01*
X010366Y006955D01*
X010189Y007132D01*
X010266Y007106D02*
X010246Y007072D01*
X010236Y007034D01*
X010236Y007008D01*
X010220Y007015D01*
X007906Y007015D01*
X007906Y009526D01*
X007899Y009542D01*
X007925Y009542D01*
X007963Y009552D01*
X007997Y009572D01*
X008007Y009582D01*
X008669Y009582D01*
X008680Y009572D01*
X008714Y009552D01*
X008752Y009542D01*
X008830Y009542D01*
X008830Y009987D01*
X008830Y009554D01*
X008771Y009494D01*
X008830Y009542D02*
X008869Y009542D01*
X008869Y009307D01*
X008820Y009259D01*
X008783Y009169D01*
X008783Y009072D01*
X008820Y008982D01*
X008889Y008913D01*
X008979Y008876D01*
X009076Y008876D01*
X009165Y008913D01*
X009234Y008982D01*
X009271Y009072D01*
X009271Y009169D01*
X009234Y009259D01*
X009186Y009307D01*
X009186Y009582D01*
X010116Y009582D01*
X010180Y009646D01*
X010180Y010255D01*
X010530Y010255D01*
X010507Y010246D01*
X010421Y010160D01*
X010375Y010047D01*
X010375Y009926D01*
X010421Y009813D01*
X010507Y009727D01*
X010620Y009681D01*
X010742Y009681D01*
X010854Y009727D01*
X010940Y009813D01*
X010987Y009926D01*
X010987Y010047D01*
X010940Y010160D01*
X010854Y010246D01*
X010832Y010255D01*
X013630Y010255D01*
X013537Y010163D01*
X013485Y010036D01*
X013485Y009898D01*
X013537Y009771D01*
X013635Y009674D01*
X013762Y009621D01*
X014371Y009621D01*
X014498Y009674D01*
X014596Y009771D01*
X014648Y009898D01*
X014648Y010036D01*
X014596Y010163D01*
X014503Y010255D01*
X015665Y010255D01*
X015758Y010348D01*
X016715Y011305D01*
X016808Y011398D01*
X016808Y012286D01*
X016881Y012317D01*
X016996Y012432D01*
X017058Y012582D01*
X017058Y012745D01*
X016996Y012896D01*
X016881Y013011D01*
X016731Y013073D01*
X016568Y013073D01*
X016417Y013011D01*
X016302Y012896D01*
X016240Y012745D01*
X016240Y012582D01*
X016302Y012432D01*
X016417Y012317D01*
X016491Y012286D01*
X016491Y011529D01*
X015534Y010572D01*
X014982Y010572D01*
X015715Y011305D01*
X015808Y011398D01*
X015808Y012286D01*
X015881Y012317D01*
X015996Y012432D01*
X016058Y012582D01*
X016058Y012745D01*
X015996Y012896D01*
X015881Y013011D01*
X015731Y013073D01*
X015568Y013073D01*
X015417Y013011D01*
X015302Y012896D01*
X015240Y012745D01*
X015240Y012582D01*
X015302Y012432D01*
X015417Y012317D01*
X015491Y012286D01*
X015491Y011529D01*
X014734Y010772D01*
X014182Y010772D01*
X014715Y011305D01*
X014808Y011398D01*
X014808Y012286D01*
X014881Y012317D01*
X014996Y012432D01*
X015058Y012582D01*
X015058Y012745D01*
X014996Y012896D01*
X014881Y013011D01*
X014731Y013073D01*
X014568Y013073D01*
X014417Y013011D01*
X014302Y012896D01*
X014240Y012745D01*
X014240Y012582D01*
X014302Y012432D01*
X014417Y012317D01*
X014491Y012286D01*
X014491Y011529D01*
X013934Y010972D01*
X013382Y010972D01*
X013808Y011398D01*
X013808Y012255D01*
X013994Y012255D01*
X014058Y012319D01*
X014058Y013009D01*
X013994Y013073D01*
X013304Y013073D01*
X013240Y013009D01*
X013240Y012319D01*
X013304Y012255D01*
X013491Y012255D01*
X013491Y011529D01*
X013134Y011172D01*
X011582Y011172D01*
X011808Y011398D01*
X011808Y013229D01*
X011715Y013322D01*
X011558Y013479D01*
X011558Y014009D01*
X011494Y014073D01*
X010804Y014073D01*
X010740Y014009D01*
X010740Y013319D01*
X010804Y013255D01*
X011334Y013255D01*
X011491Y013098D01*
X011491Y012901D01*
X011381Y013011D01*
X011231Y013073D01*
X011068Y013073D01*
X010917Y013011D01*
X010808Y012901D01*
X010808Y013229D01*
X010528Y013509D01*
X010558Y013582D01*
X010558Y013745D01*
X010496Y013896D01*
X010381Y014011D01*
X010231Y014073D01*
X010068Y014073D01*
X009917Y014011D01*
X009802Y013896D01*
X009740Y013745D01*
X009740Y013582D01*
X009802Y013432D01*
X009917Y013317D01*
X010068Y013255D01*
X010231Y013255D01*
X010304Y013285D01*
X010491Y013098D01*
X010491Y012901D01*
X010381Y013011D01*
X010231Y013073D01*
X010068Y013073D01*
X009917Y013011D01*
X009808Y012901D01*
X009808Y013229D01*
X009715Y013322D01*
X009528Y013509D01*
X009558Y013582D01*
X009558Y013745D01*
X009496Y013896D01*
X009381Y014011D01*
X009231Y014073D01*
X009068Y014073D01*
X008917Y014011D01*
X008802Y013896D01*
X008740Y013745D01*
X008740Y013582D01*
X008802Y013432D01*
X008917Y013317D01*
X009068Y013255D01*
X009231Y013255D01*
X009304Y013285D01*
X009491Y013098D01*
X009491Y012901D01*
X009381Y013011D01*
X009231Y013073D01*
X009068Y013073D01*
X008917Y013011D01*
X008808Y012901D01*
X008808Y013229D01*
X008715Y013322D01*
X008528Y013509D01*
X008558Y013582D01*
X008558Y013745D01*
X008496Y013896D01*
X008381Y014011D01*
X008231Y014073D01*
X008068Y014073D01*
X007917Y014011D01*
X007802Y013896D01*
X007740Y013745D01*
X007740Y013582D01*
X007802Y013432D01*
X007917Y013317D01*
X008068Y013255D01*
X008231Y013255D01*
X008304Y013285D01*
X008491Y013098D01*
X008491Y012901D01*
X008381Y013011D01*
X008231Y013073D01*
X008068Y013073D01*
X007917Y013011D01*
X007808Y012901D01*
X007808Y013229D01*
X007715Y013322D01*
X007528Y013509D01*
X007558Y013582D01*
X007558Y013745D01*
X007496Y013896D01*
X007381Y014011D01*
X007231Y014073D01*
X007068Y014073D01*
X006917Y014011D01*
X006802Y013896D01*
X006740Y013745D01*
X006740Y013582D01*
X006802Y013432D01*
X006917Y013317D01*
X007068Y013255D01*
X007231Y013255D01*
X007304Y013285D01*
X007491Y013098D01*
X007491Y012901D01*
X007381Y013011D01*
X007231Y013073D01*
X007068Y013073D01*
X006917Y013011D01*
X006808Y012901D01*
X006808Y013229D01*
X006715Y013322D01*
X006528Y013509D01*
X006558Y013582D01*
X006558Y013745D01*
X006496Y013896D01*
X006381Y014011D01*
X006231Y014073D01*
X006068Y014073D01*
X005917Y014011D01*
X005802Y013896D01*
X005740Y013745D01*
X005740Y013582D01*
X005802Y013432D01*
X005917Y013317D01*
X006068Y013255D01*
X006231Y013255D01*
X006304Y013285D01*
X006491Y013098D01*
X006491Y012901D01*
X006381Y013011D01*
X006231Y013073D01*
X006068Y013073D01*
X005917Y013011D01*
X005808Y012901D01*
X005808Y013229D01*
X005715Y013322D01*
X005528Y013509D01*
X005558Y013582D01*
X005558Y013745D01*
X005496Y013896D01*
X005381Y014011D01*
X005231Y014073D01*
X005068Y014073D01*
X004917Y014011D01*
X004802Y013896D01*
X004740Y013745D01*
X004740Y013582D01*
X004802Y013432D01*
X004917Y013317D01*
X005068Y013255D01*
X005231Y013255D01*
X005304Y013285D01*
X005491Y013098D01*
X005491Y012901D01*
X005381Y013011D01*
X005231Y013073D01*
X005068Y013073D01*
X004917Y013011D01*
X004802Y012896D01*
X004740Y012745D01*
X004740Y012582D01*
X004802Y012432D01*
X004917Y012317D01*
X004991Y012286D01*
X004991Y010498D01*
X005129Y010360D01*
X005129Y010337D01*
X005119Y010327D01*
X005119Y009646D01*
X005183Y009582D01*
X006307Y009582D01*
X006317Y009572D01*
X006351Y009552D01*
X006329Y009566D02*
X004308Y009566D01*
X004308Y009662D02*
X005119Y009662D01*
X005119Y009759D02*
X004308Y009759D01*
X004308Y009856D02*
X005119Y009856D01*
X005119Y009953D02*
X004308Y009953D01*
X004308Y010050D02*
X005119Y010050D01*
X005119Y010147D02*
X004308Y010147D01*
X004308Y010244D02*
X005119Y010244D01*
X005129Y010341D02*
X004308Y010341D01*
X004308Y010438D02*
X005051Y010438D01*
X004991Y010535D02*
X004308Y010535D01*
X004308Y010632D02*
X004991Y010632D01*
X004991Y010729D02*
X004308Y010729D01*
X004308Y010826D02*
X004991Y010826D01*
X004991Y010923D02*
X004308Y010923D01*
X004308Y011019D02*
X004991Y011019D01*
X004991Y011116D02*
X004221Y011116D01*
X004124Y011213D02*
X004991Y011213D01*
X004991Y011310D02*
X004027Y011310D01*
X003930Y011407D02*
X004991Y011407D01*
X004991Y011504D02*
X003833Y011504D01*
X003736Y011601D02*
X004991Y011601D01*
X004991Y011698D02*
X003639Y011698D01*
X003542Y011795D02*
X004991Y011795D01*
X004991Y011892D02*
X003445Y011892D01*
X003348Y011989D02*
X004991Y011989D01*
X004991Y012086D02*
X003251Y012086D01*
X003155Y012183D02*
X004991Y012183D01*
X004991Y012279D02*
X004291Y012279D01*
X004231Y012255D02*
X004381Y012317D01*
X004496Y012432D01*
X004558Y012582D01*
X004558Y012745D01*
X004496Y012896D01*
X004381Y013011D01*
X004231Y013073D01*
X004068Y013073D01*
X003917Y013011D01*
X003802Y012896D01*
X003740Y012745D01*
X003740Y012582D01*
X003802Y012432D01*
X003917Y012317D01*
X004068Y012255D01*
X004231Y012255D01*
X004008Y012279D02*
X003058Y012279D01*
X002961Y012376D02*
X003858Y012376D01*
X003785Y012473D02*
X002864Y012473D01*
X002767Y012570D02*
X003745Y012570D01*
X003740Y012667D02*
X002670Y012667D01*
X002549Y012564D02*
X004149Y010964D01*
X004149Y009458D01*
X004290Y009317D01*
X004618Y009317D01*
X004618Y009317D01*
X004618Y009120D02*
X004618Y009120D01*
X004149Y009120D01*
X003949Y009320D01*
X003949Y010664D01*
X002549Y012064D01*
X002049Y012064D01*
X001678Y011892D02*
X001458Y011892D01*
X001458Y011989D02*
X001640Y011989D01*
X001640Y012086D02*
X001458Y012086D01*
X001458Y012183D02*
X001655Y012183D01*
X001696Y012279D02*
X001489Y012279D01*
X001586Y012376D02*
X001783Y012376D01*
X001549Y012564D02*
X002549Y012564D01*
X001739Y011795D02*
X001458Y011795D01*
X001459Y011698D02*
X001438Y011698D01*
X001362Y011601D02*
X000348Y011601D01*
X000348Y011698D02*
X000661Y011698D01*
X000640Y011795D02*
X000348Y011795D01*
X000348Y011892D02*
X000640Y011892D01*
X000640Y011989D02*
X000348Y011989D01*
X000348Y012086D02*
X000640Y012086D01*
X000640Y012183D02*
X000348Y012183D01*
X000348Y012279D02*
X000640Y012279D01*
X000640Y012376D02*
X000348Y012376D01*
X000348Y012473D02*
X001235Y012473D01*
X001332Y012570D02*
X000348Y012570D01*
X000348Y012667D02*
X001429Y012667D01*
X001549Y012564D02*
X001049Y012064D01*
X001265Y011504D02*
X000348Y011504D01*
X000348Y011407D02*
X000814Y011407D01*
X000717Y011310D02*
X000348Y011310D01*
X000348Y011213D02*
X000668Y011213D01*
X000640Y011116D02*
X000348Y011116D01*
X000348Y011019D02*
X000640Y011019D01*
X000665Y010923D02*
X000348Y010923D01*
X000348Y010826D02*
X000709Y010826D01*
X000806Y010729D02*
X000348Y010729D01*
X000348Y010632D02*
X001393Y010632D01*
X001296Y010535D02*
X000348Y010535D01*
X000348Y010438D02*
X000883Y010438D01*
X000748Y010341D02*
X000348Y010341D01*
X000348Y010244D02*
X000681Y010244D01*
X000641Y010147D02*
X000348Y010147D01*
X001324Y009759D02*
X001775Y009759D01*
X001692Y009856D02*
X001406Y009856D01*
X001446Y009953D02*
X001652Y009953D01*
X001640Y010050D02*
X001458Y010050D01*
X001458Y010147D02*
X001641Y010147D01*
X001681Y010244D02*
X001454Y010244D01*
X001550Y010341D02*
X001748Y010341D01*
X002049Y010064D02*
X002549Y010064D01*
X003149Y009464D01*
X003149Y008672D01*
X003849Y007964D01*
X003850Y007671D01*
X004172Y007349D01*
X004617Y007349D01*
X004618Y007349D01*
X005022Y007336D02*
X007392Y007336D01*
X007392Y007239D02*
X005022Y007239D01*
X005022Y007142D02*
X007392Y007142D01*
X007392Y007045D02*
X005022Y007045D01*
X005043Y006976D02*
X005022Y006955D01*
X005022Y007582D01*
X005032Y007592D01*
X005052Y007626D01*
X005062Y007664D01*
X005052Y007627D02*
X005293Y007627D01*
X005244Y007724D02*
X005062Y007724D01*
X005022Y007530D02*
X007392Y007530D01*
X007392Y007433D02*
X005022Y007433D01*
X005137Y007015D02*
X005043Y006976D01*
X005137Y007015D02*
X005787Y007015D01*
X007392Y007015D01*
X007392Y007958D01*
X005653Y007958D01*
X005692Y007918D02*
X007392Y007918D01*
X007392Y007821D02*
X005728Y007821D01*
X005724Y007724D02*
X007392Y007724D01*
X007392Y007627D02*
X005674Y007627D01*
X005189Y006758D02*
X004618Y006758D01*
X004617Y006168D02*
X004051Y006168D01*
X003449Y006764D01*
X003449Y007764D01*
X002749Y008470D01*
X002749Y008764D01*
X002449Y009064D01*
X002049Y009064D01*
X002349Y008564D02*
X001549Y008564D01*
X001049Y008064D01*
X000666Y008209D02*
X000348Y008209D01*
X000348Y008306D02*
X000712Y008306D01*
X000809Y008402D02*
X000348Y008402D01*
X000348Y008499D02*
X001261Y008499D01*
X001515Y008306D02*
X001712Y008306D01*
X001666Y008209D02*
X001432Y008209D01*
X001458Y008112D02*
X001640Y008112D01*
X001640Y008015D02*
X001458Y008015D01*
X001432Y007918D02*
X001667Y007918D01*
X001713Y007821D02*
X001385Y007821D01*
X001288Y007724D02*
X001810Y007724D01*
X001549Y007564D02*
X002649Y007564D01*
X002849Y007364D01*
X002849Y006483D01*
X004149Y005184D01*
X004618Y005184D01*
X004618Y005183D01*
X004618Y004987D02*
X004617Y004986D01*
X004049Y004986D01*
X002649Y006387D01*
X002649Y006864D01*
X002449Y007064D01*
X002049Y007064D01*
X001640Y007045D02*
X001458Y007045D01*
X001444Y006949D02*
X001654Y006949D01*
X001694Y006852D02*
X001404Y006852D01*
X001319Y006755D02*
X001780Y006755D01*
X001549Y006564D02*
X002176Y006564D01*
X003949Y004791D01*
X004617Y004791D01*
X004618Y004790D01*
X004618Y004593D02*
X004617Y004592D01*
X003750Y004592D01*
X002278Y006064D01*
X002049Y006064D01*
X001640Y006076D02*
X001458Y006076D01*
X001457Y005979D02*
X001641Y005979D01*
X001681Y005882D02*
X001417Y005882D01*
X001350Y005785D02*
X001749Y005785D01*
X001886Y005689D02*
X001213Y005689D01*
X001294Y005398D02*
X001804Y005398D01*
X001708Y005301D02*
X001391Y005301D01*
X001434Y005204D02*
X001664Y005204D01*
X001640Y005107D02*
X001458Y005107D01*
X001458Y005010D02*
X001640Y005010D01*
X001669Y004913D02*
X001430Y004913D01*
X001521Y004816D02*
X001718Y004816D01*
X001549Y004564D02*
X002949Y004564D01*
X004649Y002864D01*
X005554Y002864D01*
X005878Y003187D01*
X005878Y003924D01*
X005878Y003924D01*
X006074Y003923D02*
X006074Y003924D01*
X006074Y003923D02*
X006074Y002964D01*
X005674Y002564D01*
X004549Y002564D01*
X003049Y004064D01*
X002049Y004064D01*
X001677Y004235D02*
X001421Y004235D01*
X001458Y004138D02*
X001640Y004138D01*
X001640Y004041D02*
X001458Y004041D01*
X001442Y003944D02*
X001656Y003944D01*
X001696Y003847D02*
X001490Y003847D01*
X001587Y003750D02*
X001784Y003750D01*
X001549Y003564D02*
X003149Y003564D01*
X004449Y002264D01*
X005771Y002264D01*
X006271Y002764D01*
X006271Y003923D01*
X006271Y003924D01*
X006468Y003924D02*
X006468Y004357D01*
X006901Y004790D01*
X006657Y004816D02*
X006093Y004816D01*
X006093Y004913D02*
X006688Y004913D01*
X006795Y005010D02*
X006048Y005010D01*
X005849Y004864D02*
X005489Y004864D01*
X005287Y004662D01*
X005287Y003924D01*
X005287Y003924D01*
X005119Y003944D02*
X004924Y003944D01*
X004917Y003847D02*
X005119Y003847D01*
X005119Y004041D02*
X004900Y004041D01*
X004836Y004138D02*
X005119Y004138D01*
X005119Y004235D02*
X003902Y004235D01*
X003805Y004332D02*
X005128Y004332D01*
X005128Y004428D02*
X004962Y004428D01*
X005022Y004525D02*
X005128Y004525D01*
X005128Y004622D02*
X005022Y004622D01*
X005022Y004719D02*
X005128Y004719D01*
X005217Y004816D02*
X005022Y004816D01*
X005022Y004913D02*
X005314Y004913D01*
X005411Y005010D02*
X005022Y005010D01*
X005062Y005398D02*
X005318Y005398D01*
X005349Y005785D02*
X005022Y005785D01*
X004618Y005774D02*
X004617Y005774D01*
X003850Y005774D01*
X003049Y006574D01*
X003049Y007564D01*
X002549Y008064D01*
X002049Y008064D01*
X001809Y008402D02*
X001612Y008402D01*
X002349Y008564D02*
X003249Y007664D01*
X003249Y006671D01*
X003950Y005971D01*
X004618Y005971D01*
X004618Y005971D01*
X004617Y006168D02*
X004618Y006168D01*
X002817Y005301D02*
X002391Y005301D01*
X002294Y005398D02*
X002720Y005398D01*
X002623Y005495D02*
X000348Y005495D01*
X000348Y005592D02*
X002526Y005592D01*
X002430Y005689D02*
X002213Y005689D01*
X002049Y005064D02*
X002849Y005064D01*
X004749Y003164D01*
X005457Y003164D01*
X005680Y003387D01*
X005680Y003923D01*
X005681Y003924D01*
X005484Y003924D02*
X005484Y004398D01*
X005549Y004464D01*
X005736Y004622D02*
X005794Y004622D01*
X005788Y004525D02*
X006413Y004525D01*
X006316Y004428D02*
X005793Y004428D01*
X005759Y004332D02*
X006310Y004332D01*
X006510Y004622D02*
X005905Y004622D01*
X006050Y004719D02*
X006607Y004719D01*
X006842Y004416D02*
X006881Y004416D01*
X006862Y003924D02*
X006862Y003923D01*
X006862Y002964D01*
X005862Y001964D01*
X004349Y001964D01*
X003249Y003064D01*
X002049Y003064D01*
X001640Y003072D02*
X001458Y003072D01*
X001449Y003168D02*
X001650Y003168D01*
X001690Y003265D02*
X001409Y003265D01*
X001329Y003362D02*
X001769Y003362D01*
X001549Y003564D02*
X001049Y004064D01*
X000677Y004235D02*
X000348Y004235D01*
X000348Y004332D02*
X000738Y004332D01*
X000860Y004428D02*
X000348Y004428D01*
X000348Y004525D02*
X001364Y004525D01*
X001460Y004428D02*
X001238Y004428D01*
X001360Y004332D02*
X001738Y004332D01*
X001549Y004564D02*
X001049Y005064D01*
X000669Y004913D02*
X000348Y004913D01*
X000348Y004816D02*
X000718Y004816D01*
X000815Y004719D02*
X000348Y004719D01*
X000348Y004622D02*
X001267Y004622D01*
X000640Y005010D02*
X000348Y005010D01*
X000348Y005107D02*
X000640Y005107D01*
X000664Y005204D02*
X000348Y005204D01*
X000348Y005301D02*
X000708Y005301D01*
X000804Y005398D02*
X000348Y005398D01*
X000348Y005689D02*
X000886Y005689D01*
X000749Y005785D02*
X000348Y005785D01*
X000348Y005882D02*
X000681Y005882D01*
X000641Y005979D02*
X000348Y005979D01*
X000348Y006076D02*
X000640Y006076D01*
X000652Y006173D02*
X000348Y006173D01*
X000348Y006270D02*
X000692Y006270D01*
X000774Y006367D02*
X000348Y006367D01*
X000348Y006464D02*
X000946Y006464D01*
X000960Y006658D02*
X000348Y006658D01*
X000348Y006755D02*
X000780Y006755D01*
X000694Y006852D02*
X000348Y006852D01*
X000348Y006949D02*
X000654Y006949D01*
X000640Y007045D02*
X000348Y007045D01*
X000348Y007142D02*
X000640Y007142D01*
X000679Y007239D02*
X000348Y007239D01*
X000348Y007336D02*
X000743Y007336D01*
X000872Y007433D02*
X000348Y007433D01*
X000348Y007530D02*
X001292Y007530D01*
X001388Y007627D02*
X000348Y007627D01*
X000348Y007724D02*
X000810Y007724D01*
X000713Y007821D02*
X000348Y007821D01*
X000348Y007918D02*
X000667Y007918D01*
X000640Y008015D02*
X000348Y008015D01*
X000348Y008112D02*
X000640Y008112D01*
X001549Y007564D02*
X001049Y007064D01*
X001138Y006658D02*
X001419Y006658D01*
X001322Y006561D02*
X000348Y006561D01*
X001049Y006064D02*
X001549Y006564D01*
X001576Y006367D02*
X001774Y006367D01*
X001692Y006270D02*
X001480Y006270D01*
X001447Y006173D02*
X001652Y006173D01*
X001225Y006464D02*
X001152Y006464D01*
X001458Y007142D02*
X001640Y007142D01*
X001679Y007239D02*
X001449Y007239D01*
X001546Y007336D02*
X001743Y007336D01*
X003549Y008858D02*
X004074Y008333D01*
X004617Y008333D01*
X004618Y008333D01*
X004618Y008530D02*
X004183Y008530D01*
X003749Y008964D01*
X003749Y010364D01*
X002549Y011564D01*
X001549Y011564D01*
X001049Y011064D01*
X001293Y010729D02*
X001806Y010729D01*
X001709Y010826D02*
X001390Y010826D01*
X001434Y010923D02*
X001665Y010923D01*
X001640Y011019D02*
X001458Y011019D01*
X001458Y011116D02*
X001640Y011116D01*
X001668Y011213D02*
X001430Y011213D01*
X001520Y011310D02*
X001717Y011310D01*
X002049Y011064D02*
X002549Y011064D01*
X003549Y010064D01*
X003549Y008858D01*
X005287Y009987D02*
X005287Y010426D01*
X005149Y010564D01*
X005149Y012664D01*
X004865Y012958D02*
X004434Y012958D01*
X004510Y012861D02*
X004788Y012861D01*
X004748Y012764D02*
X004551Y012764D01*
X004558Y012667D02*
X004740Y012667D01*
X004745Y012570D02*
X004553Y012570D01*
X004513Y012473D02*
X004785Y012473D01*
X004858Y012376D02*
X004441Y012376D01*
X003788Y012861D02*
X000348Y012861D01*
X000348Y012764D02*
X003748Y012764D01*
X003865Y012958D02*
X000348Y012958D01*
X000348Y013055D02*
X004024Y013055D01*
X004274Y013055D02*
X005024Y013055D01*
X005274Y013055D02*
X005491Y013055D01*
X005491Y012958D02*
X005434Y012958D01*
X005437Y013152D02*
X000348Y013152D01*
X000348Y013249D02*
X003974Y013249D01*
X003977Y013247D02*
X004044Y013226D01*
X004100Y013217D01*
X004100Y013615D01*
X003702Y013615D01*
X003711Y013559D01*
X003733Y013491D01*
X003765Y013428D01*
X003807Y013371D01*
X003857Y013321D01*
X003914Y013280D01*
X003977Y013247D01*
X004100Y013249D02*
X004198Y013249D01*
X004198Y013217D02*
X004254Y013226D01*
X004322Y013247D01*
X004385Y013280D01*
X004442Y013321D01*
X004492Y013371D01*
X004533Y013428D01*
X004566Y013491D01*
X004587Y013559D01*
X004596Y013615D01*
X004198Y013615D01*
X004198Y013217D01*
X004198Y013346D02*
X004100Y013346D01*
X004100Y013443D02*
X004198Y013443D01*
X004198Y013539D02*
X004100Y013539D01*
X004100Y013615D02*
X004198Y013615D01*
X004198Y013713D01*
X004100Y013713D01*
X004100Y014111D01*
X004044Y014102D01*
X003977Y014080D01*
X003914Y014048D01*
X003857Y014006D01*
X003807Y013956D01*
X003765Y013899D01*
X003733Y013836D01*
X003711Y013769D01*
X003702Y013713D01*
X004100Y013713D01*
X004100Y013615D01*
X004100Y013636D02*
X000348Y013636D01*
X000348Y013539D02*
X003717Y013539D01*
X003758Y013443D02*
X000348Y013443D01*
X000348Y013346D02*
X003832Y013346D01*
X004198Y013636D02*
X004740Y013636D01*
X004740Y013733D02*
X004593Y013733D01*
X004596Y013713D02*
X004587Y013769D01*
X004566Y013836D01*
X004533Y013899D01*
X004492Y013956D01*
X004442Y014006D01*
X004385Y014048D01*
X004322Y014080D01*
X004254Y014102D01*
X004198Y014111D01*
X004198Y013713D01*
X004596Y013713D01*
X004567Y013830D02*
X004775Y013830D01*
X004834Y013927D02*
X004513Y013927D01*
X004417Y014024D02*
X004950Y014024D01*
X005349Y014024D02*
X005950Y014024D01*
X005834Y013927D02*
X005465Y013927D01*
X005523Y013830D02*
X005775Y013830D01*
X005740Y013733D02*
X005558Y013733D01*
X005558Y013636D02*
X005740Y013636D01*
X005758Y013539D02*
X005541Y013539D01*
X005594Y013443D02*
X005798Y013443D01*
X005889Y013346D02*
X005691Y013346D01*
X005788Y013249D02*
X006340Y013249D01*
X006437Y013152D02*
X005808Y013152D01*
X005808Y013055D02*
X006024Y013055D01*
X005865Y012958D02*
X005808Y012958D01*
X005649Y013164D02*
X005649Y011864D01*
X005484Y011699D01*
X005484Y011698D01*
X005484Y009987D01*
X005681Y009987D02*
X005681Y011395D01*
X005681Y011396D01*
X006149Y011864D01*
X006149Y012664D01*
X006434Y012958D02*
X006491Y012958D01*
X006491Y013055D02*
X006274Y013055D01*
X006649Y013164D02*
X006649Y011864D01*
X005877Y011092D01*
X005878Y011091D01*
X005878Y009987D01*
X006074Y009987D02*
X006074Y010790D01*
X006074Y010790D01*
X007149Y011864D01*
X007149Y012664D01*
X006865Y012958D02*
X006808Y012958D01*
X006808Y013055D02*
X007024Y013055D01*
X006808Y013152D02*
X007437Y013152D01*
X007491Y013055D02*
X007274Y013055D01*
X007434Y012958D02*
X007491Y012958D01*
X007649Y013164D02*
X007649Y011964D01*
X006271Y010586D01*
X006271Y010586D01*
X006271Y009987D01*
X006665Y009987D02*
X006665Y009120D01*
X006856Y009275D02*
X007392Y009275D01*
X007392Y009372D02*
X006823Y009372D01*
X006823Y009469D02*
X007392Y009469D01*
X007409Y009566D02*
X006823Y009566D01*
X006906Y009178D02*
X007392Y009178D01*
X007392Y009081D02*
X006909Y009081D01*
X006873Y008984D02*
X007392Y008984D01*
X007392Y008887D02*
X006740Y008887D01*
X007649Y009475D02*
X007649Y009987D01*
X007452Y009987D02*
X007452Y010467D01*
X008999Y012014D01*
X009399Y012014D01*
X009649Y012264D01*
X009649Y013164D01*
X009149Y013664D01*
X009465Y013927D02*
X009834Y013927D01*
X009775Y013830D02*
X009523Y013830D01*
X009558Y013733D02*
X009740Y013733D01*
X009740Y013636D02*
X009558Y013636D01*
X009541Y013539D02*
X009758Y013539D01*
X009798Y013443D02*
X009594Y013443D01*
X009691Y013346D02*
X009889Y013346D01*
X009788Y013249D02*
X010340Y013249D01*
X010437Y013152D02*
X009808Y013152D01*
X009808Y013055D02*
X010024Y013055D01*
X009865Y012958D02*
X009808Y012958D01*
X009491Y012958D02*
X009434Y012958D01*
X009491Y013055D02*
X009274Y013055D01*
X009437Y013152D02*
X008808Y013152D01*
X008808Y013055D02*
X009024Y013055D01*
X008865Y012958D02*
X008808Y012958D01*
X008649Y013164D02*
X008649Y012264D01*
X007059Y010674D01*
X007059Y010673D01*
X007059Y009987D01*
X007256Y009987D02*
X007257Y010570D01*
X007257Y010572D01*
X009149Y012464D01*
X009149Y012664D01*
X008649Y013164D02*
X008149Y013664D01*
X007775Y013830D02*
X007523Y013830D01*
X007558Y013733D02*
X007740Y013733D01*
X007740Y013636D02*
X007558Y013636D01*
X007541Y013539D02*
X007758Y013539D01*
X007798Y013443D02*
X007594Y013443D01*
X007691Y013346D02*
X007889Y013346D01*
X007788Y013249D02*
X008340Y013249D01*
X008437Y013152D02*
X007808Y013152D01*
X007808Y013055D02*
X008024Y013055D01*
X007865Y012958D02*
X007808Y012958D01*
X007649Y013164D02*
X007149Y013664D01*
X006834Y013927D02*
X006465Y013927D01*
X006523Y013830D02*
X006775Y013830D01*
X006740Y013733D02*
X006558Y013733D01*
X006558Y013636D02*
X006740Y013636D01*
X006758Y013539D02*
X006541Y013539D01*
X006594Y013443D02*
X006798Y013443D01*
X006889Y013346D02*
X006691Y013346D01*
X006788Y013249D02*
X007340Y013249D01*
X007465Y013927D02*
X007834Y013927D01*
X007950Y014024D02*
X007349Y014024D01*
X006950Y014024D02*
X006349Y014024D01*
X006149Y013664D02*
X006649Y013164D01*
X005649Y013164D02*
X005149Y013664D01*
X004758Y013539D02*
X004581Y013539D01*
X004541Y013443D02*
X004798Y013443D01*
X004889Y013346D02*
X004466Y013346D01*
X004324Y013249D02*
X005340Y013249D01*
X004198Y013733D02*
X004100Y013733D01*
X004100Y013830D02*
X004198Y013830D01*
X004198Y013927D02*
X004100Y013927D01*
X004100Y014024D02*
X004198Y014024D01*
X003881Y014024D02*
X000348Y014024D01*
X000348Y013927D02*
X003785Y013927D01*
X003731Y013830D02*
X000348Y013830D01*
X000348Y013733D02*
X003705Y013733D01*
X000348Y014121D02*
X017273Y014121D01*
X017273Y014024D02*
X016917Y014024D01*
X016942Y014006D02*
X016885Y014048D01*
X016822Y014080D01*
X016754Y014102D01*
X016698Y014111D01*
X016698Y013713D01*
X016600Y013713D01*
X016600Y014111D01*
X016544Y014102D01*
X016477Y014080D01*
X016414Y014048D01*
X016357Y014006D01*
X016307Y013956D01*
X016265Y013899D01*
X016233Y013836D01*
X016211Y013769D01*
X016202Y013713D01*
X016600Y013713D01*
X016600Y013615D01*
X016202Y013615D01*
X016211Y013559D01*
X016233Y013491D01*
X016265Y013428D01*
X016307Y013371D01*
X016357Y013321D01*
X016414Y013280D01*
X016477Y013247D01*
X016544Y013226D01*
X016600Y013217D01*
X016600Y013615D01*
X016698Y013615D01*
X016698Y013217D01*
X016754Y013226D01*
X016822Y013247D01*
X016885Y013280D01*
X016942Y013321D01*
X016992Y013371D01*
X017033Y013428D01*
X017066Y013491D01*
X017087Y013559D01*
X017096Y013615D01*
X016698Y013615D01*
X016698Y013713D01*
X017096Y013713D01*
X017087Y013769D01*
X017066Y013836D01*
X017033Y013899D01*
X016992Y013956D01*
X016942Y014006D01*
X017013Y013927D02*
X017273Y013927D01*
X017273Y013830D02*
X017067Y013830D01*
X017093Y013733D02*
X017273Y013733D01*
X017273Y013636D02*
X016698Y013636D01*
X016698Y013539D02*
X016600Y013539D01*
X016600Y013443D02*
X016698Y013443D01*
X016698Y013346D02*
X016600Y013346D01*
X016600Y013249D02*
X016698Y013249D01*
X016824Y013249D02*
X017273Y013249D01*
X017273Y013346D02*
X016966Y013346D01*
X017041Y013443D02*
X017273Y013443D01*
X017273Y013539D02*
X017081Y013539D01*
X016698Y013733D02*
X016600Y013733D01*
X016600Y013636D02*
X015698Y013636D01*
X015698Y013615D02*
X015698Y013713D01*
X015600Y013713D01*
X015600Y014111D01*
X015544Y014102D01*
X015477Y014080D01*
X015414Y014048D01*
X015357Y014006D01*
X015307Y013956D01*
X015265Y013899D01*
X015233Y013836D01*
X015211Y013769D01*
X015202Y013713D01*
X015600Y013713D01*
X015600Y013615D01*
X015202Y013615D01*
X015211Y013559D01*
X015233Y013491D01*
X015265Y013428D01*
X015307Y013371D01*
X015357Y013321D01*
X015414Y013280D01*
X015477Y013247D01*
X015544Y013226D01*
X015600Y013217D01*
X015600Y013615D01*
X015698Y013615D01*
X015698Y013217D01*
X015754Y013226D01*
X015822Y013247D01*
X015885Y013280D01*
X015942Y013321D01*
X015992Y013371D01*
X016033Y013428D01*
X016066Y013491D01*
X016087Y013559D01*
X016096Y013615D01*
X015698Y013615D01*
X015698Y013539D02*
X015600Y013539D01*
X015600Y013443D02*
X015698Y013443D01*
X015698Y013346D02*
X015600Y013346D01*
X015600Y013249D02*
X015698Y013249D01*
X015824Y013249D02*
X016474Y013249D01*
X016332Y013346D02*
X015966Y013346D01*
X016041Y013443D02*
X016258Y013443D01*
X016217Y013539D02*
X016081Y013539D01*
X016096Y013713D02*
X016087Y013769D01*
X016066Y013836D01*
X016033Y013899D01*
X015992Y013956D01*
X015942Y014006D01*
X015885Y014048D01*
X015822Y014080D01*
X015754Y014102D01*
X015698Y014111D01*
X015698Y013713D01*
X016096Y013713D01*
X016093Y013733D02*
X016205Y013733D01*
X016231Y013830D02*
X016067Y013830D01*
X016013Y013927D02*
X016285Y013927D01*
X016381Y014024D02*
X015917Y014024D01*
X015698Y014024D02*
X015600Y014024D01*
X015600Y013927D02*
X015698Y013927D01*
X015698Y013830D02*
X015600Y013830D01*
X015600Y013733D02*
X015698Y013733D01*
X015600Y013636D02*
X015058Y013636D01*
X015058Y013582D02*
X014996Y013432D01*
X014881Y013317D01*
X014731Y013255D01*
X014568Y013255D01*
X014417Y013317D01*
X014302Y013432D01*
X014240Y013582D01*
X014240Y013745D01*
X014302Y013896D01*
X014417Y014011D01*
X014568Y014073D01*
X014731Y014073D01*
X014881Y014011D01*
X014996Y013896D01*
X015058Y013745D01*
X015058Y013582D01*
X015041Y013539D02*
X015217Y013539D01*
X015258Y013443D02*
X015001Y013443D01*
X014910Y013346D02*
X015332Y013346D01*
X015474Y013249D02*
X011788Y013249D01*
X011808Y013152D02*
X017273Y013152D01*
X017273Y013055D02*
X016774Y013055D01*
X016934Y012958D02*
X017273Y012958D01*
X017273Y012861D02*
X017010Y012861D01*
X017051Y012764D02*
X017273Y012764D01*
X017273Y012667D02*
X017058Y012667D01*
X017053Y012570D02*
X017273Y012570D01*
X017273Y012473D02*
X017013Y012473D01*
X016941Y012376D02*
X017273Y012376D01*
X017273Y012279D02*
X016808Y012279D01*
X016808Y012183D02*
X017273Y012183D01*
X017273Y012086D02*
X016808Y012086D01*
X016808Y011989D02*
X017273Y011989D01*
X017273Y011892D02*
X016808Y011892D01*
X016808Y011795D02*
X017273Y011795D01*
X017273Y011698D02*
X016808Y011698D01*
X016808Y011601D02*
X017273Y011601D01*
X017273Y011504D02*
X016808Y011504D01*
X016808Y011407D02*
X017273Y011407D01*
X017273Y011310D02*
X016720Y011310D01*
X016623Y011213D02*
X017273Y011213D01*
X017273Y011116D02*
X016526Y011116D01*
X016429Y011019D02*
X017273Y011019D01*
X017273Y010923D02*
X016332Y010923D01*
X016235Y010826D02*
X017273Y010826D01*
X017273Y010729D02*
X016138Y010729D01*
X016041Y010632D02*
X017273Y010632D01*
X017273Y010535D02*
X015944Y010535D01*
X015847Y010438D02*
X017273Y010438D01*
X017273Y010341D02*
X015750Y010341D01*
X015721Y010260D02*
X015848Y010312D01*
X016458Y010312D01*
X016585Y010260D01*
X016682Y010163D01*
X016710Y010095D01*
X017273Y010095D01*
X017273Y014335D01*
X000348Y014335D01*
X000348Y014315D02*
X017273Y014315D01*
X017273Y014218D02*
X000348Y014218D01*
X001549Y009564D02*
X001049Y009064D01*
X003709Y004428D02*
X004273Y004428D01*
X004399Y004138D02*
X003999Y004138D01*
X004096Y004041D02*
X004335Y004041D01*
X004312Y003944D02*
X004193Y003944D01*
X004290Y003847D02*
X004318Y003847D01*
X004581Y003556D02*
X005146Y003556D01*
X005431Y003362D02*
X004775Y003362D01*
X004678Y003459D02*
X005522Y003459D01*
X006429Y003459D02*
X006703Y003459D01*
X006703Y003362D02*
X006429Y003362D01*
X006429Y003265D02*
X006703Y003265D01*
X006703Y003168D02*
X006429Y003168D01*
X006429Y003072D02*
X006703Y003072D01*
X006648Y002975D02*
X006429Y002975D01*
X006429Y002878D02*
X006551Y002878D01*
X006455Y002781D02*
X006429Y002781D01*
X007059Y002764D02*
X007059Y003923D01*
X007059Y003924D01*
X007255Y003923D02*
X007256Y003924D01*
X007255Y003923D02*
X007255Y002564D01*
X006055Y001364D01*
X004149Y001364D01*
X003449Y002064D01*
X002049Y002064D01*
X001671Y001908D02*
X001429Y001908D01*
X001458Y002005D02*
X001640Y002005D01*
X001640Y002102D02*
X001458Y002102D01*
X001436Y002199D02*
X001662Y002199D01*
X001703Y002296D02*
X001396Y002296D01*
X001299Y002393D02*
X001800Y002393D01*
X001549Y002564D02*
X003349Y002564D01*
X004249Y001664D01*
X005958Y001664D01*
X007059Y002764D01*
X007610Y002781D02*
X008517Y002781D01*
X008431Y002878D02*
X007610Y002878D01*
X007610Y002975D02*
X008425Y002975D01*
X008425Y003168D02*
X007610Y003168D01*
X007610Y003072D02*
X008742Y003072D01*
X008742Y003168D02*
X008840Y003168D01*
X008840Y003265D02*
X008742Y003265D01*
X008742Y003362D02*
X008840Y003362D01*
X008840Y003459D02*
X008742Y003459D01*
X008866Y003519D02*
X008876Y003509D01*
X008911Y003489D01*
X008948Y003479D01*
X009027Y003479D01*
X009027Y003924D01*
X009027Y003924D01*
X009027Y003944D02*
X009027Y003944D01*
X009027Y004041D02*
X009027Y004041D01*
X009027Y004138D02*
X009027Y004138D01*
X009027Y004235D02*
X009027Y004235D01*
X009027Y004332D02*
X009027Y004332D01*
X009185Y004332D02*
X013958Y004332D01*
X013958Y004428D02*
X011025Y004428D01*
X011085Y004525D02*
X013958Y004525D01*
X013958Y004622D02*
X011085Y004622D01*
X011085Y004719D02*
X013958Y004719D01*
X013958Y004816D02*
X011085Y004816D01*
X011085Y004913D02*
X013958Y004913D01*
X013958Y005010D02*
X011085Y005010D01*
X011125Y005107D02*
X013958Y005107D01*
X013958Y005204D02*
X011125Y005204D01*
X011115Y005301D02*
X013958Y005301D01*
X014471Y005301D02*
X016662Y005301D01*
X016662Y005398D02*
X014471Y005398D01*
X014471Y005495D02*
X016692Y005495D01*
X016662Y005204D02*
X014471Y005204D01*
X014471Y005107D02*
X016662Y005107D01*
X016711Y005010D02*
X014471Y005010D01*
X014471Y004913D02*
X016647Y004913D01*
X016652Y004921D02*
X016632Y004887D01*
X016622Y004849D01*
X016622Y004701D01*
X016899Y004701D01*
X016899Y004978D01*
X016752Y004978D01*
X016714Y004968D01*
X016680Y004949D01*
X016652Y004921D01*
X016622Y004816D02*
X014471Y004816D01*
X014471Y004719D02*
X016622Y004719D01*
X016622Y004622D02*
X014471Y004622D01*
X014471Y004525D02*
X016622Y004525D01*
X016648Y004428D02*
X014471Y004428D01*
X013958Y004235D02*
X010180Y004235D01*
X010180Y004138D02*
X013889Y004138D01*
X013889Y004041D02*
X010180Y004041D01*
X010180Y003944D02*
X013889Y003944D01*
X013889Y003847D02*
X010180Y003847D01*
X010180Y003750D02*
X013889Y003750D01*
X013889Y003653D02*
X010180Y003653D01*
X010153Y003556D02*
X013889Y003556D01*
X013889Y003459D02*
X010890Y003459D01*
X010999Y003362D02*
X013889Y003362D01*
X013185Y003072D02*
X010691Y003072D01*
X010691Y003168D02*
X010592Y003168D01*
X010592Y003265D02*
X010691Y003265D01*
X010691Y003362D02*
X010592Y003362D01*
X010592Y003459D02*
X010691Y003459D01*
X010393Y003459D02*
X009973Y003459D01*
X009815Y003274D02*
X009815Y003924D01*
X009618Y003924D02*
X009618Y003274D01*
X009460Y003117D01*
X009459Y003459D02*
X009040Y003459D01*
X009027Y003556D02*
X009027Y003556D01*
X009027Y003653D02*
X009027Y003653D01*
X009027Y003750D02*
X009027Y003750D01*
X009027Y003847D02*
X009027Y003847D01*
X008830Y003924D02*
X008830Y004790D01*
X009649Y005398D02*
X007906Y005398D01*
X007906Y005495D02*
X009584Y005495D01*
X009570Y005592D02*
X007906Y005592D01*
X007906Y005689D02*
X009596Y005689D01*
X009679Y005785D02*
X007906Y005785D01*
X007906Y005882D02*
X010244Y005882D01*
X010189Y005872D02*
X010287Y005774D01*
X010681Y005774D01*
X010681Y005774D01*
X010681Y005774D01*
X010236Y005785D02*
X009950Y005785D01*
X010276Y005979D02*
X007906Y005979D01*
X007906Y006076D02*
X010276Y006076D01*
X010276Y006173D02*
X007906Y006173D01*
X007906Y006270D02*
X010276Y006270D01*
X010276Y006367D02*
X007906Y006367D01*
X007906Y006464D02*
X010276Y006464D01*
X010169Y006758D02*
X010681Y006758D01*
X010681Y006955D02*
X010681Y006955D01*
X010276Y007116D02*
X010266Y007106D01*
X010276Y007116D02*
X010276Y007781D01*
X010002Y007781D01*
X009953Y007732D01*
X009863Y007695D01*
X009766Y007695D01*
X009676Y007732D01*
X009608Y007801D01*
X009570Y007891D01*
X009570Y007988D01*
X009608Y008078D01*
X009676Y008146D01*
X009766Y008184D01*
X009863Y008184D01*
X009953Y008146D01*
X010002Y008098D01*
X010236Y008098D01*
X010236Y008136D01*
X010681Y008136D01*
X010248Y008136D01*
X010189Y008195D01*
X010236Y008209D02*
X007906Y008209D01*
X007906Y008306D02*
X010276Y008306D01*
X010276Y008297D02*
X010266Y008287D01*
X010246Y008253D01*
X010236Y008215D01*
X010236Y008136D01*
X010681Y008136D01*
X010681Y008136D01*
X010681Y007939D02*
X009815Y007939D01*
X009988Y008112D02*
X010236Y008112D01*
X010276Y008297D02*
X010276Y009422D01*
X010340Y009486D01*
X011021Y009486D01*
X011085Y009422D01*
X011085Y009082D01*
X011260Y009082D01*
X011260Y009422D01*
X011324Y009486D01*
X011809Y009486D01*
X011873Y009422D01*
X011873Y008898D01*
X011809Y008834D01*
X011465Y008834D01*
X011396Y008765D01*
X011085Y008765D01*
X011085Y008688D01*
X013478Y008688D01*
X013465Y008701D01*
X013465Y008960D01*
X013455Y008970D01*
X013435Y009004D01*
X013425Y009042D01*
X013425Y009160D01*
X013968Y009160D01*
X013968Y009407D01*
X013555Y009407D01*
X013517Y009397D01*
X013483Y009378D01*
X013455Y009350D01*
X013435Y009316D01*
X013425Y009278D01*
X013425Y009160D01*
X013968Y009160D01*
X013968Y009160D01*
X013968Y009160D01*
X013968Y009407D01*
X014381Y009407D01*
X014419Y009397D01*
X014453Y009378D01*
X014481Y009350D01*
X014493Y009330D01*
X014535Y009432D01*
X014641Y009538D01*
X014779Y009595D01*
X014929Y009595D01*
X014982Y009573D01*
X014982Y010066D01*
X015011Y010095D01*
X015596Y010095D01*
X015624Y010163D01*
X015721Y010260D01*
X015706Y010244D02*
X014514Y010244D01*
X014602Y010147D02*
X015618Y010147D01*
X015599Y010414D02*
X009899Y010414D01*
X009814Y010328D01*
X009815Y009987D01*
X009618Y009987D02*
X009619Y010433D01*
X009649Y010464D01*
X009799Y010614D01*
X014799Y010614D01*
X015649Y011464D01*
X015649Y012664D01*
X015365Y012958D02*
X014934Y012958D01*
X015010Y012861D02*
X015288Y012861D01*
X015248Y012764D02*
X015051Y012764D01*
X015058Y012667D02*
X015240Y012667D01*
X015245Y012570D02*
X015053Y012570D01*
X015013Y012473D02*
X015285Y012473D01*
X015358Y012376D02*
X014941Y012376D01*
X014808Y012279D02*
X015491Y012279D01*
X015491Y012183D02*
X014808Y012183D01*
X014808Y012086D02*
X015491Y012086D01*
X015491Y011989D02*
X014808Y011989D01*
X014808Y011892D02*
X015491Y011892D01*
X015491Y011795D02*
X014808Y011795D01*
X014808Y011698D02*
X015491Y011698D01*
X015491Y011601D02*
X014808Y011601D01*
X014808Y011504D02*
X015465Y011504D01*
X015369Y011407D02*
X014808Y011407D01*
X014720Y011310D02*
X015272Y011310D01*
X015175Y011213D02*
X014623Y011213D01*
X014715Y011305D02*
X014715Y011305D01*
X014526Y011116D02*
X015078Y011116D01*
X014981Y011019D02*
X014429Y011019D01*
X014332Y010923D02*
X014884Y010923D01*
X014787Y010826D02*
X014235Y010826D01*
X013999Y010814D02*
X009699Y010814D01*
X009449Y010564D01*
X009424Y010540D01*
X009421Y009987D01*
X009224Y009987D02*
X009224Y010637D01*
X009249Y010664D01*
X009599Y011014D01*
X013199Y011014D01*
X013649Y011464D01*
X013649Y012664D01*
X013240Y012667D02*
X011808Y012667D01*
X011808Y012570D02*
X013240Y012570D01*
X013240Y012473D02*
X011808Y012473D01*
X011808Y012376D02*
X013240Y012376D01*
X013279Y012279D02*
X011808Y012279D01*
X011808Y012183D02*
X013491Y012183D01*
X013491Y012086D02*
X011808Y012086D01*
X011808Y011989D02*
X013491Y011989D01*
X013491Y011892D02*
X011808Y011892D01*
X011808Y011795D02*
X013491Y011795D01*
X013491Y011698D02*
X011808Y011698D01*
X011808Y011601D02*
X013491Y011601D01*
X013465Y011504D02*
X011808Y011504D01*
X011808Y011407D02*
X013369Y011407D01*
X013272Y011310D02*
X011720Y011310D01*
X011623Y011213D02*
X013175Y011213D01*
X013429Y011019D02*
X013981Y011019D01*
X014078Y011116D02*
X013526Y011116D01*
X013623Y011213D02*
X014175Y011213D01*
X014272Y011310D02*
X013720Y011310D01*
X013808Y011407D02*
X014369Y011407D01*
X014465Y011504D02*
X013808Y011504D01*
X013808Y011601D02*
X014491Y011601D01*
X014491Y011698D02*
X013808Y011698D01*
X013808Y011795D02*
X014491Y011795D01*
X014491Y011892D02*
X013808Y011892D01*
X013808Y011989D02*
X014491Y011989D01*
X014491Y012086D02*
X013808Y012086D01*
X013808Y012183D02*
X014491Y012183D01*
X014491Y012279D02*
X014019Y012279D01*
X014058Y012376D02*
X014358Y012376D01*
X014285Y012473D02*
X014058Y012473D01*
X014058Y012570D02*
X014245Y012570D01*
X014240Y012667D02*
X014058Y012667D01*
X014058Y012764D02*
X014248Y012764D01*
X014288Y012861D02*
X014058Y012861D01*
X014058Y012958D02*
X014365Y012958D01*
X014524Y013055D02*
X014013Y013055D01*
X013881Y013317D02*
X013731Y013255D01*
X013568Y013255D01*
X013417Y013317D01*
X013302Y013432D01*
X013240Y013582D01*
X013240Y013745D01*
X013302Y013896D01*
X013417Y014011D01*
X013568Y014073D01*
X013731Y014073D01*
X013881Y014011D01*
X013996Y013896D01*
X014058Y013745D01*
X014058Y013582D01*
X013996Y013432D01*
X013881Y013317D01*
X013910Y013346D02*
X014389Y013346D01*
X014298Y013443D02*
X014001Y013443D01*
X014041Y013539D02*
X014258Y013539D01*
X014240Y013636D02*
X014058Y013636D01*
X014058Y013733D02*
X014240Y013733D01*
X014275Y013830D02*
X014023Y013830D01*
X013965Y013927D02*
X014334Y013927D01*
X014450Y014024D02*
X013849Y014024D01*
X013450Y014024D02*
X011543Y014024D01*
X011558Y013927D02*
X013334Y013927D01*
X013275Y013830D02*
X011558Y013830D01*
X011558Y013733D02*
X013240Y013733D01*
X013240Y013636D02*
X011558Y013636D01*
X011558Y013539D02*
X013258Y013539D01*
X013298Y013443D02*
X011594Y013443D01*
X011691Y013346D02*
X013389Y013346D01*
X013286Y013055D02*
X011808Y013055D01*
X011808Y012958D02*
X013240Y012958D01*
X013240Y012861D02*
X011808Y012861D01*
X011808Y012764D02*
X013240Y012764D01*
X014649Y012664D02*
X014649Y011464D01*
X013999Y010814D01*
X013619Y010244D02*
X010856Y010244D01*
X010946Y010147D02*
X013531Y010147D01*
X013491Y010050D02*
X010986Y010050D01*
X010987Y009953D02*
X013485Y009953D01*
X013502Y009856D02*
X010958Y009856D01*
X010886Y009759D02*
X013549Y009759D01*
X013663Y009662D02*
X010180Y009662D01*
X010180Y009759D02*
X010475Y009759D01*
X010403Y009856D02*
X010180Y009856D01*
X010180Y009953D02*
X010375Y009953D01*
X010376Y010050D02*
X010180Y010050D01*
X010180Y010147D02*
X010416Y010147D01*
X010505Y010244D02*
X010180Y010244D01*
X010323Y009469D02*
X009186Y009469D01*
X009186Y009566D02*
X014707Y009566D01*
X014571Y009469D02*
X012551Y009469D01*
X012552Y009468D02*
X012524Y009496D01*
X012490Y009515D01*
X012452Y009526D01*
X012285Y009526D01*
X012285Y009209D01*
X012582Y009209D01*
X012582Y009396D01*
X012572Y009434D01*
X012552Y009468D01*
X012582Y009372D02*
X013477Y009372D01*
X013425Y009275D02*
X012582Y009275D01*
X012582Y009111D02*
X012285Y009111D01*
X012285Y009209D01*
X012187Y009209D01*
X012187Y009526D01*
X012019Y009526D01*
X011981Y009515D01*
X011947Y009496D01*
X011920Y009468D01*
X011900Y009434D01*
X011890Y009396D01*
X011890Y009209D01*
X012187Y009209D01*
X012187Y009111D01*
X012285Y009111D01*
X012285Y008794D01*
X012452Y008794D01*
X012490Y008804D01*
X012524Y008824D01*
X012552Y008852D01*
X012572Y008886D01*
X012582Y008924D01*
X012582Y009111D01*
X012582Y009081D02*
X013425Y009081D01*
X013425Y009178D02*
X012285Y009178D01*
X012285Y009275D02*
X012187Y009275D01*
X012187Y009372D02*
X012285Y009372D01*
X012285Y009469D02*
X012187Y009469D01*
X011920Y009469D02*
X011826Y009469D01*
X011873Y009372D02*
X011890Y009372D01*
X011890Y009275D02*
X011873Y009275D01*
X011873Y009178D02*
X012187Y009178D01*
X012187Y009111D02*
X011890Y009111D01*
X011890Y008924D01*
X011900Y008886D01*
X011920Y008852D01*
X011947Y008824D01*
X011981Y008804D01*
X012019Y008794D01*
X012187Y008794D01*
X012187Y009111D01*
X012187Y009081D02*
X012285Y009081D01*
X012285Y008984D02*
X012187Y008984D01*
X012187Y008887D02*
X012285Y008887D01*
X012572Y008887D02*
X013465Y008887D01*
X013465Y008790D02*
X011421Y008790D01*
X011330Y008924D02*
X011567Y009160D01*
X011260Y009178D02*
X011085Y009178D01*
X011085Y009275D02*
X011260Y009275D01*
X011260Y009372D02*
X011085Y009372D01*
X011038Y009469D02*
X011307Y009469D01*
X011873Y009081D02*
X011890Y009081D01*
X011890Y008984D02*
X011873Y008984D01*
X011862Y008887D02*
X011900Y008887D01*
X011330Y008924D02*
X010681Y008924D01*
X010681Y008530D02*
X013968Y008530D01*
X013968Y008215D02*
X013515Y008215D01*
X013397Y008333D01*
X010681Y008333D01*
X010276Y008402D02*
X007906Y008402D01*
X007906Y008499D02*
X010276Y008499D01*
X010276Y008596D02*
X007906Y008596D01*
X007906Y008693D02*
X010276Y008693D01*
X010276Y008790D02*
X007906Y008790D01*
X007906Y008887D02*
X008952Y008887D01*
X009102Y008887D02*
X010276Y008887D01*
X010276Y008984D02*
X009235Y008984D01*
X009271Y009081D02*
X010276Y009081D01*
X010276Y009178D02*
X009268Y009178D01*
X009218Y009275D02*
X010276Y009275D01*
X010276Y009372D02*
X009186Y009372D01*
X009027Y009120D02*
X009027Y009987D01*
X008830Y009987D02*
X008830Y009542D01*
X008830Y009566D02*
X008830Y009566D01*
X008830Y009662D02*
X008830Y009662D01*
X008830Y009759D02*
X008830Y009759D01*
X008830Y009856D02*
X008830Y009856D01*
X008830Y009953D02*
X008830Y009953D01*
X008830Y009987D02*
X008830Y009987D01*
X008633Y009987D02*
X008634Y010447D01*
X008649Y010464D01*
X009399Y011214D01*
X011399Y011214D01*
X011649Y011464D01*
X011649Y013164D01*
X011149Y013664D01*
X010740Y013636D02*
X010558Y013636D01*
X010558Y013733D02*
X010740Y013733D01*
X010740Y013830D02*
X010523Y013830D01*
X010465Y013927D02*
X010740Y013927D01*
X010755Y014024D02*
X010349Y014024D01*
X009950Y014024D02*
X009349Y014024D01*
X008950Y014024D02*
X008349Y014024D01*
X008465Y013927D02*
X008834Y013927D01*
X008775Y013830D02*
X008523Y013830D01*
X008558Y013733D02*
X008740Y013733D01*
X008740Y013636D02*
X008558Y013636D01*
X008541Y013539D02*
X008758Y013539D01*
X008798Y013443D02*
X008594Y013443D01*
X008691Y013346D02*
X008889Y013346D01*
X008788Y013249D02*
X009340Y013249D01*
X010149Y013664D02*
X010649Y013164D01*
X010649Y011864D01*
X010399Y011614D01*
X009199Y011614D01*
X008249Y010664D01*
X008239Y010651D01*
X008240Y009987D01*
X008437Y009987D02*
X008437Y010548D01*
X008449Y010564D01*
X009299Y011414D01*
X010699Y011414D01*
X011149Y011864D01*
X011149Y012664D01*
X010865Y012958D02*
X010808Y012958D01*
X010808Y013055D02*
X011024Y013055D01*
X010808Y013152D02*
X011437Y013152D01*
X011491Y013055D02*
X011274Y013055D01*
X011434Y012958D02*
X011491Y012958D01*
X011340Y013249D02*
X010788Y013249D01*
X010740Y013346D02*
X010691Y013346D01*
X010740Y013443D02*
X010594Y013443D01*
X010541Y013539D02*
X010740Y013539D01*
X010491Y013055D02*
X010274Y013055D01*
X010434Y012958D02*
X010491Y012958D01*
X010149Y012664D02*
X010149Y011964D01*
X009999Y011814D01*
X009099Y011814D01*
X008049Y010764D01*
X008044Y010757D01*
X008043Y009987D01*
X007846Y009987D02*
X007846Y009641D01*
X007846Y009641D01*
X007846Y009987D01*
X007846Y009652D01*
X008004Y009494D01*
X007986Y009566D02*
X008691Y009566D01*
X008869Y009469D02*
X007906Y009469D01*
X007906Y009372D02*
X008869Y009372D01*
X008836Y009275D02*
X007906Y009275D01*
X007906Y009178D02*
X008787Y009178D01*
X008783Y009081D02*
X007906Y009081D01*
X007906Y008984D02*
X008819Y008984D01*
X007846Y009662D02*
X007846Y009662D01*
X007846Y009759D02*
X007846Y009759D01*
X007846Y009856D02*
X007846Y009856D01*
X007846Y009953D02*
X007846Y009953D01*
X007846Y009987D02*
X007846Y009987D01*
X006862Y009987D02*
X006862Y010776D01*
X006863Y010778D01*
X008149Y012064D01*
X008149Y012664D01*
X008434Y012958D02*
X008491Y012958D01*
X008491Y013055D02*
X008274Y013055D01*
X012582Y008984D02*
X013447Y008984D01*
X013473Y008693D02*
X011085Y008693D01*
X010276Y007724D02*
X009933Y007724D01*
X009696Y007724D02*
X007906Y007724D01*
X007906Y007821D02*
X009599Y007821D01*
X009570Y007918D02*
X007906Y007918D01*
X007906Y008015D02*
X009581Y008015D01*
X009641Y008112D02*
X007906Y008112D01*
X007906Y007627D02*
X010276Y007627D01*
X010276Y007530D02*
X007906Y007530D01*
X007906Y007433D02*
X010276Y007433D01*
X010276Y007336D02*
X007906Y007336D01*
X007906Y007239D02*
X010276Y007239D01*
X010276Y007142D02*
X007906Y007142D01*
X007906Y007045D02*
X010239Y007045D01*
X011125Y006949D02*
X012888Y006949D01*
X012985Y006852D02*
X011119Y006852D01*
X011085Y006755D02*
X013081Y006755D01*
X013178Y006658D02*
X012173Y006658D01*
X012255Y006561D02*
X012278Y006561D01*
X012278Y006464D02*
X012261Y006464D01*
X011983Y006464D02*
X011924Y006464D01*
X011924Y006561D02*
X011983Y006561D01*
X011983Y006658D02*
X011924Y006658D01*
X011735Y006658D02*
X011085Y006658D01*
X011085Y006561D02*
X011301Y006561D01*
X011226Y006464D02*
X011085Y006464D01*
X011085Y006367D02*
X011205Y006367D01*
X011253Y006168D02*
X011449Y006364D01*
X011604Y006173D02*
X011651Y006173D01*
X011653Y006561D02*
X011598Y006561D01*
X012185Y006076D02*
X013760Y006076D01*
X013663Y006173D02*
X013204Y006173D01*
X013275Y006270D02*
X013566Y006270D01*
X013469Y006367D02*
X013293Y006367D01*
X013272Y006464D02*
X013372Y006464D01*
X013275Y006561D02*
X013198Y006561D01*
X013049Y006364D02*
X012544Y006364D01*
X012811Y006173D02*
X012894Y006173D01*
X012901Y006561D02*
X012811Y006561D01*
X013239Y007045D02*
X013485Y007045D01*
X013485Y007024D02*
X013537Y006897D01*
X013635Y006800D01*
X013762Y006747D01*
X014371Y006747D01*
X014498Y006800D01*
X014596Y006897D01*
X014648Y007024D01*
X014648Y007162D01*
X014596Y007289D01*
X014498Y007386D01*
X014371Y007438D01*
X013762Y007438D01*
X013635Y007386D01*
X013537Y007289D01*
X013485Y007162D01*
X013485Y007024D01*
X013516Y006949D02*
X013336Y006949D01*
X013433Y006852D02*
X013583Y006852D01*
X013530Y006755D02*
X013744Y006755D01*
X013626Y006658D02*
X013889Y006658D01*
X013889Y006561D02*
X013723Y006561D01*
X013820Y006464D02*
X013889Y006464D01*
X014389Y006755D02*
X015389Y006755D01*
X015397Y006760D02*
X015363Y006740D01*
X015335Y006712D01*
X015316Y006678D01*
X015306Y006640D01*
X015306Y006276D01*
X015622Y006276D01*
X015622Y006770D01*
X015435Y006770D01*
X015397Y006760D01*
X015310Y006658D02*
X014540Y006658D01*
X014540Y006561D02*
X015306Y006561D01*
X015306Y006464D02*
X014894Y006464D01*
X014971Y006367D02*
X015306Y006367D01*
X015306Y006173D02*
X014976Y006173D01*
X014993Y006270D02*
X015622Y006270D01*
X015622Y006173D02*
X015720Y006173D01*
X015720Y006076D02*
X015622Y006076D01*
X015622Y005979D02*
X015720Y005979D01*
X015720Y005882D02*
X015622Y005882D01*
X015622Y005785D02*
X015720Y005785D01*
X015720Y005689D02*
X015622Y005689D01*
X015306Y006076D02*
X014907Y006076D01*
X014604Y006464D02*
X014540Y006464D01*
X014550Y006852D02*
X015670Y006852D01*
X015622Y006755D02*
X015720Y006755D01*
X015720Y006658D02*
X015622Y006658D01*
X015622Y006561D02*
X015720Y006561D01*
X015720Y006464D02*
X015622Y006464D01*
X015622Y006367D02*
X015720Y006367D01*
X015720Y006270D02*
X017273Y006270D01*
X017273Y006173D02*
X016037Y006173D01*
X016037Y006076D02*
X017273Y006076D01*
X017273Y006367D02*
X016037Y006367D01*
X016037Y006464D02*
X017273Y006464D01*
X017273Y006561D02*
X016037Y006561D01*
X016032Y006658D02*
X017273Y006658D01*
X017273Y006755D02*
X016476Y006755D01*
X016637Y006852D02*
X017273Y006852D01*
X017273Y006949D02*
X016703Y006949D01*
X015603Y006949D02*
X014617Y006949D01*
X014648Y007045D02*
X014982Y007045D01*
X014982Y007142D02*
X014648Y007142D01*
X014616Y007239D02*
X014982Y007239D01*
X014982Y007336D02*
X014548Y007336D01*
X014384Y007433D02*
X014982Y007433D01*
X014632Y007530D02*
X013241Y007530D01*
X013270Y007627D02*
X014536Y007627D01*
X014495Y007724D02*
X014439Y007724D01*
X013749Y007433D02*
X012401Y007433D01*
X012392Y007336D02*
X013585Y007336D01*
X013517Y007239D02*
X013045Y007239D01*
X013142Y007142D02*
X013485Y007142D01*
X012569Y007530D02*
X012493Y007530D01*
X012522Y007627D02*
X012540Y007627D01*
X012540Y007724D02*
X012522Y007724D01*
X012522Y007821D02*
X012540Y007821D01*
X012540Y007918D02*
X012522Y007918D01*
X012522Y008015D02*
X012540Y008015D01*
X012540Y008112D02*
X012522Y008112D01*
X013968Y009178D02*
X013968Y009178D01*
X013968Y009275D02*
X013968Y009275D01*
X013968Y009372D02*
X013968Y009372D01*
X014459Y009372D02*
X014510Y009372D01*
X014470Y009662D02*
X014982Y009662D01*
X014982Y009759D02*
X014584Y009759D01*
X014631Y009856D02*
X014982Y009856D01*
X014982Y009953D02*
X014648Y009953D01*
X014642Y010050D02*
X014982Y010050D01*
X015041Y010632D02*
X015593Y010632D01*
X015690Y010729D02*
X015138Y010729D01*
X015235Y010826D02*
X015787Y010826D01*
X015884Y010923D02*
X015332Y010923D01*
X015429Y011019D02*
X015981Y011019D01*
X016078Y011116D02*
X015526Y011116D01*
X015623Y011213D02*
X016175Y011213D01*
X016272Y011310D02*
X015720Y011310D01*
X015715Y011305D02*
X015715Y011305D01*
X015808Y011407D02*
X016369Y011407D01*
X016465Y011504D02*
X015808Y011504D01*
X015808Y011601D02*
X016491Y011601D01*
X016491Y011698D02*
X015808Y011698D01*
X015808Y011795D02*
X016491Y011795D01*
X016491Y011892D02*
X015808Y011892D01*
X015808Y011989D02*
X016491Y011989D01*
X016491Y012086D02*
X015808Y012086D01*
X015808Y012183D02*
X016491Y012183D01*
X016491Y012279D02*
X015808Y012279D01*
X015941Y012376D02*
X016358Y012376D01*
X016285Y012473D02*
X016013Y012473D01*
X016053Y012570D02*
X016245Y012570D01*
X016240Y012667D02*
X016058Y012667D01*
X016051Y012764D02*
X016248Y012764D01*
X016288Y012861D02*
X016010Y012861D01*
X015934Y012958D02*
X016365Y012958D01*
X016524Y013055D02*
X015774Y013055D01*
X015524Y013055D02*
X014774Y013055D01*
X015058Y013733D02*
X015205Y013733D01*
X015231Y013830D02*
X015023Y013830D01*
X014965Y013927D02*
X015285Y013927D01*
X015381Y014024D02*
X014849Y014024D01*
X016600Y014024D02*
X016698Y014024D01*
X016698Y013927D02*
X016600Y013927D01*
X016600Y013830D02*
X016698Y013830D01*
X016649Y012664D02*
X016649Y011464D01*
X015599Y010414D01*
X016601Y010244D02*
X017273Y010244D01*
X017273Y010147D02*
X016689Y010147D01*
X013889Y005979D02*
X011085Y005979D01*
X011085Y005398D02*
X012385Y005398D01*
X009972Y003117D02*
X009815Y003274D01*
X009798Y002781D02*
X009635Y002781D01*
X009538Y002684D02*
X009895Y002684D01*
X009991Y002587D02*
X009441Y002587D01*
X009344Y002490D02*
X010088Y002490D01*
X010185Y002393D02*
X009247Y002393D01*
X009150Y002296D02*
X010282Y002296D01*
X010379Y002199D02*
X009053Y002199D01*
X009038Y002102D02*
X010394Y002102D01*
X010394Y002005D02*
X009038Y002005D01*
X009038Y001908D02*
X010394Y001908D01*
X010394Y001812D02*
X009038Y001812D01*
X009038Y001715D02*
X010394Y001715D01*
X010394Y001618D02*
X009038Y001618D01*
X009038Y001521D02*
X010394Y001521D01*
X010394Y001424D02*
X009038Y001424D01*
X009038Y001327D02*
X010394Y001327D01*
X010394Y001230D02*
X009038Y001230D01*
X009029Y001133D02*
X010403Y001133D01*
X011785Y001133D02*
X013248Y001133D01*
X013130Y001230D02*
X011794Y001230D01*
X011794Y001327D02*
X013090Y001327D01*
X013089Y001424D02*
X011794Y001424D01*
X011794Y001521D02*
X013123Y001521D01*
X013182Y001618D02*
X011794Y001618D01*
X011794Y001715D02*
X013093Y001715D01*
X013056Y001812D02*
X011794Y001812D01*
X011794Y001908D02*
X013049Y001908D01*
X013076Y002005D02*
X011794Y002005D01*
X011794Y002102D02*
X013143Y002102D01*
X013143Y002199D02*
X011794Y002199D01*
X011794Y002296D02*
X013096Y002296D01*
X013089Y002393D02*
X011794Y002393D01*
X011001Y002878D02*
X013089Y002878D01*
X013099Y002781D02*
X010916Y002781D01*
X011007Y002975D02*
X013113Y002975D01*
X013151Y002684D02*
X010482Y002684D01*
X010579Y002587D02*
X013192Y002587D01*
X013116Y002490D02*
X010676Y002490D01*
X010691Y002781D02*
X010592Y002781D01*
X010592Y002878D02*
X010691Y002878D01*
X010691Y002975D02*
X010592Y002975D01*
X008950Y002684D02*
X007610Y002684D01*
X007610Y002587D02*
X008854Y002587D01*
X008757Y002490D02*
X007610Y002490D01*
X007610Y002393D02*
X007638Y002393D01*
X007638Y002296D02*
X007608Y002296D01*
X007638Y002199D02*
X007511Y002199D01*
X007414Y002102D02*
X007638Y002102D01*
X007638Y002005D02*
X007317Y002005D01*
X007220Y001908D02*
X007638Y001908D01*
X007638Y001812D02*
X007123Y001812D01*
X007027Y001715D02*
X007638Y001715D01*
X007638Y001618D02*
X006930Y001618D01*
X006833Y001521D02*
X007638Y001521D01*
X007638Y001424D02*
X006736Y001424D01*
X006639Y001327D02*
X007638Y001327D01*
X007638Y001230D02*
X006542Y001230D01*
X006445Y001133D02*
X007648Y001133D01*
X008742Y002781D02*
X008840Y002781D01*
X008840Y002878D02*
X008742Y002878D01*
X008742Y002975D02*
X008840Y002975D01*
X008425Y003265D02*
X007610Y003265D01*
X007610Y003362D02*
X008433Y003362D01*
X008542Y003459D02*
X007610Y003459D01*
X007846Y003479D02*
X007925Y003479D01*
X007963Y003489D01*
X007997Y003509D01*
X008007Y003519D01*
X008866Y003519D01*
X007846Y003556D02*
X007846Y003556D01*
X007846Y003479D02*
X007846Y003924D01*
X007846Y003944D02*
X007846Y003944D01*
X007846Y004041D02*
X007846Y004041D01*
X007846Y004138D02*
X007846Y004138D01*
X007846Y004235D02*
X007846Y004235D01*
X007846Y003847D02*
X007846Y003847D01*
X007846Y003750D02*
X007846Y003750D01*
X007846Y003653D02*
X007846Y003653D01*
X006665Y003653D02*
X006665Y003653D01*
X006665Y003556D02*
X006665Y003556D01*
X006665Y003750D02*
X006665Y003750D01*
X006665Y003847D02*
X006665Y003847D01*
X003659Y001230D02*
X002423Y001230D01*
X002458Y001133D02*
X003756Y001133D01*
X003853Y001036D02*
X002458Y001036D01*
X002441Y000939D02*
X003950Y000939D01*
X003562Y001327D02*
X002365Y001327D01*
X001723Y001812D02*
X001526Y001812D01*
X001399Y002490D02*
X000348Y002490D01*
X000348Y002587D02*
X001302Y002587D01*
X001205Y002684D02*
X001201Y002684D01*
X000897Y002684D02*
X000348Y002684D01*
X000348Y002781D02*
X000754Y002781D01*
X000683Y002878D02*
X000348Y002878D01*
X000348Y002975D02*
X000643Y002975D01*
X000640Y003072D02*
X000348Y003072D01*
X000348Y003168D02*
X000650Y003168D01*
X000690Y003265D02*
X000348Y003265D01*
X000348Y003362D02*
X000769Y003362D01*
X000935Y003459D02*
X000348Y003459D01*
X000348Y003556D02*
X001333Y003556D01*
X001430Y003459D02*
X001164Y003459D01*
X001236Y003653D02*
X000348Y003653D01*
X000348Y003750D02*
X000784Y003750D01*
X000696Y003847D02*
X000348Y003847D01*
X000348Y003944D02*
X000656Y003944D01*
X000640Y004041D02*
X000348Y004041D01*
X000348Y004138D02*
X000640Y004138D01*
X001049Y003064D02*
X001549Y002564D01*
X001556Y002781D02*
X001754Y002781D01*
X001683Y002878D02*
X001459Y002878D01*
X001455Y002975D02*
X001643Y002975D01*
X000800Y002393D02*
X000348Y002393D01*
X000348Y002296D02*
X000703Y002296D01*
X000662Y002199D02*
X000348Y002199D01*
X000348Y002102D02*
X000640Y002102D01*
X000640Y002005D02*
X000348Y002005D01*
X016899Y004428D02*
X016958Y004428D01*
X016958Y004525D02*
X016899Y004525D01*
X016899Y004622D02*
X016958Y004622D01*
X016958Y004719D02*
X016899Y004719D01*
X016899Y004816D02*
X016958Y004816D01*
X016958Y004913D02*
X016899Y004913D01*
X016929Y005262D02*
X016929Y005735D01*
D25*
X016929Y005735D03*
X014749Y006264D03*
X014215Y005341D03*
X013049Y006364D03*
X012551Y005577D03*
X011449Y006364D03*
X012157Y007408D03*
X010189Y007132D03*
X009401Y006758D03*
X010189Y005872D03*
X009815Y005577D03*
X010189Y005183D03*
X009086Y004416D03*
X008830Y004790D03*
X008004Y004416D03*
X007649Y005144D03*
X006901Y004790D03*
X006881Y004416D03*
X005849Y004864D03*
X005549Y004464D03*
X005110Y005282D03*
X005484Y005577D03*
X005110Y006424D03*
X005838Y006758D03*
X005484Y007782D03*
X005110Y007644D03*
X005838Y008215D03*
X005110Y008628D03*
X005484Y008924D03*
X006330Y009494D03*
X006665Y009120D03*
X007649Y008766D03*
X008004Y009494D03*
X008771Y009494D03*
X009027Y009120D03*
X010189Y008195D03*
X009815Y007939D03*
X013259Y009160D03*
D26*
X013968Y009160D01*
X013968Y007900D02*
X012905Y007900D01*
X012157Y007900D02*
X012157Y007408D01*
X009972Y003117D02*
X009972Y002900D01*
X011094Y001778D01*
X009460Y002900D02*
X008338Y001778D01*
X009460Y002900D02*
X009460Y003117D01*
D27*
X007649Y004435D02*
X007649Y005144D01*
X007649Y006758D01*
X009401Y006758D01*
X010169Y006758D01*
X007649Y006758D02*
X007649Y008215D01*
X005838Y008215D01*
X005130Y008215D01*
X005189Y006758D02*
X005838Y006758D01*
X007649Y006758D01*
X007649Y008215D02*
X007649Y008766D01*
X007649Y009475D01*
X014215Y006227D02*
X014215Y005341D01*
X014215Y003707D01*
M02*
