%
M48
M72
T01C0.0130
T02C0.0315
T03C0.0354
T04C0.0400
T05C0.0433
T06C0.1181
%
T01
X3225Y1837
X6227Y3067
X5341Y5774
X5341Y6758
X5341Y7743
X5341Y8727
X8491Y7349
X8737Y7054
X8491Y6660
X8786Y7743
X9908Y7644
X10282Y7782
X10636Y8215
X9908Y8628
X10282Y8924
X11129Y9494
X11463Y9120
X12447Y8766
X12802Y9494
X13569Y9494
X13825Y9120
X14613Y7939
X14987Y8195
X14987Y7132
X14199Y6758
X14987Y5872
X14613Y5577
X14987Y5183
X13884Y4416
X13629Y4790
X12802Y4416
X12447Y5144
X11699Y4790
X11680Y4416
X10508Y4494
X10066Y4494
X9908Y5282
X10282Y5577
X9908Y6424
X10636Y6758
X12477Y3313
X12772Y3018
X13068Y3313
X12182Y3018
X15223Y3853
X17482Y5046
X17054Y7398
X18058Y9160
X20154Y6561
X20145Y5046
X13855Y11827
X15731Y12269
X16316Y12073
X14298Y14681
X13314Y14681
X12329Y14681
X11345Y14681
T02
X18865Y9967
X20951Y9967
X20951Y7093
X18865Y7093
T03
X19652Y7841
X19652Y9219
T04
X19370Y11746
X20370Y11746
X21370Y11746
X21370Y12746
X20370Y12746
X19370Y12746
X18370Y12746
X18370Y11746
X11073Y1845
X10073Y1845
X9073Y1845
X8073Y1845
X8073Y845
X9073Y845
X10073Y845
X11073Y845
T05
X4219Y17634
X4219Y19012
T06
X1453Y18619
X15971Y15666
X21040Y1394
X6276Y1394
M30
