G75*
G70*
%OFA0B0*%
%FSLAX24Y24*%
%IPPOS*%
%LPD*%
%AMOC8*
5,1,8,0,0,1.08239X$1,22.5*
%
%ADD10C,0.0000*%
%ADD11C,0.0050*%
%ADD12C,0.0049*%
%ADD13C,0.0040*%
%ADD14C,0.0080*%
D10*
X000223Y000164D02*
X000223Y019849D01*
X022270Y019849D01*
X022270Y000164D01*
X000223Y000164D01*
X019475Y007841D02*
X019477Y007867D01*
X019483Y007893D01*
X019493Y007918D01*
X019506Y007941D01*
X019522Y007961D01*
X019542Y007979D01*
X019564Y007994D01*
X019587Y008006D01*
X019613Y008014D01*
X019639Y008018D01*
X019665Y008018D01*
X019691Y008014D01*
X019717Y008006D01*
X019741Y007994D01*
X019762Y007979D01*
X019782Y007961D01*
X019798Y007941D01*
X019811Y007918D01*
X019821Y007893D01*
X019827Y007867D01*
X019829Y007841D01*
X019827Y007815D01*
X019821Y007789D01*
X019811Y007764D01*
X019798Y007741D01*
X019782Y007721D01*
X019762Y007703D01*
X019740Y007688D01*
X019717Y007676D01*
X019691Y007668D01*
X019665Y007664D01*
X019639Y007664D01*
X019613Y007668D01*
X019587Y007676D01*
X019563Y007688D01*
X019542Y007703D01*
X019522Y007721D01*
X019506Y007741D01*
X019493Y007764D01*
X019483Y007789D01*
X019477Y007815D01*
X019475Y007841D01*
X019475Y009219D02*
X019477Y009245D01*
X019483Y009271D01*
X019493Y009296D01*
X019506Y009319D01*
X019522Y009339D01*
X019542Y009357D01*
X019564Y009372D01*
X019587Y009384D01*
X019613Y009392D01*
X019639Y009396D01*
X019665Y009396D01*
X019691Y009392D01*
X019717Y009384D01*
X019741Y009372D01*
X019762Y009357D01*
X019782Y009339D01*
X019798Y009319D01*
X019811Y009296D01*
X019821Y009271D01*
X019827Y009245D01*
X019829Y009219D01*
X019827Y009193D01*
X019821Y009167D01*
X019811Y009142D01*
X019798Y009119D01*
X019782Y009099D01*
X019762Y009081D01*
X019740Y009066D01*
X019717Y009054D01*
X019691Y009046D01*
X019665Y009042D01*
X019639Y009042D01*
X019613Y009046D01*
X019587Y009054D01*
X019563Y009066D01*
X019542Y009081D01*
X019522Y009099D01*
X019506Y009119D01*
X019493Y009142D01*
X019483Y009167D01*
X019477Y009193D01*
X019475Y009219D01*
D11*
X002172Y007696D02*
X002172Y007548D01*
X002098Y007474D01*
X001950Y007622D02*
X001950Y007696D01*
X001877Y007769D01*
X001803Y007769D01*
X001729Y007696D01*
X001729Y007548D01*
X001803Y007474D01*
X001729Y007316D02*
X001729Y007021D01*
X001729Y007169D02*
X002172Y007169D01*
X002024Y007021D01*
X002098Y006863D02*
X002172Y006789D01*
X002172Y006642D01*
X002098Y006568D01*
X001803Y006568D01*
X002098Y006863D01*
X001803Y006863D01*
X001729Y006789D01*
X001729Y006642D01*
X001803Y006568D01*
X001729Y006410D02*
X001729Y006115D01*
X002024Y006410D01*
X002098Y006410D01*
X002172Y006336D01*
X002172Y006189D01*
X002098Y006115D01*
X001950Y005504D02*
X001877Y005504D01*
X001877Y005209D01*
X001950Y005209D02*
X002024Y005283D01*
X002024Y005430D01*
X001950Y005504D01*
X001729Y005430D02*
X001729Y005283D01*
X001803Y005209D01*
X001950Y005209D01*
X001950Y005051D02*
X001729Y005051D01*
X001950Y005051D02*
X002024Y004977D01*
X002024Y004756D01*
X001729Y004756D01*
X001803Y004598D02*
X001950Y004598D01*
X002024Y004524D01*
X002024Y004376D01*
X001950Y004303D01*
X001803Y004303D01*
X001729Y004376D01*
X001729Y004524D01*
X001803Y004598D01*
X001729Y004144D02*
X001950Y004144D01*
X002024Y004071D01*
X001950Y003997D01*
X001729Y003997D01*
X001729Y003849D02*
X002024Y003849D01*
X002024Y003923D01*
X001950Y003997D01*
X001950Y003691D02*
X001729Y003691D01*
X001729Y003470D01*
X001803Y003396D01*
X001877Y003470D01*
X001877Y003691D01*
X001950Y003691D02*
X002024Y003617D01*
X002024Y003470D01*
X002172Y003238D02*
X001729Y003238D01*
X002024Y003091D02*
X002172Y003238D01*
X002024Y003091D02*
X002172Y002943D01*
X001729Y002943D01*
X001232Y002713D02*
X000789Y002713D01*
X000789Y002492D01*
X000863Y002418D01*
X001011Y002418D01*
X001084Y002492D01*
X001084Y002713D01*
X001011Y002871D02*
X000863Y002871D01*
X000789Y002945D01*
X000789Y003092D01*
X000937Y003166D02*
X000937Y002871D01*
X001011Y002871D02*
X001084Y002945D01*
X001084Y003092D01*
X001011Y003166D01*
X000937Y003166D01*
X000863Y003777D02*
X000789Y003851D01*
X000789Y003999D01*
X000863Y004072D01*
X000863Y004231D02*
X000789Y004304D01*
X000789Y004452D01*
X000863Y004526D01*
X001011Y004526D01*
X001084Y004452D01*
X001084Y004304D01*
X001011Y004231D01*
X000863Y004231D01*
X001158Y004072D02*
X001232Y003999D01*
X001232Y003851D01*
X001158Y003777D01*
X000863Y003777D01*
X000789Y004684D02*
X001084Y004684D01*
X001084Y004905D01*
X001011Y004979D01*
X000789Y004979D01*
X000863Y005211D02*
X000789Y005284D01*
X000863Y005211D02*
X001158Y005211D01*
X001084Y005284D02*
X001084Y005137D01*
X001084Y005439D02*
X000789Y005439D01*
X000937Y005439D02*
X001084Y005586D01*
X001084Y005660D01*
X001011Y005817D02*
X000863Y005817D01*
X000789Y005890D01*
X000789Y006038D01*
X000863Y006112D01*
X001011Y006112D01*
X001084Y006038D01*
X001084Y005890D01*
X001011Y005817D01*
X001232Y006270D02*
X001232Y006343D01*
X000789Y006343D01*
X000789Y006270D02*
X000789Y006417D01*
X000789Y006572D02*
X000789Y006719D01*
X000789Y006646D02*
X001232Y006646D01*
X001232Y006572D01*
X001011Y006874D02*
X000863Y006874D01*
X000789Y006948D01*
X000789Y007095D01*
X000937Y007169D02*
X000937Y006874D01*
X001011Y006874D02*
X001084Y006948D01*
X001084Y007095D01*
X001011Y007169D01*
X000937Y007169D01*
X000937Y007327D02*
X001084Y007474D01*
X001084Y007548D01*
X001084Y007327D02*
X000789Y007327D01*
X000789Y008063D02*
X001232Y008063D01*
X001232Y008284D01*
X001158Y008358D01*
X001011Y008358D01*
X000937Y008284D01*
X000937Y008063D01*
X000937Y008210D02*
X000789Y008358D01*
X000863Y008516D02*
X001011Y008516D01*
X001084Y008590D01*
X001084Y008737D01*
X001011Y008811D01*
X000937Y008811D01*
X000937Y008516D01*
X000863Y008516D02*
X000789Y008590D01*
X000789Y008737D01*
X001084Y008969D02*
X000789Y009117D01*
X001084Y009264D01*
X001084Y009875D02*
X001232Y010023D01*
X000789Y010023D01*
X000789Y010170D02*
X000789Y009875D01*
X002024Y007769D02*
X001950Y007696D01*
X002024Y007769D02*
X002098Y007769D01*
X002172Y007696D01*
X001950Y002332D02*
X001729Y002332D01*
X001950Y002332D02*
X002024Y002258D01*
X002024Y002037D01*
X001729Y002037D01*
X001729Y001879D02*
X001729Y001657D01*
X001803Y001584D01*
X001877Y001657D01*
X001877Y001879D01*
X001950Y001879D02*
X001729Y001879D01*
X001950Y001879D02*
X002024Y001805D01*
X002024Y001657D01*
X002024Y001426D02*
X001655Y001426D01*
X001582Y001352D01*
X001582Y001278D01*
X001729Y001204D02*
X001729Y001426D01*
X001729Y001204D02*
X001803Y001131D01*
X002024Y001131D01*
X001950Y000972D02*
X001877Y000899D01*
X001877Y000677D01*
X001877Y000825D02*
X001729Y000972D01*
X001950Y000972D02*
X002098Y000972D01*
X002172Y000899D01*
X002172Y000677D01*
X001729Y000677D01*
X001232Y000828D02*
X001084Y000976D01*
X000789Y000976D01*
X000789Y001134D02*
X001084Y001134D01*
X000937Y001134D02*
X001084Y001282D01*
X001084Y001355D01*
X001011Y001512D02*
X000863Y001512D01*
X000789Y001585D01*
X000789Y001807D01*
X000863Y001965D02*
X000937Y002039D01*
X000937Y002260D01*
X001011Y002260D02*
X000789Y002260D01*
X000789Y002039D01*
X000863Y001965D01*
X001084Y002039D02*
X001084Y002186D01*
X001011Y002260D01*
X001084Y001807D02*
X001084Y001585D01*
X001011Y001512D01*
X001011Y000976D02*
X001011Y000681D01*
X001084Y000681D02*
X001232Y000828D01*
X001084Y000681D02*
X000789Y000681D01*
D12*
X000617Y007890D02*
X000617Y010302D01*
X001404Y010302D01*
X001404Y007890D01*
X000617Y007890D01*
D13*
X009131Y005093D02*
X009438Y004633D01*
X009591Y004633D02*
X009744Y004786D01*
X009668Y004786D02*
X009898Y004786D01*
X009898Y004633D02*
X009898Y005093D01*
X009668Y005093D01*
X009591Y005016D01*
X009591Y004863D01*
X009668Y004786D01*
X009438Y005093D02*
X009131Y004633D01*
X010755Y005969D02*
X010755Y006276D01*
X010831Y006353D01*
X010985Y006353D01*
X011062Y006276D01*
X011062Y006199D01*
X010985Y006123D01*
X010755Y006123D01*
X010755Y005969D02*
X010831Y005892D01*
X010985Y005892D01*
X011062Y005969D01*
X011215Y005969D02*
X011292Y005892D01*
X011445Y005892D01*
X011522Y005969D01*
X011522Y006276D01*
X011445Y006353D01*
X011292Y006353D01*
X011215Y006276D01*
X011700Y006209D02*
X012160Y006209D01*
X011930Y005979D01*
X011930Y006286D01*
X012083Y005825D02*
X012160Y005749D01*
X012160Y005595D01*
X012083Y005518D01*
X011776Y005518D01*
X011700Y005595D01*
X011700Y005749D01*
X011776Y005825D01*
X011756Y005093D02*
X012063Y005093D01*
X011910Y005093D02*
X011910Y004633D01*
X011603Y004633D02*
X011296Y005093D01*
X011603Y005093D02*
X011296Y004633D01*
X013570Y005083D02*
X013570Y005237D01*
X013647Y005314D01*
X013570Y005467D02*
X013570Y005774D01*
X013570Y005620D02*
X014030Y005620D01*
X013877Y005467D01*
X013953Y005314D02*
X014030Y005237D01*
X014030Y005083D01*
X013953Y005007D01*
X013647Y005007D01*
X013570Y005083D01*
X013647Y005927D02*
X013570Y006004D01*
X013570Y006158D01*
X013647Y006234D01*
X013953Y006234D01*
X013647Y005927D01*
X013953Y005927D01*
X014030Y006004D01*
X014030Y006158D01*
X013953Y006234D01*
X015188Y006329D02*
X015188Y006636D01*
X015188Y006483D02*
X015648Y006483D01*
X015495Y006329D01*
X015572Y006176D02*
X015648Y006099D01*
X015648Y005946D01*
X015572Y005869D01*
X015265Y005869D01*
X015188Y005946D01*
X015188Y006099D01*
X015265Y006176D01*
X015418Y006790D02*
X015418Y007097D01*
X015188Y007020D02*
X015648Y007020D01*
X015418Y006790D01*
X014278Y007662D02*
X014278Y007969D01*
X014201Y008046D01*
X014048Y008046D01*
X013971Y007969D01*
X013817Y008046D02*
X013817Y007816D01*
X013664Y007892D01*
X013587Y007892D01*
X013511Y007816D01*
X013511Y007662D01*
X013587Y007585D01*
X013741Y007585D01*
X013817Y007662D01*
X013971Y007662D02*
X014048Y007585D01*
X014201Y007585D01*
X014278Y007662D01*
X013817Y008046D02*
X013511Y008046D01*
X013127Y008180D02*
X013203Y008333D01*
X013127Y008180D02*
X012973Y008026D01*
X012973Y008256D01*
X012896Y008333D01*
X012820Y008333D01*
X012743Y008256D01*
X012743Y008103D01*
X012820Y008026D01*
X012973Y008026D01*
X012820Y007873D02*
X012743Y007796D01*
X012743Y007642D01*
X012820Y007566D01*
X013127Y007566D01*
X013203Y007642D01*
X013203Y007796D01*
X013127Y007873D01*
X013149Y008609D02*
X013455Y008609D01*
X013302Y008609D02*
X013302Y009069D01*
X013455Y008916D01*
X013762Y009069D02*
X013762Y008609D01*
X013609Y008609D02*
X013916Y008609D01*
X014069Y008686D02*
X014146Y008609D01*
X014300Y008609D01*
X014376Y008686D01*
X014376Y008993D01*
X014300Y009069D01*
X014146Y009069D01*
X014069Y008993D01*
X013916Y008916D02*
X013762Y009069D01*
X012605Y010064D02*
X012528Y009987D01*
X012374Y009987D01*
X012298Y010064D01*
X012144Y009987D02*
X011837Y009987D01*
X011684Y009987D02*
X011377Y010294D01*
X011377Y010371D01*
X011454Y010447D01*
X011607Y010447D01*
X011684Y010371D01*
X011991Y010447D02*
X011991Y009987D01*
X011684Y009987D02*
X011377Y009987D01*
X011991Y010447D02*
X012144Y010294D01*
X012298Y010371D02*
X012374Y010447D01*
X012528Y010447D01*
X012605Y010371D01*
X012605Y010064D01*
X011839Y008991D02*
X011685Y008991D01*
X011609Y008914D01*
X011455Y008837D02*
X011302Y008991D01*
X011302Y008530D01*
X011455Y008530D02*
X011148Y008530D01*
X010995Y008607D02*
X010995Y008760D01*
X010765Y008760D01*
X010688Y008684D01*
X010688Y008607D01*
X010765Y008530D01*
X010918Y008530D01*
X010995Y008607D01*
X010995Y008760D02*
X010841Y008914D01*
X010688Y008991D01*
X011609Y008607D02*
X011685Y008530D01*
X011839Y008530D01*
X011916Y008607D01*
X011916Y008914D01*
X011839Y008991D01*
X011740Y007534D02*
X011817Y007457D01*
X011817Y007150D01*
X011740Y007074D01*
X011587Y007074D01*
X011510Y007150D01*
X011357Y007150D02*
X011280Y007074D01*
X011127Y007074D01*
X011050Y007150D01*
X011050Y007227D01*
X011127Y007304D01*
X011203Y007304D01*
X011127Y007304D02*
X011050Y007380D01*
X011050Y007457D01*
X011127Y007534D01*
X011280Y007534D01*
X011357Y007457D01*
X011510Y007457D02*
X011587Y007534D01*
X011740Y007534D01*
X010264Y009987D02*
X010111Y009987D01*
X010034Y010064D01*
X009880Y010064D02*
X009880Y009987D01*
X009880Y010064D02*
X009574Y010371D01*
X009574Y010447D01*
X009880Y010447D01*
X010034Y010371D02*
X010111Y010447D01*
X010264Y010447D01*
X010341Y010371D01*
X010341Y010064D01*
X010264Y009987D01*
X014615Y012665D02*
X014691Y012589D01*
X014845Y012589D01*
X014922Y012665D01*
X014922Y012819D02*
X014768Y012895D01*
X014691Y012895D01*
X014615Y012819D01*
X014615Y012665D01*
X014922Y012819D02*
X014922Y013049D01*
X014615Y013049D01*
X015075Y012972D02*
X015075Y012819D01*
X015152Y012742D01*
X015382Y012742D01*
X015229Y012742D02*
X015075Y012589D01*
X015382Y012589D02*
X015382Y013049D01*
X015152Y013049D01*
X015075Y012972D01*
X015259Y011097D02*
X015182Y011021D01*
X015182Y010867D01*
X015259Y010790D01*
X015412Y010790D02*
X015489Y010944D01*
X015489Y011021D01*
X015412Y011097D01*
X015259Y011097D01*
X015642Y011097D02*
X015642Y010790D01*
X015412Y010790D01*
X015182Y010637D02*
X015182Y010330D01*
X015182Y010483D02*
X015642Y010483D01*
X015489Y010330D01*
X015566Y010176D02*
X015642Y010100D01*
X015642Y009946D01*
X015566Y009870D01*
X015259Y009870D01*
X015182Y009946D01*
X015182Y010100D01*
X015259Y010176D01*
X017168Y009928D02*
X017475Y009928D01*
X017321Y009928D02*
X017321Y010389D01*
X017475Y010235D01*
X017628Y010389D02*
X017628Y010005D01*
X017705Y009928D01*
X017859Y009928D01*
X017935Y010005D01*
X017935Y010389D01*
X018317Y004611D02*
X018010Y004304D01*
X017933Y004304D01*
X017933Y004151D02*
X018087Y003997D01*
X018087Y004074D02*
X018087Y003844D01*
X017933Y003844D02*
X018394Y003844D01*
X018394Y004074D01*
X018317Y004151D01*
X018163Y004151D01*
X018087Y004074D01*
X018394Y004304D02*
X018394Y004611D01*
X018317Y004611D01*
X019297Y004454D02*
X019297Y004147D01*
X019604Y004454D01*
X019680Y004454D01*
X019757Y004377D01*
X019757Y004223D01*
X019680Y004147D01*
X019680Y003993D02*
X019527Y003993D01*
X019450Y003916D01*
X019450Y003686D01*
X019297Y003686D02*
X019757Y003686D01*
X019757Y003916D01*
X019680Y003993D01*
X019450Y003840D02*
X019297Y003993D01*
X021432Y003985D02*
X021509Y004062D01*
X021432Y003985D02*
X021432Y003832D01*
X021509Y003755D01*
X021816Y003755D01*
X021892Y003832D01*
X021892Y003985D01*
X021816Y004062D01*
X021816Y004216D02*
X021739Y004216D01*
X021662Y004292D01*
X021662Y004446D01*
X021585Y004522D01*
X021509Y004522D01*
X021432Y004446D01*
X021432Y004292D01*
X021509Y004216D01*
X021585Y004216D01*
X021662Y004292D01*
X021662Y004446D02*
X021739Y004522D01*
X021816Y004522D01*
X021892Y004446D01*
X021892Y004292D01*
X021816Y004216D01*
X016553Y003445D02*
X016553Y002985D01*
X016553Y003138D02*
X016323Y003138D01*
X016246Y003215D01*
X016246Y003369D01*
X016323Y003445D01*
X016553Y003445D01*
X016399Y003138D02*
X016246Y002985D01*
X016093Y003062D02*
X016016Y002985D01*
X015862Y002985D01*
X015786Y003062D01*
X015786Y003138D01*
X015862Y003215D01*
X015939Y003215D01*
X015862Y003215D02*
X015786Y003292D01*
X015786Y003369D01*
X015862Y003445D01*
X016016Y003445D01*
X016093Y003369D01*
D14*
X016846Y007240D02*
X018246Y007240D01*
X018246Y009820D01*
X016846Y009820D01*
X016846Y007240D01*
M02*
