G75*
G70*
%OFA0B0*%
%FSLAX24Y24*%
%IPPOS*%
%LPD*%
%AMOC8*
5,1,8,0,0,1.08239X$1,22.5*
%
%ADD10R,0.0591X0.0118*%
%ADD11R,0.0118X0.0591*%
%ADD12C,0.0394*%
%ADD13R,0.0394X0.0433*%
%ADD14C,0.0472*%
%ADD15R,0.0787X0.0197*%
%ADD16R,0.1181X0.1181*%
%ADD17R,0.0433X0.0394*%
%ADD18R,0.0433X0.0787*%
%ADD19R,0.0315X0.0315*%
%ADD20R,0.0512X0.0591*%
%ADD21R,0.0600X0.0600*%
%ADD22C,0.0600*%
%ADD23C,0.0669*%
%ADD24R,0.2205X0.0906*%
%ADD25R,0.1339X0.0551*%
%ADD26R,0.0906X0.2205*%
%ADD27R,0.0551X0.1339*%
%ADD28C,0.0098*%
%ADD29C,0.0270*%
%ADD30C,0.0197*%
%ADD31C,0.0295*%
%ADD32C,0.2461*%
D10*
X009416Y004593D03*
X009416Y004790D03*
X009416Y004987D03*
X009416Y005183D03*
X009416Y005380D03*
X009416Y005577D03*
X009416Y005774D03*
X009416Y005971D03*
X009416Y006168D03*
X009416Y006365D03*
X009416Y006561D03*
X009416Y006758D03*
X009416Y006955D03*
X009416Y007152D03*
X009416Y007349D03*
X009416Y007546D03*
X009416Y007743D03*
X009416Y007939D03*
X009416Y008136D03*
X009416Y008333D03*
X009416Y008530D03*
X009416Y008727D03*
X009416Y008924D03*
X009416Y009120D03*
X009416Y009317D03*
X015479Y009317D03*
X015479Y009120D03*
X015479Y008924D03*
X015479Y008727D03*
X015479Y008530D03*
X015479Y008333D03*
X015479Y008136D03*
X015479Y007939D03*
X015479Y007743D03*
X015479Y007546D03*
X015479Y007349D03*
X015479Y007152D03*
X015479Y006955D03*
X015479Y006758D03*
X015479Y006561D03*
X015479Y006365D03*
X015479Y006168D03*
X015479Y005971D03*
X015479Y005774D03*
X015479Y005577D03*
X015479Y005380D03*
X015479Y005183D03*
X015479Y004987D03*
X015479Y004790D03*
X015479Y004593D03*
D11*
X014810Y003924D03*
X014613Y003924D03*
X014416Y003924D03*
X014219Y003924D03*
X014022Y003924D03*
X013825Y003924D03*
X013629Y003924D03*
X013432Y003924D03*
X013235Y003924D03*
X013038Y003924D03*
X012841Y003924D03*
X012644Y003924D03*
X012447Y003924D03*
X012251Y003924D03*
X012054Y003924D03*
X011857Y003924D03*
X011660Y003924D03*
X011463Y003924D03*
X011266Y003924D03*
X011069Y003924D03*
X010873Y003924D03*
X010676Y003924D03*
X010479Y003924D03*
X010282Y003924D03*
X010085Y003924D03*
X010085Y009987D03*
X010282Y009987D03*
X010479Y009987D03*
X010676Y009987D03*
X010873Y009987D03*
X011069Y009987D03*
X011266Y009987D03*
X011463Y009987D03*
X011660Y009987D03*
X011857Y009987D03*
X012054Y009987D03*
X012251Y009987D03*
X012447Y009987D03*
X012644Y009987D03*
X012841Y009987D03*
X013038Y009987D03*
X013235Y009987D03*
X013432Y009987D03*
X013629Y009987D03*
X013825Y009987D03*
X014022Y009987D03*
X014219Y009987D03*
X014416Y009987D03*
X014613Y009987D03*
X014810Y009987D03*
D12*
X015479Y009987D03*
X009416Y003924D03*
D13*
X016365Y009160D03*
X017034Y009160D03*
D14*
X018629Y009967D02*
X019101Y009967D01*
X020715Y009967D02*
X021188Y009967D01*
X021188Y007093D02*
X020715Y007093D01*
X019101Y007093D02*
X018629Y007093D01*
D15*
X018766Y007900D03*
X018766Y008215D03*
X018766Y008530D03*
X018766Y008845D03*
X018766Y009160D03*
D16*
X015892Y001778D03*
X013136Y001778D03*
D17*
X013589Y003117D03*
X014258Y003117D03*
X014770Y003117D03*
X015440Y003117D03*
D18*
X017482Y003412D03*
X018939Y003412D03*
X020145Y003412D03*
X021601Y003412D03*
X021601Y005931D03*
X020145Y005931D03*
X018939Y005931D03*
X017482Y005931D03*
D19*
X016286Y003853D03*
X015695Y003853D03*
X015227Y012269D03*
X014636Y012269D03*
D20*
X016955Y007900D03*
X017703Y007900D03*
D21*
X018370Y011746D03*
X011073Y001845D03*
D22*
X010073Y001845D03*
X009073Y001845D03*
X008073Y001845D03*
X008073Y000845D03*
X009073Y000845D03*
X010073Y000845D03*
X011073Y000845D03*
X019370Y011746D03*
X020370Y011746D03*
X021370Y011746D03*
X021370Y012746D03*
X020370Y012746D03*
X019370Y012746D03*
X018370Y012746D03*
D23*
X004219Y017634D03*
X004219Y019012D03*
D24*
X001552Y016050D03*
X001552Y011050D03*
X001552Y009750D03*
X001552Y000813D03*
D25*
X004150Y001837D03*
X004150Y002821D03*
X004150Y003806D03*
X004150Y004790D03*
X004150Y005774D03*
X004150Y006758D03*
X004150Y007743D03*
X004150Y008727D03*
X004150Y012073D03*
X004150Y013057D03*
X004150Y014042D03*
X004150Y015026D03*
D26*
X006384Y018520D03*
X015321Y018520D03*
X016621Y018520D03*
X021621Y018520D03*
D27*
X020597Y015922D03*
X019613Y015922D03*
X018629Y015922D03*
X017644Y015922D03*
X014298Y015922D03*
X013314Y015922D03*
X012329Y015922D03*
X011345Y015922D03*
X010361Y015922D03*
X009377Y015922D03*
X008392Y015922D03*
X007408Y015922D03*
D28*
X000422Y009188D02*
X000422Y001375D01*
X002699Y001375D01*
X002763Y001311D01*
X002763Y000363D01*
X005413Y000363D01*
X005204Y000572D01*
X005028Y000877D01*
X004937Y001218D01*
X004937Y001570D01*
X005028Y001911D01*
X005204Y002217D01*
X005454Y002466D01*
X005759Y002642D01*
X006100Y002734D01*
X006453Y002734D01*
X006793Y002642D01*
X007099Y002466D01*
X007348Y002217D01*
X007524Y001911D01*
X007616Y001570D01*
X007616Y001218D01*
X007524Y000877D01*
X007348Y000572D01*
X007139Y000363D01*
X010331Y000363D01*
X010228Y000466D01*
X010155Y000436D01*
X009992Y000436D01*
X009842Y000498D01*
X009727Y000613D01*
X009664Y000763D01*
X009664Y000926D01*
X009727Y001077D01*
X009836Y001186D01*
X009639Y001186D01*
X009452Y001000D01*
X009483Y000926D01*
X009483Y000763D01*
X009420Y000613D01*
X009305Y000498D01*
X009155Y000436D01*
X008992Y000436D01*
X008842Y000498D01*
X008727Y000613D01*
X008664Y000763D01*
X008664Y000926D01*
X008727Y001077D01*
X008842Y001192D01*
X008992Y001254D01*
X009155Y001254D01*
X009228Y001224D01*
X009508Y001503D01*
X009836Y001503D01*
X009727Y001613D01*
X009664Y001763D01*
X009664Y001926D01*
X009727Y002077D01*
X009842Y002192D01*
X009992Y002254D01*
X010155Y002254D01*
X010228Y002224D01*
X010714Y002710D01*
X010714Y002852D01*
X010322Y002460D01*
X010230Y002368D01*
X009835Y002368D01*
X009454Y001995D01*
X009483Y001926D01*
X009483Y001763D01*
X009420Y001613D01*
X009305Y001498D01*
X009155Y001436D01*
X008992Y001436D01*
X008842Y001498D01*
X008727Y001613D01*
X008664Y001763D01*
X008664Y001926D01*
X008727Y002077D01*
X008842Y002192D01*
X008992Y002254D01*
X009155Y002254D01*
X009233Y002222D01*
X009659Y002639D01*
X009705Y002684D01*
X009706Y002684D01*
X009706Y002685D01*
X009771Y002684D01*
X010098Y002684D01*
X010517Y003103D01*
X010517Y003246D01*
X010224Y002952D01*
X010224Y002952D01*
X010131Y002860D01*
X009312Y002860D01*
X008452Y002000D01*
X008483Y001926D01*
X008483Y001763D01*
X008420Y001613D01*
X008305Y001498D01*
X008155Y001436D01*
X007992Y001436D01*
X007842Y001498D01*
X007727Y001613D01*
X007664Y001763D01*
X007664Y001926D01*
X007727Y002077D01*
X007842Y002192D01*
X007992Y002254D01*
X008155Y002254D01*
X008228Y002224D01*
X009181Y003177D01*
X010000Y003177D01*
X010321Y003497D01*
X010321Y003519D01*
X009981Y003519D01*
X009917Y003583D01*
X009917Y004264D01*
X009927Y004274D01*
X009927Y004288D01*
X009859Y004356D01*
X009821Y004446D01*
X009821Y004543D01*
X009859Y004633D01*
X009927Y004702D01*
X010017Y004739D01*
X010114Y004739D01*
X010204Y004702D01*
X010273Y004633D01*
X010287Y004598D01*
X010301Y004633D01*
X010370Y004702D01*
X010460Y004739D01*
X010557Y004739D01*
X010647Y004702D01*
X010715Y004633D01*
X010753Y004543D01*
X010753Y004446D01*
X010715Y004356D01*
X010687Y004328D01*
X011108Y004328D01*
X011108Y004422D01*
X011455Y004770D01*
X011455Y004838D01*
X011492Y004928D01*
X011561Y004997D01*
X011651Y005034D01*
X011748Y005034D01*
X011838Y004997D01*
X011906Y004928D01*
X011944Y004838D01*
X011944Y004741D01*
X011906Y004651D01*
X011838Y004583D01*
X011748Y004546D01*
X011679Y004546D01*
X011502Y004368D01*
X011542Y004368D01*
X011580Y004358D01*
X011614Y004338D01*
X011624Y004328D01*
X012214Y004328D01*
X012191Y004384D01*
X012191Y006501D01*
X009936Y006501D01*
X009860Y006533D01*
X009860Y006483D01*
X009850Y006445D01*
X009831Y006411D01*
X009820Y006401D01*
X009820Y005736D01*
X010095Y005736D01*
X010144Y005784D01*
X010234Y005821D01*
X010331Y005821D01*
X010420Y005784D01*
X010489Y005715D01*
X010526Y005626D01*
X010526Y005529D01*
X010489Y005439D01*
X010420Y005370D01*
X010331Y005333D01*
X010234Y005333D01*
X010144Y005370D01*
X010095Y005419D01*
X009860Y005419D01*
X009860Y005380D01*
X009416Y005380D01*
X009416Y005380D01*
X008971Y005380D01*
X008971Y005302D01*
X008982Y005264D01*
X009001Y005230D01*
X009011Y005219D01*
X009011Y004489D01*
X009075Y004425D01*
X009756Y004425D01*
X009820Y004489D01*
X009820Y005219D01*
X009831Y005230D01*
X009850Y005264D01*
X009860Y005302D01*
X009860Y005380D01*
X009416Y005380D01*
X009416Y005380D01*
X009810Y005380D01*
X009908Y005282D01*
X009860Y005301D02*
X012191Y005301D01*
X012191Y005398D02*
X010448Y005398D01*
X010512Y005495D02*
X012191Y005495D01*
X012191Y005592D02*
X010526Y005592D01*
X010500Y005689D02*
X012191Y005689D01*
X012191Y005785D02*
X010417Y005785D01*
X010282Y005577D02*
X009416Y005577D01*
X009416Y005380D02*
X008971Y005380D01*
X008971Y005459D01*
X008982Y005497D01*
X009001Y005531D01*
X009011Y005541D01*
X009011Y005616D01*
X008951Y005616D01*
X006471Y003090D01*
X006471Y003019D01*
X006434Y002929D01*
X006365Y002860D01*
X006276Y002823D01*
X006178Y002823D01*
X006089Y002860D01*
X006020Y002929D01*
X005983Y003019D01*
X005983Y003116D01*
X006020Y003206D01*
X006089Y003274D01*
X006178Y003312D01*
X006245Y003312D01*
X008700Y005812D01*
X008606Y005812D01*
X005549Y002756D01*
X005456Y002663D01*
X004929Y002663D01*
X004929Y002500D01*
X004865Y002436D01*
X003436Y002436D01*
X003372Y002500D01*
X003372Y003142D01*
X003436Y003206D01*
X004865Y003206D01*
X004929Y003142D01*
X004929Y002980D01*
X005325Y002980D01*
X008354Y006009D01*
X008212Y006009D01*
X005942Y003740D01*
X005850Y003647D01*
X004929Y003647D01*
X004929Y003485D01*
X004865Y003421D01*
X003436Y003421D01*
X003372Y003485D01*
X003372Y004126D01*
X003436Y004190D01*
X004865Y004190D01*
X004929Y004126D01*
X004929Y003964D01*
X005718Y003964D01*
X007961Y006206D01*
X007818Y006206D01*
X006336Y004724D01*
X006336Y004724D01*
X006243Y004631D01*
X004929Y004631D01*
X004929Y004469D01*
X004865Y004405D01*
X003436Y004405D01*
X003372Y004469D01*
X003372Y005111D01*
X003436Y005175D01*
X004865Y005175D01*
X004929Y005111D01*
X004929Y004948D01*
X006112Y004948D01*
X007687Y006523D01*
X008283Y006523D01*
X008247Y006611D01*
X008247Y006708D01*
X008284Y006798D01*
X008352Y006867D01*
X008442Y006904D01*
X008539Y006904D01*
X008542Y006903D01*
X008530Y006915D01*
X008493Y007005D01*
X008493Y007102D01*
X008494Y007105D01*
X008442Y007105D01*
X008352Y007142D01*
X004865Y007142D01*
X004865Y007143D02*
X003436Y007143D01*
X003372Y007079D01*
X003372Y006437D01*
X003436Y006373D01*
X004865Y006373D01*
X004929Y006437D01*
X004929Y006600D01*
X005154Y006600D01*
X005203Y006551D01*
X005293Y006514D01*
X005390Y006514D01*
X005479Y006551D01*
X005548Y006620D01*
X005585Y006710D01*
X005585Y006807D01*
X005548Y006897D01*
X005479Y006965D01*
X005390Y007002D01*
X005293Y007002D01*
X005203Y006965D01*
X005154Y006917D01*
X004929Y006917D01*
X004929Y007079D01*
X004865Y007143D01*
X004929Y007045D02*
X008493Y007045D01*
X008516Y006949D02*
X005496Y006949D01*
X005567Y006852D02*
X008337Y006852D01*
X008266Y006755D02*
X005585Y006755D01*
X005564Y006658D02*
X008247Y006658D01*
X008267Y006561D02*
X005489Y006561D01*
X005341Y006758D02*
X004150Y006758D01*
X004929Y006949D02*
X005186Y006949D01*
X005193Y006561D02*
X004929Y006561D01*
X004929Y006464D02*
X007628Y006464D01*
X007531Y006367D02*
X000422Y006367D01*
X000422Y006270D02*
X007434Y006270D01*
X007337Y006173D02*
X000422Y006173D01*
X000422Y006076D02*
X003372Y006076D01*
X003372Y006095D02*
X003372Y005453D01*
X003436Y005389D01*
X004865Y005389D01*
X004929Y005453D01*
X004929Y005616D01*
X005154Y005616D01*
X005203Y005567D01*
X005293Y005530D01*
X005390Y005530D01*
X005479Y005567D01*
X005548Y005636D01*
X005585Y005725D01*
X005585Y005823D01*
X005548Y005912D01*
X005479Y005981D01*
X005390Y006018D01*
X005293Y006018D01*
X005203Y005981D01*
X005154Y005932D01*
X004929Y005932D01*
X004929Y006095D01*
X004865Y006159D01*
X003436Y006159D01*
X003372Y006095D01*
X003372Y005979D02*
X000422Y005979D01*
X000422Y005882D02*
X003372Y005882D01*
X003372Y005785D02*
X000422Y005785D01*
X000422Y005689D02*
X003372Y005689D01*
X003372Y005592D02*
X000422Y005592D01*
X000422Y005495D02*
X003372Y005495D01*
X003427Y005398D02*
X000422Y005398D01*
X000422Y005301D02*
X006465Y005301D01*
X006562Y005398D02*
X004873Y005398D01*
X004929Y005495D02*
X006659Y005495D01*
X006756Y005592D02*
X005504Y005592D01*
X005570Y005689D02*
X006852Y005689D01*
X006949Y005785D02*
X005585Y005785D01*
X005561Y005882D02*
X007046Y005882D01*
X007143Y005979D02*
X005481Y005979D01*
X005341Y005774D02*
X004150Y005774D01*
X004929Y005592D02*
X005178Y005592D01*
X005201Y005979D02*
X004929Y005979D01*
X004929Y006076D02*
X007240Y006076D01*
X007494Y005882D02*
X007637Y005882D01*
X007591Y005979D02*
X007734Y005979D01*
X007688Y006076D02*
X007831Y006076D01*
X007785Y006173D02*
X007928Y006173D01*
X008146Y006168D02*
X005784Y003806D01*
X004150Y003806D01*
X004929Y004041D02*
X005795Y004041D01*
X005892Y004138D02*
X004917Y004138D01*
X004888Y004428D02*
X006183Y004428D01*
X006086Y004332D02*
X000422Y004332D01*
X000422Y004428D02*
X003412Y004428D01*
X003372Y004525D02*
X000422Y004525D01*
X000422Y004622D02*
X003372Y004622D01*
X003372Y004719D02*
X000422Y004719D01*
X000422Y004816D02*
X003372Y004816D01*
X003372Y004913D02*
X000422Y004913D01*
X000422Y005010D02*
X003372Y005010D01*
X003372Y005107D02*
X000422Y005107D01*
X000422Y005204D02*
X006368Y005204D01*
X006271Y005107D02*
X004929Y005107D01*
X004929Y005010D02*
X006174Y005010D01*
X006178Y004790D02*
X004150Y004790D01*
X004929Y004622D02*
X006377Y004622D01*
X006331Y004719D02*
X006474Y004719D01*
X006428Y004816D02*
X006571Y004816D01*
X006525Y004913D02*
X006668Y004913D01*
X006622Y005010D02*
X006765Y005010D01*
X006719Y005107D02*
X006861Y005107D01*
X006816Y005204D02*
X006958Y005204D01*
X006913Y005301D02*
X007055Y005301D01*
X007010Y005398D02*
X007152Y005398D01*
X007107Y005495D02*
X007249Y005495D01*
X007204Y005592D02*
X007346Y005592D01*
X007301Y005689D02*
X007443Y005689D01*
X007397Y005785D02*
X007540Y005785D01*
X007794Y005592D02*
X007937Y005592D01*
X007891Y005689D02*
X008034Y005689D01*
X007988Y005785D02*
X008131Y005785D01*
X008085Y005882D02*
X008227Y005882D01*
X008182Y005979D02*
X008324Y005979D01*
X008540Y005971D02*
X005390Y002821D01*
X004150Y002821D01*
X004929Y002587D02*
X005663Y002587D01*
X005495Y002490D02*
X004918Y002490D01*
X004865Y002222D02*
X003436Y002222D01*
X003372Y002158D01*
X003372Y002036D01*
X003363Y002044D01*
X003274Y002081D01*
X003176Y002081D01*
X003087Y002044D01*
X003018Y001975D01*
X002981Y001886D01*
X002981Y001788D01*
X003018Y001699D01*
X003087Y001630D01*
X003176Y001593D01*
X003274Y001593D01*
X003363Y001630D01*
X003372Y001638D01*
X003372Y001516D01*
X003436Y001452D01*
X004865Y001452D01*
X004929Y001516D01*
X004929Y002158D01*
X004865Y002222D01*
X004887Y002199D02*
X005194Y002199D01*
X005138Y002102D02*
X004929Y002102D01*
X004929Y002005D02*
X005082Y002005D01*
X005027Y001908D02*
X004929Y001908D01*
X004929Y001812D02*
X005001Y001812D01*
X004975Y001715D02*
X004929Y001715D01*
X004929Y001618D02*
X004949Y001618D01*
X004937Y001521D02*
X004929Y001521D01*
X004937Y001424D02*
X000422Y001424D01*
X000422Y001521D02*
X003372Y001521D01*
X003372Y001618D02*
X003334Y001618D01*
X003116Y001618D02*
X000422Y001618D01*
X000422Y001715D02*
X003011Y001715D01*
X002981Y001812D02*
X000422Y001812D01*
X000422Y001908D02*
X002990Y001908D01*
X003048Y002005D02*
X000422Y002005D01*
X000422Y002102D02*
X003372Y002102D01*
X003413Y002199D02*
X000422Y002199D01*
X000422Y002296D02*
X005284Y002296D01*
X005381Y002393D02*
X000422Y002393D01*
X000422Y002490D02*
X003382Y002490D01*
X003372Y002587D02*
X000422Y002587D01*
X000422Y002684D02*
X003372Y002684D01*
X003372Y002781D02*
X000422Y002781D01*
X000422Y002878D02*
X003372Y002878D01*
X003372Y002975D02*
X000422Y002975D01*
X000422Y003072D02*
X003372Y003072D01*
X003398Y003168D02*
X000422Y003168D01*
X000422Y003265D02*
X005610Y003265D01*
X005514Y003168D02*
X004902Y003168D01*
X004929Y003072D02*
X005417Y003072D01*
X005671Y002878D02*
X006071Y002878D01*
X006001Y002975D02*
X005768Y002975D01*
X005865Y003072D02*
X005983Y003072D01*
X005962Y003168D02*
X006005Y003168D01*
X006059Y003265D02*
X006080Y003265D01*
X006155Y003362D02*
X006295Y003362D01*
X006252Y003459D02*
X006390Y003459D01*
X006349Y003556D02*
X006485Y003556D01*
X006446Y003653D02*
X006580Y003653D01*
X006543Y003750D02*
X006675Y003750D01*
X006640Y003847D02*
X006770Y003847D01*
X006737Y003944D02*
X006866Y003944D01*
X006834Y004041D02*
X006961Y004041D01*
X006931Y004138D02*
X007056Y004138D01*
X007028Y004235D02*
X007151Y004235D01*
X007125Y004332D02*
X007246Y004332D01*
X007222Y004428D02*
X007341Y004428D01*
X007319Y004525D02*
X007437Y004525D01*
X007415Y004622D02*
X007532Y004622D01*
X007512Y004719D02*
X007627Y004719D01*
X007609Y004816D02*
X007722Y004816D01*
X007706Y004913D02*
X007817Y004913D01*
X007803Y005010D02*
X007912Y005010D01*
X007900Y005107D02*
X008008Y005107D01*
X007997Y005204D02*
X008103Y005204D01*
X008094Y005301D02*
X008198Y005301D01*
X008191Y005398D02*
X008293Y005398D01*
X008288Y005495D02*
X008388Y005495D01*
X008385Y005592D02*
X008483Y005592D01*
X008482Y005689D02*
X008579Y005689D01*
X008579Y005785D02*
X008674Y005785D01*
X008884Y005774D02*
X006227Y003067D01*
X006453Y002975D02*
X008979Y002975D01*
X009076Y003072D02*
X006471Y003072D01*
X006548Y003168D02*
X009173Y003168D01*
X009247Y003018D02*
X008073Y001845D01*
X007752Y002102D02*
X007414Y002102D01*
X007470Y002005D02*
X007697Y002005D01*
X007664Y001908D02*
X007525Y001908D01*
X007551Y001812D02*
X007664Y001812D01*
X007684Y001715D02*
X007577Y001715D01*
X007603Y001618D02*
X007725Y001618D01*
X007819Y001521D02*
X007616Y001521D01*
X007616Y001424D02*
X009428Y001424D01*
X009331Y001327D02*
X007616Y001327D01*
X007616Y001230D02*
X007840Y001230D01*
X007838Y001229D02*
X007781Y001188D01*
X007731Y001138D01*
X007689Y001080D01*
X007657Y001017D01*
X007635Y000950D01*
X007626Y000894D01*
X008024Y000894D01*
X008024Y000796D01*
X007626Y000796D01*
X007635Y000740D01*
X007657Y000672D01*
X007689Y000609D01*
X007731Y000552D01*
X007781Y000502D01*
X007838Y000461D01*
X007901Y000429D01*
X007968Y000407D01*
X008024Y000398D01*
X008024Y000796D01*
X008123Y000796D01*
X008123Y000894D01*
X008520Y000894D01*
X008512Y000950D01*
X008490Y001017D01*
X008458Y001080D01*
X008416Y001138D01*
X008366Y001188D01*
X008309Y001229D01*
X008246Y001261D01*
X008179Y001283D01*
X008123Y001292D01*
X008123Y000894D01*
X008024Y000894D01*
X008024Y001292D01*
X007968Y001283D01*
X007901Y001261D01*
X007838Y001229D01*
X007728Y001133D02*
X007593Y001133D01*
X007567Y001036D02*
X007667Y001036D01*
X007634Y000939D02*
X007541Y000939D01*
X007504Y000842D02*
X008024Y000842D01*
X008024Y000745D02*
X008123Y000745D01*
X008123Y000796D02*
X008123Y000398D01*
X008179Y000407D01*
X008246Y000429D01*
X008309Y000461D01*
X008366Y000502D01*
X008416Y000552D01*
X008458Y000609D01*
X008490Y000672D01*
X008512Y000740D01*
X008520Y000796D01*
X008123Y000796D01*
X008123Y000842D02*
X008664Y000842D01*
X008672Y000745D02*
X008512Y000745D01*
X008477Y000648D02*
X008712Y000648D01*
X008788Y000551D02*
X008415Y000551D01*
X008297Y000455D02*
X008946Y000455D01*
X009200Y000455D02*
X009946Y000455D01*
X009788Y000551D02*
X009359Y000551D01*
X009435Y000648D02*
X009712Y000648D01*
X009672Y000745D02*
X009475Y000745D01*
X009483Y000842D02*
X009664Y000842D01*
X009670Y000939D02*
X009477Y000939D01*
X009489Y001036D02*
X009710Y001036D01*
X009783Y001133D02*
X009586Y001133D01*
X009573Y001345D02*
X009073Y000845D01*
X008783Y001133D02*
X008419Y001133D01*
X008480Y001036D02*
X008710Y001036D01*
X008670Y000939D02*
X008513Y000939D01*
X008307Y001230D02*
X008934Y001230D01*
X009213Y001230D02*
X009234Y001230D01*
X009328Y001521D02*
X009819Y001521D01*
X009725Y001618D02*
X009422Y001618D01*
X009462Y001715D02*
X009684Y001715D01*
X009664Y001812D02*
X009483Y001812D01*
X009483Y001908D02*
X009664Y001908D01*
X009697Y002005D02*
X009464Y002005D01*
X009563Y002102D02*
X009752Y002102D01*
X009663Y002199D02*
X009860Y002199D01*
X009762Y002296D02*
X010301Y002296D01*
X010255Y002393D02*
X010398Y002393D01*
X010352Y002490D02*
X010494Y002490D01*
X010449Y002587D02*
X010591Y002587D01*
X010546Y002684D02*
X010688Y002684D01*
X010714Y002781D02*
X010643Y002781D01*
X010873Y002644D02*
X010073Y001845D01*
X010164Y002526D02*
X009770Y002526D01*
X009073Y001845D01*
X008860Y002199D02*
X008652Y002199D01*
X008555Y002102D02*
X008752Y002102D01*
X008697Y002005D02*
X008458Y002005D01*
X008483Y001908D02*
X008664Y001908D01*
X008664Y001812D02*
X008483Y001812D01*
X008462Y001715D02*
X008684Y001715D01*
X008725Y001618D02*
X008422Y001618D01*
X008328Y001521D02*
X008819Y001521D01*
X008123Y001230D02*
X008024Y001230D01*
X008024Y001133D02*
X008123Y001133D01*
X008123Y001036D02*
X008024Y001036D01*
X008024Y000939D02*
X008123Y000939D01*
X008123Y000648D02*
X008024Y000648D01*
X008024Y000551D02*
X008123Y000551D01*
X008123Y000455D02*
X008024Y000455D01*
X007850Y000455D02*
X007231Y000455D01*
X007328Y000551D02*
X007732Y000551D01*
X007669Y000648D02*
X007392Y000648D01*
X007448Y000745D02*
X007634Y000745D01*
X007860Y002199D02*
X007358Y002199D01*
X007269Y002296D02*
X008301Y002296D01*
X008398Y002393D02*
X007172Y002393D01*
X007057Y002490D02*
X008494Y002490D01*
X008591Y002587D02*
X006889Y002587D01*
X006638Y002684D02*
X008688Y002684D01*
X008785Y002781D02*
X005574Y002781D01*
X005477Y002684D02*
X005914Y002684D01*
X006383Y002878D02*
X008882Y002878D01*
X009136Y002684D02*
X009704Y002684D01*
X009606Y002587D02*
X009040Y002587D01*
X008943Y002490D02*
X009507Y002490D01*
X009408Y002393D02*
X008846Y002393D01*
X008749Y002296D02*
X009308Y002296D01*
X009233Y002781D02*
X010195Y002781D01*
X010149Y002878D02*
X010292Y002878D01*
X010246Y002975D02*
X010389Y002975D01*
X010343Y003072D02*
X010485Y003072D01*
X010517Y003168D02*
X010440Y003168D01*
X010676Y003038D02*
X010164Y002526D01*
X010066Y003018D02*
X009247Y003018D01*
X009355Y003618D02*
X009243Y003664D01*
X009156Y003750D01*
X009110Y003863D01*
X009110Y003985D01*
X009156Y004097D01*
X009243Y004183D01*
X009355Y004230D01*
X009477Y004230D01*
X009589Y004183D01*
X009675Y004097D01*
X009722Y003985D01*
X009722Y003863D01*
X009675Y003750D01*
X009917Y003750D01*
X009917Y003653D02*
X009563Y003653D01*
X009589Y003664D02*
X009675Y003750D01*
X009715Y003847D02*
X009917Y003847D01*
X009917Y003944D02*
X009722Y003944D01*
X009699Y004041D02*
X009917Y004041D01*
X009917Y004138D02*
X009635Y004138D01*
X009917Y004235D02*
X007595Y004235D01*
X007690Y004332D02*
X009883Y004332D01*
X009829Y004428D02*
X009760Y004428D01*
X009820Y004525D02*
X009821Y004525D01*
X009820Y004622D02*
X009854Y004622D01*
X009820Y004719D02*
X009970Y004719D01*
X009820Y004816D02*
X011455Y004816D01*
X011486Y004913D02*
X009820Y004913D01*
X009820Y005010D02*
X011593Y005010D01*
X011806Y005010D02*
X012191Y005010D01*
X012191Y004913D02*
X011913Y004913D01*
X011944Y004816D02*
X012191Y004816D01*
X012191Y004719D02*
X011935Y004719D01*
X011877Y004622D02*
X012191Y004622D01*
X012191Y004525D02*
X011659Y004525D01*
X011640Y004416D02*
X011463Y004239D01*
X011463Y003924D01*
X011463Y004329D01*
X011463Y004330D01*
X011463Y003924D01*
X011463Y003924D01*
X011463Y003924D01*
X011463Y003479D01*
X011384Y003479D01*
X011347Y003489D01*
X011313Y003509D01*
X011302Y003519D01*
X011228Y003519D01*
X011228Y002254D01*
X011419Y002254D01*
X011483Y002190D01*
X011483Y001608D01*
X011502Y001627D01*
X011502Y003479D01*
X011463Y003479D01*
X011463Y003924D01*
X011463Y003944D02*
X011463Y003944D01*
X011463Y004041D02*
X011463Y004041D01*
X011463Y004138D02*
X011463Y004138D01*
X011463Y004235D02*
X011463Y004235D01*
X011621Y004332D02*
X012212Y004332D01*
X012191Y004428D02*
X011562Y004428D01*
X011640Y004416D02*
X011680Y004416D01*
X011699Y004790D02*
X011266Y004357D01*
X011266Y003924D01*
X011069Y003924D02*
X011069Y001849D01*
X011073Y001845D01*
X011483Y001812D02*
X011502Y001812D01*
X011502Y001908D02*
X011483Y001908D01*
X011483Y002005D02*
X011502Y002005D01*
X011502Y002102D02*
X011483Y002102D01*
X011474Y002199D02*
X011502Y002199D01*
X011502Y002296D02*
X011228Y002296D01*
X011228Y002393D02*
X011502Y002393D01*
X011502Y002490D02*
X011228Y002490D01*
X011228Y002587D02*
X011502Y002587D01*
X011502Y002684D02*
X011228Y002684D01*
X011228Y002781D02*
X011502Y002781D01*
X011502Y002878D02*
X011228Y002878D01*
X011228Y002975D02*
X011502Y002975D01*
X011502Y003072D02*
X011228Y003072D01*
X011228Y003168D02*
X011502Y003168D01*
X011502Y003265D02*
X011228Y003265D01*
X011228Y003362D02*
X011502Y003362D01*
X011502Y003459D02*
X011228Y003459D01*
X011463Y003556D02*
X011463Y003556D01*
X011463Y003653D02*
X011463Y003653D01*
X011463Y003750D02*
X011463Y003750D01*
X011463Y003847D02*
X011463Y003847D01*
X011660Y003924D02*
X011660Y001561D01*
X011444Y001345D01*
X009573Y001345D01*
X010073Y000845D02*
X010508Y000410D01*
X011394Y000410D01*
X011857Y000872D01*
X011857Y003924D01*
X012054Y003924D02*
X012054Y003146D01*
X012182Y003018D01*
X012015Y002839D02*
X012015Y000938D01*
X012015Y000807D01*
X011571Y000363D01*
X020177Y000363D01*
X019968Y000572D01*
X019792Y000877D01*
X019700Y001218D01*
X019700Y001570D01*
X019792Y001911D01*
X019968Y002217D01*
X020217Y002466D01*
X020523Y002642D01*
X020864Y002734D01*
X021216Y002734D01*
X021557Y002642D01*
X021862Y002466D01*
X022071Y002257D01*
X022071Y006965D01*
X021508Y006965D01*
X021480Y006897D01*
X021383Y006800D01*
X021256Y006747D01*
X020646Y006747D01*
X020519Y006800D01*
X020422Y006897D01*
X020394Y006965D01*
X019809Y006965D01*
X019780Y006994D01*
X019780Y007487D01*
X019727Y007465D01*
X019577Y007465D01*
X019439Y007522D01*
X019333Y007628D01*
X019281Y007752D01*
X019265Y007752D01*
X019205Y007692D01*
X018068Y007692D01*
X018068Y007559D01*
X018004Y007496D01*
X017402Y007496D01*
X017338Y007559D01*
X017338Y008175D01*
X017320Y008175D01*
X017320Y007559D01*
X017271Y007511D01*
X017298Y007447D01*
X017298Y007349D01*
X017261Y007260D01*
X017192Y007191D01*
X017102Y007154D01*
X017005Y007154D01*
X016915Y007191D01*
X016867Y007240D01*
X016299Y007240D01*
X016206Y007332D01*
X015955Y007584D01*
X015923Y007584D01*
X015923Y007546D01*
X015479Y007546D01*
X015479Y007546D01*
X015479Y007546D01*
X015034Y007546D01*
X015034Y007624D01*
X015045Y007662D01*
X015064Y007696D01*
X015074Y007707D01*
X015074Y007781D01*
X014800Y007781D01*
X014751Y007732D01*
X014661Y007695D01*
X014564Y007695D01*
X014474Y007732D01*
X014406Y007801D01*
X014369Y007891D01*
X014369Y007988D01*
X014406Y008078D01*
X014474Y008146D01*
X014564Y008184D01*
X014661Y008184D01*
X014751Y008146D01*
X014800Y008098D01*
X015034Y008098D01*
X015034Y008136D01*
X015479Y008136D01*
X015479Y008136D01*
X015923Y008136D01*
X015923Y008058D01*
X015913Y008020D01*
X015894Y007986D01*
X015883Y007975D01*
X015883Y007901D01*
X016086Y007901D01*
X016430Y007556D01*
X016593Y007556D01*
X016590Y007559D01*
X016590Y008175D01*
X015923Y008175D01*
X015923Y008136D01*
X015479Y008136D01*
X015479Y008136D01*
X015046Y008136D01*
X014987Y008195D01*
X015034Y008209D02*
X012704Y008209D01*
X012704Y008306D02*
X015074Y008306D01*
X015074Y008297D02*
X015064Y008287D01*
X015045Y008253D01*
X015034Y008215D01*
X015034Y008136D01*
X015479Y008136D01*
X015479Y007939D02*
X014613Y007939D01*
X014786Y008112D02*
X015034Y008112D01*
X015074Y008297D02*
X015074Y009422D01*
X015138Y009486D01*
X015819Y009486D01*
X015883Y009422D01*
X015883Y009082D01*
X016059Y009082D01*
X016059Y009422D01*
X016123Y009486D01*
X016607Y009486D01*
X016671Y009422D01*
X016671Y008898D01*
X016607Y008834D01*
X016263Y008834D01*
X016194Y008765D01*
X015883Y008765D01*
X015883Y008688D01*
X018276Y008688D01*
X018263Y008701D01*
X018263Y008960D01*
X018253Y008970D01*
X018234Y009004D01*
X018223Y009042D01*
X018223Y009160D01*
X018766Y009160D01*
X018766Y009160D01*
X018766Y009407D01*
X018353Y009407D01*
X018315Y009397D01*
X018281Y009378D01*
X018253Y009350D01*
X018234Y009316D01*
X018223Y009278D01*
X018223Y009160D01*
X018766Y009160D01*
X018766Y009160D01*
X018766Y009407D01*
X019180Y009407D01*
X019218Y009397D01*
X019252Y009378D01*
X019279Y009350D01*
X019291Y009330D01*
X019333Y009432D01*
X019439Y009538D01*
X019577Y009595D01*
X019727Y009595D01*
X019780Y009573D01*
X019780Y010066D01*
X019809Y010095D01*
X020394Y010095D01*
X020422Y010163D01*
X020519Y010260D01*
X020646Y010312D01*
X021256Y010312D01*
X021383Y010260D01*
X021480Y010163D01*
X021508Y010095D01*
X022071Y010095D01*
X022071Y017309D01*
X021123Y017309D01*
X021059Y017372D01*
X021059Y019650D01*
X017183Y019650D01*
X017183Y017372D01*
X017119Y017309D01*
X016123Y017309D01*
X016059Y017372D01*
X016059Y019650D01*
X015883Y019650D01*
X015883Y017372D01*
X015819Y017309D01*
X014823Y017309D01*
X014759Y017372D01*
X014759Y019650D01*
X006946Y019650D01*
X006946Y017372D01*
X006882Y017309D01*
X005886Y017309D01*
X005822Y017372D01*
X005822Y019650D01*
X002317Y019650D01*
X002525Y019441D01*
X002702Y019136D01*
X002793Y018795D01*
X002793Y018442D01*
X002702Y018101D01*
X002525Y017796D01*
X002276Y017547D01*
X001970Y017370D01*
X001630Y017279D01*
X001277Y017279D01*
X000936Y017370D01*
X000631Y017547D01*
X000422Y017755D01*
X000422Y016612D01*
X002699Y016612D01*
X002763Y016548D01*
X002763Y015552D01*
X002699Y015488D01*
X000422Y015488D01*
X000422Y011612D01*
X002699Y011612D01*
X002763Y011548D01*
X002763Y010552D01*
X002699Y010488D01*
X000422Y010488D01*
X000422Y010312D01*
X002699Y010312D01*
X002763Y010248D01*
X002763Y009252D01*
X002699Y009188D01*
X000422Y009188D01*
X000422Y009178D02*
X006733Y009178D01*
X006636Y009275D02*
X002763Y009275D01*
X002763Y009372D02*
X006539Y009372D01*
X006506Y009405D02*
X007736Y008175D01*
X009011Y008175D01*
X009011Y007903D01*
X009001Y007893D01*
X008994Y007880D01*
X008993Y007881D01*
X008924Y007950D01*
X008835Y007987D01*
X008737Y007987D01*
X008648Y007950D01*
X008579Y007881D01*
X008542Y007791D01*
X008542Y007694D01*
X008579Y007604D01*
X008626Y007557D01*
X008539Y007593D01*
X008442Y007593D01*
X008352Y007556D01*
X008284Y007487D01*
X008247Y007397D01*
X008247Y007300D01*
X008284Y007210D01*
X008352Y007142D01*
X008272Y007239D02*
X000422Y007239D01*
X000422Y007142D02*
X003435Y007142D01*
X003372Y007045D02*
X000422Y007045D01*
X000422Y006949D02*
X003372Y006949D01*
X003372Y006852D02*
X000422Y006852D01*
X000422Y006755D02*
X003372Y006755D01*
X003372Y006658D02*
X000422Y006658D01*
X000422Y006561D02*
X003372Y006561D01*
X003372Y006464D02*
X000422Y006464D01*
X000422Y007336D02*
X008247Y007336D01*
X008261Y007433D02*
X004929Y007433D01*
X004929Y007422D02*
X004929Y007584D01*
X005154Y007584D01*
X005203Y007535D01*
X005293Y007498D01*
X005390Y007498D01*
X005479Y007535D01*
X005548Y007604D01*
X005585Y007694D01*
X005585Y007791D01*
X005548Y007881D01*
X005479Y007950D01*
X005390Y007987D01*
X005293Y007987D01*
X005203Y007950D01*
X005154Y007901D01*
X004929Y007901D01*
X004929Y008063D01*
X004865Y008127D01*
X003436Y008127D01*
X003372Y008063D01*
X003372Y007422D01*
X003436Y007358D01*
X004865Y007358D01*
X004929Y007422D01*
X004929Y007530D02*
X005216Y007530D01*
X005341Y007743D02*
X004150Y007743D01*
X004929Y007918D02*
X005171Y007918D01*
X004929Y008015D02*
X009011Y008015D01*
X009011Y008112D02*
X004880Y008112D01*
X004865Y008342D02*
X004929Y008406D01*
X004929Y008568D01*
X005154Y008568D01*
X005203Y008520D01*
X005293Y008483D01*
X005390Y008483D01*
X005479Y008520D01*
X005548Y008588D01*
X005585Y008678D01*
X005585Y008775D01*
X005548Y008865D01*
X005479Y008934D01*
X005390Y008971D01*
X005293Y008971D01*
X005203Y008934D01*
X005154Y008885D01*
X004929Y008885D01*
X004929Y009048D01*
X004865Y009112D01*
X003436Y009112D01*
X003372Y009048D01*
X003372Y008406D01*
X003436Y008342D01*
X004865Y008342D01*
X004925Y008402D02*
X007508Y008402D01*
X007605Y008306D02*
X000422Y008306D01*
X000422Y008402D02*
X003375Y008402D01*
X003372Y008499D02*
X000422Y008499D01*
X000422Y008596D02*
X003372Y008596D01*
X003372Y008693D02*
X000422Y008693D01*
X000422Y008790D02*
X003372Y008790D01*
X003372Y008887D02*
X000422Y008887D01*
X000422Y008984D02*
X003372Y008984D01*
X003405Y009081D02*
X000422Y009081D01*
X000422Y008209D02*
X007702Y008209D01*
X007802Y008333D02*
X006571Y009563D01*
X006571Y011483D01*
X005981Y012073D01*
X004150Y012073D01*
X004929Y011915D02*
X004929Y011752D01*
X004865Y011688D01*
X003436Y011688D01*
X003372Y011752D01*
X003372Y012394D01*
X003436Y012458D01*
X004865Y012458D01*
X004929Y012394D01*
X004929Y012232D01*
X006047Y012232D01*
X006139Y012139D01*
X006730Y011548D01*
X006730Y009629D01*
X007867Y008491D01*
X008108Y008491D01*
X006998Y009602D01*
X006905Y009695D01*
X006905Y011614D01*
X005620Y012899D01*
X004929Y012899D01*
X004929Y012737D01*
X004865Y012673D01*
X003436Y012673D01*
X003372Y012737D01*
X003372Y013378D01*
X003436Y013442D01*
X004865Y013442D01*
X004929Y013378D01*
X004929Y013216D01*
X005751Y013216D01*
X005844Y013123D01*
X007222Y011745D01*
X007222Y009826D01*
X008360Y008688D01*
X008971Y008688D01*
X008971Y008727D01*
X009416Y008727D01*
X009860Y008727D01*
X009860Y008765D01*
X010095Y008765D01*
X010144Y008717D01*
X010234Y008679D01*
X010331Y008679D01*
X010420Y008717D01*
X010489Y008785D01*
X010526Y008875D01*
X010526Y008972D01*
X010489Y009062D01*
X010420Y009131D01*
X010331Y009168D01*
X010234Y009168D01*
X010144Y009131D01*
X010095Y009082D01*
X009820Y009082D01*
X009820Y009422D01*
X009756Y009486D01*
X009075Y009486D01*
X009066Y009476D01*
X008950Y009476D01*
X008206Y010220D01*
X008206Y012139D01*
X005254Y015092D01*
X005161Y015184D01*
X004929Y015184D01*
X004929Y015347D01*
X004865Y015411D01*
X003436Y015411D01*
X003372Y015347D01*
X003372Y014705D01*
X003436Y014641D01*
X004865Y014641D01*
X004929Y014705D01*
X004929Y014868D01*
X005029Y014868D01*
X007889Y012008D01*
X007889Y010088D01*
X007982Y009996D01*
X008699Y009279D01*
X008458Y009279D01*
X007714Y010023D01*
X007714Y011942D01*
X005549Y014107D01*
X005456Y014200D01*
X004929Y014200D01*
X004929Y014363D01*
X004865Y014427D01*
X003436Y014427D01*
X003372Y014363D01*
X003372Y013721D01*
X003436Y013657D01*
X004865Y013657D01*
X004929Y013721D01*
X004929Y013883D01*
X005325Y013883D01*
X007397Y011811D01*
X007397Y009891D01*
X007490Y009799D01*
X008327Y008962D01*
X009011Y008962D01*
X009011Y008888D01*
X009001Y008877D01*
X008982Y008843D01*
X008971Y008805D01*
X008971Y008727D01*
X009416Y008727D01*
X009416Y008727D01*
X009416Y008727D01*
X009810Y008727D01*
X009908Y008628D01*
X009860Y008648D02*
X009850Y008610D01*
X009831Y008576D01*
X009820Y008566D01*
X009820Y008449D01*
X009877Y008472D01*
X012191Y008472D01*
X012191Y009526D01*
X012214Y009582D01*
X011622Y009582D01*
X011622Y009307D01*
X011670Y009259D01*
X011707Y009169D01*
X011707Y009072D01*
X011670Y008982D01*
X011602Y008913D01*
X011512Y008876D01*
X011415Y008876D01*
X011325Y008913D01*
X011256Y008982D01*
X011219Y009072D01*
X011219Y009169D01*
X011256Y009259D01*
X011305Y009307D01*
X011305Y009542D01*
X011266Y009542D01*
X011266Y009987D01*
X011266Y010431D01*
X011188Y010431D01*
X011150Y010421D01*
X011116Y010401D01*
X011105Y010391D01*
X010834Y010391D01*
X010834Y014038D01*
X010519Y014353D01*
X010519Y015143D01*
X010682Y015143D01*
X010746Y015207D01*
X010746Y016636D01*
X010682Y016700D01*
X010040Y016700D01*
X009976Y016636D01*
X009976Y015207D01*
X010040Y015143D01*
X010202Y015143D01*
X010202Y014222D01*
X010295Y014129D01*
X010517Y013907D01*
X010517Y013371D01*
X009535Y014353D01*
X009535Y015143D01*
X009697Y015143D01*
X009761Y015207D01*
X009761Y016636D01*
X009697Y016700D01*
X009056Y016700D01*
X008992Y016636D01*
X008992Y015207D01*
X009056Y015143D01*
X009218Y015143D01*
X009218Y014222D01*
X009311Y014129D01*
X010321Y013120D01*
X010321Y012584D01*
X008551Y014353D01*
X008551Y015143D01*
X008713Y015143D01*
X008777Y015207D01*
X008777Y016636D01*
X008713Y016700D01*
X008071Y016700D01*
X008008Y016636D01*
X008008Y015207D01*
X008071Y015143D01*
X008234Y015143D01*
X008234Y014222D01*
X008327Y014129D01*
X010124Y012332D01*
X010124Y011796D01*
X007566Y014353D01*
X007566Y015143D01*
X007729Y015143D01*
X007793Y015207D01*
X007793Y016636D01*
X007729Y016700D01*
X007087Y016700D01*
X007023Y016636D01*
X007023Y015207D01*
X007087Y015143D01*
X007250Y015143D01*
X007250Y014222D01*
X007342Y014129D01*
X009927Y011545D01*
X009927Y010337D01*
X009917Y010327D01*
X009917Y009646D01*
X009981Y009582D01*
X011105Y009582D01*
X011116Y009572D01*
X011150Y009552D01*
X011188Y009542D01*
X011266Y009542D01*
X011266Y009987D01*
X011266Y009987D01*
X011266Y010431D01*
X011345Y010431D01*
X011383Y010421D01*
X011417Y010401D01*
X011427Y010391D01*
X011502Y010391D01*
X011502Y012257D01*
X011594Y012350D01*
X011594Y012350D01*
X013598Y014353D01*
X013598Y014353D01*
X013691Y014446D01*
X014228Y014446D01*
X014159Y014474D01*
X014091Y014543D01*
X014054Y014633D01*
X014054Y014730D01*
X014091Y014820D01*
X014139Y014868D01*
X014139Y015143D01*
X013977Y015143D01*
X013913Y015207D01*
X013913Y016636D01*
X013977Y016700D01*
X014619Y016700D01*
X014683Y016636D01*
X014683Y016033D01*
X014723Y016183D01*
X014899Y016488D01*
X015149Y016738D01*
X000422Y016738D01*
X000422Y016641D02*
X007028Y016641D01*
X007023Y016544D02*
X002763Y016544D01*
X002763Y016447D02*
X007023Y016447D01*
X007023Y016350D02*
X002763Y016350D01*
X002763Y016253D02*
X007023Y016253D01*
X007023Y016156D02*
X002763Y016156D01*
X002763Y016060D02*
X007023Y016060D01*
X007023Y015963D02*
X002763Y015963D01*
X002763Y015866D02*
X007023Y015866D01*
X007023Y015769D02*
X002763Y015769D01*
X002763Y015672D02*
X007023Y015672D01*
X007023Y015575D02*
X002763Y015575D01*
X003372Y015284D02*
X000422Y015284D01*
X000422Y015187D02*
X003372Y015187D01*
X003372Y015090D02*
X000422Y015090D01*
X000422Y014993D02*
X003372Y014993D01*
X003372Y014896D02*
X000422Y014896D01*
X000422Y014800D02*
X003372Y014800D01*
X003374Y014703D02*
X000422Y014703D01*
X000422Y014606D02*
X005291Y014606D01*
X005194Y014703D02*
X004926Y014703D01*
X004929Y014800D02*
X005097Y014800D01*
X005095Y015026D02*
X004150Y015026D01*
X004929Y015187D02*
X007043Y015187D01*
X007023Y015284D02*
X004929Y015284D01*
X004894Y015381D02*
X007023Y015381D01*
X007023Y015478D02*
X000422Y015478D01*
X000422Y015381D02*
X003406Y015381D01*
X003421Y014412D02*
X000422Y014412D01*
X000422Y014509D02*
X005388Y014509D01*
X005485Y014412D02*
X004879Y014412D01*
X004929Y014315D02*
X005582Y014315D01*
X005679Y014218D02*
X004929Y014218D01*
X004929Y013830D02*
X005378Y013830D01*
X005475Y013733D02*
X004929Y013733D01*
X004929Y013346D02*
X005862Y013346D01*
X005765Y013443D02*
X000422Y013443D01*
X000422Y013539D02*
X005669Y013539D01*
X005572Y013636D02*
X000422Y013636D01*
X000422Y013733D02*
X003372Y013733D01*
X003372Y013830D02*
X000422Y013830D01*
X000422Y013927D02*
X003372Y013927D01*
X003372Y014024D02*
X000422Y014024D01*
X000422Y014121D02*
X003372Y014121D01*
X003372Y014218D02*
X000422Y014218D01*
X000422Y014315D02*
X003372Y014315D01*
X004150Y014042D02*
X005390Y014042D01*
X007556Y011876D01*
X007556Y009957D01*
X008392Y009120D01*
X009416Y009120D01*
X009416Y008924D02*
X010282Y008924D01*
X010200Y008693D02*
X009860Y008693D01*
X009860Y008727D02*
X009416Y008727D01*
X009416Y008530D02*
X008294Y008530D01*
X007064Y009760D01*
X007064Y011680D01*
X005686Y013057D01*
X004150Y013057D01*
X004929Y013249D02*
X005959Y013249D01*
X006056Y013152D02*
X005815Y013152D01*
X005912Y013055D02*
X006153Y013055D01*
X006250Y012958D02*
X006009Y012958D01*
X006106Y012861D02*
X006347Y012861D01*
X006444Y012764D02*
X006203Y012764D01*
X006300Y012667D02*
X006541Y012667D01*
X006638Y012570D02*
X006397Y012570D01*
X006494Y012473D02*
X006735Y012473D01*
X006832Y012376D02*
X006591Y012376D01*
X006688Y012279D02*
X006929Y012279D01*
X007026Y012183D02*
X006785Y012183D01*
X006882Y012086D02*
X007122Y012086D01*
X007219Y011989D02*
X006978Y011989D01*
X007075Y011892D02*
X007316Y011892D01*
X007397Y011795D02*
X007172Y011795D01*
X007222Y011698D02*
X007397Y011698D01*
X007397Y011601D02*
X007222Y011601D01*
X007222Y011504D02*
X007397Y011504D01*
X007397Y011407D02*
X007222Y011407D01*
X007222Y011310D02*
X007397Y011310D01*
X007397Y011213D02*
X007222Y011213D01*
X007222Y011116D02*
X007397Y011116D01*
X007397Y011019D02*
X007222Y011019D01*
X007222Y010923D02*
X007397Y010923D01*
X007397Y010826D02*
X007222Y010826D01*
X007222Y010729D02*
X007397Y010729D01*
X007397Y010632D02*
X007222Y010632D01*
X007222Y010535D02*
X007397Y010535D01*
X007397Y010438D02*
X007222Y010438D01*
X007222Y010341D02*
X007397Y010341D01*
X007397Y010244D02*
X007222Y010244D01*
X007222Y010147D02*
X007397Y010147D01*
X007397Y010050D02*
X007222Y010050D01*
X007222Y009953D02*
X007397Y009953D01*
X007432Y009856D02*
X007222Y009856D01*
X007288Y009759D02*
X007529Y009759D01*
X007626Y009662D02*
X007385Y009662D01*
X007482Y009566D02*
X007723Y009566D01*
X007820Y009469D02*
X007579Y009469D01*
X007676Y009372D02*
X007917Y009372D01*
X008014Y009275D02*
X007773Y009275D01*
X007870Y009178D02*
X008111Y009178D01*
X008208Y009081D02*
X007967Y009081D01*
X008064Y008984D02*
X008305Y008984D01*
X008161Y008887D02*
X009011Y008887D01*
X008971Y008790D02*
X008258Y008790D01*
X008355Y008693D02*
X008971Y008693D01*
X009416Y008333D02*
X007802Y008333D01*
X007860Y008499D02*
X008100Y008499D01*
X008003Y008596D02*
X007763Y008596D01*
X007666Y008693D02*
X007907Y008693D01*
X007810Y008790D02*
X007569Y008790D01*
X007472Y008887D02*
X007713Y008887D01*
X007616Y008984D02*
X007375Y008984D01*
X007278Y009081D02*
X007519Y009081D01*
X007422Y009178D02*
X007181Y009178D01*
X007084Y009275D02*
X007325Y009275D01*
X007228Y009372D02*
X006987Y009372D01*
X006890Y009469D02*
X007131Y009469D01*
X007034Y009566D02*
X006793Y009566D01*
X006730Y009662D02*
X006937Y009662D01*
X006905Y009759D02*
X006730Y009759D01*
X006730Y009856D02*
X006905Y009856D01*
X006905Y009953D02*
X006730Y009953D01*
X006730Y010050D02*
X006905Y010050D01*
X006905Y010147D02*
X006730Y010147D01*
X006730Y010244D02*
X006905Y010244D01*
X006905Y010341D02*
X006730Y010341D01*
X006730Y010438D02*
X006905Y010438D01*
X006905Y010535D02*
X006730Y010535D01*
X006730Y010632D02*
X006905Y010632D01*
X006905Y010729D02*
X006730Y010729D01*
X006730Y010826D02*
X006905Y010826D01*
X006905Y010923D02*
X006730Y010923D01*
X006730Y011019D02*
X006905Y011019D01*
X006905Y011116D02*
X006730Y011116D01*
X006730Y011213D02*
X006905Y011213D01*
X006905Y011310D02*
X006730Y011310D01*
X006730Y011407D02*
X006905Y011407D01*
X006905Y011504D02*
X006730Y011504D01*
X006677Y011601D02*
X006905Y011601D01*
X006821Y011698D02*
X006580Y011698D01*
X006483Y011795D02*
X006724Y011795D01*
X006627Y011892D02*
X006386Y011892D01*
X006289Y011989D02*
X006530Y011989D01*
X006433Y012086D02*
X006193Y012086D01*
X006096Y012183D02*
X006337Y012183D01*
X006240Y012279D02*
X004929Y012279D01*
X004929Y012376D02*
X006143Y012376D01*
X006046Y012473D02*
X000422Y012473D01*
X000422Y012376D02*
X003372Y012376D01*
X003372Y012279D02*
X000422Y012279D01*
X000422Y012183D02*
X003372Y012183D01*
X003372Y012086D02*
X000422Y012086D01*
X000422Y011989D02*
X003372Y011989D01*
X003372Y011892D02*
X000422Y011892D01*
X000422Y011795D02*
X003372Y011795D01*
X003426Y011698D02*
X000422Y011698D01*
X000422Y012570D02*
X005949Y012570D01*
X005852Y012667D02*
X000422Y012667D01*
X000422Y012764D02*
X003372Y012764D01*
X003372Y012861D02*
X000422Y012861D01*
X000422Y012958D02*
X003372Y012958D01*
X003372Y013055D02*
X000422Y013055D01*
X000422Y013152D02*
X003372Y013152D01*
X003372Y013249D02*
X000422Y013249D01*
X000422Y013346D02*
X003372Y013346D01*
X004929Y012861D02*
X005658Y012861D01*
X005755Y012764D02*
X004929Y012764D01*
X004929Y011915D02*
X005915Y011915D01*
X006413Y011417D01*
X006413Y009498D01*
X006506Y009405D01*
X006442Y009469D02*
X002763Y009469D01*
X002763Y009566D02*
X006413Y009566D01*
X006413Y009662D02*
X002763Y009662D01*
X002763Y009759D02*
X006413Y009759D01*
X006413Y009856D02*
X002763Y009856D01*
X002763Y009953D02*
X006413Y009953D01*
X006413Y010050D02*
X002763Y010050D01*
X002763Y010147D02*
X006413Y010147D01*
X006413Y010244D02*
X002763Y010244D01*
X002747Y010535D02*
X006413Y010535D01*
X006413Y010632D02*
X002763Y010632D01*
X002763Y010729D02*
X006413Y010729D01*
X006413Y010826D02*
X002763Y010826D01*
X002763Y010923D02*
X006413Y010923D01*
X006413Y011019D02*
X002763Y011019D01*
X002763Y011116D02*
X006413Y011116D01*
X006413Y011213D02*
X002763Y011213D01*
X002763Y011310D02*
X006413Y011310D01*
X006413Y011407D02*
X002763Y011407D01*
X002763Y011504D02*
X006326Y011504D01*
X006229Y011601D02*
X002710Y011601D01*
X004874Y011698D02*
X006132Y011698D01*
X006035Y011795D02*
X004929Y011795D01*
X004929Y011892D02*
X005938Y011892D01*
X006892Y012764D02*
X007133Y012764D01*
X007230Y012667D02*
X006989Y012667D01*
X007086Y012570D02*
X007327Y012570D01*
X007424Y012473D02*
X007183Y012473D01*
X007280Y012376D02*
X007521Y012376D01*
X007618Y012279D02*
X007377Y012279D01*
X007474Y012183D02*
X007714Y012183D01*
X007811Y012086D02*
X007571Y012086D01*
X007667Y011989D02*
X007889Y011989D01*
X007889Y011892D02*
X007714Y011892D01*
X007714Y011795D02*
X007889Y011795D01*
X007889Y011698D02*
X007714Y011698D01*
X007714Y011601D02*
X007889Y011601D01*
X007889Y011504D02*
X007714Y011504D01*
X007714Y011407D02*
X007889Y011407D01*
X007889Y011310D02*
X007714Y011310D01*
X007714Y011213D02*
X007889Y011213D01*
X007889Y011116D02*
X007714Y011116D01*
X007714Y011019D02*
X007889Y011019D01*
X007889Y010923D02*
X007714Y010923D01*
X007714Y010826D02*
X007889Y010826D01*
X007889Y010729D02*
X007714Y010729D01*
X007714Y010632D02*
X007889Y010632D01*
X007889Y010535D02*
X007714Y010535D01*
X007714Y010438D02*
X007889Y010438D01*
X007889Y010341D02*
X007714Y010341D01*
X007714Y010244D02*
X007889Y010244D01*
X007889Y010147D02*
X007714Y010147D01*
X007714Y010050D02*
X007928Y010050D01*
X008024Y009953D02*
X007784Y009953D01*
X007881Y009856D02*
X008121Y009856D01*
X008218Y009759D02*
X007977Y009759D01*
X008074Y009662D02*
X008315Y009662D01*
X008412Y009566D02*
X008171Y009566D01*
X008268Y009469D02*
X008509Y009469D01*
X008606Y009372D02*
X008365Y009372D01*
X008666Y009759D02*
X009917Y009759D01*
X009917Y009662D02*
X008763Y009662D01*
X008860Y009566D02*
X011127Y009566D01*
X011129Y009494D02*
X011266Y009632D01*
X011266Y009987D01*
X011266Y009987D01*
X011266Y009953D02*
X011266Y009953D01*
X011266Y009856D02*
X011266Y009856D01*
X011266Y009759D02*
X011266Y009759D01*
X011266Y009662D02*
X011266Y009662D01*
X011266Y009566D02*
X011266Y009566D01*
X011305Y009469D02*
X009773Y009469D01*
X009820Y009372D02*
X011305Y009372D01*
X011272Y009275D02*
X009820Y009275D01*
X009820Y009178D02*
X011223Y009178D01*
X011219Y009081D02*
X010470Y009081D01*
X010521Y008984D02*
X011255Y008984D01*
X011389Y008887D02*
X010526Y008887D01*
X010491Y008790D02*
X012191Y008790D01*
X012191Y008693D02*
X010364Y008693D01*
X009860Y008727D02*
X009860Y008648D01*
X009842Y008596D02*
X012191Y008596D01*
X012191Y008499D02*
X009820Y008499D01*
X009928Y008215D02*
X009731Y008136D01*
X009416Y008136D01*
X009416Y007939D02*
X010125Y007939D01*
X010282Y007782D01*
X010038Y007781D02*
X010038Y007733D01*
X010075Y007644D01*
X010144Y007575D01*
X010234Y007538D01*
X010331Y007538D01*
X010420Y007575D01*
X010489Y007644D01*
X010526Y007733D01*
X010526Y007830D01*
X010489Y007920D01*
X010451Y007958D01*
X012191Y007958D01*
X012191Y007015D01*
X010585Y007015D01*
X009936Y007015D01*
X009841Y006976D01*
X009820Y006955D01*
X009820Y007582D01*
X009831Y007592D01*
X009850Y007626D01*
X009860Y007664D01*
X009860Y007743D01*
X009860Y007781D01*
X010038Y007781D01*
X010042Y007724D02*
X009860Y007724D01*
X009860Y007743D02*
X009416Y007743D01*
X009860Y007743D01*
X009810Y007743D02*
X009416Y007743D01*
X009416Y007743D01*
X009416Y007546D02*
X008983Y007546D01*
X008786Y007743D01*
X008616Y007918D02*
X005511Y007918D01*
X005573Y007821D02*
X008554Y007821D01*
X008542Y007724D02*
X005585Y007724D01*
X005558Y007627D02*
X008570Y007627D01*
X008327Y007530D02*
X005467Y007530D01*
X005430Y008499D02*
X007411Y008499D01*
X007315Y008596D02*
X005551Y008596D01*
X005585Y008693D02*
X007218Y008693D01*
X007121Y008790D02*
X005579Y008790D01*
X005526Y008887D02*
X007024Y008887D01*
X006927Y008984D02*
X004929Y008984D01*
X004929Y008887D02*
X005156Y008887D01*
X005341Y008727D02*
X004150Y008727D01*
X004929Y008499D02*
X005252Y008499D01*
X004895Y009081D02*
X006830Y009081D01*
X008048Y010154D02*
X008048Y012073D01*
X005095Y015026D01*
X005255Y015090D02*
X007250Y015090D01*
X007250Y014993D02*
X005352Y014993D01*
X005449Y014896D02*
X007250Y014896D01*
X007250Y014800D02*
X005546Y014800D01*
X005643Y014703D02*
X007250Y014703D01*
X007250Y014606D02*
X005739Y014606D01*
X005836Y014509D02*
X007250Y014509D01*
X007250Y014412D02*
X005933Y014412D01*
X006030Y014315D02*
X007250Y014315D01*
X007254Y014218D02*
X006127Y014218D01*
X006224Y014121D02*
X007351Y014121D01*
X007448Y014024D02*
X006321Y014024D01*
X006418Y013927D02*
X007545Y013927D01*
X007642Y013830D02*
X006515Y013830D01*
X006612Y013733D02*
X007738Y013733D01*
X007835Y013636D02*
X006709Y013636D01*
X006806Y013539D02*
X007932Y013539D01*
X008029Y013443D02*
X006903Y013443D01*
X006999Y013346D02*
X008126Y013346D01*
X008223Y013249D02*
X007096Y013249D01*
X007193Y013152D02*
X008320Y013152D01*
X008417Y013055D02*
X007290Y013055D01*
X007387Y012958D02*
X008514Y012958D01*
X008611Y012861D02*
X007484Y012861D01*
X007581Y012764D02*
X008708Y012764D01*
X008805Y012667D02*
X007678Y012667D01*
X007775Y012570D02*
X008902Y012570D01*
X008999Y012473D02*
X007872Y012473D01*
X007969Y012376D02*
X009095Y012376D01*
X009192Y012279D02*
X008066Y012279D01*
X008163Y012183D02*
X009289Y012183D01*
X009386Y012086D02*
X008206Y012086D01*
X008206Y011989D02*
X009483Y011989D01*
X009580Y011892D02*
X008206Y011892D01*
X008206Y011795D02*
X009677Y011795D01*
X009774Y011698D02*
X008206Y011698D01*
X008206Y011601D02*
X009871Y011601D01*
X009927Y011504D02*
X008206Y011504D01*
X008206Y011407D02*
X009927Y011407D01*
X009927Y011310D02*
X008206Y011310D01*
X008206Y011213D02*
X009927Y011213D01*
X009927Y011116D02*
X008206Y011116D01*
X008206Y011019D02*
X009927Y011019D01*
X009927Y010923D02*
X008206Y010923D01*
X008206Y010826D02*
X009927Y010826D01*
X009927Y010729D02*
X008206Y010729D01*
X008206Y010632D02*
X009927Y010632D01*
X009927Y010535D02*
X008206Y010535D01*
X008206Y010438D02*
X009927Y010438D01*
X009927Y010341D02*
X008206Y010341D01*
X008206Y010244D02*
X009917Y010244D01*
X009917Y010147D02*
X008279Y010147D01*
X008376Y010050D02*
X009917Y010050D01*
X009917Y009953D02*
X008473Y009953D01*
X008569Y009856D02*
X009917Y009856D01*
X010085Y009987D02*
X010085Y011611D01*
X007408Y014288D01*
X007408Y015922D01*
X007793Y015963D02*
X008008Y015963D01*
X008008Y016060D02*
X007793Y016060D01*
X007793Y016156D02*
X008008Y016156D01*
X008008Y016253D02*
X007793Y016253D01*
X007793Y016350D02*
X008008Y016350D01*
X008008Y016447D02*
X007793Y016447D01*
X007793Y016544D02*
X008008Y016544D01*
X008012Y016641D02*
X007788Y016641D01*
X007793Y015866D02*
X008008Y015866D01*
X008008Y015769D02*
X007793Y015769D01*
X007793Y015672D02*
X008008Y015672D01*
X008008Y015575D02*
X007793Y015575D01*
X007793Y015478D02*
X008008Y015478D01*
X008008Y015381D02*
X007793Y015381D01*
X007793Y015284D02*
X008008Y015284D01*
X008027Y015187D02*
X007773Y015187D01*
X007566Y015090D02*
X008234Y015090D01*
X008234Y014993D02*
X007566Y014993D01*
X007566Y014896D02*
X008234Y014896D01*
X008234Y014800D02*
X007566Y014800D01*
X007566Y014703D02*
X008234Y014703D01*
X008234Y014606D02*
X007566Y014606D01*
X007566Y014509D02*
X008234Y014509D01*
X008234Y014412D02*
X007566Y014412D01*
X007605Y014315D02*
X008234Y014315D01*
X008238Y014218D02*
X007702Y014218D01*
X007799Y014121D02*
X008335Y014121D01*
X008432Y014024D02*
X007896Y014024D01*
X007993Y013927D02*
X008529Y013927D01*
X008626Y013830D02*
X008090Y013830D01*
X008187Y013733D02*
X008723Y013733D01*
X008820Y013636D02*
X008283Y013636D01*
X008380Y013539D02*
X008917Y013539D01*
X009014Y013443D02*
X008477Y013443D01*
X008574Y013346D02*
X009110Y013346D01*
X009207Y013249D02*
X008671Y013249D01*
X008768Y013152D02*
X009304Y013152D01*
X009401Y013055D02*
X008865Y013055D01*
X008962Y012958D02*
X009498Y012958D01*
X009595Y012861D02*
X009059Y012861D01*
X009156Y012764D02*
X009692Y012764D01*
X009789Y012667D02*
X009253Y012667D01*
X009350Y012570D02*
X009886Y012570D01*
X009983Y012473D02*
X009447Y012473D01*
X009544Y012376D02*
X010080Y012376D01*
X010124Y012279D02*
X009640Y012279D01*
X009737Y012183D02*
X010124Y012183D01*
X010124Y012086D02*
X009834Y012086D01*
X009931Y011989D02*
X010124Y011989D01*
X010124Y011892D02*
X010028Y011892D01*
X010282Y012398D02*
X008392Y014288D01*
X008392Y015922D01*
X008777Y015963D02*
X008992Y015963D01*
X008992Y016060D02*
X008777Y016060D01*
X008777Y016156D02*
X008992Y016156D01*
X008992Y016253D02*
X008777Y016253D01*
X008777Y016350D02*
X008992Y016350D01*
X008992Y016447D02*
X008777Y016447D01*
X008777Y016544D02*
X008992Y016544D01*
X008997Y016641D02*
X008772Y016641D01*
X008777Y015866D02*
X008992Y015866D01*
X008992Y015769D02*
X008777Y015769D01*
X008777Y015672D02*
X008992Y015672D01*
X008992Y015575D02*
X008777Y015575D01*
X008777Y015478D02*
X008992Y015478D01*
X008992Y015381D02*
X008777Y015381D01*
X008777Y015284D02*
X008992Y015284D01*
X009012Y015187D02*
X008757Y015187D01*
X008551Y015090D02*
X009218Y015090D01*
X009218Y014993D02*
X008551Y014993D01*
X008551Y014896D02*
X009218Y014896D01*
X009218Y014800D02*
X008551Y014800D01*
X008551Y014703D02*
X009218Y014703D01*
X009218Y014606D02*
X008551Y014606D01*
X008551Y014509D02*
X009218Y014509D01*
X009218Y014412D02*
X008551Y014412D01*
X008589Y014315D02*
X009218Y014315D01*
X009222Y014218D02*
X008686Y014218D01*
X008783Y014121D02*
X009319Y014121D01*
X009416Y014024D02*
X008880Y014024D01*
X008977Y013927D02*
X009513Y013927D01*
X009610Y013830D02*
X009074Y013830D01*
X009171Y013733D02*
X009707Y013733D01*
X009804Y013636D02*
X009268Y013636D01*
X009365Y013539D02*
X009901Y013539D01*
X009998Y013443D02*
X009462Y013443D01*
X009559Y013346D02*
X010095Y013346D01*
X010192Y013249D02*
X009655Y013249D01*
X009752Y013152D02*
X010289Y013152D01*
X010321Y013055D02*
X009849Y013055D01*
X009946Y012958D02*
X010321Y012958D01*
X010321Y012861D02*
X010043Y012861D01*
X010140Y012764D02*
X010321Y012764D01*
X010321Y012667D02*
X010237Y012667D01*
X010282Y012398D02*
X010282Y009987D01*
X010479Y009987D02*
X010479Y013185D01*
X009377Y014288D01*
X009377Y015922D01*
X009761Y015963D02*
X009976Y015963D01*
X009976Y016060D02*
X009761Y016060D01*
X009761Y016156D02*
X009976Y016156D01*
X009976Y016253D02*
X009761Y016253D01*
X009761Y016350D02*
X009976Y016350D01*
X009976Y016447D02*
X009761Y016447D01*
X009761Y016544D02*
X009976Y016544D01*
X009981Y016641D02*
X009756Y016641D01*
X009761Y015866D02*
X009976Y015866D01*
X009976Y015769D02*
X009761Y015769D01*
X009761Y015672D02*
X009976Y015672D01*
X009976Y015575D02*
X009761Y015575D01*
X009761Y015478D02*
X009976Y015478D01*
X009976Y015381D02*
X009761Y015381D01*
X009761Y015284D02*
X009976Y015284D01*
X009996Y015187D02*
X009741Y015187D01*
X009535Y015090D02*
X010202Y015090D01*
X010202Y014993D02*
X009535Y014993D01*
X009535Y014896D02*
X010202Y014896D01*
X010202Y014800D02*
X009535Y014800D01*
X009535Y014703D02*
X010202Y014703D01*
X010202Y014606D02*
X009535Y014606D01*
X009535Y014509D02*
X010202Y014509D01*
X010202Y014412D02*
X009535Y014412D01*
X009574Y014315D02*
X010202Y014315D01*
X010207Y014218D02*
X009670Y014218D01*
X009767Y014121D02*
X010304Y014121D01*
X010400Y014024D02*
X009864Y014024D01*
X009961Y013927D02*
X010497Y013927D01*
X010517Y013830D02*
X010058Y013830D01*
X010155Y013733D02*
X010517Y013733D01*
X010517Y013636D02*
X010252Y013636D01*
X010349Y013539D02*
X010517Y013539D01*
X010517Y013443D02*
X010446Y013443D01*
X010834Y013443D02*
X012687Y013443D01*
X012784Y013539D02*
X010834Y013539D01*
X010834Y013636D02*
X012881Y013636D01*
X012978Y013733D02*
X010834Y013733D01*
X010834Y013830D02*
X013075Y013830D01*
X013172Y013927D02*
X010834Y013927D01*
X010834Y014024D02*
X013269Y014024D01*
X013366Y014121D02*
X010752Y014121D01*
X010655Y014218D02*
X013463Y014218D01*
X013560Y014315D02*
X010558Y014315D01*
X010519Y014412D02*
X013656Y014412D01*
X013756Y014288D02*
X017201Y014288D01*
X017644Y014731D01*
X017644Y015922D01*
X017259Y016033D02*
X017219Y016183D01*
X017043Y016488D01*
X016794Y016738D01*
X016488Y016914D01*
X016147Y017005D01*
X015795Y017005D01*
X015454Y016914D01*
X015149Y016738D01*
X015052Y016641D02*
X014678Y016641D01*
X014683Y016544D02*
X014955Y016544D01*
X014876Y016447D02*
X014683Y016447D01*
X014683Y016350D02*
X014820Y016350D01*
X014764Y016253D02*
X014683Y016253D01*
X014683Y016156D02*
X014716Y016156D01*
X014690Y016060D02*
X014683Y016060D01*
X014298Y015922D02*
X014298Y014681D01*
X014125Y014509D02*
X013486Y014509D01*
X013452Y014474D02*
X013521Y014543D01*
X013558Y014633D01*
X013558Y014730D01*
X013521Y014820D01*
X013472Y014868D01*
X013472Y015143D01*
X013634Y015143D01*
X013698Y015207D01*
X013698Y016636D01*
X013634Y016700D01*
X012993Y016700D01*
X012929Y016636D01*
X012929Y015207D01*
X012993Y015143D01*
X013155Y015143D01*
X013155Y014868D01*
X013107Y014820D01*
X013069Y014730D01*
X013069Y014633D01*
X013107Y014543D01*
X013175Y014474D01*
X013265Y014437D01*
X013362Y014437D01*
X013452Y014474D01*
X013547Y014606D02*
X014065Y014606D01*
X014054Y014703D02*
X013558Y014703D01*
X013529Y014800D02*
X014082Y014800D01*
X014139Y014896D02*
X013472Y014896D01*
X013472Y014993D02*
X014139Y014993D01*
X014139Y015090D02*
X013472Y015090D01*
X013678Y015187D02*
X013933Y015187D01*
X013913Y015284D02*
X013698Y015284D01*
X013698Y015381D02*
X013913Y015381D01*
X013913Y015478D02*
X013698Y015478D01*
X013698Y015575D02*
X013913Y015575D01*
X013913Y015672D02*
X013698Y015672D01*
X013698Y015769D02*
X013913Y015769D01*
X013913Y015866D02*
X013698Y015866D01*
X013698Y015963D02*
X013913Y015963D01*
X013913Y016060D02*
X013698Y016060D01*
X013698Y016156D02*
X013913Y016156D01*
X013913Y016253D02*
X013698Y016253D01*
X013698Y016350D02*
X013913Y016350D01*
X013913Y016447D02*
X013698Y016447D01*
X013698Y016544D02*
X013913Y016544D01*
X013918Y016641D02*
X013693Y016641D01*
X012934Y016641D02*
X012709Y016641D01*
X012714Y016636D02*
X012650Y016700D01*
X012009Y016700D01*
X011945Y016636D01*
X011945Y015207D01*
X012009Y015143D01*
X012171Y015143D01*
X012171Y014868D01*
X012122Y014820D01*
X012085Y014730D01*
X012085Y014633D01*
X012122Y014543D01*
X012191Y014474D01*
X012281Y014437D01*
X012378Y014437D01*
X012468Y014474D01*
X012536Y014543D01*
X012574Y014633D01*
X012574Y014730D01*
X012536Y014820D01*
X012488Y014868D01*
X012488Y015143D01*
X012650Y015143D01*
X012714Y015207D01*
X012714Y016636D01*
X012714Y016544D02*
X012929Y016544D01*
X012929Y016447D02*
X012714Y016447D01*
X012714Y016350D02*
X012929Y016350D01*
X012929Y016253D02*
X012714Y016253D01*
X012714Y016156D02*
X012929Y016156D01*
X012929Y016060D02*
X012714Y016060D01*
X012714Y015963D02*
X012929Y015963D01*
X012929Y015866D02*
X012714Y015866D01*
X012714Y015769D02*
X012929Y015769D01*
X012929Y015672D02*
X012714Y015672D01*
X012714Y015575D02*
X012929Y015575D01*
X012929Y015478D02*
X012714Y015478D01*
X012714Y015381D02*
X012929Y015381D01*
X012929Y015284D02*
X012714Y015284D01*
X012694Y015187D02*
X012949Y015187D01*
X013155Y015090D02*
X012488Y015090D01*
X012488Y014993D02*
X013155Y014993D01*
X013155Y014896D02*
X012488Y014896D01*
X012545Y014800D02*
X013098Y014800D01*
X013069Y014703D02*
X012574Y014703D01*
X012562Y014606D02*
X013081Y014606D01*
X013141Y014509D02*
X012502Y014509D01*
X012329Y014681D02*
X012329Y015922D01*
X011945Y015963D02*
X011730Y015963D01*
X011730Y016060D02*
X011945Y016060D01*
X011945Y016156D02*
X011730Y016156D01*
X011730Y016253D02*
X011945Y016253D01*
X011945Y016350D02*
X011730Y016350D01*
X011730Y016447D02*
X011945Y016447D01*
X011945Y016544D02*
X011730Y016544D01*
X011730Y016636D02*
X011666Y016700D01*
X011024Y016700D01*
X010960Y016636D01*
X010960Y015207D01*
X011024Y015143D01*
X011187Y015143D01*
X011187Y014868D01*
X011138Y014820D01*
X011101Y014730D01*
X011101Y014633D01*
X011138Y014543D01*
X011207Y014474D01*
X011297Y014437D01*
X011394Y014437D01*
X011483Y014474D01*
X011552Y014543D01*
X011589Y014633D01*
X011589Y014730D01*
X011552Y014820D01*
X011504Y014868D01*
X011504Y015143D01*
X011666Y015143D01*
X011730Y015207D01*
X011730Y016636D01*
X011725Y016641D02*
X011949Y016641D01*
X011945Y015866D02*
X011730Y015866D01*
X011730Y015769D02*
X011945Y015769D01*
X011945Y015672D02*
X011730Y015672D01*
X011730Y015575D02*
X011945Y015575D01*
X011945Y015478D02*
X011730Y015478D01*
X011730Y015381D02*
X011945Y015381D01*
X011945Y015284D02*
X011730Y015284D01*
X011710Y015187D02*
X011964Y015187D01*
X012171Y015090D02*
X011504Y015090D01*
X011504Y014993D02*
X012171Y014993D01*
X012171Y014896D02*
X011504Y014896D01*
X011561Y014800D02*
X012114Y014800D01*
X012085Y014703D02*
X011589Y014703D01*
X011578Y014606D02*
X012096Y014606D01*
X012157Y014509D02*
X011518Y014509D01*
X011345Y014681D02*
X011345Y015922D01*
X010960Y015963D02*
X010746Y015963D01*
X010746Y016060D02*
X010960Y016060D01*
X010960Y016156D02*
X010746Y016156D01*
X010746Y016253D02*
X010960Y016253D01*
X010960Y016350D02*
X010746Y016350D01*
X010746Y016447D02*
X010960Y016447D01*
X010960Y016544D02*
X010746Y016544D01*
X010741Y016641D02*
X010965Y016641D01*
X010960Y015866D02*
X010746Y015866D01*
X010746Y015769D02*
X010960Y015769D01*
X010960Y015672D02*
X010746Y015672D01*
X010746Y015575D02*
X010960Y015575D01*
X010960Y015478D02*
X010746Y015478D01*
X010746Y015381D02*
X010960Y015381D01*
X010960Y015284D02*
X010746Y015284D01*
X010726Y015187D02*
X010980Y015187D01*
X011187Y015090D02*
X010519Y015090D01*
X010519Y014993D02*
X011187Y014993D01*
X011187Y014896D02*
X010519Y014896D01*
X010519Y014800D02*
X011130Y014800D01*
X011101Y014703D02*
X010519Y014703D01*
X010519Y014606D02*
X011112Y014606D01*
X011172Y014509D02*
X010519Y014509D01*
X010361Y014288D02*
X010361Y015922D01*
X010361Y014288D02*
X010676Y013973D01*
X010676Y009987D01*
X011266Y010050D02*
X011266Y010050D01*
X011266Y010147D02*
X011266Y010147D01*
X011266Y010244D02*
X011266Y010244D01*
X011266Y010341D02*
X011266Y010341D01*
X011502Y010438D02*
X010834Y010438D01*
X010834Y010535D02*
X011502Y010535D01*
X011502Y010632D02*
X010834Y010632D01*
X010834Y010729D02*
X011502Y010729D01*
X011502Y010826D02*
X010834Y010826D01*
X010834Y010923D02*
X011502Y010923D01*
X011502Y011019D02*
X010834Y011019D01*
X010834Y011116D02*
X011502Y011116D01*
X011502Y011213D02*
X010834Y011213D01*
X010834Y011310D02*
X011502Y011310D01*
X011502Y011407D02*
X010834Y011407D01*
X010834Y011504D02*
X011502Y011504D01*
X011502Y011601D02*
X010834Y011601D01*
X010834Y011698D02*
X011502Y011698D01*
X011502Y011795D02*
X010834Y011795D01*
X010834Y011892D02*
X011502Y011892D01*
X011502Y011989D02*
X010834Y011989D01*
X010834Y012086D02*
X011502Y012086D01*
X011502Y012183D02*
X010834Y012183D01*
X010834Y012279D02*
X011524Y012279D01*
X011621Y012376D02*
X010834Y012376D01*
X010834Y012473D02*
X011718Y012473D01*
X011815Y012570D02*
X010834Y012570D01*
X010834Y012667D02*
X011912Y012667D01*
X012009Y012764D02*
X010834Y012764D01*
X010834Y012861D02*
X012106Y012861D01*
X012203Y012958D02*
X010834Y012958D01*
X010834Y013055D02*
X012300Y013055D01*
X012396Y013152D02*
X010834Y013152D01*
X010834Y013249D02*
X012493Y013249D01*
X012590Y013346D02*
X010834Y013346D01*
X011972Y012279D02*
X012115Y012279D01*
X012069Y012376D02*
X012212Y012376D01*
X012166Y012473D02*
X012309Y012473D01*
X012263Y012570D02*
X012405Y012570D01*
X012360Y012667D02*
X012502Y012667D01*
X012457Y012764D02*
X012599Y012764D01*
X012554Y012861D02*
X012696Y012861D01*
X012651Y012958D02*
X012793Y012958D01*
X012748Y013055D02*
X012890Y013055D01*
X012845Y013152D02*
X012987Y013152D01*
X012941Y013249D02*
X013084Y013249D01*
X013038Y013346D02*
X013181Y013346D01*
X013135Y013443D02*
X013278Y013443D01*
X013232Y013539D02*
X013375Y013539D01*
X013329Y013636D02*
X013472Y013636D01*
X013426Y013733D02*
X013569Y013733D01*
X013523Y013830D02*
X013665Y013830D01*
X013620Y013927D02*
X013762Y013927D01*
X013717Y014024D02*
X013859Y014024D01*
X013844Y014009D02*
X011818Y011983D01*
X011818Y012126D01*
X013822Y014129D01*
X017267Y014129D01*
X017710Y014572D01*
X017803Y014665D01*
X017803Y015143D01*
X017965Y015143D01*
X018029Y015207D01*
X018029Y016636D01*
X017965Y016700D01*
X017323Y016700D01*
X017259Y016636D01*
X017259Y016033D01*
X017252Y016060D02*
X017259Y016060D01*
X017259Y016156D02*
X017226Y016156D01*
X017259Y016253D02*
X017179Y016253D01*
X017123Y016350D02*
X017259Y016350D01*
X017259Y016447D02*
X017067Y016447D01*
X016987Y016544D02*
X017259Y016544D01*
X017264Y016641D02*
X016890Y016641D01*
X016793Y016738D02*
X022071Y016738D01*
X022071Y016641D02*
X020977Y016641D01*
X020982Y016636D02*
X020918Y016700D01*
X020276Y016700D01*
X020212Y016636D01*
X020212Y015207D01*
X020276Y015143D01*
X020439Y015143D01*
X020439Y014796D01*
X019006Y013364D01*
X014380Y013364D01*
X014287Y013271D01*
X012212Y011196D01*
X012212Y011338D01*
X014265Y013391D01*
X018497Y013391D01*
X019678Y014572D01*
X019771Y014665D01*
X019771Y015143D01*
X019934Y015143D01*
X019998Y015207D01*
X019998Y016636D01*
X019934Y016700D01*
X019292Y016700D01*
X019228Y016636D01*
X019228Y015207D01*
X019292Y015143D01*
X019454Y015143D01*
X019454Y014796D01*
X018366Y013708D01*
X014134Y013708D01*
X014041Y013615D01*
X012015Y011590D01*
X012015Y011732D01*
X014068Y013785D01*
X017907Y013785D01*
X018694Y014572D01*
X018787Y014665D01*
X018787Y015143D01*
X018949Y015143D01*
X019013Y015207D01*
X019013Y016636D01*
X018949Y016700D01*
X018308Y016700D01*
X018244Y016636D01*
X018244Y015207D01*
X018308Y015143D01*
X018470Y015143D01*
X018470Y014796D01*
X017776Y014102D01*
X013937Y014102D01*
X013844Y014009D01*
X013814Y014121D02*
X017795Y014121D01*
X017892Y014218D02*
X017356Y014218D01*
X017453Y014315D02*
X017989Y014315D01*
X018086Y014412D02*
X017549Y014412D01*
X017646Y014509D02*
X018183Y014509D01*
X018279Y014606D02*
X017743Y014606D01*
X017803Y014703D02*
X018376Y014703D01*
X018470Y014800D02*
X017803Y014800D01*
X017803Y014896D02*
X018470Y014896D01*
X018470Y014993D02*
X017803Y014993D01*
X017803Y015090D02*
X018470Y015090D01*
X018264Y015187D02*
X018009Y015187D01*
X018029Y015284D02*
X018244Y015284D01*
X018244Y015381D02*
X018029Y015381D01*
X018029Y015478D02*
X018244Y015478D01*
X018244Y015575D02*
X018029Y015575D01*
X018029Y015672D02*
X018244Y015672D01*
X018244Y015769D02*
X018029Y015769D01*
X018029Y015866D02*
X018244Y015866D01*
X018244Y015963D02*
X018029Y015963D01*
X018029Y016060D02*
X018244Y016060D01*
X018244Y016156D02*
X018029Y016156D01*
X018029Y016253D02*
X018244Y016253D01*
X018244Y016350D02*
X018029Y016350D01*
X018029Y016447D02*
X018244Y016447D01*
X018244Y016544D02*
X018029Y016544D01*
X018024Y016641D02*
X018249Y016641D01*
X019008Y016641D02*
X019233Y016641D01*
X019228Y016544D02*
X019013Y016544D01*
X019013Y016447D02*
X019228Y016447D01*
X019228Y016350D02*
X019013Y016350D01*
X019013Y016253D02*
X019228Y016253D01*
X019228Y016156D02*
X019013Y016156D01*
X019013Y016060D02*
X019228Y016060D01*
X019228Y015963D02*
X019013Y015963D01*
X019013Y015866D02*
X019228Y015866D01*
X019228Y015769D02*
X019013Y015769D01*
X019013Y015672D02*
X019228Y015672D01*
X019228Y015575D02*
X019013Y015575D01*
X019013Y015478D02*
X019228Y015478D01*
X019228Y015381D02*
X019013Y015381D01*
X019013Y015284D02*
X019228Y015284D01*
X019248Y015187D02*
X018993Y015187D01*
X018787Y015090D02*
X019454Y015090D01*
X019454Y014993D02*
X018787Y014993D01*
X018787Y014896D02*
X019454Y014896D01*
X019454Y014800D02*
X018787Y014800D01*
X018787Y014703D02*
X019361Y014703D01*
X019264Y014606D02*
X018728Y014606D01*
X018631Y014509D02*
X019167Y014509D01*
X019070Y014412D02*
X018534Y014412D01*
X018437Y014315D02*
X018973Y014315D01*
X018876Y014218D02*
X018340Y014218D01*
X018243Y014121D02*
X018779Y014121D01*
X018682Y014024D02*
X018146Y014024D01*
X018049Y013927D02*
X018585Y013927D01*
X018488Y013830D02*
X017952Y013830D01*
X017841Y013943D02*
X018629Y014731D01*
X018629Y015922D01*
X019613Y015922D02*
X019613Y014731D01*
X018432Y013550D01*
X014199Y013550D01*
X012054Y011404D01*
X012054Y009987D01*
X012251Y009987D02*
X012251Y011010D01*
X014445Y013205D01*
X019071Y013205D01*
X020597Y014731D01*
X020597Y015922D01*
X020212Y015963D02*
X019998Y015963D01*
X019998Y016060D02*
X020212Y016060D01*
X020212Y016156D02*
X019998Y016156D01*
X019998Y016253D02*
X020212Y016253D01*
X020212Y016350D02*
X019998Y016350D01*
X019998Y016447D02*
X020212Y016447D01*
X020212Y016544D02*
X019998Y016544D01*
X019993Y016641D02*
X020217Y016641D01*
X020982Y016636D02*
X020982Y015207D01*
X020918Y015143D01*
X020755Y015143D01*
X020755Y014665D01*
X019230Y013139D01*
X019215Y013125D01*
X019288Y013155D01*
X019451Y013155D01*
X019601Y013093D01*
X019717Y012978D01*
X019779Y012827D01*
X019779Y012665D01*
X019717Y012514D01*
X019601Y012399D01*
X019451Y012337D01*
X019288Y012337D01*
X019138Y012399D01*
X019023Y012514D01*
X018960Y012665D01*
X018960Y012827D01*
X019023Y012978D01*
X019092Y013047D01*
X018648Y013047D01*
X018717Y012978D01*
X018779Y012827D01*
X018779Y012665D01*
X018717Y012514D01*
X018601Y012399D01*
X018451Y012337D01*
X018288Y012337D01*
X018138Y012399D01*
X018023Y012514D01*
X018013Y012538D01*
X017074Y012538D01*
X016559Y012023D01*
X016523Y011935D01*
X016454Y011866D01*
X016364Y011829D01*
X016267Y011829D01*
X016177Y011866D01*
X016109Y011935D01*
X016071Y012025D01*
X016071Y012122D01*
X016109Y012212D01*
X016177Y012280D01*
X016266Y012317D01*
X016781Y012832D01*
X016902Y012954D01*
X018013Y012954D01*
X018023Y012978D01*
X018092Y013047D01*
X014511Y013047D01*
X012409Y010945D01*
X012409Y010391D01*
X012483Y010391D01*
X012494Y010401D01*
X012528Y010421D01*
X012566Y010431D01*
X012644Y010431D01*
X012644Y009987D01*
X012644Y009987D01*
X012644Y010431D01*
X012683Y010431D01*
X012683Y010879D01*
X013611Y011807D01*
X013611Y011876D01*
X013648Y011965D01*
X013717Y012034D01*
X013806Y012071D01*
X013903Y012071D01*
X013993Y012034D01*
X014062Y011965D01*
X014099Y011876D01*
X014099Y011779D01*
X014062Y011689D01*
X013993Y011620D01*
X013903Y011583D01*
X013835Y011583D01*
X013000Y010748D01*
X013000Y010391D01*
X013468Y010391D01*
X013478Y010401D01*
X013512Y010421D01*
X013550Y010431D01*
X013629Y010431D01*
X013629Y009987D01*
X013629Y009987D01*
X013629Y010431D01*
X013707Y010431D01*
X013745Y010421D01*
X013779Y010401D01*
X013789Y010391D01*
X013864Y010391D01*
X013864Y010731D01*
X014730Y011598D01*
X014823Y011690D01*
X017628Y011690D01*
X017781Y011844D01*
X017874Y011936D01*
X017960Y011936D01*
X017960Y012091D01*
X018024Y012155D01*
X018715Y012155D01*
X018779Y012091D01*
X018779Y011401D01*
X018715Y011337D01*
X018024Y011337D01*
X017960Y011401D01*
X017960Y011575D01*
X017759Y011373D01*
X014954Y011373D01*
X014877Y011297D01*
X018944Y011297D01*
X019095Y011442D01*
X019023Y011514D01*
X018960Y011665D01*
X018960Y011827D01*
X019023Y011978D01*
X019138Y012093D01*
X019288Y012155D01*
X019451Y012155D01*
X019601Y012093D01*
X019717Y011978D01*
X019779Y011827D01*
X019779Y011665D01*
X019717Y011514D01*
X019601Y011399D01*
X019451Y011337D01*
X019444Y011337D01*
X019431Y011324D01*
X019430Y011324D01*
X019119Y011025D01*
X019074Y010980D01*
X019072Y010980D01*
X019070Y010978D01*
X019006Y010980D01*
X014856Y010980D01*
X014828Y010952D01*
X019352Y010952D01*
X019991Y011591D01*
X019960Y011665D01*
X019960Y011827D01*
X020023Y011978D01*
X020138Y012093D01*
X020288Y012155D01*
X020451Y012155D01*
X020601Y012093D01*
X020717Y011978D01*
X020779Y011827D01*
X020779Y011665D01*
X020717Y011514D01*
X020601Y011399D01*
X020451Y011337D01*
X020288Y011337D01*
X020215Y011367D01*
X019483Y010635D01*
X014806Y010635D01*
X014730Y010558D01*
X019958Y010558D01*
X020991Y011591D01*
X020960Y011665D01*
X020960Y011827D01*
X021023Y011978D01*
X021138Y012093D01*
X021288Y012155D01*
X021451Y012155D01*
X021601Y012093D01*
X021717Y011978D01*
X021779Y011827D01*
X021779Y011665D01*
X021717Y011514D01*
X021601Y011399D01*
X021451Y011337D01*
X021288Y011337D01*
X021215Y011367D01*
X020089Y010242D01*
X019315Y010242D01*
X019394Y010163D01*
X019446Y010036D01*
X019446Y009898D01*
X019394Y009771D01*
X019297Y009674D01*
X019170Y009621D01*
X018560Y009621D01*
X018433Y009674D01*
X018336Y009771D01*
X018283Y009898D01*
X018283Y010036D01*
X018336Y010163D01*
X018415Y010242D01*
X015657Y010242D01*
X015738Y010160D01*
X015785Y010047D01*
X015785Y009926D01*
X015738Y009813D01*
X015652Y009727D01*
X015540Y009681D01*
X015418Y009681D01*
X015306Y009727D01*
X015219Y009813D01*
X015173Y009926D01*
X015173Y010047D01*
X015219Y010160D01*
X015301Y010242D01*
X014978Y010242D01*
X014978Y009646D01*
X014914Y009582D01*
X013984Y009582D01*
X013984Y009307D01*
X014032Y009259D01*
X014070Y009169D01*
X014070Y009072D01*
X014032Y008982D01*
X013964Y008913D01*
X013874Y008876D01*
X013777Y008876D01*
X013687Y008913D01*
X013618Y008982D01*
X013581Y009072D01*
X013581Y009169D01*
X013618Y009259D01*
X013667Y009307D01*
X013667Y009542D01*
X013629Y009542D01*
X013629Y009987D01*
X013629Y009554D01*
X013569Y009494D01*
X013550Y009542D02*
X013629Y009542D01*
X013629Y009987D01*
X013629Y009987D01*
X013629Y009953D02*
X013629Y009953D01*
X013629Y009856D02*
X013629Y009856D01*
X013629Y009759D02*
X013629Y009759D01*
X013629Y009662D02*
X013629Y009662D01*
X013629Y009566D02*
X013629Y009566D01*
X013550Y009542D02*
X013512Y009552D01*
X013478Y009572D01*
X013468Y009582D01*
X012805Y009582D01*
X012795Y009572D01*
X012761Y009552D01*
X012723Y009542D01*
X012698Y009542D01*
X012704Y009526D01*
X012704Y007015D01*
X015018Y007015D01*
X015034Y007008D01*
X015034Y007034D01*
X015045Y007072D01*
X015064Y007106D01*
X015074Y007116D01*
X015074Y007385D01*
X015064Y007395D01*
X015045Y007429D01*
X015034Y007467D01*
X015034Y007546D01*
X015479Y007546D01*
X014987Y007546D01*
X014987Y007152D01*
X014987Y007132D02*
X015164Y006955D01*
X015479Y006955D01*
X015479Y006955D01*
X015923Y006955D01*
X015923Y006876D01*
X015913Y006838D01*
X015894Y006804D01*
X015883Y006794D01*
X015883Y006260D01*
X015883Y006129D01*
X017156Y006129D01*
X017156Y006370D01*
X017189Y006403D01*
X016545Y006403D01*
X015955Y006994D01*
X015923Y006994D01*
X015923Y006955D01*
X015479Y006955D01*
X015134Y006955D01*
X015134Y006955D01*
X015479Y006955D01*
X015479Y006955D01*
X015479Y006758D02*
X014967Y006758D01*
X015074Y006525D02*
X015074Y005935D01*
X015064Y005925D01*
X015045Y005891D01*
X015034Y005853D01*
X015034Y005774D01*
X015034Y005736D01*
X014800Y005736D01*
X014751Y005784D01*
X014661Y005821D01*
X014564Y005821D01*
X014474Y005784D01*
X014406Y005715D01*
X014369Y005626D01*
X014369Y005529D01*
X014406Y005439D01*
X014474Y005370D01*
X014564Y005333D01*
X014661Y005333D01*
X014751Y005370D01*
X014800Y005419D01*
X015074Y005419D01*
X015074Y005344D01*
X015064Y005334D01*
X015045Y005300D01*
X015034Y005262D01*
X015034Y005183D01*
X015034Y005105D01*
X015045Y005067D01*
X015064Y005033D01*
X015074Y005023D01*
X015074Y004489D01*
X015138Y004425D01*
X015819Y004425D01*
X015883Y004489D01*
X015883Y005023D01*
X015894Y005033D01*
X015913Y005067D01*
X015923Y005105D01*
X015923Y005183D01*
X015479Y005183D01*
X015479Y005183D01*
X015034Y005183D01*
X015479Y005183D01*
X015479Y005183D01*
X014987Y005183D01*
X015034Y005204D02*
X012704Y005204D01*
X012704Y005301D02*
X015045Y005301D01*
X015074Y005398D02*
X014779Y005398D01*
X014613Y005577D02*
X015479Y005577D01*
X015479Y005774D02*
X015479Y005774D01*
X015923Y005774D01*
X015923Y005695D01*
X015913Y005657D01*
X015894Y005623D01*
X015883Y005613D01*
X015883Y005344D01*
X015894Y005334D01*
X015913Y005300D01*
X015923Y005262D01*
X015923Y005183D01*
X015479Y005183D01*
X015883Y005010D02*
X017225Y005010D01*
X017225Y004913D02*
X015883Y004913D01*
X015883Y004816D02*
X017225Y004816D01*
X017225Y004719D02*
X015883Y004719D01*
X015883Y004622D02*
X017225Y004622D01*
X017225Y004525D02*
X015883Y004525D01*
X015823Y004428D02*
X017225Y004428D01*
X017225Y004332D02*
X013983Y004332D01*
X013986Y004328D02*
X013976Y004338D01*
X013942Y004358D01*
X013904Y004368D01*
X013825Y004368D01*
X013787Y004368D01*
X013787Y004603D01*
X013836Y004651D01*
X013873Y004741D01*
X013873Y004838D01*
X013836Y004928D01*
X013767Y004997D01*
X013677Y005034D01*
X013580Y005034D01*
X013490Y004997D01*
X013422Y004928D01*
X013384Y004838D01*
X013384Y004741D01*
X013422Y004651D01*
X013470Y004603D01*
X013470Y004328D01*
X012805Y004328D01*
X012795Y004338D01*
X012761Y004358D01*
X012723Y004368D01*
X012698Y004368D01*
X012704Y004384D01*
X012704Y006501D01*
X015018Y006501D01*
X015074Y006525D01*
X015074Y006464D02*
X012704Y006464D01*
X012704Y006367D02*
X015074Y006367D01*
X015074Y006270D02*
X012704Y006270D01*
X012704Y006173D02*
X015074Y006173D01*
X015074Y006076D02*
X012704Y006076D01*
X012704Y005979D02*
X015074Y005979D01*
X015042Y005882D02*
X012704Y005882D01*
X012704Y005785D02*
X014477Y005785D01*
X014395Y005689D02*
X012704Y005689D01*
X012704Y005592D02*
X014369Y005592D01*
X014383Y005495D02*
X012704Y005495D01*
X012704Y005398D02*
X014447Y005398D01*
X014748Y005785D02*
X015034Y005785D01*
X015034Y005774D02*
X015479Y005774D01*
X015923Y005774D01*
X015923Y005812D01*
X017156Y005812D01*
X017156Y005493D01*
X017220Y005429D01*
X017225Y005429D01*
X017225Y003915D01*
X017220Y003915D01*
X017156Y003851D01*
X017156Y002973D01*
X017220Y002909D01*
X017744Y002909D01*
X017808Y002973D01*
X017808Y003851D01*
X017744Y003915D01*
X017739Y003915D01*
X017739Y005429D01*
X017744Y005429D01*
X017808Y005493D01*
X017808Y006370D01*
X017775Y006403D01*
X018595Y006403D01*
X018583Y006383D01*
X018573Y006345D01*
X018573Y005981D01*
X018890Y005981D01*
X018890Y005882D01*
X018988Y005882D01*
X018988Y005389D01*
X019175Y005389D01*
X019213Y005399D01*
X019247Y005418D01*
X019275Y005446D01*
X019294Y005480D01*
X019305Y005518D01*
X019305Y005882D01*
X018988Y005882D01*
X018988Y005981D01*
X019305Y005981D01*
X019305Y006345D01*
X019294Y006383D01*
X019283Y006403D01*
X019851Y006403D01*
X019819Y006370D01*
X019819Y005493D01*
X019883Y005429D01*
X019888Y005429D01*
X019888Y003915D01*
X019883Y003915D01*
X019819Y003851D01*
X019819Y002973D01*
X019883Y002909D01*
X020406Y002909D01*
X020470Y002973D01*
X020470Y003851D01*
X020406Y003915D01*
X020402Y003915D01*
X020402Y005429D01*
X020406Y005429D01*
X020470Y005493D01*
X020470Y006370D01*
X020406Y006434D01*
X020366Y006434D01*
X020398Y006513D01*
X020398Y006610D01*
X020361Y006700D01*
X020292Y006768D01*
X020203Y006806D01*
X020106Y006806D01*
X020016Y006768D01*
X019967Y006720D01*
X016676Y006720D01*
X016086Y007310D01*
X015883Y007310D01*
X015883Y007385D01*
X015894Y007395D01*
X015913Y007429D01*
X015923Y007467D01*
X015923Y007546D01*
X015479Y007546D01*
X015479Y007743D02*
X016020Y007743D01*
X016365Y007398D01*
X017054Y007398D01*
X017240Y007239D02*
X018315Y007239D01*
X018336Y007289D02*
X018283Y007162D01*
X018283Y007024D01*
X018336Y006897D01*
X018433Y006800D01*
X018560Y006747D01*
X019170Y006747D01*
X019297Y006800D01*
X019394Y006897D01*
X019446Y007024D01*
X019446Y007162D01*
X019394Y007289D01*
X019297Y007386D01*
X019170Y007438D01*
X018560Y007438D01*
X018433Y007386D01*
X018336Y007289D01*
X018383Y007336D02*
X017292Y007336D01*
X017298Y007433D02*
X018547Y007433D01*
X018283Y007142D02*
X016254Y007142D01*
X016351Y007045D02*
X018283Y007045D01*
X018314Y006949D02*
X016448Y006949D01*
X016545Y006852D02*
X018381Y006852D01*
X018542Y006755D02*
X016642Y006755D01*
X016611Y006561D02*
X016020Y007152D01*
X015479Y007152D01*
X015074Y007142D02*
X012704Y007142D01*
X012704Y007045D02*
X015038Y007045D01*
X015074Y007239D02*
X012704Y007239D01*
X012704Y007336D02*
X015074Y007336D01*
X015044Y007433D02*
X012704Y007433D01*
X012704Y007530D02*
X015034Y007530D01*
X015035Y007627D02*
X012704Y007627D01*
X012704Y007724D02*
X014495Y007724D01*
X014398Y007821D02*
X012704Y007821D01*
X012704Y007918D02*
X014369Y007918D01*
X014380Y008015D02*
X012704Y008015D01*
X012704Y008112D02*
X014440Y008112D01*
X014731Y007724D02*
X015074Y007724D01*
X015074Y008402D02*
X012704Y008402D01*
X012704Y008499D02*
X015074Y008499D01*
X015074Y008596D02*
X012704Y008596D01*
X012704Y008693D02*
X015074Y008693D01*
X015074Y008790D02*
X012704Y008790D01*
X012704Y008887D02*
X013751Y008887D01*
X013900Y008887D02*
X015074Y008887D01*
X015074Y008984D02*
X014033Y008984D01*
X014070Y009081D02*
X015074Y009081D01*
X015074Y009178D02*
X014066Y009178D01*
X014016Y009275D02*
X015074Y009275D01*
X015074Y009372D02*
X013984Y009372D01*
X013984Y009469D02*
X015121Y009469D01*
X014978Y009662D02*
X018461Y009662D01*
X018348Y009759D02*
X015685Y009759D01*
X015756Y009856D02*
X018300Y009856D01*
X018283Y009953D02*
X015785Y009953D01*
X015784Y010050D02*
X018289Y010050D01*
X018329Y010147D02*
X015744Y010147D01*
X015214Y010147D02*
X014978Y010147D01*
X014978Y010050D02*
X015174Y010050D01*
X015173Y009953D02*
X014978Y009953D01*
X014978Y009856D02*
X015202Y009856D01*
X015273Y009759D02*
X014978Y009759D01*
X014613Y009987D02*
X014613Y010321D01*
X014692Y010400D01*
X020024Y010400D01*
X021370Y011746D01*
X021752Y011892D02*
X022071Y011892D01*
X022071Y011989D02*
X021706Y011989D01*
X021609Y012086D02*
X022071Y012086D01*
X022071Y012183D02*
X016719Y012183D01*
X016815Y012279D02*
X022071Y012279D01*
X022071Y012376D02*
X021625Y012376D01*
X021605Y012362D02*
X021662Y012403D01*
X021712Y012453D01*
X021754Y012511D01*
X021786Y012574D01*
X021808Y012641D01*
X021817Y012697D01*
X021419Y012697D01*
X021419Y012795D01*
X021817Y012795D01*
X021808Y012851D01*
X021786Y012918D01*
X021754Y012981D01*
X021712Y013039D01*
X021662Y013089D01*
X021605Y013130D01*
X021542Y013162D01*
X021475Y013184D01*
X021419Y013193D01*
X021419Y012795D01*
X021320Y012795D01*
X021320Y012697D01*
X020923Y012697D01*
X020931Y012641D01*
X020953Y012574D01*
X020985Y012511D01*
X021027Y012453D01*
X021077Y012403D01*
X021134Y012362D01*
X021197Y012330D01*
X021264Y012308D01*
X021320Y012299D01*
X021320Y012697D01*
X021419Y012697D01*
X021419Y012299D01*
X021475Y012308D01*
X021542Y012330D01*
X021605Y012362D01*
X021727Y012473D02*
X022071Y012473D01*
X022071Y012570D02*
X021784Y012570D01*
X021812Y012667D02*
X022071Y012667D01*
X022071Y012764D02*
X021419Y012764D01*
X021419Y012667D02*
X021320Y012667D01*
X021320Y012570D02*
X021419Y012570D01*
X021419Y012473D02*
X021320Y012473D01*
X021320Y012376D02*
X021419Y012376D01*
X021114Y012376D02*
X020625Y012376D01*
X020605Y012362D02*
X020662Y012403D01*
X020712Y012453D01*
X020754Y012511D01*
X020786Y012574D01*
X020808Y012641D01*
X020817Y012697D01*
X020419Y012697D01*
X020419Y012795D01*
X020817Y012795D01*
X020808Y012851D01*
X020786Y012918D01*
X020754Y012981D01*
X020712Y013039D01*
X020662Y013089D01*
X020605Y013130D01*
X020542Y013162D01*
X020475Y013184D01*
X020419Y013193D01*
X020419Y012795D01*
X020320Y012795D01*
X020320Y012697D01*
X019923Y012697D01*
X019931Y012641D01*
X019953Y012574D01*
X019985Y012511D01*
X020027Y012453D01*
X020077Y012403D01*
X020134Y012362D01*
X020197Y012330D01*
X020264Y012308D01*
X020320Y012299D01*
X020320Y012697D01*
X020419Y012697D01*
X020419Y012299D01*
X020475Y012308D01*
X020542Y012330D01*
X020605Y012362D01*
X020727Y012473D02*
X021012Y012473D01*
X020955Y012570D02*
X020784Y012570D01*
X020812Y012667D02*
X020927Y012667D01*
X020923Y012795D02*
X021320Y012795D01*
X021320Y013193D01*
X021264Y013184D01*
X021197Y013162D01*
X021134Y013130D01*
X021077Y013089D01*
X021027Y013039D01*
X020985Y012981D01*
X020953Y012918D01*
X020931Y012851D01*
X020923Y012795D01*
X020935Y012861D02*
X020805Y012861D01*
X020766Y012958D02*
X020973Y012958D01*
X021043Y013055D02*
X020696Y013055D01*
X020563Y013152D02*
X021177Y013152D01*
X021320Y013152D02*
X021419Y013152D01*
X021419Y013055D02*
X021320Y013055D01*
X021320Y012958D02*
X021419Y012958D01*
X021419Y012861D02*
X021320Y012861D01*
X021320Y012764D02*
X020419Y012764D01*
X020419Y012667D02*
X020320Y012667D01*
X020320Y012570D02*
X020419Y012570D01*
X020419Y012473D02*
X020320Y012473D01*
X020320Y012376D02*
X020419Y012376D01*
X020609Y012086D02*
X021131Y012086D01*
X021034Y011989D02*
X020706Y011989D01*
X020752Y011892D02*
X020987Y011892D01*
X020960Y011795D02*
X020779Y011795D01*
X020779Y011698D02*
X020960Y011698D01*
X020987Y011601D02*
X020753Y011601D01*
X020706Y011504D02*
X020904Y011504D01*
X020807Y011407D02*
X020610Y011407D01*
X020710Y011310D02*
X020158Y011310D01*
X020061Y011213D02*
X020613Y011213D01*
X020516Y011116D02*
X019964Y011116D01*
X019867Y011019D02*
X020419Y011019D01*
X020322Y010923D02*
X019770Y010923D01*
X019673Y010826D02*
X020225Y010826D01*
X020128Y010729D02*
X019576Y010729D01*
X019417Y010794D02*
X020370Y011746D01*
X019987Y011892D02*
X019752Y011892D01*
X019779Y011795D02*
X019960Y011795D01*
X019960Y011698D02*
X019779Y011698D01*
X019753Y011601D02*
X019987Y011601D01*
X019904Y011504D02*
X019706Y011504D01*
X019610Y011407D02*
X019807Y011407D01*
X019710Y011310D02*
X019416Y011310D01*
X019315Y011213D02*
X019613Y011213D01*
X019516Y011116D02*
X019214Y011116D01*
X019113Y011019D02*
X019419Y011019D01*
X019417Y010794D02*
X014741Y010794D01*
X014416Y010469D01*
X014416Y009987D01*
X014219Y009987D02*
X014219Y010567D01*
X014790Y011138D01*
X019008Y011138D01*
X019367Y011483D01*
X019370Y011746D01*
X019706Y011989D02*
X020034Y011989D01*
X020131Y012086D02*
X019609Y012086D01*
X019547Y012376D02*
X020114Y012376D01*
X020012Y012473D02*
X019676Y012473D01*
X019740Y012570D02*
X019955Y012570D01*
X019927Y012667D02*
X019779Y012667D01*
X019779Y012764D02*
X020320Y012764D01*
X020320Y012795D02*
X019923Y012795D01*
X019931Y012851D01*
X019953Y012918D01*
X019985Y012981D01*
X020027Y013039D01*
X020077Y013089D01*
X020134Y013130D01*
X020197Y013162D01*
X020264Y013184D01*
X020320Y013193D01*
X020320Y012795D01*
X020320Y012861D02*
X020419Y012861D01*
X020419Y012958D02*
X020320Y012958D01*
X020320Y013055D02*
X020419Y013055D01*
X020419Y013152D02*
X020320Y013152D01*
X020177Y013152D02*
X019459Y013152D01*
X019339Y013249D02*
X022071Y013249D01*
X022071Y013346D02*
X019436Y013346D01*
X019533Y013443D02*
X022071Y013443D01*
X022071Y013539D02*
X019630Y013539D01*
X019727Y013636D02*
X022071Y013636D01*
X022071Y013733D02*
X019824Y013733D01*
X019921Y013830D02*
X022071Y013830D01*
X022071Y013927D02*
X020018Y013927D01*
X020115Y014024D02*
X022071Y014024D01*
X022071Y014121D02*
X020211Y014121D01*
X020308Y014218D02*
X022071Y014218D01*
X022071Y014315D02*
X020405Y014315D01*
X020502Y014412D02*
X022071Y014412D01*
X022071Y014509D02*
X020599Y014509D01*
X020696Y014606D02*
X022071Y014606D01*
X022071Y014703D02*
X020755Y014703D01*
X020755Y014800D02*
X022071Y014800D01*
X022071Y014896D02*
X020755Y014896D01*
X020755Y014993D02*
X022071Y014993D01*
X022071Y015090D02*
X020755Y015090D01*
X020962Y015187D02*
X022071Y015187D01*
X022071Y015284D02*
X020982Y015284D01*
X020982Y015381D02*
X022071Y015381D01*
X022071Y015478D02*
X020982Y015478D01*
X020982Y015575D02*
X022071Y015575D01*
X022071Y015672D02*
X020982Y015672D01*
X020982Y015769D02*
X022071Y015769D01*
X022071Y015866D02*
X020982Y015866D01*
X020982Y015963D02*
X022071Y015963D01*
X022071Y016060D02*
X020982Y016060D01*
X020982Y016156D02*
X022071Y016156D01*
X022071Y016253D02*
X020982Y016253D01*
X020982Y016350D02*
X022071Y016350D01*
X022071Y016447D02*
X020982Y016447D01*
X020982Y016544D02*
X022071Y016544D01*
X022071Y016835D02*
X016625Y016835D01*
X016421Y016932D02*
X022071Y016932D01*
X022071Y017029D02*
X000422Y017029D01*
X000422Y017126D02*
X022071Y017126D01*
X022071Y017223D02*
X004385Y017223D01*
X004307Y017190D02*
X004471Y017258D01*
X004595Y017383D01*
X004663Y017546D01*
X004663Y017723D01*
X004595Y017886D01*
X004471Y018011D01*
X004307Y018078D01*
X004131Y018078D01*
X003968Y018011D01*
X003843Y017886D01*
X003775Y017723D01*
X003775Y017546D01*
X003843Y017383D01*
X003968Y017258D01*
X004131Y017190D01*
X004307Y017190D01*
X004053Y017223D02*
X000422Y017223D01*
X000422Y017320D02*
X001125Y017320D01*
X000856Y017417D02*
X000422Y017417D01*
X000422Y017513D02*
X000688Y017513D01*
X000567Y017610D02*
X000422Y017610D01*
X000422Y017707D02*
X000470Y017707D01*
X000422Y016932D02*
X015521Y016932D01*
X015317Y016835D02*
X000422Y016835D01*
X001781Y017320D02*
X003906Y017320D01*
X003829Y017417D02*
X002050Y017417D01*
X002218Y017513D02*
X003789Y017513D01*
X003775Y017610D02*
X002340Y017610D01*
X002437Y017707D02*
X003775Y017707D01*
X003809Y017804D02*
X002530Y017804D01*
X002586Y017901D02*
X003858Y017901D01*
X003955Y017998D02*
X002642Y017998D01*
X002698Y018095D02*
X005822Y018095D01*
X005822Y018192D02*
X002726Y018192D01*
X002752Y018289D02*
X005822Y018289D01*
X005822Y018386D02*
X002778Y018386D01*
X002793Y018483D02*
X005822Y018483D01*
X005822Y018580D02*
X004436Y018580D01*
X004405Y018564D02*
X004473Y018598D01*
X004534Y018643D01*
X004588Y018697D01*
X004633Y018759D01*
X004668Y018826D01*
X004691Y018899D01*
X004701Y018963D01*
X004268Y018963D01*
X004268Y018530D01*
X004332Y018540D01*
X004405Y018564D01*
X004268Y018580D02*
X004170Y018580D01*
X004170Y018530D02*
X004170Y018963D01*
X004268Y018963D01*
X004268Y019061D01*
X004701Y019061D01*
X004691Y019126D01*
X004668Y019198D01*
X004633Y019266D01*
X004588Y019327D01*
X004534Y019381D01*
X004473Y019426D01*
X004405Y019461D01*
X004332Y019484D01*
X004268Y019494D01*
X004268Y019061D01*
X004170Y019061D01*
X004170Y018963D01*
X003737Y018963D01*
X003747Y018899D01*
X003771Y018826D01*
X003805Y018759D01*
X003850Y018697D01*
X003904Y018643D01*
X003965Y018598D01*
X004033Y018564D01*
X004106Y018540D01*
X004170Y018530D01*
X004170Y018677D02*
X004268Y018677D01*
X004268Y018773D02*
X004170Y018773D01*
X004170Y018870D02*
X004268Y018870D01*
X004268Y018967D02*
X005822Y018967D01*
X005822Y018870D02*
X004682Y018870D01*
X004640Y018773D02*
X005822Y018773D01*
X005822Y018677D02*
X004568Y018677D01*
X004701Y019064D02*
X005822Y019064D01*
X005822Y019161D02*
X004679Y019161D01*
X004637Y019258D02*
X005822Y019258D01*
X005822Y019355D02*
X004561Y019355D01*
X004422Y019452D02*
X005822Y019452D01*
X005822Y019549D02*
X002417Y019549D01*
X002320Y019646D02*
X005822Y019646D01*
X006946Y019646D02*
X014759Y019646D01*
X014759Y019549D02*
X006946Y019549D01*
X006946Y019452D02*
X014759Y019452D01*
X014759Y019355D02*
X006946Y019355D01*
X006946Y019258D02*
X014759Y019258D01*
X014759Y019161D02*
X006946Y019161D01*
X006946Y019064D02*
X014759Y019064D01*
X014759Y018967D02*
X006946Y018967D01*
X006946Y018870D02*
X014759Y018870D01*
X014759Y018773D02*
X006946Y018773D01*
X006946Y018677D02*
X014759Y018677D01*
X014759Y018580D02*
X006946Y018580D01*
X006946Y018483D02*
X014759Y018483D01*
X014759Y018386D02*
X006946Y018386D01*
X006946Y018289D02*
X014759Y018289D01*
X014759Y018192D02*
X006946Y018192D01*
X006946Y018095D02*
X014759Y018095D01*
X014759Y017998D02*
X006946Y017998D01*
X006946Y017901D02*
X014759Y017901D01*
X014759Y017804D02*
X006946Y017804D01*
X006946Y017707D02*
X014759Y017707D01*
X014759Y017610D02*
X006946Y017610D01*
X006946Y017513D02*
X014759Y017513D01*
X014759Y017417D02*
X006946Y017417D01*
X006894Y017320D02*
X014812Y017320D01*
X015831Y017320D02*
X016112Y017320D01*
X016059Y017417D02*
X015883Y017417D01*
X015883Y017513D02*
X016059Y017513D01*
X016059Y017610D02*
X015883Y017610D01*
X015883Y017707D02*
X016059Y017707D01*
X016059Y017804D02*
X015883Y017804D01*
X015883Y017901D02*
X016059Y017901D01*
X016059Y017998D02*
X015883Y017998D01*
X015883Y018095D02*
X016059Y018095D01*
X016059Y018192D02*
X015883Y018192D01*
X015883Y018289D02*
X016059Y018289D01*
X016059Y018386D02*
X015883Y018386D01*
X015883Y018483D02*
X016059Y018483D01*
X016059Y018580D02*
X015883Y018580D01*
X015883Y018677D02*
X016059Y018677D01*
X016059Y018773D02*
X015883Y018773D01*
X015883Y018870D02*
X016059Y018870D01*
X016059Y018967D02*
X015883Y018967D01*
X015883Y019064D02*
X016059Y019064D01*
X016059Y019161D02*
X015883Y019161D01*
X015883Y019258D02*
X016059Y019258D01*
X016059Y019355D02*
X015883Y019355D01*
X015883Y019452D02*
X016059Y019452D01*
X016059Y019549D02*
X015883Y019549D01*
X015883Y019646D02*
X016059Y019646D01*
X017183Y019646D02*
X021059Y019646D01*
X021059Y019549D02*
X017183Y019549D01*
X017183Y019452D02*
X021059Y019452D01*
X021059Y019355D02*
X017183Y019355D01*
X017183Y019258D02*
X021059Y019258D01*
X021059Y019161D02*
X017183Y019161D01*
X017183Y019064D02*
X021059Y019064D01*
X021059Y018967D02*
X017183Y018967D01*
X017183Y018870D02*
X021059Y018870D01*
X021059Y018773D02*
X017183Y018773D01*
X017183Y018677D02*
X021059Y018677D01*
X021059Y018580D02*
X017183Y018580D01*
X017183Y018483D02*
X021059Y018483D01*
X021059Y018386D02*
X017183Y018386D01*
X017183Y018289D02*
X021059Y018289D01*
X021059Y018192D02*
X017183Y018192D01*
X017183Y018095D02*
X021059Y018095D01*
X021059Y017998D02*
X017183Y017998D01*
X017183Y017901D02*
X021059Y017901D01*
X021059Y017804D02*
X017183Y017804D01*
X017183Y017707D02*
X021059Y017707D01*
X021059Y017610D02*
X017183Y017610D01*
X017183Y017513D02*
X021059Y017513D01*
X021059Y017417D02*
X017183Y017417D01*
X017130Y017320D02*
X021112Y017320D01*
X020212Y015866D02*
X019998Y015866D01*
X019998Y015769D02*
X020212Y015769D01*
X020212Y015672D02*
X019998Y015672D01*
X019998Y015575D02*
X020212Y015575D01*
X020212Y015478D02*
X019998Y015478D01*
X019998Y015381D02*
X020212Y015381D01*
X020212Y015284D02*
X019998Y015284D01*
X019978Y015187D02*
X020232Y015187D01*
X020439Y015090D02*
X019771Y015090D01*
X019771Y014993D02*
X020439Y014993D01*
X020439Y014896D02*
X019771Y014896D01*
X019771Y014800D02*
X020439Y014800D01*
X020345Y014703D02*
X019771Y014703D01*
X019712Y014606D02*
X020248Y014606D01*
X020151Y014509D02*
X019615Y014509D01*
X019518Y014412D02*
X020054Y014412D01*
X019957Y014315D02*
X019421Y014315D01*
X019324Y014218D02*
X019860Y014218D01*
X019763Y014121D02*
X019227Y014121D01*
X019130Y014024D02*
X019666Y014024D01*
X019569Y013927D02*
X019033Y013927D01*
X018936Y013830D02*
X019473Y013830D01*
X019376Y013733D02*
X018839Y013733D01*
X018743Y013636D02*
X019279Y013636D01*
X019182Y013539D02*
X018646Y013539D01*
X018549Y013443D02*
X019085Y013443D01*
X019242Y013152D02*
X019280Y013152D01*
X019639Y013055D02*
X020043Y013055D01*
X019973Y012958D02*
X019725Y012958D01*
X019765Y012861D02*
X019935Y012861D01*
X019193Y012376D02*
X018547Y012376D01*
X018676Y012473D02*
X019064Y012473D01*
X019000Y012570D02*
X018740Y012570D01*
X018779Y012667D02*
X018960Y012667D01*
X018960Y012764D02*
X018779Y012764D01*
X018765Y012861D02*
X018974Y012861D01*
X019015Y012958D02*
X018725Y012958D01*
X018015Y012958D02*
X014422Y012958D01*
X014325Y012861D02*
X016810Y012861D01*
X016713Y012764D02*
X014228Y012764D01*
X014132Y012667D02*
X016616Y012667D01*
X016519Y012570D02*
X014835Y012570D01*
X014851Y012566D02*
X014813Y012576D01*
X014666Y012576D01*
X014666Y012299D01*
X014943Y012299D01*
X014943Y012446D01*
X014933Y012484D01*
X014913Y012518D01*
X014885Y012546D01*
X014851Y012566D01*
X014936Y012473D02*
X014961Y012473D01*
X014960Y012472D02*
X014960Y012067D01*
X015024Y012003D01*
X015429Y012003D01*
X015493Y012067D01*
X015493Y012111D01*
X015544Y012111D01*
X015593Y012062D01*
X015683Y012025D01*
X015780Y012025D01*
X015870Y012062D01*
X015938Y012131D01*
X015976Y012221D01*
X015976Y012318D01*
X015938Y012408D01*
X015870Y012476D01*
X015780Y012514D01*
X015683Y012514D01*
X015593Y012476D01*
X015544Y012428D01*
X015493Y012428D01*
X015493Y012472D01*
X015429Y012536D01*
X015024Y012536D01*
X014960Y012472D01*
X014960Y012376D02*
X014943Y012376D01*
X014960Y012279D02*
X014666Y012279D01*
X014666Y012299D02*
X014666Y012240D01*
X014943Y012240D01*
X014943Y012092D01*
X014933Y012054D01*
X014913Y012020D01*
X014885Y011992D01*
X014851Y011973D01*
X014813Y011963D01*
X014666Y011963D01*
X014666Y012240D01*
X014606Y012240D01*
X014329Y012240D01*
X014329Y012092D01*
X014339Y012054D01*
X014359Y012020D01*
X014387Y011992D01*
X014421Y011973D01*
X014459Y011963D01*
X014606Y011963D01*
X014606Y012240D01*
X014606Y012299D01*
X014329Y012299D01*
X014329Y012446D01*
X014339Y012484D01*
X014359Y012518D01*
X014387Y012546D01*
X014421Y012566D01*
X014459Y012576D01*
X014606Y012576D01*
X014606Y012299D01*
X014666Y012299D01*
X014606Y012279D02*
X013744Y012279D01*
X013647Y012183D02*
X014329Y012183D01*
X014331Y012086D02*
X013550Y012086D01*
X013453Y011989D02*
X013671Y011989D01*
X013617Y011892D02*
X013356Y011892D01*
X013259Y011795D02*
X013599Y011795D01*
X013502Y011698D02*
X013162Y011698D01*
X013065Y011601D02*
X013405Y011601D01*
X013308Y011504D02*
X012968Y011504D01*
X012872Y011407D02*
X013211Y011407D01*
X013114Y011310D02*
X012775Y011310D01*
X012678Y011213D02*
X013017Y011213D01*
X012920Y011116D02*
X012581Y011116D01*
X012484Y011019D02*
X012823Y011019D01*
X012726Y010923D02*
X012409Y010923D01*
X012409Y010826D02*
X012683Y010826D01*
X012683Y010729D02*
X012409Y010729D01*
X012409Y010632D02*
X012683Y010632D01*
X012683Y010535D02*
X012409Y010535D01*
X012409Y010438D02*
X012683Y010438D01*
X012644Y010341D02*
X012644Y010341D01*
X012644Y010244D02*
X012644Y010244D01*
X012644Y010147D02*
X012644Y010147D01*
X012644Y010050D02*
X012644Y010050D01*
X012644Y009987D02*
X012644Y009652D01*
X012802Y009494D01*
X012784Y009566D02*
X013489Y009566D01*
X013667Y009469D02*
X012704Y009469D01*
X012704Y009372D02*
X013667Y009372D01*
X013634Y009275D02*
X012704Y009275D01*
X012704Y009178D02*
X013585Y009178D01*
X013581Y009081D02*
X012704Y009081D01*
X012704Y008984D02*
X013618Y008984D01*
X013825Y009120D02*
X013825Y009987D01*
X014022Y009987D02*
X014022Y010666D01*
X014888Y011532D01*
X017694Y011532D01*
X017940Y011778D01*
X018186Y011778D01*
X018301Y011746D01*
X018370Y011746D01*
X018779Y011698D02*
X018960Y011698D01*
X018960Y011795D02*
X018779Y011795D01*
X018779Y011892D02*
X018987Y011892D01*
X019034Y011989D02*
X018779Y011989D01*
X018779Y012086D02*
X019131Y012086D01*
X018987Y011601D02*
X018779Y011601D01*
X018779Y011504D02*
X019033Y011504D01*
X019059Y011407D02*
X018779Y011407D01*
X018958Y011310D02*
X014891Y011310D01*
X014637Y011504D02*
X013756Y011504D01*
X013659Y011407D02*
X014540Y011407D01*
X014443Y011310D02*
X013562Y011310D01*
X013465Y011213D02*
X014346Y011213D01*
X014249Y011116D02*
X013368Y011116D01*
X013271Y011019D02*
X014152Y011019D01*
X014055Y010923D02*
X013174Y010923D01*
X013077Y010826D02*
X013958Y010826D01*
X013864Y010729D02*
X013000Y010729D01*
X013000Y010632D02*
X013864Y010632D01*
X013864Y010535D02*
X013000Y010535D01*
X013000Y010438D02*
X013864Y010438D01*
X013629Y010341D02*
X013629Y010341D01*
X013629Y010244D02*
X013629Y010244D01*
X013629Y010147D02*
X013629Y010147D01*
X013629Y010050D02*
X013629Y010050D01*
X013984Y009566D02*
X019506Y009566D01*
X019370Y009469D02*
X017350Y009469D01*
X017350Y009468D02*
X017323Y009496D01*
X017288Y009515D01*
X017251Y009526D01*
X017083Y009526D01*
X017083Y009209D01*
X016985Y009209D01*
X016985Y009526D01*
X016818Y009526D01*
X016780Y009515D01*
X016746Y009496D01*
X016718Y009468D01*
X016698Y009434D01*
X016688Y009396D01*
X016688Y009209D01*
X016985Y009209D01*
X016985Y009111D01*
X016688Y009111D01*
X016688Y008924D01*
X016698Y008886D01*
X016718Y008852D01*
X016746Y008824D01*
X016780Y008804D01*
X016818Y008794D01*
X016985Y008794D01*
X016985Y009111D01*
X017083Y009111D01*
X017083Y009209D01*
X017380Y009209D01*
X017380Y009396D01*
X017370Y009434D01*
X017350Y009468D01*
X017380Y009372D02*
X018275Y009372D01*
X018223Y009275D02*
X017380Y009275D01*
X017380Y009111D02*
X017083Y009111D01*
X017083Y008794D01*
X017251Y008794D01*
X017288Y008804D01*
X017323Y008824D01*
X017350Y008852D01*
X017370Y008886D01*
X017380Y008924D01*
X017380Y009111D01*
X017380Y009081D02*
X018223Y009081D01*
X018223Y009178D02*
X017083Y009178D01*
X017083Y009275D02*
X016985Y009275D01*
X016985Y009372D02*
X017083Y009372D01*
X017083Y009469D02*
X016985Y009469D01*
X016718Y009469D02*
X016624Y009469D01*
X016671Y009372D02*
X016688Y009372D01*
X016688Y009275D02*
X016671Y009275D01*
X016671Y009178D02*
X016985Y009178D01*
X016985Y009081D02*
X017083Y009081D01*
X017083Y008984D02*
X016985Y008984D01*
X016985Y008887D02*
X017083Y008887D01*
X017370Y008887D02*
X018263Y008887D01*
X018263Y008790D02*
X016219Y008790D01*
X016129Y008924D02*
X016365Y009160D01*
X016671Y009081D02*
X016688Y009081D01*
X016688Y008984D02*
X016671Y008984D01*
X016660Y008887D02*
X016698Y008887D01*
X016129Y008924D02*
X015479Y008924D01*
X015479Y008530D02*
X018766Y008530D01*
X018766Y008215D02*
X018314Y008215D01*
X018195Y008333D01*
X015479Y008333D01*
X015923Y008112D02*
X016590Y008112D01*
X016590Y008015D02*
X015910Y008015D01*
X015883Y007918D02*
X016590Y007918D01*
X016590Y007821D02*
X016166Y007821D01*
X016263Y007724D02*
X016590Y007724D01*
X016590Y007627D02*
X016360Y007627D01*
X016106Y007433D02*
X015914Y007433D01*
X015923Y007530D02*
X016009Y007530D01*
X015883Y007336D02*
X016202Y007336D01*
X016157Y007239D02*
X016867Y007239D01*
X017291Y007530D02*
X017368Y007530D01*
X017338Y007627D02*
X017320Y007627D01*
X017320Y007724D02*
X017338Y007724D01*
X017338Y007821D02*
X017320Y007821D01*
X017320Y007918D02*
X017338Y007918D01*
X017338Y008015D02*
X017320Y008015D01*
X017320Y008112D02*
X017338Y008112D01*
X018068Y007627D02*
X019334Y007627D01*
X019293Y007724D02*
X019237Y007724D01*
X019431Y007530D02*
X018039Y007530D01*
X019182Y007433D02*
X019780Y007433D01*
X019780Y007336D02*
X019346Y007336D01*
X019414Y007239D02*
X019780Y007239D01*
X019780Y007142D02*
X019446Y007142D01*
X019446Y007045D02*
X019780Y007045D01*
X020002Y006755D02*
X019187Y006755D01*
X019348Y006852D02*
X020468Y006852D01*
X020401Y006949D02*
X019415Y006949D01*
X019299Y006367D02*
X019819Y006367D01*
X019819Y006270D02*
X019305Y006270D01*
X019305Y006173D02*
X019819Y006173D01*
X019819Y006076D02*
X019305Y006076D01*
X019305Y005785D02*
X019819Y005785D01*
X019819Y005689D02*
X019305Y005689D01*
X019305Y005592D02*
X019819Y005592D01*
X019819Y005495D02*
X019298Y005495D01*
X019209Y005398D02*
X019888Y005398D01*
X019888Y005301D02*
X017739Y005301D01*
X017739Y005398D02*
X018668Y005398D01*
X018665Y005399D02*
X018703Y005389D01*
X018890Y005389D01*
X018890Y005882D01*
X018573Y005882D01*
X018573Y005518D01*
X018583Y005480D01*
X018603Y005446D01*
X018631Y005418D01*
X018665Y005399D01*
X018579Y005495D02*
X017808Y005495D01*
X017808Y005592D02*
X018573Y005592D01*
X018573Y005689D02*
X017808Y005689D01*
X017808Y005785D02*
X018573Y005785D01*
X018573Y006076D02*
X017808Y006076D01*
X017808Y005979D02*
X018890Y005979D01*
X018890Y005882D02*
X017808Y005882D01*
X017808Y006173D02*
X018573Y006173D01*
X018573Y006270D02*
X017808Y006270D01*
X017808Y006367D02*
X018579Y006367D01*
X018988Y005979D02*
X019819Y005979D01*
X019819Y005882D02*
X018988Y005882D01*
X018988Y005785D02*
X018890Y005785D01*
X018890Y005689D02*
X018988Y005689D01*
X018988Y005592D02*
X018890Y005592D01*
X018890Y005495D02*
X018988Y005495D01*
X018988Y005398D02*
X018890Y005398D01*
X019888Y005204D02*
X017739Y005204D01*
X017739Y005107D02*
X019888Y005107D01*
X019888Y005010D02*
X017739Y005010D01*
X017739Y004913D02*
X019888Y004913D01*
X019888Y004816D02*
X017739Y004816D01*
X017739Y004719D02*
X019888Y004719D01*
X019888Y004622D02*
X017739Y004622D01*
X017739Y004525D02*
X019888Y004525D01*
X019888Y004428D02*
X017739Y004428D01*
X017739Y004332D02*
X019888Y004332D01*
X019888Y004235D02*
X017739Y004235D01*
X017739Y004138D02*
X019888Y004138D01*
X019888Y004041D02*
X017739Y004041D01*
X017739Y003944D02*
X018663Y003944D01*
X018665Y003945D02*
X018631Y003925D01*
X018603Y003897D01*
X018583Y003863D01*
X018573Y003825D01*
X018573Y003461D01*
X018890Y003461D01*
X018890Y003955D01*
X018703Y003955D01*
X018665Y003945D01*
X018579Y003847D02*
X017808Y003847D01*
X017808Y003750D02*
X018573Y003750D01*
X018573Y003653D02*
X017808Y003653D01*
X017808Y003556D02*
X018573Y003556D01*
X018573Y003363D02*
X018573Y002998D01*
X018583Y002961D01*
X018603Y002926D01*
X018631Y002899D01*
X018665Y002879D01*
X018703Y002869D01*
X018890Y002869D01*
X018890Y003363D01*
X018988Y003363D01*
X018988Y003461D01*
X019305Y003461D01*
X019305Y003825D01*
X019294Y003863D01*
X019275Y003897D01*
X019247Y003925D01*
X019213Y003945D01*
X019175Y003955D01*
X018988Y003955D01*
X018988Y003461D01*
X018890Y003461D01*
X018890Y003363D01*
X018573Y003363D01*
X018573Y003362D02*
X017808Y003362D01*
X017808Y003265D02*
X018573Y003265D01*
X018573Y003168D02*
X017808Y003168D01*
X017808Y003072D02*
X018573Y003072D01*
X018579Y002975D02*
X017808Y002975D01*
X017497Y003397D02*
X017482Y003412D01*
X017808Y003459D02*
X018890Y003459D01*
X018890Y003362D02*
X018988Y003362D01*
X018988Y003363D02*
X018988Y002869D01*
X019175Y002869D01*
X019213Y002879D01*
X019247Y002899D01*
X019275Y002926D01*
X019294Y002961D01*
X019305Y002998D01*
X019305Y003363D01*
X018988Y003363D01*
X018988Y003459D02*
X019819Y003459D01*
X019819Y003362D02*
X019305Y003362D01*
X019305Y003265D02*
X019819Y003265D01*
X019819Y003168D02*
X019305Y003168D01*
X019305Y003072D02*
X019819Y003072D01*
X019819Y002975D02*
X019298Y002975D01*
X019208Y002878D02*
X021332Y002878D01*
X021327Y002879D02*
X021365Y002869D01*
X021552Y002869D01*
X021552Y003363D01*
X021236Y003363D01*
X021236Y002998D01*
X021246Y002961D01*
X021265Y002926D01*
X021293Y002899D01*
X021327Y002879D01*
X021242Y002975D02*
X020470Y002975D01*
X020470Y003072D02*
X021236Y003072D01*
X021236Y003168D02*
X020470Y003168D01*
X020470Y003265D02*
X021236Y003265D01*
X021236Y003362D02*
X020470Y003362D01*
X020470Y003459D02*
X021552Y003459D01*
X021552Y003461D02*
X021552Y003363D01*
X021651Y003363D01*
X021651Y003461D01*
X021967Y003461D01*
X021967Y003825D01*
X021957Y003863D01*
X021937Y003897D01*
X021910Y003925D01*
X021876Y003945D01*
X021838Y003955D01*
X021651Y003955D01*
X021651Y003461D01*
X021552Y003461D01*
X021236Y003461D01*
X021236Y003825D01*
X021246Y003863D01*
X021265Y003897D01*
X021293Y003925D01*
X021327Y003945D01*
X021365Y003955D01*
X021552Y003955D01*
X021552Y003461D01*
X021552Y003556D02*
X021651Y003556D01*
X021651Y003459D02*
X022071Y003459D01*
X022071Y003362D02*
X021967Y003362D01*
X021967Y003363D02*
X021651Y003363D01*
X021651Y002869D01*
X021838Y002869D01*
X021876Y002879D01*
X021910Y002899D01*
X021937Y002926D01*
X021957Y002961D01*
X021967Y002998D01*
X021967Y003363D01*
X021967Y003265D02*
X022071Y003265D01*
X022071Y003168D02*
X021967Y003168D01*
X021967Y003072D02*
X022071Y003072D01*
X022071Y002975D02*
X021961Y002975D01*
X021870Y002878D02*
X022071Y002878D01*
X022071Y002781D02*
X015714Y002781D01*
X015748Y002800D01*
X015776Y002828D01*
X015795Y002862D01*
X015805Y002900D01*
X015805Y003067D01*
X015489Y003067D01*
X015489Y002770D01*
X015676Y002770D01*
X015714Y002781D01*
X015799Y002878D02*
X018670Y002878D01*
X018890Y002878D02*
X018988Y002878D01*
X018988Y002975D02*
X018890Y002975D01*
X018890Y003072D02*
X018988Y003072D01*
X018988Y003168D02*
X018890Y003168D01*
X018890Y003265D02*
X018988Y003265D01*
X018988Y003556D02*
X018890Y003556D01*
X018890Y003653D02*
X018988Y003653D01*
X018988Y003750D02*
X018890Y003750D01*
X018890Y003847D02*
X018988Y003847D01*
X018988Y003944D02*
X018890Y003944D01*
X019214Y003944D02*
X019888Y003944D01*
X019819Y003847D02*
X019299Y003847D01*
X019305Y003750D02*
X019819Y003750D01*
X019819Y003653D02*
X019305Y003653D01*
X019305Y003556D02*
X019819Y003556D01*
X020402Y003944D02*
X021326Y003944D01*
X021241Y003847D02*
X020470Y003847D01*
X020470Y003750D02*
X021236Y003750D01*
X021236Y003653D02*
X020470Y003653D01*
X020470Y003556D02*
X021236Y003556D01*
X021552Y003653D02*
X021651Y003653D01*
X021651Y003750D02*
X021552Y003750D01*
X021552Y003847D02*
X021651Y003847D01*
X021651Y003944D02*
X021552Y003944D01*
X021877Y003944D02*
X022071Y003944D01*
X022071Y004041D02*
X020402Y004041D01*
X020402Y004138D02*
X022071Y004138D01*
X022071Y004235D02*
X020402Y004235D01*
X020402Y004332D02*
X022071Y004332D01*
X022071Y004428D02*
X020402Y004428D01*
X020402Y004525D02*
X022071Y004525D01*
X022071Y004622D02*
X020402Y004622D01*
X020402Y004719D02*
X022071Y004719D01*
X022071Y004816D02*
X020402Y004816D01*
X020402Y004913D02*
X022071Y004913D01*
X022071Y005010D02*
X020402Y005010D01*
X020402Y005107D02*
X022071Y005107D01*
X022071Y005204D02*
X020402Y005204D01*
X020402Y005301D02*
X022071Y005301D01*
X022071Y005398D02*
X021872Y005398D01*
X021876Y005399D02*
X021910Y005418D01*
X021937Y005446D01*
X021957Y005480D01*
X021967Y005518D01*
X021967Y005882D01*
X021651Y005882D01*
X021651Y005981D01*
X021967Y005981D01*
X021967Y006345D01*
X021957Y006383D01*
X021937Y006417D01*
X021910Y006445D01*
X021876Y006464D01*
X022071Y006464D01*
X022071Y006561D02*
X020398Y006561D01*
X020379Y006658D02*
X022071Y006658D01*
X022071Y006755D02*
X021274Y006755D01*
X021435Y006852D02*
X022071Y006852D01*
X022071Y006949D02*
X021502Y006949D01*
X021552Y006474D02*
X021365Y006474D01*
X021327Y006464D01*
X020378Y006464D01*
X020470Y006367D02*
X021242Y006367D01*
X021246Y006383D02*
X021236Y006345D01*
X021236Y005981D01*
X021552Y005981D01*
X021552Y006474D01*
X021552Y006464D02*
X021651Y006464D01*
X021651Y006474D02*
X021651Y005981D01*
X021552Y005981D01*
X021552Y005882D01*
X021651Y005882D01*
X021651Y005389D01*
X021838Y005389D01*
X021876Y005399D01*
X021961Y005495D02*
X022071Y005495D01*
X022071Y005592D02*
X021967Y005592D01*
X021967Y005689D02*
X022071Y005689D01*
X022071Y005785D02*
X021967Y005785D01*
X022071Y005882D02*
X021651Y005882D01*
X021651Y005785D02*
X021552Y005785D01*
X021552Y005689D02*
X021651Y005689D01*
X021651Y005592D02*
X021552Y005592D01*
X021552Y005495D02*
X021651Y005495D01*
X021651Y005398D02*
X021552Y005398D01*
X021552Y005389D02*
X021552Y005882D01*
X021236Y005882D01*
X021236Y005518D01*
X021246Y005480D01*
X021265Y005446D01*
X021293Y005418D01*
X021327Y005399D01*
X021365Y005389D01*
X021552Y005389D01*
X021331Y005398D02*
X020402Y005398D01*
X020470Y005495D02*
X021242Y005495D01*
X021236Y005592D02*
X020470Y005592D01*
X020470Y005689D02*
X021236Y005689D01*
X021236Y005785D02*
X020470Y005785D01*
X020470Y005882D02*
X021552Y005882D01*
X021552Y005979D02*
X020470Y005979D01*
X020470Y006076D02*
X021236Y006076D01*
X021236Y006173D02*
X020470Y006173D01*
X020470Y006270D02*
X021236Y006270D01*
X021246Y006383D02*
X021265Y006417D01*
X021293Y006445D01*
X021327Y006464D01*
X021552Y006367D02*
X021651Y006367D01*
X021651Y006270D02*
X021552Y006270D01*
X021552Y006173D02*
X021651Y006173D01*
X021651Y006076D02*
X021552Y006076D01*
X021651Y005979D02*
X022071Y005979D01*
X022071Y006076D02*
X021967Y006076D01*
X021967Y006173D02*
X022071Y006173D01*
X022071Y006270D02*
X021967Y006270D01*
X021961Y006367D02*
X022071Y006367D01*
X021876Y006464D02*
X021838Y006474D01*
X021651Y006474D01*
X020629Y006755D02*
X020306Y006755D01*
X020154Y006561D02*
X020144Y006424D01*
X020144Y006020D01*
X020145Y005931D01*
X020154Y006561D02*
X016611Y006561D01*
X016484Y006464D02*
X015883Y006464D01*
X015883Y006561D02*
X016387Y006561D01*
X016290Y006658D02*
X015883Y006658D01*
X015883Y006755D02*
X016193Y006755D01*
X016097Y006852D02*
X015917Y006852D01*
X015923Y006949D02*
X016000Y006949D01*
X015883Y006367D02*
X017156Y006367D01*
X017156Y006270D02*
X015883Y006270D01*
X015883Y006173D02*
X017156Y006173D01*
X017349Y005971D02*
X017388Y005931D01*
X017482Y005931D01*
X017349Y005971D02*
X015479Y005971D01*
X015479Y005774D02*
X015479Y005774D01*
X015085Y005774D01*
X014987Y005872D01*
X015034Y005774D02*
X015479Y005774D01*
X015883Y005592D02*
X017156Y005592D01*
X017156Y005689D02*
X015922Y005689D01*
X015923Y005785D02*
X017156Y005785D01*
X017156Y005495D02*
X015883Y005495D01*
X015883Y005398D02*
X017225Y005398D01*
X017225Y005301D02*
X015913Y005301D01*
X015923Y005204D02*
X017225Y005204D01*
X017225Y005107D02*
X015923Y005107D01*
X015074Y005010D02*
X013735Y005010D01*
X013842Y004913D02*
X015074Y004913D01*
X015074Y004816D02*
X013873Y004816D01*
X013864Y004719D02*
X015074Y004719D01*
X015074Y004622D02*
X013806Y004622D01*
X013787Y004525D02*
X015074Y004525D01*
X015135Y004428D02*
X013787Y004428D01*
X013825Y004368D02*
X013825Y003924D01*
X013825Y003924D01*
X013825Y004368D01*
X013825Y004357D02*
X013825Y003924D01*
X013825Y003924D01*
X013825Y003479D01*
X013747Y003479D01*
X013709Y003489D01*
X013675Y003509D01*
X013665Y003519D01*
X013327Y003519D01*
X013207Y003519D01*
X013275Y003452D01*
X013282Y003433D01*
X013315Y003452D01*
X013353Y003463D01*
X013540Y003463D01*
X013540Y003166D01*
X013638Y003166D01*
X013638Y003463D01*
X013825Y003463D01*
X013863Y003452D01*
X013897Y003433D01*
X013925Y003405D01*
X013945Y003371D01*
X013945Y003371D01*
X013997Y003423D01*
X014258Y003423D01*
X014258Y003519D01*
X013986Y003519D01*
X013976Y003509D01*
X013942Y003489D01*
X013904Y003479D01*
X013825Y003479D01*
X013825Y003924D01*
X013825Y003944D02*
X013825Y003944D01*
X013825Y004041D02*
X013825Y004041D01*
X013825Y004138D02*
X013825Y004138D01*
X013825Y004235D02*
X013825Y004235D01*
X013825Y004332D02*
X013825Y004332D01*
X013825Y004357D02*
X013884Y004416D01*
X013986Y004328D02*
X014914Y004328D01*
X014978Y004264D01*
X014978Y003583D01*
X014914Y003519D01*
X014771Y003519D01*
X014771Y003423D01*
X015032Y003423D01*
X015084Y003371D01*
X015084Y003371D01*
X015104Y003405D01*
X015131Y003433D01*
X015165Y003452D01*
X015203Y003463D01*
X015390Y003463D01*
X015390Y003166D01*
X015489Y003166D01*
X015489Y003463D01*
X015676Y003463D01*
X015714Y003452D01*
X015748Y003433D01*
X015776Y003405D01*
X015795Y003371D01*
X015805Y003333D01*
X015805Y003166D01*
X015489Y003166D01*
X015489Y003067D01*
X015390Y003067D01*
X015390Y002770D01*
X015203Y002770D01*
X015190Y002774D01*
X015486Y002478D01*
X016528Y002478D01*
X016592Y002414D01*
X016592Y001142D01*
X016528Y001078D01*
X015257Y001078D01*
X015193Y001142D01*
X015193Y002184D01*
X014566Y002810D01*
X014463Y002810D01*
X014344Y002692D01*
X014344Y002692D01*
X013836Y002184D01*
X013836Y001142D01*
X013772Y001078D01*
X012501Y001078D01*
X012437Y001142D01*
X012437Y002414D01*
X012501Y002478D01*
X013543Y002478D01*
X013839Y002774D01*
X013825Y002770D01*
X013638Y002770D01*
X013638Y003067D01*
X013540Y003067D01*
X013540Y002770D01*
X013353Y002770D01*
X013315Y002781D01*
X012837Y002781D01*
X012821Y002774D02*
X012911Y002811D01*
X012979Y002880D01*
X013016Y002970D01*
X013016Y003067D01*
X013015Y003071D01*
X013019Y003069D01*
X013116Y003069D01*
X013206Y003106D01*
X013265Y003166D01*
X013540Y003166D01*
X013540Y003067D01*
X013223Y003067D01*
X013223Y002900D01*
X013234Y002862D01*
X013253Y002828D01*
X013281Y002800D01*
X013315Y002781D01*
X013229Y002878D02*
X012977Y002878D01*
X013016Y002975D02*
X013223Y002975D01*
X013122Y003072D02*
X013540Y003072D01*
X013540Y003168D02*
X013638Y003168D01*
X013638Y003265D02*
X013540Y003265D01*
X013540Y003362D02*
X013638Y003362D01*
X013638Y003459D02*
X013540Y003459D01*
X013340Y003459D02*
X013267Y003459D01*
X013038Y003392D02*
X013068Y003313D01*
X013038Y003392D02*
X013038Y003924D01*
X012841Y003924D02*
X012841Y003530D01*
X012772Y003461D01*
X012772Y003018D01*
X012528Y002975D02*
X012426Y002975D01*
X012426Y002970D02*
X012426Y003067D01*
X012424Y003071D01*
X012428Y003069D01*
X012526Y003069D01*
X012530Y003071D01*
X012528Y003067D01*
X012528Y002970D01*
X012565Y002880D01*
X012634Y002811D01*
X012724Y002774D01*
X012821Y002774D01*
X012707Y002781D02*
X012247Y002781D01*
X012230Y002774D02*
X012320Y002811D01*
X012389Y002880D01*
X012426Y002970D01*
X012387Y002878D02*
X012567Y002878D01*
X012230Y002774D02*
X012133Y002774D01*
X012043Y002811D01*
X012015Y002839D01*
X012015Y002781D02*
X012117Y002781D01*
X012015Y002684D02*
X013749Y002684D01*
X013652Y002587D02*
X012015Y002587D01*
X012015Y002490D02*
X013555Y002490D01*
X013540Y002781D02*
X013638Y002781D01*
X013638Y002878D02*
X013540Y002878D01*
X013540Y002975D02*
X013638Y002975D01*
X014258Y003117D02*
X014416Y003274D01*
X014416Y003924D01*
X014613Y003924D02*
X014613Y003274D01*
X014770Y003117D01*
X014771Y003459D02*
X015191Y003459D01*
X015174Y003609D02*
X015272Y003609D01*
X015361Y003646D01*
X015410Y003694D01*
X015429Y003694D01*
X015429Y003650D01*
X015493Y003586D01*
X015898Y003586D01*
X015962Y003650D01*
X015962Y004055D01*
X015898Y004119D01*
X015493Y004119D01*
X015429Y004055D01*
X015429Y004011D01*
X015410Y004011D01*
X015361Y004060D01*
X015272Y004097D01*
X015174Y004097D01*
X015085Y004060D01*
X015016Y003991D01*
X014979Y003901D01*
X014979Y003804D01*
X015016Y003714D01*
X015085Y003646D01*
X015174Y003609D01*
X015077Y003653D02*
X014978Y003653D01*
X014978Y003750D02*
X015001Y003750D01*
X014978Y003847D02*
X014979Y003847D01*
X014978Y003944D02*
X014996Y003944D01*
X014978Y004041D02*
X015066Y004041D01*
X014978Y004138D02*
X016051Y004138D01*
X016037Y004130D02*
X016009Y004102D01*
X015989Y004068D01*
X015979Y004030D01*
X015979Y003882D01*
X016256Y003882D01*
X016256Y003823D01*
X015979Y003823D01*
X015979Y003676D01*
X015989Y003638D01*
X016009Y003604D01*
X016037Y003576D01*
X016071Y003556D01*
X016109Y003546D01*
X016256Y003546D01*
X016256Y003823D01*
X016316Y003823D01*
X016316Y003882D01*
X016593Y003882D01*
X016593Y004030D01*
X016583Y004068D01*
X016563Y004102D01*
X016535Y004130D01*
X016501Y004149D01*
X016463Y004159D01*
X016316Y004159D01*
X016316Y003882D01*
X016256Y003882D01*
X016256Y004159D01*
X016109Y004159D01*
X016071Y004149D01*
X016037Y004130D01*
X015982Y004041D02*
X015962Y004041D01*
X015962Y003944D02*
X015979Y003944D01*
X015962Y003847D02*
X016256Y003847D01*
X016316Y003847D02*
X017156Y003847D01*
X017156Y003750D02*
X016593Y003750D01*
X016593Y003823D02*
X016593Y003676D01*
X016583Y003638D01*
X016563Y003604D01*
X016535Y003576D01*
X016501Y003556D01*
X017156Y003556D01*
X017156Y003459D02*
X015688Y003459D01*
X015797Y003362D02*
X017156Y003362D01*
X017156Y003265D02*
X015805Y003265D01*
X015805Y003168D02*
X017156Y003168D01*
X017156Y003072D02*
X015489Y003072D01*
X015489Y003168D02*
X015390Y003168D01*
X015390Y003265D02*
X015489Y003265D01*
X015489Y003362D02*
X015390Y003362D01*
X015390Y003459D02*
X015489Y003459D01*
X015429Y003653D02*
X015369Y003653D01*
X015223Y003853D02*
X015695Y003853D01*
X015962Y003750D02*
X015979Y003750D01*
X015985Y003653D02*
X015962Y003653D01*
X016071Y003556D02*
X014951Y003556D01*
X015380Y004041D02*
X015429Y004041D01*
X014978Y004235D02*
X017225Y004235D01*
X017225Y004138D02*
X016521Y004138D01*
X016590Y004041D02*
X017225Y004041D01*
X017225Y003944D02*
X016593Y003944D01*
X016593Y003823D02*
X016316Y003823D01*
X016316Y003546D01*
X016463Y003546D01*
X016501Y003556D01*
X016587Y003653D02*
X017156Y003653D01*
X017156Y002975D02*
X015805Y002975D01*
X015489Y002975D02*
X015390Y002975D01*
X015390Y002878D02*
X015489Y002878D01*
X015489Y002781D02*
X015390Y002781D01*
X015280Y002684D02*
X020678Y002684D01*
X020427Y002587D02*
X015377Y002587D01*
X015474Y002490D02*
X020259Y002490D01*
X020145Y002393D02*
X016592Y002393D01*
X016592Y002296D02*
X020048Y002296D01*
X019958Y002199D02*
X016592Y002199D01*
X016592Y002102D02*
X019902Y002102D01*
X019846Y002005D02*
X016592Y002005D01*
X016592Y001908D02*
X019791Y001908D01*
X019765Y001812D02*
X016592Y001812D01*
X016592Y001715D02*
X019739Y001715D01*
X019713Y001618D02*
X016592Y001618D01*
X016592Y001521D02*
X019700Y001521D01*
X019700Y001424D02*
X016592Y001424D01*
X016592Y001327D02*
X019700Y001327D01*
X019700Y001230D02*
X016592Y001230D01*
X016583Y001133D02*
X019723Y001133D01*
X019749Y001036D02*
X012015Y001036D01*
X012015Y000939D02*
X019775Y000939D01*
X019812Y000842D02*
X012015Y000842D01*
X011954Y000745D02*
X019868Y000745D01*
X019924Y000648D02*
X011857Y000648D01*
X011760Y000551D02*
X019988Y000551D01*
X020085Y000455D02*
X011663Y000455D01*
X012015Y001133D02*
X012446Y001133D01*
X012437Y001230D02*
X012015Y001230D01*
X012015Y001327D02*
X012437Y001327D01*
X012437Y001424D02*
X012015Y001424D01*
X012015Y001521D02*
X012437Y001521D01*
X012437Y001618D02*
X012015Y001618D01*
X012015Y001715D02*
X012437Y001715D01*
X012437Y001812D02*
X012015Y001812D01*
X012015Y001908D02*
X012437Y001908D01*
X012437Y002005D02*
X012015Y002005D01*
X012015Y002102D02*
X012437Y002102D01*
X012437Y002199D02*
X012015Y002199D01*
X012015Y002296D02*
X012437Y002296D01*
X012437Y002393D02*
X012015Y002393D01*
X011502Y001715D02*
X011483Y001715D01*
X011483Y001618D02*
X011492Y001618D01*
X010873Y002644D02*
X010873Y003924D01*
X010676Y003924D02*
X010676Y003038D01*
X010479Y003431D02*
X010066Y003018D01*
X010089Y003265D02*
X006643Y003265D01*
X006739Y003362D02*
X010186Y003362D01*
X010283Y003459D02*
X006834Y003459D01*
X006929Y003556D02*
X009944Y003556D01*
X009589Y003664D02*
X009477Y003618D01*
X009355Y003618D01*
X009269Y003653D02*
X007024Y003653D01*
X007119Y003750D02*
X009157Y003750D01*
X009116Y003847D02*
X007214Y003847D01*
X007310Y003944D02*
X009110Y003944D01*
X009133Y004041D02*
X007405Y004041D01*
X007500Y004138D02*
X009197Y004138D01*
X009072Y004428D02*
X007785Y004428D01*
X007881Y004525D02*
X009011Y004525D01*
X009011Y004622D02*
X007976Y004622D01*
X008071Y004719D02*
X009011Y004719D01*
X009011Y004816D02*
X008166Y004816D01*
X008261Y004913D02*
X009011Y004913D01*
X009011Y005010D02*
X008356Y005010D01*
X008452Y005107D02*
X009011Y005107D01*
X009011Y005204D02*
X008547Y005204D01*
X008642Y005301D02*
X008972Y005301D01*
X008971Y005398D02*
X008737Y005398D01*
X008832Y005495D02*
X008981Y005495D01*
X009011Y005592D02*
X008927Y005592D01*
X008884Y005774D02*
X009416Y005774D01*
X009416Y005971D02*
X008540Y005971D01*
X008146Y006168D02*
X009416Y006168D01*
X009416Y006365D02*
X007753Y006365D01*
X006178Y004790D01*
X006280Y004525D02*
X004929Y004525D01*
X005856Y003653D02*
X005998Y003653D01*
X005953Y003750D02*
X006095Y003750D01*
X006050Y003847D02*
X006192Y003847D01*
X006146Y003944D02*
X006289Y003944D01*
X006243Y004041D02*
X006386Y004041D01*
X006340Y004138D02*
X006483Y004138D01*
X006437Y004235D02*
X006580Y004235D01*
X006534Y004332D02*
X006677Y004332D01*
X006631Y004428D02*
X006774Y004428D01*
X006728Y004525D02*
X006870Y004525D01*
X006825Y004622D02*
X006967Y004622D01*
X006922Y004719D02*
X007064Y004719D01*
X007019Y004816D02*
X007161Y004816D01*
X007116Y004913D02*
X007258Y004913D01*
X007213Y005010D02*
X007355Y005010D01*
X007310Y005107D02*
X007452Y005107D01*
X007406Y005204D02*
X007549Y005204D01*
X007503Y005301D02*
X007646Y005301D01*
X007600Y005398D02*
X007743Y005398D01*
X007697Y005495D02*
X007840Y005495D01*
X008873Y006523D02*
X008971Y006621D01*
X008971Y006561D01*
X008911Y006561D01*
X008873Y006523D02*
X008971Y006523D01*
X008971Y006561D01*
X009416Y006561D01*
X009820Y006561D01*
X009820Y006561D01*
X009416Y006561D01*
X009416Y006561D01*
X009416Y006561D01*
X009770Y006561D01*
X009908Y006424D01*
X009855Y006464D02*
X012191Y006464D01*
X012191Y006367D02*
X009820Y006367D01*
X009820Y006270D02*
X012191Y006270D01*
X012191Y006173D02*
X009820Y006173D01*
X009820Y006076D02*
X012191Y006076D01*
X012191Y005979D02*
X009820Y005979D01*
X009820Y005882D02*
X012191Y005882D01*
X012191Y005204D02*
X009820Y005204D01*
X009820Y005107D02*
X012191Y005107D01*
X012704Y005107D02*
X015034Y005107D01*
X016256Y004138D02*
X016316Y004138D01*
X016316Y004041D02*
X016256Y004041D01*
X016256Y003944D02*
X016316Y003944D01*
X016316Y003750D02*
X016256Y003750D01*
X016256Y003653D02*
X016316Y003653D01*
X016316Y003556D02*
X016256Y003556D01*
X015080Y002296D02*
X013948Y002296D01*
X013851Y002199D02*
X015177Y002199D01*
X015193Y002102D02*
X013836Y002102D01*
X013836Y002005D02*
X015193Y002005D01*
X015193Y001908D02*
X013836Y001908D01*
X013836Y001812D02*
X015193Y001812D01*
X015193Y001715D02*
X013836Y001715D01*
X013836Y001618D02*
X015193Y001618D01*
X015193Y001521D02*
X013836Y001521D01*
X013836Y001424D02*
X015193Y001424D01*
X015193Y001327D02*
X013836Y001327D01*
X013836Y001230D02*
X015193Y001230D01*
X015202Y001133D02*
X013827Y001133D01*
X014045Y002393D02*
X014984Y002393D01*
X014887Y002490D02*
X014142Y002490D01*
X014239Y002587D02*
X014790Y002587D01*
X014693Y002684D02*
X014336Y002684D01*
X014433Y002781D02*
X014596Y002781D01*
X014258Y003459D02*
X013838Y003459D01*
X013825Y003556D02*
X013825Y003556D01*
X013825Y003653D02*
X013825Y003653D01*
X013825Y003750D02*
X013825Y003750D01*
X013825Y003847D02*
X013825Y003847D01*
X013629Y003924D02*
X013629Y004790D01*
X013522Y005010D02*
X012704Y005010D01*
X012704Y004913D02*
X013415Y004913D01*
X013384Y004816D02*
X012704Y004816D01*
X012704Y004719D02*
X013393Y004719D01*
X013451Y004622D02*
X012704Y004622D01*
X012704Y004525D02*
X013470Y004525D01*
X013470Y004428D02*
X012704Y004428D01*
X012802Y004416D02*
X012644Y004258D01*
X012644Y003924D01*
X012644Y004269D01*
X012644Y004269D01*
X012644Y003924D01*
X012644Y003924D01*
X012644Y003944D02*
X012644Y003944D01*
X012644Y004041D02*
X012644Y004041D01*
X012644Y004138D02*
X012644Y004138D01*
X012644Y004235D02*
X012644Y004235D01*
X012802Y004332D02*
X013470Y004332D01*
X012447Y004435D02*
X012447Y003924D01*
X012251Y003924D02*
X012251Y003540D01*
X012477Y003313D01*
X011211Y004525D02*
X010753Y004525D01*
X010745Y004428D02*
X011114Y004428D01*
X011108Y004332D02*
X010691Y004332D01*
X010508Y004494D02*
X010282Y004268D01*
X010282Y003924D01*
X010085Y003924D02*
X010085Y004465D01*
X010066Y004494D01*
X010161Y004719D02*
X010413Y004719D01*
X010297Y004622D02*
X010277Y004622D01*
X010604Y004719D02*
X011405Y004719D01*
X011308Y004622D02*
X010720Y004622D01*
X010116Y005398D02*
X009860Y005398D01*
X009820Y005785D02*
X010147Y005785D01*
X009416Y006561D02*
X008971Y006561D01*
X008786Y006660D02*
X009081Y006955D01*
X009416Y006955D01*
X009416Y006758D02*
X009987Y006758D01*
X009820Y007045D02*
X012191Y007045D01*
X012191Y007142D02*
X009820Y007142D01*
X009820Y007239D02*
X012191Y007239D01*
X012191Y007336D02*
X009820Y007336D01*
X009820Y007433D02*
X012191Y007433D01*
X012191Y007530D02*
X009820Y007530D01*
X009851Y007627D02*
X010092Y007627D01*
X009908Y007644D02*
X009810Y007743D01*
X009416Y007349D02*
X008491Y007349D01*
X008737Y007054D02*
X008835Y007152D01*
X009416Y007152D01*
X008786Y006660D02*
X008491Y006660D01*
X008956Y007918D02*
X009011Y007918D01*
X008884Y009317D02*
X008048Y010154D01*
X008884Y009317D02*
X009416Y009317D01*
X010490Y007918D02*
X012191Y007918D01*
X012191Y007821D02*
X010526Y007821D01*
X010522Y007724D02*
X012191Y007724D01*
X012191Y007627D02*
X010473Y007627D01*
X011538Y008887D02*
X012191Y008887D01*
X012191Y008984D02*
X011671Y008984D01*
X011707Y009081D02*
X012191Y009081D01*
X012191Y009178D02*
X011704Y009178D01*
X011654Y009275D02*
X012191Y009275D01*
X012191Y009372D02*
X011622Y009372D01*
X011622Y009469D02*
X012191Y009469D01*
X012207Y009566D02*
X011622Y009566D01*
X011660Y009987D02*
X011660Y012191D01*
X013756Y014288D01*
X014003Y013943D02*
X017841Y013943D01*
X018391Y013733D02*
X014017Y013733D01*
X014062Y013636D02*
X013920Y013636D01*
X013965Y013539D02*
X013823Y013539D01*
X013868Y013443D02*
X013726Y013443D01*
X013771Y013346D02*
X013629Y013346D01*
X013674Y013249D02*
X013532Y013249D01*
X013578Y013152D02*
X013435Y013152D01*
X013481Y013055D02*
X013338Y013055D01*
X013384Y012958D02*
X013241Y012958D01*
X013287Y012861D02*
X013144Y012861D01*
X013190Y012764D02*
X013047Y012764D01*
X013093Y012667D02*
X012950Y012667D01*
X012996Y012570D02*
X012854Y012570D01*
X012899Y012473D02*
X012757Y012473D01*
X012802Y012376D02*
X012660Y012376D01*
X012705Y012279D02*
X012563Y012279D01*
X012608Y012183D02*
X012466Y012183D01*
X012511Y012086D02*
X012369Y012086D01*
X012414Y011989D02*
X012272Y011989D01*
X012318Y011892D02*
X012175Y011892D01*
X012221Y011795D02*
X012078Y011795D01*
X012124Y011698D02*
X012015Y011698D01*
X012015Y011601D02*
X012027Y011601D01*
X011857Y011798D02*
X014003Y013943D01*
X014219Y013346D02*
X014362Y013346D01*
X014265Y013249D02*
X014123Y013249D01*
X014168Y013152D02*
X014026Y013152D01*
X014071Y013055D02*
X013929Y013055D01*
X013974Y012958D02*
X013832Y012958D01*
X013877Y012861D02*
X013735Y012861D01*
X013780Y012764D02*
X013638Y012764D01*
X013683Y012667D02*
X013541Y012667D01*
X013587Y012570D02*
X013444Y012570D01*
X013490Y012473D02*
X013347Y012473D01*
X013393Y012376D02*
X013250Y012376D01*
X013296Y012279D02*
X013153Y012279D01*
X013199Y012183D02*
X013056Y012183D01*
X013102Y012086D02*
X012959Y012086D01*
X013005Y011989D02*
X012863Y011989D01*
X012908Y011892D02*
X012766Y011892D01*
X012811Y011795D02*
X012669Y011795D01*
X012714Y011698D02*
X012572Y011698D01*
X012617Y011601D02*
X012475Y011601D01*
X012520Y011504D02*
X012378Y011504D01*
X012423Y011407D02*
X012281Y011407D01*
X012327Y011310D02*
X012212Y011310D01*
X012212Y011213D02*
X012230Y011213D01*
X011857Y011798D02*
X011857Y009987D01*
X011463Y009987D02*
X011463Y009120D01*
X012447Y009475D02*
X012447Y009987D01*
X012644Y009987D02*
X012644Y009641D01*
X012644Y009641D01*
X012644Y009987D01*
X012644Y009987D01*
X012644Y009953D02*
X012644Y009953D01*
X012644Y009856D02*
X012644Y009856D01*
X012644Y009759D02*
X012644Y009759D01*
X012644Y009662D02*
X012644Y009662D01*
X012841Y009987D02*
X012841Y010813D01*
X013855Y011827D01*
X013947Y011601D02*
X014733Y011601D01*
X014666Y011989D02*
X014606Y011989D01*
X014606Y012086D02*
X014666Y012086D01*
X014666Y012183D02*
X014606Y012183D01*
X014606Y012376D02*
X014666Y012376D01*
X014666Y012473D02*
X014606Y012473D01*
X014606Y012570D02*
X014666Y012570D01*
X014437Y012570D02*
X014035Y012570D01*
X013938Y012473D02*
X014337Y012473D01*
X014329Y012376D02*
X013841Y012376D01*
X014039Y011989D02*
X014393Y011989D01*
X014092Y011892D02*
X016152Y011892D01*
X016086Y011989D02*
X014879Y011989D01*
X014941Y012086D02*
X014960Y012086D01*
X014960Y012183D02*
X014943Y012183D01*
X015227Y012269D02*
X015731Y012269D01*
X015570Y012086D02*
X015493Y012086D01*
X015492Y012473D02*
X015590Y012473D01*
X015873Y012473D02*
X016422Y012473D01*
X016325Y012376D02*
X015951Y012376D01*
X015976Y012279D02*
X016176Y012279D01*
X016096Y012183D02*
X015960Y012183D01*
X015893Y012086D02*
X016071Y012086D01*
X016479Y011892D02*
X017829Y011892D01*
X017732Y011795D02*
X014099Y011795D01*
X014066Y011698D02*
X017635Y011698D01*
X017890Y011504D02*
X017960Y011504D01*
X017960Y011407D02*
X017793Y011407D01*
X017960Y011989D02*
X016545Y011989D01*
X016622Y012086D02*
X017960Y012086D01*
X018193Y012376D02*
X016912Y012376D01*
X017009Y012473D02*
X018064Y012473D01*
X020031Y010632D02*
X014803Y010632D01*
X015836Y009469D02*
X016106Y009469D01*
X016059Y009372D02*
X015883Y009372D01*
X015883Y009275D02*
X016059Y009275D01*
X016059Y009178D02*
X015883Y009178D01*
X015883Y008693D02*
X018271Y008693D01*
X018245Y008984D02*
X017380Y008984D01*
X018766Y009178D02*
X018766Y009178D01*
X018766Y009275D02*
X018766Y009275D01*
X018766Y009372D02*
X018766Y009372D01*
X019258Y009372D02*
X019308Y009372D01*
X019269Y009662D02*
X019780Y009662D01*
X019780Y009759D02*
X019382Y009759D01*
X019429Y009856D02*
X019780Y009856D01*
X019780Y009953D02*
X019446Y009953D01*
X019440Y010050D02*
X019780Y010050D01*
X020092Y010244D02*
X020504Y010244D01*
X020416Y010147D02*
X019400Y010147D01*
X020189Y010341D02*
X022071Y010341D01*
X022071Y010438D02*
X020286Y010438D01*
X020383Y010535D02*
X022071Y010535D01*
X022071Y010632D02*
X020479Y010632D01*
X020576Y010729D02*
X022071Y010729D01*
X022071Y010826D02*
X020673Y010826D01*
X020770Y010923D02*
X022071Y010923D01*
X022071Y011019D02*
X020867Y011019D01*
X020964Y011116D02*
X022071Y011116D01*
X022071Y011213D02*
X021061Y011213D01*
X021158Y011310D02*
X022071Y011310D01*
X022071Y011407D02*
X021610Y011407D01*
X021706Y011504D02*
X022071Y011504D01*
X022071Y011601D02*
X021753Y011601D01*
X021779Y011698D02*
X022071Y011698D01*
X022071Y011795D02*
X021779Y011795D01*
X021805Y012861D02*
X022071Y012861D01*
X022071Y012958D02*
X021766Y012958D01*
X021696Y013055D02*
X022071Y013055D01*
X022071Y013152D02*
X021563Y013152D01*
X021399Y010244D02*
X022071Y010244D01*
X022071Y010147D02*
X021487Y010147D01*
X021961Y003847D02*
X022071Y003847D01*
X022071Y003750D02*
X021967Y003750D01*
X021967Y003653D02*
X022071Y003653D01*
X022071Y003556D02*
X021967Y003556D01*
X021651Y003362D02*
X021552Y003362D01*
X021552Y003265D02*
X021651Y003265D01*
X021651Y003168D02*
X021552Y003168D01*
X021552Y003072D02*
X021651Y003072D01*
X021651Y002975D02*
X021552Y002975D01*
X021552Y002878D02*
X021651Y002878D01*
X021402Y002684D02*
X022071Y002684D01*
X022071Y002587D02*
X021653Y002587D01*
X021821Y002490D02*
X022071Y002490D01*
X022071Y002393D02*
X021935Y002393D01*
X022032Y002296D02*
X022071Y002296D01*
X011824Y011989D02*
X011818Y011989D01*
X011818Y012086D02*
X011921Y012086D01*
X011875Y012183D02*
X012018Y012183D01*
X013314Y014681D02*
X013314Y015922D01*
X007036Y012861D02*
X006795Y012861D01*
X006698Y012958D02*
X006939Y012958D01*
X006842Y013055D02*
X006601Y013055D01*
X006504Y013152D02*
X006745Y013152D01*
X006648Y013249D02*
X006407Y013249D01*
X006310Y013346D02*
X006551Y013346D01*
X006454Y013443D02*
X006214Y013443D01*
X006117Y013539D02*
X006358Y013539D01*
X006261Y013636D02*
X006020Y013636D01*
X005923Y013733D02*
X006164Y013733D01*
X006067Y013830D02*
X005826Y013830D01*
X005729Y013927D02*
X005970Y013927D01*
X005873Y014024D02*
X005632Y014024D01*
X005535Y014121D02*
X005776Y014121D01*
X005875Y017320D02*
X004532Y017320D01*
X004609Y017417D02*
X005822Y017417D01*
X005822Y017513D02*
X004649Y017513D01*
X004663Y017610D02*
X005822Y017610D01*
X005822Y017707D02*
X004663Y017707D01*
X004629Y017804D02*
X005822Y017804D01*
X005822Y017901D02*
X004580Y017901D01*
X004483Y017998D02*
X005822Y017998D01*
X004268Y019064D02*
X004170Y019064D01*
X004170Y019061D02*
X004170Y019494D01*
X004106Y019484D01*
X004033Y019461D01*
X003965Y019426D01*
X003904Y019381D01*
X003850Y019327D01*
X003805Y019266D01*
X003771Y019198D01*
X003747Y019126D01*
X003737Y019061D01*
X004170Y019061D01*
X004170Y018967D02*
X002747Y018967D01*
X002773Y018870D02*
X003756Y018870D01*
X003798Y018773D02*
X002793Y018773D01*
X002793Y018677D02*
X003870Y018677D01*
X004002Y018580D02*
X002793Y018580D01*
X002721Y019064D02*
X003737Y019064D01*
X003759Y019161D02*
X002687Y019161D01*
X002631Y019258D02*
X003801Y019258D01*
X003878Y019355D02*
X002575Y019355D01*
X002514Y019452D02*
X004016Y019452D01*
X004170Y019452D02*
X004268Y019452D01*
X004268Y019355D02*
X004170Y019355D01*
X004170Y019258D02*
X004268Y019258D01*
X004268Y019161D02*
X004170Y019161D01*
X006413Y010438D02*
X000422Y010438D01*
X000422Y010341D02*
X006413Y010341D01*
X003420Y008112D02*
X000422Y008112D01*
X000422Y008015D02*
X003372Y008015D01*
X003372Y007918D02*
X000422Y007918D01*
X000422Y007821D02*
X003372Y007821D01*
X003372Y007724D02*
X000422Y007724D01*
X000422Y007627D02*
X003372Y007627D01*
X003372Y007530D02*
X000422Y007530D01*
X000422Y007433D02*
X003372Y007433D01*
X005989Y004235D02*
X000422Y004235D01*
X000422Y004138D02*
X003383Y004138D01*
X003372Y004041D02*
X000422Y004041D01*
X000422Y003944D02*
X003372Y003944D01*
X003372Y003847D02*
X000422Y003847D01*
X000422Y003750D02*
X003372Y003750D01*
X003372Y003653D02*
X000422Y003653D01*
X000422Y003556D02*
X003372Y003556D01*
X003397Y003459D02*
X000422Y003459D01*
X000422Y003362D02*
X005707Y003362D01*
X005804Y003459D02*
X004903Y003459D01*
X004929Y003556D02*
X005901Y003556D01*
X004150Y001837D02*
X003225Y001837D01*
X002748Y001327D02*
X004937Y001327D01*
X004937Y001230D02*
X002763Y001230D01*
X002763Y001133D02*
X004959Y001133D01*
X004985Y001036D02*
X002763Y001036D01*
X002763Y000939D02*
X005011Y000939D01*
X005048Y000842D02*
X002763Y000842D01*
X002763Y000745D02*
X005104Y000745D01*
X005160Y000648D02*
X002763Y000648D01*
X002763Y000551D02*
X005224Y000551D01*
X005321Y000455D02*
X002763Y000455D01*
X010200Y000455D02*
X010240Y000455D01*
X010479Y003431D02*
X010479Y003924D01*
D29*
X010508Y004494D03*
X010066Y004494D03*
X009908Y005282D03*
X010282Y005577D03*
X009908Y006424D03*
X010636Y006758D03*
X010282Y007782D03*
X009908Y007644D03*
X010636Y008215D03*
X009908Y008628D03*
X010282Y008924D03*
X011129Y009494D03*
X011463Y009120D03*
X012447Y008766D03*
X012802Y009494D03*
X013569Y009494D03*
X013825Y009120D03*
X014613Y007939D03*
X014987Y008195D03*
X014987Y007132D03*
X014199Y006758D03*
X014987Y005872D03*
X014613Y005577D03*
X014987Y005183D03*
X013884Y004416D03*
X013629Y004790D03*
X012802Y004416D03*
X012447Y005144D03*
X011699Y004790D03*
X011680Y004416D03*
X012477Y003313D03*
X012772Y003018D03*
X013068Y003313D03*
X012182Y003018D03*
X015223Y003853D03*
X017482Y005046D03*
X017054Y007398D03*
X018058Y009160D03*
X020154Y006561D03*
X020145Y005046D03*
X013855Y011827D03*
X015731Y012269D03*
X016316Y012073D03*
X014298Y014681D03*
X013314Y014681D03*
X012329Y014681D03*
X011345Y014681D03*
X005341Y008727D03*
X005341Y007743D03*
X005341Y006758D03*
X005341Y005774D03*
X006227Y003067D03*
X003225Y001837D03*
X008491Y006660D03*
X008737Y007054D03*
X008491Y007349D03*
X008786Y007743D03*
D30*
X014258Y003117D02*
X014258Y002900D01*
X013136Y001778D01*
X014770Y002900D02*
X015892Y001778D01*
X014770Y002900D02*
X014770Y003117D01*
X017054Y007398D02*
X016955Y007496D01*
X016955Y007900D01*
X017703Y007900D02*
X018766Y007900D01*
X018766Y009160D02*
X018058Y009160D01*
X016316Y012073D02*
X016988Y012746D01*
X018370Y012746D01*
D31*
X012447Y009475D02*
X012447Y008766D01*
X012447Y008215D01*
X012447Y006758D01*
X014199Y006758D01*
X014967Y006758D01*
X017482Y005931D02*
X017482Y005046D01*
X017482Y003412D01*
X020145Y003412D02*
X020145Y005046D01*
X020145Y005931D01*
X012447Y005144D02*
X012447Y004435D01*
X012447Y005144D02*
X012447Y006758D01*
X010636Y006758D01*
X009987Y006758D01*
X009928Y008215D02*
X010636Y008215D01*
X012447Y008215D01*
D32*
X006276Y001394D03*
X021040Y001394D03*
X015971Y015666D03*
X001453Y018619D03*
M02*
