G75*
G70*
%OFA0B0*%
%FSLAX24Y24*%
%IPPOS*%
%LPD*%
%AMOC8*
5,1,8,0,0,1.08239X$1,22.5*
%
%ADD10C,0.0000*%
%ADD11C,0.0050*%
%ADD12C,0.0079*%
%ADD13C,0.0472*%
%ADD14C,0.0197*%
%ADD15C,0.0010*%
%ADD16C,0.0040*%
%ADD17C,0.0080*%
%ADD18C,0.0030*%
%ADD19R,0.0098X0.0098*%
%ADD20C,0.0060*%
D10*
X000223Y000164D02*
X000223Y019849D01*
X022270Y019849D01*
X022270Y000164D01*
X000223Y000164D01*
X000572Y000479D02*
X001202Y000479D01*
X001202Y000715D01*
X001911Y000715D01*
X001911Y000479D01*
X002541Y000479D01*
X002541Y000951D01*
X002265Y000951D01*
X002265Y001148D01*
X000848Y001148D01*
X000848Y000951D01*
X002265Y000951D01*
X002423Y000951D02*
X002423Y001246D01*
X000691Y001246D01*
X000691Y000951D01*
X000572Y000951D02*
X000848Y000951D01*
X000572Y000951D02*
X000572Y000479D01*
X000691Y001246D02*
X000100Y001246D01*
X000100Y009317D01*
X000691Y009317D01*
X002423Y009317D01*
X003643Y009317D01*
X003643Y008983D01*
X003368Y008914D01*
X003368Y008884D01*
X003446Y008884D01*
X003446Y008569D01*
X003613Y008569D01*
X003613Y008884D01*
X003446Y008884D01*
X003368Y008884D02*
X003368Y008569D01*
X003446Y008569D01*
X003368Y008569D02*
X003368Y008540D01*
X003643Y008471D01*
X003643Y008569D01*
X003613Y008569D02*
X004352Y008569D01*
X004367Y008571D01*
X004382Y008575D01*
X004396Y008582D01*
X004408Y008592D01*
X004418Y008604D01*
X004425Y008618D01*
X004429Y008633D01*
X004431Y008648D01*
X004431Y008806D01*
X004429Y008821D01*
X004425Y008836D01*
X004418Y008850D01*
X004408Y008862D01*
X004396Y008872D01*
X004382Y008879D01*
X004367Y008883D01*
X004352Y008885D01*
X004352Y008884D02*
X003613Y008884D01*
X003643Y008884D02*
X003643Y008983D01*
X003643Y008471D02*
X003643Y007998D01*
X003643Y007900D01*
X003613Y007900D02*
X003446Y007900D01*
X003446Y007585D01*
X003613Y007585D01*
X003613Y007900D01*
X004352Y007900D01*
X004367Y007898D01*
X004382Y007894D01*
X004396Y007887D01*
X004408Y007877D01*
X004418Y007865D01*
X004425Y007851D01*
X004429Y007836D01*
X004431Y007821D01*
X004431Y007664D01*
X004429Y007649D01*
X004425Y007634D01*
X004418Y007620D01*
X004408Y007608D01*
X004396Y007598D01*
X004382Y007591D01*
X004367Y007587D01*
X004352Y007585D01*
X003613Y007585D01*
X003643Y007585D02*
X003643Y007487D01*
X003368Y007556D01*
X003368Y007585D01*
X003446Y007585D01*
X003368Y007585D02*
X003368Y007900D01*
X003446Y007900D01*
X003368Y007900D02*
X003368Y007930D01*
X003643Y007998D01*
X003643Y007487D02*
X003643Y007014D01*
X003368Y006945D01*
X003368Y006916D01*
X003446Y006916D01*
X003446Y006601D01*
X003368Y006601D01*
X003368Y006916D01*
X003446Y006916D02*
X003613Y006916D01*
X003613Y006601D01*
X003446Y006601D01*
X003368Y006601D02*
X003368Y006571D01*
X003643Y006502D01*
X003643Y006030D01*
X003643Y005931D01*
X003613Y005931D02*
X003446Y005931D01*
X003446Y005617D01*
X003613Y005617D01*
X003613Y005931D01*
X004352Y005931D01*
X004352Y005932D02*
X004367Y005930D01*
X004382Y005926D01*
X004396Y005919D01*
X004408Y005909D01*
X004418Y005897D01*
X004425Y005883D01*
X004429Y005868D01*
X004431Y005853D01*
X004431Y005695D01*
X004429Y005680D01*
X004425Y005665D01*
X004418Y005651D01*
X004408Y005639D01*
X004396Y005629D01*
X004382Y005622D01*
X004367Y005618D01*
X004352Y005616D01*
X004352Y005617D02*
X003613Y005617D01*
X003643Y005617D02*
X003643Y005518D01*
X003643Y005046D01*
X003643Y004947D01*
X003613Y004947D02*
X003613Y004632D01*
X003446Y004632D01*
X003368Y004632D01*
X003368Y004947D01*
X003446Y004947D01*
X003613Y004947D01*
X004352Y004947D01*
X004352Y004948D02*
X004367Y004946D01*
X004382Y004942D01*
X004396Y004935D01*
X004408Y004925D01*
X004418Y004913D01*
X004425Y004899D01*
X004429Y004884D01*
X004431Y004869D01*
X004431Y004711D01*
X004429Y004696D01*
X004425Y004681D01*
X004418Y004667D01*
X004408Y004655D01*
X004396Y004645D01*
X004382Y004638D01*
X004367Y004634D01*
X004352Y004632D01*
X003613Y004632D01*
X003643Y004632D02*
X003643Y004534D01*
X003643Y004061D01*
X003643Y003963D01*
X003613Y003963D02*
X003613Y003648D01*
X003446Y003648D01*
X003446Y003963D01*
X003613Y003963D01*
X004352Y003963D01*
X004367Y003961D01*
X004382Y003957D01*
X004396Y003950D01*
X004408Y003940D01*
X004418Y003928D01*
X004425Y003914D01*
X004429Y003899D01*
X004431Y003884D01*
X004431Y003727D01*
X004429Y003712D01*
X004425Y003697D01*
X004418Y003683D01*
X004408Y003671D01*
X004396Y003661D01*
X004382Y003654D01*
X004367Y003650D01*
X004352Y003648D01*
X003613Y003648D01*
X003643Y003648D02*
X003643Y003550D01*
X003643Y003077D01*
X003368Y003008D01*
X003368Y002979D01*
X003368Y002664D01*
X003368Y002634D01*
X003643Y002565D01*
X003643Y002664D01*
X003613Y002664D02*
X003613Y002979D01*
X003446Y002979D01*
X003446Y002664D01*
X003368Y002664D01*
X003446Y002664D02*
X003613Y002664D01*
X004352Y002664D01*
X004367Y002666D01*
X004382Y002670D01*
X004396Y002677D01*
X004408Y002687D01*
X004418Y002699D01*
X004425Y002713D01*
X004429Y002728D01*
X004431Y002743D01*
X004431Y002900D01*
X004429Y002915D01*
X004425Y002930D01*
X004418Y002944D01*
X004408Y002956D01*
X004396Y002966D01*
X004382Y002973D01*
X004367Y002977D01*
X004352Y002979D01*
X003613Y002979D01*
X003643Y002979D02*
X003643Y003077D01*
X003446Y002979D02*
X003368Y002979D01*
X003643Y002565D02*
X003643Y002093D01*
X003643Y001994D01*
X003613Y001994D02*
X003613Y001680D01*
X003446Y001680D01*
X003446Y001994D01*
X003613Y001994D01*
X004352Y001994D01*
X004352Y001995D02*
X004367Y001993D01*
X004382Y001989D01*
X004396Y001982D01*
X004408Y001972D01*
X004418Y001960D01*
X004425Y001946D01*
X004429Y001931D01*
X004431Y001916D01*
X004431Y001758D01*
X004429Y001743D01*
X004425Y001728D01*
X004418Y001714D01*
X004408Y001702D01*
X004396Y001692D01*
X004382Y001685D01*
X004367Y001681D01*
X004352Y001679D01*
X004352Y001680D02*
X003613Y001680D01*
X003643Y001680D02*
X003643Y001581D01*
X003643Y001246D01*
X002423Y001246D01*
X003368Y001650D02*
X003368Y001680D01*
X003368Y001994D01*
X003368Y002024D01*
X003643Y002093D01*
X003446Y001994D02*
X003368Y001994D01*
X003368Y001680D02*
X003446Y001680D01*
X003368Y001650D02*
X003643Y001581D01*
X003643Y003550D02*
X003368Y003619D01*
X003368Y003648D01*
X003368Y003963D01*
X003368Y003993D01*
X003643Y004061D01*
X003446Y003963D02*
X003368Y003963D01*
X003368Y003648D02*
X003446Y003648D01*
X003643Y004534D02*
X003368Y004603D01*
X003368Y004632D01*
X003446Y004632D02*
X003446Y004947D01*
X003368Y004947D02*
X003368Y004977D01*
X003643Y005046D01*
X003643Y005518D02*
X003368Y005587D01*
X003368Y005617D01*
X003446Y005617D01*
X003368Y005617D02*
X003368Y005931D01*
X003446Y005931D01*
X003368Y005931D02*
X003368Y005961D01*
X003643Y006030D01*
X003643Y006502D02*
X003643Y006601D01*
X003613Y006601D02*
X004352Y006601D01*
X004367Y006603D01*
X004382Y006607D01*
X004396Y006614D01*
X004408Y006624D01*
X004418Y006636D01*
X004425Y006650D01*
X004429Y006665D01*
X004431Y006680D01*
X004431Y006837D01*
X004429Y006852D01*
X004425Y006867D01*
X004418Y006881D01*
X004408Y006893D01*
X004396Y006903D01*
X004382Y006910D01*
X004367Y006914D01*
X004352Y006916D01*
X003613Y006916D01*
X003643Y006916D02*
X003643Y007014D01*
X002423Y009317D02*
X002423Y009613D01*
X002541Y009613D02*
X002265Y009613D01*
X002265Y009416D01*
X000848Y009416D01*
X000848Y009613D01*
X002265Y009613D01*
X002541Y009613D02*
X002541Y010085D01*
X001911Y010085D01*
X001911Y009849D01*
X001202Y009849D01*
X001202Y010085D01*
X000572Y010085D01*
X000572Y009613D01*
X000848Y009613D01*
X000691Y009613D02*
X000691Y009317D01*
X000572Y010715D02*
X001202Y010715D01*
X001202Y010951D01*
X001911Y010951D01*
X001911Y010715D01*
X002541Y010715D01*
X002541Y011187D01*
X002265Y011187D01*
X000848Y011187D01*
X000848Y011384D01*
X002265Y011384D01*
X002265Y011187D01*
X002423Y011187D02*
X002423Y011483D01*
X000691Y011483D01*
X000691Y011187D01*
X000572Y011187D02*
X000848Y011187D01*
X000572Y011187D02*
X000572Y010715D01*
X000691Y011483D02*
X000100Y011483D01*
X000100Y015617D01*
X000691Y015617D01*
X000691Y015912D01*
X000572Y015912D02*
X000848Y015912D01*
X000848Y015715D01*
X002265Y015715D01*
X002265Y015912D01*
X000848Y015912D01*
X000572Y015912D02*
X000572Y016384D01*
X001202Y016384D01*
X001202Y016148D01*
X001911Y016148D01*
X001911Y016384D01*
X002541Y016384D01*
X002541Y015912D01*
X002265Y015912D01*
X002423Y015912D02*
X002423Y015617D01*
X003643Y015617D01*
X003643Y015282D01*
X003368Y015213D01*
X003368Y015183D01*
X003368Y014869D01*
X003368Y014839D01*
X003643Y014770D01*
X003643Y014869D01*
X003613Y014869D02*
X003613Y015183D01*
X003446Y015183D01*
X003446Y014869D01*
X003613Y014869D01*
X004352Y014869D01*
X004352Y014868D02*
X004367Y014870D01*
X004382Y014874D01*
X004396Y014881D01*
X004408Y014891D01*
X004418Y014903D01*
X004425Y014917D01*
X004429Y014932D01*
X004431Y014947D01*
X004431Y015105D01*
X004429Y015120D01*
X004425Y015135D01*
X004418Y015149D01*
X004408Y015161D01*
X004396Y015171D01*
X004382Y015178D01*
X004367Y015182D01*
X004352Y015184D01*
X004352Y015183D02*
X003613Y015183D01*
X003643Y015183D02*
X003643Y015282D01*
X003446Y015183D02*
X003368Y015183D01*
X003368Y014869D02*
X003446Y014869D01*
X003643Y014770D02*
X003643Y014298D01*
X003643Y014199D01*
X003613Y014199D02*
X003613Y013884D01*
X004352Y013884D01*
X004367Y013886D01*
X004382Y013890D01*
X004396Y013897D01*
X004408Y013907D01*
X004418Y013919D01*
X004425Y013933D01*
X004429Y013948D01*
X004431Y013963D01*
X004431Y014120D01*
X004429Y014135D01*
X004425Y014150D01*
X004418Y014164D01*
X004408Y014176D01*
X004396Y014186D01*
X004382Y014193D01*
X004367Y014197D01*
X004352Y014199D01*
X003613Y014199D01*
X003446Y014199D01*
X003446Y013884D01*
X003368Y013884D01*
X003368Y014199D01*
X003368Y014229D01*
X003643Y014298D01*
X003446Y014199D02*
X003368Y014199D01*
X003368Y013884D02*
X003368Y013855D01*
X003643Y013786D01*
X003643Y013313D01*
X003368Y013244D01*
X003368Y013215D01*
X003446Y013215D01*
X003613Y013215D01*
X004352Y013215D01*
X004367Y013213D01*
X004382Y013209D01*
X004396Y013202D01*
X004408Y013192D01*
X004418Y013180D01*
X004425Y013166D01*
X004429Y013151D01*
X004431Y013136D01*
X004431Y012979D01*
X004429Y012964D01*
X004425Y012949D01*
X004418Y012935D01*
X004408Y012923D01*
X004396Y012913D01*
X004382Y012906D01*
X004367Y012902D01*
X004352Y012900D01*
X003613Y012900D01*
X003446Y012900D01*
X003368Y012900D01*
X003368Y012870D01*
X003643Y012802D01*
X003643Y012329D01*
X003368Y012260D01*
X003368Y012231D01*
X003368Y011916D01*
X003368Y011886D01*
X003643Y011817D01*
X003643Y011483D01*
X002423Y011483D01*
X003368Y011916D02*
X003446Y011916D01*
X003613Y011916D01*
X004352Y011916D01*
X004352Y011915D02*
X004367Y011917D01*
X004382Y011921D01*
X004396Y011928D01*
X004408Y011938D01*
X004418Y011950D01*
X004425Y011964D01*
X004429Y011979D01*
X004431Y011994D01*
X004431Y012152D01*
X004429Y012167D01*
X004425Y012182D01*
X004418Y012196D01*
X004408Y012208D01*
X004396Y012218D01*
X004382Y012225D01*
X004367Y012229D01*
X004352Y012231D01*
X003613Y012231D01*
X003446Y012231D01*
X003446Y011916D01*
X003613Y011916D02*
X003613Y012231D01*
X003643Y012231D02*
X003643Y012329D01*
X003446Y012231D02*
X003368Y012231D01*
X003643Y011916D02*
X003643Y011817D01*
X003643Y012802D02*
X003643Y012900D01*
X003613Y012900D02*
X003613Y013215D01*
X003643Y013215D02*
X003643Y013313D01*
X003446Y013215D02*
X003446Y012900D01*
X003368Y012900D02*
X003368Y013215D01*
X003643Y013786D02*
X003643Y013884D01*
X003613Y013884D02*
X003446Y013884D01*
X002423Y015617D02*
X000691Y015617D01*
X006050Y017531D02*
X006522Y017531D01*
X006522Y017806D01*
X006719Y017806D01*
X006719Y019224D01*
X006522Y019224D01*
X006522Y017806D01*
X006522Y017649D02*
X006818Y017649D01*
X006818Y019381D01*
X006522Y019381D01*
X006522Y019499D02*
X006522Y019224D01*
X006286Y018869D02*
X006050Y018869D01*
X006050Y019499D01*
X006522Y019499D01*
X006818Y019381D02*
X006818Y019972D01*
X014888Y019972D01*
X014888Y019381D01*
X014888Y017649D01*
X014888Y016429D01*
X014554Y016429D01*
X014485Y016704D01*
X014455Y016704D01*
X014455Y016625D01*
X014140Y016625D01*
X014140Y016458D01*
X014455Y016458D01*
X014455Y016625D01*
X014455Y016704D02*
X014140Y016704D01*
X014140Y016625D01*
X014140Y016704D02*
X014111Y016704D01*
X014042Y016429D01*
X014140Y016429D01*
X014140Y016458D02*
X014140Y015720D01*
X014142Y015705D01*
X014146Y015690D01*
X014153Y015676D01*
X014163Y015664D01*
X014175Y015654D01*
X014189Y015647D01*
X014204Y015643D01*
X014219Y015641D01*
X014377Y015641D01*
X014392Y015643D01*
X014407Y015647D01*
X014421Y015654D01*
X014433Y015664D01*
X014443Y015676D01*
X014450Y015690D01*
X014454Y015705D01*
X014456Y015720D01*
X014455Y015720D02*
X014455Y016458D01*
X014455Y016429D02*
X014554Y016429D01*
X014042Y016429D02*
X013569Y016429D01*
X013471Y016429D01*
X013471Y016458D02*
X013471Y016625D01*
X013156Y016625D01*
X013156Y016458D01*
X013471Y016458D01*
X013471Y015720D01*
X013469Y015705D01*
X013465Y015690D01*
X013458Y015676D01*
X013448Y015664D01*
X013436Y015654D01*
X013422Y015647D01*
X013407Y015643D01*
X013392Y015641D01*
X013235Y015641D01*
X013220Y015643D01*
X013205Y015647D01*
X013191Y015654D01*
X013179Y015664D01*
X013169Y015676D01*
X013162Y015690D01*
X013158Y015705D01*
X013156Y015720D01*
X013156Y016458D01*
X013156Y016429D02*
X013058Y016429D01*
X013127Y016704D01*
X013156Y016704D01*
X013156Y016625D01*
X013156Y016704D02*
X013471Y016704D01*
X013471Y016625D01*
X013471Y016704D02*
X013501Y016704D01*
X013569Y016429D01*
X013058Y016429D02*
X012585Y016429D01*
X012516Y016704D01*
X012487Y016704D01*
X012487Y016625D01*
X012172Y016625D01*
X012172Y016704D01*
X012487Y016704D01*
X012487Y016625D02*
X012487Y016458D01*
X012172Y016458D01*
X012172Y016625D01*
X012172Y016704D02*
X012142Y016704D01*
X012073Y016429D01*
X011601Y016429D01*
X011503Y016429D01*
X011503Y016458D02*
X011503Y016625D01*
X011188Y016625D01*
X011188Y016458D01*
X011503Y016458D01*
X011503Y015720D01*
X011501Y015705D01*
X011497Y015690D01*
X011490Y015676D01*
X011480Y015664D01*
X011468Y015654D01*
X011454Y015647D01*
X011439Y015643D01*
X011424Y015641D01*
X011266Y015641D01*
X011251Y015643D01*
X011236Y015647D01*
X011222Y015654D01*
X011210Y015664D01*
X011200Y015676D01*
X011193Y015690D01*
X011189Y015705D01*
X011187Y015720D01*
X011188Y015720D02*
X011188Y016458D01*
X011188Y016429D02*
X011089Y016429D01*
X010617Y016429D01*
X010518Y016429D01*
X010518Y016458D02*
X010203Y016458D01*
X010203Y016625D01*
X010203Y016704D01*
X010518Y016704D01*
X010518Y016625D01*
X010518Y016458D01*
X010518Y015720D01*
X010519Y015720D02*
X010517Y015705D01*
X010513Y015690D01*
X010506Y015676D01*
X010496Y015664D01*
X010484Y015654D01*
X010470Y015647D01*
X010455Y015643D01*
X010440Y015641D01*
X010282Y015641D01*
X010267Y015643D01*
X010252Y015647D01*
X010238Y015654D01*
X010226Y015664D01*
X010216Y015676D01*
X010209Y015690D01*
X010205Y015705D01*
X010203Y015720D01*
X010203Y016458D01*
X010203Y016429D02*
X010105Y016429D01*
X009632Y016429D01*
X009534Y016429D01*
X009534Y016458D02*
X009219Y016458D01*
X009219Y016625D01*
X009534Y016625D01*
X009534Y016458D01*
X009534Y015720D01*
X009532Y015705D01*
X009528Y015690D01*
X009521Y015676D01*
X009511Y015664D01*
X009499Y015654D01*
X009485Y015647D01*
X009470Y015643D01*
X009455Y015641D01*
X009298Y015641D01*
X009283Y015643D01*
X009268Y015647D01*
X009254Y015654D01*
X009242Y015664D01*
X009232Y015676D01*
X009225Y015690D01*
X009221Y015705D01*
X009219Y015720D01*
X009219Y016458D01*
X009219Y016429D02*
X009121Y016429D01*
X008648Y016429D01*
X008579Y016704D01*
X008550Y016704D01*
X008235Y016704D01*
X008205Y016704D01*
X008136Y016429D01*
X008235Y016429D01*
X008235Y016458D02*
X008550Y016458D01*
X008550Y016625D01*
X008235Y016625D01*
X008235Y016704D01*
X008235Y016625D02*
X008235Y016458D01*
X008235Y015720D01*
X008237Y015705D01*
X008241Y015690D01*
X008248Y015676D01*
X008258Y015664D01*
X008270Y015654D01*
X008284Y015647D01*
X008299Y015643D01*
X008314Y015641D01*
X008471Y015641D01*
X008486Y015643D01*
X008501Y015647D01*
X008515Y015654D01*
X008527Y015664D01*
X008537Y015676D01*
X008544Y015690D01*
X008548Y015705D01*
X008550Y015720D01*
X008550Y016458D01*
X008550Y016429D02*
X008648Y016429D01*
X008550Y016625D02*
X008550Y016704D01*
X008136Y016429D02*
X007664Y016429D01*
X007566Y016429D01*
X007566Y016458D02*
X007251Y016458D01*
X007251Y016625D01*
X007566Y016625D01*
X007566Y016458D01*
X007566Y015720D01*
X007564Y015705D01*
X007560Y015690D01*
X007553Y015676D01*
X007543Y015664D01*
X007531Y015654D01*
X007517Y015647D01*
X007502Y015643D01*
X007487Y015641D01*
X007329Y015641D01*
X007314Y015643D01*
X007299Y015647D01*
X007285Y015654D01*
X007273Y015664D01*
X007263Y015676D01*
X007256Y015690D01*
X007252Y015705D01*
X007250Y015720D01*
X007251Y015720D02*
X007251Y016458D01*
X007251Y016429D02*
X007152Y016429D01*
X006818Y016429D01*
X006818Y017649D01*
X006286Y018161D02*
X006050Y018161D01*
X006050Y017531D01*
X006286Y018161D02*
X006286Y018869D01*
X007221Y016704D02*
X007251Y016704D01*
X007566Y016704D01*
X007595Y016704D01*
X007664Y016429D01*
X007566Y016625D02*
X007566Y016704D01*
X007251Y016704D02*
X007251Y016625D01*
X007221Y016704D02*
X007152Y016429D01*
X009121Y016429D02*
X009190Y016704D01*
X009219Y016704D01*
X009534Y016704D01*
X009564Y016704D01*
X009632Y016429D01*
X009534Y016625D02*
X009534Y016704D01*
X009219Y016704D02*
X009219Y016625D01*
X010105Y016429D02*
X010174Y016704D01*
X010203Y016704D01*
X010203Y016625D02*
X010518Y016625D01*
X010518Y016704D02*
X010548Y016704D01*
X010617Y016429D01*
X011089Y016429D02*
X011158Y016704D01*
X011188Y016704D01*
X011188Y016625D01*
X011188Y016704D02*
X011503Y016704D01*
X011503Y016625D01*
X011503Y016704D02*
X011532Y016704D01*
X011601Y016429D01*
X012073Y016429D02*
X012172Y016429D01*
X012172Y016458D02*
X012172Y015720D01*
X012174Y015705D01*
X012178Y015690D01*
X012185Y015676D01*
X012195Y015664D01*
X012207Y015654D01*
X012221Y015647D01*
X012236Y015643D01*
X012251Y015641D01*
X012408Y015641D01*
X012423Y015643D01*
X012438Y015647D01*
X012452Y015654D01*
X012464Y015664D01*
X012474Y015676D01*
X012481Y015690D01*
X012485Y015705D01*
X012487Y015720D01*
X012487Y016458D01*
X012487Y016429D02*
X012585Y016429D01*
X014888Y017649D02*
X015184Y017649D01*
X015184Y017531D02*
X015656Y017531D01*
X015656Y018161D01*
X015420Y018161D01*
X015420Y018869D01*
X015656Y018869D01*
X015656Y019499D01*
X015184Y019499D01*
X015184Y019224D01*
X014987Y019224D01*
X014987Y017806D01*
X015184Y017806D01*
X015184Y019224D01*
X015184Y019381D02*
X014888Y019381D01*
X016286Y019499D02*
X016286Y018869D01*
X016522Y018869D01*
X016522Y018161D01*
X016286Y018161D01*
X016286Y017531D01*
X016758Y017531D01*
X016758Y017806D01*
X016758Y019224D01*
X016955Y019224D01*
X016955Y017806D01*
X016758Y017806D01*
X016758Y017649D02*
X017054Y017649D01*
X017054Y019381D01*
X016758Y019381D01*
X016758Y019499D02*
X016758Y019224D01*
X016758Y019499D02*
X016286Y019499D01*
X017054Y019381D02*
X017054Y019972D01*
X021188Y019972D01*
X021188Y019381D01*
X021483Y019381D01*
X021483Y019499D02*
X021483Y019224D01*
X021286Y019224D01*
X021286Y017806D01*
X021483Y017806D01*
X021483Y019224D01*
X021188Y019381D02*
X021188Y017649D01*
X021483Y017649D01*
X021483Y017531D02*
X021955Y017531D01*
X021955Y018161D01*
X021719Y018161D01*
X021719Y018869D01*
X021955Y018869D01*
X021955Y019499D01*
X021483Y019499D01*
X021483Y017806D02*
X021483Y017531D01*
X021188Y017649D02*
X021188Y016429D01*
X020853Y016429D01*
X020784Y016704D01*
X020755Y016704D01*
X020440Y016704D01*
X020410Y016704D01*
X020341Y016429D01*
X020440Y016429D01*
X020440Y016458D02*
X020440Y015720D01*
X020439Y015720D02*
X020441Y015705D01*
X020445Y015690D01*
X020452Y015676D01*
X020462Y015664D01*
X020474Y015654D01*
X020488Y015647D01*
X020503Y015643D01*
X020518Y015641D01*
X020676Y015641D01*
X020691Y015643D01*
X020706Y015647D01*
X020720Y015654D01*
X020732Y015664D01*
X020742Y015676D01*
X020749Y015690D01*
X020753Y015705D01*
X020755Y015720D01*
X020755Y016458D01*
X020755Y016625D01*
X020440Y016625D01*
X020440Y016458D01*
X020755Y016458D01*
X020755Y016429D02*
X020853Y016429D01*
X020755Y016625D02*
X020755Y016704D01*
X020440Y016704D02*
X020440Y016625D01*
X020341Y016429D02*
X019869Y016429D01*
X019770Y016429D01*
X019770Y016458D02*
X019770Y015720D01*
X019771Y015720D02*
X019769Y015705D01*
X019765Y015690D01*
X019758Y015676D01*
X019748Y015664D01*
X019736Y015654D01*
X019722Y015647D01*
X019707Y015643D01*
X019692Y015641D01*
X019534Y015641D01*
X019519Y015643D01*
X019504Y015647D01*
X019490Y015654D01*
X019478Y015664D01*
X019468Y015676D01*
X019461Y015690D01*
X019457Y015705D01*
X019455Y015720D01*
X019455Y016458D01*
X019770Y016458D01*
X019770Y016625D01*
X019455Y016625D01*
X019455Y016704D01*
X019770Y016704D01*
X019800Y016704D01*
X019869Y016429D01*
X019770Y016625D02*
X019770Y016704D01*
X019455Y016704D02*
X019426Y016704D01*
X019357Y016429D01*
X018884Y016429D01*
X018816Y016704D01*
X018786Y016704D01*
X018786Y016625D01*
X018786Y016458D01*
X018786Y015720D01*
X018784Y015705D01*
X018780Y015690D01*
X018773Y015676D01*
X018763Y015664D01*
X018751Y015654D01*
X018737Y015647D01*
X018722Y015643D01*
X018707Y015641D01*
X018550Y015641D01*
X018535Y015643D01*
X018520Y015647D01*
X018506Y015654D01*
X018494Y015664D01*
X018484Y015676D01*
X018477Y015690D01*
X018473Y015705D01*
X018471Y015720D01*
X018471Y016458D01*
X018471Y016625D01*
X018471Y016704D01*
X018442Y016704D01*
X018373Y016429D01*
X017900Y016429D01*
X017831Y016704D01*
X017802Y016704D01*
X017487Y016704D01*
X017457Y016704D01*
X017388Y016429D01*
X017054Y016429D01*
X017054Y017649D01*
X017487Y016704D02*
X017487Y016625D01*
X017487Y016458D01*
X017487Y015720D01*
X017489Y015705D01*
X017493Y015690D01*
X017500Y015676D01*
X017510Y015664D01*
X017522Y015654D01*
X017536Y015647D01*
X017551Y015643D01*
X017566Y015641D01*
X017723Y015641D01*
X017738Y015643D01*
X017753Y015647D01*
X017767Y015654D01*
X017779Y015664D01*
X017789Y015676D01*
X017796Y015690D01*
X017800Y015705D01*
X017802Y015720D01*
X017802Y016458D01*
X017802Y016625D01*
X017487Y016625D01*
X017487Y016458D02*
X017802Y016458D01*
X017802Y016429D02*
X017900Y016429D01*
X017802Y016625D02*
X017802Y016704D01*
X017487Y016429D02*
X017388Y016429D01*
X018373Y016429D02*
X018471Y016429D01*
X018471Y016458D02*
X018786Y016458D01*
X018786Y016429D02*
X018884Y016429D01*
X018786Y016625D02*
X018471Y016625D01*
X018471Y016704D02*
X018786Y016704D01*
X019357Y016429D02*
X019455Y016429D01*
X019455Y016458D02*
X019455Y016625D01*
X015184Y017531D02*
X015184Y017806D01*
X019475Y009219D02*
X019477Y009245D01*
X019483Y009271D01*
X019493Y009296D01*
X019506Y009319D01*
X019522Y009339D01*
X019542Y009357D01*
X019564Y009372D01*
X019587Y009384D01*
X019613Y009392D01*
X019639Y009396D01*
X019665Y009396D01*
X019691Y009392D01*
X019717Y009384D01*
X019741Y009372D01*
X019762Y009357D01*
X019782Y009339D01*
X019798Y009319D01*
X019811Y009296D01*
X019821Y009271D01*
X019827Y009245D01*
X019829Y009219D01*
X019827Y009193D01*
X019821Y009167D01*
X019811Y009142D01*
X019798Y009119D01*
X019782Y009099D01*
X019762Y009081D01*
X019740Y009066D01*
X019717Y009054D01*
X019691Y009046D01*
X019665Y009042D01*
X019639Y009042D01*
X019613Y009046D01*
X019587Y009054D01*
X019563Y009066D01*
X019542Y009081D01*
X019522Y009099D01*
X019506Y009119D01*
X019493Y009142D01*
X019483Y009167D01*
X019477Y009193D01*
X019475Y009219D01*
X019475Y007841D02*
X019477Y007867D01*
X019483Y007893D01*
X019493Y007918D01*
X019506Y007941D01*
X019522Y007961D01*
X019542Y007979D01*
X019564Y007994D01*
X019587Y008006D01*
X019613Y008014D01*
X019639Y008018D01*
X019665Y008018D01*
X019691Y008014D01*
X019717Y008006D01*
X019741Y007994D01*
X019762Y007979D01*
X019782Y007961D01*
X019798Y007941D01*
X019811Y007918D01*
X019821Y007893D01*
X019827Y007867D01*
X019829Y007841D01*
X019827Y007815D01*
X019821Y007789D01*
X019811Y007764D01*
X019798Y007741D01*
X019782Y007721D01*
X019762Y007703D01*
X019740Y007688D01*
X019717Y007676D01*
X019691Y007668D01*
X019665Y007664D01*
X019639Y007664D01*
X019613Y007668D01*
X019587Y007676D01*
X019563Y007688D01*
X019542Y007703D01*
X019522Y007721D01*
X019506Y007741D01*
X019493Y007764D01*
X019483Y007789D01*
X019477Y007815D01*
X019475Y007841D01*
D11*
X019234Y005695D02*
X017187Y005695D01*
X017187Y003648D01*
X019234Y003648D01*
X019234Y005695D01*
X019849Y005695D02*
X021897Y005695D01*
X021897Y003648D01*
X019849Y003648D01*
X019849Y005695D01*
X020440Y004672D02*
X020442Y004713D01*
X020448Y004754D01*
X020458Y004794D01*
X020471Y004833D01*
X020488Y004870D01*
X020509Y004906D01*
X020533Y004940D01*
X020560Y004971D01*
X020589Y004999D01*
X020622Y005025D01*
X020656Y005047D01*
X020693Y005066D01*
X020731Y005081D01*
X020771Y005093D01*
X020811Y005101D01*
X020852Y005105D01*
X020894Y005105D01*
X020935Y005101D01*
X020975Y005093D01*
X021015Y005081D01*
X021053Y005066D01*
X021089Y005047D01*
X021124Y005025D01*
X021157Y004999D01*
X021186Y004971D01*
X021213Y004940D01*
X021237Y004906D01*
X021258Y004870D01*
X021275Y004833D01*
X021288Y004794D01*
X021298Y004754D01*
X021304Y004713D01*
X021306Y004672D01*
X021304Y004631D01*
X021298Y004590D01*
X021288Y004550D01*
X021275Y004511D01*
X021258Y004474D01*
X021237Y004438D01*
X021213Y004404D01*
X021186Y004373D01*
X021157Y004345D01*
X021124Y004319D01*
X021090Y004297D01*
X021053Y004278D01*
X021015Y004263D01*
X020975Y004251D01*
X020935Y004243D01*
X020894Y004239D01*
X020852Y004239D01*
X020811Y004243D01*
X020771Y004251D01*
X020731Y004263D01*
X020693Y004278D01*
X020657Y004297D01*
X020622Y004319D01*
X020589Y004345D01*
X020560Y004373D01*
X020533Y004404D01*
X020509Y004438D01*
X020488Y004474D01*
X020471Y004511D01*
X020458Y004550D01*
X020448Y004590D01*
X020442Y004631D01*
X020440Y004672D01*
X017777Y004672D02*
X017779Y004713D01*
X017785Y004754D01*
X017795Y004794D01*
X017808Y004833D01*
X017825Y004870D01*
X017846Y004906D01*
X017870Y004940D01*
X017897Y004971D01*
X017926Y004999D01*
X017959Y005025D01*
X017993Y005047D01*
X018030Y005066D01*
X018068Y005081D01*
X018108Y005093D01*
X018148Y005101D01*
X018189Y005105D01*
X018231Y005105D01*
X018272Y005101D01*
X018312Y005093D01*
X018352Y005081D01*
X018390Y005066D01*
X018426Y005047D01*
X018461Y005025D01*
X018494Y004999D01*
X018523Y004971D01*
X018550Y004940D01*
X018574Y004906D01*
X018595Y004870D01*
X018612Y004833D01*
X018625Y004794D01*
X018635Y004754D01*
X018641Y004713D01*
X018643Y004672D01*
X018641Y004631D01*
X018635Y004590D01*
X018625Y004550D01*
X018612Y004511D01*
X018595Y004474D01*
X018574Y004438D01*
X018550Y004404D01*
X018523Y004373D01*
X018494Y004345D01*
X018461Y004319D01*
X018427Y004297D01*
X018390Y004278D01*
X018352Y004263D01*
X018312Y004251D01*
X018272Y004243D01*
X018231Y004239D01*
X018189Y004239D01*
X018148Y004243D01*
X018108Y004251D01*
X018068Y004263D01*
X018030Y004278D01*
X017994Y004297D01*
X017959Y004319D01*
X017926Y004345D01*
X017897Y004373D01*
X017870Y004404D01*
X017846Y004438D01*
X017825Y004474D01*
X017808Y004511D01*
X017795Y004550D01*
X017785Y004590D01*
X017779Y004631D01*
X017777Y004672D01*
X012423Y000735D02*
X012423Y000660D01*
X012347Y000585D01*
X012197Y000585D01*
X012122Y000660D01*
X012122Y000735D01*
X012197Y000810D01*
X012347Y000810D01*
X012423Y000735D01*
X012347Y000585D02*
X012423Y000510D01*
X012423Y000435D01*
X012347Y000360D01*
X012197Y000360D01*
X012122Y000435D01*
X012122Y000510D01*
X012197Y000585D01*
X011887Y000435D02*
X011812Y000360D01*
X011737Y000360D01*
X011662Y000435D01*
X011887Y000435D02*
X011887Y000810D01*
X011812Y000810D02*
X011962Y000810D01*
X011959Y001662D02*
X011959Y002062D01*
X011709Y001862D01*
X011959Y001662D01*
X011959Y001667D02*
X011952Y001667D01*
X011959Y001716D02*
X011891Y001716D01*
X011830Y001764D02*
X011959Y001764D01*
X011959Y001813D02*
X011770Y001813D01*
X011709Y001861D02*
X011959Y001861D01*
X011959Y001910D02*
X011769Y001910D01*
X011830Y001958D02*
X011959Y001958D01*
X011959Y002007D02*
X011890Y002007D01*
X011951Y002055D02*
X011959Y002055D01*
X010915Y002595D02*
X010915Y002895D01*
X010840Y002970D01*
X010689Y002970D01*
X010614Y002895D01*
X010614Y002595D01*
X010689Y002520D01*
X010840Y002520D01*
X010915Y002595D01*
X010454Y002970D02*
X010154Y002520D01*
X009997Y002520D02*
X009847Y002520D01*
X009922Y002520D02*
X009922Y002970D01*
X009847Y002970D02*
X009997Y002970D01*
X009228Y002820D02*
X009153Y002820D01*
X009003Y002670D01*
X009003Y002520D02*
X009003Y002820D01*
X008843Y002745D02*
X008843Y002670D01*
X008543Y002670D01*
X008543Y002595D02*
X008543Y002745D01*
X008618Y002820D01*
X008768Y002820D01*
X008843Y002745D01*
X008768Y002520D02*
X008618Y002520D01*
X008543Y002595D01*
X008383Y002595D02*
X008383Y002670D01*
X008307Y002745D01*
X008157Y002745D01*
X008082Y002820D01*
X008082Y002895D01*
X008157Y002970D01*
X008307Y002970D01*
X008383Y002895D01*
X008383Y002595D02*
X008307Y002520D01*
X008157Y002520D01*
X008082Y002595D01*
X018188Y010621D02*
X018414Y010621D01*
X018489Y010696D01*
X018489Y010996D01*
X018414Y011071D01*
X018188Y011071D01*
X018188Y010621D01*
X018649Y010621D02*
X018949Y010621D01*
X019109Y010621D02*
X019334Y010621D01*
X019409Y010696D01*
X019409Y010771D01*
X019334Y010846D01*
X019109Y010846D01*
X019109Y010621D02*
X019109Y011071D01*
X019334Y011071D01*
X019409Y010996D01*
X019409Y010921D01*
X019334Y010846D01*
X019570Y010696D02*
X019645Y010621D01*
X019795Y010621D01*
X019870Y010696D01*
X019870Y011071D01*
X020030Y010996D02*
X020030Y010696D01*
X020105Y010621D01*
X020255Y010621D01*
X020330Y010696D01*
X020330Y010846D01*
X020180Y010846D01*
X020030Y010996D02*
X020105Y011071D01*
X020255Y011071D01*
X020330Y010996D01*
X019570Y011071D02*
X019570Y010696D01*
X018949Y011071D02*
X018649Y011071D01*
X018649Y010621D01*
X018649Y010846D02*
X018799Y010846D01*
X017724Y011753D02*
X017474Y011553D01*
X017474Y011953D01*
X017724Y011753D01*
X017721Y011755D02*
X017474Y011755D01*
X017474Y011707D02*
X017665Y011707D01*
X017605Y011658D02*
X017474Y011658D01*
X017474Y011610D02*
X017544Y011610D01*
X017484Y011561D02*
X017474Y011561D01*
X017474Y011804D02*
X017661Y011804D01*
X017600Y011852D02*
X017474Y011852D01*
X017474Y011901D02*
X017539Y011901D01*
X017479Y011949D02*
X017474Y011949D01*
X021195Y010746D02*
X021270Y010671D01*
X021345Y010671D01*
X021420Y010746D01*
X021420Y011121D01*
X021345Y011121D02*
X021495Y011121D01*
X021655Y010971D02*
X021805Y011121D01*
X021805Y010671D01*
X021655Y010671D02*
X021955Y010671D01*
D12*
X015026Y009534D02*
X009869Y009534D01*
X009869Y004376D01*
X015026Y004376D01*
X015026Y009534D01*
D13*
X010262Y009140D03*
D14*
X009219Y009593D03*
D15*
X009234Y009972D02*
X009145Y009972D01*
X009190Y009972D02*
X009190Y010238D01*
X009234Y010238D02*
X009145Y010238D01*
X009315Y010193D02*
X009315Y010016D01*
X009359Y009972D01*
X009447Y009972D01*
X009492Y010016D01*
X009568Y009972D02*
X009745Y009972D01*
X009657Y009972D02*
X009657Y010238D01*
X009568Y010149D01*
X009492Y010193D02*
X009447Y010238D01*
X009359Y010238D01*
X009315Y010193D01*
X011468Y007226D02*
X011468Y006960D01*
X011645Y006960D01*
X011722Y006960D02*
X011722Y007226D01*
X011811Y007137D01*
X011899Y007226D01*
X011899Y006960D01*
X011976Y007004D02*
X012020Y006960D01*
X012109Y006960D01*
X012153Y007004D01*
X012153Y007049D01*
X012109Y007093D01*
X012064Y007093D01*
X012109Y007093D02*
X012153Y007137D01*
X012153Y007182D01*
X012109Y007226D01*
X012020Y007226D01*
X011976Y007182D01*
X012229Y007182D02*
X012229Y007137D01*
X012274Y007093D01*
X012362Y007093D01*
X012407Y007049D01*
X012407Y007004D01*
X012362Y006960D01*
X012274Y006960D01*
X012229Y007004D01*
X012229Y007182D02*
X012274Y007226D01*
X012362Y007226D01*
X012407Y007182D01*
X012483Y007226D02*
X012483Y007093D01*
X012572Y007137D01*
X012616Y007137D01*
X012660Y007093D01*
X012660Y007004D01*
X012616Y006960D01*
X012528Y006960D01*
X012483Y007004D01*
X012737Y007004D02*
X012914Y007182D01*
X012914Y007226D01*
X012737Y007226D01*
X012660Y007226D02*
X012483Y007226D01*
X012737Y007004D02*
X012737Y006960D01*
X012991Y007093D02*
X013168Y007093D01*
X013245Y007137D02*
X013289Y007093D01*
X013422Y007093D01*
X013422Y007004D02*
X013422Y007182D01*
X013377Y007226D01*
X013289Y007226D01*
X013245Y007182D01*
X013245Y007137D01*
X013245Y007004D02*
X013289Y006960D01*
X013377Y006960D01*
X013422Y007004D01*
X013124Y006960D02*
X013124Y007226D01*
X012991Y007093D01*
D16*
X016312Y009489D02*
X016312Y009949D01*
X016542Y009949D01*
X016619Y009873D01*
X016619Y009719D01*
X016542Y009642D01*
X016312Y009642D01*
X016465Y009642D02*
X016619Y009489D01*
X016772Y009489D02*
X017079Y009489D01*
X016926Y009489D02*
X016926Y009949D01*
X016772Y009796D01*
X016745Y008782D02*
X017052Y008782D01*
X017205Y008782D02*
X017436Y008782D01*
X017512Y008705D01*
X017512Y008629D01*
X017436Y008552D01*
X017205Y008552D01*
X017205Y008322D02*
X017205Y008782D01*
X017436Y008552D02*
X017512Y008475D01*
X017512Y008398D01*
X017436Y008322D01*
X017205Y008322D01*
X016898Y008552D02*
X016745Y008552D01*
X016745Y008322D02*
X016745Y008782D01*
X017666Y008629D02*
X017819Y008782D01*
X017819Y008322D01*
X017666Y008322D02*
X017973Y008322D01*
X018791Y007672D02*
X019001Y007672D01*
X018791Y007671D02*
X018769Y007669D01*
X018747Y007664D01*
X018726Y007655D01*
X018707Y007644D01*
X018690Y007629D01*
X018675Y007612D01*
X018664Y007593D01*
X018655Y007572D01*
X018650Y007550D01*
X018648Y007528D01*
X018648Y007032D01*
X022153Y007032D01*
X022153Y010029D01*
X018648Y010029D01*
X018648Y009526D01*
X018650Y009504D01*
X018655Y009483D01*
X018663Y009463D01*
X018674Y009445D01*
X018688Y009428D01*
X018705Y009414D01*
X018723Y009403D01*
X018743Y009395D01*
X018764Y009390D01*
X018786Y009388D01*
X019018Y009388D01*
X019906Y008814D02*
X019906Y008235D01*
X019908Y008214D01*
X019913Y008194D01*
X019921Y008175D01*
X019931Y008157D01*
X019945Y008141D01*
X019961Y008127D01*
X019979Y008117D01*
X019998Y008109D01*
X020018Y008104D01*
X020039Y008102D01*
X021623Y008019D01*
X021622Y008019D02*
X021636Y008020D01*
X021649Y008025D01*
X021660Y008033D01*
X021669Y008043D01*
X021675Y008056D01*
X021678Y008069D01*
X021677Y008083D01*
X021672Y008096D01*
X021664Y008107D01*
X021654Y008116D01*
X021641Y008122D01*
X021628Y008125D01*
X021628Y008124D02*
X020403Y008191D01*
X020379Y008193D01*
X020355Y008198D01*
X020332Y008206D01*
X020311Y008218D01*
X020291Y008233D01*
X020274Y008250D01*
X020259Y008270D01*
X020247Y008291D01*
X020239Y008314D01*
X020234Y008338D01*
X020232Y008362D01*
X020232Y008709D01*
X020231Y008709D02*
X020233Y008733D01*
X020238Y008756D01*
X020246Y008778D01*
X020257Y008799D01*
X020272Y008818D01*
X020288Y008834D01*
X020307Y008849D01*
X020328Y008860D01*
X020350Y008868D01*
X020373Y008873D01*
X020397Y008875D01*
X020425Y008875D01*
X021623Y008930D01*
X021636Y008932D01*
X021649Y008938D01*
X021660Y008947D01*
X021668Y008958D01*
X021673Y008971D01*
X021675Y008985D01*
X021673Y008999D01*
X021668Y009012D01*
X021660Y009023D01*
X021649Y009032D01*
X021636Y009038D01*
X021623Y009040D01*
X021623Y009041D02*
X020050Y008958D01*
X020027Y008956D01*
X020005Y008951D01*
X019985Y008942D01*
X019965Y008930D01*
X019948Y008916D01*
X019934Y008899D01*
X019922Y008879D01*
X019913Y008859D01*
X019908Y008837D01*
X019906Y008814D01*
X020083Y009195D02*
X021529Y009261D01*
X021545Y009261D01*
X021567Y009263D01*
X021588Y009268D01*
X021608Y009276D01*
X021626Y009287D01*
X021643Y009301D01*
X021657Y009318D01*
X021668Y009336D01*
X021676Y009356D01*
X021681Y009377D01*
X021683Y009399D01*
X021683Y010006D01*
X021407Y009593D02*
X020066Y009681D01*
X020054Y009683D01*
X020043Y009689D01*
X020034Y009697D01*
X020027Y009707D01*
X020023Y009718D01*
X020022Y009730D01*
X020022Y010006D01*
X020077Y009311D02*
X021413Y009399D01*
X021432Y009402D01*
X021449Y009409D01*
X021465Y009418D01*
X021479Y009431D01*
X021490Y009446D01*
X021498Y009462D01*
X021503Y009480D01*
X021504Y009499D01*
X021502Y009517D01*
X021496Y009535D01*
X021487Y009551D01*
X021475Y009565D01*
X021460Y009577D01*
X021444Y009586D01*
X021426Y009591D01*
X021408Y009593D01*
X020077Y009311D02*
X020063Y009309D01*
X020051Y009303D01*
X020039Y009294D01*
X020031Y009284D01*
X020025Y009271D01*
X020022Y009257D01*
X020023Y009243D01*
X020027Y009230D01*
X020034Y009218D01*
X020044Y009208D01*
X020055Y009200D01*
X020069Y009196D01*
X020083Y009195D01*
X020083Y007865D02*
X021529Y007799D01*
X021545Y007799D01*
X021567Y007797D01*
X021588Y007792D01*
X021608Y007784D01*
X021626Y007773D01*
X021643Y007759D01*
X021657Y007742D01*
X021668Y007724D01*
X021676Y007704D01*
X021681Y007683D01*
X021683Y007661D01*
X021683Y007054D01*
X021407Y007468D02*
X020066Y007379D01*
X020054Y007377D01*
X020043Y007371D01*
X020034Y007363D01*
X020027Y007353D01*
X020023Y007342D01*
X020022Y007330D01*
X020022Y007054D01*
X020077Y007749D02*
X021413Y007661D01*
X021432Y007658D01*
X021449Y007651D01*
X021465Y007642D01*
X021479Y007629D01*
X021490Y007614D01*
X021498Y007598D01*
X021503Y007580D01*
X021504Y007561D01*
X021502Y007543D01*
X021496Y007525D01*
X021487Y007509D01*
X021475Y007495D01*
X021460Y007483D01*
X021444Y007474D01*
X021426Y007469D01*
X021408Y007467D01*
X020077Y007749D02*
X020063Y007751D01*
X020051Y007757D01*
X020039Y007766D01*
X020031Y007776D01*
X020025Y007789D01*
X020022Y007803D01*
X020023Y007817D01*
X020027Y007830D01*
X020034Y007842D01*
X020044Y007852D01*
X020055Y007860D01*
X020069Y007864D01*
X020083Y007865D01*
X018068Y007284D02*
X018068Y007207D01*
X017991Y007131D01*
X018068Y007054D01*
X018068Y006977D01*
X017991Y006900D01*
X017838Y006900D01*
X017761Y006977D01*
X017914Y007131D02*
X017991Y007131D01*
X018068Y007284D02*
X017991Y007361D01*
X017838Y007361D01*
X017761Y007284D01*
X017608Y007361D02*
X017454Y007361D01*
X017531Y007361D02*
X017531Y006977D01*
X017454Y006900D01*
X017377Y006900D01*
X017301Y006977D01*
X016450Y003392D02*
X016296Y003392D01*
X016220Y003315D01*
X016066Y003315D02*
X015989Y003392D01*
X015836Y003392D01*
X015759Y003315D01*
X015759Y003009D01*
X015836Y002932D01*
X015989Y002932D01*
X016066Y003009D01*
X016220Y002932D02*
X016527Y003239D01*
X016527Y003315D01*
X016450Y003392D01*
X016527Y002932D02*
X016220Y002932D01*
X016286Y001038D02*
X016593Y000577D01*
X016747Y000577D02*
X017054Y000577D01*
X016900Y000577D02*
X016900Y001038D01*
X016747Y000884D01*
X016593Y001038D02*
X016286Y000577D01*
X015406Y000627D02*
X015099Y000320D01*
X015406Y000320D01*
X015406Y000627D02*
X015099Y000627D01*
X014945Y000550D02*
X014638Y000550D01*
X014638Y000320D02*
X014638Y000780D01*
X014485Y000780D02*
X014485Y000320D01*
X014178Y000320D02*
X014178Y000780D01*
X014331Y000627D01*
X014485Y000780D01*
X014945Y000780D02*
X014945Y000320D01*
X014024Y000397D02*
X013948Y000320D01*
X013794Y000320D01*
X013717Y000397D01*
X013717Y000473D01*
X013794Y000550D01*
X013948Y000550D01*
X014024Y000473D01*
X014024Y000397D01*
X013948Y000550D02*
X014024Y000627D01*
X014024Y000704D01*
X013948Y000780D01*
X013794Y000780D01*
X013717Y000704D01*
X013717Y000627D01*
X013794Y000550D01*
X013180Y002932D02*
X012873Y002932D01*
X013027Y002932D02*
X013027Y003392D01*
X012873Y003239D01*
X012720Y003315D02*
X012643Y003392D01*
X012490Y003392D01*
X012413Y003315D01*
X012413Y003009D01*
X012490Y002932D01*
X012643Y002932D01*
X012720Y003009D01*
X003508Y000987D02*
X003431Y001064D01*
X003355Y001064D01*
X003278Y000987D01*
X003278Y000757D01*
X003431Y000757D01*
X003508Y000834D01*
X003508Y000987D01*
X003278Y000757D02*
X003124Y000910D01*
X003048Y001064D01*
X003048Y000603D02*
X003048Y000450D01*
X003048Y000527D02*
X003431Y000527D01*
X003508Y000450D01*
X003508Y000373D01*
X003431Y000296D01*
X003431Y010385D02*
X003508Y010462D01*
X003508Y010539D01*
X003431Y010615D01*
X003048Y010615D01*
X003048Y010539D02*
X003048Y010692D01*
X003048Y010845D02*
X003048Y011152D01*
X003124Y011152D01*
X003431Y010845D01*
X003508Y010845D01*
X003417Y016170D02*
X003724Y016477D01*
X003724Y016554D01*
X003647Y016630D01*
X003494Y016630D01*
X003417Y016554D01*
X003264Y016630D02*
X003110Y016630D01*
X003187Y016630D02*
X003187Y016247D01*
X003110Y016170D01*
X003033Y016170D01*
X002957Y016247D01*
X003417Y016170D02*
X003724Y016170D01*
X003622Y016847D02*
X003622Y019800D01*
X003432Y019800D01*
X003112Y019800D01*
X002940Y019800D01*
X002821Y019800D01*
X002821Y016847D01*
X002940Y016847D01*
X003112Y016847D01*
X003112Y019800D01*
X002940Y019800D02*
X002940Y016847D01*
X003112Y016847D02*
X003432Y016847D01*
X003622Y016847D01*
X004824Y016847D01*
X004824Y019800D01*
X003622Y019800D01*
X003432Y019800D02*
X003432Y016847D01*
X004497Y017162D02*
X004499Y017159D01*
X004824Y016847D02*
X005011Y016847D01*
X005695Y016847D01*
X005695Y019800D01*
X005011Y019800D01*
X005011Y016847D01*
X005230Y017374D02*
X005153Y017451D01*
X005153Y017604D01*
X005230Y017681D01*
X005307Y017681D01*
X005613Y017374D01*
X005613Y017681D01*
X006021Y017221D02*
X006174Y017221D01*
X006098Y017221D02*
X006098Y016837D01*
X006021Y016761D01*
X005944Y016761D01*
X005868Y016837D01*
X006328Y016991D02*
X006635Y016991D01*
X006558Y016761D02*
X006558Y017221D01*
X006328Y016991D01*
X004499Y018537D02*
X004497Y018540D01*
X003648Y019012D02*
X003650Y019059D01*
X003656Y019106D01*
X003665Y019152D01*
X003679Y019197D01*
X003696Y019241D01*
X003717Y019284D01*
X003741Y019324D01*
X003768Y019363D01*
X003799Y019399D01*
X003832Y019432D01*
X003868Y019463D01*
X003907Y019490D01*
X003947Y019514D01*
X003990Y019535D01*
X004034Y019552D01*
X004079Y019566D01*
X004125Y019575D01*
X004172Y019581D01*
X004219Y019583D01*
X004266Y019581D01*
X004313Y019575D01*
X004359Y019566D01*
X004404Y019552D01*
X004448Y019535D01*
X004491Y019514D01*
X004531Y019490D01*
X004570Y019463D01*
X004606Y019432D01*
X004639Y019399D01*
X004670Y019363D01*
X004697Y019324D01*
X004721Y019284D01*
X004742Y019241D01*
X004759Y019197D01*
X004773Y019152D01*
X004782Y019106D01*
X004788Y019059D01*
X004790Y019012D01*
X004788Y018965D01*
X004782Y018918D01*
X004773Y018872D01*
X004759Y018827D01*
X004742Y018783D01*
X004721Y018740D01*
X004697Y018700D01*
X004670Y018661D01*
X004639Y018625D01*
X004606Y018592D01*
X004570Y018561D01*
X004531Y018534D01*
X004491Y018510D01*
X004448Y018489D01*
X004404Y018472D01*
X004359Y018458D01*
X004313Y018449D01*
X004266Y018443D01*
X004219Y018441D01*
X004172Y018443D01*
X004125Y018449D01*
X004079Y018458D01*
X004034Y018472D01*
X003990Y018489D01*
X003947Y018510D01*
X003907Y018534D01*
X003868Y018561D01*
X003832Y018592D01*
X003799Y018625D01*
X003768Y018661D01*
X003741Y018700D01*
X003717Y018740D01*
X003696Y018783D01*
X003679Y018827D01*
X003665Y018872D01*
X003656Y018918D01*
X003650Y018965D01*
X003648Y019012D01*
X003383Y019439D02*
X003133Y019564D01*
X003383Y019689D01*
X003383Y019439D01*
X003383Y019452D02*
X003357Y019452D01*
X003383Y019491D02*
X003280Y019491D01*
X003203Y019529D02*
X003383Y019529D01*
X003383Y019568D02*
X003141Y019568D01*
X003218Y019606D02*
X003383Y019606D01*
X003383Y019645D02*
X003295Y019645D01*
X003372Y019683D02*
X003383Y019683D01*
X004824Y019800D02*
X005011Y019800D01*
X005153Y018902D02*
X005613Y018902D01*
X005613Y018749D02*
X005613Y019056D01*
X005307Y018749D02*
X005153Y018902D01*
X003648Y017634D02*
X003650Y017681D01*
X003656Y017728D01*
X003665Y017774D01*
X003679Y017819D01*
X003696Y017863D01*
X003717Y017906D01*
X003741Y017946D01*
X003768Y017985D01*
X003799Y018021D01*
X003832Y018054D01*
X003868Y018085D01*
X003907Y018112D01*
X003947Y018136D01*
X003990Y018157D01*
X004034Y018174D01*
X004079Y018188D01*
X004125Y018197D01*
X004172Y018203D01*
X004219Y018205D01*
X004266Y018203D01*
X004313Y018197D01*
X004359Y018188D01*
X004404Y018174D01*
X004448Y018157D01*
X004491Y018136D01*
X004531Y018112D01*
X004570Y018085D01*
X004606Y018054D01*
X004639Y018021D01*
X004670Y017985D01*
X004697Y017946D01*
X004721Y017906D01*
X004742Y017863D01*
X004759Y017819D01*
X004773Y017774D01*
X004782Y017728D01*
X004788Y017681D01*
X004790Y017634D01*
X004788Y017587D01*
X004782Y017540D01*
X004773Y017494D01*
X004759Y017449D01*
X004742Y017405D01*
X004721Y017362D01*
X004697Y017322D01*
X004670Y017283D01*
X004639Y017247D01*
X004606Y017214D01*
X004570Y017183D01*
X004531Y017156D01*
X004491Y017132D01*
X004448Y017111D01*
X004404Y017094D01*
X004359Y017080D01*
X004313Y017071D01*
X004266Y017065D01*
X004219Y017063D01*
X004172Y017065D01*
X004125Y017071D01*
X004079Y017080D01*
X004034Y017094D01*
X003990Y017111D01*
X003947Y017132D01*
X003907Y017156D01*
X003868Y017183D01*
X003832Y017214D01*
X003799Y017247D01*
X003768Y017283D01*
X003741Y017322D01*
X003717Y017362D01*
X003696Y017405D01*
X003679Y017449D01*
X003665Y017494D01*
X003656Y017540D01*
X003650Y017587D01*
X003648Y017634D01*
X021369Y016640D02*
X021446Y016564D01*
X021523Y016564D01*
X021600Y016640D01*
X021600Y017024D01*
X021676Y017024D02*
X021523Y017024D01*
X021830Y017024D02*
X021830Y016794D01*
X021983Y016871D01*
X022060Y016871D01*
X022137Y016794D01*
X022137Y016640D01*
X022060Y016564D01*
X021907Y016564D01*
X021830Y016640D01*
X021830Y017024D02*
X022137Y017024D01*
D17*
X016089Y002664D02*
X012940Y002664D01*
X012940Y000892D01*
X016089Y000892D01*
X016089Y002664D01*
D18*
X016675Y003899D02*
X016675Y004044D01*
X016723Y004093D01*
X016820Y004093D01*
X016868Y004044D01*
X016868Y003899D01*
X016965Y003899D02*
X016675Y003899D01*
X016772Y004194D02*
X016965Y004194D01*
X016868Y004194D02*
X016772Y004291D01*
X016772Y004339D01*
X016820Y004439D02*
X016772Y004488D01*
X016772Y004585D01*
X016820Y004633D01*
X016917Y004633D01*
X016965Y004585D01*
X016965Y004488D01*
X016917Y004439D01*
X016820Y004439D01*
X016820Y004734D02*
X016772Y004782D01*
X016772Y004928D01*
X017013Y004928D01*
X017062Y004879D01*
X017062Y004831D01*
X016965Y004782D02*
X016965Y004928D01*
X016965Y005029D02*
X016772Y005029D01*
X016868Y005029D02*
X016772Y005125D01*
X016772Y005174D01*
X016772Y005323D02*
X016772Y005419D01*
X016820Y005468D01*
X016965Y005468D01*
X016965Y005323D01*
X016917Y005274D01*
X016868Y005323D01*
X016868Y005468D01*
X016772Y005569D02*
X016965Y005569D01*
X016965Y005666D02*
X016820Y005666D01*
X016772Y005714D01*
X016820Y005762D01*
X016965Y005762D01*
X016820Y005666D02*
X016772Y005617D01*
X016772Y005569D01*
X016965Y004782D02*
X016917Y004734D01*
X016820Y004734D01*
X017848Y004062D02*
X017848Y004014D01*
X017897Y003966D01*
X017993Y003966D01*
X018042Y003917D01*
X018042Y003869D01*
X017993Y003821D01*
X017897Y003821D01*
X017848Y003869D01*
X017848Y004062D02*
X017897Y004111D01*
X017993Y004111D01*
X018042Y004062D01*
X018143Y004111D02*
X018143Y003821D01*
X018240Y003917D01*
X018336Y003821D01*
X018336Y004111D01*
X018437Y004062D02*
X018486Y004111D01*
X018583Y004111D01*
X018631Y004062D01*
X018631Y004014D01*
X018437Y003821D01*
X018631Y003821D01*
X019362Y004086D02*
X019362Y004231D01*
X019411Y004280D01*
X019507Y004280D01*
X019556Y004231D01*
X019556Y004086D01*
X019653Y004086D02*
X019362Y004086D01*
X019556Y004183D02*
X019653Y004280D01*
X019604Y004381D02*
X019507Y004381D01*
X019459Y004429D01*
X019459Y004526D01*
X019507Y004574D01*
X019556Y004574D01*
X019556Y004381D01*
X019604Y004381D02*
X019653Y004429D01*
X019653Y004526D01*
X019653Y004676D02*
X019653Y004821D01*
X019604Y004869D01*
X019556Y004821D01*
X019556Y004724D01*
X019507Y004676D01*
X019459Y004724D01*
X019459Y004869D01*
X019507Y004970D02*
X019459Y005019D01*
X019459Y005115D01*
X019507Y005164D01*
X019556Y005164D01*
X019556Y004970D01*
X019604Y004970D02*
X019507Y004970D01*
X019604Y004970D02*
X019653Y005019D01*
X019653Y005115D01*
X019604Y005313D02*
X019411Y005313D01*
X019459Y005265D02*
X019459Y005362D01*
X019604Y005313D02*
X019653Y005362D01*
X020531Y004134D02*
X020482Y004086D01*
X020482Y004038D01*
X020531Y003989D01*
X020628Y003989D01*
X020676Y003941D01*
X020676Y003893D01*
X020628Y003844D01*
X020531Y003844D01*
X020482Y003893D01*
X020531Y004134D02*
X020628Y004134D01*
X020676Y004086D01*
X020777Y004134D02*
X020777Y003844D01*
X020874Y003941D01*
X020971Y003844D01*
X020971Y004134D01*
X021072Y004038D02*
X021168Y004134D01*
X021168Y003844D01*
X021072Y003844D02*
X021265Y003844D01*
D19*
X016040Y003853D03*
X014882Y012269D03*
D20*
X017870Y012996D02*
X017870Y011496D01*
X018120Y011246D01*
X018620Y011246D01*
X018870Y011496D01*
X019120Y011246D01*
X019620Y011246D01*
X019870Y011496D01*
X020120Y011246D01*
X020620Y011246D01*
X020870Y011496D01*
X021120Y011246D01*
X021620Y011246D01*
X021870Y011496D01*
X021870Y012996D01*
X021620Y013246D01*
X021120Y013246D01*
X020870Y012996D01*
X020620Y013246D01*
X020120Y013246D01*
X019870Y012996D01*
X019620Y013246D01*
X019120Y013246D01*
X018870Y012996D01*
X018620Y013246D01*
X018120Y013246D01*
X017870Y012996D01*
X011323Y002345D02*
X010823Y002345D01*
X010573Y002095D01*
X010323Y002345D01*
X009823Y002345D01*
X009573Y002095D01*
X009323Y002345D01*
X008823Y002345D01*
X008573Y002095D01*
X008323Y002345D01*
X007823Y002345D01*
X007573Y002095D01*
X007573Y000595D01*
X007823Y000345D01*
X008323Y000345D01*
X008573Y000595D01*
X008823Y000345D01*
X009323Y000345D01*
X009573Y000595D01*
X009823Y000345D01*
X010323Y000345D01*
X010573Y000595D01*
X010823Y000345D01*
X011323Y000345D01*
X011573Y000595D01*
X011573Y002095D01*
X011323Y002345D01*
M02*
