G75*
G70*
%OFA0B0*%
%FSLAX24Y24*%
%IPPOS*%
%LPD*%
%AMOC8*
5,1,8,0,0,1.08239X$1,22.5*
%
%ADD10C,0.0472*%
%ADD11R,0.0433X0.0394*%
%ADD12R,0.0394X0.0433*%
%ADD13R,0.0787X0.0591*%
%ADD14R,0.0787X0.1496*%
%ADD15R,0.0600X0.0600*%
%ADD16C,0.0600*%
%ADD17C,0.0394*%
%ADD18C,0.0669*%
%ADD19C,0.0295*%
%ADD20C,0.0270*%
%ADD21C,0.0197*%
%ADD22C,0.0098*%
%ADD23C,0.2461*%
D10*
X018629Y007093D02*
X019101Y007093D01*
X020715Y007093D02*
X021188Y007093D01*
X021188Y009967D02*
X020715Y009967D01*
X019101Y009967D02*
X018629Y009967D01*
D11*
X014160Y008313D03*
X013491Y008313D03*
X013510Y007309D03*
X014180Y007309D03*
X011739Y006758D03*
X011069Y006758D03*
X011365Y005577D03*
X010695Y005577D03*
X011050Y008215D03*
X011719Y008215D03*
X011660Y009672D03*
X012329Y009672D03*
X010282Y009672D03*
X009613Y009672D03*
X017482Y004534D03*
X017482Y003865D03*
X020145Y003865D03*
X020145Y004534D03*
D12*
X021050Y004534D03*
X021050Y003865D03*
X016325Y003853D03*
X015656Y003853D03*
X013274Y005203D03*
X013274Y005872D03*
X012447Y005636D03*
X012447Y006306D03*
X012447Y007605D03*
X012447Y008274D03*
X015381Y008215D03*
X015381Y008766D03*
X015381Y009435D03*
X015381Y007546D03*
X015266Y012269D03*
X014597Y012269D03*
D13*
X016306Y009435D03*
X016306Y008530D03*
X016306Y007624D03*
D14*
X018786Y008530D03*
D15*
X018370Y011746D03*
X011073Y001845D03*
D16*
X010073Y001845D03*
X009073Y001845D03*
X008073Y001845D03*
X008073Y000845D03*
X009073Y000845D03*
X010073Y000845D03*
X011073Y000845D03*
X019370Y011746D03*
X020370Y011746D03*
X021370Y011746D03*
X021370Y012746D03*
X020370Y012746D03*
X019370Y012746D03*
X018370Y012746D03*
D17*
X010951Y004937D03*
X010262Y004937D03*
D18*
X004219Y017634D03*
X004219Y019012D03*
D19*
X004219Y017634D02*
X016512Y017634D01*
X017546Y016601D01*
X017546Y007890D01*
X017054Y007398D01*
X016306Y007624D02*
X016227Y007546D01*
X015381Y007546D01*
X014613Y007939D02*
X014613Y005577D01*
X014613Y001758D01*
X013699Y000845D01*
X011073Y000845D01*
X011699Y004790D02*
X013255Y004790D01*
X013629Y004790D01*
X014022Y004790D01*
X014613Y005380D01*
X014613Y005577D01*
X016327Y003855D02*
X016325Y003853D01*
X014613Y007939D02*
X014613Y008727D01*
X014416Y008924D01*
X014928Y009435D01*
X015381Y009435D01*
X016306Y009435D01*
X014416Y008924D02*
X014219Y009120D01*
X013825Y009120D01*
X012329Y009120D01*
X011463Y009120D01*
X010282Y009120D01*
X010282Y008924D01*
X010282Y009672D01*
X010282Y008924D02*
X010282Y007782D01*
X010282Y005577D01*
X012329Y009120D02*
X012329Y009672D01*
D20*
X012802Y009494D03*
X013569Y009494D03*
X013825Y009120D03*
X014613Y007939D03*
X014987Y008195D03*
X014987Y007132D03*
X014199Y006758D03*
X014987Y005872D03*
X014613Y005577D03*
X014987Y005183D03*
X013884Y004416D03*
X013629Y004790D03*
X012802Y004416D03*
X012447Y005144D03*
X011699Y004790D03*
X011680Y004416D03*
X010508Y004494D03*
X010066Y004494D03*
X009908Y005282D03*
X010282Y005577D03*
X009908Y006424D03*
X010636Y006758D03*
X010282Y007782D03*
X009908Y007644D03*
X010636Y008215D03*
X009908Y008628D03*
X010282Y008924D03*
X011129Y009494D03*
X011463Y009120D03*
X012447Y008766D03*
X013855Y011827D03*
X015731Y012269D03*
X016316Y012073D03*
X014298Y014681D03*
X013314Y014681D03*
X012329Y014681D03*
X011345Y014681D03*
X018058Y009160D03*
X017054Y007398D03*
X017482Y005046D03*
X015223Y003853D03*
X013068Y003313D03*
X012772Y003018D03*
X012477Y003313D03*
X012182Y003018D03*
X008491Y006660D03*
X008737Y007054D03*
X008491Y007349D03*
X008786Y007743D03*
X005341Y007743D03*
X005341Y008727D03*
X005341Y006758D03*
X005341Y005774D03*
X006227Y003067D03*
X003225Y001837D03*
X020145Y005046D03*
X020154Y006561D03*
D21*
X020145Y003865D02*
X017482Y003865D01*
X016906Y003865D01*
X016906Y004741D01*
X016069Y005577D01*
X014613Y005577D01*
X014199Y006758D02*
X014180Y007309D01*
X014613Y007939D02*
X014613Y008313D01*
X014160Y008313D01*
X012447Y008274D02*
X012447Y008766D01*
X011050Y008215D02*
X010636Y008215D01*
X010636Y006758D02*
X011069Y006758D01*
X010695Y005577D02*
X010282Y005577D01*
X012447Y005636D02*
X012447Y005144D01*
X013274Y005203D02*
X013255Y004790D01*
X016316Y003855D02*
X016327Y003855D01*
X016325Y003853D02*
X016324Y003851D01*
X016316Y003855D02*
X016847Y003865D01*
X016906Y003865D01*
X017054Y007398D02*
X016857Y007595D01*
X016562Y007595D01*
X016434Y007644D01*
X016306Y007624D01*
X016306Y009435D02*
X016316Y009445D01*
X016316Y012073D01*
D22*
X000422Y017755D02*
X000422Y000363D01*
X005413Y000363D01*
X005204Y000572D01*
X005028Y000877D01*
X004937Y001218D01*
X004937Y001570D01*
X005028Y001911D01*
X005204Y002217D01*
X005454Y002466D01*
X005759Y002642D01*
X006100Y002734D01*
X006453Y002734D01*
X006793Y002642D01*
X007099Y002466D01*
X007348Y002217D01*
X007524Y001911D01*
X007616Y001570D01*
X007616Y001218D01*
X007524Y000877D01*
X007348Y000572D01*
X007139Y000363D01*
X020177Y000363D01*
X019968Y000572D01*
X019792Y000877D01*
X019700Y001218D01*
X019700Y001570D01*
X019792Y001911D01*
X019968Y002217D01*
X020217Y002466D01*
X020523Y002642D01*
X020864Y002734D01*
X021216Y002734D01*
X021557Y002642D01*
X021862Y002466D01*
X022071Y002257D01*
X022071Y019650D01*
X002317Y019650D01*
X002525Y019441D01*
X002702Y019136D01*
X002793Y018795D01*
X002793Y018442D01*
X002702Y018101D01*
X002525Y017796D01*
X002276Y017547D01*
X001970Y017370D01*
X001630Y017279D01*
X001277Y017279D01*
X000936Y017370D01*
X000631Y017547D01*
X000422Y017755D01*
X000422Y017707D02*
X000470Y017707D01*
X000422Y017610D02*
X000567Y017610D01*
X000688Y017513D02*
X000422Y017513D01*
X000422Y017417D02*
X000856Y017417D01*
X001125Y017320D02*
X000422Y017320D01*
X000422Y017223D02*
X004053Y017223D01*
X004131Y017190D02*
X003968Y017258D01*
X003843Y017383D01*
X003775Y017546D01*
X003775Y017723D01*
X003843Y017886D01*
X003968Y018011D01*
X004131Y018078D01*
X004307Y018078D01*
X004471Y018011D01*
X004590Y017891D01*
X016563Y017891D01*
X016658Y017852D01*
X017691Y016819D01*
X017764Y016746D01*
X017803Y016652D01*
X017803Y007839D01*
X017764Y007745D01*
X017199Y007180D01*
X017105Y007141D01*
X017003Y007141D01*
X016908Y007180D01*
X016836Y007253D01*
X016809Y007319D01*
X016809Y007284D01*
X016745Y007220D01*
X015867Y007220D01*
X015803Y007284D01*
X015803Y007289D01*
X015687Y007289D01*
X015687Y007284D01*
X015623Y007220D01*
X015138Y007220D01*
X015074Y007284D01*
X015074Y007807D01*
X015126Y007859D01*
X015126Y007859D01*
X015092Y007879D01*
X015064Y007907D01*
X015045Y007941D01*
X015034Y007979D01*
X015034Y008166D01*
X015331Y008166D01*
X015331Y008264D01*
X015034Y008264D01*
X015034Y008451D01*
X015045Y008489D01*
X015045Y008491D01*
X015045Y008492D01*
X015034Y008530D01*
X015034Y008717D01*
X015331Y008717D01*
X015331Y008815D01*
X015034Y008815D01*
X015034Y009002D01*
X015045Y009040D01*
X015064Y009074D01*
X015092Y009102D01*
X015126Y009122D01*
X015126Y009122D01*
X015074Y009174D01*
X015074Y009179D01*
X015034Y009179D01*
X014779Y008924D01*
X014831Y008872D01*
X014870Y008778D01*
X014870Y005785D01*
X016155Y005785D01*
X016277Y005663D01*
X016277Y005663D01*
X016992Y004948D01*
X017114Y004827D01*
X017114Y004072D01*
X017156Y004072D01*
X017156Y004107D01*
X017220Y004171D01*
X017744Y004171D01*
X017808Y004107D01*
X017808Y004072D01*
X019819Y004072D01*
X019819Y004107D01*
X019883Y004171D01*
X020406Y004171D01*
X020470Y004107D01*
X020470Y003622D01*
X020406Y003559D01*
X019883Y003559D01*
X019819Y003622D01*
X019819Y003657D01*
X017808Y003657D01*
X017808Y003622D01*
X017744Y003559D01*
X017220Y003559D01*
X017156Y003622D01*
X017156Y003657D01*
X016849Y003657D01*
X016631Y003653D01*
X016631Y003591D01*
X016567Y003527D01*
X016083Y003527D01*
X016019Y003591D01*
X016019Y004115D01*
X016083Y004179D01*
X016567Y004179D01*
X016631Y004115D01*
X016631Y004068D01*
X016698Y004069D01*
X016698Y004655D01*
X015983Y005370D01*
X014870Y005370D01*
X014870Y001707D01*
X014831Y001613D01*
X013845Y000627D01*
X013750Y000588D01*
X011395Y000588D01*
X011305Y000498D01*
X011155Y000436D01*
X010992Y000436D01*
X010842Y000498D01*
X010727Y000613D01*
X010664Y000763D01*
X010664Y000926D01*
X010727Y001077D01*
X010842Y001192D01*
X010992Y001254D01*
X011155Y001254D01*
X011305Y001192D01*
X011395Y001102D01*
X013593Y001102D01*
X014356Y001865D01*
X014356Y004760D01*
X014240Y004644D01*
X014168Y004572D01*
X014073Y004533D01*
X011648Y004533D01*
X011554Y004572D01*
X011482Y004644D01*
X011443Y004739D01*
X011443Y004841D01*
X011482Y004935D01*
X011554Y005008D01*
X011648Y005047D01*
X012223Y005047D01*
X012203Y005096D01*
X012203Y005193D01*
X012240Y005281D01*
X012240Y005310D01*
X012205Y005310D01*
X012141Y005374D01*
X012141Y005898D01*
X012193Y005950D01*
X012193Y005950D01*
X012159Y005970D01*
X012131Y005997D01*
X012112Y006031D01*
X012101Y006069D01*
X012101Y006256D01*
X012398Y006256D01*
X012398Y006355D01*
X012398Y006671D01*
X012231Y006671D01*
X012193Y006661D01*
X012159Y006641D01*
X012131Y006614D01*
X012112Y006580D01*
X012105Y006553D01*
X012105Y006709D01*
X011788Y006709D01*
X011788Y006412D01*
X011975Y006412D01*
X012013Y006422D01*
X012047Y006442D01*
X012075Y006470D01*
X012094Y006504D01*
X012101Y006530D01*
X012101Y006355D01*
X012398Y006355D01*
X012497Y006355D01*
X012794Y006355D01*
X012794Y006542D01*
X012783Y006580D01*
X012764Y006614D01*
X012736Y006641D01*
X012702Y006661D01*
X012664Y006671D01*
X012497Y006671D01*
X012497Y006355D01*
X012497Y006256D01*
X012794Y006256D01*
X012794Y006069D01*
X012783Y006031D01*
X012764Y005997D01*
X012736Y005970D01*
X012702Y005950D01*
X012702Y005950D01*
X012754Y005898D01*
X012754Y005374D01*
X012690Y005310D01*
X012655Y005310D01*
X012655Y005281D01*
X012692Y005193D01*
X012692Y005096D01*
X012671Y005047D01*
X012968Y005047D01*
X012968Y005465D01*
X013020Y005517D01*
X013020Y005517D01*
X012986Y005537D01*
X012958Y005564D01*
X012938Y005598D01*
X012928Y005636D01*
X012928Y005823D01*
X013225Y005823D01*
X013225Y005922D01*
X013225Y006238D01*
X013058Y006238D01*
X013020Y006228D01*
X012986Y006208D01*
X012958Y006181D01*
X012938Y006147D01*
X012928Y006109D01*
X012928Y005922D01*
X013225Y005922D01*
X013323Y005922D01*
X013323Y006238D01*
X013491Y006238D01*
X013529Y006228D01*
X013563Y006208D01*
X013590Y006181D01*
X013610Y006147D01*
X013620Y006109D01*
X013620Y005922D01*
X013323Y005922D01*
X013323Y005823D01*
X013620Y005823D01*
X013620Y005636D01*
X013610Y005598D01*
X013590Y005564D01*
X013563Y005537D01*
X013529Y005517D01*
X013528Y005517D01*
X013580Y005465D01*
X013580Y005047D01*
X013916Y005047D01*
X014356Y005487D01*
X014356Y006569D01*
X014338Y006551D01*
X014248Y006514D01*
X014151Y006514D01*
X014061Y006551D01*
X013992Y006620D01*
X013955Y006710D01*
X013955Y006807D01*
X013987Y006884D01*
X013983Y007003D01*
X013918Y007003D01*
X013866Y007055D01*
X013866Y007055D01*
X013846Y007021D01*
X013819Y006993D01*
X013785Y006974D01*
X013747Y006963D01*
X013560Y006963D01*
X013560Y007260D01*
X013461Y007260D01*
X013461Y006963D01*
X013274Y006963D01*
X013236Y006974D01*
X013202Y006993D01*
X013174Y007021D01*
X013155Y007055D01*
X013145Y007093D01*
X013145Y007260D01*
X013461Y007260D01*
X013461Y007359D01*
X013461Y007656D01*
X013274Y007656D01*
X013236Y007645D01*
X013202Y007626D01*
X013174Y007598D01*
X013155Y007564D01*
X013145Y007526D01*
X013145Y007359D01*
X013461Y007359D01*
X013560Y007359D01*
X013560Y007656D01*
X013747Y007656D01*
X013785Y007645D01*
X013819Y007626D01*
X013846Y007598D01*
X013866Y007564D01*
X013866Y007564D01*
X013918Y007616D01*
X014356Y007616D01*
X014356Y008007D01*
X013898Y008007D01*
X013846Y008059D01*
X013846Y008059D01*
X013827Y008025D01*
X013799Y007997D01*
X013765Y007977D01*
X013727Y007967D01*
X013540Y007967D01*
X013540Y008264D01*
X013442Y008264D01*
X013442Y007967D01*
X013255Y007967D01*
X013217Y007977D01*
X013183Y007997D01*
X013155Y008025D01*
X013135Y008059D01*
X013125Y008097D01*
X013125Y008264D01*
X013442Y008264D01*
X013442Y008363D01*
X013442Y008659D01*
X013255Y008659D01*
X013217Y008649D01*
X013183Y008630D01*
X013155Y008602D01*
X013135Y008568D01*
X013125Y008530D01*
X013125Y008363D01*
X013442Y008363D01*
X013540Y008363D01*
X013540Y008659D01*
X013727Y008659D01*
X013765Y008649D01*
X013799Y008630D01*
X013827Y008602D01*
X013846Y008568D01*
X013846Y008568D01*
X013898Y008619D01*
X014356Y008619D01*
X014356Y008620D01*
X014270Y008706D01*
X014270Y008706D01*
X014198Y008778D01*
X014198Y008778D01*
X014113Y008864D01*
X012671Y008864D01*
X012692Y008815D01*
X012692Y008718D01*
X012655Y008629D01*
X012655Y008600D01*
X012690Y008600D01*
X012754Y008536D01*
X012754Y008012D01*
X012702Y007960D01*
X012702Y007960D01*
X012736Y007941D01*
X012764Y007913D01*
X012783Y007879D01*
X012794Y007841D01*
X012794Y007654D01*
X012497Y007654D01*
X012497Y007556D01*
X012794Y007556D01*
X012794Y007369D01*
X012783Y007331D01*
X012764Y007297D01*
X012736Y007269D01*
X012702Y007249D01*
X012664Y007239D01*
X012497Y007239D01*
X012497Y007556D01*
X012398Y007556D01*
X012101Y007556D01*
X012101Y007369D01*
X012112Y007331D01*
X012131Y007297D01*
X012159Y007269D01*
X012193Y007249D01*
X012231Y007239D01*
X012398Y007239D01*
X012398Y007556D01*
X012398Y007654D01*
X012101Y007654D01*
X012101Y007841D01*
X012112Y007879D01*
X012131Y007913D01*
X012159Y007941D01*
X012193Y007960D01*
X012193Y007960D01*
X012141Y008012D01*
X012141Y008536D01*
X012205Y008600D01*
X012240Y008600D01*
X012240Y008629D01*
X012203Y008718D01*
X012203Y008815D01*
X012223Y008864D01*
X010539Y008864D01*
X010539Y008439D01*
X010588Y008459D01*
X010685Y008459D01*
X010724Y008443D01*
X010724Y008457D01*
X010788Y008521D01*
X011312Y008521D01*
X011363Y008469D01*
X011364Y008469D01*
X011383Y008503D01*
X011411Y008531D01*
X011445Y008551D01*
X011483Y008561D01*
X011670Y008561D01*
X011670Y008264D01*
X011768Y008264D01*
X011768Y008561D01*
X011955Y008561D01*
X011993Y008551D01*
X012027Y008531D01*
X012055Y008503D01*
X012075Y008469D01*
X012085Y008431D01*
X012085Y008264D01*
X011768Y008264D01*
X011768Y008166D01*
X011768Y007869D01*
X011955Y007869D01*
X011993Y007879D01*
X012027Y007899D01*
X012055Y007926D01*
X012075Y007961D01*
X012085Y007998D01*
X012085Y008166D01*
X011768Y008166D01*
X011670Y008166D01*
X011670Y007869D01*
X011483Y007869D01*
X011445Y007879D01*
X011411Y007899D01*
X011383Y007926D01*
X011364Y007961D01*
X011363Y007961D01*
X011312Y007909D01*
X010788Y007909D01*
X010724Y007973D01*
X010724Y007987D01*
X010685Y007971D01*
X010588Y007971D01*
X010539Y007991D01*
X010539Y006982D01*
X010588Y007002D01*
X010685Y007002D01*
X010744Y006978D01*
X010744Y007000D01*
X010808Y007064D01*
X011331Y007064D01*
X011383Y007012D01*
X011383Y007013D01*
X011403Y007047D01*
X011431Y007075D01*
X011465Y007094D01*
X011503Y007104D01*
X011690Y007104D01*
X011690Y006807D01*
X011788Y006807D01*
X012105Y006807D01*
X012105Y006975D01*
X012094Y007013D01*
X012075Y007047D01*
X012047Y007075D01*
X012013Y007094D01*
X011975Y007104D01*
X011788Y007104D01*
X011788Y006807D01*
X011788Y006709D01*
X011690Y006709D01*
X011690Y006412D01*
X011503Y006412D01*
X011465Y006422D01*
X011431Y006442D01*
X011403Y006470D01*
X011383Y006504D01*
X011383Y006504D01*
X011331Y006452D01*
X010808Y006452D01*
X010744Y006516D01*
X010744Y006538D01*
X010685Y006514D01*
X010588Y006514D01*
X010539Y006534D01*
X010539Y005883D01*
X010957Y005883D01*
X011009Y005831D01*
X011009Y005832D01*
X011029Y005866D01*
X011057Y005893D01*
X011091Y005913D01*
X011129Y005923D01*
X011316Y005923D01*
X011316Y005626D01*
X011414Y005626D01*
X011731Y005626D01*
X011731Y005794D01*
X011720Y005832D01*
X011701Y005866D01*
X011673Y005893D01*
X011639Y005913D01*
X011601Y005923D01*
X011414Y005923D01*
X011414Y005626D01*
X011414Y005528D01*
X011731Y005528D01*
X011731Y005361D01*
X011720Y005323D01*
X011701Y005289D01*
X011673Y005261D01*
X011639Y005241D01*
X011601Y005231D01*
X011414Y005231D01*
X011414Y005528D01*
X011316Y005528D01*
X011316Y005231D01*
X011129Y005231D01*
X011091Y005241D01*
X011057Y005261D01*
X011029Y005289D01*
X011009Y005323D01*
X011009Y005323D01*
X010957Y005271D01*
X010434Y005271D01*
X010370Y005335D01*
X010370Y005335D01*
X010333Y005320D01*
X010231Y005320D01*
X010137Y005359D01*
X010064Y005432D01*
X010025Y005526D01*
X010025Y009366D01*
X010020Y009366D01*
X009968Y009417D01*
X009968Y009417D01*
X009949Y009383D01*
X009921Y009355D01*
X009887Y009336D01*
X009849Y009326D01*
X009662Y009326D01*
X009662Y009622D01*
X009564Y009622D01*
X009564Y009326D01*
X009377Y009326D01*
X009339Y009336D01*
X009305Y009355D01*
X009277Y009383D01*
X009257Y009417D01*
X009247Y009455D01*
X009247Y009622D01*
X009564Y009622D01*
X009564Y009721D01*
X009564Y010018D01*
X009377Y010018D01*
X009339Y010008D01*
X009305Y009988D01*
X009277Y009960D01*
X009257Y009926D01*
X009247Y009888D01*
X009247Y009721D01*
X009564Y009721D01*
X009662Y009721D01*
X009662Y010018D01*
X009849Y010018D01*
X009887Y010008D01*
X009921Y009988D01*
X009949Y009960D01*
X009968Y009926D01*
X009968Y009926D01*
X010020Y009978D01*
X010544Y009978D01*
X010608Y009914D01*
X010608Y009430D01*
X010556Y009377D01*
X011330Y009377D01*
X011324Y009383D01*
X011304Y009417D01*
X011294Y009455D01*
X011294Y009622D01*
X011611Y009622D01*
X011611Y009721D01*
X011611Y010018D01*
X011424Y010018D01*
X011386Y010008D01*
X011352Y009988D01*
X011324Y009960D01*
X011304Y009926D01*
X011294Y009888D01*
X011294Y009721D01*
X011611Y009721D01*
X011709Y009721D01*
X011709Y010018D01*
X011896Y010018D01*
X011934Y010008D01*
X011968Y009988D01*
X011996Y009960D01*
X012016Y009926D01*
X012016Y009926D01*
X012068Y009978D01*
X012591Y009978D01*
X012655Y009914D01*
X012655Y009430D01*
X012603Y009377D01*
X014270Y009377D01*
X014365Y009338D01*
X014416Y009287D01*
X014782Y009653D01*
X014877Y009692D01*
X015074Y009692D01*
X015074Y009697D01*
X015138Y009761D01*
X015623Y009761D01*
X015687Y009697D01*
X015687Y009692D01*
X015803Y009692D01*
X015803Y009776D01*
X015867Y009840D01*
X016108Y009840D01*
X016108Y011936D01*
X016071Y012025D01*
X016071Y012122D01*
X016109Y012212D01*
X016177Y012280D01*
X016267Y012317D01*
X016364Y012317D01*
X016454Y012280D01*
X016523Y012212D01*
X016560Y012122D01*
X016560Y012025D01*
X016523Y011936D01*
X016523Y009840D01*
X016745Y009840D01*
X016809Y009776D01*
X016809Y009095D01*
X016745Y009031D01*
X015867Y009031D01*
X015803Y009095D01*
X015803Y009179D01*
X015687Y009179D01*
X015687Y009174D01*
X015635Y009122D01*
X015635Y009122D01*
X015669Y009102D01*
X015697Y009074D01*
X015716Y009040D01*
X015727Y009002D01*
X015727Y008815D01*
X015430Y008815D01*
X015430Y008717D01*
X015727Y008717D01*
X015727Y008530D01*
X015716Y008492D01*
X015716Y008491D01*
X015716Y008489D01*
X015727Y008451D01*
X015727Y008264D01*
X015430Y008264D01*
X015430Y008166D01*
X015727Y008166D01*
X015727Y007979D01*
X015716Y007941D01*
X015697Y007907D01*
X015669Y007879D01*
X015635Y007859D01*
X015635Y007859D01*
X015687Y007807D01*
X015687Y007803D01*
X015803Y007803D01*
X015803Y007965D01*
X015867Y008029D01*
X016745Y008029D01*
X016809Y007965D01*
X016809Y007803D01*
X016943Y007803D01*
X017019Y007726D01*
X017289Y007997D01*
X017289Y015409D01*
X017219Y015149D01*
X017043Y014843D01*
X016794Y014594D01*
X016488Y014418D01*
X016147Y014326D01*
X015795Y014326D01*
X015454Y014418D01*
X015149Y014594D01*
X014899Y014843D01*
X014723Y015149D01*
X014632Y015489D01*
X014632Y015842D01*
X014723Y016183D01*
X014899Y016488D01*
X015149Y016738D01*
X000422Y016738D01*
X000422Y016641D02*
X015052Y016641D01*
X015149Y016738D02*
X015454Y016914D01*
X015795Y017005D01*
X016147Y017005D01*
X016488Y016914D01*
X016794Y016738D01*
X017043Y016488D01*
X017219Y016183D01*
X017289Y015923D01*
X017289Y016494D01*
X016406Y017377D01*
X004590Y017377D01*
X004471Y017258D01*
X004307Y017190D01*
X004131Y017190D01*
X004385Y017223D02*
X016561Y017223D01*
X016464Y017320D02*
X004532Y017320D01*
X003906Y017320D02*
X001781Y017320D01*
X002050Y017417D02*
X003829Y017417D01*
X003789Y017513D02*
X002218Y017513D01*
X002340Y017610D02*
X003775Y017610D01*
X003775Y017707D02*
X002437Y017707D01*
X002530Y017804D02*
X003809Y017804D01*
X003858Y017901D02*
X002586Y017901D01*
X002642Y017998D02*
X003955Y017998D01*
X004483Y017998D02*
X022071Y017998D01*
X022071Y017901D02*
X004580Y017901D01*
X004332Y018540D02*
X004268Y018530D01*
X004268Y018963D01*
X004170Y018963D01*
X004170Y018530D01*
X004106Y018540D01*
X004033Y018564D01*
X003965Y018598D01*
X003904Y018643D01*
X003850Y018697D01*
X003805Y018759D01*
X003771Y018826D01*
X003747Y018899D01*
X003737Y018963D01*
X004170Y018963D01*
X004170Y019061D01*
X003737Y019061D01*
X003747Y019126D01*
X003771Y019198D01*
X003805Y019266D01*
X003850Y019327D01*
X003904Y019381D01*
X003965Y019426D01*
X004033Y019461D01*
X004106Y019484D01*
X004170Y019494D01*
X004170Y019061D01*
X004268Y019061D01*
X004701Y019061D01*
X004691Y019126D01*
X004668Y019198D01*
X004633Y019266D01*
X004588Y019327D01*
X004534Y019381D01*
X004473Y019426D01*
X004405Y019461D01*
X004332Y019484D01*
X004268Y019494D01*
X004268Y019061D01*
X004268Y018963D01*
X004701Y018963D01*
X004691Y018899D01*
X004668Y018826D01*
X004633Y018759D01*
X004588Y018697D01*
X004534Y018643D01*
X004473Y018598D01*
X004405Y018564D01*
X004332Y018540D01*
X004268Y018580D02*
X004170Y018580D01*
X004170Y018677D02*
X004268Y018677D01*
X004268Y018773D02*
X004170Y018773D01*
X004170Y018870D02*
X004268Y018870D01*
X004268Y018967D02*
X022071Y018967D01*
X022071Y018870D02*
X004682Y018870D01*
X004640Y018773D02*
X022071Y018773D01*
X022071Y018677D02*
X004568Y018677D01*
X004436Y018580D02*
X022071Y018580D01*
X022071Y018483D02*
X002793Y018483D01*
X002793Y018580D02*
X004002Y018580D01*
X003870Y018677D02*
X002793Y018677D01*
X002793Y018773D02*
X003798Y018773D01*
X003756Y018870D02*
X002773Y018870D01*
X002747Y018967D02*
X004170Y018967D01*
X004170Y019064D02*
X004268Y019064D01*
X004268Y019161D02*
X004170Y019161D01*
X004170Y019258D02*
X004268Y019258D01*
X004268Y019355D02*
X004170Y019355D01*
X004170Y019452D02*
X004268Y019452D01*
X004422Y019452D02*
X022071Y019452D01*
X022071Y019549D02*
X002417Y019549D01*
X002320Y019646D02*
X022071Y019646D01*
X022071Y019355D02*
X004561Y019355D01*
X004637Y019258D02*
X022071Y019258D01*
X022071Y019161D02*
X004679Y019161D01*
X004701Y019064D02*
X022071Y019064D01*
X022071Y018386D02*
X002778Y018386D01*
X002752Y018289D02*
X022071Y018289D01*
X022071Y018192D02*
X002726Y018192D01*
X002698Y018095D02*
X022071Y018095D01*
X022071Y017804D02*
X016706Y017804D01*
X016803Y017707D02*
X022071Y017707D01*
X022071Y017610D02*
X016900Y017610D01*
X016996Y017513D02*
X022071Y017513D01*
X022071Y017417D02*
X017093Y017417D01*
X017190Y017320D02*
X022071Y017320D01*
X022071Y017223D02*
X017287Y017223D01*
X017384Y017126D02*
X022071Y017126D01*
X022071Y017029D02*
X017481Y017029D01*
X017578Y016932D02*
X022071Y016932D01*
X022071Y016835D02*
X017675Y016835D01*
X017767Y016738D02*
X022071Y016738D01*
X022071Y016641D02*
X017803Y016641D01*
X017803Y016544D02*
X022071Y016544D01*
X022071Y016447D02*
X017803Y016447D01*
X017803Y016350D02*
X022071Y016350D01*
X022071Y016253D02*
X017803Y016253D01*
X017803Y016156D02*
X022071Y016156D01*
X022071Y016060D02*
X017803Y016060D01*
X017803Y015963D02*
X022071Y015963D01*
X022071Y015866D02*
X017803Y015866D01*
X017803Y015769D02*
X022071Y015769D01*
X022071Y015672D02*
X017803Y015672D01*
X017803Y015575D02*
X022071Y015575D01*
X022071Y015478D02*
X017803Y015478D01*
X017803Y015381D02*
X022071Y015381D01*
X022071Y015284D02*
X017803Y015284D01*
X017803Y015187D02*
X022071Y015187D01*
X022071Y015090D02*
X017803Y015090D01*
X017803Y014993D02*
X022071Y014993D01*
X022071Y014896D02*
X017803Y014896D01*
X017803Y014800D02*
X022071Y014800D01*
X022071Y014703D02*
X017803Y014703D01*
X017803Y014606D02*
X022071Y014606D01*
X022071Y014509D02*
X017803Y014509D01*
X017803Y014412D02*
X022071Y014412D01*
X022071Y014315D02*
X017803Y014315D01*
X017803Y014218D02*
X022071Y014218D01*
X022071Y014121D02*
X017803Y014121D01*
X017803Y014024D02*
X022071Y014024D01*
X022071Y013927D02*
X017803Y013927D01*
X017803Y013830D02*
X022071Y013830D01*
X022071Y013733D02*
X017803Y013733D01*
X017803Y013636D02*
X022071Y013636D01*
X022071Y013539D02*
X017803Y013539D01*
X017803Y013443D02*
X022071Y013443D01*
X022071Y013346D02*
X017803Y013346D01*
X017803Y013249D02*
X022071Y013249D01*
X022071Y013152D02*
X021563Y013152D01*
X021542Y013162D02*
X021475Y013184D01*
X021419Y013193D01*
X021419Y012795D01*
X021817Y012795D01*
X021808Y012851D01*
X021786Y012918D01*
X021754Y012981D01*
X021712Y013039D01*
X021662Y013089D01*
X021605Y013130D01*
X021542Y013162D01*
X021419Y013152D02*
X021320Y013152D01*
X021320Y013193D02*
X021264Y013184D01*
X021197Y013162D01*
X021134Y013130D01*
X021077Y013089D01*
X021027Y013039D01*
X020985Y012981D01*
X020953Y012918D01*
X020931Y012851D01*
X020923Y012795D01*
X021320Y012795D01*
X021320Y012697D01*
X020923Y012697D01*
X020931Y012641D01*
X020953Y012574D01*
X020985Y012511D01*
X021027Y012453D01*
X021077Y012403D01*
X021134Y012362D01*
X021197Y012330D01*
X021264Y012308D01*
X021320Y012299D01*
X021320Y012697D01*
X021419Y012697D01*
X021419Y012795D01*
X021320Y012795D01*
X021320Y013193D01*
X021320Y013055D02*
X021419Y013055D01*
X021419Y012958D02*
X021320Y012958D01*
X021320Y012861D02*
X021419Y012861D01*
X021419Y012764D02*
X022071Y012764D01*
X022071Y012667D02*
X021812Y012667D01*
X021808Y012641D02*
X021817Y012697D01*
X021419Y012697D01*
X021419Y012299D01*
X021475Y012308D01*
X021542Y012330D01*
X021605Y012362D01*
X021662Y012403D01*
X021712Y012453D01*
X021754Y012511D01*
X021786Y012574D01*
X021808Y012641D01*
X021784Y012570D02*
X022071Y012570D01*
X022071Y012473D02*
X021727Y012473D01*
X021625Y012376D02*
X022071Y012376D01*
X022071Y012279D02*
X020053Y012279D01*
X020053Y012317D02*
X020062Y012329D01*
X020053Y012381D01*
X020053Y012427D01*
X020077Y012403D01*
X020134Y012362D01*
X020197Y012330D01*
X020264Y012308D01*
X020320Y012299D01*
X020320Y012697D01*
X019923Y012697D01*
X019931Y012641D01*
X019953Y012574D01*
X019985Y012511D01*
X020004Y012485D01*
X019998Y012490D01*
X019960Y012527D01*
X019946Y012527D01*
X019773Y012651D01*
X019779Y012665D01*
X019779Y012827D01*
X019717Y012978D01*
X019601Y013093D01*
X019451Y013155D01*
X019288Y013155D01*
X019138Y013093D01*
X019023Y012978D01*
X018960Y012827D01*
X018960Y012665D01*
X019023Y012514D01*
X019138Y012399D01*
X019288Y012337D01*
X019451Y012337D01*
X019588Y012394D01*
X019736Y012287D01*
X019736Y011930D01*
X019717Y011978D01*
X019601Y012093D01*
X019451Y012155D01*
X019288Y012155D01*
X019138Y012093D01*
X019023Y011978D01*
X018960Y011827D01*
X018960Y011665D01*
X019023Y011514D01*
X019138Y011399D01*
X019288Y011337D01*
X019451Y011337D01*
X019601Y011399D01*
X019717Y011514D01*
X019736Y011562D01*
X019736Y009856D01*
X019429Y009856D01*
X019446Y009898D02*
X019446Y010036D01*
X019394Y010163D01*
X019297Y010260D01*
X019170Y010312D01*
X018560Y010312D01*
X018433Y010260D01*
X018336Y010163D01*
X018283Y010036D01*
X018283Y009898D01*
X018336Y009771D01*
X018433Y009674D01*
X018560Y009621D01*
X019170Y009621D01*
X019297Y009674D01*
X019394Y009771D01*
X019446Y009898D01*
X019446Y009953D02*
X019736Y009953D01*
X019736Y010050D02*
X019440Y010050D01*
X019400Y010147D02*
X019736Y010147D01*
X019736Y010244D02*
X019312Y010244D01*
X019736Y010341D02*
X017803Y010341D01*
X017803Y010438D02*
X019736Y010438D01*
X019736Y010535D02*
X017803Y010535D01*
X017803Y010632D02*
X019736Y010632D01*
X019736Y010729D02*
X017803Y010729D01*
X017803Y010826D02*
X019736Y010826D01*
X019736Y010923D02*
X017803Y010923D01*
X017803Y011019D02*
X019736Y011019D01*
X019736Y011116D02*
X017803Y011116D01*
X017803Y011213D02*
X019736Y011213D01*
X019736Y011310D02*
X017803Y011310D01*
X017803Y011407D02*
X017960Y011407D01*
X017960Y011401D02*
X018024Y011337D01*
X018715Y011337D01*
X018779Y011401D01*
X018779Y012091D01*
X018715Y012155D01*
X018024Y012155D01*
X017960Y012091D01*
X017960Y011401D01*
X017960Y011504D02*
X017803Y011504D01*
X017803Y011601D02*
X017960Y011601D01*
X017960Y011698D02*
X017803Y011698D01*
X017803Y011795D02*
X017960Y011795D01*
X017960Y011892D02*
X017803Y011892D01*
X017803Y011989D02*
X017960Y011989D01*
X017960Y012086D02*
X017803Y012086D01*
X017803Y012183D02*
X019736Y012183D01*
X019736Y012279D02*
X017803Y012279D01*
X017803Y012376D02*
X018193Y012376D01*
X018138Y012399D02*
X018288Y012337D01*
X018451Y012337D01*
X018601Y012399D01*
X018717Y012514D01*
X018779Y012665D01*
X018779Y012827D01*
X018717Y012978D01*
X018601Y013093D01*
X018451Y013155D01*
X018288Y013155D01*
X018138Y013093D01*
X018023Y012978D01*
X017960Y012827D01*
X017960Y012665D01*
X018023Y012514D01*
X018138Y012399D01*
X018064Y012473D02*
X017803Y012473D01*
X017803Y012570D02*
X018000Y012570D01*
X017960Y012667D02*
X017803Y012667D01*
X017803Y012764D02*
X017960Y012764D01*
X017974Y012861D02*
X017803Y012861D01*
X017803Y012958D02*
X018015Y012958D01*
X018100Y013055D02*
X017803Y013055D01*
X017803Y013152D02*
X018280Y013152D01*
X018459Y013152D02*
X019280Y013152D01*
X019459Y013152D02*
X020177Y013152D01*
X020197Y013162D02*
X020134Y013130D01*
X020077Y013089D01*
X020027Y013039D01*
X019985Y012981D01*
X019953Y012918D01*
X019931Y012851D01*
X019923Y012795D01*
X020320Y012795D01*
X020320Y012697D01*
X020419Y012697D01*
X020419Y012795D01*
X020817Y012795D01*
X020808Y012851D01*
X020786Y012918D01*
X020754Y012981D01*
X020712Y013039D01*
X020662Y013089D01*
X020605Y013130D01*
X020542Y013162D01*
X020475Y013184D01*
X020419Y013193D01*
X020419Y012795D01*
X020320Y012795D01*
X020320Y013193D01*
X020264Y013184D01*
X020197Y013162D01*
X020320Y013152D02*
X020419Y013152D01*
X020419Y013055D02*
X020320Y013055D01*
X020320Y012958D02*
X020419Y012958D01*
X020419Y012861D02*
X020320Y012861D01*
X020320Y012764D02*
X019779Y012764D01*
X019779Y012667D02*
X019927Y012667D01*
X019955Y012570D02*
X019886Y012570D01*
X019895Y012369D02*
X019895Y009921D01*
X020154Y009662D01*
X020154Y006561D01*
X019930Y006464D02*
X014870Y006464D01*
X014870Y006561D02*
X019910Y006561D01*
X019910Y006513D02*
X019947Y006423D01*
X020016Y006354D01*
X020106Y006317D01*
X020203Y006317D01*
X020292Y006354D01*
X020361Y006423D01*
X020398Y006513D01*
X020398Y006610D01*
X020361Y006700D01*
X020313Y006748D01*
X020313Y009727D01*
X020053Y009987D01*
X020053Y011484D01*
X020138Y011399D01*
X020288Y011337D01*
X020451Y011337D01*
X020601Y011399D01*
X020717Y011514D01*
X020779Y011665D01*
X020779Y011827D01*
X020717Y011978D01*
X020601Y012093D01*
X020451Y012155D01*
X020288Y012155D01*
X020138Y012093D01*
X020053Y012008D01*
X020053Y012317D01*
X020054Y012376D02*
X020114Y012376D01*
X020053Y012183D02*
X022071Y012183D01*
X022071Y012086D02*
X021609Y012086D01*
X021601Y012093D02*
X021451Y012155D01*
X021288Y012155D01*
X021138Y012093D01*
X021023Y011978D01*
X020960Y011827D01*
X020960Y011665D01*
X021023Y011514D01*
X021138Y011399D01*
X021288Y011337D01*
X021451Y011337D01*
X021601Y011399D01*
X021717Y011514D01*
X021779Y011665D01*
X021779Y011827D01*
X021717Y011978D01*
X021601Y012093D01*
X021706Y011989D02*
X022071Y011989D01*
X022071Y011892D02*
X021752Y011892D01*
X021779Y011795D02*
X022071Y011795D01*
X022071Y011698D02*
X021779Y011698D01*
X021753Y011601D02*
X022071Y011601D01*
X022071Y011504D02*
X021706Y011504D01*
X021610Y011407D02*
X022071Y011407D01*
X022071Y011310D02*
X020053Y011310D01*
X020053Y011213D02*
X022071Y011213D01*
X022071Y011116D02*
X020053Y011116D01*
X020053Y011019D02*
X022071Y011019D01*
X022071Y010923D02*
X020053Y010923D01*
X020053Y010826D02*
X022071Y010826D01*
X022071Y010729D02*
X020053Y010729D01*
X020053Y010632D02*
X022071Y010632D01*
X022071Y010535D02*
X020053Y010535D01*
X020053Y010438D02*
X022071Y010438D01*
X022071Y010341D02*
X020053Y010341D01*
X020053Y010244D02*
X020504Y010244D01*
X020519Y010260D02*
X020422Y010163D01*
X020370Y010036D01*
X020370Y009898D01*
X020422Y009771D01*
X020519Y009674D01*
X020646Y009621D01*
X021256Y009621D01*
X021383Y009674D01*
X021480Y009771D01*
X021533Y009898D01*
X021533Y010036D01*
X021480Y010163D01*
X021383Y010260D01*
X021256Y010312D01*
X020646Y010312D01*
X020519Y010260D01*
X020416Y010147D02*
X020053Y010147D01*
X020053Y010050D02*
X020376Y010050D01*
X020370Y009953D02*
X020087Y009953D01*
X020184Y009856D02*
X020387Y009856D01*
X020434Y009759D02*
X020281Y009759D01*
X020313Y009662D02*
X020548Y009662D01*
X020313Y009566D02*
X022071Y009566D01*
X022071Y009662D02*
X021355Y009662D01*
X021469Y009759D02*
X022071Y009759D01*
X022071Y009856D02*
X021516Y009856D01*
X021533Y009953D02*
X022071Y009953D01*
X022071Y010050D02*
X021527Y010050D01*
X021487Y010147D02*
X022071Y010147D01*
X022071Y010244D02*
X021399Y010244D01*
X022071Y009469D02*
X020313Y009469D01*
X020313Y009372D02*
X022071Y009372D01*
X022071Y009275D02*
X020313Y009275D01*
X020313Y009178D02*
X022071Y009178D01*
X022071Y009081D02*
X020313Y009081D01*
X020313Y008984D02*
X022071Y008984D01*
X022071Y008887D02*
X020313Y008887D01*
X020313Y008790D02*
X022071Y008790D01*
X022071Y008693D02*
X020313Y008693D01*
X020313Y008596D02*
X022071Y008596D01*
X022071Y008499D02*
X020313Y008499D01*
X020313Y008402D02*
X022071Y008402D01*
X022071Y008306D02*
X020313Y008306D01*
X020313Y008209D02*
X022071Y008209D01*
X022071Y008112D02*
X020313Y008112D01*
X020313Y008015D02*
X022071Y008015D01*
X022071Y007918D02*
X020313Y007918D01*
X020313Y007821D02*
X022071Y007821D01*
X022071Y007724D02*
X020313Y007724D01*
X020313Y007627D02*
X022071Y007627D01*
X022071Y007530D02*
X020313Y007530D01*
X020313Y007433D02*
X020634Y007433D01*
X020646Y007438D02*
X020519Y007386D01*
X020422Y007289D01*
X020370Y007162D01*
X020370Y007024D01*
X020422Y006897D01*
X020519Y006800D01*
X020646Y006747D01*
X021256Y006747D01*
X021383Y006800D01*
X021480Y006897D01*
X021533Y007024D01*
X021533Y007162D01*
X021480Y007289D01*
X021383Y007386D01*
X021256Y007438D01*
X020646Y007438D01*
X020470Y007336D02*
X020313Y007336D01*
X020313Y007239D02*
X020402Y007239D01*
X020370Y007142D02*
X020313Y007142D01*
X020313Y007045D02*
X020370Y007045D01*
X020401Y006949D02*
X020313Y006949D01*
X020313Y006852D02*
X020468Y006852D01*
X020313Y006755D02*
X020629Y006755D01*
X020379Y006658D02*
X022071Y006658D01*
X022071Y006755D02*
X021274Y006755D01*
X021435Y006852D02*
X022071Y006852D01*
X022071Y006949D02*
X021502Y006949D01*
X021533Y007045D02*
X022071Y007045D01*
X022071Y007142D02*
X021533Y007142D01*
X021501Y007239D02*
X022071Y007239D01*
X022071Y007336D02*
X021433Y007336D01*
X021269Y007433D02*
X022071Y007433D01*
X022071Y006561D02*
X020398Y006561D01*
X020378Y006464D02*
X022071Y006464D01*
X022071Y006367D02*
X020305Y006367D01*
X020003Y006367D02*
X014870Y006367D01*
X014870Y006270D02*
X022071Y006270D01*
X022071Y006173D02*
X014870Y006173D01*
X014870Y006076D02*
X022071Y006076D01*
X022071Y005979D02*
X014870Y005979D01*
X014870Y005882D02*
X022071Y005882D01*
X022071Y005785D02*
X014870Y005785D01*
X014870Y005301D02*
X016052Y005301D01*
X016149Y005204D02*
X014870Y005204D01*
X014870Y005107D02*
X016246Y005107D01*
X016343Y005010D02*
X014870Y005010D01*
X014870Y004913D02*
X016440Y004913D01*
X016537Y004816D02*
X014870Y004816D01*
X014870Y004719D02*
X016634Y004719D01*
X016698Y004622D02*
X014870Y004622D01*
X014870Y004525D02*
X016698Y004525D01*
X016698Y004428D02*
X014870Y004428D01*
X014870Y004332D02*
X016698Y004332D01*
X016698Y004235D02*
X014870Y004235D01*
X014870Y004138D02*
X015373Y004138D01*
X015350Y004115D02*
X015414Y004179D01*
X015898Y004179D01*
X015962Y004115D01*
X015962Y003591D01*
X015898Y003527D01*
X015414Y003527D01*
X015350Y003591D01*
X015350Y003641D01*
X015272Y003609D01*
X015174Y003609D01*
X015085Y003646D01*
X015016Y003714D01*
X014979Y003804D01*
X014979Y003901D01*
X015016Y003991D01*
X015085Y004060D01*
X015174Y004097D01*
X015272Y004097D01*
X015350Y004064D01*
X015350Y004115D01*
X015223Y003853D02*
X015656Y003853D01*
X015962Y003847D02*
X016019Y003847D01*
X016019Y003944D02*
X015962Y003944D01*
X015962Y004041D02*
X016019Y004041D01*
X016043Y004138D02*
X015939Y004138D01*
X015962Y003750D02*
X016019Y003750D01*
X016019Y003653D02*
X015962Y003653D01*
X015927Y003556D02*
X016054Y003556D01*
X016597Y003556D02*
X020734Y003556D01*
X020761Y003529D01*
X020795Y003509D01*
X020833Y003499D01*
X021001Y003499D01*
X021001Y003815D01*
X021099Y003815D01*
X021099Y003499D01*
X021266Y003499D01*
X021304Y003509D01*
X021338Y003529D01*
X021366Y003556D01*
X022071Y003556D01*
X022071Y003459D02*
X014870Y003459D01*
X014870Y003362D02*
X022071Y003362D01*
X022071Y003265D02*
X014870Y003265D01*
X014870Y003168D02*
X022071Y003168D01*
X022071Y003072D02*
X014870Y003072D01*
X014870Y002975D02*
X022071Y002975D01*
X022071Y002878D02*
X014870Y002878D01*
X014870Y002781D02*
X022071Y002781D01*
X022071Y002684D02*
X021402Y002684D01*
X021653Y002587D02*
X022071Y002587D01*
X022071Y002490D02*
X021821Y002490D01*
X021935Y002393D02*
X022071Y002393D01*
X022071Y002296D02*
X022032Y002296D01*
X020678Y002684D02*
X014870Y002684D01*
X014870Y002587D02*
X020427Y002587D01*
X020259Y002490D02*
X014870Y002490D01*
X014870Y002393D02*
X020145Y002393D01*
X020048Y002296D02*
X014870Y002296D01*
X014870Y002199D02*
X019958Y002199D01*
X019902Y002102D02*
X014870Y002102D01*
X014870Y002005D02*
X019846Y002005D01*
X019791Y001908D02*
X014870Y001908D01*
X014870Y001812D02*
X019765Y001812D01*
X019739Y001715D02*
X014870Y001715D01*
X014833Y001618D02*
X019713Y001618D01*
X019700Y001521D02*
X014739Y001521D01*
X014642Y001424D02*
X019700Y001424D01*
X019700Y001327D02*
X014545Y001327D01*
X014448Y001230D02*
X019700Y001230D01*
X019723Y001133D02*
X014351Y001133D01*
X014254Y001036D02*
X019749Y001036D01*
X019775Y000939D02*
X014157Y000939D01*
X014060Y000842D02*
X019812Y000842D01*
X019868Y000745D02*
X013963Y000745D01*
X013866Y000648D02*
X019924Y000648D01*
X019988Y000551D02*
X011359Y000551D01*
X011200Y000455D02*
X020085Y000455D01*
X020734Y003556D02*
X020714Y003590D01*
X020704Y003628D01*
X020704Y003815D01*
X021001Y003815D01*
X021001Y003914D01*
X020704Y003914D01*
X020704Y004101D01*
X020714Y004139D01*
X020734Y004173D01*
X020761Y004201D01*
X020795Y004220D01*
X020796Y004220D01*
X020744Y004272D01*
X020744Y004796D01*
X020802Y004853D01*
X020768Y004887D01*
X020332Y004887D01*
X020303Y004859D01*
X020303Y004840D01*
X020406Y004840D01*
X020470Y004776D01*
X020470Y004292D01*
X020406Y004228D01*
X019883Y004228D01*
X019819Y004292D01*
X019819Y004776D01*
X019883Y004840D01*
X019986Y004840D01*
X019986Y004859D01*
X019938Y004907D01*
X019900Y004997D01*
X019900Y005094D01*
X019938Y005184D01*
X020006Y005253D01*
X020096Y005290D01*
X020193Y005290D01*
X020283Y005253D01*
X020332Y005204D01*
X020899Y005204D01*
X022071Y005204D01*
X022071Y005301D02*
X016639Y005301D01*
X016543Y005398D02*
X022071Y005398D01*
X022071Y005495D02*
X016446Y005495D01*
X016349Y005592D02*
X022071Y005592D01*
X022071Y005689D02*
X016252Y005689D01*
X016736Y005204D02*
X017295Y005204D01*
X017275Y005184D02*
X017238Y005094D01*
X017238Y004997D01*
X017275Y004907D01*
X017324Y004859D01*
X017324Y004840D01*
X017220Y004840D01*
X017156Y004776D01*
X017156Y004292D01*
X017220Y004228D01*
X017744Y004228D01*
X017808Y004292D01*
X017808Y004776D01*
X017744Y004840D01*
X017641Y004840D01*
X017641Y004859D01*
X017689Y004907D01*
X017726Y004997D01*
X017726Y005094D01*
X017689Y005184D01*
X017620Y005253D01*
X017531Y005290D01*
X017434Y005290D01*
X017344Y005253D01*
X017275Y005184D01*
X017243Y005107D02*
X016833Y005107D01*
X016930Y005010D02*
X017238Y005010D01*
X017273Y004913D02*
X017027Y004913D01*
X017114Y004816D02*
X017197Y004816D01*
X017156Y004719D02*
X017114Y004719D01*
X017114Y004622D02*
X017156Y004622D01*
X017156Y004525D02*
X017114Y004525D01*
X017114Y004428D02*
X017156Y004428D01*
X017156Y004332D02*
X017114Y004332D01*
X017114Y004235D02*
X017213Y004235D01*
X017187Y004138D02*
X017114Y004138D01*
X016698Y004138D02*
X016608Y004138D01*
X016642Y003653D02*
X017156Y003653D01*
X017808Y003653D02*
X019819Y003653D01*
X019850Y004138D02*
X017777Y004138D01*
X017751Y004235D02*
X019876Y004235D01*
X019819Y004332D02*
X017808Y004332D01*
X017808Y004428D02*
X019819Y004428D01*
X019819Y004525D02*
X017808Y004525D01*
X017808Y004622D02*
X019819Y004622D01*
X019819Y004719D02*
X017808Y004719D01*
X017768Y004816D02*
X019859Y004816D01*
X019935Y004913D02*
X017692Y004913D01*
X017726Y005010D02*
X019900Y005010D01*
X019906Y005107D02*
X017721Y005107D01*
X017669Y005204D02*
X019958Y005204D01*
X020145Y005046D02*
X020145Y004534D01*
X020470Y004525D02*
X020744Y004525D01*
X020744Y004428D02*
X020470Y004428D01*
X020470Y004332D02*
X020744Y004332D01*
X020781Y004235D02*
X020413Y004235D01*
X020439Y004138D02*
X020714Y004138D01*
X020704Y004041D02*
X020470Y004041D01*
X020470Y003944D02*
X020704Y003944D01*
X020704Y003750D02*
X020470Y003750D01*
X020470Y003653D02*
X020704Y003653D01*
X021001Y003653D02*
X021099Y003653D01*
X021099Y003556D02*
X021001Y003556D01*
X021001Y003750D02*
X021099Y003750D01*
X021099Y003815D02*
X021099Y003914D01*
X021396Y003914D01*
X021396Y004101D01*
X021386Y004139D01*
X021366Y004173D01*
X021338Y004201D01*
X021304Y004220D01*
X021356Y004272D01*
X021356Y004796D01*
X021292Y004860D01*
X021198Y004860D01*
X021198Y004905D01*
X021106Y004997D01*
X020899Y005204D01*
X020996Y005107D02*
X022071Y005107D01*
X022071Y005010D02*
X021093Y005010D01*
X021190Y004913D02*
X022071Y004913D01*
X022071Y004816D02*
X021335Y004816D01*
X021356Y004719D02*
X022071Y004719D01*
X022071Y004622D02*
X021356Y004622D01*
X021356Y004525D02*
X022071Y004525D01*
X022071Y004428D02*
X021356Y004428D01*
X021356Y004332D02*
X022071Y004332D01*
X022071Y004235D02*
X021318Y004235D01*
X021304Y004220D02*
X021304Y004220D01*
X021386Y004138D02*
X022071Y004138D01*
X022071Y004041D02*
X021396Y004041D01*
X021396Y003944D02*
X022071Y003944D01*
X022071Y003847D02*
X021099Y003847D01*
X021099Y003815D02*
X021396Y003815D01*
X021396Y003628D01*
X021386Y003590D01*
X021366Y003556D01*
X021396Y003653D02*
X022071Y003653D01*
X022071Y003750D02*
X021396Y003750D01*
X021001Y003847D02*
X020470Y003847D01*
X021050Y004534D02*
X021040Y004544D01*
X021040Y004839D01*
X020833Y005046D01*
X020145Y005046D01*
X020430Y004816D02*
X020764Y004816D01*
X020744Y004719D02*
X020470Y004719D01*
X020470Y004622D02*
X020744Y004622D01*
X019910Y006513D02*
X019910Y006610D01*
X019947Y006700D01*
X019996Y006748D01*
X019996Y007687D01*
X019971Y007628D01*
X019865Y007522D01*
X019727Y007465D01*
X019577Y007465D01*
X019439Y007522D01*
X019333Y007628D01*
X019304Y007698D01*
X019299Y007690D01*
X019271Y007662D01*
X019237Y007643D01*
X019199Y007633D01*
X018835Y007633D01*
X018835Y008481D01*
X018737Y008481D01*
X018243Y008481D01*
X018243Y007762D01*
X018253Y007724D01*
X018273Y007690D01*
X018301Y007662D01*
X018335Y007643D01*
X018373Y007633D01*
X018737Y007633D01*
X018737Y008481D01*
X018737Y008579D01*
X018737Y009427D01*
X018373Y009427D01*
X018335Y009417D01*
X018301Y009397D01*
X018273Y009370D01*
X018253Y009336D01*
X018243Y009298D01*
X018243Y008579D01*
X018737Y008579D01*
X018835Y008579D01*
X018835Y009427D01*
X019199Y009427D01*
X019237Y009417D01*
X019271Y009397D01*
X019299Y009370D01*
X019304Y009361D01*
X019333Y009432D01*
X019439Y009538D01*
X019577Y009595D01*
X019727Y009595D01*
X019865Y009538D01*
X019971Y009432D01*
X019996Y009373D01*
X019996Y009596D01*
X019736Y009856D01*
X019832Y009759D02*
X019382Y009759D01*
X019269Y009662D02*
X019929Y009662D01*
X019996Y009566D02*
X019799Y009566D01*
X019935Y009469D02*
X019996Y009469D01*
X019996Y009065D02*
X019996Y007995D01*
X019971Y008054D01*
X019865Y008160D01*
X019727Y008217D01*
X019577Y008217D01*
X019439Y008160D01*
X019333Y008054D01*
X019329Y008044D01*
X019329Y008481D01*
X018835Y008481D01*
X018835Y008579D01*
X019329Y008579D01*
X019329Y009016D01*
X019333Y009006D01*
X019439Y008900D01*
X019577Y008843D01*
X019727Y008843D01*
X019865Y008900D01*
X019971Y009006D01*
X019996Y009065D01*
X019996Y008984D02*
X019950Y008984D01*
X019996Y008887D02*
X019835Y008887D01*
X019996Y008790D02*
X019329Y008790D01*
X019329Y008693D02*
X019996Y008693D01*
X019996Y008596D02*
X019329Y008596D01*
X019329Y008402D02*
X019996Y008402D01*
X019996Y008306D02*
X019329Y008306D01*
X019329Y008209D02*
X019556Y008209D01*
X019391Y008112D02*
X019329Y008112D01*
X019748Y008209D02*
X019996Y008209D01*
X019996Y008112D02*
X019914Y008112D01*
X019988Y008015D02*
X019996Y008015D01*
X019971Y007627D02*
X019996Y007627D01*
X019996Y007530D02*
X019874Y007530D01*
X019996Y007433D02*
X019182Y007433D01*
X019170Y007438D02*
X018560Y007438D01*
X018433Y007386D01*
X018336Y007289D01*
X018283Y007162D01*
X018283Y007024D01*
X018336Y006897D01*
X018433Y006800D01*
X018560Y006747D01*
X019170Y006747D01*
X019297Y006800D01*
X019394Y006897D01*
X019446Y007024D01*
X019446Y007162D01*
X019394Y007289D01*
X019297Y007386D01*
X019170Y007438D01*
X019346Y007336D02*
X019996Y007336D01*
X019996Y007239D02*
X019414Y007239D01*
X019446Y007142D02*
X019996Y007142D01*
X019996Y007045D02*
X019446Y007045D01*
X019415Y006949D02*
X019996Y006949D01*
X019996Y006852D02*
X019348Y006852D01*
X019187Y006755D02*
X019996Y006755D01*
X019930Y006658D02*
X014870Y006658D01*
X014870Y006755D02*
X018542Y006755D01*
X018381Y006852D02*
X014870Y006852D01*
X014870Y006949D02*
X018314Y006949D01*
X018283Y007045D02*
X014870Y007045D01*
X014870Y007142D02*
X017000Y007142D01*
X017108Y007142D02*
X018283Y007142D01*
X018315Y007239D02*
X017258Y007239D01*
X017355Y007336D02*
X018383Y007336D01*
X018547Y007433D02*
X017452Y007433D01*
X017549Y007530D02*
X019431Y007530D01*
X019334Y007627D02*
X017646Y007627D01*
X017743Y007724D02*
X018253Y007724D01*
X018243Y007821D02*
X017795Y007821D01*
X017803Y007918D02*
X018243Y007918D01*
X018243Y008015D02*
X017803Y008015D01*
X017803Y008112D02*
X018243Y008112D01*
X018243Y008209D02*
X017803Y008209D01*
X017803Y008306D02*
X018243Y008306D01*
X018243Y008402D02*
X017803Y008402D01*
X017803Y008499D02*
X018737Y008499D01*
X018737Y008402D02*
X018835Y008402D01*
X018835Y008306D02*
X018737Y008306D01*
X018737Y008209D02*
X018835Y008209D01*
X018835Y008112D02*
X018737Y008112D01*
X018737Y008015D02*
X018835Y008015D01*
X018835Y007918D02*
X018737Y007918D01*
X018737Y007821D02*
X018835Y007821D01*
X018835Y007724D02*
X018737Y007724D01*
X018835Y008499D02*
X019996Y008499D01*
X019470Y008887D02*
X019329Y008887D01*
X019329Y008984D02*
X019355Y008984D01*
X019308Y009372D02*
X019297Y009372D01*
X019370Y009469D02*
X017803Y009469D01*
X017803Y009566D02*
X019506Y009566D01*
X018835Y009372D02*
X018737Y009372D01*
X018737Y009275D02*
X018835Y009275D01*
X018835Y009178D02*
X018737Y009178D01*
X018737Y009081D02*
X018835Y009081D01*
X018835Y008984D02*
X018737Y008984D01*
X018737Y008887D02*
X018835Y008887D01*
X018835Y008790D02*
X018737Y008790D01*
X018737Y008693D02*
X018835Y008693D01*
X018835Y008596D02*
X018737Y008596D01*
X018243Y008596D02*
X017803Y008596D01*
X017803Y008693D02*
X018243Y008693D01*
X018243Y008790D02*
X017803Y008790D01*
X017803Y008887D02*
X018243Y008887D01*
X018243Y008984D02*
X017803Y008984D01*
X017803Y009081D02*
X018243Y009081D01*
X018243Y009178D02*
X017803Y009178D01*
X017803Y009275D02*
X018243Y009275D01*
X018275Y009372D02*
X017803Y009372D01*
X017803Y009662D02*
X018461Y009662D01*
X018348Y009759D02*
X017803Y009759D01*
X017803Y009856D02*
X018300Y009856D01*
X018283Y009953D02*
X017803Y009953D01*
X017803Y010050D02*
X018289Y010050D01*
X018329Y010147D02*
X017803Y010147D01*
X017803Y010244D02*
X018417Y010244D01*
X017289Y010244D02*
X016523Y010244D01*
X016523Y010147D02*
X017289Y010147D01*
X017289Y010050D02*
X016523Y010050D01*
X016523Y009953D02*
X017289Y009953D01*
X017289Y009856D02*
X016523Y009856D01*
X016108Y009856D02*
X012655Y009856D01*
X012655Y009759D02*
X015137Y009759D01*
X014805Y009662D02*
X012655Y009662D01*
X012655Y009566D02*
X014695Y009566D01*
X014598Y009469D02*
X012655Y009469D01*
X012616Y009953D02*
X016108Y009953D01*
X016108Y010050D02*
X009251Y010050D01*
X009273Y009953D02*
X009154Y009953D01*
X009247Y009856D02*
X009057Y009856D01*
X008960Y009759D02*
X009247Y009759D01*
X009247Y009566D02*
X008944Y009566D01*
X008944Y009662D02*
X009564Y009662D01*
X009564Y009566D02*
X009662Y009566D01*
X009662Y009469D02*
X009564Y009469D01*
X009564Y009372D02*
X009662Y009372D01*
X009937Y009372D02*
X010014Y009372D01*
X010025Y009275D02*
X008944Y009275D01*
X008944Y009372D02*
X009288Y009372D01*
X009247Y009469D02*
X008944Y009469D01*
X008944Y009744D02*
X010771Y011570D01*
X011411Y011570D01*
X011504Y011663D01*
X014278Y014437D01*
X014346Y014437D01*
X014436Y014474D01*
X014505Y014543D01*
X014542Y014633D01*
X014542Y014730D01*
X014505Y014820D01*
X014436Y014889D01*
X014346Y014926D01*
X014249Y014926D01*
X014159Y014889D01*
X014091Y014820D01*
X014054Y014730D01*
X014054Y014661D01*
X011279Y011887D01*
X010640Y011887D01*
X008649Y009897D01*
X008649Y010039D01*
X010869Y012259D01*
X011165Y012259D01*
X011257Y012352D01*
X013343Y014437D01*
X013362Y014437D01*
X013452Y014474D01*
X013521Y014543D01*
X013558Y014633D01*
X013558Y014730D01*
X013521Y014820D01*
X013452Y014889D01*
X013362Y014926D01*
X013265Y014926D01*
X013175Y014889D01*
X013107Y014820D01*
X013069Y014730D01*
X013069Y014633D01*
X013075Y014618D01*
X011033Y012576D01*
X010738Y012576D01*
X008425Y010263D01*
X008354Y010192D01*
X008354Y010482D01*
X012309Y014437D01*
X012378Y014437D01*
X012468Y014474D01*
X012536Y014543D01*
X012574Y014633D01*
X012574Y014730D01*
X012536Y014820D01*
X012468Y014889D01*
X012378Y014926D01*
X012281Y014926D01*
X012191Y014889D01*
X012122Y014820D01*
X012085Y014730D01*
X012085Y014661D01*
X008130Y010706D01*
X008059Y010635D01*
X008059Y011171D01*
X011325Y014437D01*
X011394Y014437D01*
X011483Y014474D01*
X011552Y014543D01*
X011589Y014633D01*
X011589Y014730D01*
X011552Y014820D01*
X011483Y014889D01*
X011394Y014926D01*
X011297Y014926D01*
X011207Y014889D01*
X011138Y014820D01*
X011101Y014730D01*
X011101Y014661D01*
X007835Y011395D01*
X007742Y011302D01*
X007742Y006988D01*
X008135Y006594D01*
X008228Y006501D01*
X008304Y006501D01*
X008352Y006453D01*
X008442Y006416D01*
X008539Y006416D01*
X008629Y006453D01*
X008698Y006522D01*
X008735Y006611D01*
X008735Y006708D01*
X008698Y006797D01*
X008704Y006797D01*
X008717Y006809D01*
X008785Y006809D01*
X008875Y006847D01*
X008944Y006915D01*
X008981Y007005D01*
X008981Y007102D01*
X008944Y007192D01*
X008875Y007261D01*
X008785Y007298D01*
X008734Y007298D01*
X008735Y007300D01*
X008735Y007397D01*
X008698Y007487D01*
X008651Y007534D01*
X008737Y007498D01*
X008835Y007498D01*
X008924Y007535D01*
X008993Y007604D01*
X009030Y007694D01*
X009030Y007791D01*
X008993Y007881D01*
X008944Y007929D01*
X008944Y009744D01*
X008786Y009809D02*
X010705Y011729D01*
X011345Y011729D01*
X014298Y014681D01*
X014470Y014509D02*
X015296Y014509D01*
X015137Y014606D02*
X014531Y014606D01*
X014542Y014703D02*
X015040Y014703D01*
X014943Y014800D02*
X014513Y014800D01*
X014417Y014896D02*
X014868Y014896D01*
X014813Y014993D02*
X000422Y014993D01*
X000422Y014896D02*
X011226Y014896D01*
X011130Y014800D02*
X000422Y014800D01*
X000422Y014703D02*
X011101Y014703D01*
X011045Y014606D02*
X000422Y014606D01*
X000422Y014509D02*
X010948Y014509D01*
X010851Y014412D02*
X000422Y014412D01*
X000422Y014315D02*
X010754Y014315D01*
X010658Y014218D02*
X000422Y014218D01*
X000422Y014121D02*
X010561Y014121D01*
X010464Y014024D02*
X000422Y014024D01*
X000422Y013927D02*
X010367Y013927D01*
X010270Y013830D02*
X000422Y013830D01*
X000422Y013733D02*
X010173Y013733D01*
X010076Y013636D02*
X000422Y013636D01*
X000422Y013539D02*
X009979Y013539D01*
X009882Y013443D02*
X000422Y013443D01*
X000422Y013346D02*
X009785Y013346D01*
X009688Y013249D02*
X000422Y013249D01*
X000422Y013152D02*
X009591Y013152D01*
X009494Y013055D02*
X000422Y013055D01*
X000422Y012958D02*
X009397Y012958D01*
X009301Y012861D02*
X000422Y012861D01*
X000422Y012764D02*
X009204Y012764D01*
X009107Y012667D02*
X000422Y012667D01*
X000422Y012570D02*
X009010Y012570D01*
X008913Y012473D02*
X000422Y012473D01*
X000422Y012376D02*
X008816Y012376D01*
X008719Y012279D02*
X000422Y012279D01*
X000422Y012183D02*
X008622Y012183D01*
X008525Y012086D02*
X000422Y012086D01*
X000422Y011989D02*
X008428Y011989D01*
X008331Y011892D02*
X000422Y011892D01*
X000422Y011795D02*
X008234Y011795D01*
X008137Y011698D02*
X000422Y011698D01*
X000422Y011601D02*
X008041Y011601D01*
X007944Y011504D02*
X000422Y011504D01*
X000422Y011407D02*
X007847Y011407D01*
X007750Y011310D02*
X000422Y011310D01*
X000422Y011213D02*
X007742Y011213D01*
X007742Y011116D02*
X000422Y011116D01*
X000422Y011019D02*
X007742Y011019D01*
X007742Y010923D02*
X000422Y010923D01*
X000422Y010826D02*
X007742Y010826D01*
X007742Y010729D02*
X000422Y010729D01*
X000422Y010632D02*
X007742Y010632D01*
X007742Y010535D02*
X000422Y010535D01*
X000422Y010438D02*
X007742Y010438D01*
X007742Y010341D02*
X000422Y010341D01*
X000422Y010244D02*
X007742Y010244D01*
X007742Y010147D02*
X000422Y010147D01*
X000422Y010050D02*
X007742Y010050D01*
X007742Y009953D02*
X000422Y009953D01*
X000422Y009856D02*
X007742Y009856D01*
X007742Y009759D02*
X000422Y009759D01*
X000422Y009662D02*
X007742Y009662D01*
X007742Y009566D02*
X000422Y009566D01*
X000422Y009469D02*
X007742Y009469D01*
X007742Y009372D02*
X000422Y009372D01*
X000422Y009275D02*
X007742Y009275D01*
X007742Y009178D02*
X000422Y009178D01*
X000422Y009081D02*
X007742Y009081D01*
X007742Y008984D02*
X000422Y008984D01*
X000422Y008887D02*
X005156Y008887D01*
X005134Y008865D02*
X005097Y008775D01*
X005097Y008678D01*
X005134Y008588D01*
X005203Y008520D01*
X005293Y008483D01*
X005361Y008483D01*
X006905Y006939D01*
X006905Y004188D01*
X006878Y004216D01*
X006878Y006430D01*
X005585Y007722D01*
X005585Y007791D01*
X005548Y007881D01*
X005479Y007950D01*
X005390Y007987D01*
X005293Y007987D01*
X005203Y007950D01*
X005134Y007881D01*
X005097Y007791D01*
X005097Y007694D01*
X005134Y007604D01*
X005203Y007535D01*
X005293Y007498D01*
X005361Y007498D01*
X006561Y006299D01*
X006561Y004090D01*
X006533Y004117D01*
X006533Y005790D01*
X005585Y006738D01*
X005585Y006807D01*
X005548Y006897D01*
X005479Y006965D01*
X005390Y007002D01*
X005293Y007002D01*
X005203Y006965D01*
X005134Y006897D01*
X005097Y006807D01*
X005097Y006710D01*
X005134Y006620D01*
X005203Y006551D01*
X005293Y006514D01*
X005361Y006514D01*
X006216Y005659D01*
X006216Y003991D01*
X006189Y004019D01*
X006189Y005151D01*
X005585Y005754D01*
X005585Y005823D01*
X005548Y005912D01*
X005479Y005981D01*
X005390Y006018D01*
X005293Y006018D01*
X005203Y005981D01*
X005134Y005912D01*
X005097Y005823D01*
X005097Y005725D01*
X005134Y005636D01*
X005203Y005567D01*
X005293Y005530D01*
X005361Y005530D01*
X005872Y005019D01*
X005872Y003888D01*
X005964Y003795D01*
X007638Y002121D01*
X007771Y002121D01*
X007727Y002077D01*
X007664Y001926D01*
X007664Y001763D01*
X007727Y001613D01*
X007842Y001498D01*
X007992Y001436D01*
X008155Y001436D01*
X008305Y001498D01*
X008420Y001613D01*
X008483Y001763D01*
X008483Y001926D01*
X008420Y002077D01*
X008376Y002121D01*
X008771Y002121D01*
X008727Y002077D01*
X008664Y001926D01*
X008664Y001763D01*
X008727Y001613D01*
X008842Y001498D01*
X008992Y001436D01*
X009155Y001436D01*
X009305Y001498D01*
X009420Y001613D01*
X009483Y001763D01*
X009483Y001926D01*
X009420Y002077D01*
X009376Y002121D01*
X009771Y002121D01*
X009727Y002077D01*
X009664Y001926D01*
X009664Y001763D01*
X009727Y001613D01*
X009842Y001498D01*
X009992Y001436D01*
X010155Y001436D01*
X010305Y001498D01*
X010420Y001613D01*
X010483Y001763D01*
X010483Y001926D01*
X010420Y002077D01*
X010376Y002121D01*
X010664Y002121D01*
X010664Y001500D01*
X010728Y001436D01*
X011419Y001436D01*
X011483Y001500D01*
X011483Y002121D01*
X012592Y002121D01*
X012685Y002214D01*
X013226Y002756D01*
X013226Y003126D01*
X013275Y003175D01*
X013312Y003265D01*
X013312Y003362D01*
X013275Y003452D01*
X013206Y003520D01*
X013116Y003558D01*
X013019Y003558D01*
X012929Y003520D01*
X012860Y003452D01*
X012823Y003362D01*
X012823Y003265D01*
X012825Y003261D01*
X012821Y003262D01*
X012724Y003262D01*
X012719Y003261D01*
X012721Y003265D01*
X012721Y003362D01*
X012684Y003452D01*
X012615Y003520D01*
X012526Y003558D01*
X012428Y003558D01*
X012339Y003520D01*
X012270Y003452D01*
X012233Y003362D01*
X012233Y003265D01*
X012235Y003261D01*
X012230Y003262D01*
X012133Y003262D01*
X012043Y003225D01*
X011995Y003177D01*
X008360Y003177D01*
X007222Y004314D01*
X007222Y007070D01*
X005585Y008707D01*
X005585Y008775D01*
X005548Y008865D01*
X005479Y008934D01*
X005390Y008971D01*
X005293Y008971D01*
X005203Y008934D01*
X005134Y008865D01*
X005103Y008790D02*
X000422Y008790D01*
X000422Y008693D02*
X005097Y008693D01*
X005131Y008596D02*
X000422Y008596D01*
X000422Y008499D02*
X005252Y008499D01*
X005441Y008402D02*
X000422Y008402D01*
X000422Y008306D02*
X005538Y008306D01*
X005635Y008209D02*
X000422Y008209D01*
X000422Y008112D02*
X005732Y008112D01*
X005829Y008015D02*
X000422Y008015D01*
X000422Y007918D02*
X005171Y007918D01*
X005109Y007821D02*
X000422Y007821D01*
X000422Y007724D02*
X005097Y007724D01*
X005125Y007627D02*
X000422Y007627D01*
X000422Y007530D02*
X005216Y007530D01*
X005426Y007433D02*
X000422Y007433D01*
X000422Y007336D02*
X005523Y007336D01*
X005620Y007239D02*
X000422Y007239D01*
X000422Y007142D02*
X005717Y007142D01*
X005814Y007045D02*
X000422Y007045D01*
X000422Y006949D02*
X005186Y006949D01*
X005115Y006852D02*
X000422Y006852D01*
X000422Y006755D02*
X005097Y006755D01*
X005118Y006658D02*
X000422Y006658D01*
X000422Y006561D02*
X005193Y006561D01*
X005411Y006464D02*
X000422Y006464D01*
X000422Y006367D02*
X005508Y006367D01*
X005605Y006270D02*
X000422Y006270D01*
X000422Y006173D02*
X005702Y006173D01*
X005799Y006076D02*
X000422Y006076D01*
X000422Y005979D02*
X005201Y005979D01*
X005122Y005882D02*
X000422Y005882D01*
X000422Y005785D02*
X005097Y005785D01*
X005112Y005689D02*
X000422Y005689D01*
X000422Y005592D02*
X005178Y005592D01*
X005396Y005495D02*
X000422Y005495D01*
X000422Y005398D02*
X005493Y005398D01*
X005590Y005301D02*
X000422Y005301D01*
X000422Y005204D02*
X005687Y005204D01*
X005784Y005107D02*
X000422Y005107D01*
X000422Y005010D02*
X005872Y005010D01*
X005872Y004913D02*
X000422Y004913D01*
X000422Y004816D02*
X005872Y004816D01*
X005872Y004719D02*
X000422Y004719D01*
X000422Y004622D02*
X005872Y004622D01*
X005872Y004525D02*
X000422Y004525D01*
X000422Y004428D02*
X005872Y004428D01*
X005872Y004332D02*
X000422Y004332D01*
X000422Y004235D02*
X005872Y004235D01*
X005872Y004138D02*
X000422Y004138D01*
X000422Y004041D02*
X005872Y004041D01*
X005872Y003944D02*
X000422Y003944D01*
X000422Y003847D02*
X005912Y003847D01*
X006009Y003750D02*
X000422Y003750D01*
X000422Y003653D02*
X006106Y003653D01*
X006203Y003556D02*
X000422Y003556D01*
X000422Y003459D02*
X006300Y003459D01*
X006397Y003362D02*
X000422Y003362D01*
X000422Y003265D02*
X006080Y003265D01*
X006089Y003274D02*
X006040Y003226D01*
X005161Y003226D01*
X005029Y003226D01*
X003799Y001995D01*
X003412Y001995D01*
X003363Y002044D01*
X003274Y002081D01*
X003176Y002081D01*
X003087Y002044D01*
X003018Y001975D01*
X002981Y001886D01*
X002981Y001788D01*
X003018Y001699D01*
X003087Y001630D01*
X003176Y001593D01*
X003274Y001593D01*
X003363Y001630D01*
X003412Y001679D01*
X003930Y001679D01*
X004023Y001771D01*
X005161Y002909D01*
X006040Y002909D01*
X006089Y002860D01*
X006178Y002823D01*
X006276Y002823D01*
X006365Y002860D01*
X006434Y002929D01*
X006471Y003019D01*
X006471Y003116D01*
X006434Y003206D01*
X006365Y003274D01*
X006276Y003312D01*
X006178Y003312D01*
X006089Y003274D01*
X006227Y003067D02*
X005095Y003067D01*
X003865Y001837D01*
X003225Y001837D01*
X003048Y002005D02*
X000422Y002005D01*
X000422Y001908D02*
X002990Y001908D01*
X002981Y001812D02*
X000422Y001812D01*
X000422Y001715D02*
X003011Y001715D01*
X003116Y001618D02*
X000422Y001618D01*
X000422Y001521D02*
X004937Y001521D01*
X004937Y001424D02*
X000422Y001424D01*
X000422Y001327D02*
X004937Y001327D01*
X004937Y001230D02*
X000422Y001230D01*
X000422Y001133D02*
X004959Y001133D01*
X004985Y001036D02*
X000422Y001036D01*
X000422Y000939D02*
X005011Y000939D01*
X005048Y000842D02*
X000422Y000842D01*
X000422Y000745D02*
X005104Y000745D01*
X005160Y000648D02*
X000422Y000648D01*
X000422Y000551D02*
X005224Y000551D01*
X005321Y000455D02*
X000422Y000455D01*
X000422Y002102D02*
X003906Y002102D01*
X003809Y002005D02*
X003402Y002005D01*
X003334Y001618D02*
X004949Y001618D01*
X004975Y001715D02*
X003966Y001715D01*
X004063Y001812D02*
X005001Y001812D01*
X005027Y001908D02*
X004160Y001908D01*
X004257Y002005D02*
X005082Y002005D01*
X005138Y002102D02*
X004354Y002102D01*
X004451Y002199D02*
X005194Y002199D01*
X005284Y002296D02*
X004548Y002296D01*
X004645Y002393D02*
X005381Y002393D01*
X005495Y002490D02*
X004742Y002490D01*
X004839Y002587D02*
X005663Y002587D01*
X005914Y002684D02*
X004936Y002684D01*
X005033Y002781D02*
X006978Y002781D01*
X006882Y002878D02*
X006383Y002878D01*
X006453Y002975D02*
X006785Y002975D01*
X006688Y003072D02*
X006471Y003072D01*
X006449Y003168D02*
X006591Y003168D01*
X006494Y003265D02*
X006374Y003265D01*
X006071Y002878D02*
X005129Y002878D01*
X004875Y003072D02*
X000422Y003072D01*
X000422Y003168D02*
X004972Y003168D01*
X004778Y002975D02*
X000422Y002975D01*
X000422Y002878D02*
X004681Y002878D01*
X004584Y002781D02*
X000422Y002781D01*
X000422Y002684D02*
X004488Y002684D01*
X004391Y002587D02*
X000422Y002587D01*
X000422Y002490D02*
X004294Y002490D01*
X004197Y002393D02*
X000422Y002393D01*
X000422Y002296D02*
X004100Y002296D01*
X004003Y002199D02*
X000422Y002199D01*
X005341Y005774D02*
X006030Y005085D01*
X006030Y003953D01*
X007703Y002280D01*
X012526Y002280D01*
X013068Y002821D01*
X013068Y003313D01*
X013268Y003168D02*
X014356Y003168D01*
X014356Y003072D02*
X013226Y003072D01*
X013226Y002975D02*
X014356Y002975D01*
X014356Y002878D02*
X013226Y002878D01*
X013226Y002781D02*
X014356Y002781D01*
X014356Y002684D02*
X013154Y002684D01*
X013057Y002587D02*
X014356Y002587D01*
X014356Y002490D02*
X012960Y002490D01*
X012863Y002393D02*
X014356Y002393D01*
X014356Y002296D02*
X012766Y002296D01*
X012670Y002199D02*
X014356Y002199D01*
X014356Y002102D02*
X011483Y002102D01*
X011483Y002005D02*
X014356Y002005D01*
X014356Y001908D02*
X011483Y001908D01*
X011483Y001812D02*
X014303Y001812D01*
X014206Y001715D02*
X011483Y001715D01*
X011483Y001618D02*
X014109Y001618D01*
X014012Y001521D02*
X011483Y001521D01*
X011213Y001230D02*
X013721Y001230D01*
X013624Y001133D02*
X011364Y001133D01*
X010934Y001230D02*
X010213Y001230D01*
X010155Y001254D02*
X010305Y001192D01*
X010420Y001077D01*
X010483Y000926D01*
X010483Y000763D01*
X010420Y000613D01*
X010305Y000498D01*
X010155Y000436D01*
X009992Y000436D01*
X009842Y000498D01*
X009727Y000613D01*
X009664Y000763D01*
X009664Y000926D01*
X009727Y001077D01*
X009842Y001192D01*
X009992Y001254D01*
X010155Y001254D01*
X009934Y001230D02*
X009213Y001230D01*
X009155Y001254D02*
X008992Y001254D01*
X008842Y001192D01*
X008727Y001077D01*
X008664Y000926D01*
X008664Y000763D01*
X008727Y000613D01*
X008842Y000498D01*
X008992Y000436D01*
X009155Y000436D01*
X009305Y000498D01*
X009420Y000613D01*
X009483Y000763D01*
X009483Y000926D01*
X009420Y001077D01*
X009305Y001192D01*
X009155Y001254D01*
X008934Y001230D02*
X008307Y001230D01*
X008309Y001229D02*
X008246Y001261D01*
X008179Y001283D01*
X008123Y001292D01*
X008123Y000894D01*
X008520Y000894D01*
X008512Y000950D01*
X008490Y001017D01*
X008458Y001080D01*
X008416Y001138D01*
X008366Y001188D01*
X008309Y001229D01*
X008419Y001133D02*
X008783Y001133D01*
X008710Y001036D02*
X008480Y001036D01*
X008513Y000939D02*
X008670Y000939D01*
X008664Y000842D02*
X008123Y000842D01*
X008123Y000796D02*
X008123Y000894D01*
X008024Y000894D01*
X008024Y000796D01*
X007626Y000796D01*
X007635Y000740D01*
X007657Y000672D01*
X007689Y000609D01*
X007731Y000552D01*
X007781Y000502D01*
X007838Y000461D01*
X007901Y000429D01*
X007968Y000407D01*
X008024Y000398D01*
X008024Y000796D01*
X008123Y000796D01*
X008520Y000796D01*
X008512Y000740D01*
X008490Y000672D01*
X008458Y000609D01*
X008416Y000552D01*
X008366Y000502D01*
X008309Y000461D01*
X008246Y000429D01*
X008179Y000407D01*
X008123Y000398D01*
X008123Y000796D01*
X008123Y000745D02*
X008024Y000745D01*
X008024Y000648D02*
X008123Y000648D01*
X008123Y000551D02*
X008024Y000551D01*
X008024Y000455D02*
X008123Y000455D01*
X008297Y000455D02*
X008946Y000455D01*
X008788Y000551D02*
X008415Y000551D01*
X008477Y000648D02*
X008712Y000648D01*
X008672Y000745D02*
X008512Y000745D01*
X008123Y000939D02*
X008024Y000939D01*
X008024Y000894D02*
X008024Y001292D01*
X007968Y001283D01*
X007901Y001261D01*
X007838Y001229D01*
X007781Y001188D01*
X007731Y001138D01*
X007689Y001080D01*
X007657Y001017D01*
X007635Y000950D01*
X007626Y000894D01*
X008024Y000894D01*
X008024Y000842D02*
X007504Y000842D01*
X007541Y000939D02*
X007634Y000939D01*
X007667Y001036D02*
X007567Y001036D01*
X007593Y001133D02*
X007728Y001133D01*
X007616Y001230D02*
X007840Y001230D01*
X008024Y001230D02*
X008123Y001230D01*
X008123Y001133D02*
X008024Y001133D01*
X008024Y001036D02*
X008123Y001036D01*
X008328Y001521D02*
X008819Y001521D01*
X008725Y001618D02*
X008422Y001618D01*
X008462Y001715D02*
X008684Y001715D01*
X008664Y001812D02*
X008483Y001812D01*
X008483Y001908D02*
X008664Y001908D01*
X008697Y002005D02*
X008450Y002005D01*
X008395Y002102D02*
X008752Y002102D01*
X009395Y002102D02*
X009752Y002102D01*
X009697Y002005D02*
X009450Y002005D01*
X009483Y001908D02*
X009664Y001908D01*
X009664Y001812D02*
X009483Y001812D01*
X009462Y001715D02*
X009684Y001715D01*
X009725Y001618D02*
X009422Y001618D01*
X009328Y001521D02*
X009819Y001521D01*
X009783Y001133D02*
X009364Y001133D01*
X009437Y001036D02*
X009710Y001036D01*
X009670Y000939D02*
X009477Y000939D01*
X009483Y000842D02*
X009664Y000842D01*
X009672Y000745D02*
X009475Y000745D01*
X009435Y000648D02*
X009712Y000648D01*
X009788Y000551D02*
X009359Y000551D01*
X009200Y000455D02*
X009946Y000455D01*
X010200Y000455D02*
X010946Y000455D01*
X010788Y000551D02*
X010359Y000551D01*
X010435Y000648D02*
X010712Y000648D01*
X010672Y000745D02*
X010475Y000745D01*
X010483Y000842D02*
X010664Y000842D01*
X010670Y000939D02*
X010477Y000939D01*
X010437Y001036D02*
X010710Y001036D01*
X010783Y001133D02*
X010364Y001133D01*
X010328Y001521D02*
X010664Y001521D01*
X010664Y001618D02*
X010422Y001618D01*
X010462Y001715D02*
X010664Y001715D01*
X010664Y001812D02*
X010483Y001812D01*
X010483Y001908D02*
X010664Y001908D01*
X010664Y002005D02*
X010450Y002005D01*
X010395Y002102D02*
X010664Y002102D01*
X012182Y003018D02*
X008294Y003018D01*
X007064Y004248D01*
X007064Y007004D01*
X005341Y008727D01*
X005526Y008887D02*
X007742Y008887D01*
X007742Y008790D02*
X005579Y008790D01*
X005599Y008693D02*
X007742Y008693D01*
X007742Y008596D02*
X005696Y008596D01*
X005793Y008499D02*
X007742Y008499D01*
X007742Y008402D02*
X005890Y008402D01*
X005986Y008306D02*
X007742Y008306D01*
X007742Y008209D02*
X006083Y008209D01*
X006180Y008112D02*
X007742Y008112D01*
X007742Y008015D02*
X006277Y008015D01*
X006374Y007918D02*
X007742Y007918D01*
X007742Y007821D02*
X006471Y007821D01*
X006568Y007724D02*
X007742Y007724D01*
X007742Y007627D02*
X006665Y007627D01*
X006762Y007530D02*
X007742Y007530D01*
X007742Y007433D02*
X006859Y007433D01*
X006956Y007336D02*
X007742Y007336D01*
X007742Y007239D02*
X007053Y007239D01*
X007150Y007142D02*
X007742Y007142D01*
X007742Y007045D02*
X007222Y007045D01*
X007222Y006949D02*
X007781Y006949D01*
X007878Y006852D02*
X007222Y006852D01*
X007222Y006755D02*
X007975Y006755D01*
X008072Y006658D02*
X007222Y006658D01*
X007222Y006561D02*
X008169Y006561D01*
X008294Y006660D02*
X008491Y006660D01*
X008294Y006660D02*
X007900Y007054D01*
X007900Y011237D01*
X011345Y014681D01*
X011518Y014509D02*
X011933Y014509D01*
X012029Y014606D02*
X011578Y014606D01*
X011589Y014703D02*
X012085Y014703D01*
X012114Y014800D02*
X011561Y014800D01*
X011464Y014896D02*
X012210Y014896D01*
X012449Y014896D02*
X013194Y014896D01*
X013098Y014800D02*
X012545Y014800D01*
X012574Y014703D02*
X013069Y014703D01*
X013063Y014606D02*
X012562Y014606D01*
X012502Y014509D02*
X012966Y014509D01*
X012869Y014412D02*
X012284Y014412D01*
X012187Y014315D02*
X012772Y014315D01*
X012675Y014218D02*
X012090Y014218D01*
X011993Y014121D02*
X012578Y014121D01*
X012481Y014024D02*
X011896Y014024D01*
X011799Y013927D02*
X012384Y013927D01*
X012288Y013830D02*
X011702Y013830D01*
X011605Y013733D02*
X012191Y013733D01*
X012094Y013636D02*
X011508Y013636D01*
X011411Y013539D02*
X011997Y013539D01*
X011900Y013443D02*
X011314Y013443D01*
X011218Y013346D02*
X011803Y013346D01*
X011706Y013249D02*
X011121Y013249D01*
X011024Y013152D02*
X011609Y013152D01*
X011512Y013055D02*
X010927Y013055D01*
X010830Y012958D02*
X011415Y012958D01*
X011318Y012861D02*
X010733Y012861D01*
X010636Y012764D02*
X011221Y012764D01*
X011124Y012667D02*
X010539Y012667D01*
X010442Y012570D02*
X010732Y012570D01*
X010635Y012473D02*
X010345Y012473D01*
X010248Y012376D02*
X010538Y012376D01*
X010441Y012279D02*
X010151Y012279D01*
X010054Y012183D02*
X010345Y012183D01*
X010248Y012086D02*
X009957Y012086D01*
X009861Y011989D02*
X010151Y011989D01*
X010054Y011892D02*
X009764Y011892D01*
X009667Y011795D02*
X009957Y011795D01*
X009860Y011698D02*
X009570Y011698D01*
X009473Y011601D02*
X009763Y011601D01*
X009666Y011504D02*
X009376Y011504D01*
X009279Y011407D02*
X009569Y011407D01*
X009472Y011310D02*
X009182Y011310D01*
X009085Y011213D02*
X009375Y011213D01*
X009278Y011116D02*
X008988Y011116D01*
X008891Y011019D02*
X009181Y011019D01*
X009084Y010923D02*
X008794Y010923D01*
X008697Y010826D02*
X008988Y010826D01*
X008891Y010729D02*
X008601Y010729D01*
X008504Y010632D02*
X008794Y010632D01*
X008697Y010535D02*
X008407Y010535D01*
X008354Y010438D02*
X008600Y010438D01*
X008503Y010341D02*
X008354Y010341D01*
X008354Y010244D02*
X008406Y010244D01*
X008491Y010105D02*
X008491Y007349D01*
X008720Y007433D02*
X010025Y007433D01*
X010025Y007336D02*
X008735Y007336D01*
X008896Y007239D02*
X010025Y007239D01*
X010025Y007142D02*
X008964Y007142D01*
X008981Y007045D02*
X010025Y007045D01*
X010025Y006949D02*
X008958Y006949D01*
X008880Y006852D02*
X010025Y006852D01*
X010025Y006755D02*
X008716Y006755D01*
X008735Y006658D02*
X010025Y006658D01*
X010025Y006561D02*
X008714Y006561D01*
X008640Y006464D02*
X010025Y006464D01*
X010025Y006367D02*
X007222Y006367D01*
X007222Y006270D02*
X010025Y006270D01*
X010025Y006173D02*
X007222Y006173D01*
X007222Y006076D02*
X010025Y006076D01*
X010025Y005979D02*
X007222Y005979D01*
X007222Y005882D02*
X010025Y005882D01*
X010025Y005785D02*
X007222Y005785D01*
X007222Y005689D02*
X010025Y005689D01*
X010025Y005592D02*
X007222Y005592D01*
X007222Y005495D02*
X010038Y005495D01*
X010098Y005398D02*
X007222Y005398D01*
X007222Y005301D02*
X010404Y005301D01*
X010419Y005204D02*
X010795Y005204D01*
X010778Y005197D02*
X010692Y005111D01*
X010645Y004998D01*
X010645Y004877D01*
X010652Y004862D01*
X010529Y004739D01*
X010497Y004739D01*
X010522Y004764D01*
X010568Y004877D01*
X010568Y004998D01*
X010522Y005111D01*
X010436Y005197D01*
X010323Y005243D01*
X010202Y005243D01*
X010089Y005197D01*
X010003Y005111D01*
X009956Y004998D01*
X009956Y004877D01*
X009963Y004862D01*
X009907Y004806D01*
X009907Y004681D01*
X009859Y004633D01*
X009821Y004543D01*
X009821Y004446D01*
X009859Y004356D01*
X009927Y004287D01*
X010017Y004250D01*
X010114Y004250D01*
X010204Y004287D01*
X010273Y004356D01*
X010287Y004391D01*
X010301Y004356D01*
X010370Y004287D01*
X010460Y004250D01*
X010557Y004250D01*
X010647Y004287D01*
X010715Y004356D01*
X010753Y004446D01*
X010753Y004515D01*
X010876Y004638D01*
X010890Y004631D01*
X011012Y004631D01*
X011125Y004678D01*
X011211Y004764D01*
X011257Y004877D01*
X011257Y004998D01*
X011211Y005111D01*
X011125Y005197D01*
X011012Y005243D01*
X010890Y005243D01*
X010778Y005197D01*
X010690Y005107D02*
X010523Y005107D01*
X010564Y005010D02*
X010650Y005010D01*
X010645Y004913D02*
X010568Y004913D01*
X010543Y004816D02*
X010606Y004816D01*
X010860Y004622D02*
X011504Y004622D01*
X011451Y004719D02*
X011166Y004719D01*
X011232Y004816D02*
X011443Y004816D01*
X011472Y004913D02*
X011257Y004913D01*
X011253Y005010D02*
X011560Y005010D01*
X011212Y005107D02*
X012203Y005107D01*
X012208Y005204D02*
X011108Y005204D01*
X011022Y005301D02*
X010987Y005301D01*
X011316Y005301D02*
X011414Y005301D01*
X011414Y005398D02*
X011316Y005398D01*
X011316Y005495D02*
X011414Y005495D01*
X011414Y005592D02*
X012141Y005592D01*
X012141Y005689D02*
X011731Y005689D01*
X011731Y005785D02*
X012141Y005785D01*
X012141Y005882D02*
X011684Y005882D01*
X011414Y005882D02*
X011316Y005882D01*
X011316Y005785D02*
X011414Y005785D01*
X011414Y005689D02*
X011316Y005689D01*
X011046Y005882D02*
X010958Y005882D01*
X010539Y005979D02*
X012149Y005979D01*
X012101Y006076D02*
X010539Y006076D01*
X010539Y006173D02*
X012101Y006173D01*
X012101Y006367D02*
X010539Y006367D01*
X010539Y006270D02*
X012398Y006270D01*
X012398Y006367D02*
X012497Y006367D01*
X012497Y006270D02*
X014356Y006270D01*
X014356Y006173D02*
X013595Y006173D01*
X013620Y006076D02*
X014356Y006076D01*
X014356Y005979D02*
X013620Y005979D01*
X013620Y005785D02*
X014356Y005785D01*
X014356Y005689D02*
X013620Y005689D01*
X013606Y005592D02*
X014356Y005592D01*
X014356Y005495D02*
X013551Y005495D01*
X013580Y005398D02*
X014267Y005398D01*
X014170Y005301D02*
X013580Y005301D01*
X013580Y005204D02*
X014073Y005204D01*
X013976Y005107D02*
X013580Y005107D01*
X012968Y005107D02*
X012692Y005107D01*
X012687Y005204D02*
X012968Y005204D01*
X012968Y005301D02*
X012655Y005301D01*
X012754Y005398D02*
X012968Y005398D01*
X012998Y005495D02*
X012754Y005495D01*
X012754Y005592D02*
X012942Y005592D01*
X012928Y005689D02*
X012754Y005689D01*
X012754Y005785D02*
X012928Y005785D01*
X012928Y005979D02*
X012746Y005979D01*
X012754Y005882D02*
X013225Y005882D01*
X013225Y005979D02*
X013323Y005979D01*
X013323Y005882D02*
X014356Y005882D01*
X014356Y006367D02*
X012794Y006367D01*
X012794Y006464D02*
X014356Y006464D01*
X014347Y006561D02*
X014356Y006561D01*
X014051Y006561D02*
X012788Y006561D01*
X012708Y006658D02*
X013977Y006658D01*
X013955Y006755D02*
X011788Y006755D01*
X011788Y006852D02*
X011690Y006852D01*
X011690Y006949D02*
X011788Y006949D01*
X011788Y007045D02*
X011690Y007045D01*
X011402Y007045D02*
X011350Y007045D01*
X011690Y006658D02*
X011788Y006658D01*
X011788Y006561D02*
X011690Y006561D01*
X011690Y006464D02*
X011788Y006464D01*
X011409Y006464D02*
X011343Y006464D01*
X010796Y006464D02*
X010539Y006464D01*
X010539Y007045D02*
X010789Y007045D01*
X010539Y007142D02*
X013145Y007142D01*
X013145Y007239D02*
X012665Y007239D01*
X012785Y007336D02*
X013461Y007336D01*
X013461Y007239D02*
X013560Y007239D01*
X013560Y007142D02*
X013461Y007142D01*
X013461Y007045D02*
X013560Y007045D01*
X013160Y007045D02*
X012075Y007045D01*
X012105Y006949D02*
X013985Y006949D01*
X013974Y006852D02*
X012105Y006852D01*
X012105Y006658D02*
X012187Y006658D01*
X012107Y006561D02*
X012105Y006561D01*
X012101Y006464D02*
X012069Y006464D01*
X012398Y006464D02*
X012497Y006464D01*
X012497Y006561D02*
X012398Y006561D01*
X012398Y006658D02*
X012497Y006658D01*
X012794Y006173D02*
X012954Y006173D01*
X012928Y006076D02*
X012794Y006076D01*
X013225Y006076D02*
X013323Y006076D01*
X013323Y006173D02*
X013225Y006173D01*
X013861Y007045D02*
X013876Y007045D01*
X013560Y007433D02*
X013461Y007433D01*
X013461Y007530D02*
X013560Y007530D01*
X013560Y007627D02*
X013461Y007627D01*
X013205Y007627D02*
X012497Y007627D01*
X012497Y007530D02*
X012398Y007530D01*
X012398Y007433D02*
X012497Y007433D01*
X012497Y007336D02*
X012398Y007336D01*
X012398Y007239D02*
X012497Y007239D01*
X012794Y007433D02*
X013145Y007433D01*
X013146Y007530D02*
X012794Y007530D01*
X012794Y007724D02*
X014356Y007724D01*
X014356Y007821D02*
X012794Y007821D01*
X012759Y007918D02*
X014356Y007918D01*
X014356Y007627D02*
X013816Y007627D01*
X013817Y008015D02*
X013891Y008015D01*
X013540Y008015D02*
X013442Y008015D01*
X013442Y008112D02*
X013540Y008112D01*
X013540Y008209D02*
X013442Y008209D01*
X013442Y008306D02*
X012754Y008306D01*
X012754Y008402D02*
X013125Y008402D01*
X013125Y008499D02*
X012754Y008499D01*
X012693Y008596D02*
X013152Y008596D01*
X013442Y008596D02*
X013540Y008596D01*
X013540Y008499D02*
X013442Y008499D01*
X013442Y008402D02*
X013540Y008402D01*
X013830Y008596D02*
X013875Y008596D01*
X014186Y008790D02*
X012692Y008790D01*
X012682Y008693D02*
X014283Y008693D01*
X014816Y008887D02*
X015034Y008887D01*
X015034Y008984D02*
X014840Y008984D01*
X014936Y009081D02*
X015071Y009081D01*
X015074Y009178D02*
X015033Y009178D01*
X014865Y008790D02*
X015331Y008790D01*
X015331Y008717D02*
X015430Y008717D01*
X015430Y008400D01*
X015430Y008264D01*
X015331Y008264D01*
X015331Y008717D01*
X015331Y008693D02*
X015430Y008693D01*
X015430Y008596D02*
X015331Y008596D01*
X015331Y008499D02*
X015430Y008499D01*
X015430Y008402D02*
X015331Y008402D01*
X015331Y008306D02*
X015430Y008306D01*
X015430Y008209D02*
X015765Y008209D01*
X015763Y008215D02*
X015773Y008177D01*
X015793Y008143D01*
X015820Y008115D01*
X015854Y008096D01*
X015892Y008085D01*
X016256Y008085D01*
X016256Y008481D01*
X015763Y008481D01*
X015763Y008215D01*
X015763Y008306D02*
X015727Y008306D01*
X015727Y008402D02*
X015763Y008402D01*
X015718Y008499D02*
X016256Y008499D01*
X016256Y008481D02*
X016256Y008579D01*
X015763Y008579D01*
X015763Y008845D01*
X015773Y008883D01*
X015793Y008917D01*
X015820Y008945D01*
X015854Y008964D01*
X015892Y008974D01*
X016256Y008974D01*
X016256Y008579D01*
X016355Y008579D01*
X016849Y008579D01*
X016849Y008845D01*
X016838Y008883D01*
X016819Y008917D01*
X016791Y008945D01*
X016757Y008964D01*
X016719Y008974D01*
X016355Y008974D01*
X016355Y008579D01*
X016355Y008481D01*
X016849Y008481D01*
X016849Y008215D01*
X016838Y008177D01*
X016819Y008143D01*
X016791Y008115D01*
X016757Y008096D01*
X016719Y008085D01*
X016355Y008085D01*
X016355Y008481D01*
X016256Y008481D01*
X016256Y008402D02*
X016355Y008402D01*
X016355Y008306D02*
X016256Y008306D01*
X016256Y008209D02*
X016355Y008209D01*
X016355Y008112D02*
X016256Y008112D01*
X016355Y008499D02*
X017289Y008499D01*
X017289Y008402D02*
X016849Y008402D01*
X016849Y008306D02*
X017289Y008306D01*
X017289Y008209D02*
X016847Y008209D01*
X016785Y008112D02*
X017289Y008112D01*
X017289Y008015D02*
X016759Y008015D01*
X016809Y007918D02*
X017210Y007918D01*
X017113Y007821D02*
X016809Y007821D01*
X016764Y007239D02*
X016849Y007239D01*
X015847Y007239D02*
X015642Y007239D01*
X015119Y007239D02*
X014870Y007239D01*
X014870Y007336D02*
X015074Y007336D01*
X015074Y007433D02*
X014870Y007433D01*
X014870Y007530D02*
X015074Y007530D01*
X015074Y007627D02*
X014870Y007627D01*
X014870Y007724D02*
X015074Y007724D01*
X015088Y007821D02*
X014870Y007821D01*
X014870Y007918D02*
X015058Y007918D01*
X015034Y008015D02*
X014870Y008015D01*
X014870Y008112D02*
X015034Y008112D01*
X014870Y008209D02*
X015331Y008209D01*
X015034Y008306D02*
X014870Y008306D01*
X014870Y008402D02*
X015034Y008402D01*
X015043Y008499D02*
X014870Y008499D01*
X014870Y008596D02*
X015034Y008596D01*
X015034Y008693D02*
X014870Y008693D01*
X015430Y008790D02*
X015763Y008790D01*
X015763Y008693D02*
X015727Y008693D01*
X015727Y008596D02*
X015763Y008596D01*
X015775Y008887D02*
X015727Y008887D01*
X015727Y008984D02*
X017289Y008984D01*
X017289Y009081D02*
X016795Y009081D01*
X016809Y009178D02*
X017289Y009178D01*
X017289Y009275D02*
X016809Y009275D01*
X016809Y009372D02*
X017289Y009372D01*
X017289Y009469D02*
X016809Y009469D01*
X016809Y009566D02*
X017289Y009566D01*
X017289Y009662D02*
X016809Y009662D01*
X016809Y009759D02*
X017289Y009759D01*
X017289Y010341D02*
X016523Y010341D01*
X016523Y010438D02*
X017289Y010438D01*
X017289Y010535D02*
X016523Y010535D01*
X016523Y010632D02*
X017289Y010632D01*
X017289Y010729D02*
X016523Y010729D01*
X016523Y010826D02*
X017289Y010826D01*
X017289Y010923D02*
X016523Y010923D01*
X016523Y011019D02*
X017289Y011019D01*
X017289Y011116D02*
X016523Y011116D01*
X016523Y011213D02*
X017289Y011213D01*
X017289Y011310D02*
X016523Y011310D01*
X016523Y011407D02*
X017289Y011407D01*
X017289Y011504D02*
X016523Y011504D01*
X016523Y011601D02*
X017289Y011601D01*
X017289Y011698D02*
X016523Y011698D01*
X016523Y011795D02*
X017289Y011795D01*
X017289Y011892D02*
X016523Y011892D01*
X016545Y011989D02*
X017289Y011989D01*
X017289Y012086D02*
X016560Y012086D01*
X016535Y012183D02*
X017289Y012183D01*
X017289Y012279D02*
X016455Y012279D01*
X016176Y012279D02*
X015976Y012279D01*
X015976Y012318D02*
X015938Y012408D01*
X015870Y012476D01*
X015780Y012514D01*
X015683Y012514D01*
X015593Y012476D01*
X015572Y012455D01*
X015572Y012531D01*
X015508Y012595D01*
X015024Y012595D01*
X014960Y012531D01*
X014960Y012008D01*
X015024Y011944D01*
X015508Y011944D01*
X015572Y012008D01*
X015572Y012083D01*
X015593Y012062D01*
X015683Y012025D01*
X015780Y012025D01*
X015870Y012062D01*
X015938Y012131D01*
X015976Y012221D01*
X015976Y012318D01*
X015951Y012376D02*
X017289Y012376D01*
X017289Y012473D02*
X015873Y012473D01*
X015731Y012269D02*
X015266Y012269D01*
X015572Y012473D02*
X015590Y012473D01*
X015533Y012570D02*
X017289Y012570D01*
X017289Y012667D02*
X012508Y012667D01*
X012604Y012764D02*
X017289Y012764D01*
X017289Y012861D02*
X012701Y012861D01*
X012798Y012958D02*
X017289Y012958D01*
X017289Y013055D02*
X012895Y013055D01*
X012992Y013152D02*
X017289Y013152D01*
X017289Y013249D02*
X013089Y013249D01*
X013186Y013346D02*
X017289Y013346D01*
X017289Y013443D02*
X013283Y013443D01*
X013380Y013539D02*
X017289Y013539D01*
X017289Y013636D02*
X013477Y013636D01*
X013574Y013733D02*
X017289Y013733D01*
X017289Y013830D02*
X013671Y013830D01*
X013768Y013927D02*
X017289Y013927D01*
X017289Y014024D02*
X013865Y014024D01*
X013961Y014121D02*
X017289Y014121D01*
X017289Y014218D02*
X014058Y014218D01*
X014155Y014315D02*
X017289Y014315D01*
X017289Y014412D02*
X016467Y014412D01*
X016646Y014509D02*
X017289Y014509D01*
X017289Y014606D02*
X016805Y014606D01*
X016902Y014703D02*
X017289Y014703D01*
X017289Y014800D02*
X016999Y014800D01*
X017074Y014896D02*
X017289Y014896D01*
X017289Y014993D02*
X017130Y014993D01*
X017186Y015090D02*
X017289Y015090D01*
X017289Y015187D02*
X017230Y015187D01*
X017256Y015284D02*
X017289Y015284D01*
X017282Y015381D02*
X017289Y015381D01*
X017278Y015963D02*
X017289Y015963D01*
X017289Y016060D02*
X017252Y016060D01*
X017226Y016156D02*
X017289Y016156D01*
X017289Y016253D02*
X017179Y016253D01*
X017123Y016350D02*
X017289Y016350D01*
X017289Y016447D02*
X017067Y016447D01*
X016987Y016544D02*
X017239Y016544D01*
X017142Y016641D02*
X016890Y016641D01*
X016793Y016738D02*
X017045Y016738D01*
X016948Y016835D02*
X016625Y016835D01*
X016421Y016932D02*
X016852Y016932D01*
X016755Y017029D02*
X000422Y017029D01*
X000422Y017126D02*
X016658Y017126D01*
X015521Y016932D02*
X000422Y016932D01*
X000422Y016835D02*
X015317Y016835D01*
X014955Y016544D02*
X000422Y016544D01*
X000422Y016447D02*
X014876Y016447D01*
X014820Y016350D02*
X000422Y016350D01*
X000422Y016253D02*
X014764Y016253D01*
X014716Y016156D02*
X000422Y016156D01*
X000422Y016060D02*
X014690Y016060D01*
X014664Y015963D02*
X000422Y015963D01*
X000422Y015866D02*
X014638Y015866D01*
X014632Y015769D02*
X000422Y015769D01*
X000422Y015672D02*
X014632Y015672D01*
X014632Y015575D02*
X000422Y015575D01*
X000422Y015478D02*
X014635Y015478D01*
X014661Y015381D02*
X000422Y015381D01*
X000422Y015284D02*
X014687Y015284D01*
X014713Y015187D02*
X000422Y015187D01*
X000422Y015090D02*
X014757Y015090D01*
X014179Y014896D02*
X013433Y014896D01*
X013529Y014800D02*
X014082Y014800D01*
X014054Y014703D02*
X013558Y014703D01*
X013547Y014606D02*
X013998Y014606D01*
X013901Y014509D02*
X013486Y014509D01*
X013317Y014412D02*
X013804Y014412D01*
X013707Y014315D02*
X013220Y014315D01*
X013123Y014218D02*
X013610Y014218D01*
X013513Y014121D02*
X013026Y014121D01*
X012929Y014024D02*
X013416Y014024D01*
X013319Y013927D02*
X012833Y013927D01*
X012736Y013830D02*
X013223Y013830D01*
X013126Y013733D02*
X012639Y013733D01*
X012542Y013636D02*
X013029Y013636D01*
X012932Y013539D02*
X012445Y013539D01*
X012348Y013443D02*
X012835Y013443D01*
X012738Y013346D02*
X012251Y013346D01*
X012154Y013249D02*
X012641Y013249D01*
X012544Y013152D02*
X012057Y013152D01*
X011960Y013055D02*
X012447Y013055D01*
X012350Y012958D02*
X011863Y012958D01*
X011766Y012861D02*
X012253Y012861D01*
X012156Y012764D02*
X011669Y012764D01*
X011573Y012667D02*
X012059Y012667D01*
X011963Y012570D02*
X011476Y012570D01*
X011379Y012473D02*
X011866Y012473D01*
X011769Y012376D02*
X011282Y012376D01*
X011185Y012279D02*
X011672Y012279D01*
X011575Y012183D02*
X010793Y012183D01*
X010696Y012086D02*
X011478Y012086D01*
X011381Y011989D02*
X010599Y011989D01*
X010502Y011892D02*
X011284Y011892D01*
X011538Y011698D02*
X013644Y011698D01*
X013648Y011689D02*
X013717Y011620D01*
X013806Y011583D01*
X013903Y011583D01*
X013993Y011620D01*
X014062Y011689D01*
X014099Y011779D01*
X014099Y011846D01*
X014291Y012036D01*
X014291Y012008D01*
X014355Y011944D01*
X014839Y011944D01*
X014903Y012008D01*
X014903Y012531D01*
X014839Y012595D01*
X014355Y012595D01*
X014291Y012531D01*
X014291Y012429D01*
X014237Y012429D01*
X014191Y012383D01*
X013876Y012071D01*
X013806Y012071D01*
X013717Y012034D01*
X013648Y011965D01*
X013611Y011876D01*
X013611Y011779D01*
X013648Y011689D01*
X013611Y011795D02*
X011635Y011795D01*
X011732Y011892D02*
X013617Y011892D01*
X013671Y011989D02*
X011829Y011989D01*
X011926Y012086D02*
X013891Y012086D01*
X013989Y012183D02*
X012023Y012183D01*
X012120Y012279D02*
X014086Y012279D01*
X014184Y012376D02*
X012217Y012376D01*
X012314Y012473D02*
X014291Y012473D01*
X014237Y012429D02*
X014237Y012429D01*
X014237Y012429D01*
X014330Y012570D02*
X012411Y012570D01*
X011441Y011601D02*
X013763Y011601D01*
X013947Y011601D02*
X016108Y011601D01*
X016108Y011698D02*
X014066Y011698D01*
X014099Y011795D02*
X016108Y011795D01*
X016108Y011892D02*
X014145Y011892D01*
X014243Y011989D02*
X014309Y011989D01*
X014302Y012270D02*
X014597Y012269D01*
X014302Y012270D02*
X013855Y011827D01*
X014884Y011989D02*
X014979Y011989D01*
X014960Y012086D02*
X014903Y012086D01*
X014903Y012183D02*
X014960Y012183D01*
X014960Y012279D02*
X014903Y012279D01*
X014903Y012376D02*
X014960Y012376D01*
X014960Y012473D02*
X014903Y012473D01*
X014864Y012570D02*
X014999Y012570D01*
X015553Y011989D02*
X016086Y011989D01*
X016071Y012086D02*
X015893Y012086D01*
X015960Y012183D02*
X016096Y012183D01*
X016108Y011504D02*
X010705Y011504D01*
X010608Y011407D02*
X016108Y011407D01*
X016108Y011310D02*
X010511Y011310D01*
X010414Y011213D02*
X016108Y011213D01*
X016108Y011116D02*
X010317Y011116D01*
X010220Y011019D02*
X016108Y011019D01*
X016108Y010923D02*
X010123Y010923D01*
X010026Y010826D02*
X016108Y010826D01*
X016108Y010729D02*
X009929Y010729D01*
X009832Y010632D02*
X016108Y010632D01*
X016108Y010535D02*
X009735Y010535D01*
X009638Y010438D02*
X016108Y010438D01*
X016108Y010341D02*
X009542Y010341D01*
X009445Y010244D02*
X016108Y010244D01*
X016108Y010147D02*
X009348Y010147D01*
X009564Y009953D02*
X009662Y009953D01*
X009662Y009856D02*
X009564Y009856D01*
X009564Y009759D02*
X009662Y009759D01*
X009953Y009953D02*
X009996Y009953D01*
X010568Y009953D02*
X011320Y009953D01*
X011294Y009856D02*
X010608Y009856D01*
X010608Y009759D02*
X011294Y009759D01*
X011294Y009566D02*
X010608Y009566D01*
X010608Y009662D02*
X011611Y009662D01*
X011611Y009759D02*
X011709Y009759D01*
X011709Y009856D02*
X011611Y009856D01*
X011611Y009953D02*
X011709Y009953D01*
X012000Y009953D02*
X012043Y009953D01*
X011294Y009469D02*
X010608Y009469D01*
X010025Y009178D02*
X008944Y009178D01*
X008944Y009081D02*
X010025Y009081D01*
X010025Y008984D02*
X008944Y008984D01*
X008944Y008887D02*
X010025Y008887D01*
X010025Y008790D02*
X008944Y008790D01*
X008944Y008693D02*
X010025Y008693D01*
X010025Y008596D02*
X008944Y008596D01*
X008944Y008499D02*
X010025Y008499D01*
X010025Y008402D02*
X008944Y008402D01*
X008944Y008306D02*
X010025Y008306D01*
X010025Y008209D02*
X008944Y008209D01*
X008944Y008112D02*
X010025Y008112D01*
X010025Y008015D02*
X008944Y008015D01*
X008956Y007918D02*
X010025Y007918D01*
X010025Y007821D02*
X009018Y007821D01*
X009030Y007724D02*
X010025Y007724D01*
X010025Y007627D02*
X009003Y007627D01*
X008911Y007530D02*
X010025Y007530D01*
X010539Y007530D02*
X012101Y007530D01*
X012101Y007433D02*
X010539Y007433D01*
X010539Y007336D02*
X012110Y007336D01*
X012230Y007239D02*
X010539Y007239D01*
X010539Y007627D02*
X012398Y007627D01*
X012101Y007724D02*
X010539Y007724D01*
X010539Y007821D02*
X012101Y007821D01*
X012136Y007918D02*
X012046Y007918D01*
X012085Y008015D02*
X012141Y008015D01*
X012141Y008112D02*
X012085Y008112D01*
X012141Y008209D02*
X011768Y008209D01*
X011768Y008306D02*
X011670Y008306D01*
X011670Y008402D02*
X011768Y008402D01*
X011768Y008499D02*
X011670Y008499D01*
X011381Y008499D02*
X011333Y008499D01*
X011670Y008112D02*
X011768Y008112D01*
X011768Y008015D02*
X011670Y008015D01*
X011670Y007918D02*
X011768Y007918D01*
X011392Y007918D02*
X011320Y007918D01*
X010779Y007918D02*
X010539Y007918D01*
X010539Y008499D02*
X010766Y008499D01*
X010539Y008596D02*
X012202Y008596D01*
X012213Y008693D02*
X010539Y008693D01*
X010539Y008790D02*
X012203Y008790D01*
X012141Y008499D02*
X012057Y008499D01*
X012085Y008402D02*
X012141Y008402D01*
X012141Y008306D02*
X012085Y008306D01*
X012754Y008209D02*
X013125Y008209D01*
X013125Y008112D02*
X012754Y008112D01*
X012754Y008015D02*
X013165Y008015D01*
X014284Y009372D02*
X014501Y009372D01*
X015624Y009759D02*
X015803Y009759D01*
X015803Y009178D02*
X015687Y009178D01*
X015690Y009081D02*
X015817Y009081D01*
X016256Y008887D02*
X016355Y008887D01*
X016355Y008790D02*
X016256Y008790D01*
X016256Y008693D02*
X016355Y008693D01*
X016355Y008596D02*
X016256Y008596D01*
X015827Y008112D02*
X015727Y008112D01*
X015727Y008015D02*
X015853Y008015D01*
X015803Y007918D02*
X015703Y007918D01*
X015673Y007821D02*
X015803Y007821D01*
X016849Y008596D02*
X017289Y008596D01*
X017289Y008693D02*
X016849Y008693D01*
X016849Y008790D02*
X017289Y008790D01*
X017289Y008887D02*
X016836Y008887D01*
X018779Y011407D02*
X019130Y011407D01*
X019033Y011504D02*
X018779Y011504D01*
X018779Y011601D02*
X018987Y011601D01*
X018960Y011698D02*
X018779Y011698D01*
X018779Y011795D02*
X018960Y011795D01*
X018987Y011892D02*
X018779Y011892D01*
X018779Y011989D02*
X019034Y011989D01*
X019131Y012086D02*
X018779Y012086D01*
X018547Y012376D02*
X019193Y012376D01*
X019064Y012473D02*
X018676Y012473D01*
X018740Y012570D02*
X019000Y012570D01*
X018960Y012667D02*
X018779Y012667D01*
X018779Y012764D02*
X018960Y012764D01*
X018974Y012861D02*
X018765Y012861D01*
X018725Y012958D02*
X019015Y012958D01*
X019100Y013055D02*
X018639Y013055D01*
X019370Y012746D02*
X019895Y012369D01*
X019612Y012376D02*
X019547Y012376D01*
X019609Y012086D02*
X019736Y012086D01*
X019736Y011989D02*
X019706Y011989D01*
X020053Y012086D02*
X020131Y012086D01*
X020320Y012376D02*
X020419Y012376D01*
X020419Y012299D02*
X020475Y012308D01*
X020542Y012330D01*
X020605Y012362D01*
X020662Y012403D01*
X020712Y012453D01*
X020754Y012511D01*
X020786Y012574D01*
X020808Y012641D01*
X020817Y012697D01*
X020419Y012697D01*
X020419Y012299D01*
X020419Y012473D02*
X020320Y012473D01*
X020320Y012570D02*
X020419Y012570D01*
X020419Y012667D02*
X020320Y012667D01*
X020419Y012764D02*
X021320Y012764D01*
X021320Y012667D02*
X021419Y012667D01*
X021419Y012570D02*
X021320Y012570D01*
X021320Y012473D02*
X021419Y012473D01*
X021419Y012376D02*
X021320Y012376D01*
X021114Y012376D02*
X020625Y012376D01*
X020727Y012473D02*
X021012Y012473D01*
X020955Y012570D02*
X020784Y012570D01*
X020812Y012667D02*
X020927Y012667D01*
X020935Y012861D02*
X020805Y012861D01*
X020766Y012958D02*
X020973Y012958D01*
X021043Y013055D02*
X020696Y013055D01*
X020563Y013152D02*
X021177Y013152D01*
X021696Y013055D02*
X022071Y013055D01*
X022071Y012958D02*
X021766Y012958D01*
X021805Y012861D02*
X022071Y012861D01*
X021131Y012086D02*
X020609Y012086D01*
X020706Y011989D02*
X021034Y011989D01*
X020987Y011892D02*
X020752Y011892D01*
X020779Y011795D02*
X020960Y011795D01*
X020960Y011698D02*
X020779Y011698D01*
X020753Y011601D02*
X020987Y011601D01*
X021033Y011504D02*
X020706Y011504D01*
X020610Y011407D02*
X021130Y011407D01*
X020130Y011407D02*
X020053Y011407D01*
X019736Y011407D02*
X019610Y011407D01*
X019706Y011504D02*
X019736Y011504D01*
X019765Y012861D02*
X019935Y012861D01*
X019973Y012958D02*
X019725Y012958D01*
X019639Y013055D02*
X020043Y013055D01*
X015475Y014412D02*
X014252Y014412D01*
X013314Y014632D02*
X011099Y012418D01*
X010804Y012418D01*
X008491Y010105D01*
X008660Y010050D02*
X008803Y010050D01*
X008757Y010147D02*
X008900Y010147D01*
X008854Y010244D02*
X008997Y010244D01*
X008951Y010341D02*
X009093Y010341D01*
X009048Y010438D02*
X009190Y010438D01*
X009145Y010535D02*
X009287Y010535D01*
X009242Y010632D02*
X009384Y010632D01*
X009339Y010729D02*
X009481Y010729D01*
X009436Y010826D02*
X009578Y010826D01*
X009533Y010923D02*
X009675Y010923D01*
X009629Y011019D02*
X009772Y011019D01*
X009726Y011116D02*
X009869Y011116D01*
X009823Y011213D02*
X009966Y011213D01*
X009920Y011310D02*
X010063Y011310D01*
X010017Y011407D02*
X010160Y011407D01*
X010114Y011504D02*
X010257Y011504D01*
X010211Y011601D02*
X010354Y011601D01*
X010308Y011698D02*
X010450Y011698D01*
X010405Y011795D02*
X010547Y011795D01*
X009800Y012376D02*
X009264Y012376D01*
X009167Y012279D02*
X009703Y012279D01*
X009606Y012183D02*
X009070Y012183D01*
X008973Y012086D02*
X009509Y012086D01*
X009412Y011989D02*
X008876Y011989D01*
X008779Y011892D02*
X009316Y011892D01*
X009219Y011795D02*
X008682Y011795D01*
X008586Y011698D02*
X009122Y011698D01*
X009025Y011601D02*
X008489Y011601D01*
X008392Y011504D02*
X008928Y011504D01*
X008831Y011407D02*
X008295Y011407D01*
X008198Y011310D02*
X008734Y011310D01*
X008637Y011213D02*
X008101Y011213D01*
X008059Y011116D02*
X008540Y011116D01*
X008443Y011019D02*
X008059Y011019D01*
X008059Y010923D02*
X008346Y010923D01*
X008249Y010826D02*
X008059Y010826D01*
X008059Y010729D02*
X008152Y010729D01*
X008195Y010548D02*
X008195Y007152D01*
X008392Y006955D01*
X008638Y006955D01*
X008737Y007054D01*
X008661Y007530D02*
X008655Y007530D01*
X008786Y007743D02*
X008786Y009809D01*
X008706Y009953D02*
X008649Y009953D01*
X008195Y010548D02*
X012329Y014681D01*
X011836Y014412D02*
X011299Y014412D01*
X011203Y014315D02*
X011739Y014315D01*
X011642Y014218D02*
X011106Y014218D01*
X011009Y014121D02*
X011545Y014121D01*
X011448Y014024D02*
X010912Y014024D01*
X010815Y013927D02*
X011351Y013927D01*
X011254Y013830D02*
X010718Y013830D01*
X010621Y013733D02*
X011157Y013733D01*
X011060Y013636D02*
X010524Y013636D01*
X010427Y013539D02*
X010963Y013539D01*
X010866Y013443D02*
X010330Y013443D01*
X010233Y013346D02*
X010769Y013346D01*
X010673Y013249D02*
X010136Y013249D01*
X010039Y013152D02*
X010576Y013152D01*
X010479Y013055D02*
X009942Y013055D01*
X009846Y012958D02*
X010382Y012958D01*
X010285Y012861D02*
X009749Y012861D01*
X009652Y012764D02*
X010188Y012764D01*
X010091Y012667D02*
X009555Y012667D01*
X009458Y012570D02*
X009994Y012570D01*
X009897Y012473D02*
X009361Y012473D01*
X013314Y014632D02*
X013314Y014681D01*
X005926Y007918D02*
X005511Y007918D01*
X005573Y007821D02*
X006023Y007821D01*
X006120Y007724D02*
X005585Y007724D01*
X005681Y007627D02*
X006217Y007627D01*
X006314Y007530D02*
X005778Y007530D01*
X005875Y007433D02*
X006411Y007433D01*
X006508Y007336D02*
X005971Y007336D01*
X006068Y007239D02*
X006605Y007239D01*
X006701Y007142D02*
X006165Y007142D01*
X006262Y007045D02*
X006798Y007045D01*
X006895Y006949D02*
X006359Y006949D01*
X006456Y006852D02*
X006905Y006852D01*
X006905Y006755D02*
X006553Y006755D01*
X006650Y006658D02*
X006905Y006658D01*
X006905Y006561D02*
X006747Y006561D01*
X006844Y006464D02*
X006905Y006464D01*
X006905Y006367D02*
X006878Y006367D01*
X006878Y006270D02*
X006905Y006270D01*
X006905Y006173D02*
X006878Y006173D01*
X006878Y006076D02*
X006905Y006076D01*
X006905Y005979D02*
X006878Y005979D01*
X006878Y005882D02*
X006905Y005882D01*
X006905Y005785D02*
X006878Y005785D01*
X006878Y005689D02*
X006905Y005689D01*
X006905Y005592D02*
X006878Y005592D01*
X006878Y005495D02*
X006905Y005495D01*
X006905Y005398D02*
X006878Y005398D01*
X006878Y005301D02*
X006905Y005301D01*
X006905Y005204D02*
X006878Y005204D01*
X006878Y005107D02*
X006905Y005107D01*
X006905Y005010D02*
X006878Y005010D01*
X006878Y004913D02*
X006905Y004913D01*
X006905Y004816D02*
X006878Y004816D01*
X006878Y004719D02*
X006905Y004719D01*
X006905Y004622D02*
X006878Y004622D01*
X006878Y004525D02*
X006905Y004525D01*
X006905Y004428D02*
X006878Y004428D01*
X006878Y004332D02*
X006905Y004332D01*
X006905Y004235D02*
X006878Y004235D01*
X006719Y004150D02*
X006719Y006365D01*
X005341Y007743D01*
X005496Y006949D02*
X005911Y006949D01*
X006008Y006852D02*
X005567Y006852D01*
X005585Y006755D02*
X006105Y006755D01*
X006202Y006658D02*
X005666Y006658D01*
X005763Y006561D02*
X006299Y006561D01*
X006396Y006464D02*
X005860Y006464D01*
X005956Y006367D02*
X006493Y006367D01*
X006561Y006270D02*
X006053Y006270D01*
X006150Y006173D02*
X006561Y006173D01*
X006561Y006076D02*
X006247Y006076D01*
X006344Y005979D02*
X006561Y005979D01*
X006561Y005882D02*
X006441Y005882D01*
X006533Y005785D02*
X006561Y005785D01*
X006561Y005689D02*
X006533Y005689D01*
X006533Y005592D02*
X006561Y005592D01*
X006561Y005495D02*
X006533Y005495D01*
X006533Y005398D02*
X006561Y005398D01*
X006561Y005301D02*
X006533Y005301D01*
X006533Y005204D02*
X006561Y005204D01*
X006561Y005107D02*
X006533Y005107D01*
X006533Y005010D02*
X006561Y005010D01*
X006561Y004913D02*
X006533Y004913D01*
X006533Y004816D02*
X006561Y004816D01*
X006561Y004719D02*
X006533Y004719D01*
X006533Y004622D02*
X006561Y004622D01*
X006561Y004525D02*
X006533Y004525D01*
X006533Y004428D02*
X006561Y004428D01*
X006561Y004332D02*
X006533Y004332D01*
X006533Y004235D02*
X006561Y004235D01*
X006561Y004138D02*
X006533Y004138D01*
X006375Y004052D02*
X006375Y005725D01*
X005341Y006758D01*
X005481Y005979D02*
X005896Y005979D01*
X005993Y005882D02*
X005561Y005882D01*
X005585Y005785D02*
X006090Y005785D01*
X006187Y005689D02*
X005651Y005689D01*
X005748Y005592D02*
X006216Y005592D01*
X006216Y005495D02*
X005845Y005495D01*
X005941Y005398D02*
X006216Y005398D01*
X006216Y005301D02*
X006038Y005301D01*
X006135Y005204D02*
X006216Y005204D01*
X006216Y005107D02*
X006189Y005107D01*
X006189Y005010D02*
X006216Y005010D01*
X006216Y004913D02*
X006189Y004913D01*
X006189Y004816D02*
X006216Y004816D01*
X006216Y004719D02*
X006189Y004719D01*
X006189Y004622D02*
X006216Y004622D01*
X006216Y004525D02*
X006189Y004525D01*
X006189Y004428D02*
X006216Y004428D01*
X006216Y004332D02*
X006189Y004332D01*
X006189Y004235D02*
X006216Y004235D01*
X006216Y004138D02*
X006189Y004138D01*
X006189Y004041D02*
X006216Y004041D01*
X006375Y004052D02*
X007900Y002526D01*
X012428Y002526D01*
X012772Y002870D01*
X012772Y003018D01*
X012721Y003265D02*
X012823Y003265D01*
X012823Y003362D02*
X012721Y003362D01*
X012676Y003459D02*
X012868Y003459D01*
X013015Y003556D02*
X012529Y003556D01*
X012425Y003556D02*
X007980Y003556D01*
X008077Y003459D02*
X012277Y003459D01*
X012233Y003362D02*
X008174Y003362D01*
X008271Y003265D02*
X012233Y003265D01*
X012477Y003313D02*
X012477Y002920D01*
X012329Y002772D01*
X008097Y002772D01*
X006719Y004150D01*
X007222Y004332D02*
X009883Y004332D01*
X009829Y004428D02*
X007222Y004428D01*
X007222Y004525D02*
X009821Y004525D01*
X009854Y004622D02*
X007222Y004622D01*
X007222Y004719D02*
X009907Y004719D01*
X009917Y004816D02*
X007222Y004816D01*
X007222Y004913D02*
X009956Y004913D01*
X009961Y005010D02*
X007222Y005010D01*
X007222Y005107D02*
X010001Y005107D01*
X010106Y005204D02*
X007222Y005204D01*
X007301Y004235D02*
X014356Y004235D01*
X014356Y004332D02*
X010691Y004332D01*
X010745Y004428D02*
X014356Y004428D01*
X014356Y004525D02*
X010763Y004525D01*
X010508Y004494D02*
X010951Y004937D01*
X010262Y004937D02*
X010066Y004741D01*
X010066Y004494D01*
X010248Y004332D02*
X010326Y004332D01*
X011708Y005301D02*
X012240Y005301D01*
X012141Y005398D02*
X011731Y005398D01*
X011731Y005495D02*
X012141Y005495D01*
X014218Y004622D02*
X014356Y004622D01*
X014356Y004719D02*
X014315Y004719D01*
X014356Y004138D02*
X007398Y004138D01*
X007495Y004041D02*
X014356Y004041D01*
X014356Y003944D02*
X007592Y003944D01*
X007689Y003847D02*
X014356Y003847D01*
X014356Y003750D02*
X007786Y003750D01*
X007883Y003653D02*
X014356Y003653D01*
X014356Y003556D02*
X013120Y003556D01*
X013267Y003459D02*
X014356Y003459D01*
X014356Y003362D02*
X013312Y003362D01*
X013312Y003265D02*
X014356Y003265D01*
X014870Y003556D02*
X015385Y003556D01*
X015077Y003653D02*
X014870Y003653D01*
X014870Y003750D02*
X015001Y003750D01*
X014979Y003847D02*
X014870Y003847D01*
X014870Y003944D02*
X014996Y003944D01*
X015066Y004041D02*
X014870Y004041D01*
X017482Y004534D02*
X017482Y005046D01*
X013915Y001424D02*
X007616Y001424D01*
X007616Y001521D02*
X007819Y001521D01*
X007725Y001618D02*
X007603Y001618D01*
X007577Y001715D02*
X007684Y001715D01*
X007664Y001812D02*
X007551Y001812D01*
X007525Y001908D02*
X007664Y001908D01*
X007697Y002005D02*
X007470Y002005D01*
X007414Y002102D02*
X007752Y002102D01*
X007560Y002199D02*
X007358Y002199D01*
X007269Y002296D02*
X007463Y002296D01*
X007366Y002393D02*
X007172Y002393D01*
X007269Y002490D02*
X007057Y002490D01*
X007172Y002587D02*
X006889Y002587D01*
X007075Y002684D02*
X006638Y002684D01*
X007616Y001327D02*
X013818Y001327D01*
X007850Y000455D02*
X007231Y000455D01*
X007328Y000551D02*
X007732Y000551D01*
X007669Y000648D02*
X007392Y000648D01*
X007448Y000745D02*
X007634Y000745D01*
X007222Y006464D02*
X008341Y006464D01*
X003737Y019064D02*
X002721Y019064D01*
X002687Y019161D02*
X003759Y019161D01*
X003801Y019258D02*
X002631Y019258D01*
X002575Y019355D02*
X003878Y019355D01*
X004016Y019452D02*
X002514Y019452D01*
D23*
X001453Y018619D03*
X015971Y015666D03*
X021040Y001394D03*
X006276Y001394D03*
M02*
