G75*
G70*
%OFA0B0*%
%FSLAX24Y24*%
%IPPOS*%
%LPD*%
%AMOC8*
5,1,8,0,0,1.08239X$1,22.5*
%
%ADD10C,0.0394*%
%ADD11R,0.0394X0.0433*%
%ADD12R,0.0787X0.0197*%
%ADD13R,0.1181X0.1181*%
%ADD14R,0.0433X0.0394*%
%ADD15R,0.0787X0.0433*%
%ADD16R,0.0315X0.0315*%
%ADD17R,0.0512X0.0591*%
%ADD18R,0.2205X0.0906*%
%ADD19R,0.1339X0.0551*%
%ADD20R,0.0906X0.2205*%
%ADD21R,0.0551X0.1339*%
D10*
X009342Y003924D03*
X015405Y009987D03*
D11*
X016291Y009160D03*
X016960Y009160D03*
D12*
X018693Y009160D03*
X018693Y008845D03*
X018693Y008530D03*
X018693Y008215D03*
X018693Y007900D03*
D13*
X015819Y001778D03*
X013063Y001778D03*
D14*
X013515Y003117D03*
X014185Y003117D03*
X014696Y003117D03*
X015366Y003117D03*
D15*
X018604Y003495D03*
X018604Y002289D03*
X018604Y000833D03*
X021124Y000833D03*
X021124Y002289D03*
X021124Y003495D03*
X021124Y004952D03*
X018604Y004952D03*
D16*
X019569Y006071D03*
X020159Y006071D03*
X015153Y012269D03*
X014562Y012269D03*
D17*
X016881Y007900D03*
X017630Y007900D03*
D18*
X001724Y000813D03*
X001724Y009750D03*
X001724Y011050D03*
X001724Y016050D03*
D19*
X004322Y015026D03*
X004322Y014042D03*
X004322Y013057D03*
X004322Y012073D03*
X004322Y008727D03*
X004322Y007743D03*
X004322Y006758D03*
X004322Y005774D03*
X004322Y004790D03*
X004322Y003806D03*
X004322Y002821D03*
X004322Y001837D03*
D20*
X006311Y018274D03*
X015248Y018274D03*
X016547Y018274D03*
X021547Y018274D03*
D21*
X020523Y015676D03*
X019539Y015676D03*
X018555Y015676D03*
X017570Y015676D03*
X014224Y015676D03*
X013240Y015676D03*
X012256Y015676D03*
X011271Y015676D03*
X010287Y015676D03*
X009303Y015676D03*
X008319Y015676D03*
X007334Y015676D03*
M02*
