G75*
G70*
%OFA0B0*%
%FSLAX24Y24*%
%IPPOS*%
%LPD*%
%AMOC8*
5,1,8,0,0,1.08239X$1,22.5*
%
%ADD10C,0.0000*%
%ADD11C,0.0050*%
%ADD12C,0.0079*%
%ADD13C,0.0472*%
%ADD14C,0.0197*%
%ADD15C,0.0010*%
%ADD16C,0.0040*%
%ADD17C,0.0080*%
%ADD18C,0.0030*%
%ADD19R,0.0098X0.0098*%
%ADD20C,0.0060*%
D10*
X000149Y000164D02*
X000149Y019849D01*
X022196Y019849D01*
X022196Y000164D01*
X000149Y000164D01*
X000745Y000479D02*
X001375Y000479D01*
X001375Y000715D01*
X002083Y000715D01*
X002083Y000479D01*
X002713Y000479D01*
X002713Y000951D01*
X002438Y000951D01*
X002438Y001148D01*
X001020Y001148D01*
X001020Y000951D01*
X002438Y000951D01*
X002595Y000951D02*
X002595Y001246D01*
X000863Y001246D01*
X000863Y000951D01*
X000745Y000951D02*
X000745Y000479D01*
X000745Y000951D02*
X001020Y000951D01*
X000863Y001246D02*
X000272Y001246D01*
X000272Y009317D01*
X000863Y009317D01*
X002595Y009317D01*
X003816Y009317D01*
X003816Y008983D01*
X003540Y008914D01*
X003540Y008884D01*
X003619Y008884D01*
X003619Y008569D01*
X003786Y008569D01*
X003786Y008884D01*
X003619Y008884D01*
X003540Y008884D02*
X003540Y008569D01*
X003619Y008569D01*
X003540Y008569D02*
X003540Y008540D01*
X003816Y008471D01*
X003816Y008569D01*
X003786Y008569D02*
X004524Y008569D01*
X004539Y008571D01*
X004554Y008575D01*
X004568Y008582D01*
X004580Y008592D01*
X004590Y008604D01*
X004597Y008618D01*
X004601Y008633D01*
X004603Y008648D01*
X004603Y008806D01*
X004601Y008821D01*
X004597Y008836D01*
X004590Y008850D01*
X004580Y008862D01*
X004568Y008872D01*
X004554Y008879D01*
X004539Y008883D01*
X004524Y008885D01*
X004524Y008884D02*
X003786Y008884D01*
X003816Y008884D02*
X003816Y008983D01*
X003816Y008471D02*
X003816Y007998D01*
X003816Y007900D01*
X003786Y007900D02*
X003619Y007900D01*
X003619Y007585D01*
X003786Y007585D01*
X003786Y007900D01*
X004524Y007900D01*
X004539Y007898D01*
X004554Y007894D01*
X004568Y007887D01*
X004580Y007877D01*
X004590Y007865D01*
X004597Y007851D01*
X004601Y007836D01*
X004603Y007821D01*
X004603Y007664D01*
X004601Y007649D01*
X004597Y007634D01*
X004590Y007620D01*
X004580Y007608D01*
X004568Y007598D01*
X004554Y007591D01*
X004539Y007587D01*
X004524Y007585D01*
X003786Y007585D01*
X003816Y007585D02*
X003816Y007487D01*
X003540Y007556D01*
X003540Y007585D01*
X003619Y007585D01*
X003540Y007585D02*
X003540Y007900D01*
X003619Y007900D01*
X003540Y007900D02*
X003540Y007930D01*
X003816Y007998D01*
X003816Y007487D02*
X003816Y007014D01*
X003540Y006945D01*
X003540Y006916D01*
X003619Y006916D01*
X003619Y006601D01*
X003540Y006601D01*
X003540Y006916D01*
X003619Y006916D02*
X003786Y006916D01*
X003786Y006601D01*
X003619Y006601D01*
X003540Y006601D02*
X003540Y006571D01*
X003816Y006502D01*
X003816Y006030D01*
X003816Y005931D01*
X003786Y005931D02*
X003619Y005931D01*
X003619Y005617D01*
X003786Y005617D01*
X003786Y005931D01*
X004524Y005931D01*
X004524Y005932D02*
X004539Y005930D01*
X004554Y005926D01*
X004568Y005919D01*
X004580Y005909D01*
X004590Y005897D01*
X004597Y005883D01*
X004601Y005868D01*
X004603Y005853D01*
X004603Y005695D01*
X004601Y005680D01*
X004597Y005665D01*
X004590Y005651D01*
X004580Y005639D01*
X004568Y005629D01*
X004554Y005622D01*
X004539Y005618D01*
X004524Y005616D01*
X004524Y005617D02*
X003786Y005617D01*
X003816Y005617D02*
X003816Y005518D01*
X003816Y005046D01*
X003816Y004947D01*
X003786Y004947D02*
X003786Y004632D01*
X003619Y004632D01*
X003540Y004632D01*
X003540Y004947D01*
X003619Y004947D01*
X003786Y004947D01*
X004524Y004947D01*
X004524Y004948D02*
X004539Y004946D01*
X004554Y004942D01*
X004568Y004935D01*
X004580Y004925D01*
X004590Y004913D01*
X004597Y004899D01*
X004601Y004884D01*
X004603Y004869D01*
X004603Y004711D01*
X004601Y004696D01*
X004597Y004681D01*
X004590Y004667D01*
X004580Y004655D01*
X004568Y004645D01*
X004554Y004638D01*
X004539Y004634D01*
X004524Y004632D01*
X003786Y004632D01*
X003816Y004632D02*
X003816Y004534D01*
X003816Y004061D01*
X003816Y003963D01*
X003786Y003963D02*
X003786Y003648D01*
X003619Y003648D01*
X003619Y003963D01*
X003786Y003963D01*
X004524Y003963D01*
X004539Y003961D01*
X004554Y003957D01*
X004568Y003950D01*
X004580Y003940D01*
X004590Y003928D01*
X004597Y003914D01*
X004601Y003899D01*
X004603Y003884D01*
X004603Y003727D01*
X004601Y003712D01*
X004597Y003697D01*
X004590Y003683D01*
X004580Y003671D01*
X004568Y003661D01*
X004554Y003654D01*
X004539Y003650D01*
X004524Y003648D01*
X003786Y003648D01*
X003816Y003648D02*
X003816Y003550D01*
X003816Y003077D01*
X003540Y003008D01*
X003540Y002979D01*
X003540Y002664D01*
X003540Y002634D01*
X003816Y002565D01*
X003816Y002664D01*
X003786Y002664D02*
X003786Y002979D01*
X003619Y002979D01*
X003619Y002664D01*
X003540Y002664D01*
X003619Y002664D02*
X003786Y002664D01*
X004524Y002664D01*
X004539Y002666D01*
X004554Y002670D01*
X004568Y002677D01*
X004580Y002687D01*
X004590Y002699D01*
X004597Y002713D01*
X004601Y002728D01*
X004603Y002743D01*
X004603Y002900D01*
X004601Y002915D01*
X004597Y002930D01*
X004590Y002944D01*
X004580Y002956D01*
X004568Y002966D01*
X004554Y002973D01*
X004539Y002977D01*
X004524Y002979D01*
X003786Y002979D01*
X003816Y002979D02*
X003816Y003077D01*
X003619Y002979D02*
X003540Y002979D01*
X003816Y002565D02*
X003816Y002093D01*
X003816Y001994D01*
X003786Y001994D02*
X003786Y001680D01*
X003619Y001680D01*
X003619Y001994D01*
X003786Y001994D01*
X004524Y001994D01*
X004524Y001995D02*
X004539Y001993D01*
X004554Y001989D01*
X004568Y001982D01*
X004580Y001972D01*
X004590Y001960D01*
X004597Y001946D01*
X004601Y001931D01*
X004603Y001916D01*
X004603Y001758D01*
X004601Y001743D01*
X004597Y001728D01*
X004590Y001714D01*
X004580Y001702D01*
X004568Y001692D01*
X004554Y001685D01*
X004539Y001681D01*
X004524Y001679D01*
X004524Y001680D02*
X003786Y001680D01*
X003816Y001680D02*
X003816Y001581D01*
X003816Y001246D01*
X002595Y001246D01*
X003540Y001650D02*
X003540Y001680D01*
X003540Y001994D01*
X003540Y002024D01*
X003816Y002093D01*
X003619Y001994D02*
X003540Y001994D01*
X003540Y001680D02*
X003619Y001680D01*
X003540Y001650D02*
X003816Y001581D01*
X003816Y003550D02*
X003540Y003619D01*
X003540Y003648D01*
X003540Y003963D01*
X003540Y003993D01*
X003816Y004061D01*
X003619Y003963D02*
X003540Y003963D01*
X003540Y003648D02*
X003619Y003648D01*
X003816Y004534D02*
X003540Y004603D01*
X003540Y004632D01*
X003619Y004632D02*
X003619Y004947D01*
X003540Y004947D02*
X003540Y004977D01*
X003816Y005046D01*
X003816Y005518D02*
X003540Y005587D01*
X003540Y005617D01*
X003619Y005617D01*
X003540Y005617D02*
X003540Y005931D01*
X003619Y005931D01*
X003540Y005931D02*
X003540Y005961D01*
X003816Y006030D01*
X003816Y006502D02*
X003816Y006601D01*
X003786Y006601D02*
X004524Y006601D01*
X004539Y006603D01*
X004554Y006607D01*
X004568Y006614D01*
X004580Y006624D01*
X004590Y006636D01*
X004597Y006650D01*
X004601Y006665D01*
X004603Y006680D01*
X004603Y006837D01*
X004601Y006852D01*
X004597Y006867D01*
X004590Y006881D01*
X004580Y006893D01*
X004568Y006903D01*
X004554Y006910D01*
X004539Y006914D01*
X004524Y006916D01*
X003786Y006916D01*
X003816Y006916D02*
X003816Y007014D01*
X002595Y009317D02*
X002595Y009613D01*
X002713Y009613D02*
X002438Y009613D01*
X002438Y009416D01*
X001020Y009416D01*
X001020Y009613D01*
X002438Y009613D01*
X002083Y009849D02*
X001375Y009849D01*
X001375Y010085D01*
X000745Y010085D01*
X000745Y009613D01*
X001020Y009613D01*
X000863Y009613D02*
X000863Y009317D01*
X002083Y009849D02*
X002083Y010085D01*
X002713Y010085D01*
X002713Y009613D01*
X002713Y010715D02*
X002083Y010715D01*
X002083Y010951D01*
X001375Y010951D01*
X001375Y010715D01*
X000745Y010715D01*
X000745Y011187D01*
X001020Y011187D01*
X002438Y011187D01*
X002438Y011384D01*
X001020Y011384D01*
X001020Y011187D01*
X000863Y011187D02*
X000863Y011483D01*
X002595Y011483D01*
X003816Y011483D01*
X003816Y011817D01*
X003540Y011886D01*
X003540Y011916D01*
X003540Y012231D01*
X003540Y012260D01*
X003816Y012329D01*
X003816Y012802D01*
X003540Y012870D01*
X003540Y012900D01*
X003619Y012900D01*
X003786Y012900D01*
X004524Y012900D01*
X004539Y012902D01*
X004554Y012906D01*
X004568Y012913D01*
X004580Y012923D01*
X004590Y012935D01*
X004597Y012949D01*
X004601Y012964D01*
X004603Y012979D01*
X004603Y013136D01*
X004601Y013151D01*
X004597Y013166D01*
X004590Y013180D01*
X004580Y013192D01*
X004568Y013202D01*
X004554Y013209D01*
X004539Y013213D01*
X004524Y013215D01*
X003786Y013215D01*
X003619Y013215D01*
X003540Y013215D01*
X003540Y013244D01*
X003816Y013313D01*
X003816Y013786D01*
X003816Y013884D01*
X003786Y013884D02*
X004524Y013884D01*
X004539Y013886D01*
X004554Y013890D01*
X004568Y013897D01*
X004580Y013907D01*
X004590Y013919D01*
X004597Y013933D01*
X004601Y013948D01*
X004603Y013963D01*
X004603Y014120D01*
X004601Y014135D01*
X004597Y014150D01*
X004590Y014164D01*
X004580Y014176D01*
X004568Y014186D01*
X004554Y014193D01*
X004539Y014197D01*
X004524Y014199D01*
X003786Y014199D01*
X003786Y013884D01*
X003619Y013884D01*
X003540Y013884D01*
X003540Y014199D01*
X003540Y014229D01*
X003816Y014298D01*
X003816Y014770D01*
X003816Y014869D01*
X003786Y014869D02*
X004524Y014869D01*
X004524Y014868D02*
X004539Y014870D01*
X004554Y014874D01*
X004568Y014881D01*
X004580Y014891D01*
X004590Y014903D01*
X004597Y014917D01*
X004601Y014932D01*
X004603Y014947D01*
X004603Y015105D01*
X004601Y015120D01*
X004597Y015135D01*
X004590Y015149D01*
X004580Y015161D01*
X004568Y015171D01*
X004554Y015178D01*
X004539Y015182D01*
X004524Y015184D01*
X004524Y015183D02*
X003786Y015183D01*
X003619Y015183D01*
X003619Y014869D01*
X003786Y014869D01*
X003786Y015183D01*
X003816Y015183D02*
X003816Y015282D01*
X003540Y015213D01*
X003540Y015183D01*
X003540Y014869D01*
X003540Y014839D01*
X003816Y014770D01*
X003619Y014869D02*
X003540Y014869D01*
X003540Y015183D02*
X003619Y015183D01*
X003816Y015282D02*
X003816Y015617D01*
X002595Y015617D01*
X002595Y015912D01*
X002713Y015912D02*
X002438Y015912D01*
X002438Y015715D01*
X001020Y015715D01*
X001020Y015912D01*
X000745Y015912D01*
X000745Y016384D01*
X001375Y016384D01*
X001375Y016148D01*
X002083Y016148D01*
X002083Y016384D01*
X002713Y016384D01*
X002713Y015912D01*
X002595Y015617D02*
X000863Y015617D01*
X000863Y015912D01*
X001020Y015912D02*
X002438Y015912D01*
X000863Y015617D02*
X000272Y015617D01*
X000272Y011483D01*
X000863Y011483D01*
X002438Y011187D02*
X002713Y011187D01*
X002713Y010715D01*
X002595Y011187D02*
X002595Y011483D01*
X003540Y011916D02*
X003619Y011916D01*
X003786Y011916D01*
X004524Y011916D01*
X004524Y011915D02*
X004539Y011917D01*
X004554Y011921D01*
X004568Y011928D01*
X004580Y011938D01*
X004590Y011950D01*
X004597Y011964D01*
X004601Y011979D01*
X004603Y011994D01*
X004603Y012152D01*
X004601Y012167D01*
X004597Y012182D01*
X004590Y012196D01*
X004580Y012208D01*
X004568Y012218D01*
X004554Y012225D01*
X004539Y012229D01*
X004524Y012231D01*
X003786Y012231D01*
X003619Y012231D01*
X003619Y011916D01*
X003786Y011916D02*
X003786Y012231D01*
X003816Y012231D02*
X003816Y012329D01*
X003619Y012231D02*
X003540Y012231D01*
X003816Y011916D02*
X003816Y011817D01*
X003816Y012802D02*
X003816Y012900D01*
X003786Y012900D02*
X003786Y013215D01*
X003816Y013215D02*
X003816Y013313D01*
X003619Y013215D02*
X003619Y012900D01*
X003540Y012900D02*
X003540Y013215D01*
X003816Y013786D02*
X003540Y013855D01*
X003540Y013884D01*
X003619Y013884D02*
X003619Y014199D01*
X003540Y014199D01*
X003619Y014199D02*
X003786Y014199D01*
X003816Y014199D02*
X003816Y014298D01*
X006744Y016182D02*
X007078Y016182D01*
X007177Y016182D01*
X007177Y016212D02*
X007492Y016212D01*
X007492Y016379D01*
X007177Y016379D01*
X007177Y016212D01*
X007177Y015474D01*
X007179Y015459D01*
X007183Y015444D01*
X007190Y015430D01*
X007200Y015418D01*
X007212Y015408D01*
X007226Y015401D01*
X007241Y015397D01*
X007256Y015395D01*
X007413Y015395D01*
X007428Y015397D01*
X007443Y015401D01*
X007457Y015408D01*
X007469Y015418D01*
X007479Y015430D01*
X007486Y015444D01*
X007490Y015459D01*
X007492Y015474D01*
X007492Y016212D01*
X007492Y016182D02*
X007590Y016182D01*
X008063Y016182D01*
X008161Y016182D01*
X008161Y016212D02*
X008476Y016212D01*
X008476Y016379D01*
X008161Y016379D01*
X008161Y016458D01*
X008476Y016458D01*
X008506Y016458D01*
X008574Y016182D01*
X009047Y016182D01*
X009145Y016182D01*
X009145Y016212D02*
X009460Y016212D01*
X009460Y016379D01*
X009145Y016379D01*
X009145Y016212D01*
X009145Y015474D01*
X009147Y015459D01*
X009151Y015444D01*
X009158Y015430D01*
X009168Y015418D01*
X009180Y015408D01*
X009194Y015401D01*
X009209Y015397D01*
X009224Y015395D01*
X009381Y015395D01*
X009396Y015397D01*
X009411Y015401D01*
X009425Y015408D01*
X009437Y015418D01*
X009447Y015430D01*
X009454Y015444D01*
X009458Y015459D01*
X009460Y015474D01*
X009460Y016212D01*
X009460Y016182D02*
X009559Y016182D01*
X009490Y016458D01*
X009460Y016458D01*
X009145Y016458D01*
X009116Y016458D01*
X009047Y016182D01*
X009145Y016379D02*
X009145Y016458D01*
X009460Y016458D02*
X009460Y016379D01*
X009559Y016182D02*
X010031Y016182D01*
X010130Y016182D01*
X010130Y016212D02*
X010444Y016212D01*
X010444Y016379D01*
X010130Y016379D01*
X010130Y016212D01*
X010130Y015474D01*
X010129Y015474D02*
X010131Y015459D01*
X010135Y015444D01*
X010142Y015430D01*
X010152Y015418D01*
X010164Y015408D01*
X010178Y015401D01*
X010193Y015397D01*
X010208Y015395D01*
X010366Y015395D01*
X010381Y015397D01*
X010396Y015401D01*
X010410Y015408D01*
X010422Y015418D01*
X010432Y015430D01*
X010439Y015444D01*
X010443Y015459D01*
X010445Y015474D01*
X010444Y015474D02*
X010444Y016212D01*
X010444Y016182D02*
X010543Y016182D01*
X010474Y016458D01*
X010444Y016458D01*
X010130Y016458D01*
X010130Y016379D01*
X010130Y016458D02*
X010100Y016458D01*
X010031Y016182D01*
X010444Y016379D02*
X010444Y016458D01*
X010543Y016182D02*
X011015Y016182D01*
X011114Y016182D01*
X011114Y016212D02*
X011114Y016379D01*
X011114Y016458D01*
X011084Y016458D01*
X011015Y016182D01*
X011114Y016212D02*
X011429Y016212D01*
X011429Y016379D01*
X011114Y016379D01*
X011114Y016458D02*
X011429Y016458D01*
X011429Y016379D01*
X011429Y016458D02*
X011458Y016458D01*
X011527Y016182D01*
X011429Y016182D01*
X011429Y016212D02*
X011429Y015474D01*
X011427Y015459D01*
X011423Y015444D01*
X011416Y015430D01*
X011406Y015418D01*
X011394Y015408D01*
X011380Y015401D01*
X011365Y015397D01*
X011350Y015395D01*
X011193Y015395D01*
X011178Y015397D01*
X011163Y015401D01*
X011149Y015408D01*
X011137Y015418D01*
X011127Y015430D01*
X011120Y015444D01*
X011116Y015459D01*
X011114Y015474D01*
X011114Y016212D01*
X011527Y016182D02*
X012000Y016182D01*
X012069Y016458D01*
X012098Y016458D01*
X012098Y016379D01*
X012413Y016379D01*
X012413Y016212D01*
X012098Y016212D01*
X012098Y016379D01*
X012098Y016458D02*
X012413Y016458D01*
X012413Y016379D01*
X012413Y016458D02*
X012443Y016458D01*
X012511Y016182D01*
X012413Y016182D01*
X012413Y016212D02*
X012413Y015474D01*
X012411Y015459D01*
X012407Y015444D01*
X012400Y015430D01*
X012390Y015418D01*
X012378Y015408D01*
X012364Y015401D01*
X012349Y015397D01*
X012334Y015395D01*
X012177Y015395D01*
X012162Y015397D01*
X012147Y015401D01*
X012133Y015408D01*
X012121Y015418D01*
X012111Y015430D01*
X012104Y015444D01*
X012100Y015459D01*
X012098Y015474D01*
X012098Y016212D01*
X012098Y016182D02*
X012000Y016182D01*
X012511Y016182D02*
X012984Y016182D01*
X013053Y016458D01*
X013082Y016458D01*
X013082Y016379D01*
X013397Y016379D01*
X013397Y016212D01*
X013082Y016212D01*
X013082Y016379D01*
X013082Y016458D02*
X013397Y016458D01*
X013397Y016379D01*
X013397Y016458D02*
X013427Y016458D01*
X013496Y016182D01*
X013397Y016182D01*
X013397Y016212D02*
X013397Y015474D01*
X013398Y015474D02*
X013396Y015459D01*
X013392Y015444D01*
X013385Y015430D01*
X013375Y015418D01*
X013363Y015408D01*
X013349Y015401D01*
X013334Y015397D01*
X013319Y015395D01*
X013161Y015395D01*
X013146Y015397D01*
X013131Y015401D01*
X013117Y015408D01*
X013105Y015418D01*
X013095Y015430D01*
X013088Y015444D01*
X013084Y015459D01*
X013082Y015474D01*
X013082Y016212D01*
X013082Y016182D02*
X012984Y016182D01*
X013496Y016182D02*
X013968Y016182D01*
X014037Y016458D01*
X014067Y016458D01*
X014067Y016379D01*
X014381Y016379D01*
X014381Y016212D01*
X014067Y016212D01*
X014067Y016379D01*
X014067Y016458D02*
X014381Y016458D01*
X014381Y016379D01*
X014381Y016458D02*
X014411Y016458D01*
X014480Y016182D01*
X014815Y016182D01*
X014815Y017403D01*
X014815Y019135D01*
X014815Y019726D01*
X006744Y019726D01*
X006744Y019135D01*
X006448Y019135D01*
X006448Y019253D02*
X006448Y018978D01*
X006448Y017560D01*
X006645Y017560D01*
X006645Y018978D01*
X006448Y018978D01*
X006744Y019135D02*
X006744Y017403D01*
X006744Y016182D01*
X007078Y016182D02*
X007147Y016458D01*
X007177Y016458D01*
X007492Y016458D01*
X007521Y016458D01*
X007590Y016182D01*
X007492Y016379D02*
X007492Y016458D01*
X007177Y016458D02*
X007177Y016379D01*
X008063Y016182D02*
X008131Y016458D01*
X008161Y016458D01*
X008161Y016379D02*
X008161Y016212D01*
X008161Y015474D01*
X008163Y015459D01*
X008167Y015444D01*
X008174Y015430D01*
X008184Y015418D01*
X008196Y015408D01*
X008210Y015401D01*
X008225Y015397D01*
X008240Y015395D01*
X008397Y015395D01*
X008412Y015397D01*
X008427Y015401D01*
X008441Y015408D01*
X008453Y015418D01*
X008463Y015430D01*
X008470Y015444D01*
X008474Y015459D01*
X008476Y015474D01*
X008476Y016212D01*
X008476Y016182D02*
X008574Y016182D01*
X008476Y016379D02*
X008476Y016458D01*
X006744Y017403D02*
X006448Y017403D01*
X006448Y017285D02*
X006448Y017560D01*
X006448Y017285D02*
X005976Y017285D01*
X005976Y017915D01*
X006212Y017915D01*
X006212Y018623D01*
X005976Y018623D01*
X005976Y019253D01*
X006448Y019253D01*
X013968Y016182D02*
X014067Y016182D01*
X014067Y016212D02*
X014067Y015474D01*
X014066Y015474D02*
X014068Y015459D01*
X014072Y015444D01*
X014079Y015430D01*
X014089Y015418D01*
X014101Y015408D01*
X014115Y015401D01*
X014130Y015397D01*
X014145Y015395D01*
X014303Y015395D01*
X014318Y015397D01*
X014333Y015401D01*
X014347Y015408D01*
X014359Y015418D01*
X014369Y015430D01*
X014376Y015444D01*
X014380Y015459D01*
X014382Y015474D01*
X014381Y015474D02*
X014381Y016212D01*
X014381Y016182D02*
X014480Y016182D01*
X015110Y017285D02*
X015582Y017285D01*
X015582Y017915D01*
X015346Y017915D01*
X015346Y018623D01*
X015582Y018623D01*
X015582Y019253D01*
X015110Y019253D01*
X015110Y018978D01*
X014913Y018978D01*
X014913Y017560D01*
X015110Y017560D01*
X015110Y018978D01*
X015110Y019135D02*
X014815Y019135D01*
X016212Y019253D02*
X016212Y018623D01*
X016448Y018623D01*
X016448Y017915D01*
X016212Y017915D01*
X016212Y017285D01*
X016685Y017285D01*
X016685Y017560D01*
X016685Y018978D01*
X016881Y018978D01*
X016881Y017560D01*
X016685Y017560D01*
X016685Y017403D02*
X016980Y017403D01*
X016980Y019135D01*
X016685Y019135D01*
X016685Y019253D02*
X016685Y018978D01*
X016685Y019253D02*
X016212Y019253D01*
X016980Y019135D02*
X016980Y019726D01*
X021114Y019726D01*
X021114Y019135D01*
X021409Y019135D01*
X021409Y019253D02*
X021409Y018978D01*
X021212Y018978D01*
X021212Y017560D01*
X021409Y017560D01*
X021409Y018978D01*
X021114Y019135D02*
X021114Y017403D01*
X021409Y017403D01*
X021409Y017285D02*
X021409Y017560D01*
X021409Y017285D02*
X021881Y017285D01*
X021881Y017915D01*
X021645Y017915D01*
X021645Y018623D01*
X021881Y018623D01*
X021881Y019253D01*
X021409Y019253D01*
X021114Y017403D02*
X021114Y016182D01*
X020779Y016182D01*
X020710Y016458D01*
X020681Y016458D01*
X020366Y016458D01*
X020336Y016458D01*
X020267Y016182D01*
X020366Y016182D01*
X020366Y016212D02*
X020366Y015474D01*
X020365Y015474D02*
X020367Y015459D01*
X020371Y015444D01*
X020378Y015430D01*
X020388Y015418D01*
X020400Y015408D01*
X020414Y015401D01*
X020429Y015397D01*
X020444Y015395D01*
X020602Y015395D01*
X020617Y015397D01*
X020632Y015401D01*
X020646Y015408D01*
X020658Y015418D01*
X020668Y015430D01*
X020675Y015444D01*
X020679Y015459D01*
X020681Y015474D01*
X020681Y016212D01*
X020681Y016379D01*
X020366Y016379D01*
X020366Y016212D01*
X020681Y016212D01*
X020681Y016182D02*
X020779Y016182D01*
X020681Y016379D02*
X020681Y016458D01*
X020366Y016458D02*
X020366Y016379D01*
X020267Y016182D02*
X019795Y016182D01*
X019696Y016182D01*
X019696Y016212D02*
X019696Y015474D01*
X019697Y015474D02*
X019695Y015459D01*
X019691Y015444D01*
X019684Y015430D01*
X019674Y015418D01*
X019662Y015408D01*
X019648Y015401D01*
X019633Y015397D01*
X019618Y015395D01*
X019460Y015395D01*
X019445Y015397D01*
X019430Y015401D01*
X019416Y015408D01*
X019404Y015418D01*
X019394Y015430D01*
X019387Y015444D01*
X019383Y015459D01*
X019381Y015474D01*
X019381Y016212D01*
X019696Y016212D01*
X019696Y016379D01*
X019381Y016379D01*
X019381Y016458D01*
X019696Y016458D01*
X019726Y016458D01*
X019795Y016182D01*
X019696Y016379D02*
X019696Y016458D01*
X019381Y016458D02*
X019352Y016458D01*
X019283Y016182D01*
X018811Y016182D01*
X018742Y016458D01*
X018712Y016458D01*
X018712Y016379D01*
X018712Y016212D01*
X018712Y015474D01*
X018710Y015459D01*
X018706Y015444D01*
X018699Y015430D01*
X018689Y015418D01*
X018677Y015408D01*
X018663Y015401D01*
X018648Y015397D01*
X018633Y015395D01*
X018476Y015395D01*
X018461Y015397D01*
X018446Y015401D01*
X018432Y015408D01*
X018420Y015418D01*
X018410Y015430D01*
X018403Y015444D01*
X018399Y015459D01*
X018397Y015474D01*
X018397Y016212D01*
X018397Y016379D01*
X018397Y016458D01*
X018368Y016458D01*
X018299Y016182D01*
X017826Y016182D01*
X017757Y016458D01*
X017728Y016458D01*
X017413Y016458D01*
X017383Y016458D01*
X017315Y016182D01*
X016980Y016182D01*
X016980Y017403D01*
X017413Y016458D02*
X017413Y016379D01*
X017413Y016212D01*
X017413Y015474D01*
X017415Y015459D01*
X017419Y015444D01*
X017426Y015430D01*
X017436Y015418D01*
X017448Y015408D01*
X017462Y015401D01*
X017477Y015397D01*
X017492Y015395D01*
X017649Y015395D01*
X017664Y015397D01*
X017679Y015401D01*
X017693Y015408D01*
X017705Y015418D01*
X017715Y015430D01*
X017722Y015444D01*
X017726Y015459D01*
X017728Y015474D01*
X017728Y016212D01*
X017728Y016379D01*
X017413Y016379D01*
X017413Y016212D02*
X017728Y016212D01*
X017728Y016182D02*
X017826Y016182D01*
X017728Y016379D02*
X017728Y016458D01*
X017413Y016182D02*
X017315Y016182D01*
X018299Y016182D02*
X018397Y016182D01*
X018397Y016212D02*
X018712Y016212D01*
X018712Y016182D02*
X018811Y016182D01*
X018712Y016379D02*
X018397Y016379D01*
X018397Y016458D02*
X018712Y016458D01*
X019283Y016182D02*
X019381Y016182D01*
X019381Y016212D02*
X019381Y016379D01*
X015110Y017285D02*
X015110Y017560D01*
X015110Y017403D02*
X014815Y017403D01*
X019401Y009219D02*
X019403Y009245D01*
X019409Y009271D01*
X019419Y009296D01*
X019432Y009319D01*
X019448Y009339D01*
X019468Y009357D01*
X019490Y009372D01*
X019513Y009384D01*
X019539Y009392D01*
X019565Y009396D01*
X019591Y009396D01*
X019617Y009392D01*
X019643Y009384D01*
X019667Y009372D01*
X019688Y009357D01*
X019708Y009339D01*
X019724Y009319D01*
X019737Y009296D01*
X019747Y009271D01*
X019753Y009245D01*
X019755Y009219D01*
X019753Y009193D01*
X019747Y009167D01*
X019737Y009142D01*
X019724Y009119D01*
X019708Y009099D01*
X019688Y009081D01*
X019666Y009066D01*
X019643Y009054D01*
X019617Y009046D01*
X019591Y009042D01*
X019565Y009042D01*
X019539Y009046D01*
X019513Y009054D01*
X019489Y009066D01*
X019468Y009081D01*
X019448Y009099D01*
X019432Y009119D01*
X019419Y009142D01*
X019409Y009167D01*
X019403Y009193D01*
X019401Y009219D01*
X019401Y007841D02*
X019403Y007867D01*
X019409Y007893D01*
X019419Y007918D01*
X019432Y007941D01*
X019448Y007961D01*
X019468Y007979D01*
X019490Y007994D01*
X019513Y008006D01*
X019539Y008014D01*
X019565Y008018D01*
X019591Y008018D01*
X019617Y008014D01*
X019643Y008006D01*
X019667Y007994D01*
X019688Y007979D01*
X019708Y007961D01*
X019724Y007941D01*
X019737Y007918D01*
X019747Y007893D01*
X019753Y007867D01*
X019755Y007841D01*
X019753Y007815D01*
X019747Y007789D01*
X019737Y007764D01*
X019724Y007741D01*
X019708Y007721D01*
X019688Y007703D01*
X019666Y007688D01*
X019643Y007676D01*
X019617Y007668D01*
X019591Y007664D01*
X019565Y007664D01*
X019539Y007668D01*
X019513Y007676D01*
X019489Y007688D01*
X019468Y007703D01*
X019448Y007721D01*
X019432Y007741D01*
X019419Y007764D01*
X019409Y007789D01*
X019403Y007815D01*
X019401Y007841D01*
D11*
X018840Y005247D02*
X018840Y003200D01*
X020887Y003200D01*
X020887Y005247D01*
X018840Y005247D01*
X019431Y004224D02*
X019433Y004265D01*
X019439Y004306D01*
X019449Y004346D01*
X019462Y004385D01*
X019479Y004422D01*
X019500Y004458D01*
X019524Y004492D01*
X019551Y004523D01*
X019580Y004551D01*
X019613Y004577D01*
X019647Y004599D01*
X019684Y004618D01*
X019722Y004633D01*
X019762Y004645D01*
X019802Y004653D01*
X019843Y004657D01*
X019885Y004657D01*
X019926Y004653D01*
X019966Y004645D01*
X020006Y004633D01*
X020044Y004618D01*
X020080Y004599D01*
X020115Y004577D01*
X020148Y004551D01*
X020177Y004523D01*
X020204Y004492D01*
X020228Y004458D01*
X020249Y004422D01*
X020266Y004385D01*
X020279Y004346D01*
X020289Y004306D01*
X020295Y004265D01*
X020297Y004224D01*
X020295Y004183D01*
X020289Y004142D01*
X020279Y004102D01*
X020266Y004063D01*
X020249Y004026D01*
X020228Y003990D01*
X020204Y003956D01*
X020177Y003925D01*
X020148Y003897D01*
X020115Y003871D01*
X020081Y003849D01*
X020044Y003830D01*
X020006Y003815D01*
X019966Y003803D01*
X019926Y003795D01*
X019885Y003791D01*
X019843Y003791D01*
X019802Y003795D01*
X019762Y003803D01*
X019722Y003815D01*
X019684Y003830D01*
X019648Y003849D01*
X019613Y003871D01*
X019580Y003897D01*
X019551Y003925D01*
X019524Y003956D01*
X019500Y003990D01*
X019479Y004026D01*
X019462Y004063D01*
X019449Y004102D01*
X019439Y004142D01*
X019433Y004183D01*
X019431Y004224D01*
X018840Y002585D02*
X018840Y000537D01*
X020887Y000537D01*
X020887Y002585D01*
X018840Y002585D01*
X019431Y001561D02*
X019433Y001602D01*
X019439Y001643D01*
X019449Y001683D01*
X019462Y001722D01*
X019479Y001759D01*
X019500Y001795D01*
X019524Y001829D01*
X019551Y001860D01*
X019580Y001888D01*
X019613Y001914D01*
X019647Y001936D01*
X019684Y001955D01*
X019722Y001970D01*
X019762Y001982D01*
X019802Y001990D01*
X019843Y001994D01*
X019885Y001994D01*
X019926Y001990D01*
X019966Y001982D01*
X020006Y001970D01*
X020044Y001955D01*
X020080Y001936D01*
X020115Y001914D01*
X020148Y001888D01*
X020177Y001860D01*
X020204Y001829D01*
X020228Y001795D01*
X020249Y001759D01*
X020266Y001722D01*
X020279Y001683D01*
X020289Y001643D01*
X020295Y001602D01*
X020297Y001561D01*
X020295Y001520D01*
X020289Y001479D01*
X020279Y001439D01*
X020266Y001400D01*
X020249Y001363D01*
X020228Y001327D01*
X020204Y001293D01*
X020177Y001262D01*
X020148Y001234D01*
X020115Y001208D01*
X020081Y001186D01*
X020044Y001167D01*
X020006Y001152D01*
X019966Y001140D01*
X019926Y001132D01*
X019885Y001128D01*
X019843Y001128D01*
X019802Y001132D01*
X019762Y001140D01*
X019722Y001152D01*
X019684Y001167D01*
X019648Y001186D01*
X019613Y001208D01*
X019580Y001234D01*
X019551Y001262D01*
X019524Y001293D01*
X019500Y001327D01*
X019479Y001363D01*
X019462Y001400D01*
X019449Y001439D01*
X019439Y001479D01*
X019433Y001520D01*
X019431Y001561D01*
X011885Y001662D02*
X011885Y002062D01*
X011635Y001862D01*
X011885Y001662D01*
X011885Y001667D02*
X011878Y001667D01*
X011885Y001716D02*
X011817Y001716D01*
X011756Y001764D02*
X011885Y001764D01*
X011885Y001813D02*
X011696Y001813D01*
X011635Y001861D02*
X011885Y001861D01*
X011885Y001910D02*
X011695Y001910D01*
X011756Y001958D02*
X011885Y001958D01*
X011885Y002007D02*
X011816Y002007D01*
X011877Y002055D02*
X011885Y002055D01*
X010841Y002595D02*
X010841Y002895D01*
X010766Y002970D01*
X010616Y002970D01*
X010541Y002895D01*
X010541Y002595D01*
X010616Y002520D01*
X010766Y002520D01*
X010841Y002595D01*
X010380Y002970D02*
X010080Y002520D01*
X009923Y002520D02*
X009773Y002520D01*
X009848Y002520D02*
X009848Y002970D01*
X009773Y002970D02*
X009923Y002970D01*
X009154Y002820D02*
X009079Y002820D01*
X008929Y002670D01*
X008929Y002520D02*
X008929Y002820D01*
X008769Y002745D02*
X008769Y002670D01*
X008469Y002670D01*
X008469Y002595D02*
X008469Y002745D01*
X008544Y002820D01*
X008694Y002820D01*
X008769Y002745D01*
X008694Y002520D02*
X008544Y002520D01*
X008469Y002595D01*
X008309Y002595D02*
X008309Y002670D01*
X008234Y002745D01*
X008083Y002745D01*
X008008Y002820D01*
X008008Y002895D01*
X008083Y002970D01*
X008234Y002970D01*
X008309Y002895D01*
X008309Y002595D02*
X008234Y002520D01*
X008083Y002520D01*
X008008Y002595D01*
X007156Y000810D02*
X007231Y000735D01*
X007231Y000660D01*
X007156Y000585D01*
X007005Y000585D01*
X006930Y000510D01*
X006930Y000435D01*
X007005Y000360D01*
X007156Y000360D01*
X007231Y000435D01*
X007231Y000510D01*
X007156Y000585D01*
X007005Y000585D02*
X006930Y000660D01*
X006930Y000735D01*
X007005Y000810D01*
X007156Y000810D01*
X006770Y000810D02*
X006620Y000810D01*
X006695Y000810D02*
X006695Y000435D01*
X006620Y000360D01*
X006545Y000360D01*
X006470Y000435D01*
X018115Y010769D02*
X018340Y010769D01*
X018415Y010844D01*
X018415Y011144D01*
X018340Y011219D01*
X018115Y011219D01*
X018115Y010769D01*
X018575Y010769D02*
X018875Y010769D01*
X019035Y010769D02*
X019261Y010769D01*
X019336Y010844D01*
X019336Y010919D01*
X019261Y010994D01*
X019035Y010994D01*
X019035Y010769D02*
X019035Y011219D01*
X019261Y011219D01*
X019336Y011144D01*
X019336Y011069D01*
X019261Y010994D01*
X019496Y010844D02*
X019571Y010769D01*
X019721Y010769D01*
X019796Y010844D01*
X019796Y011219D01*
X019956Y011144D02*
X019956Y010844D01*
X020031Y010769D01*
X020181Y010769D01*
X020256Y010844D01*
X020256Y010994D01*
X020106Y010994D01*
X019956Y011144D02*
X020031Y011219D01*
X020181Y011219D01*
X020256Y011144D01*
X019496Y011219D02*
X019496Y010844D01*
X018875Y011219D02*
X018575Y011219D01*
X018575Y010769D01*
X018575Y010994D02*
X018725Y010994D01*
X017650Y011901D02*
X017400Y011701D01*
X017400Y012101D01*
X017650Y011901D01*
X017400Y011901D01*
X017400Y011949D02*
X017589Y011949D01*
X017529Y011998D02*
X017400Y011998D01*
X017400Y012046D02*
X017468Y012046D01*
X017407Y012095D02*
X017400Y012095D01*
X017400Y011852D02*
X017589Y011852D01*
X017528Y011804D02*
X017400Y011804D01*
X017400Y011755D02*
X017468Y011755D01*
X017407Y011707D02*
X017400Y011707D01*
X021121Y010894D02*
X021196Y010819D01*
X021271Y010819D01*
X021346Y010894D01*
X021346Y011269D01*
X021271Y011269D02*
X021421Y011269D01*
X021581Y011119D02*
X021731Y011269D01*
X021731Y010819D01*
X021581Y010819D02*
X021881Y010819D01*
D12*
X014952Y009534D02*
X009795Y009534D01*
X009795Y004376D01*
X014952Y004376D01*
X014952Y009534D01*
D13*
X010189Y009140D03*
D14*
X009145Y009593D03*
D15*
X009160Y009972D02*
X009072Y009972D01*
X009116Y009972D02*
X009116Y010238D01*
X009072Y010238D02*
X009160Y010238D01*
X009241Y010193D02*
X009241Y010016D01*
X009285Y009972D01*
X009374Y009972D01*
X009418Y010016D01*
X009494Y009972D02*
X009672Y009972D01*
X009583Y009972D02*
X009583Y010238D01*
X009494Y010149D01*
X009418Y010193D02*
X009374Y010238D01*
X009285Y010238D01*
X009241Y010193D01*
X011394Y007226D02*
X011394Y006960D01*
X011572Y006960D01*
X011648Y006960D02*
X011648Y007226D01*
X011737Y007137D01*
X011825Y007226D01*
X011825Y006960D01*
X011902Y007004D02*
X011946Y006960D01*
X012035Y006960D01*
X012079Y007004D01*
X012079Y007049D01*
X012035Y007093D01*
X011990Y007093D01*
X012035Y007093D02*
X012079Y007137D01*
X012079Y007182D01*
X012035Y007226D01*
X011946Y007226D01*
X011902Y007182D01*
X012156Y007182D02*
X012200Y007226D01*
X012289Y007226D01*
X012333Y007182D01*
X012409Y007226D02*
X012409Y007093D01*
X012498Y007137D01*
X012542Y007137D01*
X012587Y007093D01*
X012587Y007004D01*
X012542Y006960D01*
X012454Y006960D01*
X012409Y007004D01*
X012333Y007004D02*
X012289Y006960D01*
X012200Y006960D01*
X012156Y007004D01*
X012200Y007093D02*
X012289Y007093D01*
X012333Y007049D01*
X012333Y007004D01*
X012200Y007093D02*
X012156Y007137D01*
X012156Y007182D01*
X012409Y007226D02*
X012587Y007226D01*
X012663Y007226D02*
X012840Y007226D01*
X012840Y007182D01*
X012663Y007004D01*
X012663Y006960D01*
X012917Y007093D02*
X013094Y007093D01*
X013171Y007137D02*
X013215Y007093D01*
X013348Y007093D01*
X013348Y007004D02*
X013348Y007182D01*
X013304Y007226D01*
X013215Y007226D01*
X013171Y007182D01*
X013171Y007137D01*
X013171Y007004D02*
X013215Y006960D01*
X013304Y006960D01*
X013348Y007004D01*
X013050Y006960D02*
X013050Y007226D01*
X012917Y007093D01*
D16*
X016238Y009489D02*
X016238Y009949D01*
X016468Y009949D01*
X016545Y009873D01*
X016545Y009719D01*
X016468Y009642D01*
X016238Y009642D01*
X016392Y009642D02*
X016545Y009489D01*
X016699Y009489D02*
X017005Y009489D01*
X016852Y009489D02*
X016852Y009949D01*
X016699Y009796D01*
X016671Y008782D02*
X016978Y008782D01*
X017132Y008782D02*
X017362Y008782D01*
X017439Y008705D01*
X017439Y008629D01*
X017362Y008552D01*
X017132Y008552D01*
X017362Y008552D02*
X017439Y008475D01*
X017439Y008398D01*
X017362Y008322D01*
X017132Y008322D01*
X017132Y008782D01*
X016825Y008552D02*
X016671Y008552D01*
X016671Y008322D02*
X016671Y008782D01*
X017592Y008629D02*
X017745Y008782D01*
X017745Y008322D01*
X017592Y008322D02*
X017899Y008322D01*
X018717Y007672D02*
X018927Y007672D01*
X018717Y007671D02*
X018695Y007669D01*
X018673Y007664D01*
X018652Y007655D01*
X018633Y007644D01*
X018616Y007629D01*
X018601Y007612D01*
X018590Y007593D01*
X018581Y007572D01*
X018576Y007550D01*
X018574Y007528D01*
X018574Y007032D01*
X022079Y007032D01*
X022079Y010029D01*
X018574Y010029D01*
X018574Y009526D01*
X018576Y009504D01*
X018581Y009483D01*
X018589Y009463D01*
X018600Y009445D01*
X018614Y009428D01*
X018631Y009414D01*
X018649Y009403D01*
X018669Y009395D01*
X018690Y009390D01*
X018712Y009388D01*
X018944Y009388D01*
X019832Y008814D02*
X019832Y008235D01*
X019834Y008214D01*
X019839Y008194D01*
X019847Y008175D01*
X019857Y008157D01*
X019871Y008141D01*
X019887Y008127D01*
X019905Y008117D01*
X019924Y008109D01*
X019944Y008104D01*
X019965Y008102D01*
X021549Y008019D01*
X021563Y008020D01*
X021576Y008025D01*
X021587Y008033D01*
X021596Y008043D01*
X021602Y008056D01*
X021605Y008069D01*
X021604Y008083D01*
X021599Y008096D01*
X021591Y008107D01*
X021581Y008116D01*
X021568Y008122D01*
X021555Y008125D01*
X021554Y008124D02*
X020329Y008191D01*
X020305Y008193D01*
X020281Y008198D01*
X020258Y008206D01*
X020237Y008218D01*
X020217Y008233D01*
X020200Y008250D01*
X020185Y008270D01*
X020173Y008291D01*
X020165Y008314D01*
X020160Y008338D01*
X020158Y008362D01*
X020158Y008709D01*
X020160Y008733D01*
X020165Y008756D01*
X020173Y008778D01*
X020184Y008799D01*
X020199Y008818D01*
X020215Y008834D01*
X020234Y008849D01*
X020255Y008860D01*
X020277Y008868D01*
X020300Y008873D01*
X020324Y008875D01*
X020351Y008875D01*
X021549Y008930D01*
X021562Y008932D01*
X021575Y008938D01*
X021586Y008947D01*
X021594Y008958D01*
X021599Y008971D01*
X021601Y008985D01*
X021599Y008999D01*
X021594Y009012D01*
X021586Y009023D01*
X021575Y009032D01*
X021562Y009038D01*
X021549Y009040D01*
X021549Y009041D02*
X019976Y008958D01*
X019953Y008956D01*
X019931Y008951D01*
X019911Y008942D01*
X019891Y008930D01*
X019874Y008916D01*
X019860Y008899D01*
X019848Y008879D01*
X019839Y008859D01*
X019834Y008837D01*
X019832Y008814D01*
X020009Y009195D02*
X021455Y009261D01*
X021472Y009261D01*
X021471Y009261D02*
X021493Y009263D01*
X021514Y009268D01*
X021534Y009276D01*
X021552Y009287D01*
X021569Y009301D01*
X021583Y009318D01*
X021594Y009336D01*
X021602Y009356D01*
X021607Y009377D01*
X021609Y009399D01*
X021610Y009399D02*
X021610Y010006D01*
X021334Y009593D02*
X019992Y009681D01*
X019993Y009681D02*
X019981Y009683D01*
X019970Y009689D01*
X019961Y009697D01*
X019954Y009707D01*
X019950Y009718D01*
X019949Y009730D01*
X019948Y009730D02*
X019948Y010006D01*
X020003Y009311D02*
X021339Y009399D01*
X021358Y009402D01*
X021375Y009409D01*
X021391Y009418D01*
X021405Y009431D01*
X021416Y009446D01*
X021424Y009462D01*
X021429Y009480D01*
X021430Y009499D01*
X021428Y009517D01*
X021422Y009535D01*
X021413Y009551D01*
X021401Y009565D01*
X021386Y009577D01*
X021370Y009586D01*
X021352Y009591D01*
X021334Y009593D01*
X020003Y009311D02*
X019989Y009309D01*
X019977Y009303D01*
X019965Y009294D01*
X019957Y009284D01*
X019951Y009271D01*
X019948Y009257D01*
X019949Y009243D01*
X019953Y009230D01*
X019960Y009218D01*
X019970Y009208D01*
X019981Y009200D01*
X019995Y009196D01*
X020009Y009195D01*
X020009Y007865D02*
X021455Y007799D01*
X021472Y007799D01*
X021494Y007797D01*
X021515Y007792D01*
X021535Y007784D01*
X021553Y007773D01*
X021570Y007759D01*
X021584Y007742D01*
X021595Y007724D01*
X021603Y007704D01*
X021608Y007683D01*
X021610Y007661D01*
X021610Y007054D01*
X021334Y007468D02*
X019992Y007379D01*
X019993Y007379D02*
X019981Y007377D01*
X019970Y007371D01*
X019961Y007363D01*
X019954Y007353D01*
X019950Y007342D01*
X019949Y007330D01*
X019948Y007330D02*
X019948Y007054D01*
X020003Y007749D02*
X021339Y007661D01*
X021358Y007658D01*
X021375Y007651D01*
X021391Y007642D01*
X021405Y007629D01*
X021416Y007614D01*
X021424Y007598D01*
X021429Y007580D01*
X021430Y007561D01*
X021428Y007543D01*
X021422Y007525D01*
X021413Y007509D01*
X021401Y007495D01*
X021386Y007483D01*
X021370Y007474D01*
X021352Y007469D01*
X021334Y007467D01*
X020003Y007749D02*
X019989Y007751D01*
X019977Y007757D01*
X019965Y007766D01*
X019957Y007776D01*
X019951Y007789D01*
X019948Y007803D01*
X019949Y007817D01*
X019953Y007830D01*
X019960Y007842D01*
X019970Y007852D01*
X019981Y007860D01*
X019995Y007864D01*
X020009Y007865D01*
X017994Y007284D02*
X017994Y007207D01*
X017917Y007131D01*
X017994Y007054D01*
X017994Y006977D01*
X017917Y006900D01*
X017764Y006900D01*
X017687Y006977D01*
X017841Y007131D02*
X017917Y007131D01*
X017994Y007284D02*
X017917Y007361D01*
X017764Y007361D01*
X017687Y007284D01*
X017534Y007361D02*
X017380Y007361D01*
X017457Y007361D02*
X017457Y006977D01*
X017380Y006900D01*
X017304Y006900D01*
X017227Y006977D01*
X016376Y003392D02*
X016223Y003392D01*
X016146Y003315D01*
X015992Y003315D02*
X015916Y003392D01*
X015762Y003392D01*
X015685Y003315D01*
X015685Y003009D01*
X015762Y002932D01*
X015916Y002932D01*
X015992Y003009D01*
X016146Y002932D02*
X016453Y003239D01*
X016453Y003315D01*
X016376Y003392D01*
X016453Y002932D02*
X016146Y002932D01*
X016213Y001038D02*
X016519Y000577D01*
X016673Y000577D02*
X016980Y000577D01*
X016826Y000577D02*
X016826Y001038D01*
X016673Y000884D01*
X016519Y001038D02*
X016213Y000577D01*
X015332Y000627D02*
X015025Y000320D01*
X015332Y000320D01*
X015332Y000627D02*
X015025Y000627D01*
X014871Y000550D02*
X014564Y000550D01*
X014564Y000320D02*
X014564Y000780D01*
X014411Y000780D02*
X014411Y000320D01*
X014104Y000320D02*
X014104Y000780D01*
X014257Y000627D01*
X014411Y000780D01*
X014871Y000780D02*
X014871Y000320D01*
X013951Y000397D02*
X013874Y000320D01*
X013720Y000320D01*
X013644Y000397D01*
X013644Y000473D01*
X013720Y000550D01*
X013874Y000550D01*
X013951Y000473D01*
X013951Y000397D01*
X013874Y000550D02*
X013951Y000627D01*
X013951Y000704D01*
X013874Y000780D01*
X013720Y000780D01*
X013644Y000704D01*
X013644Y000627D01*
X013720Y000550D01*
X013106Y002932D02*
X012799Y002932D01*
X012953Y002932D02*
X012953Y003392D01*
X012799Y003239D01*
X012646Y003315D02*
X012569Y003392D01*
X012416Y003392D01*
X012339Y003315D01*
X012339Y003009D01*
X012416Y002932D01*
X012569Y002932D01*
X012646Y003009D01*
X003680Y000987D02*
X003604Y001064D01*
X003527Y001064D01*
X003450Y000987D01*
X003450Y000757D01*
X003604Y000757D01*
X003680Y000834D01*
X003680Y000987D01*
X003450Y000757D02*
X003297Y000910D01*
X003220Y001064D01*
X003220Y000603D02*
X003220Y000450D01*
X003220Y000527D02*
X003604Y000527D01*
X003680Y000450D01*
X003680Y000373D01*
X003604Y000296D01*
X003604Y010385D02*
X003680Y010462D01*
X003680Y010539D01*
X003604Y010615D01*
X003220Y010615D01*
X003220Y010539D02*
X003220Y010692D01*
X003220Y010845D02*
X003220Y011152D01*
X003297Y011152D01*
X003604Y010845D01*
X003680Y010845D01*
X004928Y016170D02*
X005005Y016170D01*
X005081Y016247D01*
X005081Y016630D01*
X005005Y016630D02*
X005158Y016630D01*
X005312Y016554D02*
X005388Y016630D01*
X005542Y016630D01*
X005619Y016554D01*
X005619Y016477D01*
X005312Y016170D01*
X005619Y016170D01*
X004928Y016170D02*
X004851Y016247D01*
X004839Y016847D02*
X004652Y016847D01*
X004652Y019800D01*
X003450Y019800D01*
X003260Y019800D01*
X002940Y019800D01*
X002767Y019800D01*
X002649Y019800D01*
X002649Y016847D01*
X002767Y016847D01*
X002940Y016847D01*
X002940Y019800D01*
X002767Y019800D02*
X002767Y016847D01*
X002940Y016847D02*
X003260Y016847D01*
X003450Y016847D01*
X003450Y019800D01*
X003260Y019800D02*
X003260Y016847D01*
X003450Y016847D02*
X004652Y016847D01*
X004839Y016847D02*
X005523Y016847D01*
X005523Y019800D01*
X004839Y019800D01*
X004839Y016847D01*
X005058Y017374D02*
X004981Y017451D01*
X004981Y017604D01*
X005058Y017681D01*
X005134Y017681D01*
X005441Y017374D01*
X005441Y017681D01*
X005441Y018749D02*
X005441Y019056D01*
X005441Y018902D02*
X004981Y018902D01*
X005134Y018749D01*
X004327Y018537D02*
X004324Y018540D01*
X003476Y019012D02*
X003478Y019059D01*
X003484Y019106D01*
X003493Y019152D01*
X003507Y019197D01*
X003524Y019241D01*
X003545Y019284D01*
X003569Y019324D01*
X003596Y019363D01*
X003627Y019399D01*
X003660Y019432D01*
X003696Y019463D01*
X003735Y019490D01*
X003775Y019514D01*
X003818Y019535D01*
X003862Y019552D01*
X003907Y019566D01*
X003953Y019575D01*
X004000Y019581D01*
X004047Y019583D01*
X004094Y019581D01*
X004141Y019575D01*
X004187Y019566D01*
X004232Y019552D01*
X004276Y019535D01*
X004319Y019514D01*
X004359Y019490D01*
X004398Y019463D01*
X004434Y019432D01*
X004467Y019399D01*
X004498Y019363D01*
X004525Y019324D01*
X004549Y019284D01*
X004570Y019241D01*
X004587Y019197D01*
X004601Y019152D01*
X004610Y019106D01*
X004616Y019059D01*
X004618Y019012D01*
X004616Y018965D01*
X004610Y018918D01*
X004601Y018872D01*
X004587Y018827D01*
X004570Y018783D01*
X004549Y018740D01*
X004525Y018700D01*
X004498Y018661D01*
X004467Y018625D01*
X004434Y018592D01*
X004398Y018561D01*
X004359Y018534D01*
X004319Y018510D01*
X004276Y018489D01*
X004232Y018472D01*
X004187Y018458D01*
X004141Y018449D01*
X004094Y018443D01*
X004047Y018441D01*
X004000Y018443D01*
X003953Y018449D01*
X003907Y018458D01*
X003862Y018472D01*
X003818Y018489D01*
X003775Y018510D01*
X003735Y018534D01*
X003696Y018561D01*
X003660Y018592D01*
X003627Y018625D01*
X003596Y018661D01*
X003569Y018700D01*
X003545Y018740D01*
X003524Y018783D01*
X003507Y018827D01*
X003493Y018872D01*
X003484Y018918D01*
X003478Y018965D01*
X003476Y019012D01*
X003211Y019439D02*
X002961Y019564D01*
X003211Y019689D01*
X003211Y019439D01*
X003211Y019452D02*
X003185Y019452D01*
X003211Y019491D02*
X003108Y019491D01*
X003031Y019529D02*
X003211Y019529D01*
X003211Y019568D02*
X002968Y019568D01*
X003045Y019606D02*
X003211Y019606D01*
X003211Y019645D02*
X003122Y019645D01*
X003199Y019683D02*
X003211Y019683D01*
X004652Y019800D02*
X004839Y019800D01*
X003476Y017634D02*
X003478Y017681D01*
X003484Y017728D01*
X003493Y017774D01*
X003507Y017819D01*
X003524Y017863D01*
X003545Y017906D01*
X003569Y017946D01*
X003596Y017985D01*
X003627Y018021D01*
X003660Y018054D01*
X003696Y018085D01*
X003735Y018112D01*
X003775Y018136D01*
X003818Y018157D01*
X003862Y018174D01*
X003907Y018188D01*
X003953Y018197D01*
X004000Y018203D01*
X004047Y018205D01*
X004094Y018203D01*
X004141Y018197D01*
X004187Y018188D01*
X004232Y018174D01*
X004276Y018157D01*
X004319Y018136D01*
X004359Y018112D01*
X004398Y018085D01*
X004434Y018054D01*
X004467Y018021D01*
X004498Y017985D01*
X004525Y017946D01*
X004549Y017906D01*
X004570Y017863D01*
X004587Y017819D01*
X004601Y017774D01*
X004610Y017728D01*
X004616Y017681D01*
X004618Y017634D01*
X004616Y017587D01*
X004610Y017540D01*
X004601Y017494D01*
X004587Y017449D01*
X004570Y017405D01*
X004549Y017362D01*
X004525Y017322D01*
X004498Y017283D01*
X004467Y017247D01*
X004434Y017214D01*
X004398Y017183D01*
X004359Y017156D01*
X004319Y017132D01*
X004276Y017111D01*
X004232Y017094D01*
X004187Y017080D01*
X004141Y017071D01*
X004094Y017065D01*
X004047Y017063D01*
X004000Y017065D01*
X003953Y017071D01*
X003907Y017080D01*
X003862Y017094D01*
X003818Y017111D01*
X003775Y017132D01*
X003735Y017156D01*
X003696Y017183D01*
X003660Y017214D01*
X003627Y017247D01*
X003596Y017283D01*
X003569Y017322D01*
X003545Y017362D01*
X003524Y017405D01*
X003507Y017449D01*
X003493Y017494D01*
X003484Y017540D01*
X003478Y017587D01*
X003476Y017634D01*
X004324Y017162D02*
X004327Y017159D01*
X014996Y016394D02*
X015073Y016318D01*
X015150Y016318D01*
X015227Y016394D01*
X015227Y016778D01*
X015303Y016778D02*
X015150Y016778D01*
X015457Y016548D02*
X015764Y016548D01*
X015687Y016318D02*
X015687Y016778D01*
X015457Y016548D01*
X021296Y016394D02*
X021372Y016318D01*
X021449Y016318D01*
X021526Y016394D01*
X021526Y016778D01*
X021449Y016778D02*
X021603Y016778D01*
X021756Y016778D02*
X021756Y016548D01*
X021910Y016625D01*
X021986Y016625D01*
X022063Y016548D01*
X022063Y016394D01*
X021986Y016318D01*
X021833Y016318D01*
X021756Y016394D01*
X021756Y016778D02*
X022063Y016778D01*
D17*
X016015Y002664D02*
X012866Y002664D01*
X012866Y000892D01*
X016015Y000892D01*
X016015Y002664D01*
D18*
X019036Y001784D02*
X019326Y001784D01*
X019326Y001880D02*
X019326Y001687D01*
X019326Y001586D02*
X019036Y001586D01*
X019133Y001687D02*
X019036Y001784D01*
X019326Y001586D02*
X019230Y001489D01*
X019326Y001392D01*
X019036Y001392D01*
X019084Y001291D02*
X019036Y001243D01*
X019036Y001146D01*
X019084Y001098D01*
X019133Y001098D01*
X019181Y001146D01*
X019181Y001243D01*
X019230Y001291D01*
X019278Y001291D01*
X019326Y001243D01*
X019326Y001146D01*
X019278Y001098D01*
X019278Y002782D02*
X019278Y003072D01*
X019424Y003072D01*
X019472Y003023D01*
X019472Y002927D01*
X019424Y002878D01*
X019278Y002878D01*
X019375Y002878D02*
X019472Y002782D01*
X019573Y002830D02*
X019621Y002782D01*
X019718Y002782D01*
X019767Y002878D02*
X019573Y002878D01*
X019573Y002830D02*
X019573Y002927D01*
X019621Y002975D01*
X019718Y002975D01*
X019767Y002927D01*
X019767Y002878D01*
X019868Y002927D02*
X019916Y002975D01*
X020061Y002975D01*
X020013Y002878D02*
X019916Y002878D01*
X019868Y002927D01*
X019868Y002782D02*
X020013Y002782D01*
X020061Y002830D01*
X020013Y002878D01*
X020162Y002878D02*
X020356Y002878D01*
X020356Y002927D01*
X020307Y002975D01*
X020211Y002975D01*
X020162Y002927D01*
X020162Y002830D01*
X020211Y002782D01*
X020307Y002782D01*
X020505Y002830D02*
X020554Y002782D01*
X020505Y002830D02*
X020505Y003023D01*
X020457Y002975D02*
X020554Y002975D01*
X019303Y003780D02*
X019303Y003877D01*
X019254Y003925D01*
X019206Y003925D01*
X019158Y003877D01*
X019158Y003780D01*
X019109Y003732D01*
X019061Y003732D01*
X019012Y003780D01*
X019012Y003877D01*
X019061Y003925D01*
X019012Y004027D02*
X019303Y004027D01*
X019206Y004123D01*
X019303Y004220D01*
X019012Y004220D01*
X019061Y004321D02*
X019012Y004370D01*
X019012Y004466D01*
X019061Y004515D01*
X019109Y004515D01*
X019303Y004321D01*
X019303Y004515D01*
X019303Y003780D02*
X019254Y003732D01*
X020023Y005372D02*
X020071Y005372D01*
X020120Y005421D01*
X020120Y005662D01*
X019975Y005662D01*
X019926Y005614D01*
X019926Y005517D01*
X019975Y005469D01*
X020120Y005469D01*
X020221Y005469D02*
X020221Y005662D01*
X020221Y005566D02*
X020318Y005662D01*
X020366Y005662D01*
X020515Y005662D02*
X020612Y005662D01*
X020660Y005614D01*
X020660Y005469D01*
X020515Y005469D01*
X020466Y005517D01*
X020515Y005566D01*
X020660Y005566D01*
X020761Y005662D02*
X020761Y005469D01*
X020858Y005469D02*
X020858Y005614D01*
X020906Y005662D01*
X020955Y005614D01*
X020955Y005469D01*
X020858Y005614D02*
X020809Y005662D01*
X020761Y005662D01*
X019825Y005614D02*
X019825Y005517D01*
X019777Y005469D01*
X019680Y005469D01*
X019632Y005517D01*
X019632Y005614D01*
X019680Y005662D01*
X019777Y005662D01*
X019825Y005614D01*
X019531Y005662D02*
X019483Y005662D01*
X019386Y005566D01*
X019386Y005662D02*
X019386Y005469D01*
X019285Y005614D02*
X019237Y005566D01*
X019091Y005566D01*
X019091Y005469D02*
X019091Y005759D01*
X019237Y005759D01*
X019285Y005711D01*
X019285Y005614D01*
D19*
X019815Y006071D03*
X014808Y012269D03*
D20*
X017796Y011644D02*
X018046Y011394D01*
X018546Y011394D01*
X018796Y011644D01*
X019046Y011394D01*
X019546Y011394D01*
X019796Y011644D01*
X020046Y011394D01*
X020546Y011394D01*
X020796Y011644D01*
X021046Y011394D01*
X021546Y011394D01*
X021796Y011644D01*
X021796Y013144D01*
X021546Y013394D01*
X021046Y013394D01*
X020796Y013144D01*
X020546Y013394D01*
X020046Y013394D01*
X019796Y013144D01*
X019546Y013394D01*
X019046Y013394D01*
X018796Y013144D01*
X018546Y013394D01*
X018046Y013394D01*
X017796Y013144D01*
X017796Y011644D01*
X011250Y002345D02*
X010750Y002345D01*
X010500Y002095D01*
X010250Y002345D01*
X009750Y002345D01*
X009500Y002095D01*
X009250Y002345D01*
X008750Y002345D01*
X008500Y002095D01*
X008250Y002345D01*
X007750Y002345D01*
X007500Y002095D01*
X007500Y000595D01*
X007750Y000345D01*
X008250Y000345D01*
X008500Y000595D01*
X008750Y000345D01*
X009250Y000345D01*
X009500Y000595D01*
X009750Y000345D01*
X010250Y000345D01*
X010500Y000595D01*
X010750Y000345D01*
X011250Y000345D01*
X011500Y000595D01*
X011500Y002095D01*
X011250Y002345D01*
M02*
