%
M48
M72
T01C0.0130
T02C0.0315
T03C0.0354
T04C0.0400
T05C0.0433
%
T01
X5267Y5774
X5267Y6758
X5267Y7743
X5267Y8727
X8417Y7349
X8663Y7054
X8417Y6660
X8712Y7743
X9834Y7644
X10208Y7782
X10563Y8215
X10208Y8924
X9834Y8628
X11055Y9494
X11389Y9120
X12374Y8766
X12728Y9494
X13496Y9494
X13752Y9120
X14913Y8195
X14539Y7939
X14913Y7132
X14126Y6758
X14913Y5872
X14539Y5577
X14913Y5183
X13811Y4416
X13555Y4790
X12728Y4416
X12374Y5144
X11626Y4790
X11606Y4416
X10435Y4494
X9992Y4494
X9834Y5282
X10208Y5577
X9834Y6424
X10563Y6758
X12403Y3313
X12108Y3018
X12698Y3018
X12994Y3313
X16980Y7398
X17984Y9160
X16242Y12073
X15657Y12269
X13781Y11827
X14224Y14681
X13240Y14681
X12256Y14681
X11271Y14681
X20631Y6071
X21852Y6561
X20238Y4952
X20238Y2289
T02
X20878Y7093
X18791Y7093
X18791Y9967
X20878Y9967
T03
X19578Y9219
X19578Y7841
T04
X19296Y11894
X20296Y11894
X20296Y12894
X19296Y12894
X18296Y12894
X18296Y11894
X21296Y11894
X21296Y12894
X11000Y1845
X10000Y1845
X10000Y845
X11000Y845
X9000Y845
X8000Y845
X8000Y1845
X9000Y1845
T05
X4047Y17634
X4047Y19012
M30
