G75*
G70*
%OFA0B0*%
%FSLAX24Y24*%
%IPPOS*%
%LPD*%
%AMOC8*
5,1,8,0,0,1.08239X$1,22.5*
%
%ADD10C,0.0472*%
%ADD11R,0.0433X0.0394*%
%ADD12R,0.0394X0.0433*%
%ADD13R,0.0787X0.0591*%
%ADD14R,0.0787X0.1496*%
%ADD15R,0.0600X0.0600*%
%ADD16C,0.0600*%
%ADD17C,0.0394*%
%ADD18C,0.0669*%
%ADD19C,0.0295*%
%ADD20C,0.0270*%
%ADD21C,0.0197*%
%ADD22C,0.0098*%
D10*
X018555Y007093D02*
X019027Y007093D01*
X020641Y007093D02*
X021114Y007093D01*
X021114Y009967D02*
X020641Y009967D01*
X019027Y009967D02*
X018555Y009967D01*
D11*
X014086Y008313D03*
X013417Y008313D03*
X013437Y007309D03*
X014106Y007309D03*
X011665Y006758D03*
X010996Y006758D03*
X011291Y005577D03*
X010622Y005577D03*
X010976Y008215D03*
X011645Y008215D03*
X011586Y009672D03*
X012256Y009672D03*
X010208Y009672D03*
X009539Y009672D03*
X019057Y001384D03*
X019726Y001384D03*
D12*
X019726Y002289D03*
X019057Y002289D03*
X019057Y004952D03*
X019726Y004952D03*
X019529Y006071D03*
X020198Y006071D03*
X015307Y007546D03*
X015307Y008215D03*
X015307Y008766D03*
X015307Y009435D03*
X012374Y008274D03*
X012374Y007605D03*
X012374Y006306D03*
X012374Y005636D03*
X013200Y005872D03*
X013200Y005203D03*
X014523Y012269D03*
X015192Y012269D03*
D13*
X016232Y009435D03*
X016232Y008530D03*
X016232Y007624D03*
D14*
X018712Y008530D03*
D15*
X018296Y011894D03*
X011000Y001845D03*
D16*
X010000Y001845D03*
X010000Y000845D03*
X011000Y000845D03*
X009000Y000845D03*
X008000Y000845D03*
X008000Y001845D03*
X009000Y001845D03*
X019296Y011894D03*
X020296Y011894D03*
X020296Y012894D03*
X019296Y012894D03*
X018296Y012894D03*
X021296Y012894D03*
X021296Y011894D03*
D17*
X010878Y004937D03*
X010189Y004937D03*
D18*
X004047Y017634D03*
X004047Y019012D03*
D19*
X004047Y017634D02*
X013584Y017634D01*
X017472Y013746D01*
X017472Y007890D01*
X016980Y007398D01*
X016232Y007624D02*
X016153Y007546D01*
X015307Y007546D01*
X014539Y007939D02*
X014539Y005577D01*
X014539Y001758D01*
X013626Y000845D01*
X011000Y000845D01*
X011626Y004790D02*
X013181Y004790D01*
X013555Y004790D01*
X013948Y004790D01*
X014539Y005380D01*
X014539Y005577D01*
X014539Y007939D02*
X014539Y008727D01*
X014342Y008924D01*
X014854Y009435D01*
X015307Y009435D01*
X016232Y009435D01*
X014342Y008924D02*
X014145Y009120D01*
X013752Y009120D01*
X012256Y009120D01*
X011389Y009120D01*
X010208Y009120D01*
X010208Y008924D01*
X010208Y009672D01*
X010208Y008924D02*
X010208Y007782D01*
X010208Y005577D01*
X012256Y009120D02*
X012256Y009672D01*
X019527Y006069D02*
X019529Y006071D01*
D20*
X020631Y006071D03*
X021852Y006561D03*
X020238Y004952D03*
X020238Y002289D03*
X014913Y005183D03*
X014539Y005577D03*
X014913Y005872D03*
X014126Y006758D03*
X014913Y007132D03*
X014539Y007939D03*
X014913Y008195D03*
X013752Y009120D03*
X013496Y009494D03*
X012728Y009494D03*
X012374Y008766D03*
X011389Y009120D03*
X011055Y009494D03*
X010208Y008924D03*
X009834Y008628D03*
X010563Y008215D03*
X010208Y007782D03*
X009834Y007644D03*
X008712Y007743D03*
X008417Y007349D03*
X008663Y007054D03*
X008417Y006660D03*
X009834Y006424D03*
X010563Y006758D03*
X010208Y005577D03*
X009834Y005282D03*
X009992Y004494D03*
X010435Y004494D03*
X011606Y004416D03*
X011626Y004790D03*
X012374Y005144D03*
X012728Y004416D03*
X013555Y004790D03*
X013811Y004416D03*
X012994Y003313D03*
X012698Y003018D03*
X012403Y003313D03*
X012108Y003018D03*
X016980Y007398D03*
X017984Y009160D03*
X016242Y012073D03*
X015657Y012269D03*
X013781Y011827D03*
X014224Y014681D03*
X013240Y014681D03*
X012256Y014681D03*
X011271Y014681D03*
X005267Y008727D03*
X005267Y007743D03*
X005267Y006758D03*
X005267Y005774D03*
D21*
X010208Y005577D02*
X010622Y005577D01*
X010563Y006758D02*
X010996Y006758D01*
X012374Y005636D02*
X012374Y005144D01*
X013200Y005203D02*
X013181Y004790D01*
X014539Y005577D02*
X015996Y005577D01*
X016621Y004952D01*
X019057Y004952D01*
X019057Y005587D01*
X019539Y006069D01*
X019527Y006069D01*
X019529Y006071D02*
X019531Y006073D01*
X019057Y004952D02*
X019057Y002289D01*
X014126Y006758D02*
X014106Y007309D01*
X014539Y007939D02*
X014539Y008313D01*
X014086Y008313D01*
X012374Y008274D02*
X012374Y008766D01*
X010976Y008215D02*
X010563Y008215D01*
X016232Y007624D02*
X016360Y007644D01*
X016734Y007644D01*
X016980Y007398D01*
X016232Y009435D02*
X016242Y009445D01*
X016242Y012073D01*
D22*
X000348Y019650D02*
X000348Y000363D01*
X021997Y000363D01*
X021997Y006361D01*
X021990Y006354D01*
X021901Y006317D01*
X021803Y006317D01*
X021714Y006354D01*
X021645Y006423D01*
X021608Y006513D01*
X021608Y006610D01*
X021645Y006700D01*
X021694Y006748D01*
X021694Y011784D01*
X021643Y011662D01*
X021528Y011547D01*
X021377Y011484D01*
X021214Y011484D01*
X021064Y011547D01*
X020949Y011662D01*
X020887Y011812D01*
X020887Y011975D01*
X020949Y012125D01*
X021064Y012241D01*
X021109Y012259D01*
X020482Y012259D01*
X020528Y012241D01*
X020643Y012125D01*
X020705Y011975D01*
X020705Y011812D01*
X020643Y011662D01*
X020528Y011547D01*
X020377Y011484D01*
X020214Y011484D01*
X020064Y011547D01*
X019949Y011662D01*
X019887Y011812D01*
X019887Y011975D01*
X019949Y012125D01*
X020064Y012241D01*
X020109Y012259D01*
X019706Y012259D01*
X019613Y012352D01*
X019451Y012515D01*
X019377Y012484D01*
X019214Y012484D01*
X019064Y012547D01*
X018949Y012662D01*
X018887Y012812D01*
X018887Y012975D01*
X018949Y013125D01*
X019064Y013241D01*
X019214Y013303D01*
X019377Y013303D01*
X019528Y013241D01*
X019643Y013125D01*
X019705Y012975D01*
X019705Y012812D01*
X019675Y012739D01*
X019837Y012576D01*
X019978Y012576D01*
X019953Y012601D01*
X019912Y012658D01*
X019880Y012721D01*
X019858Y012788D01*
X019849Y012844D01*
X020247Y012844D01*
X020247Y012943D01*
X020247Y013341D01*
X020191Y013332D01*
X020123Y013310D01*
X020060Y013278D01*
X020003Y013236D01*
X019953Y013186D01*
X019912Y013129D01*
X019880Y013066D01*
X019858Y012999D01*
X019849Y012943D01*
X020247Y012943D01*
X020345Y012943D01*
X020345Y013341D01*
X020401Y013332D01*
X020468Y013310D01*
X020531Y013278D01*
X020588Y013236D01*
X020638Y013186D01*
X020680Y013129D01*
X020712Y013066D01*
X020734Y012999D01*
X020743Y012943D01*
X020345Y012943D01*
X020345Y012844D01*
X020743Y012844D01*
X020734Y012788D01*
X020712Y012721D01*
X020680Y012658D01*
X020638Y012601D01*
X020614Y012576D01*
X020978Y012576D01*
X020953Y012601D01*
X020912Y012658D01*
X020880Y012721D01*
X020858Y012788D01*
X020849Y012844D01*
X021247Y012844D01*
X021247Y012943D01*
X021247Y013341D01*
X021191Y013332D01*
X021123Y013310D01*
X021060Y013278D01*
X021003Y013236D01*
X020953Y013186D01*
X020912Y013129D01*
X020880Y013066D01*
X020858Y012999D01*
X020849Y012943D01*
X021247Y012943D01*
X021345Y012943D01*
X021345Y013341D01*
X021401Y013332D01*
X021468Y013310D01*
X021531Y013278D01*
X021588Y013236D01*
X021638Y013186D01*
X021680Y013129D01*
X021712Y013066D01*
X021734Y012999D01*
X021743Y012943D01*
X021345Y012943D01*
X021345Y012844D01*
X021743Y012844D01*
X021734Y012788D01*
X021712Y012721D01*
X021680Y012658D01*
X021638Y012601D01*
X021614Y012576D01*
X021622Y012576D01*
X021918Y012281D01*
X021997Y012201D01*
X021997Y019650D01*
X000348Y019650D01*
X000348Y019646D02*
X021997Y019646D01*
X021997Y019549D02*
X000348Y019549D01*
X000348Y019452D02*
X003844Y019452D01*
X003861Y019461D02*
X003793Y019426D01*
X003732Y019381D01*
X003678Y019327D01*
X003633Y019266D01*
X003598Y019198D01*
X003575Y019126D01*
X003565Y019061D01*
X003998Y019061D01*
X003998Y018963D01*
X004096Y018963D01*
X004096Y018530D01*
X004160Y018540D01*
X004233Y018564D01*
X004300Y018598D01*
X004362Y018643D01*
X004416Y018697D01*
X004461Y018759D01*
X004495Y018826D01*
X004519Y018899D01*
X004529Y018963D01*
X004096Y018963D01*
X004096Y019061D01*
X004529Y019061D01*
X004519Y019126D01*
X004495Y019198D01*
X004461Y019266D01*
X004416Y019327D01*
X004362Y019381D01*
X004300Y019426D01*
X004233Y019461D01*
X004160Y019484D01*
X004096Y019494D01*
X004096Y019061D01*
X003998Y019061D01*
X003998Y019494D01*
X003934Y019484D01*
X003861Y019461D01*
X003998Y019452D02*
X004096Y019452D01*
X004096Y019355D02*
X003998Y019355D01*
X003998Y019258D02*
X004096Y019258D01*
X004096Y019161D02*
X003998Y019161D01*
X003998Y019064D02*
X004096Y019064D01*
X004096Y018967D02*
X021997Y018967D01*
X021997Y018870D02*
X004510Y018870D01*
X004468Y018773D02*
X021997Y018773D01*
X021997Y018677D02*
X004395Y018677D01*
X004264Y018580D02*
X021997Y018580D01*
X021997Y018483D02*
X000348Y018483D01*
X000348Y018580D02*
X003830Y018580D01*
X003861Y018564D02*
X003793Y018598D01*
X003732Y018643D01*
X003678Y018697D01*
X003633Y018759D01*
X003598Y018826D01*
X003575Y018899D01*
X003565Y018963D01*
X003998Y018963D01*
X003998Y018530D01*
X003934Y018540D01*
X003861Y018564D01*
X003998Y018580D02*
X004096Y018580D01*
X004096Y018677D02*
X003998Y018677D01*
X003998Y018773D02*
X004096Y018773D01*
X004096Y018870D02*
X003998Y018870D01*
X003998Y018967D02*
X000348Y018967D01*
X000348Y018870D02*
X003584Y018870D01*
X003625Y018773D02*
X000348Y018773D01*
X000348Y018677D02*
X003698Y018677D01*
X003565Y019064D02*
X000348Y019064D01*
X000348Y019161D02*
X003586Y019161D01*
X003629Y019258D02*
X000348Y019258D01*
X000348Y019355D02*
X003705Y019355D01*
X004250Y019452D02*
X021997Y019452D01*
X021997Y019355D02*
X004388Y019355D01*
X004465Y019258D02*
X021997Y019258D01*
X021997Y019161D02*
X004507Y019161D01*
X004528Y019064D02*
X021997Y019064D01*
X021997Y018386D02*
X000348Y018386D01*
X000348Y018289D02*
X021997Y018289D01*
X021997Y018192D02*
X000348Y018192D01*
X000348Y018095D02*
X021997Y018095D01*
X021997Y017998D02*
X004311Y017998D01*
X004298Y018011D02*
X004418Y017891D01*
X013635Y017891D01*
X013730Y017852D01*
X017618Y013964D01*
X017690Y013892D01*
X017729Y013798D01*
X017729Y007839D01*
X017690Y007745D01*
X017125Y007180D01*
X017031Y007141D01*
X016929Y007141D01*
X016834Y007180D01*
X016762Y007253D01*
X016735Y007319D01*
X016735Y007284D01*
X016671Y007220D01*
X015793Y007220D01*
X015729Y007284D01*
X015729Y007289D01*
X015613Y007289D01*
X015613Y007284D01*
X015549Y007220D01*
X015065Y007220D01*
X015001Y007284D01*
X015001Y007807D01*
X015053Y007859D01*
X015052Y007859D01*
X015018Y007879D01*
X014990Y007907D01*
X014971Y007941D01*
X014961Y007979D01*
X014961Y008166D01*
X015257Y008166D01*
X015257Y008264D01*
X014961Y008264D01*
X014961Y008451D01*
X014971Y008489D01*
X014972Y008491D01*
X014971Y008492D01*
X014961Y008530D01*
X014961Y008717D01*
X015257Y008717D01*
X015257Y008815D01*
X014961Y008815D01*
X014961Y009002D01*
X014971Y009040D01*
X014990Y009074D01*
X015018Y009102D01*
X015052Y009122D01*
X015053Y009122D01*
X015001Y009174D01*
X015001Y009179D01*
X014960Y009179D01*
X014705Y008924D01*
X014757Y008872D01*
X014796Y008778D01*
X014796Y005785D01*
X016082Y005785D01*
X016203Y005663D01*
X016203Y005663D01*
X016707Y005160D01*
X018751Y005160D01*
X018751Y005214D01*
X018815Y005278D01*
X018849Y005278D01*
X018849Y005673D01*
X019223Y006047D01*
X019223Y006333D01*
X019287Y006397D01*
X019771Y006397D01*
X019835Y006333D01*
X019835Y005809D01*
X019771Y005746D01*
X019509Y005746D01*
X019264Y005501D01*
X019264Y005278D01*
X019299Y005278D01*
X019363Y005214D01*
X019363Y004690D01*
X019299Y004626D01*
X019264Y004626D01*
X019264Y002615D01*
X019299Y002615D01*
X019363Y002551D01*
X019363Y002028D01*
X019299Y001964D01*
X018815Y001964D01*
X018751Y002028D01*
X018751Y002551D01*
X018815Y002615D01*
X018849Y002615D01*
X018849Y004626D01*
X018815Y004626D01*
X018751Y004690D01*
X018751Y004744D01*
X016535Y004744D01*
X016413Y004866D01*
X016413Y004866D01*
X015910Y005370D01*
X014796Y005370D01*
X014796Y001707D01*
X014757Y001613D01*
X013771Y000627D01*
X013677Y000588D01*
X011321Y000588D01*
X011231Y000498D01*
X011081Y000436D01*
X010918Y000436D01*
X010768Y000498D01*
X010653Y000613D01*
X010590Y000763D01*
X010590Y000926D01*
X010653Y001077D01*
X010768Y001192D01*
X010918Y001254D01*
X011081Y001254D01*
X011231Y001192D01*
X011321Y001102D01*
X013519Y001102D01*
X014282Y001865D01*
X014282Y004760D01*
X014166Y004644D01*
X014094Y004572D01*
X014000Y004533D01*
X011574Y004533D01*
X011480Y004572D01*
X011408Y004644D01*
X011369Y004739D01*
X011369Y004841D01*
X011408Y004935D01*
X011480Y005008D01*
X011574Y005047D01*
X012150Y005047D01*
X012129Y005096D01*
X012129Y005193D01*
X012166Y005281D01*
X012166Y005310D01*
X012132Y005310D01*
X012068Y005374D01*
X012068Y005898D01*
X012119Y005950D01*
X012119Y005950D01*
X012085Y005970D01*
X012057Y005997D01*
X012038Y006031D01*
X012028Y006069D01*
X012028Y006256D01*
X012324Y006256D01*
X012324Y006355D01*
X012028Y006355D01*
X012028Y006530D01*
X012021Y006504D01*
X012001Y006470D01*
X011973Y006442D01*
X011939Y006422D01*
X011901Y006412D01*
X011714Y006412D01*
X011714Y006709D01*
X011616Y006709D01*
X011616Y006412D01*
X011429Y006412D01*
X011391Y006422D01*
X011357Y006442D01*
X011329Y006470D01*
X011309Y006504D01*
X011309Y006504D01*
X011257Y006452D01*
X010734Y006452D01*
X010670Y006516D01*
X010670Y006538D01*
X010611Y006514D01*
X010514Y006514D01*
X010465Y006534D01*
X010465Y005883D01*
X010883Y005883D01*
X010935Y005831D01*
X010935Y005832D01*
X010955Y005866D01*
X010983Y005893D01*
X011017Y005913D01*
X011055Y005923D01*
X011242Y005923D01*
X011242Y005626D01*
X011340Y005626D01*
X011657Y005626D01*
X011657Y005794D01*
X011647Y005832D01*
X011627Y005866D01*
X011599Y005893D01*
X011565Y005913D01*
X011527Y005923D01*
X011340Y005923D01*
X011340Y005626D01*
X011340Y005528D01*
X011340Y005231D01*
X011527Y005231D01*
X011565Y005241D01*
X011599Y005261D01*
X011627Y005289D01*
X011647Y005323D01*
X011657Y005361D01*
X011657Y005528D01*
X011340Y005528D01*
X011242Y005528D01*
X011242Y005231D01*
X011055Y005231D01*
X011017Y005241D01*
X010983Y005261D01*
X010955Y005289D01*
X010935Y005323D01*
X010935Y005323D01*
X010883Y005271D01*
X010360Y005271D01*
X010296Y005335D01*
X010296Y005335D01*
X010259Y005320D01*
X010157Y005320D01*
X010063Y005359D01*
X009991Y005432D01*
X009951Y005526D01*
X009951Y009366D01*
X009946Y009366D01*
X009895Y009417D01*
X009895Y009417D01*
X009875Y009383D01*
X009847Y009355D01*
X009813Y009336D01*
X009775Y009326D01*
X009588Y009326D01*
X009588Y009622D01*
X009490Y009622D01*
X009490Y009326D01*
X009303Y009326D01*
X009265Y009336D01*
X009231Y009355D01*
X009203Y009383D01*
X009183Y009417D01*
X009173Y009455D01*
X009173Y009622D01*
X009490Y009622D01*
X009490Y009721D01*
X009490Y010018D01*
X009303Y010018D01*
X009265Y010008D01*
X009231Y009988D01*
X009203Y009960D01*
X009183Y009926D01*
X009173Y009888D01*
X009173Y009721D01*
X009490Y009721D01*
X009588Y009721D01*
X009588Y010018D01*
X009775Y010018D01*
X009813Y010008D01*
X009847Y009988D01*
X009875Y009960D01*
X009895Y009926D01*
X009895Y009926D01*
X009946Y009978D01*
X010470Y009978D01*
X010534Y009914D01*
X010534Y009430D01*
X010482Y009377D01*
X011256Y009377D01*
X011250Y009383D01*
X011231Y009417D01*
X011220Y009455D01*
X011220Y009622D01*
X011537Y009622D01*
X011537Y009721D01*
X011537Y010018D01*
X011350Y010018D01*
X011312Y010008D01*
X011278Y009988D01*
X011250Y009960D01*
X011231Y009926D01*
X011220Y009888D01*
X011220Y009721D01*
X011537Y009721D01*
X011635Y009721D01*
X011635Y010018D01*
X011822Y010018D01*
X011860Y010008D01*
X011894Y009988D01*
X011922Y009960D01*
X011942Y009926D01*
X011942Y009926D01*
X011994Y009978D01*
X012517Y009978D01*
X012581Y009914D01*
X012581Y009430D01*
X012529Y009377D01*
X014196Y009377D01*
X014291Y009338D01*
X014342Y009287D01*
X014708Y009653D01*
X014803Y009692D01*
X015001Y009692D01*
X015001Y009697D01*
X015065Y009761D01*
X015549Y009761D01*
X015613Y009697D01*
X015613Y009692D01*
X015729Y009692D01*
X015729Y009776D01*
X015793Y009840D01*
X016034Y009840D01*
X016034Y011936D01*
X015998Y012025D01*
X015998Y012122D01*
X016035Y012212D01*
X016103Y012280D01*
X016193Y012317D01*
X016290Y012317D01*
X016380Y012280D01*
X016449Y012212D01*
X016486Y012122D01*
X016486Y012025D01*
X016449Y011936D01*
X016449Y009840D01*
X016671Y009840D01*
X016735Y009776D01*
X016735Y009095D01*
X016671Y009031D01*
X015793Y009031D01*
X015729Y009095D01*
X015729Y009179D01*
X015613Y009179D01*
X015613Y009174D01*
X015561Y009122D01*
X015561Y009122D01*
X015595Y009102D01*
X015623Y009074D01*
X015643Y009040D01*
X015653Y009002D01*
X015653Y008815D01*
X015356Y008815D01*
X015356Y008717D01*
X015653Y008717D01*
X015653Y008530D01*
X015643Y008492D01*
X015642Y008491D01*
X015643Y008489D01*
X015653Y008451D01*
X015653Y008264D01*
X015356Y008264D01*
X015356Y008166D01*
X015653Y008166D01*
X015653Y007979D01*
X015643Y007941D01*
X015623Y007907D01*
X015595Y007879D01*
X015561Y007859D01*
X015561Y007859D01*
X015613Y007807D01*
X015613Y007803D01*
X015729Y007803D01*
X015729Y007965D01*
X015793Y008029D01*
X016671Y008029D01*
X016735Y007965D01*
X016735Y007852D01*
X016820Y007852D01*
X016941Y007730D01*
X016945Y007726D01*
X017215Y007997D01*
X017215Y013640D01*
X013478Y017377D01*
X004418Y017377D01*
X004298Y017258D01*
X004135Y017190D01*
X003959Y017190D01*
X003795Y017258D01*
X003671Y017383D01*
X003603Y017546D01*
X003603Y017723D01*
X003671Y017886D01*
X003795Y018011D01*
X003959Y018078D01*
X004135Y018078D01*
X004298Y018011D01*
X004408Y017901D02*
X021997Y017901D01*
X021997Y017804D02*
X013778Y017804D01*
X013874Y017707D02*
X021997Y017707D01*
X021997Y017610D02*
X013971Y017610D01*
X014068Y017513D02*
X021997Y017513D01*
X021997Y017417D02*
X014165Y017417D01*
X014262Y017320D02*
X021997Y017320D01*
X021997Y017223D02*
X014359Y017223D01*
X014456Y017126D02*
X021997Y017126D01*
X021997Y017029D02*
X014553Y017029D01*
X014650Y016932D02*
X021997Y016932D01*
X021997Y016835D02*
X014747Y016835D01*
X014844Y016738D02*
X021997Y016738D01*
X021997Y016641D02*
X014941Y016641D01*
X015038Y016544D02*
X021997Y016544D01*
X021997Y016447D02*
X015134Y016447D01*
X015231Y016350D02*
X021997Y016350D01*
X021997Y016253D02*
X015328Y016253D01*
X015425Y016156D02*
X021997Y016156D01*
X021997Y016060D02*
X015522Y016060D01*
X015619Y015963D02*
X021997Y015963D01*
X021997Y015866D02*
X015716Y015866D01*
X015813Y015769D02*
X021997Y015769D01*
X021997Y015672D02*
X015910Y015672D01*
X016007Y015575D02*
X021997Y015575D01*
X021997Y015478D02*
X016104Y015478D01*
X016201Y015381D02*
X021997Y015381D01*
X021997Y015284D02*
X016298Y015284D01*
X016395Y015187D02*
X021997Y015187D01*
X021997Y015090D02*
X016491Y015090D01*
X016588Y014993D02*
X021997Y014993D01*
X021997Y014896D02*
X016685Y014896D01*
X016782Y014800D02*
X021997Y014800D01*
X021997Y014703D02*
X016879Y014703D01*
X016976Y014606D02*
X021997Y014606D01*
X021997Y014509D02*
X017073Y014509D01*
X017170Y014412D02*
X021997Y014412D01*
X021997Y014315D02*
X017267Y014315D01*
X017364Y014218D02*
X021997Y014218D01*
X021997Y014121D02*
X017461Y014121D01*
X017558Y014024D02*
X021997Y014024D01*
X021997Y013927D02*
X017655Y013927D01*
X017715Y013830D02*
X021997Y013830D01*
X021997Y013733D02*
X017729Y013733D01*
X017729Y013636D02*
X021997Y013636D01*
X021997Y013539D02*
X017729Y013539D01*
X017729Y013443D02*
X021997Y013443D01*
X021997Y013346D02*
X017729Y013346D01*
X017729Y013249D02*
X018084Y013249D01*
X018064Y013241D02*
X018214Y013303D01*
X018377Y013303D01*
X018528Y013241D01*
X018643Y013125D01*
X018705Y012975D01*
X018705Y012812D01*
X018643Y012662D01*
X018528Y012547D01*
X018377Y012484D01*
X018214Y012484D01*
X018064Y012547D01*
X017949Y012662D01*
X017887Y012812D01*
X017887Y012975D01*
X017949Y013125D01*
X018064Y013241D01*
X017975Y013152D02*
X017729Y013152D01*
X017729Y013055D02*
X017920Y013055D01*
X017887Y012958D02*
X017729Y012958D01*
X017729Y012861D02*
X017887Y012861D01*
X017907Y012764D02*
X017729Y012764D01*
X017729Y012667D02*
X017947Y012667D01*
X018040Y012570D02*
X017729Y012570D01*
X017729Y012473D02*
X019492Y012473D01*
X019589Y012376D02*
X017729Y012376D01*
X017729Y012279D02*
X017927Y012279D01*
X017951Y012303D02*
X017887Y012239D01*
X017887Y011548D01*
X017951Y011484D01*
X018641Y011484D01*
X018705Y011548D01*
X018705Y012239D01*
X018641Y012303D01*
X017951Y012303D01*
X017887Y012183D02*
X017729Y012183D01*
X017729Y012086D02*
X017887Y012086D01*
X017887Y011989D02*
X017729Y011989D01*
X017729Y011892D02*
X017887Y011892D01*
X017887Y011795D02*
X017729Y011795D01*
X017729Y011698D02*
X017887Y011698D01*
X017887Y011601D02*
X017729Y011601D01*
X017729Y011504D02*
X017931Y011504D01*
X017729Y011407D02*
X021694Y011407D01*
X021694Y011310D02*
X017729Y011310D01*
X017729Y011213D02*
X021694Y011213D01*
X021694Y011116D02*
X017729Y011116D01*
X017729Y011019D02*
X021694Y011019D01*
X021694Y010923D02*
X017729Y010923D01*
X017729Y010826D02*
X021694Y010826D01*
X021694Y010729D02*
X017729Y010729D01*
X017729Y010632D02*
X021694Y010632D01*
X021694Y010535D02*
X017729Y010535D01*
X017729Y010438D02*
X021694Y010438D01*
X021694Y010341D02*
X017729Y010341D01*
X017729Y010244D02*
X018343Y010244D01*
X018359Y010260D02*
X018262Y010163D01*
X018209Y010036D01*
X018209Y009898D01*
X018262Y009771D01*
X018359Y009674D01*
X018486Y009621D01*
X019096Y009621D01*
X019223Y009674D01*
X019320Y009771D01*
X019373Y009898D01*
X019373Y010036D01*
X019320Y010163D01*
X019223Y010260D01*
X019096Y010312D01*
X018486Y010312D01*
X018359Y010260D01*
X018255Y010147D02*
X017729Y010147D01*
X017729Y010050D02*
X018215Y010050D01*
X018209Y009953D02*
X017729Y009953D01*
X017729Y009856D02*
X018227Y009856D01*
X018274Y009759D02*
X017729Y009759D01*
X017729Y009662D02*
X018387Y009662D01*
X018299Y009427D02*
X018261Y009417D01*
X018227Y009397D01*
X018199Y009370D01*
X018179Y009336D01*
X018169Y009298D01*
X018169Y008579D01*
X018663Y008579D01*
X018663Y008481D01*
X018169Y008481D01*
X018169Y007762D01*
X018179Y007724D01*
X018199Y007690D01*
X018227Y007662D01*
X018261Y007643D01*
X018299Y007633D01*
X018663Y007633D01*
X018663Y008481D01*
X018761Y008481D01*
X018761Y007633D01*
X019126Y007633D01*
X019163Y007643D01*
X019198Y007662D01*
X019225Y007690D01*
X019230Y007698D01*
X019259Y007628D01*
X019365Y007522D01*
X019503Y007465D01*
X019653Y007465D01*
X019792Y007522D01*
X019897Y007628D01*
X019955Y007766D01*
X019955Y007916D01*
X019897Y008054D01*
X019792Y008160D01*
X019653Y008217D01*
X019503Y008217D01*
X019365Y008160D01*
X019259Y008054D01*
X019255Y008044D01*
X019255Y008481D01*
X018761Y008481D01*
X018761Y008579D01*
X018663Y008579D01*
X018663Y009427D01*
X018299Y009427D01*
X018201Y009372D02*
X017729Y009372D01*
X017729Y009469D02*
X019296Y009469D01*
X019259Y009432D02*
X019230Y009361D01*
X019225Y009370D01*
X019198Y009397D01*
X019163Y009417D01*
X019126Y009427D01*
X018761Y009427D01*
X018761Y008579D01*
X019255Y008579D01*
X019255Y009016D01*
X019259Y009006D01*
X019365Y008900D01*
X019503Y008843D01*
X019653Y008843D01*
X019792Y008900D01*
X019897Y009006D01*
X019955Y009144D01*
X019955Y009294D01*
X019897Y009432D01*
X019792Y009538D01*
X019653Y009595D01*
X019503Y009595D01*
X019365Y009538D01*
X019259Y009432D01*
X019234Y009372D02*
X019223Y009372D01*
X019432Y009566D02*
X017729Y009566D01*
X017729Y009275D02*
X018169Y009275D01*
X018169Y009178D02*
X017729Y009178D01*
X017729Y009081D02*
X018169Y009081D01*
X018169Y008984D02*
X017729Y008984D01*
X017729Y008887D02*
X018169Y008887D01*
X018169Y008790D02*
X017729Y008790D01*
X017729Y008693D02*
X018169Y008693D01*
X018169Y008596D02*
X017729Y008596D01*
X017729Y008499D02*
X018663Y008499D01*
X018663Y008402D02*
X018761Y008402D01*
X018761Y008306D02*
X018663Y008306D01*
X018663Y008209D02*
X018761Y008209D01*
X018761Y008112D02*
X018663Y008112D01*
X018663Y008015D02*
X018761Y008015D01*
X018761Y007918D02*
X018663Y007918D01*
X018663Y007821D02*
X018761Y007821D01*
X018761Y007724D02*
X018663Y007724D01*
X018486Y007438D02*
X018359Y007386D01*
X018262Y007289D01*
X018209Y007162D01*
X018209Y007024D01*
X018262Y006897D01*
X018359Y006800D01*
X018486Y006747D01*
X019096Y006747D01*
X019223Y006800D01*
X019320Y006897D01*
X019373Y007024D01*
X019373Y007162D01*
X019320Y007289D01*
X019223Y007386D01*
X019096Y007438D01*
X018486Y007438D01*
X018474Y007433D02*
X017378Y007433D01*
X017281Y007336D02*
X018310Y007336D01*
X018241Y007239D02*
X017184Y007239D01*
X017034Y007142D02*
X018209Y007142D01*
X018209Y007045D02*
X014796Y007045D01*
X014796Y006949D02*
X018241Y006949D01*
X018307Y006852D02*
X014796Y006852D01*
X014796Y006755D02*
X018469Y006755D01*
X019113Y006755D02*
X020555Y006755D01*
X020573Y006747D02*
X020446Y006800D01*
X020348Y006897D01*
X020296Y007024D01*
X020296Y007162D01*
X020348Y007289D01*
X020446Y007386D01*
X020573Y007438D01*
X021182Y007438D01*
X021309Y007386D01*
X021407Y007289D01*
X021459Y007162D01*
X021459Y007024D01*
X021407Y006897D01*
X021309Y006800D01*
X021182Y006747D01*
X020573Y006747D01*
X020394Y006852D02*
X019274Y006852D01*
X019341Y006949D02*
X020327Y006949D01*
X020296Y007045D02*
X019373Y007045D01*
X019373Y007142D02*
X020296Y007142D01*
X020328Y007239D02*
X019340Y007239D01*
X019272Y007336D02*
X020396Y007336D01*
X020560Y007433D02*
X019108Y007433D01*
X019260Y007627D02*
X017572Y007627D01*
X017475Y007530D02*
X019357Y007530D01*
X019800Y007530D02*
X021694Y007530D01*
X021694Y007433D02*
X021195Y007433D01*
X021359Y007336D02*
X021694Y007336D01*
X021694Y007239D02*
X021427Y007239D01*
X021459Y007142D02*
X021694Y007142D01*
X021694Y007045D02*
X021459Y007045D01*
X021428Y006949D02*
X021694Y006949D01*
X021694Y006852D02*
X021361Y006852D01*
X021200Y006755D02*
X021694Y006755D01*
X021628Y006658D02*
X014796Y006658D01*
X014796Y006561D02*
X021608Y006561D01*
X021628Y006464D02*
X014796Y006464D01*
X014796Y006367D02*
X019257Y006367D01*
X019223Y006270D02*
X014796Y006270D01*
X014796Y006173D02*
X019223Y006173D01*
X019223Y006076D02*
X014796Y006076D01*
X014796Y005979D02*
X019155Y005979D01*
X019058Y005882D02*
X014796Y005882D01*
X014796Y005785D02*
X018961Y005785D01*
X018865Y005689D02*
X016178Y005689D01*
X016275Y005592D02*
X018849Y005592D01*
X018849Y005495D02*
X016372Y005495D01*
X016469Y005398D02*
X018849Y005398D01*
X018849Y005301D02*
X016566Y005301D01*
X016663Y005204D02*
X018751Y005204D01*
X018751Y004719D02*
X014796Y004719D01*
X014796Y004622D02*
X018849Y004622D01*
X018849Y004525D02*
X014796Y004525D01*
X014796Y004428D02*
X018849Y004428D01*
X018849Y004332D02*
X014796Y004332D01*
X014796Y004235D02*
X018849Y004235D01*
X018849Y004138D02*
X014796Y004138D01*
X014796Y004041D02*
X018849Y004041D01*
X018849Y003944D02*
X014796Y003944D01*
X014796Y003847D02*
X018849Y003847D01*
X018849Y003750D02*
X014796Y003750D01*
X014796Y003653D02*
X018849Y003653D01*
X018849Y003556D02*
X014796Y003556D01*
X014796Y003459D02*
X018849Y003459D01*
X018849Y003362D02*
X014796Y003362D01*
X014796Y003265D02*
X018849Y003265D01*
X018849Y003168D02*
X014796Y003168D01*
X014796Y003072D02*
X018849Y003072D01*
X018849Y002975D02*
X014796Y002975D01*
X014796Y002878D02*
X018849Y002878D01*
X018849Y002781D02*
X014796Y002781D01*
X014796Y002684D02*
X018849Y002684D01*
X018786Y002587D02*
X014796Y002587D01*
X014796Y002490D02*
X018751Y002490D01*
X018751Y002393D02*
X014796Y002393D01*
X014796Y002296D02*
X018751Y002296D01*
X018751Y002199D02*
X014796Y002199D01*
X014796Y002102D02*
X018751Y002102D01*
X018773Y002005D02*
X014796Y002005D01*
X014796Y001908D02*
X020079Y001908D01*
X020079Y001812D02*
X014796Y001812D01*
X014796Y001715D02*
X018773Y001715D01*
X018783Y001720D02*
X018749Y001701D01*
X018721Y001673D01*
X018701Y001639D01*
X018691Y001601D01*
X018691Y001433D01*
X019007Y001433D01*
X019007Y001335D01*
X018691Y001335D01*
X018691Y001168D01*
X018701Y001130D01*
X018721Y001096D01*
X018749Y001068D01*
X018783Y001048D01*
X018821Y001038D01*
X019007Y001038D01*
X019007Y001335D01*
X019106Y001335D01*
X019106Y001038D01*
X019293Y001038D01*
X019331Y001048D01*
X019365Y001068D01*
X019393Y001096D01*
X019412Y001130D01*
X019412Y001130D01*
X019464Y001078D01*
X019988Y001078D01*
X020052Y001142D01*
X020052Y001236D01*
X020097Y001236D01*
X020190Y001328D01*
X020396Y001535D01*
X020396Y002102D01*
X021997Y002102D01*
X021997Y002005D02*
X020396Y002005D01*
X020396Y001908D02*
X021997Y001908D01*
X021997Y001812D02*
X020396Y001812D01*
X020396Y001715D02*
X021997Y001715D01*
X021997Y001618D02*
X020396Y001618D01*
X020382Y001521D02*
X021997Y001521D01*
X021997Y001424D02*
X020285Y001424D01*
X020188Y001327D02*
X021997Y001327D01*
X021997Y001230D02*
X020052Y001230D01*
X020043Y001133D02*
X021997Y001133D01*
X021997Y001036D02*
X014180Y001036D01*
X014083Y000939D02*
X021997Y000939D01*
X021997Y000842D02*
X013986Y000842D01*
X013889Y000745D02*
X021997Y000745D01*
X021997Y000648D02*
X013792Y000648D01*
X013551Y001133D02*
X011290Y001133D01*
X011139Y001230D02*
X013647Y001230D01*
X013744Y001327D02*
X000348Y001327D01*
X000348Y001424D02*
X013841Y001424D01*
X013938Y001521D02*
X011409Y001521D01*
X011409Y001500D02*
X011409Y002121D01*
X012518Y002121D01*
X012611Y002214D01*
X013152Y002756D01*
X013152Y003126D01*
X013201Y003175D01*
X013238Y003265D01*
X013238Y003362D01*
X013201Y003452D01*
X013132Y003520D01*
X013042Y003558D01*
X012945Y003558D01*
X012855Y003520D01*
X012787Y003452D01*
X012749Y003362D01*
X012749Y003265D01*
X012751Y003261D01*
X012747Y003262D01*
X012650Y003262D01*
X012646Y003261D01*
X012647Y003265D01*
X012647Y003362D01*
X012610Y003452D01*
X012541Y003520D01*
X012452Y003558D01*
X012355Y003558D01*
X012265Y003520D01*
X012196Y003452D01*
X012159Y003362D01*
X012159Y003265D01*
X012161Y003261D01*
X012156Y003262D01*
X012059Y003262D01*
X011970Y003225D01*
X011921Y003177D01*
X008286Y003177D01*
X007148Y004314D01*
X007148Y007070D01*
X005512Y008707D01*
X005512Y008775D01*
X005474Y008865D01*
X005406Y008934D01*
X005316Y008971D01*
X005219Y008971D01*
X005129Y008934D01*
X005060Y008865D01*
X005023Y008775D01*
X005023Y008678D01*
X005060Y008588D01*
X005129Y008520D01*
X005219Y008483D01*
X005287Y008483D01*
X006831Y006939D01*
X006831Y004188D01*
X006804Y004216D01*
X006804Y006430D01*
X005512Y007722D01*
X005512Y007791D01*
X005474Y007881D01*
X005406Y007950D01*
X005316Y007987D01*
X005219Y007987D01*
X005129Y007950D01*
X005060Y007881D01*
X005023Y007791D01*
X005023Y007694D01*
X005060Y007604D01*
X005129Y007535D01*
X005219Y007498D01*
X005287Y007498D01*
X006487Y006299D01*
X006487Y004090D01*
X006459Y004117D01*
X006459Y005790D01*
X005512Y006738D01*
X005512Y006807D01*
X005474Y006897D01*
X005406Y006965D01*
X005316Y007002D01*
X005219Y007002D01*
X005129Y006965D01*
X005060Y006897D01*
X005023Y006807D01*
X005023Y006710D01*
X005060Y006620D01*
X005129Y006551D01*
X005219Y006514D01*
X005287Y006514D01*
X006142Y005659D01*
X006142Y003991D01*
X006115Y004019D01*
X006115Y005151D01*
X005512Y005754D01*
X005512Y005823D01*
X005474Y005912D01*
X005406Y005981D01*
X005316Y006018D01*
X005219Y006018D01*
X005129Y005981D01*
X005060Y005912D01*
X005023Y005823D01*
X005023Y005725D01*
X005060Y005636D01*
X005129Y005567D01*
X005219Y005530D01*
X005287Y005530D01*
X005798Y005019D01*
X005798Y003888D01*
X005891Y003795D01*
X007564Y002121D01*
X007698Y002121D01*
X007653Y002077D01*
X007590Y001926D01*
X007590Y001763D01*
X007653Y001613D01*
X007768Y001498D01*
X007918Y001436D01*
X008081Y001436D01*
X008231Y001498D01*
X008347Y001613D01*
X008409Y001763D01*
X008409Y001926D01*
X008347Y002077D01*
X008302Y002121D01*
X008698Y002121D01*
X008653Y002077D01*
X008590Y001926D01*
X008590Y001763D01*
X008653Y001613D01*
X008768Y001498D01*
X008918Y001436D01*
X009081Y001436D01*
X009231Y001498D01*
X009347Y001613D01*
X009409Y001763D01*
X009409Y001926D01*
X009347Y002077D01*
X009302Y002121D01*
X009698Y002121D01*
X009653Y002077D01*
X009590Y001926D01*
X009590Y001763D01*
X009653Y001613D01*
X009768Y001498D01*
X009918Y001436D01*
X010081Y001436D01*
X010231Y001498D01*
X010347Y001613D01*
X010409Y001763D01*
X010409Y001926D01*
X010347Y002077D01*
X010302Y002121D01*
X010590Y002121D01*
X010590Y001500D01*
X010654Y001436D01*
X011345Y001436D01*
X011409Y001500D01*
X011409Y001618D02*
X014035Y001618D01*
X014132Y001715D02*
X011409Y001715D01*
X011409Y001812D02*
X014229Y001812D01*
X014282Y001908D02*
X011409Y001908D01*
X011409Y002005D02*
X014282Y002005D01*
X014282Y002102D02*
X011409Y002102D01*
X010590Y002102D02*
X010321Y002102D01*
X010376Y002005D02*
X010590Y002005D01*
X010590Y001908D02*
X010409Y001908D01*
X010409Y001812D02*
X010590Y001812D01*
X010590Y001715D02*
X010389Y001715D01*
X010348Y001618D02*
X010590Y001618D01*
X010590Y001521D02*
X010254Y001521D01*
X010139Y001230D02*
X010860Y001230D01*
X010709Y001133D02*
X010290Y001133D01*
X010347Y001077D02*
X010231Y001192D01*
X010081Y001254D01*
X009918Y001254D01*
X009768Y001192D01*
X009653Y001077D01*
X009590Y000926D01*
X009590Y000763D01*
X009653Y000613D01*
X009768Y000498D01*
X009918Y000436D01*
X010081Y000436D01*
X010231Y000498D01*
X010347Y000613D01*
X010409Y000763D01*
X010409Y000926D01*
X010347Y001077D01*
X010363Y001036D02*
X010636Y001036D01*
X010596Y000939D02*
X010403Y000939D01*
X010409Y000842D02*
X010590Y000842D01*
X010598Y000745D02*
X010401Y000745D01*
X010361Y000648D02*
X010638Y000648D01*
X010714Y000551D02*
X010285Y000551D01*
X010127Y000455D02*
X010873Y000455D01*
X011127Y000455D02*
X021997Y000455D01*
X021997Y000551D02*
X011285Y000551D01*
X009873Y000455D02*
X009127Y000455D01*
X009081Y000436D02*
X009231Y000498D01*
X009347Y000613D01*
X009409Y000763D01*
X009409Y000926D01*
X009347Y001077D01*
X009231Y001192D01*
X009081Y001254D01*
X008918Y001254D01*
X008768Y001192D01*
X008653Y001077D01*
X008590Y000926D01*
X008590Y000763D01*
X008653Y000613D01*
X008768Y000498D01*
X008918Y000436D01*
X009081Y000436D01*
X008873Y000455D02*
X008223Y000455D01*
X008235Y000461D02*
X008292Y000502D01*
X008342Y000552D01*
X008384Y000609D01*
X008416Y000672D01*
X008438Y000740D01*
X008447Y000796D01*
X008049Y000796D01*
X008049Y000894D01*
X008447Y000894D01*
X008438Y000950D01*
X008416Y001017D01*
X008384Y001080D01*
X008342Y001138D01*
X008292Y001188D01*
X008235Y001229D01*
X008172Y001261D01*
X008105Y001283D01*
X008049Y001292D01*
X008049Y000894D01*
X007950Y000894D01*
X007950Y000796D01*
X007553Y000796D01*
X007561Y000740D01*
X007583Y000672D01*
X007615Y000609D01*
X007657Y000552D01*
X007707Y000502D01*
X007764Y000461D01*
X007827Y000429D01*
X007894Y000407D01*
X007950Y000398D01*
X007950Y000796D01*
X008049Y000796D01*
X008049Y000398D01*
X008105Y000407D01*
X008172Y000429D01*
X008235Y000461D01*
X008341Y000551D02*
X008714Y000551D01*
X008638Y000648D02*
X008404Y000648D01*
X008439Y000745D02*
X008598Y000745D01*
X008590Y000842D02*
X008049Y000842D01*
X008049Y000745D02*
X007950Y000745D01*
X007950Y000648D02*
X008049Y000648D01*
X008049Y000551D02*
X007950Y000551D01*
X007950Y000455D02*
X008049Y000455D01*
X007776Y000455D02*
X000348Y000455D01*
X000348Y000551D02*
X007658Y000551D01*
X007596Y000648D02*
X000348Y000648D01*
X000348Y000745D02*
X007561Y000745D01*
X007553Y000894D02*
X007950Y000894D01*
X007950Y001292D01*
X007894Y001283D01*
X007827Y001261D01*
X007764Y001229D01*
X007707Y001188D01*
X007657Y001138D01*
X007615Y001080D01*
X007583Y001017D01*
X007561Y000950D01*
X007553Y000894D01*
X007560Y000939D02*
X000348Y000939D01*
X000348Y000842D02*
X007950Y000842D01*
X007950Y000939D02*
X008049Y000939D01*
X008049Y001036D02*
X007950Y001036D01*
X007950Y001133D02*
X008049Y001133D01*
X008049Y001230D02*
X007950Y001230D01*
X007766Y001230D02*
X000348Y001230D01*
X000348Y001133D02*
X007654Y001133D01*
X007593Y001036D02*
X000348Y001036D01*
X000348Y001521D02*
X007745Y001521D01*
X007651Y001618D02*
X000348Y001618D01*
X000348Y001715D02*
X007611Y001715D01*
X007590Y001812D02*
X000348Y001812D01*
X000348Y001908D02*
X007590Y001908D01*
X007623Y002005D02*
X000348Y002005D01*
X000348Y002102D02*
X007678Y002102D01*
X007630Y002280D02*
X005956Y003953D01*
X005956Y005085D01*
X005267Y005774D01*
X005038Y005689D02*
X000348Y005689D01*
X000348Y005785D02*
X005023Y005785D01*
X005048Y005882D02*
X000348Y005882D01*
X000348Y005979D02*
X005127Y005979D01*
X005407Y005979D02*
X005822Y005979D01*
X005919Y005882D02*
X005487Y005882D01*
X005512Y005785D02*
X006016Y005785D01*
X006113Y005689D02*
X005577Y005689D01*
X005674Y005592D02*
X006142Y005592D01*
X006142Y005495D02*
X005771Y005495D01*
X005868Y005398D02*
X006142Y005398D01*
X006142Y005301D02*
X005965Y005301D01*
X006061Y005204D02*
X006142Y005204D01*
X006142Y005107D02*
X006115Y005107D01*
X006115Y005010D02*
X006142Y005010D01*
X006142Y004913D02*
X006115Y004913D01*
X006115Y004816D02*
X006142Y004816D01*
X006142Y004719D02*
X006115Y004719D01*
X006115Y004622D02*
X006142Y004622D01*
X006142Y004525D02*
X006115Y004525D01*
X006115Y004428D02*
X006142Y004428D01*
X006142Y004332D02*
X006115Y004332D01*
X006115Y004235D02*
X006142Y004235D01*
X006142Y004138D02*
X006115Y004138D01*
X006115Y004041D02*
X006142Y004041D01*
X006301Y004052D02*
X006301Y005725D01*
X005267Y006758D01*
X005023Y006755D02*
X000348Y006755D01*
X000348Y006852D02*
X005042Y006852D01*
X005112Y006949D02*
X000348Y006949D01*
X000348Y007045D02*
X005740Y007045D01*
X005837Y006949D02*
X005422Y006949D01*
X005493Y006852D02*
X005934Y006852D01*
X006031Y006755D02*
X005512Y006755D01*
X005592Y006658D02*
X006128Y006658D01*
X006225Y006561D02*
X005689Y006561D01*
X005786Y006464D02*
X006322Y006464D01*
X006419Y006367D02*
X005883Y006367D01*
X005980Y006270D02*
X006487Y006270D01*
X006487Y006173D02*
X006076Y006173D01*
X006173Y006076D02*
X006487Y006076D01*
X006487Y005979D02*
X006270Y005979D01*
X006367Y005882D02*
X006487Y005882D01*
X006487Y005785D02*
X006459Y005785D01*
X006459Y005689D02*
X006487Y005689D01*
X006487Y005592D02*
X006459Y005592D01*
X006459Y005495D02*
X006487Y005495D01*
X006487Y005398D02*
X006459Y005398D01*
X006459Y005301D02*
X006487Y005301D01*
X006487Y005204D02*
X006459Y005204D01*
X006459Y005107D02*
X006487Y005107D01*
X006487Y005010D02*
X006459Y005010D01*
X006459Y004913D02*
X006487Y004913D01*
X006487Y004816D02*
X006459Y004816D01*
X006459Y004719D02*
X006487Y004719D01*
X006487Y004622D02*
X006459Y004622D01*
X006459Y004525D02*
X006487Y004525D01*
X006487Y004428D02*
X006459Y004428D01*
X006459Y004332D02*
X006487Y004332D01*
X006487Y004235D02*
X006459Y004235D01*
X006459Y004138D02*
X006487Y004138D01*
X006645Y004150D02*
X006645Y006365D01*
X005267Y007743D01*
X005097Y007918D02*
X000348Y007918D01*
X000348Y008015D02*
X005755Y008015D01*
X005658Y008112D02*
X000348Y008112D01*
X000348Y008209D02*
X005561Y008209D01*
X005465Y008306D02*
X000348Y008306D01*
X000348Y008402D02*
X005368Y008402D01*
X005178Y008499D02*
X000348Y008499D01*
X000348Y008596D02*
X005057Y008596D01*
X005023Y008693D02*
X000348Y008693D01*
X000348Y008790D02*
X005029Y008790D01*
X005082Y008887D02*
X000348Y008887D01*
X000348Y008984D02*
X007668Y008984D01*
X007668Y009081D02*
X000348Y009081D01*
X000348Y009178D02*
X007668Y009178D01*
X007668Y009275D02*
X000348Y009275D01*
X000348Y009372D02*
X007668Y009372D01*
X007668Y009469D02*
X000348Y009469D01*
X000348Y009566D02*
X007668Y009566D01*
X007668Y009662D02*
X000348Y009662D01*
X000348Y009759D02*
X007668Y009759D01*
X007668Y009856D02*
X000348Y009856D01*
X000348Y009953D02*
X007668Y009953D01*
X007668Y010050D02*
X000348Y010050D01*
X000348Y010147D02*
X007668Y010147D01*
X007668Y010244D02*
X000348Y010244D01*
X000348Y010341D02*
X007668Y010341D01*
X007668Y010438D02*
X000348Y010438D01*
X000348Y010535D02*
X007668Y010535D01*
X007668Y010632D02*
X000348Y010632D01*
X000348Y010729D02*
X007668Y010729D01*
X007668Y010826D02*
X000348Y010826D01*
X000348Y010923D02*
X007668Y010923D01*
X007668Y011019D02*
X000348Y011019D01*
X000348Y011116D02*
X007668Y011116D01*
X007668Y011213D02*
X000348Y011213D01*
X000348Y011310D02*
X007676Y011310D01*
X007668Y011302D02*
X007668Y006988D01*
X007761Y006895D01*
X008062Y006594D01*
X008154Y006501D01*
X008230Y006501D01*
X008279Y006453D01*
X008368Y006416D01*
X008466Y006416D01*
X008555Y006453D01*
X008624Y006522D01*
X008661Y006611D01*
X008661Y006708D01*
X008625Y006797D01*
X008630Y006797D01*
X008643Y006809D01*
X008712Y006809D01*
X008801Y006847D01*
X008870Y006915D01*
X008907Y007005D01*
X008907Y007102D01*
X008870Y007192D01*
X008801Y007261D01*
X008712Y007298D01*
X008660Y007298D01*
X008661Y007300D01*
X008661Y007397D01*
X008624Y007487D01*
X008577Y007534D01*
X008664Y007498D01*
X008761Y007498D01*
X008851Y007535D01*
X008919Y007604D01*
X008956Y007694D01*
X008956Y007791D01*
X008919Y007881D01*
X008871Y007929D01*
X008871Y009744D01*
X010697Y011570D01*
X011337Y011570D01*
X011430Y011663D01*
X014204Y014437D01*
X014273Y014437D01*
X014362Y014474D01*
X014431Y014543D01*
X014468Y014633D01*
X014468Y014730D01*
X014431Y014820D01*
X014362Y014889D01*
X014273Y014926D01*
X014175Y014926D01*
X014086Y014889D01*
X014017Y014820D01*
X013980Y014730D01*
X013980Y014661D01*
X011206Y011887D01*
X010566Y011887D01*
X008575Y009897D01*
X008575Y010039D01*
X010796Y012259D01*
X011091Y012259D01*
X011184Y012352D01*
X013269Y014437D01*
X013288Y014437D01*
X013378Y014474D01*
X013447Y014543D01*
X013484Y014633D01*
X013484Y014730D01*
X013447Y014820D01*
X013378Y014889D01*
X013288Y014926D01*
X013191Y014926D01*
X013101Y014889D01*
X013033Y014820D01*
X012996Y014730D01*
X012996Y014633D01*
X013002Y014618D01*
X010960Y012576D01*
X010664Y012576D01*
X008351Y010263D01*
X008280Y010192D01*
X008280Y010482D01*
X012235Y014437D01*
X012304Y014437D01*
X012394Y014474D01*
X012463Y014543D01*
X012500Y014633D01*
X012500Y014730D01*
X012463Y014820D01*
X012394Y014889D01*
X012304Y014926D01*
X012207Y014926D01*
X012117Y014889D01*
X012048Y014820D01*
X012011Y014730D01*
X012011Y014661D01*
X008056Y010706D01*
X007985Y010635D01*
X007985Y011171D01*
X011251Y014437D01*
X011320Y014437D01*
X011410Y014474D01*
X011478Y014543D01*
X011515Y014633D01*
X011515Y014730D01*
X011478Y014820D01*
X011410Y014889D01*
X011320Y014926D01*
X011223Y014926D01*
X011133Y014889D01*
X011064Y014820D01*
X011027Y014730D01*
X011027Y014661D01*
X007761Y011395D01*
X007668Y011302D01*
X007773Y011407D02*
X000348Y011407D01*
X000348Y011504D02*
X007870Y011504D01*
X007967Y011601D02*
X000348Y011601D01*
X000348Y011698D02*
X008064Y011698D01*
X008161Y011795D02*
X000348Y011795D01*
X000348Y011892D02*
X008257Y011892D01*
X008354Y011989D02*
X000348Y011989D01*
X000348Y012086D02*
X008451Y012086D01*
X008548Y012183D02*
X000348Y012183D01*
X000348Y012279D02*
X008645Y012279D01*
X008742Y012376D02*
X000348Y012376D01*
X000348Y012473D02*
X008839Y012473D01*
X008936Y012570D02*
X000348Y012570D01*
X000348Y012667D02*
X009033Y012667D01*
X009130Y012764D02*
X000348Y012764D01*
X000348Y012861D02*
X009227Y012861D01*
X009324Y012958D02*
X000348Y012958D01*
X000348Y013055D02*
X009421Y013055D01*
X009518Y013152D02*
X000348Y013152D01*
X000348Y013249D02*
X009614Y013249D01*
X009711Y013346D02*
X000348Y013346D01*
X000348Y013443D02*
X009808Y013443D01*
X009905Y013539D02*
X000348Y013539D01*
X000348Y013636D02*
X010002Y013636D01*
X010099Y013733D02*
X000348Y013733D01*
X000348Y013830D02*
X010196Y013830D01*
X010293Y013927D02*
X000348Y013927D01*
X000348Y014024D02*
X010390Y014024D01*
X010487Y014121D02*
X000348Y014121D01*
X000348Y014218D02*
X010584Y014218D01*
X010681Y014315D02*
X000348Y014315D01*
X000348Y014412D02*
X010778Y014412D01*
X010874Y014509D02*
X000348Y014509D01*
X000348Y014606D02*
X010971Y014606D01*
X011027Y014703D02*
X000348Y014703D01*
X000348Y014800D02*
X011056Y014800D01*
X011152Y014896D02*
X000348Y014896D01*
X000348Y014993D02*
X015862Y014993D01*
X015959Y014896D02*
X014343Y014896D01*
X014439Y014800D02*
X016056Y014800D01*
X016153Y014703D02*
X014468Y014703D01*
X014457Y014606D02*
X016250Y014606D01*
X016347Y014509D02*
X014397Y014509D01*
X014178Y014412D02*
X016443Y014412D01*
X016540Y014315D02*
X014081Y014315D01*
X013985Y014218D02*
X016637Y014218D01*
X016734Y014121D02*
X013888Y014121D01*
X013791Y014024D02*
X016831Y014024D01*
X016928Y013927D02*
X013694Y013927D01*
X013597Y013830D02*
X017025Y013830D01*
X017122Y013733D02*
X013500Y013733D01*
X013403Y013636D02*
X017215Y013636D01*
X017215Y013539D02*
X013306Y013539D01*
X013209Y013443D02*
X017215Y013443D01*
X017215Y013346D02*
X013112Y013346D01*
X013015Y013249D02*
X017215Y013249D01*
X017215Y013152D02*
X012918Y013152D01*
X012821Y013055D02*
X017215Y013055D01*
X017215Y012958D02*
X012725Y012958D01*
X012628Y012861D02*
X017215Y012861D01*
X017215Y012764D02*
X012531Y012764D01*
X012434Y012667D02*
X017215Y012667D01*
X017215Y012570D02*
X015459Y012570D01*
X015434Y012595D02*
X014950Y012595D01*
X014886Y012531D01*
X014886Y012008D01*
X014950Y011944D01*
X015434Y011944D01*
X015498Y012008D01*
X015498Y012083D01*
X015519Y012062D01*
X015609Y012025D01*
X015706Y012025D01*
X015796Y012062D01*
X015865Y012131D01*
X015902Y012221D01*
X015902Y012318D01*
X015865Y012408D01*
X015796Y012476D01*
X015706Y012514D01*
X015609Y012514D01*
X015519Y012476D01*
X015498Y012455D01*
X015498Y012531D01*
X015434Y012595D01*
X015498Y012473D02*
X015516Y012473D01*
X015657Y012269D02*
X015192Y012269D01*
X014925Y012570D02*
X014790Y012570D01*
X014765Y012595D02*
X014281Y012595D01*
X014217Y012531D01*
X014217Y012429D01*
X014163Y012429D01*
X014117Y012383D01*
X013803Y012071D01*
X013733Y012071D01*
X013643Y012034D01*
X013574Y011965D01*
X013537Y011876D01*
X013537Y011779D01*
X013574Y011689D01*
X013643Y011620D01*
X013733Y011583D01*
X013830Y011583D01*
X013919Y011620D01*
X013988Y011689D01*
X014025Y011779D01*
X014025Y011846D01*
X014217Y012036D01*
X014217Y012008D01*
X014281Y011944D01*
X014765Y011944D01*
X014829Y012008D01*
X014829Y012531D01*
X014765Y012595D01*
X014829Y012473D02*
X014886Y012473D01*
X014886Y012376D02*
X014829Y012376D01*
X014829Y012279D02*
X014886Y012279D01*
X014886Y012183D02*
X014829Y012183D01*
X014829Y012086D02*
X014886Y012086D01*
X014905Y011989D02*
X014810Y011989D01*
X014523Y012269D02*
X014228Y012270D01*
X013781Y011827D01*
X013689Y011601D02*
X011368Y011601D01*
X011464Y011698D02*
X013570Y011698D01*
X013537Y011795D02*
X011561Y011795D01*
X011658Y011892D02*
X013544Y011892D01*
X013597Y011989D02*
X011755Y011989D01*
X011852Y012086D02*
X013817Y012086D01*
X013915Y012183D02*
X011949Y012183D01*
X012046Y012279D02*
X014013Y012279D01*
X014111Y012376D02*
X012143Y012376D01*
X012240Y012473D02*
X014217Y012473D01*
X014163Y012429D02*
X014163Y012429D01*
X014163Y012429D01*
X014256Y012570D02*
X012337Y012570D01*
X012083Y012764D02*
X011596Y012764D01*
X011693Y012861D02*
X012179Y012861D01*
X012276Y012958D02*
X011789Y012958D01*
X011886Y013055D02*
X012373Y013055D01*
X012470Y013152D02*
X011983Y013152D01*
X012080Y013249D02*
X012567Y013249D01*
X012664Y013346D02*
X012177Y013346D01*
X012274Y013443D02*
X012761Y013443D01*
X012858Y013539D02*
X012371Y013539D01*
X012468Y013636D02*
X012955Y013636D01*
X013052Y013733D02*
X012565Y013733D01*
X012662Y013830D02*
X013149Y013830D01*
X013246Y013927D02*
X012759Y013927D01*
X012856Y014024D02*
X013343Y014024D01*
X013440Y014121D02*
X012953Y014121D01*
X013049Y014218D02*
X013536Y014218D01*
X013633Y014315D02*
X013146Y014315D01*
X013243Y014412D02*
X013730Y014412D01*
X013827Y014509D02*
X013412Y014509D01*
X013473Y014606D02*
X013924Y014606D01*
X013980Y014703D02*
X013484Y014703D01*
X013455Y014800D02*
X014009Y014800D01*
X014105Y014896D02*
X013359Y014896D01*
X013121Y014896D02*
X012375Y014896D01*
X012471Y014800D02*
X013024Y014800D01*
X012996Y014703D02*
X012500Y014703D01*
X012488Y014606D02*
X012989Y014606D01*
X012892Y014509D02*
X012428Y014509D01*
X012210Y014412D02*
X012795Y014412D01*
X012698Y014315D02*
X012113Y014315D01*
X012016Y014218D02*
X012601Y014218D01*
X012504Y014121D02*
X011919Y014121D01*
X011822Y014024D02*
X012408Y014024D01*
X012311Y013927D02*
X011725Y013927D01*
X011628Y013830D02*
X012214Y013830D01*
X012117Y013733D02*
X011531Y013733D01*
X011434Y013636D02*
X012020Y013636D01*
X011923Y013539D02*
X011338Y013539D01*
X011241Y013443D02*
X011826Y013443D01*
X011729Y013346D02*
X011144Y013346D01*
X011047Y013249D02*
X011632Y013249D01*
X011535Y013152D02*
X010950Y013152D01*
X010853Y013055D02*
X011438Y013055D01*
X011341Y012958D02*
X010756Y012958D01*
X010659Y012861D02*
X011244Y012861D01*
X011148Y012764D02*
X010562Y012764D01*
X010465Y012667D02*
X011051Y012667D01*
X011025Y012418D02*
X010730Y012418D01*
X008417Y010105D01*
X008417Y007447D01*
X008417Y007349D01*
X008646Y007433D02*
X009951Y007433D01*
X009951Y007336D02*
X008661Y007336D01*
X008823Y007239D02*
X009951Y007239D01*
X009951Y007142D02*
X008891Y007142D01*
X008907Y007045D02*
X009951Y007045D01*
X009951Y006949D02*
X008884Y006949D01*
X008806Y006852D02*
X009951Y006852D01*
X009951Y006755D02*
X008642Y006755D01*
X008661Y006658D02*
X009951Y006658D01*
X009951Y006561D02*
X008640Y006561D01*
X008566Y006464D02*
X009951Y006464D01*
X009951Y006367D02*
X007148Y006367D01*
X007148Y006270D02*
X009951Y006270D01*
X009951Y006173D02*
X007148Y006173D01*
X007148Y006076D02*
X009951Y006076D01*
X009951Y005979D02*
X007148Y005979D01*
X007148Y005882D02*
X009951Y005882D01*
X009951Y005785D02*
X007148Y005785D01*
X007148Y005689D02*
X009951Y005689D01*
X009951Y005592D02*
X007148Y005592D01*
X007148Y005495D02*
X009964Y005495D01*
X010024Y005398D02*
X007148Y005398D01*
X007148Y005301D02*
X010330Y005301D01*
X010345Y005204D02*
X010721Y005204D01*
X010704Y005197D02*
X010817Y005243D01*
X010938Y005243D01*
X011051Y005197D01*
X011137Y005111D01*
X011184Y004998D01*
X011184Y004877D01*
X011137Y004764D01*
X011051Y004678D01*
X010938Y004631D01*
X010817Y004631D01*
X010802Y004638D01*
X010679Y004515D01*
X010679Y004446D01*
X010642Y004356D01*
X010573Y004287D01*
X010483Y004250D01*
X010386Y004250D01*
X010296Y004287D01*
X010228Y004356D01*
X010213Y004391D01*
X010199Y004356D01*
X010130Y004287D01*
X010040Y004250D01*
X009943Y004250D01*
X009853Y004287D01*
X009785Y004356D01*
X009748Y004446D01*
X009748Y004543D01*
X009785Y004633D01*
X009833Y004681D01*
X009833Y004806D01*
X009889Y004862D01*
X009883Y004877D01*
X009883Y004998D01*
X009929Y005111D01*
X010015Y005197D01*
X010128Y005243D01*
X010249Y005243D01*
X010362Y005197D01*
X010448Y005111D01*
X010495Y004998D01*
X010495Y004877D01*
X010448Y004764D01*
X010423Y004739D01*
X010455Y004739D01*
X010578Y004862D01*
X010571Y004877D01*
X010571Y004998D01*
X010618Y005111D01*
X010704Y005197D01*
X010617Y005107D02*
X010450Y005107D01*
X010490Y005010D02*
X010576Y005010D01*
X010571Y004913D02*
X010495Y004913D01*
X010470Y004816D02*
X010532Y004816D01*
X010787Y004622D02*
X011430Y004622D01*
X011377Y004719D02*
X011092Y004719D01*
X011159Y004816D02*
X011369Y004816D01*
X011399Y004913D02*
X011184Y004913D01*
X011179Y005010D02*
X011486Y005010D01*
X011340Y005301D02*
X011242Y005301D01*
X011242Y005398D02*
X011340Y005398D01*
X011340Y005495D02*
X011242Y005495D01*
X011340Y005592D02*
X012068Y005592D01*
X012068Y005689D02*
X011657Y005689D01*
X011657Y005785D02*
X012068Y005785D01*
X012068Y005882D02*
X011610Y005882D01*
X011340Y005882D02*
X011242Y005882D01*
X011242Y005785D02*
X011340Y005785D01*
X011340Y005689D02*
X011242Y005689D01*
X010972Y005882D02*
X010884Y005882D01*
X010465Y005979D02*
X012075Y005979D01*
X012028Y006076D02*
X010465Y006076D01*
X010465Y006173D02*
X012028Y006173D01*
X012028Y006367D02*
X010465Y006367D01*
X010465Y006270D02*
X012324Y006270D01*
X012324Y006355D02*
X012324Y006671D01*
X012157Y006671D01*
X012119Y006661D01*
X012085Y006641D01*
X012057Y006614D01*
X012038Y006580D01*
X012031Y006553D01*
X012031Y006709D01*
X011714Y006709D01*
X011714Y006807D01*
X012031Y006807D01*
X012031Y006975D01*
X012021Y007013D01*
X012001Y007047D01*
X011973Y007075D01*
X011939Y007094D01*
X011901Y007104D01*
X011714Y007104D01*
X011714Y006807D01*
X011616Y006807D01*
X011616Y007104D01*
X011429Y007104D01*
X011391Y007094D01*
X011357Y007075D01*
X011329Y007047D01*
X011309Y007013D01*
X011309Y007012D01*
X011257Y007064D01*
X010734Y007064D01*
X010670Y007000D01*
X010670Y006978D01*
X010611Y007002D01*
X010514Y007002D01*
X010465Y006982D01*
X010465Y007991D01*
X010514Y007971D01*
X010611Y007971D01*
X010650Y007987D01*
X010650Y007973D01*
X010714Y007909D01*
X011238Y007909D01*
X011290Y007961D01*
X011290Y007961D01*
X011309Y007926D01*
X011337Y007899D01*
X011371Y007879D01*
X011409Y007869D01*
X011596Y007869D01*
X011596Y008166D01*
X011694Y008166D01*
X011694Y007869D01*
X011881Y007869D01*
X011919Y007879D01*
X011953Y007899D01*
X011981Y007926D01*
X012001Y007961D01*
X012011Y007998D01*
X012011Y008166D01*
X011694Y008166D01*
X011694Y008264D01*
X011596Y008264D01*
X011596Y008561D01*
X011409Y008561D01*
X011371Y008551D01*
X011337Y008531D01*
X011309Y008503D01*
X011290Y008469D01*
X011238Y008521D01*
X010714Y008521D01*
X010650Y008457D01*
X010650Y008443D01*
X010611Y008459D01*
X010514Y008459D01*
X010465Y008439D01*
X010465Y008864D01*
X012150Y008864D01*
X012129Y008815D01*
X012129Y008718D01*
X012166Y008629D01*
X012166Y008600D01*
X012132Y008600D01*
X012068Y008536D01*
X012068Y008012D01*
X012119Y007960D01*
X012085Y007941D01*
X012057Y007913D01*
X012038Y007879D01*
X012028Y007841D01*
X012028Y007654D01*
X012324Y007654D01*
X012324Y007556D01*
X012028Y007556D01*
X012028Y007369D01*
X012038Y007331D01*
X012057Y007297D01*
X012085Y007269D01*
X012119Y007249D01*
X012157Y007239D01*
X012324Y007239D01*
X012324Y007556D01*
X012423Y007556D01*
X012423Y007654D01*
X012720Y007654D01*
X012720Y007841D01*
X012710Y007879D01*
X012690Y007913D01*
X012662Y007941D01*
X012628Y007960D01*
X012628Y007960D01*
X012680Y008012D01*
X012680Y008536D01*
X012616Y008600D01*
X012581Y008600D01*
X012581Y008629D01*
X012618Y008718D01*
X012618Y008815D01*
X012598Y008864D01*
X014039Y008864D01*
X014124Y008778D01*
X014197Y008706D01*
X014282Y008620D01*
X014282Y008619D01*
X013824Y008619D01*
X013773Y008568D01*
X013753Y008602D01*
X013725Y008630D01*
X013691Y008649D01*
X013653Y008659D01*
X013466Y008659D01*
X013466Y008363D01*
X013368Y008363D01*
X013368Y008659D01*
X013181Y008659D01*
X013143Y008649D01*
X013109Y008630D01*
X013081Y008602D01*
X013061Y008568D01*
X013051Y008530D01*
X013051Y008363D01*
X013368Y008363D01*
X013368Y008264D01*
X013466Y008264D01*
X013466Y007967D01*
X013653Y007967D01*
X013691Y007977D01*
X013725Y007997D01*
X013753Y008025D01*
X013773Y008059D01*
X013824Y008007D01*
X014282Y008007D01*
X014282Y007616D01*
X013844Y007616D01*
X013792Y007564D01*
X013773Y007598D01*
X013745Y007626D01*
X013711Y007645D01*
X013673Y007656D01*
X013486Y007656D01*
X013486Y007359D01*
X013387Y007359D01*
X013387Y007260D01*
X013071Y007260D01*
X013071Y007093D01*
X013081Y007055D01*
X013101Y007021D01*
X013128Y006993D01*
X013162Y006974D01*
X013200Y006963D01*
X013387Y006963D01*
X013387Y007260D01*
X013486Y007260D01*
X013486Y006963D01*
X013673Y006963D01*
X013711Y006974D01*
X013745Y006993D01*
X013773Y007021D01*
X013792Y007055D01*
X013792Y007055D01*
X013844Y007003D01*
X013909Y007003D01*
X013913Y006884D01*
X013881Y006807D01*
X013881Y006710D01*
X013919Y006620D01*
X013987Y006551D01*
X014077Y006514D01*
X014174Y006514D01*
X014264Y006551D01*
X014282Y006569D01*
X014282Y005487D01*
X013842Y005047D01*
X013506Y005047D01*
X013506Y005465D01*
X013455Y005517D01*
X013489Y005537D01*
X013517Y005564D01*
X013536Y005598D01*
X013546Y005636D01*
X013546Y005823D01*
X013250Y005823D01*
X013250Y005922D01*
X013151Y005922D01*
X013151Y006238D01*
X012984Y006238D01*
X012946Y006228D01*
X012912Y006208D01*
X012884Y006181D01*
X012864Y006147D01*
X012854Y006109D01*
X012854Y005922D01*
X013151Y005922D01*
X013151Y005823D01*
X012854Y005823D01*
X012854Y005636D01*
X012864Y005598D01*
X012884Y005564D01*
X012912Y005537D01*
X012946Y005517D01*
X012946Y005517D01*
X012894Y005465D01*
X012894Y005047D01*
X012598Y005047D01*
X012618Y005096D01*
X012618Y005193D01*
X012581Y005281D01*
X012581Y005310D01*
X012616Y005310D01*
X012680Y005374D01*
X012680Y005898D01*
X012628Y005950D01*
X012662Y005970D01*
X012690Y005997D01*
X012710Y006031D01*
X012720Y006069D01*
X012720Y006256D01*
X012423Y006256D01*
X012423Y006355D01*
X012324Y006355D01*
X012324Y006367D02*
X012423Y006367D01*
X012423Y006355D02*
X012423Y006671D01*
X012590Y006671D01*
X012628Y006661D01*
X012662Y006641D01*
X012690Y006614D01*
X012710Y006580D01*
X012720Y006542D01*
X012720Y006355D01*
X012423Y006355D01*
X012423Y006270D02*
X014282Y006270D01*
X014282Y006173D02*
X013521Y006173D01*
X013517Y006181D02*
X013489Y006208D01*
X013455Y006228D01*
X013417Y006238D01*
X013250Y006238D01*
X013250Y005922D01*
X013546Y005922D01*
X013546Y006109D01*
X013536Y006147D01*
X013517Y006181D01*
X013546Y006076D02*
X014282Y006076D01*
X014282Y005979D02*
X013546Y005979D01*
X013546Y005785D02*
X014282Y005785D01*
X014282Y005689D02*
X013546Y005689D01*
X013532Y005592D02*
X014282Y005592D01*
X014282Y005495D02*
X013477Y005495D01*
X013455Y005517D02*
X013455Y005517D01*
X013506Y005398D02*
X014193Y005398D01*
X014096Y005301D02*
X013506Y005301D01*
X013506Y005204D02*
X013999Y005204D01*
X013902Y005107D02*
X013506Y005107D01*
X012894Y005107D02*
X012618Y005107D01*
X012613Y005204D02*
X012894Y005204D01*
X012894Y005301D02*
X012581Y005301D01*
X012680Y005398D02*
X012894Y005398D01*
X012924Y005495D02*
X012680Y005495D01*
X012680Y005592D02*
X012868Y005592D01*
X012854Y005689D02*
X012680Y005689D01*
X012680Y005785D02*
X012854Y005785D01*
X012854Y005979D02*
X012672Y005979D01*
X012628Y005950D02*
X012628Y005950D01*
X012680Y005882D02*
X013151Y005882D01*
X013151Y005979D02*
X013250Y005979D01*
X013250Y005882D02*
X014282Y005882D01*
X014282Y006367D02*
X012720Y006367D01*
X012720Y006464D02*
X014282Y006464D01*
X014274Y006561D02*
X014282Y006561D01*
X013978Y006561D02*
X012715Y006561D01*
X012634Y006658D02*
X013903Y006658D01*
X013881Y006755D02*
X011714Y006755D01*
X011714Y006852D02*
X011616Y006852D01*
X011616Y006949D02*
X011714Y006949D01*
X011714Y007045D02*
X011616Y007045D01*
X011328Y007045D02*
X011276Y007045D01*
X011616Y006658D02*
X011714Y006658D01*
X011714Y006561D02*
X011616Y006561D01*
X011616Y006464D02*
X011714Y006464D01*
X011335Y006464D02*
X011269Y006464D01*
X010722Y006464D02*
X010465Y006464D01*
X010465Y007045D02*
X010715Y007045D01*
X010465Y007142D02*
X013071Y007142D01*
X013071Y007239D02*
X012591Y007239D01*
X012590Y007239D02*
X012628Y007249D01*
X012662Y007269D01*
X012690Y007297D01*
X012710Y007331D01*
X012720Y007369D01*
X012720Y007556D01*
X012423Y007556D01*
X012423Y007239D01*
X012590Y007239D01*
X012711Y007336D02*
X013387Y007336D01*
X013387Y007359D02*
X013071Y007359D01*
X013071Y007526D01*
X013081Y007564D01*
X013101Y007598D01*
X013128Y007626D01*
X013162Y007645D01*
X013200Y007656D01*
X013387Y007656D01*
X013387Y007359D01*
X013387Y007433D02*
X013486Y007433D01*
X013486Y007530D02*
X013387Y007530D01*
X013387Y007627D02*
X013486Y007627D01*
X013742Y007627D02*
X014282Y007627D01*
X014282Y007724D02*
X012720Y007724D01*
X012720Y007821D02*
X014282Y007821D01*
X014282Y007918D02*
X012685Y007918D01*
X012680Y008015D02*
X013091Y008015D01*
X013081Y008025D02*
X013109Y007997D01*
X013143Y007977D01*
X013181Y007967D01*
X013368Y007967D01*
X013368Y008264D01*
X013051Y008264D01*
X013051Y008097D01*
X013061Y008059D01*
X013081Y008025D01*
X013051Y008112D02*
X012680Y008112D01*
X012680Y008209D02*
X013051Y008209D01*
X013051Y008402D02*
X012680Y008402D01*
X012680Y008306D02*
X013368Y008306D01*
X013368Y008402D02*
X013466Y008402D01*
X013466Y008499D02*
X013368Y008499D01*
X013368Y008596D02*
X013466Y008596D01*
X013756Y008596D02*
X013801Y008596D01*
X013773Y008568D02*
X013773Y008568D01*
X013466Y008209D02*
X013368Y008209D01*
X013368Y008112D02*
X013466Y008112D01*
X013466Y008015D02*
X013368Y008015D01*
X013743Y008015D02*
X013817Y008015D01*
X013773Y008059D02*
X013773Y008059D01*
X013131Y007627D02*
X012423Y007627D01*
X012423Y007530D02*
X012324Y007530D01*
X012324Y007433D02*
X012423Y007433D01*
X012423Y007336D02*
X012324Y007336D01*
X012324Y007239D02*
X012423Y007239D01*
X012156Y007239D02*
X010465Y007239D01*
X010465Y007336D02*
X012036Y007336D01*
X012028Y007433D02*
X010465Y007433D01*
X010465Y007530D02*
X012028Y007530D01*
X012028Y007724D02*
X010465Y007724D01*
X010465Y007821D02*
X012028Y007821D01*
X012062Y007918D02*
X011973Y007918D01*
X012011Y008015D02*
X012068Y008015D01*
X012119Y007960D02*
X012119Y007960D01*
X012068Y008112D02*
X012011Y008112D01*
X012068Y008209D02*
X011694Y008209D01*
X011694Y008264D02*
X012011Y008264D01*
X012011Y008431D01*
X012001Y008469D01*
X011981Y008503D01*
X011953Y008531D01*
X011919Y008551D01*
X011881Y008561D01*
X011694Y008561D01*
X011694Y008264D01*
X011694Y008306D02*
X011596Y008306D01*
X011596Y008402D02*
X011694Y008402D01*
X011694Y008499D02*
X011596Y008499D01*
X011307Y008499D02*
X011259Y008499D01*
X011290Y008469D02*
X011290Y008469D01*
X011596Y008112D02*
X011694Y008112D01*
X011694Y008015D02*
X011596Y008015D01*
X011596Y007918D02*
X011694Y007918D01*
X011318Y007918D02*
X011247Y007918D01*
X010705Y007918D02*
X010465Y007918D01*
X010465Y007627D02*
X012324Y007627D01*
X012720Y007530D02*
X013072Y007530D01*
X013071Y007433D02*
X012720Y007433D01*
X013087Y007045D02*
X012002Y007045D01*
X012031Y006949D02*
X013911Y006949D01*
X013900Y006852D02*
X012031Y006852D01*
X012031Y006658D02*
X012113Y006658D01*
X012033Y006561D02*
X012031Y006561D01*
X012028Y006464D02*
X011995Y006464D01*
X012324Y006464D02*
X012423Y006464D01*
X012423Y006561D02*
X012324Y006561D01*
X012324Y006658D02*
X012423Y006658D01*
X012720Y006173D02*
X012880Y006173D01*
X012854Y006076D02*
X012720Y006076D01*
X013151Y006076D02*
X013250Y006076D01*
X013250Y006173D02*
X013151Y006173D01*
X013387Y007045D02*
X013486Y007045D01*
X013486Y007142D02*
X013387Y007142D01*
X013387Y007239D02*
X013486Y007239D01*
X013787Y007045D02*
X013802Y007045D01*
X013792Y007564D02*
X013792Y007564D01*
X014796Y007530D02*
X015001Y007530D01*
X015001Y007433D02*
X014796Y007433D01*
X014796Y007336D02*
X015001Y007336D01*
X015045Y007239D02*
X014796Y007239D01*
X014796Y007142D02*
X016926Y007142D01*
X016775Y007239D02*
X016690Y007239D01*
X016851Y007821D02*
X017040Y007821D01*
X017136Y007918D02*
X016735Y007918D01*
X016685Y008015D02*
X017215Y008015D01*
X017215Y008112D02*
X016711Y008112D01*
X016717Y008115D02*
X016745Y008143D01*
X016765Y008177D01*
X016775Y008215D01*
X016775Y008481D01*
X016281Y008481D01*
X016281Y008579D01*
X016775Y008579D01*
X016775Y008845D01*
X016765Y008883D01*
X016745Y008917D01*
X016717Y008945D01*
X016683Y008964D01*
X016645Y008974D01*
X016281Y008974D01*
X016281Y008579D01*
X016183Y008579D01*
X016183Y008974D01*
X015819Y008974D01*
X015781Y008964D01*
X015747Y008945D01*
X015719Y008917D01*
X015699Y008883D01*
X015689Y008845D01*
X015689Y008579D01*
X016183Y008579D01*
X016183Y008481D01*
X016281Y008481D01*
X016281Y008085D01*
X016645Y008085D01*
X016683Y008096D01*
X016717Y008115D01*
X016773Y008209D02*
X017215Y008209D01*
X017215Y008306D02*
X016775Y008306D01*
X016775Y008402D02*
X017215Y008402D01*
X017215Y008499D02*
X016281Y008499D01*
X016281Y008402D02*
X016183Y008402D01*
X016183Y008481D02*
X016183Y008085D01*
X015819Y008085D01*
X015781Y008096D01*
X015747Y008115D01*
X015719Y008143D01*
X015699Y008177D01*
X015689Y008215D01*
X015689Y008481D01*
X016183Y008481D01*
X016183Y008499D02*
X015645Y008499D01*
X015653Y008402D02*
X015689Y008402D01*
X015689Y008306D02*
X015653Y008306D01*
X015691Y008209D02*
X015356Y008209D01*
X015356Y008264D02*
X015257Y008264D01*
X015257Y008717D01*
X015356Y008717D01*
X015356Y008400D01*
X015356Y008264D01*
X015356Y008306D02*
X015257Y008306D01*
X015257Y008402D02*
X015356Y008402D01*
X015356Y008499D02*
X015257Y008499D01*
X015257Y008596D02*
X015356Y008596D01*
X015356Y008693D02*
X015257Y008693D01*
X015257Y008790D02*
X014791Y008790D01*
X014796Y008693D02*
X014961Y008693D01*
X014961Y008596D02*
X014796Y008596D01*
X014796Y008499D02*
X014969Y008499D01*
X014961Y008402D02*
X014796Y008402D01*
X014796Y008306D02*
X014961Y008306D01*
X014796Y008209D02*
X015257Y008209D01*
X014961Y008112D02*
X014796Y008112D01*
X014796Y008015D02*
X014961Y008015D01*
X014984Y007918D02*
X014796Y007918D01*
X014796Y007821D02*
X015014Y007821D01*
X015001Y007724D02*
X014796Y007724D01*
X014796Y007627D02*
X015001Y007627D01*
X015568Y007239D02*
X015774Y007239D01*
X015729Y007821D02*
X015599Y007821D01*
X015629Y007918D02*
X015729Y007918D01*
X015779Y008015D02*
X015653Y008015D01*
X015653Y008112D02*
X015753Y008112D01*
X016183Y008112D02*
X016281Y008112D01*
X016281Y008209D02*
X016183Y008209D01*
X016183Y008306D02*
X016281Y008306D01*
X016281Y008596D02*
X016183Y008596D01*
X016183Y008693D02*
X016281Y008693D01*
X016281Y008790D02*
X016183Y008790D01*
X016183Y008887D02*
X016281Y008887D01*
X016721Y009081D02*
X017215Y009081D01*
X017215Y009178D02*
X016735Y009178D01*
X016735Y009275D02*
X017215Y009275D01*
X017215Y009372D02*
X016735Y009372D01*
X016735Y009469D02*
X017215Y009469D01*
X017215Y009566D02*
X016735Y009566D01*
X016735Y009662D02*
X017215Y009662D01*
X017215Y009759D02*
X016735Y009759D01*
X016449Y009856D02*
X017215Y009856D01*
X017215Y009953D02*
X016449Y009953D01*
X016449Y010050D02*
X017215Y010050D01*
X017215Y010147D02*
X016449Y010147D01*
X016449Y010244D02*
X017215Y010244D01*
X017215Y010341D02*
X016449Y010341D01*
X016449Y010438D02*
X017215Y010438D01*
X017215Y010535D02*
X016449Y010535D01*
X016449Y010632D02*
X017215Y010632D01*
X017215Y010729D02*
X016449Y010729D01*
X016449Y010826D02*
X017215Y010826D01*
X017215Y010923D02*
X016449Y010923D01*
X016449Y011019D02*
X017215Y011019D01*
X017215Y011116D02*
X016449Y011116D01*
X016449Y011213D02*
X017215Y011213D01*
X017215Y011310D02*
X016449Y011310D01*
X016449Y011407D02*
X017215Y011407D01*
X017215Y011504D02*
X016449Y011504D01*
X016449Y011601D02*
X017215Y011601D01*
X017215Y011698D02*
X016449Y011698D01*
X016449Y011795D02*
X017215Y011795D01*
X017215Y011892D02*
X016449Y011892D01*
X016471Y011989D02*
X017215Y011989D01*
X017215Y012086D02*
X016486Y012086D01*
X016461Y012183D02*
X017215Y012183D01*
X017215Y012279D02*
X016381Y012279D01*
X016103Y012279D02*
X015902Y012279D01*
X015886Y012183D02*
X016023Y012183D01*
X015998Y012086D02*
X015819Y012086D01*
X016012Y011989D02*
X015479Y011989D01*
X015877Y012376D02*
X017215Y012376D01*
X017215Y012473D02*
X015799Y012473D01*
X016034Y011892D02*
X014071Y011892D01*
X014025Y011795D02*
X016034Y011795D01*
X016034Y011698D02*
X013992Y011698D01*
X013873Y011601D02*
X016034Y011601D01*
X016034Y011504D02*
X010631Y011504D01*
X010534Y011407D02*
X016034Y011407D01*
X016034Y011310D02*
X010437Y011310D01*
X010340Y011213D02*
X016034Y011213D01*
X016034Y011116D02*
X010243Y011116D01*
X010146Y011019D02*
X016034Y011019D01*
X016034Y010923D02*
X010049Y010923D01*
X009952Y010826D02*
X016034Y010826D01*
X016034Y010729D02*
X009855Y010729D01*
X009759Y010632D02*
X016034Y010632D01*
X016034Y010535D02*
X009662Y010535D01*
X009565Y010438D02*
X016034Y010438D01*
X016034Y010341D02*
X009468Y010341D01*
X009371Y010244D02*
X016034Y010244D01*
X016034Y010147D02*
X009274Y010147D01*
X009177Y010050D02*
X016034Y010050D01*
X016034Y009953D02*
X012542Y009953D01*
X012581Y009856D02*
X016034Y009856D01*
X015729Y009759D02*
X015551Y009759D01*
X015063Y009759D02*
X012581Y009759D01*
X012581Y009662D02*
X014731Y009662D01*
X014621Y009566D02*
X012581Y009566D01*
X012581Y009469D02*
X014524Y009469D01*
X014427Y009372D02*
X014210Y009372D01*
X014112Y008790D02*
X012618Y008790D01*
X012608Y008693D02*
X014209Y008693D01*
X014197Y008706D02*
X014197Y008706D01*
X014124Y008778D02*
X014124Y008778D01*
X014742Y008887D02*
X014961Y008887D01*
X014961Y008984D02*
X014766Y008984D01*
X014863Y009081D02*
X014997Y009081D01*
X015001Y009178D02*
X014960Y009178D01*
X015356Y008790D02*
X015689Y008790D01*
X015689Y008693D02*
X015653Y008693D01*
X015653Y008596D02*
X015689Y008596D01*
X015702Y008887D02*
X015653Y008887D01*
X015653Y008984D02*
X017215Y008984D01*
X017215Y008887D02*
X016762Y008887D01*
X016775Y008790D02*
X017215Y008790D01*
X017215Y008693D02*
X016775Y008693D01*
X016775Y008596D02*
X017215Y008596D01*
X017729Y008402D02*
X018169Y008402D01*
X018169Y008306D02*
X017729Y008306D01*
X017729Y008209D02*
X018169Y008209D01*
X018169Y008112D02*
X017729Y008112D01*
X017729Y008015D02*
X018169Y008015D01*
X018169Y007918D02*
X017729Y007918D01*
X017721Y007821D02*
X018169Y007821D01*
X018180Y007724D02*
X017669Y007724D01*
X018663Y008596D02*
X018761Y008596D01*
X018761Y008499D02*
X021694Y008499D01*
X021694Y008402D02*
X019255Y008402D01*
X019255Y008306D02*
X021694Y008306D01*
X021694Y008209D02*
X019674Y008209D01*
X019482Y008209D02*
X019255Y008209D01*
X019255Y008112D02*
X019317Y008112D01*
X019255Y008596D02*
X021694Y008596D01*
X021694Y008693D02*
X019255Y008693D01*
X019255Y008790D02*
X021694Y008790D01*
X021694Y008887D02*
X019761Y008887D01*
X019876Y008984D02*
X021694Y008984D01*
X021694Y009081D02*
X019929Y009081D01*
X019955Y009178D02*
X021694Y009178D01*
X021694Y009275D02*
X019955Y009275D01*
X019922Y009372D02*
X021694Y009372D01*
X021694Y009469D02*
X019861Y009469D01*
X019725Y009566D02*
X021694Y009566D01*
X021694Y009662D02*
X021281Y009662D01*
X021309Y009674D02*
X021407Y009771D01*
X021459Y009898D01*
X021459Y010036D01*
X021407Y010163D01*
X021309Y010260D01*
X021182Y010312D01*
X020573Y010312D01*
X020446Y010260D01*
X020348Y010163D01*
X020296Y010036D01*
X020296Y009898D01*
X020348Y009771D01*
X020446Y009674D01*
X020573Y009621D01*
X021182Y009621D01*
X021309Y009674D01*
X021395Y009759D02*
X021694Y009759D01*
X021694Y009856D02*
X021442Y009856D01*
X021459Y009953D02*
X021694Y009953D01*
X021694Y010050D02*
X021453Y010050D01*
X021413Y010147D02*
X021694Y010147D01*
X021694Y010244D02*
X021325Y010244D01*
X020430Y010244D02*
X019239Y010244D01*
X019326Y010147D02*
X020342Y010147D01*
X020302Y010050D02*
X019367Y010050D01*
X019373Y009953D02*
X020296Y009953D01*
X020313Y009856D02*
X019355Y009856D01*
X019308Y009759D02*
X020360Y009759D01*
X020474Y009662D02*
X019195Y009662D01*
X018761Y009372D02*
X018663Y009372D01*
X018663Y009275D02*
X018761Y009275D01*
X018761Y009178D02*
X018663Y009178D01*
X018663Y009081D02*
X018761Y009081D01*
X018761Y008984D02*
X018663Y008984D01*
X018663Y008887D02*
X018761Y008887D01*
X018761Y008790D02*
X018663Y008790D01*
X018663Y008693D02*
X018761Y008693D01*
X019255Y008887D02*
X019396Y008887D01*
X019281Y008984D02*
X019255Y008984D01*
X019840Y008112D02*
X021694Y008112D01*
X021694Y008015D02*
X019914Y008015D01*
X019954Y007918D02*
X021694Y007918D01*
X021694Y007821D02*
X019955Y007821D01*
X019937Y007724D02*
X021694Y007724D01*
X021694Y007627D02*
X019897Y007627D01*
X019956Y006397D02*
X019892Y006333D01*
X019892Y005809D01*
X019956Y005746D01*
X020441Y005746D01*
X020504Y005809D01*
X020504Y005860D01*
X020583Y005827D01*
X020680Y005827D01*
X020770Y005864D01*
X020839Y005933D01*
X020876Y006023D01*
X020876Y006120D01*
X020839Y006210D01*
X020770Y006278D01*
X020680Y006315D01*
X020583Y006315D01*
X020504Y006283D01*
X020504Y006333D01*
X020441Y006397D01*
X019956Y006397D01*
X019926Y006367D02*
X019801Y006367D01*
X019835Y006270D02*
X019892Y006270D01*
X019892Y006173D02*
X019835Y006173D01*
X019835Y006076D02*
X019892Y006076D01*
X019892Y005979D02*
X019835Y005979D01*
X019835Y005882D02*
X019892Y005882D01*
X019916Y005785D02*
X019811Y005785D01*
X019452Y005689D02*
X021997Y005689D01*
X021997Y005785D02*
X020480Y005785D01*
X020788Y005882D02*
X021997Y005882D01*
X021997Y005979D02*
X020858Y005979D01*
X020876Y006076D02*
X021997Y006076D01*
X021997Y006173D02*
X020854Y006173D01*
X020778Y006270D02*
X021997Y006270D01*
X021701Y006367D02*
X020471Y006367D01*
X020631Y006071D02*
X020198Y006071D01*
X019968Y005278D02*
X019484Y005278D01*
X019420Y005214D01*
X019420Y004690D01*
X019484Y004626D01*
X019968Y004626D01*
X020032Y004690D01*
X020032Y004794D01*
X020051Y004794D01*
X020099Y004745D01*
X020189Y004708D01*
X020286Y004708D01*
X020376Y004745D01*
X020445Y004814D01*
X020482Y004903D01*
X020482Y005001D01*
X020445Y005090D01*
X020376Y005159D01*
X020286Y005196D01*
X020189Y005196D01*
X020099Y005159D01*
X020051Y005110D01*
X020032Y005110D01*
X020032Y005214D01*
X019968Y005278D01*
X020032Y005204D02*
X021997Y005204D01*
X021997Y005301D02*
X019264Y005301D01*
X019264Y005398D02*
X021997Y005398D01*
X021997Y005495D02*
X019264Y005495D01*
X019355Y005592D02*
X021997Y005592D01*
X021997Y005107D02*
X020428Y005107D01*
X020478Y005010D02*
X021997Y005010D01*
X021997Y004913D02*
X020482Y004913D01*
X020446Y004816D02*
X021997Y004816D01*
X021997Y004719D02*
X020314Y004719D01*
X020161Y004719D02*
X020032Y004719D01*
X020238Y004952D02*
X019726Y004952D01*
X019420Y004913D02*
X019363Y004913D01*
X019363Y004816D02*
X019420Y004816D01*
X019420Y004719D02*
X019363Y004719D01*
X019264Y004622D02*
X021997Y004622D01*
X021997Y004525D02*
X019264Y004525D01*
X019264Y004428D02*
X021997Y004428D01*
X021997Y004332D02*
X019264Y004332D01*
X019264Y004235D02*
X021997Y004235D01*
X021997Y004138D02*
X019264Y004138D01*
X019264Y004041D02*
X021997Y004041D01*
X021997Y003944D02*
X019264Y003944D01*
X019264Y003847D02*
X021997Y003847D01*
X021997Y003750D02*
X019264Y003750D01*
X019264Y003653D02*
X021997Y003653D01*
X021997Y003556D02*
X019264Y003556D01*
X019264Y003459D02*
X021997Y003459D01*
X021997Y003362D02*
X019264Y003362D01*
X019264Y003265D02*
X021997Y003265D01*
X021997Y003168D02*
X019264Y003168D01*
X019264Y003072D02*
X021997Y003072D01*
X021997Y002975D02*
X019264Y002975D01*
X019264Y002878D02*
X021997Y002878D01*
X021997Y002781D02*
X019264Y002781D01*
X019264Y002684D02*
X021997Y002684D01*
X021997Y002587D02*
X019996Y002587D01*
X019968Y002615D02*
X020032Y002551D01*
X020032Y002448D01*
X020051Y002448D01*
X020099Y002496D01*
X020189Y002534D01*
X020286Y002534D01*
X020376Y002496D01*
X020445Y002428D01*
X020482Y002338D01*
X020482Y002241D01*
X020445Y002151D01*
X020396Y002102D01*
X020465Y002199D02*
X021997Y002199D01*
X021997Y002296D02*
X020482Y002296D01*
X020459Y002393D02*
X021997Y002393D01*
X021997Y002490D02*
X020383Y002490D01*
X020238Y002289D02*
X019726Y002289D01*
X020032Y002131D02*
X020051Y002131D01*
X020079Y002102D01*
X020032Y002102D01*
X020032Y002131D02*
X020032Y002028D01*
X019968Y001964D01*
X019484Y001964D01*
X019420Y002028D01*
X019420Y002551D01*
X019484Y002615D01*
X019968Y002615D01*
X020032Y002490D02*
X020093Y002490D01*
X020238Y002289D02*
X020238Y001601D01*
X020031Y001394D01*
X019736Y001394D01*
X019726Y001384D01*
X019988Y001690D02*
X019464Y001690D01*
X019412Y001638D01*
X019412Y001639D01*
X019393Y001673D01*
X019365Y001701D01*
X019331Y001720D01*
X019293Y001730D01*
X019106Y001730D01*
X019106Y001433D01*
X019007Y001433D01*
X019007Y001730D01*
X018821Y001730D01*
X018783Y001720D01*
X018695Y001618D02*
X014759Y001618D01*
X014665Y001521D02*
X018691Y001521D01*
X018691Y001327D02*
X014471Y001327D01*
X014568Y001424D02*
X019007Y001424D01*
X019007Y001521D02*
X019106Y001521D01*
X019106Y001618D02*
X019007Y001618D01*
X019007Y001715D02*
X019106Y001715D01*
X019340Y001715D02*
X020079Y001715D01*
X020079Y001666D02*
X020046Y001633D01*
X019988Y001690D01*
X020079Y001666D02*
X020079Y002102D01*
X020079Y002005D02*
X020010Y002005D01*
X019442Y002005D02*
X019341Y002005D01*
X019363Y002102D02*
X019420Y002102D01*
X019420Y002199D02*
X019363Y002199D01*
X019363Y002296D02*
X019420Y002296D01*
X019420Y002393D02*
X019363Y002393D01*
X019363Y002490D02*
X019420Y002490D01*
X019456Y002587D02*
X019327Y002587D01*
X019106Y001327D02*
X019007Y001327D01*
X019007Y001230D02*
X019106Y001230D01*
X019106Y001133D02*
X019007Y001133D01*
X018700Y001133D02*
X014277Y001133D01*
X014374Y001230D02*
X018691Y001230D01*
X016463Y004816D02*
X014796Y004816D01*
X014796Y004913D02*
X016366Y004913D01*
X016269Y005010D02*
X014796Y005010D01*
X014796Y005107D02*
X016172Y005107D01*
X016075Y005204D02*
X014796Y005204D01*
X014796Y005301D02*
X015978Y005301D01*
X014282Y004719D02*
X014241Y004719D01*
X014282Y004622D02*
X014144Y004622D01*
X014282Y004525D02*
X010690Y004525D01*
X010672Y004428D02*
X014282Y004428D01*
X014282Y004332D02*
X010617Y004332D01*
X010435Y004494D02*
X010878Y004937D01*
X011139Y005107D02*
X012129Y005107D01*
X012134Y005204D02*
X011034Y005204D01*
X010948Y005301D02*
X010913Y005301D01*
X011634Y005301D02*
X012166Y005301D01*
X012068Y005398D02*
X011657Y005398D01*
X011657Y005495D02*
X012068Y005495D01*
X010189Y004937D02*
X009992Y004741D01*
X009992Y004494D01*
X010174Y004332D02*
X010252Y004332D01*
X009809Y004332D02*
X007148Y004332D01*
X007148Y004428D02*
X009755Y004428D01*
X009748Y004525D02*
X007148Y004525D01*
X007148Y004622D02*
X009780Y004622D01*
X009833Y004719D02*
X007148Y004719D01*
X007148Y004816D02*
X009843Y004816D01*
X009883Y004913D02*
X007148Y004913D01*
X007148Y005010D02*
X009887Y005010D01*
X009928Y005107D02*
X007148Y005107D01*
X007148Y005204D02*
X010032Y005204D01*
X008417Y006660D02*
X008220Y006660D01*
X007826Y007054D01*
X007826Y011237D01*
X011271Y014681D01*
X011444Y014509D02*
X011859Y014509D01*
X011956Y014606D02*
X011504Y014606D01*
X011515Y014703D02*
X012011Y014703D01*
X012040Y014800D02*
X011487Y014800D01*
X011390Y014896D02*
X012136Y014896D01*
X012256Y014681D02*
X008122Y010548D01*
X008122Y007152D01*
X008319Y006955D01*
X008565Y006955D01*
X008663Y007054D01*
X008587Y007530D02*
X008581Y007530D01*
X008712Y007743D02*
X008712Y009809D01*
X010631Y011729D01*
X011271Y011729D01*
X014224Y014681D01*
X013240Y014681D02*
X013240Y014632D01*
X011025Y012418D01*
X011111Y012279D02*
X011598Y012279D01*
X011501Y012183D02*
X010719Y012183D01*
X010622Y012086D02*
X011404Y012086D01*
X011307Y011989D02*
X010525Y011989D01*
X010428Y011892D02*
X011210Y011892D01*
X011208Y012376D02*
X011695Y012376D01*
X011792Y012473D02*
X011305Y012473D01*
X011402Y012570D02*
X011889Y012570D01*
X011986Y012667D02*
X011499Y012667D01*
X010658Y012570D02*
X010368Y012570D01*
X010271Y012473D02*
X010561Y012473D01*
X010465Y012376D02*
X010174Y012376D01*
X010078Y012279D02*
X010368Y012279D01*
X010271Y012183D02*
X009981Y012183D01*
X009884Y012086D02*
X010174Y012086D01*
X010077Y011989D02*
X009787Y011989D01*
X009690Y011892D02*
X009980Y011892D01*
X009883Y011795D02*
X009593Y011795D01*
X009496Y011698D02*
X009786Y011698D01*
X009689Y011601D02*
X009399Y011601D01*
X009302Y011504D02*
X009592Y011504D01*
X009495Y011407D02*
X009205Y011407D01*
X009108Y011310D02*
X009398Y011310D01*
X009301Y011213D02*
X009011Y011213D01*
X008914Y011116D02*
X009205Y011116D01*
X009108Y011019D02*
X008817Y011019D01*
X008721Y010923D02*
X009011Y010923D01*
X008914Y010826D02*
X008624Y010826D01*
X008527Y010729D02*
X008817Y010729D01*
X008720Y010632D02*
X008430Y010632D01*
X008333Y010535D02*
X008623Y010535D01*
X008526Y010438D02*
X008280Y010438D01*
X008280Y010341D02*
X008429Y010341D01*
X008332Y010244D02*
X008280Y010244D01*
X008586Y010050D02*
X008729Y010050D01*
X008683Y010147D02*
X008826Y010147D01*
X008780Y010244D02*
X008923Y010244D01*
X008877Y010341D02*
X009020Y010341D01*
X008974Y010438D02*
X009117Y010438D01*
X009071Y010535D02*
X009214Y010535D01*
X009168Y010632D02*
X009310Y010632D01*
X009265Y010729D02*
X009407Y010729D01*
X009362Y010826D02*
X009504Y010826D01*
X009459Y010923D02*
X009601Y010923D01*
X009556Y011019D02*
X009698Y011019D01*
X009653Y011116D02*
X009795Y011116D01*
X009750Y011213D02*
X009892Y011213D01*
X009846Y011310D02*
X009989Y011310D01*
X009943Y011407D02*
X010086Y011407D01*
X010040Y011504D02*
X010183Y011504D01*
X010137Y011601D02*
X010280Y011601D01*
X010234Y011698D02*
X010377Y011698D01*
X010331Y011795D02*
X010474Y011795D01*
X009726Y012376D02*
X009190Y012376D01*
X009093Y012279D02*
X009629Y012279D01*
X009533Y012183D02*
X008996Y012183D01*
X008899Y012086D02*
X009436Y012086D01*
X009339Y011989D02*
X008802Y011989D01*
X008706Y011892D02*
X009242Y011892D01*
X009145Y011795D02*
X008609Y011795D01*
X008512Y011698D02*
X009048Y011698D01*
X008951Y011601D02*
X008415Y011601D01*
X008318Y011504D02*
X008854Y011504D01*
X008757Y011407D02*
X008221Y011407D01*
X008124Y011310D02*
X008660Y011310D01*
X008563Y011213D02*
X008027Y011213D01*
X007985Y011116D02*
X008466Y011116D01*
X008369Y011019D02*
X007985Y011019D01*
X007985Y010923D02*
X008272Y010923D01*
X008176Y010826D02*
X007985Y010826D01*
X007985Y010729D02*
X008079Y010729D01*
X008575Y009953D02*
X008632Y009953D01*
X008886Y009759D02*
X009173Y009759D01*
X009173Y009856D02*
X008983Y009856D01*
X009080Y009953D02*
X009199Y009953D01*
X009490Y009953D02*
X009588Y009953D01*
X009588Y009856D02*
X009490Y009856D01*
X009490Y009759D02*
X009588Y009759D01*
X009490Y009662D02*
X008871Y009662D01*
X008871Y009566D02*
X009173Y009566D01*
X009173Y009469D02*
X008871Y009469D01*
X008871Y009372D02*
X009215Y009372D01*
X009490Y009372D02*
X009588Y009372D01*
X009588Y009469D02*
X009490Y009469D01*
X009490Y009566D02*
X009588Y009566D01*
X009863Y009372D02*
X009940Y009372D01*
X009951Y009275D02*
X008871Y009275D01*
X008871Y009178D02*
X009951Y009178D01*
X009951Y009081D02*
X008871Y009081D01*
X008871Y008984D02*
X009951Y008984D01*
X009951Y008887D02*
X008871Y008887D01*
X008871Y008790D02*
X009951Y008790D01*
X009951Y008693D02*
X008871Y008693D01*
X008871Y008596D02*
X009951Y008596D01*
X009951Y008499D02*
X008871Y008499D01*
X008871Y008402D02*
X009951Y008402D01*
X009951Y008306D02*
X008871Y008306D01*
X008871Y008209D02*
X009951Y008209D01*
X009951Y008112D02*
X008871Y008112D01*
X008871Y008015D02*
X009951Y008015D01*
X009951Y007918D02*
X008882Y007918D01*
X008944Y007821D02*
X009951Y007821D01*
X009951Y007724D02*
X008956Y007724D01*
X008929Y007627D02*
X009951Y007627D01*
X009951Y007530D02*
X008838Y007530D01*
X007998Y006658D02*
X007148Y006658D01*
X007148Y006755D02*
X007901Y006755D01*
X007804Y006852D02*
X007148Y006852D01*
X007148Y006949D02*
X007707Y006949D01*
X007761Y006895D02*
X007761Y006895D01*
X007668Y007045D02*
X007148Y007045D01*
X007076Y007142D02*
X007668Y007142D01*
X007668Y007239D02*
X006979Y007239D01*
X006882Y007336D02*
X007668Y007336D01*
X007668Y007433D02*
X006785Y007433D01*
X006688Y007530D02*
X007668Y007530D01*
X007668Y007627D02*
X006591Y007627D01*
X006494Y007724D02*
X007668Y007724D01*
X007668Y007821D02*
X006397Y007821D01*
X006300Y007918D02*
X007668Y007918D01*
X007668Y008015D02*
X006203Y008015D01*
X006106Y008112D02*
X007668Y008112D01*
X007668Y008209D02*
X006010Y008209D01*
X005913Y008306D02*
X007668Y008306D01*
X007668Y008402D02*
X005816Y008402D01*
X005719Y008499D02*
X007668Y008499D01*
X007668Y008596D02*
X005622Y008596D01*
X005525Y008693D02*
X007668Y008693D01*
X007668Y008790D02*
X005505Y008790D01*
X005452Y008887D02*
X007668Y008887D01*
X006143Y007627D02*
X005607Y007627D01*
X005512Y007724D02*
X006046Y007724D01*
X005949Y007821D02*
X005499Y007821D01*
X005437Y007918D02*
X005852Y007918D01*
X005704Y007530D02*
X006240Y007530D01*
X006337Y007433D02*
X005801Y007433D01*
X005898Y007336D02*
X006434Y007336D01*
X006531Y007239D02*
X005995Y007239D01*
X006091Y007142D02*
X006628Y007142D01*
X006725Y007045D02*
X006188Y007045D01*
X006285Y006949D02*
X006821Y006949D01*
X006831Y006852D02*
X006382Y006852D01*
X006479Y006755D02*
X006831Y006755D01*
X006831Y006658D02*
X006576Y006658D01*
X006673Y006561D02*
X006831Y006561D01*
X006831Y006464D02*
X006770Y006464D01*
X006804Y006367D02*
X006831Y006367D01*
X006831Y006270D02*
X006804Y006270D01*
X006804Y006173D02*
X006831Y006173D01*
X006831Y006076D02*
X006804Y006076D01*
X006804Y005979D02*
X006831Y005979D01*
X006831Y005882D02*
X006804Y005882D01*
X006804Y005785D02*
X006831Y005785D01*
X006831Y005689D02*
X006804Y005689D01*
X006804Y005592D02*
X006831Y005592D01*
X006831Y005495D02*
X006804Y005495D01*
X006804Y005398D02*
X006831Y005398D01*
X006831Y005301D02*
X006804Y005301D01*
X006804Y005204D02*
X006831Y005204D01*
X006831Y005107D02*
X006804Y005107D01*
X006804Y005010D02*
X006831Y005010D01*
X006831Y004913D02*
X006804Y004913D01*
X006804Y004816D02*
X006831Y004816D01*
X006831Y004719D02*
X006804Y004719D01*
X006804Y004622D02*
X006831Y004622D01*
X006831Y004525D02*
X006804Y004525D01*
X006804Y004428D02*
X006831Y004428D01*
X006831Y004332D02*
X006804Y004332D01*
X006804Y004235D02*
X006831Y004235D01*
X006990Y004248D02*
X006990Y007004D01*
X005267Y008727D01*
X005035Y007821D02*
X000348Y007821D01*
X000348Y007724D02*
X005023Y007724D01*
X005051Y007627D02*
X000348Y007627D01*
X000348Y007530D02*
X005142Y007530D01*
X005353Y007433D02*
X000348Y007433D01*
X000348Y007336D02*
X005450Y007336D01*
X005546Y007239D02*
X000348Y007239D01*
X000348Y007142D02*
X005643Y007142D01*
X005045Y006658D02*
X000348Y006658D01*
X000348Y006561D02*
X005119Y006561D01*
X005338Y006464D02*
X000348Y006464D01*
X000348Y006367D02*
X005435Y006367D01*
X005531Y006270D02*
X000348Y006270D01*
X000348Y006173D02*
X005628Y006173D01*
X005725Y006076D02*
X000348Y006076D01*
X000348Y005592D02*
X005104Y005592D01*
X005323Y005495D02*
X000348Y005495D01*
X000348Y005398D02*
X005420Y005398D01*
X005516Y005301D02*
X000348Y005301D01*
X000348Y005204D02*
X005613Y005204D01*
X005710Y005107D02*
X000348Y005107D01*
X000348Y005010D02*
X005798Y005010D01*
X005798Y004913D02*
X000348Y004913D01*
X000348Y004816D02*
X005798Y004816D01*
X005798Y004719D02*
X000348Y004719D01*
X000348Y004622D02*
X005798Y004622D01*
X005798Y004525D02*
X000348Y004525D01*
X000348Y004428D02*
X005798Y004428D01*
X005798Y004332D02*
X000348Y004332D01*
X000348Y004235D02*
X005798Y004235D01*
X005798Y004138D02*
X000348Y004138D01*
X000348Y004041D02*
X005798Y004041D01*
X005798Y003944D02*
X000348Y003944D01*
X000348Y003847D02*
X005838Y003847D01*
X005935Y003750D02*
X000348Y003750D01*
X000348Y003653D02*
X006032Y003653D01*
X006129Y003556D02*
X000348Y003556D01*
X000348Y003459D02*
X006226Y003459D01*
X006323Y003362D02*
X000348Y003362D01*
X000348Y003265D02*
X006420Y003265D01*
X006517Y003168D02*
X000348Y003168D01*
X000348Y003072D02*
X006614Y003072D01*
X006711Y002975D02*
X000348Y002975D01*
X000348Y002878D02*
X006808Y002878D01*
X006905Y002781D02*
X000348Y002781D01*
X000348Y002684D02*
X007002Y002684D01*
X007098Y002587D02*
X000348Y002587D01*
X000348Y002490D02*
X007195Y002490D01*
X007292Y002393D02*
X000348Y002393D01*
X000348Y002296D02*
X007389Y002296D01*
X007486Y002199D02*
X000348Y002199D01*
X006301Y004052D02*
X007826Y002526D01*
X012354Y002526D01*
X012698Y002870D01*
X012698Y003018D01*
X012647Y003265D02*
X012749Y003265D01*
X012750Y003362D02*
X012647Y003362D01*
X012603Y003459D02*
X012794Y003459D01*
X012942Y003556D02*
X012455Y003556D01*
X012351Y003556D02*
X007906Y003556D01*
X008003Y003459D02*
X012204Y003459D01*
X012159Y003362D02*
X008100Y003362D01*
X008197Y003265D02*
X012159Y003265D01*
X012403Y003313D02*
X012403Y002920D01*
X012256Y002772D01*
X008023Y002772D01*
X006645Y004150D01*
X006990Y004248D02*
X008220Y003018D01*
X012108Y003018D01*
X012452Y002280D02*
X007630Y002280D01*
X008321Y002102D02*
X008678Y002102D01*
X008623Y002005D02*
X008376Y002005D01*
X008409Y001908D02*
X008590Y001908D01*
X008590Y001812D02*
X008409Y001812D01*
X008389Y001715D02*
X008611Y001715D01*
X008651Y001618D02*
X008348Y001618D01*
X008254Y001521D02*
X008745Y001521D01*
X008860Y001230D02*
X008233Y001230D01*
X008346Y001133D02*
X008709Y001133D01*
X008636Y001036D02*
X008406Y001036D01*
X008439Y000939D02*
X008596Y000939D01*
X009139Y001230D02*
X009860Y001230D01*
X009709Y001133D02*
X009290Y001133D01*
X009363Y001036D02*
X009636Y001036D01*
X009596Y000939D02*
X009403Y000939D01*
X009409Y000842D02*
X009590Y000842D01*
X009598Y000745D02*
X009401Y000745D01*
X009361Y000648D02*
X009638Y000648D01*
X009714Y000551D02*
X009285Y000551D01*
X009254Y001521D02*
X009745Y001521D01*
X009651Y001618D02*
X009348Y001618D01*
X009389Y001715D02*
X009611Y001715D01*
X009590Y001812D02*
X009409Y001812D01*
X009409Y001908D02*
X009590Y001908D01*
X009623Y002005D02*
X009376Y002005D01*
X009321Y002102D02*
X009678Y002102D01*
X007809Y003653D02*
X014282Y003653D01*
X014282Y003556D02*
X013046Y003556D01*
X013193Y003459D02*
X014282Y003459D01*
X014282Y003362D02*
X013238Y003362D01*
X013238Y003265D02*
X014282Y003265D01*
X014282Y003168D02*
X013194Y003168D01*
X013152Y003072D02*
X014282Y003072D01*
X014282Y002975D02*
X013152Y002975D01*
X013152Y002878D02*
X014282Y002878D01*
X014282Y002781D02*
X013152Y002781D01*
X013080Y002684D02*
X014282Y002684D01*
X014282Y002587D02*
X012983Y002587D01*
X012886Y002490D02*
X014282Y002490D01*
X014282Y002393D02*
X012790Y002393D01*
X012693Y002296D02*
X014282Y002296D01*
X014282Y002199D02*
X012596Y002199D01*
X012452Y002280D02*
X012994Y002821D01*
X012994Y003313D01*
X014282Y003750D02*
X007712Y003750D01*
X007615Y003847D02*
X014282Y003847D01*
X014282Y003944D02*
X007518Y003944D01*
X007421Y004041D02*
X014282Y004041D01*
X014282Y004138D02*
X007325Y004138D01*
X007228Y004235D02*
X014282Y004235D01*
X012068Y008306D02*
X012011Y008306D01*
X012011Y008402D02*
X012068Y008402D01*
X012068Y008499D02*
X011984Y008499D01*
X012128Y008596D02*
X010465Y008596D01*
X010465Y008499D02*
X010693Y008499D01*
X010465Y008693D02*
X012139Y008693D01*
X012129Y008790D02*
X010465Y008790D01*
X010534Y009469D02*
X011220Y009469D01*
X011220Y009566D02*
X010534Y009566D01*
X010534Y009662D02*
X011537Y009662D01*
X011537Y009759D02*
X011635Y009759D01*
X011635Y009856D02*
X011537Y009856D01*
X011537Y009953D02*
X011635Y009953D01*
X011926Y009953D02*
X011969Y009953D01*
X011246Y009953D02*
X010495Y009953D01*
X010534Y009856D02*
X011220Y009856D01*
X011220Y009759D02*
X010534Y009759D01*
X009922Y009953D02*
X009879Y009953D01*
X012619Y008596D02*
X013078Y008596D01*
X013051Y008499D02*
X012680Y008499D01*
X015616Y009081D02*
X015743Y009081D01*
X015729Y009178D02*
X015613Y009178D01*
X018661Y011504D02*
X019167Y011504D01*
X019214Y011484D02*
X019064Y011547D01*
X018949Y011662D01*
X018887Y011812D01*
X018887Y011975D01*
X018949Y012125D01*
X019064Y012241D01*
X019214Y012303D01*
X019377Y012303D01*
X019528Y012241D01*
X019643Y012125D01*
X019705Y011975D01*
X019705Y011812D01*
X019643Y011662D01*
X019528Y011547D01*
X019377Y011484D01*
X019214Y011484D01*
X019425Y011504D02*
X020167Y011504D01*
X020010Y011601D02*
X019582Y011601D01*
X019658Y011698D02*
X019934Y011698D01*
X019894Y011795D02*
X019698Y011795D01*
X019705Y011892D02*
X019887Y011892D01*
X019892Y011989D02*
X019699Y011989D01*
X019659Y012086D02*
X019932Y012086D01*
X020006Y012183D02*
X019586Y012183D01*
X019686Y012279D02*
X019434Y012279D01*
X019158Y012279D02*
X018664Y012279D01*
X018705Y012183D02*
X019006Y012183D01*
X018932Y012086D02*
X018705Y012086D01*
X018705Y011989D02*
X018892Y011989D01*
X018887Y011892D02*
X018705Y011892D01*
X018705Y011795D02*
X018894Y011795D01*
X018934Y011698D02*
X018705Y011698D01*
X018705Y011601D02*
X019010Y011601D01*
X019040Y012570D02*
X018551Y012570D01*
X018645Y012667D02*
X018947Y012667D01*
X018907Y012764D02*
X018685Y012764D01*
X018705Y012861D02*
X018887Y012861D01*
X018887Y012958D02*
X018705Y012958D01*
X018672Y013055D02*
X018920Y013055D01*
X018975Y013152D02*
X018616Y013152D01*
X018508Y013249D02*
X019084Y013249D01*
X019296Y012894D02*
X019772Y012418D01*
X021557Y012418D01*
X021852Y012122D01*
X021852Y006561D01*
X019420Y005204D02*
X019363Y005204D01*
X019363Y005107D02*
X019420Y005107D01*
X019420Y005010D02*
X019363Y005010D01*
X020425Y011504D02*
X021167Y011504D01*
X021010Y011601D02*
X020582Y011601D01*
X020658Y011698D02*
X020934Y011698D01*
X020894Y011795D02*
X020698Y011795D01*
X020705Y011892D02*
X020887Y011892D01*
X020892Y011989D02*
X020699Y011989D01*
X020659Y012086D02*
X020932Y012086D01*
X021006Y012183D02*
X020586Y012183D01*
X020685Y012667D02*
X020907Y012667D01*
X020866Y012764D02*
X020726Y012764D01*
X020740Y012958D02*
X020851Y012958D01*
X020876Y013055D02*
X020716Y013055D01*
X020664Y013152D02*
X020928Y013152D01*
X021020Y013249D02*
X020571Y013249D01*
X020345Y013249D02*
X020247Y013249D01*
X020247Y013152D02*
X020345Y013152D01*
X020345Y013055D02*
X020247Y013055D01*
X020247Y012958D02*
X020345Y012958D01*
X020345Y012861D02*
X021247Y012861D01*
X021247Y012958D02*
X021345Y012958D01*
X021345Y013055D02*
X021247Y013055D01*
X021247Y013152D02*
X021345Y013152D01*
X021345Y013249D02*
X021247Y013249D01*
X021571Y013249D02*
X021997Y013249D01*
X021997Y013152D02*
X021664Y013152D01*
X021716Y013055D02*
X021997Y013055D01*
X021997Y012958D02*
X021740Y012958D01*
X021726Y012764D02*
X021997Y012764D01*
X021997Y012667D02*
X021685Y012667D01*
X021628Y012570D02*
X021997Y012570D01*
X021997Y012473D02*
X021725Y012473D01*
X021822Y012376D02*
X021997Y012376D01*
X021997Y012279D02*
X021919Y012279D01*
X021997Y012861D02*
X021345Y012861D01*
X020247Y012861D02*
X019705Y012861D01*
X019705Y012958D02*
X019851Y012958D01*
X019876Y013055D02*
X019672Y013055D01*
X019616Y013152D02*
X019928Y013152D01*
X020020Y013249D02*
X019508Y013249D01*
X019685Y012764D02*
X019866Y012764D01*
X019907Y012667D02*
X019746Y012667D01*
X021425Y011504D02*
X021694Y011504D01*
X021694Y011601D02*
X021582Y011601D01*
X021658Y011698D02*
X021694Y011698D01*
X015765Y015090D02*
X000348Y015090D01*
X000348Y015187D02*
X015668Y015187D01*
X015571Y015284D02*
X000348Y015284D01*
X000348Y015381D02*
X015474Y015381D01*
X015377Y015478D02*
X000348Y015478D01*
X000348Y015575D02*
X015280Y015575D01*
X015183Y015672D02*
X000348Y015672D01*
X000348Y015769D02*
X015086Y015769D01*
X014990Y015866D02*
X000348Y015866D01*
X000348Y015963D02*
X014893Y015963D01*
X014796Y016060D02*
X000348Y016060D01*
X000348Y016156D02*
X014699Y016156D01*
X014602Y016253D02*
X000348Y016253D01*
X000348Y016350D02*
X014505Y016350D01*
X014408Y016447D02*
X000348Y016447D01*
X000348Y016544D02*
X014311Y016544D01*
X014214Y016641D02*
X000348Y016641D01*
X000348Y016738D02*
X014117Y016738D01*
X014020Y016835D02*
X000348Y016835D01*
X000348Y016932D02*
X013923Y016932D01*
X013826Y017029D02*
X000348Y017029D01*
X000348Y017126D02*
X013730Y017126D01*
X013633Y017223D02*
X004213Y017223D01*
X004360Y017320D02*
X013536Y017320D01*
X011762Y014412D02*
X011226Y014412D01*
X011129Y014315D02*
X011665Y014315D01*
X011568Y014218D02*
X011032Y014218D01*
X010935Y014121D02*
X011471Y014121D01*
X011374Y014024D02*
X010838Y014024D01*
X010741Y013927D02*
X011277Y013927D01*
X011180Y013830D02*
X010644Y013830D01*
X010547Y013733D02*
X011083Y013733D01*
X010986Y013636D02*
X010450Y013636D01*
X010353Y013539D02*
X010889Y013539D01*
X010793Y013443D02*
X010256Y013443D01*
X010159Y013346D02*
X010696Y013346D01*
X010599Y013249D02*
X010063Y013249D01*
X009966Y013152D02*
X010502Y013152D01*
X010405Y013055D02*
X009869Y013055D01*
X009772Y012958D02*
X010308Y012958D01*
X010211Y012861D02*
X009675Y012861D01*
X009578Y012764D02*
X010114Y012764D01*
X010017Y012667D02*
X009481Y012667D01*
X009384Y012570D02*
X009920Y012570D01*
X009823Y012473D02*
X009287Y012473D01*
X014169Y011989D02*
X014236Y011989D01*
X008267Y006464D02*
X007148Y006464D01*
X007148Y006561D02*
X008095Y006561D01*
X008062Y006594D02*
X008062Y006594D01*
X003881Y017223D02*
X000348Y017223D01*
X000348Y017320D02*
X003734Y017320D01*
X003657Y017417D02*
X000348Y017417D01*
X000348Y017513D02*
X003616Y017513D01*
X003603Y017610D02*
X000348Y017610D01*
X000348Y017707D02*
X003603Y017707D01*
X003637Y017804D02*
X000348Y017804D01*
X000348Y017901D02*
X003686Y017901D01*
X003783Y017998D02*
X000348Y017998D01*
M02*
