G75*
G70*
%OFA0B0*%
%FSLAX24Y24*%
%IPPOS*%
%LPD*%
%AMOC8*
5,1,8,0,0,1.08239X$1,22.5*
%
%ADD10C,0.0474*%
%ADD11R,0.0630X0.0157*%
%ADD12R,0.0157X0.0630*%
%ADD13R,0.0474X0.0513*%
%ADD14C,0.0552*%
%ADD15R,0.0867X0.0277*%
%ADD16C,0.0434*%
%ADD17R,0.1261X0.1261*%
%ADD18R,0.0513X0.0474*%
%ADD19R,0.0867X0.0513*%
%ADD20R,0.0395X0.0395*%
%ADD21R,0.0592X0.0671*%
%ADD22R,0.0680X0.0680*%
%ADD23C,0.0680*%
%ADD24C,0.0749*%
%ADD25R,0.2285X0.0986*%
%ADD26R,0.1419X0.0631*%
%ADD27R,0.0986X0.2285*%
%ADD28R,0.0631X0.1419*%
D10*
X009342Y003924D03*
X015405Y009987D03*
D11*
X015405Y009317D03*
X015405Y009120D03*
X015405Y008924D03*
X015405Y008727D03*
X015405Y008530D03*
X015405Y008333D03*
X015405Y008136D03*
X015405Y007939D03*
X015405Y007743D03*
X015405Y007546D03*
X015405Y007349D03*
X015405Y007152D03*
X015405Y006955D03*
X015405Y006758D03*
X015405Y006561D03*
X015405Y006365D03*
X015405Y006168D03*
X015405Y005971D03*
X015405Y005774D03*
X015405Y005577D03*
X015405Y005380D03*
X015405Y005183D03*
X015405Y004987D03*
X015405Y004790D03*
X015405Y004593D03*
X009342Y004593D03*
X009342Y004790D03*
X009342Y004987D03*
X009342Y005183D03*
X009342Y005380D03*
X009342Y005577D03*
X009342Y005774D03*
X009342Y005971D03*
X009342Y006168D03*
X009342Y006365D03*
X009342Y006561D03*
X009342Y006758D03*
X009342Y006955D03*
X009342Y007152D03*
X009342Y007349D03*
X009342Y007546D03*
X009342Y007743D03*
X009342Y007939D03*
X009342Y008136D03*
X009342Y008333D03*
X009342Y008530D03*
X009342Y008727D03*
X009342Y008924D03*
X009342Y009120D03*
X009342Y009317D03*
D12*
X010011Y009987D03*
X010208Y009987D03*
X010405Y009987D03*
X010602Y009987D03*
X010799Y009987D03*
X010996Y009987D03*
X011193Y009987D03*
X011389Y009987D03*
X011586Y009987D03*
X011783Y009987D03*
X011980Y009987D03*
X012177Y009987D03*
X012374Y009987D03*
X012570Y009987D03*
X012767Y009987D03*
X012964Y009987D03*
X013161Y009987D03*
X013358Y009987D03*
X013555Y009987D03*
X013752Y009987D03*
X013948Y009987D03*
X014145Y009987D03*
X014342Y009987D03*
X014539Y009987D03*
X014736Y009987D03*
X014736Y003924D03*
X014539Y003924D03*
X014342Y003924D03*
X014145Y003924D03*
X013948Y003924D03*
X013752Y003924D03*
X013555Y003924D03*
X013358Y003924D03*
X013161Y003924D03*
X012964Y003924D03*
X012767Y003924D03*
X012570Y003924D03*
X012374Y003924D03*
X012177Y003924D03*
X011980Y003924D03*
X011783Y003924D03*
X011586Y003924D03*
X011389Y003924D03*
X011193Y003924D03*
X010996Y003924D03*
X010799Y003924D03*
X010602Y003924D03*
X010405Y003924D03*
X010208Y003924D03*
X010011Y003924D03*
D13*
X016291Y009160D03*
X016960Y009160D03*
D14*
X018555Y009967D02*
X019027Y009967D01*
X020641Y009967D02*
X021114Y009967D01*
X021114Y007093D02*
X020641Y007093D01*
X019027Y007093D02*
X018555Y007093D01*
D15*
X018693Y007900D03*
X018693Y008215D03*
X018693Y008530D03*
X018693Y008845D03*
X018693Y009160D03*
D16*
X019578Y009219D03*
X019578Y007841D03*
D17*
X015819Y001778D03*
X013063Y001778D03*
D18*
X013515Y003117D03*
X014185Y003117D03*
X014696Y003117D03*
X015366Y003117D03*
D19*
X018604Y003495D03*
X018604Y002289D03*
X018604Y000833D03*
X021124Y000833D03*
X021124Y002289D03*
X021124Y003495D03*
X021124Y004952D03*
X018604Y004952D03*
D20*
X019569Y006071D03*
X020159Y006071D03*
X015153Y012269D03*
X014562Y012269D03*
D21*
X016881Y007900D03*
X017630Y007900D03*
D22*
X018296Y011894D03*
X011000Y001845D03*
D23*
X010000Y001845D03*
X010000Y000845D03*
X011000Y000845D03*
X009000Y000845D03*
X008000Y000845D03*
X008000Y001845D03*
X009000Y001845D03*
X019296Y011894D03*
X020296Y011894D03*
X020296Y012894D03*
X019296Y012894D03*
X018296Y012894D03*
X021296Y012894D03*
X021296Y011894D03*
D24*
X004047Y017634D03*
X004047Y019012D03*
D25*
X001724Y000813D03*
X001724Y009750D03*
X001724Y011050D03*
X001724Y016050D03*
D26*
X004322Y015026D03*
X004322Y014042D03*
X004322Y013057D03*
X004322Y012073D03*
X004322Y008727D03*
X004322Y007743D03*
X004322Y006758D03*
X004322Y005774D03*
X004322Y004790D03*
X004322Y003806D03*
X004322Y002821D03*
X004322Y001837D03*
D27*
X006311Y018274D03*
X015248Y018274D03*
X016547Y018274D03*
X021547Y018274D03*
D28*
X020523Y015676D03*
X019539Y015676D03*
X018555Y015676D03*
X017570Y015676D03*
X014224Y015676D03*
X013240Y015676D03*
X012256Y015676D03*
X011271Y015676D03*
X010287Y015676D03*
X009303Y015676D03*
X008319Y015676D03*
X007334Y015676D03*
M02*
