G75*
G70*
%OFA0B0*%
%FSLAX24Y24*%
%IPPOS*%
%LPD*%
%AMOC8*
5,1,8,0,0,1.08239X$1,22.5*
%
%ADD10R,0.0250X0.0630*%
%ADD11R,0.1200X0.0730*%
%ADD12R,0.0400X0.0200*%
%ADD13R,0.0330X0.1020*%
%ADD14R,0.0966X0.0277*%
%ADD15C,0.0474*%
%ADD16R,0.1064X0.0867*%
%ADD17R,0.0356X0.0434*%
%ADD18R,0.0434X0.0356*%
%ADD19R,0.0474X0.1891*%
%ADD20R,0.0710X0.1419*%
%ADD21R,0.0560X0.0280*%
%ADD22R,0.0395X0.0395*%
%ADD23R,0.2324X0.1064*%
%ADD24R,0.0710X0.0946*%
%ADD25R,0.0592X0.0671*%
%ADD26C,0.0966*%
%ADD27C,0.0671*%
%ADD28C,0.0680*%
%ADD29C,0.0350*%
D10*
X008860Y007270D03*
X009120Y007270D03*
X009370Y007270D03*
X009630Y007270D03*
X009880Y007270D03*
X010140Y007270D03*
X010140Y008990D03*
X009880Y008990D03*
X009630Y008990D03*
X009370Y008990D03*
X009120Y008990D03*
X008860Y008990D03*
D11*
X009500Y008130D03*
D12*
X012430Y004770D03*
X012430Y004580D03*
X012430Y004380D03*
X012430Y004180D03*
X012430Y003990D03*
X013170Y003990D03*
X013170Y004180D03*
X013170Y004380D03*
X013170Y004580D03*
X013170Y004770D03*
D13*
X012800Y004380D03*
D14*
X003864Y006550D03*
X003864Y006865D03*
X003864Y007180D03*
X003864Y007495D03*
X003864Y007810D03*
D15*
X002803Y008046D03*
X002803Y006314D03*
D16*
X003815Y005428D03*
X001669Y005428D03*
X001669Y008932D03*
X003815Y008932D03*
D17*
X009844Y009980D03*
X010356Y009980D03*
X010356Y010480D03*
X009844Y010480D03*
X012544Y005255D03*
X013056Y005255D03*
X011306Y004380D03*
X010794Y004380D03*
X012544Y003505D03*
X013056Y003505D03*
D18*
X009350Y010174D03*
X009350Y010686D03*
D19*
X008571Y003105D03*
X007783Y003105D03*
D20*
X006839Y001058D03*
X009516Y001058D03*
D21*
X006470Y004560D03*
X006470Y005300D03*
X005530Y005300D03*
X005530Y004930D03*
X005530Y004560D03*
D22*
X006280Y005880D03*
X006871Y005880D03*
D23*
X007300Y007047D03*
X007300Y009213D03*
D24*
X010499Y005380D03*
X011601Y005380D03*
X011601Y003380D03*
X010499Y003380D03*
D25*
X012501Y002930D03*
X013249Y002930D03*
X013249Y005830D03*
X012501Y005830D03*
D26*
X002075Y001026D03*
X005067Y001755D03*
X005224Y003172D03*
X004043Y003487D03*
X002075Y003822D03*
D27*
X002075Y002837D03*
D28*
X014450Y002780D03*
X014450Y001780D03*
X014450Y000780D03*
X014450Y003780D03*
X014450Y004780D03*
X014450Y005780D03*
X014450Y006780D03*
X014450Y007780D03*
D29*
X012800Y004580D03*
X012800Y004180D03*
X009900Y007955D03*
X009500Y007955D03*
X009500Y008305D03*
X009900Y008305D03*
X009100Y008305D03*
X009100Y007955D03*
M02*
