G75*
G70*
%OFA0B0*%
%FSLAX24Y24*%
%IPPOS*%
%LPD*%
%AMOC8*
5,1,8,0,0,1.08239X$1,22.5*
%
%ADD10C,0.0000*%
%ADD11C,0.0040*%
D10*
X000500Y000680D02*
X000500Y010680D01*
X000502Y010724D01*
X000508Y010767D01*
X000517Y010809D01*
X000530Y010851D01*
X000547Y010891D01*
X000567Y010930D01*
X000590Y010967D01*
X000617Y011001D01*
X000646Y011034D01*
X000679Y011063D01*
X000713Y011090D01*
X000750Y011113D01*
X000789Y011133D01*
X000829Y011150D01*
X000871Y011163D01*
X000913Y011172D01*
X000956Y011178D01*
X001000Y011180D01*
X014800Y011180D01*
X014844Y011178D01*
X014887Y011172D01*
X014929Y011163D01*
X014971Y011150D01*
X015011Y011133D01*
X015050Y011113D01*
X015087Y011090D01*
X015121Y011063D01*
X015154Y011034D01*
X015183Y011001D01*
X015210Y010967D01*
X015233Y010930D01*
X015253Y010891D01*
X015270Y010851D01*
X015283Y010809D01*
X015292Y010767D01*
X015298Y010724D01*
X015300Y010680D01*
X015300Y000680D01*
X015298Y000636D01*
X015292Y000593D01*
X015283Y000551D01*
X015270Y000509D01*
X015253Y000469D01*
X015233Y000430D01*
X015210Y000393D01*
X015183Y000359D01*
X015154Y000326D01*
X015121Y000297D01*
X015087Y000270D01*
X015050Y000247D01*
X015011Y000227D01*
X014971Y000210D01*
X014929Y000197D01*
X014887Y000188D01*
X014844Y000182D01*
X014800Y000180D01*
X001000Y000180D01*
X000956Y000182D01*
X000913Y000188D01*
X000871Y000197D01*
X000829Y000210D01*
X000789Y000227D01*
X000750Y000247D01*
X000713Y000270D01*
X000679Y000297D01*
X000646Y000326D01*
X000617Y000359D01*
X000590Y000393D01*
X000567Y000430D01*
X000547Y000469D01*
X000530Y000509D01*
X000517Y000551D01*
X000508Y000593D01*
X000502Y000636D01*
X000500Y000680D01*
X001780Y002837D02*
X001782Y002871D01*
X001788Y002905D01*
X001798Y002938D01*
X001811Y002969D01*
X001829Y002999D01*
X001849Y003027D01*
X001873Y003052D01*
X001899Y003074D01*
X001927Y003092D01*
X001958Y003108D01*
X001990Y003120D01*
X002024Y003128D01*
X002058Y003132D01*
X002092Y003132D01*
X002126Y003128D01*
X002160Y003120D01*
X002192Y003108D01*
X002222Y003092D01*
X002251Y003074D01*
X002277Y003052D01*
X002301Y003027D01*
X002321Y002999D01*
X002339Y002969D01*
X002352Y002938D01*
X002362Y002905D01*
X002368Y002871D01*
X002370Y002837D01*
X002368Y002803D01*
X002362Y002769D01*
X002352Y002736D01*
X002339Y002705D01*
X002321Y002675D01*
X002301Y002647D01*
X002277Y002622D01*
X002251Y002600D01*
X002223Y002582D01*
X002192Y002566D01*
X002160Y002554D01*
X002126Y002546D01*
X002092Y002542D01*
X002058Y002542D01*
X002024Y002546D01*
X001990Y002554D01*
X001958Y002566D01*
X001927Y002582D01*
X001899Y002600D01*
X001873Y002622D01*
X001849Y002647D01*
X001829Y002675D01*
X001811Y002705D01*
X001798Y002736D01*
X001788Y002769D01*
X001782Y002803D01*
X001780Y002837D01*
X002606Y006314D02*
X002608Y006341D01*
X002614Y006368D01*
X002623Y006394D01*
X002636Y006418D01*
X002652Y006441D01*
X002671Y006460D01*
X002693Y006477D01*
X002717Y006491D01*
X002742Y006501D01*
X002769Y006508D01*
X002796Y006511D01*
X002824Y006510D01*
X002851Y006505D01*
X002877Y006497D01*
X002901Y006485D01*
X002924Y006469D01*
X002945Y006451D01*
X002962Y006430D01*
X002977Y006406D01*
X002988Y006381D01*
X002996Y006355D01*
X003000Y006328D01*
X003000Y006300D01*
X002996Y006273D01*
X002988Y006247D01*
X002977Y006222D01*
X002962Y006198D01*
X002945Y006177D01*
X002924Y006159D01*
X002902Y006143D01*
X002877Y006131D01*
X002851Y006123D01*
X002824Y006118D01*
X002796Y006117D01*
X002769Y006120D01*
X002742Y006127D01*
X002717Y006137D01*
X002693Y006151D01*
X002671Y006168D01*
X002652Y006187D01*
X002636Y006210D01*
X002623Y006234D01*
X002614Y006260D01*
X002608Y006287D01*
X002606Y006314D01*
X002606Y008046D02*
X002608Y008073D01*
X002614Y008100D01*
X002623Y008126D01*
X002636Y008150D01*
X002652Y008173D01*
X002671Y008192D01*
X002693Y008209D01*
X002717Y008223D01*
X002742Y008233D01*
X002769Y008240D01*
X002796Y008243D01*
X002824Y008242D01*
X002851Y008237D01*
X002877Y008229D01*
X002901Y008217D01*
X002924Y008201D01*
X002945Y008183D01*
X002962Y008162D01*
X002977Y008138D01*
X002988Y008113D01*
X002996Y008087D01*
X003000Y008060D01*
X003000Y008032D01*
X002996Y008005D01*
X002988Y007979D01*
X002977Y007954D01*
X002962Y007930D01*
X002945Y007909D01*
X002924Y007891D01*
X002902Y007875D01*
X002877Y007863D01*
X002851Y007855D01*
X002824Y007850D01*
X002796Y007849D01*
X002769Y007852D01*
X002742Y007859D01*
X002717Y007869D01*
X002693Y007883D01*
X002671Y007900D01*
X002652Y007919D01*
X002636Y007942D01*
X002623Y007966D01*
X002614Y007992D01*
X002608Y008019D01*
X002606Y008046D01*
D11*
X004777Y005322D02*
X004853Y005322D01*
X004930Y005245D01*
X004930Y005015D01*
X004777Y005015D01*
X004700Y005091D01*
X004700Y005245D01*
X004777Y005322D01*
X005084Y005168D02*
X004930Y005015D01*
X005084Y005168D02*
X005160Y005322D01*
X005084Y004861D02*
X005160Y004784D01*
X005160Y004631D01*
X005084Y004554D01*
X004777Y004554D01*
X004700Y004631D01*
X004700Y004784D01*
X004777Y004861D01*
X006213Y006277D02*
X006289Y006200D01*
X006443Y006200D01*
X006520Y006277D01*
X006520Y006430D02*
X006366Y006507D01*
X006289Y006507D01*
X006213Y006430D01*
X006213Y006277D01*
X006520Y006430D02*
X006520Y006660D01*
X006213Y006660D01*
X006673Y006584D02*
X006673Y006430D01*
X006750Y006353D01*
X006980Y006353D01*
X006980Y006200D02*
X006980Y006660D01*
X006750Y006660D01*
X006673Y006584D01*
X006827Y006353D02*
X006673Y006200D01*
X007183Y005530D02*
X007183Y005454D01*
X007490Y005147D01*
X007490Y005070D01*
X007644Y005147D02*
X007721Y005070D01*
X007874Y005070D01*
X007951Y005147D01*
X007951Y005454D01*
X007874Y005530D01*
X007721Y005530D01*
X007644Y005454D01*
X007490Y005530D02*
X007183Y005530D01*
X007183Y004790D02*
X007490Y004790D01*
X007490Y004560D01*
X007337Y004637D01*
X007260Y004637D01*
X007183Y004560D01*
X007183Y004407D01*
X007260Y004330D01*
X007414Y004330D01*
X007490Y004407D01*
X007644Y004407D02*
X007721Y004330D01*
X007874Y004330D01*
X007951Y004407D01*
X007951Y004714D01*
X007874Y004790D01*
X007721Y004790D01*
X007644Y004714D01*
X007663Y007000D02*
X007970Y007000D01*
X007663Y007307D01*
X007663Y007384D01*
X007739Y007460D01*
X007893Y007460D01*
X007970Y007384D01*
X008123Y007384D02*
X008200Y007460D01*
X008353Y007460D01*
X008430Y007384D01*
X008430Y007077D01*
X008353Y007000D01*
X008200Y007000D01*
X008123Y007077D01*
X007553Y008750D02*
X007400Y008750D01*
X007323Y008827D01*
X007170Y008827D02*
X007093Y008750D01*
X006939Y008750D01*
X006863Y008827D01*
X006863Y008903D01*
X006939Y008980D01*
X007016Y008980D01*
X006939Y008980D02*
X006863Y009057D01*
X006863Y009134D01*
X006939Y009210D01*
X007093Y009210D01*
X007170Y009134D01*
X007323Y009134D02*
X007400Y009210D01*
X007553Y009210D01*
X007630Y009134D01*
X007630Y008827D01*
X007553Y008750D01*
X007253Y009800D02*
X007100Y009800D01*
X007023Y009877D01*
X007253Y009800D02*
X007330Y009877D01*
X007330Y010184D01*
X007253Y010260D01*
X007100Y010260D01*
X007023Y010184D01*
X006870Y010030D02*
X006563Y010030D01*
X006639Y009800D02*
X006639Y010260D01*
X006870Y010030D01*
X010483Y010330D02*
X010790Y010330D01*
X010560Y010560D01*
X010560Y010100D01*
X010944Y010100D02*
X011097Y010253D01*
X011021Y010253D02*
X011251Y010253D01*
X011021Y010253D02*
X010944Y010330D01*
X010944Y010484D01*
X011021Y010560D01*
X011251Y010560D01*
X011251Y010100D01*
X011351Y007460D02*
X011121Y007460D01*
X011044Y007384D01*
X011044Y007230D01*
X011121Y007153D01*
X011351Y007153D01*
X011351Y007000D02*
X011351Y007460D01*
X011197Y007153D02*
X011044Y007000D01*
X010890Y007000D02*
X010583Y007000D01*
X010737Y007000D02*
X010737Y007460D01*
X010890Y007307D01*
M02*
