G75*
G70*
%OFA0B0*%
%FSLAX24Y24*%
%IPPOS*%
%LPD*%
%AMOC8*
5,1,8,0,0,1.08239X$1,22.5*
%
%ADD10R,0.0170X0.0550*%
%ADD11R,0.1120X0.0650*%
%ADD12R,0.0320X0.0120*%
%ADD13R,0.0250X0.0940*%
%ADD14R,0.0886X0.0197*%
%ADD15R,0.0984X0.0787*%
%ADD16R,0.0276X0.0354*%
%ADD17R,0.0354X0.0276*%
%ADD18R,0.0394X0.1811*%
%ADD19R,0.0630X0.1339*%
%ADD20R,0.0480X0.0200*%
%ADD21R,0.0315X0.0315*%
%ADD22R,0.2244X0.0984*%
%ADD23R,0.0630X0.0866*%
%ADD24R,0.0512X0.0591*%
%ADD25C,0.0886*%
%ADD26C,0.0600*%
%ADD27C,0.0160*%
%ADD28C,0.0270*%
%ADD29C,0.0100*%
%ADD30C,0.0240*%
%ADD31C,0.0320*%
%ADD32C,0.0120*%
D10*
X008860Y007270D03*
X009120Y007270D03*
X009370Y007270D03*
X009630Y007270D03*
X009880Y007270D03*
X010140Y007270D03*
X010140Y008990D03*
X009880Y008990D03*
X009630Y008990D03*
X009370Y008990D03*
X009120Y008990D03*
X008860Y008990D03*
D11*
X009500Y008130D03*
D12*
X012430Y004770D03*
X012430Y004580D03*
X012430Y004380D03*
X012430Y004180D03*
X012430Y003990D03*
X013170Y003990D03*
X013170Y004180D03*
X013170Y004380D03*
X013170Y004580D03*
X013170Y004770D03*
D13*
X012800Y004380D03*
D14*
X003864Y006550D03*
X003864Y006865D03*
X003864Y007180D03*
X003864Y007495D03*
X003864Y007810D03*
D15*
X003815Y008932D03*
X001669Y008932D03*
X001669Y005428D03*
X003815Y005428D03*
D16*
X009844Y009980D03*
X010356Y009980D03*
X010356Y010480D03*
X009844Y010480D03*
X012544Y005255D03*
X013056Y005255D03*
X011306Y004380D03*
X010794Y004380D03*
X012544Y003505D03*
X013056Y003505D03*
D17*
X009350Y010174D03*
X009350Y010686D03*
D18*
X008571Y003105D03*
X007783Y003105D03*
D19*
X006839Y001058D03*
X009516Y001058D03*
D20*
X006470Y004560D03*
X006470Y005300D03*
X005530Y005300D03*
X005530Y004930D03*
X005530Y004560D03*
D21*
X006280Y005880D03*
X006871Y005880D03*
D22*
X007300Y007047D03*
X007300Y009213D03*
D23*
X010499Y005380D03*
X011601Y005380D03*
X011601Y003380D03*
X010499Y003380D03*
D24*
X012501Y002930D03*
X013249Y002930D03*
X013249Y005830D03*
X012501Y005830D03*
D25*
X005224Y003172D03*
X004043Y003487D03*
X002075Y003822D03*
X005067Y001755D03*
X002075Y001026D03*
D26*
X014450Y000780D03*
X014450Y001780D03*
X014450Y002780D03*
X014450Y003780D03*
X014450Y004780D03*
X014450Y005780D03*
X014450Y006780D03*
X014450Y007780D03*
D27*
X000735Y000627D02*
X000776Y000530D01*
X000850Y000456D01*
X000947Y000415D01*
X001000Y000410D01*
X006384Y000410D01*
X006384Y001785D01*
X006466Y001867D01*
X007212Y001867D01*
X007294Y001785D01*
X007294Y000410D01*
X009061Y000410D01*
X009061Y001785D01*
X009143Y001867D01*
X009889Y001867D01*
X009971Y001785D01*
X009971Y000410D01*
X014143Y000410D01*
X014137Y000414D01*
X014084Y000467D01*
X014039Y000528D01*
X014005Y000596D01*
X013982Y000668D01*
X013970Y000742D01*
X013970Y000760D01*
X014430Y000760D01*
X014430Y000800D01*
X014430Y001260D01*
X014412Y001260D01*
X014338Y001248D01*
X014266Y001225D01*
X014198Y001191D01*
X014137Y001146D01*
X014084Y001093D01*
X014039Y001032D01*
X014005Y000964D01*
X013982Y000892D01*
X013970Y000818D01*
X013970Y000800D01*
X014430Y000800D01*
X014470Y000800D01*
X014470Y001260D01*
X014488Y001260D01*
X014562Y001248D01*
X014634Y001225D01*
X014702Y001191D01*
X014763Y001146D01*
X014816Y001093D01*
X014861Y001032D01*
X014895Y000964D01*
X014918Y000892D01*
X014930Y000818D01*
X014930Y000800D01*
X014470Y000800D01*
X014470Y000760D01*
X014930Y000760D01*
X014930Y000742D01*
X014918Y000668D01*
X014895Y000596D01*
X014861Y000528D01*
X014816Y000467D01*
X014763Y000414D01*
X014757Y000410D01*
X014800Y000410D01*
X014853Y000415D01*
X014950Y000456D01*
X015024Y000530D01*
X015065Y000627D01*
X015070Y000680D01*
X015070Y010680D01*
X015065Y010733D01*
X015024Y010830D01*
X014950Y010904D01*
X014853Y010945D01*
X014800Y010950D01*
X010019Y010950D01*
X010025Y010935D01*
X010025Y010825D01*
X010013Y010797D01*
X010040Y010797D01*
X010072Y010765D01*
X010074Y010768D01*
X010108Y010801D01*
X010149Y010825D01*
X010194Y010837D01*
X010356Y010837D01*
X010356Y010480D01*
X010674Y010480D01*
X010674Y010681D01*
X010661Y010727D01*
X010638Y010768D01*
X010604Y010801D01*
X010563Y010825D01*
X010517Y010837D01*
X010356Y010837D01*
X010356Y010480D01*
X010356Y010480D01*
X010674Y010480D01*
X010674Y010279D01*
X010661Y010233D01*
X010659Y010230D01*
X010661Y010227D01*
X010674Y010181D01*
X010674Y009980D01*
X010356Y009980D01*
X010356Y009980D01*
X010674Y009980D01*
X010674Y009779D01*
X010661Y009733D01*
X010638Y009692D01*
X010604Y009659D01*
X010563Y009635D01*
X010517Y009623D01*
X010375Y009623D01*
X010375Y009525D01*
X010333Y009424D01*
X010324Y009415D01*
X010336Y009409D01*
X010369Y009376D01*
X010393Y009334D01*
X010405Y009289D01*
X010405Y008990D01*
X010140Y008990D01*
X010140Y008990D01*
X010405Y008990D01*
X010405Y008730D01*
X010420Y008694D01*
X010420Y007566D01*
X010371Y007449D01*
X010365Y007442D01*
X010365Y006954D01*
X010433Y006886D01*
X010475Y006785D01*
X010475Y006675D01*
X010433Y006574D01*
X010356Y006497D01*
X010255Y006455D01*
X010145Y006455D01*
X010044Y006497D01*
X009967Y006574D01*
X009925Y006675D01*
X009925Y006694D01*
X009920Y006699D01*
X009920Y006815D01*
X009880Y006815D01*
X009880Y007270D01*
X009880Y007270D01*
X009880Y006815D01*
X009850Y006815D01*
X009850Y006769D01*
X009800Y006719D01*
X009800Y005680D01*
X010044Y005680D01*
X010044Y005871D01*
X010126Y005953D01*
X010872Y005953D01*
X010954Y005871D01*
X010954Y005293D01*
X011146Y005100D01*
X011146Y005871D01*
X011228Y005953D01*
X011974Y005953D01*
X012056Y005871D01*
X012056Y004889D01*
X011974Y004807D01*
X011956Y004807D01*
X011983Y004780D01*
X012130Y004780D01*
X012130Y004888D01*
X012212Y004970D01*
X012230Y004970D01*
X012230Y005224D01*
X012266Y005260D01*
X012266Y005395D01*
X012187Y005395D01*
X012105Y005477D01*
X012105Y006183D01*
X012187Y006265D01*
X012815Y006265D01*
X012847Y006233D01*
X012849Y006236D01*
X012883Y006269D01*
X012924Y006293D01*
X012969Y006305D01*
X013201Y006305D01*
X013201Y005878D01*
X013297Y005878D01*
X013297Y006305D01*
X013529Y006305D01*
X013574Y006293D01*
X013615Y006269D01*
X013649Y006236D01*
X013673Y006195D01*
X013685Y006149D01*
X013685Y005878D01*
X013297Y005878D01*
X013297Y005782D01*
X013685Y005782D01*
X013685Y005511D01*
X013673Y005465D01*
X013649Y005424D01*
X013615Y005391D01*
X013574Y005367D01*
X013529Y005355D01*
X013334Y005355D01*
X013334Y005260D01*
X013370Y005224D01*
X013370Y004970D01*
X013388Y004970D01*
X013398Y004960D01*
X014048Y004960D01*
X014077Y005029D01*
X014201Y005153D01*
X014362Y005220D01*
X014538Y005220D01*
X014699Y005153D01*
X014823Y005029D01*
X014890Y004868D01*
X014890Y004692D01*
X014823Y004531D01*
X014699Y004407D01*
X014538Y004340D01*
X014362Y004340D01*
X014201Y004407D01*
X014170Y004438D01*
X014170Y004216D01*
X014142Y004150D01*
X014198Y004191D01*
X014266Y004225D01*
X014338Y004248D01*
X014412Y004260D01*
X014430Y004260D01*
X014430Y003800D01*
X014470Y003800D01*
X014470Y004260D01*
X014488Y004260D01*
X014562Y004248D01*
X014634Y004225D01*
X014702Y004191D01*
X014763Y004146D01*
X014816Y004093D01*
X014861Y004032D01*
X014895Y003964D01*
X014918Y003892D01*
X014930Y003818D01*
X014930Y003800D01*
X014470Y003800D01*
X014470Y003760D01*
X014930Y003760D01*
X014930Y003742D01*
X014918Y003668D01*
X014895Y003596D01*
X014861Y003528D01*
X014816Y003467D01*
X014763Y003414D01*
X014702Y003369D01*
X014634Y003335D01*
X014562Y003312D01*
X014488Y003300D01*
X014470Y003300D01*
X014470Y003760D01*
X014430Y003760D01*
X014430Y003300D01*
X014412Y003300D01*
X014338Y003312D01*
X014266Y003335D01*
X014198Y003369D01*
X014137Y003414D01*
X014084Y003467D01*
X014039Y003528D01*
X014005Y003596D01*
X013982Y003666D01*
X013955Y003655D01*
X013845Y003655D01*
X013843Y003656D01*
X014303Y003195D01*
X014362Y003220D01*
X014538Y003220D01*
X014699Y003153D01*
X014823Y003029D01*
X014890Y002868D01*
X014890Y002692D01*
X014823Y002531D01*
X014699Y002407D01*
X014538Y002340D01*
X014362Y002340D01*
X014201Y002407D01*
X014077Y002531D01*
X014010Y002692D01*
X014010Y002868D01*
X014035Y002927D01*
X013675Y003286D01*
X013685Y003249D01*
X013685Y002978D01*
X013297Y002978D01*
X013297Y002882D01*
X013297Y002455D01*
X013529Y002455D01*
X013574Y002467D01*
X013615Y002491D01*
X013649Y002524D01*
X013673Y002565D01*
X013685Y002611D01*
X013685Y002882D01*
X013297Y002882D01*
X013201Y002882D01*
X013201Y002455D01*
X012969Y002455D01*
X012924Y002467D01*
X012883Y002491D01*
X012849Y002524D01*
X012847Y002527D01*
X012815Y002495D01*
X012187Y002495D01*
X012105Y002577D01*
X012105Y003283D01*
X012187Y003365D01*
X012266Y003365D01*
X012266Y003500D01*
X012230Y003536D01*
X012230Y003790D01*
X012212Y003790D01*
X012130Y003872D01*
X012130Y003980D01*
X011983Y003980D01*
X011956Y003953D01*
X011974Y003953D01*
X012056Y003871D01*
X012056Y002889D01*
X011974Y002807D01*
X011228Y002807D01*
X011146Y002889D01*
X011146Y003660D01*
X010954Y003467D01*
X010954Y002889D01*
X010872Y002807D01*
X010126Y002807D01*
X010044Y002889D01*
X010044Y003871D01*
X010126Y003953D01*
X010704Y003953D01*
X010774Y004023D01*
X010633Y004023D01*
X010587Y004035D01*
X010546Y004059D01*
X010512Y004092D01*
X010489Y004133D01*
X010476Y004179D01*
X010476Y004380D01*
X010794Y004380D01*
X010794Y004380D01*
X010476Y004380D01*
X010476Y004581D01*
X010489Y004627D01*
X010512Y004668D01*
X010546Y004701D01*
X010587Y004725D01*
X010633Y004737D01*
X010774Y004737D01*
X010704Y004807D01*
X010126Y004807D01*
X010044Y004889D01*
X010044Y005080D01*
X008682Y005080D01*
X008083Y004482D01*
X008083Y004106D01*
X008120Y004069D01*
X008120Y002142D01*
X008038Y002060D01*
X007529Y002060D01*
X007447Y002142D01*
X007447Y004069D01*
X007483Y004106D01*
X007483Y004595D01*
X007000Y005078D01*
X006786Y005078D01*
X006768Y005060D01*
X006172Y005060D01*
X006160Y005072D01*
X006156Y005067D01*
X006055Y005025D01*
X005950Y005025D01*
X005950Y004930D01*
X005530Y004930D01*
X005530Y004930D01*
X005950Y004930D01*
X005950Y004835D01*
X006055Y004835D01*
X006156Y004793D01*
X006160Y004788D01*
X006172Y004800D01*
X006768Y004800D01*
X006850Y004718D01*
X006850Y004402D01*
X006768Y004320D01*
X006272Y004320D01*
X006272Y002018D01*
X006232Y001922D01*
X006159Y001849D01*
X005844Y001534D01*
X005749Y001495D01*
X005590Y001495D01*
X005561Y001425D01*
X005397Y001261D01*
X005183Y001172D01*
X004951Y001172D01*
X004737Y001261D01*
X004573Y001425D01*
X004484Y001639D01*
X004484Y001871D01*
X004573Y002085D01*
X004737Y002249D01*
X004951Y002338D01*
X005183Y002338D01*
X005397Y002249D01*
X005561Y002085D01*
X005590Y002016D01*
X005752Y002177D01*
X005752Y002838D01*
X005700Y002766D01*
X005630Y002697D01*
X005551Y002639D01*
X005464Y002595D01*
X005370Y002565D01*
X005292Y002552D01*
X005292Y003104D01*
X005157Y003104D01*
X005157Y002552D01*
X005079Y002565D01*
X004985Y002595D01*
X004898Y002639D01*
X004819Y002697D01*
X004749Y002766D01*
X004692Y002846D01*
X004647Y002933D01*
X004617Y003026D01*
X004604Y003104D01*
X005157Y003104D01*
X005157Y003240D01*
X005157Y003792D01*
X005079Y003780D01*
X004985Y003749D01*
X004898Y003705D01*
X004819Y003647D01*
X004749Y003578D01*
X004692Y003499D01*
X004651Y003419D01*
X004111Y003419D01*
X004111Y002867D01*
X004189Y002880D01*
X004282Y002910D01*
X004370Y002954D01*
X004449Y003012D01*
X004518Y003081D01*
X004576Y003161D01*
X004616Y003240D01*
X005157Y003240D01*
X005292Y003240D01*
X005292Y003792D01*
X005370Y003780D01*
X005464Y003749D01*
X005551Y003705D01*
X005630Y003647D01*
X005700Y003578D01*
X005752Y003506D01*
X005752Y004320D01*
X005232Y004320D01*
X005182Y004370D01*
X005141Y004370D01*
X005071Y004440D01*
X004960Y004551D01*
X004960Y005759D01*
X005160Y005959D01*
X005271Y006070D01*
X005983Y006070D01*
X005983Y006095D01*
X006065Y006177D01*
X006495Y006177D01*
X006575Y006098D01*
X006655Y006177D01*
X007086Y006177D01*
X007134Y006130D01*
X007195Y006155D01*
X007305Y006155D01*
X007406Y006113D01*
X007483Y006036D01*
X007525Y005935D01*
X007525Y005825D01*
X007483Y005724D01*
X007406Y005647D01*
X007305Y005605D01*
X007195Y005605D01*
X007134Y005630D01*
X007086Y005583D01*
X006655Y005583D01*
X006575Y005662D01*
X006495Y005583D01*
X006065Y005583D01*
X005983Y005665D01*
X005983Y005690D01*
X005803Y005690D01*
X005805Y005685D01*
X005805Y005575D01*
X005790Y005540D01*
X005828Y005540D01*
X005840Y005528D01*
X005844Y005533D01*
X005945Y005575D01*
X006055Y005575D01*
X006156Y005533D01*
X006160Y005528D01*
X006172Y005540D01*
X006768Y005540D01*
X006790Y005518D01*
X007182Y005518D01*
X007311Y005389D01*
X007727Y004974D01*
X008388Y005634D01*
X008498Y005680D01*
X009200Y005680D01*
X009200Y006619D01*
X009120Y006539D01*
X008991Y006410D01*
X007509Y006410D01*
X007504Y006415D01*
X006120Y006415D01*
X006038Y006497D01*
X006038Y007597D01*
X006120Y007679D01*
X008480Y007679D01*
X008562Y007597D01*
X008562Y006850D01*
X008666Y006850D01*
X008664Y006851D01*
X008631Y006884D01*
X008607Y006926D01*
X008595Y006971D01*
X008595Y007270D01*
X008860Y007270D01*
X008860Y007270D01*
X008595Y007270D01*
X008595Y007530D01*
X008580Y007566D01*
X008580Y008694D01*
X008595Y008730D01*
X008595Y008990D01*
X008860Y008990D01*
X008860Y008990D01*
X008595Y008990D01*
X008595Y009289D01*
X008607Y009334D01*
X008631Y009376D01*
X008664Y009409D01*
X008666Y009410D01*
X008562Y009410D01*
X008562Y008663D01*
X008480Y008581D01*
X006120Y008581D01*
X006038Y008663D01*
X006038Y009763D01*
X006120Y009845D01*
X007721Y009845D01*
X007726Y009850D01*
X007740Y009850D01*
X007750Y009858D01*
X007829Y009850D01*
X008991Y009850D01*
X009090Y009751D01*
X009090Y009921D01*
X009033Y009978D01*
X009033Y010370D01*
X009093Y010430D01*
X009033Y010490D01*
X009033Y010882D01*
X009101Y010950D01*
X001000Y010950D01*
X000947Y010945D01*
X000850Y010904D01*
X000776Y010830D01*
X000735Y010733D01*
X000730Y010680D01*
X000730Y000680D01*
X000735Y000627D01*
X000732Y000656D02*
X001621Y000656D01*
X001581Y000696D02*
X001745Y000532D01*
X001959Y000444D01*
X002191Y000444D01*
X002405Y000532D01*
X002569Y000696D01*
X002658Y000911D01*
X002658Y001142D01*
X002569Y001357D01*
X002405Y001521D01*
X002191Y001609D01*
X001959Y001609D01*
X001745Y001521D01*
X001581Y001357D01*
X001492Y001142D01*
X001492Y000911D01*
X001581Y000696D01*
X001532Y000814D02*
X000730Y000814D01*
X000730Y000973D02*
X001492Y000973D01*
X001492Y001131D02*
X000730Y001131D01*
X000730Y001290D02*
X001553Y001290D01*
X001672Y001448D02*
X000730Y001448D01*
X000730Y001607D02*
X001952Y001607D01*
X002198Y001607D02*
X004497Y001607D01*
X004484Y001765D02*
X000730Y001765D01*
X000730Y001924D02*
X004506Y001924D01*
X004572Y002082D02*
X000730Y002082D01*
X000730Y002241D02*
X004728Y002241D01*
X005123Y002558D02*
X002527Y002558D01*
X002520Y002540D02*
X002600Y002733D01*
X002600Y002942D01*
X002520Y003135D01*
X002372Y003283D01*
X002335Y003298D01*
X002405Y003328D01*
X002569Y003492D01*
X002658Y003706D01*
X002658Y003938D01*
X002569Y004152D01*
X002405Y004316D01*
X002191Y004405D01*
X001959Y004405D01*
X001745Y004316D01*
X001581Y004152D01*
X001492Y003938D01*
X001492Y003706D01*
X001581Y003492D01*
X001745Y003328D01*
X001815Y003298D01*
X001777Y003283D01*
X001629Y003135D01*
X001550Y002942D01*
X001550Y002733D01*
X001629Y002540D01*
X001777Y002392D01*
X001970Y002312D01*
X002179Y002312D01*
X002372Y002392D01*
X002520Y002540D01*
X002593Y002716D02*
X004800Y002716D01*
X004677Y002875D02*
X004158Y002875D01*
X004111Y002875D02*
X003976Y002875D01*
X003976Y002867D02*
X003976Y003419D01*
X004111Y003419D01*
X004111Y003555D01*
X003976Y003555D01*
X003976Y004107D01*
X003897Y004095D01*
X003804Y004064D01*
X003717Y004020D01*
X003638Y003962D01*
X003568Y003893D01*
X003511Y003814D01*
X003466Y003726D01*
X003436Y003633D01*
X003423Y003555D01*
X003976Y003555D01*
X003976Y003419D01*
X003423Y003419D01*
X003436Y003341D01*
X003466Y003248D01*
X003511Y003161D01*
X003568Y003081D01*
X003638Y003012D01*
X003717Y002954D01*
X003804Y002910D01*
X003897Y002880D01*
X003976Y002867D01*
X003929Y002875D02*
X002600Y002875D01*
X002562Y003033D02*
X003616Y003033D01*
X003495Y003192D02*
X002464Y003192D01*
X002427Y003350D02*
X003434Y003350D01*
X003447Y003667D02*
X002642Y003667D01*
X002658Y003826D02*
X003519Y003826D01*
X003667Y003984D02*
X002639Y003984D01*
X002573Y004143D02*
X005752Y004143D01*
X005752Y004301D02*
X002420Y004301D01*
X001730Y004301D02*
X000730Y004301D01*
X000730Y004143D02*
X001577Y004143D01*
X001511Y003984D02*
X000730Y003984D01*
X000730Y003826D02*
X001492Y003826D01*
X001508Y003667D02*
X000730Y003667D01*
X000730Y003509D02*
X001574Y003509D01*
X001722Y003350D02*
X000730Y003350D01*
X000730Y003192D02*
X001686Y003192D01*
X001587Y003033D02*
X000730Y003033D01*
X000730Y002875D02*
X001550Y002875D01*
X001557Y002716D02*
X000730Y002716D01*
X000730Y002558D02*
X001622Y002558D01*
X001770Y002399D02*
X000730Y002399D01*
X002379Y002399D02*
X005752Y002399D01*
X005752Y002558D02*
X005326Y002558D01*
X005292Y002558D02*
X005157Y002558D01*
X005157Y002716D02*
X005292Y002716D01*
X005292Y002875D02*
X005157Y002875D01*
X005157Y003033D02*
X005292Y003033D01*
X005157Y003192D02*
X004592Y003192D01*
X004616Y003033D02*
X004470Y003033D01*
X004111Y003033D02*
X003976Y003033D01*
X003976Y003192D02*
X004111Y003192D01*
X004111Y003350D02*
X003976Y003350D01*
X003976Y003509D02*
X002576Y003509D01*
X003976Y003667D02*
X004111Y003667D01*
X004111Y003555D02*
X004111Y004107D01*
X004189Y004095D01*
X004282Y004064D01*
X004370Y004020D01*
X004449Y003962D01*
X004518Y003893D01*
X004576Y003814D01*
X004621Y003726D01*
X004651Y003633D01*
X004663Y003555D01*
X004111Y003555D01*
X004111Y003509D02*
X004699Y003509D01*
X004640Y003667D02*
X004846Y003667D01*
X005157Y003667D02*
X005292Y003667D01*
X005292Y003509D02*
X005157Y003509D01*
X005157Y003350D02*
X005292Y003350D01*
X005603Y003667D02*
X005752Y003667D01*
X005752Y003826D02*
X004567Y003826D01*
X004419Y003984D02*
X005752Y003984D01*
X006272Y003984D02*
X007447Y003984D01*
X007447Y003826D02*
X006272Y003826D01*
X006272Y003667D02*
X007447Y003667D01*
X007447Y003509D02*
X006272Y003509D01*
X006272Y003350D02*
X007447Y003350D01*
X007447Y003192D02*
X006272Y003192D01*
X006272Y003033D02*
X007447Y003033D01*
X007447Y002875D02*
X006272Y002875D01*
X006272Y002716D02*
X007447Y002716D01*
X007447Y002558D02*
X006272Y002558D01*
X006272Y002399D02*
X007447Y002399D01*
X007447Y002241D02*
X006272Y002241D01*
X006272Y002082D02*
X007506Y002082D01*
X007294Y001765D02*
X009061Y001765D01*
X009061Y001607D02*
X007294Y001607D01*
X007294Y001448D02*
X009061Y001448D01*
X009061Y001290D02*
X007294Y001290D01*
X007294Y001131D02*
X009061Y001131D01*
X009061Y000973D02*
X007294Y000973D01*
X007294Y000814D02*
X009061Y000814D01*
X009061Y000656D02*
X007294Y000656D01*
X007294Y000497D02*
X009061Y000497D01*
X009971Y000497D02*
X014062Y000497D01*
X013986Y000656D02*
X009971Y000656D01*
X009971Y000814D02*
X013970Y000814D01*
X014009Y000973D02*
X009971Y000973D01*
X009971Y001131D02*
X014122Y001131D01*
X014201Y001407D02*
X014362Y001340D01*
X014538Y001340D01*
X014699Y001407D01*
X014823Y001531D01*
X014890Y001692D01*
X014890Y001868D01*
X014823Y002029D01*
X014699Y002153D01*
X014538Y002220D01*
X014362Y002220D01*
X014201Y002153D01*
X014077Y002029D01*
X014010Y001868D01*
X014010Y001692D01*
X014077Y001531D01*
X014201Y001407D01*
X014160Y001448D02*
X009971Y001448D01*
X009971Y001290D02*
X015070Y001290D01*
X015070Y001448D02*
X014740Y001448D01*
X014854Y001607D02*
X015070Y001607D01*
X015070Y001765D02*
X014890Y001765D01*
X014867Y001924D02*
X015070Y001924D01*
X015070Y002082D02*
X014770Y002082D01*
X015070Y002241D02*
X008948Y002241D01*
X008948Y002176D02*
X008948Y003087D01*
X008589Y003087D01*
X008589Y002020D01*
X008791Y002020D01*
X008837Y002032D01*
X008878Y002056D01*
X008912Y002089D01*
X008935Y002130D01*
X008948Y002176D01*
X008905Y002082D02*
X014130Y002082D01*
X014033Y001924D02*
X006233Y001924D01*
X006384Y001765D02*
X006075Y001765D01*
X005916Y001607D02*
X006384Y001607D01*
X006384Y001448D02*
X005571Y001448D01*
X005426Y001290D02*
X006384Y001290D01*
X006384Y001131D02*
X002658Y001131D01*
X002658Y000973D02*
X006384Y000973D01*
X006384Y000814D02*
X002618Y000814D01*
X002528Y000656D02*
X006384Y000656D01*
X006384Y000497D02*
X002320Y000497D01*
X001830Y000497D02*
X000808Y000497D01*
X002478Y001448D02*
X004563Y001448D01*
X004708Y001290D02*
X002597Y001290D01*
X005406Y002241D02*
X005752Y002241D01*
X005656Y002082D02*
X005562Y002082D01*
X005649Y002716D02*
X005752Y002716D01*
X005750Y003509D02*
X005752Y003509D01*
X006272Y004143D02*
X007483Y004143D01*
X007483Y004301D02*
X006272Y004301D01*
X006470Y004560D02*
X006000Y004560D01*
X005950Y004935D02*
X007143Y004935D01*
X007302Y004777D02*
X006791Y004777D01*
X006850Y004618D02*
X007460Y004618D01*
X007483Y004460D02*
X006850Y004460D01*
X007607Y005094D02*
X007847Y005094D01*
X008005Y005252D02*
X007449Y005252D01*
X007290Y005411D02*
X008164Y005411D01*
X008322Y005569D02*
X006069Y005569D01*
X005931Y005569D02*
X005802Y005569D01*
X005530Y005630D02*
X005530Y005300D01*
X006000Y005300D02*
X006470Y005300D01*
X006472Y005298D01*
X007091Y005298D01*
X007783Y004606D01*
X008083Y004460D02*
X010476Y004460D01*
X010486Y004618D02*
X008220Y004618D01*
X008378Y004777D02*
X010735Y004777D01*
X010476Y004301D02*
X008083Y004301D01*
X008083Y004143D02*
X008251Y004143D01*
X008263Y004155D02*
X008230Y004121D01*
X008206Y004080D01*
X008194Y004034D01*
X008194Y003124D01*
X008552Y003124D01*
X008552Y003087D01*
X008194Y003087D01*
X008194Y002176D01*
X008206Y002130D01*
X008230Y002089D01*
X008263Y002056D01*
X008305Y002032D01*
X008350Y002020D01*
X008552Y002020D01*
X008552Y003087D01*
X008589Y003087D01*
X008589Y003124D01*
X008552Y003124D01*
X008552Y004191D01*
X008350Y004191D01*
X008305Y004178D01*
X008263Y004155D01*
X008194Y003984D02*
X008120Y003984D01*
X008120Y003826D02*
X008194Y003826D01*
X008194Y003667D02*
X008120Y003667D01*
X008120Y003509D02*
X008194Y003509D01*
X008194Y003350D02*
X008120Y003350D01*
X008120Y003192D02*
X008194Y003192D01*
X008194Y003033D02*
X008120Y003033D01*
X008120Y002875D02*
X008194Y002875D01*
X008194Y002716D02*
X008120Y002716D01*
X008120Y002558D02*
X008194Y002558D01*
X008194Y002399D02*
X008120Y002399D01*
X008120Y002241D02*
X008194Y002241D01*
X008237Y002082D02*
X008061Y002082D01*
X008552Y002082D02*
X008589Y002082D01*
X008589Y002241D02*
X008552Y002241D01*
X008552Y002399D02*
X008589Y002399D01*
X008589Y002558D02*
X008552Y002558D01*
X008552Y002716D02*
X008589Y002716D01*
X008589Y002875D02*
X008552Y002875D01*
X008552Y003033D02*
X008589Y003033D01*
X008589Y003124D02*
X008948Y003124D01*
X008948Y004034D01*
X008935Y004080D01*
X008912Y004121D01*
X008878Y004155D01*
X008837Y004178D01*
X008791Y004191D01*
X008589Y004191D01*
X008589Y003124D01*
X008589Y003192D02*
X008552Y003192D01*
X008552Y003350D02*
X008589Y003350D01*
X008589Y003509D02*
X008552Y003509D01*
X008552Y003667D02*
X008589Y003667D01*
X008589Y003826D02*
X008552Y003826D01*
X008552Y003984D02*
X008589Y003984D01*
X008589Y004143D02*
X008552Y004143D01*
X008890Y004143D02*
X010486Y004143D01*
X010735Y003984D02*
X008948Y003984D01*
X008948Y003826D02*
X010044Y003826D01*
X010044Y003667D02*
X008948Y003667D01*
X008948Y003509D02*
X010044Y003509D01*
X010044Y003350D02*
X008948Y003350D01*
X008948Y003192D02*
X010044Y003192D01*
X010044Y003033D02*
X008948Y003033D01*
X008948Y002875D02*
X010058Y002875D01*
X010939Y002875D02*
X011161Y002875D01*
X011146Y003033D02*
X010954Y003033D01*
X010954Y003192D02*
X011146Y003192D01*
X011146Y003350D02*
X010954Y003350D01*
X010995Y003509D02*
X011146Y003509D01*
X012056Y003509D02*
X012258Y003509D01*
X012172Y003350D02*
X012056Y003350D01*
X012056Y003192D02*
X012105Y003192D01*
X012105Y003033D02*
X012056Y003033D01*
X012042Y002875D02*
X012105Y002875D01*
X012105Y002716D02*
X008948Y002716D01*
X008948Y002558D02*
X012124Y002558D01*
X013201Y002558D02*
X013297Y002558D01*
X013297Y002716D02*
X013201Y002716D01*
X013201Y002875D02*
X013297Y002875D01*
X013685Y002875D02*
X014013Y002875D01*
X013928Y003033D02*
X013685Y003033D01*
X013685Y003192D02*
X013770Y003192D01*
X013990Y003509D02*
X014054Y003509D01*
X014149Y003350D02*
X014237Y003350D01*
X014430Y003350D02*
X014470Y003350D01*
X014470Y003509D02*
X014430Y003509D01*
X014663Y003350D02*
X015070Y003350D01*
X015070Y003192D02*
X014606Y003192D01*
X014819Y003033D02*
X015070Y003033D01*
X015070Y002875D02*
X014887Y002875D01*
X014890Y002716D02*
X015070Y002716D01*
X015070Y002558D02*
X014834Y002558D01*
X014680Y002399D02*
X015070Y002399D01*
X014220Y002399D02*
X008948Y002399D01*
X009971Y001765D02*
X014010Y001765D01*
X014046Y001607D02*
X009971Y001607D01*
X012056Y003667D02*
X012230Y003667D01*
X012177Y003826D02*
X012056Y003826D01*
X012056Y004935D02*
X012177Y004935D01*
X012230Y005094D02*
X012056Y005094D01*
X012056Y005252D02*
X012258Y005252D01*
X012171Y005411D02*
X012056Y005411D01*
X012056Y005569D02*
X012105Y005569D01*
X012105Y005728D02*
X012056Y005728D01*
X012041Y005886D02*
X012105Y005886D01*
X012105Y006045D02*
X009800Y006045D01*
X009800Y006203D02*
X012125Y006203D01*
X011161Y005886D02*
X010939Y005886D01*
X010954Y005728D02*
X011146Y005728D01*
X011146Y005569D02*
X010954Y005569D01*
X010954Y005411D02*
X011146Y005411D01*
X011146Y005252D02*
X010995Y005252D01*
X010044Y004935D02*
X008537Y004935D01*
X009200Y005728D02*
X007484Y005728D01*
X007525Y005886D02*
X009200Y005886D01*
X009200Y006045D02*
X007474Y006045D01*
X007600Y006630D02*
X007400Y006830D01*
X007300Y007047D01*
X007600Y006630D02*
X008900Y006630D01*
X009120Y006850D01*
X009120Y007270D01*
X009370Y007270D02*
X009370Y006860D01*
X009500Y006730D01*
X009630Y006860D01*
X009630Y007270D01*
X009880Y007154D02*
X009880Y007154D01*
X009880Y006996D02*
X009880Y006996D01*
X009880Y006837D02*
X009880Y006837D01*
X009925Y006679D02*
X009800Y006679D01*
X009800Y006520D02*
X010021Y006520D01*
X009800Y006362D02*
X014311Y006362D01*
X014362Y006340D02*
X014538Y006340D01*
X014699Y006407D01*
X014823Y006531D01*
X014890Y006692D01*
X014890Y006868D01*
X014823Y007029D01*
X014750Y007102D01*
X014750Y007458D01*
X014823Y007531D01*
X014890Y007692D01*
X014890Y007868D01*
X014823Y008029D01*
X014699Y008153D01*
X014538Y008220D01*
X014362Y008220D01*
X014201Y008153D01*
X014077Y008029D01*
X014010Y007868D01*
X014010Y007692D01*
X014077Y007531D01*
X014150Y007458D01*
X014150Y007102D01*
X014077Y007029D01*
X014010Y006868D01*
X014010Y006692D01*
X014077Y006531D01*
X014201Y006407D01*
X014362Y006340D01*
X014412Y006260D02*
X014338Y006248D01*
X014266Y006225D01*
X014198Y006191D01*
X014137Y006146D01*
X014084Y006093D01*
X014039Y006032D01*
X014005Y005964D01*
X013982Y005892D01*
X013970Y005818D01*
X013970Y005800D01*
X014430Y005800D01*
X014430Y006260D01*
X014412Y006260D01*
X014470Y006260D02*
X014488Y006260D01*
X014562Y006248D01*
X014634Y006225D01*
X014702Y006191D01*
X014763Y006146D01*
X014816Y006093D01*
X014861Y006032D01*
X014895Y005964D01*
X014918Y005892D01*
X014930Y005818D01*
X014930Y005800D01*
X014470Y005800D01*
X014470Y005760D01*
X014930Y005760D01*
X014930Y005742D01*
X014918Y005668D01*
X014895Y005596D01*
X014861Y005528D01*
X014816Y005467D01*
X014763Y005414D01*
X014702Y005369D01*
X014634Y005335D01*
X014562Y005312D01*
X014488Y005300D01*
X014470Y005300D01*
X014470Y005760D01*
X014430Y005760D01*
X014430Y005300D01*
X014412Y005300D01*
X014338Y005312D01*
X014266Y005335D01*
X014198Y005369D01*
X014137Y005414D01*
X014084Y005467D01*
X014039Y005528D01*
X014005Y005596D01*
X013982Y005668D01*
X013970Y005742D01*
X013970Y005760D01*
X014430Y005760D01*
X014430Y005800D01*
X014470Y005800D01*
X014470Y006260D01*
X014470Y006203D02*
X014430Y006203D01*
X014430Y006045D02*
X014470Y006045D01*
X014677Y006203D02*
X015070Y006203D01*
X015070Y006045D02*
X014851Y006045D01*
X014919Y005886D02*
X015070Y005886D01*
X015070Y005728D02*
X014928Y005728D01*
X014881Y005569D02*
X015070Y005569D01*
X015070Y005411D02*
X014758Y005411D01*
X014470Y005411D02*
X014430Y005411D01*
X014430Y005569D02*
X014470Y005569D01*
X014470Y005728D02*
X014430Y005728D01*
X014430Y005886D02*
X014470Y005886D01*
X014223Y006203D02*
X013668Y006203D01*
X013685Y006045D02*
X014049Y006045D01*
X013981Y005886D02*
X013685Y005886D01*
X013685Y005728D02*
X013972Y005728D01*
X014019Y005569D02*
X013685Y005569D01*
X013635Y005411D02*
X014142Y005411D01*
X014141Y005094D02*
X013370Y005094D01*
X013342Y005252D02*
X015070Y005252D01*
X015070Y005094D02*
X014759Y005094D01*
X014862Y004935D02*
X015070Y004935D01*
X015070Y004777D02*
X014890Y004777D01*
X014859Y004618D02*
X015070Y004618D01*
X015070Y004460D02*
X014752Y004460D01*
X015070Y004301D02*
X014170Y004301D01*
X014430Y004143D02*
X014470Y004143D01*
X014470Y003984D02*
X014430Y003984D01*
X014430Y003826D02*
X014470Y003826D01*
X014470Y003667D02*
X014430Y003667D01*
X014846Y003509D02*
X015070Y003509D01*
X015070Y003667D02*
X014918Y003667D01*
X014929Y003826D02*
X015070Y003826D01*
X015070Y003984D02*
X014885Y003984D01*
X014766Y004143D02*
X015070Y004143D01*
X014010Y002716D02*
X013685Y002716D01*
X013668Y002558D02*
X014066Y002558D01*
X014430Y001131D02*
X014470Y001131D01*
X014470Y000973D02*
X014430Y000973D01*
X014430Y000814D02*
X014470Y000814D01*
X014778Y001131D02*
X015070Y001131D01*
X015070Y000973D02*
X014891Y000973D01*
X014930Y000814D02*
X015070Y000814D01*
X015068Y000656D02*
X014914Y000656D01*
X014838Y000497D02*
X014992Y000497D01*
X010044Y005728D02*
X009800Y005728D01*
X009800Y005886D02*
X010059Y005886D01*
X009200Y006203D02*
X003219Y006203D01*
X003230Y006229D02*
X003165Y006072D01*
X003045Y005952D01*
X002888Y005887D01*
X002718Y005887D01*
X002561Y005952D01*
X002441Y006072D01*
X002376Y006229D01*
X002376Y006399D01*
X002441Y006556D01*
X002561Y006676D01*
X002718Y006741D01*
X002888Y006741D01*
X003045Y006676D01*
X003165Y006556D01*
X003230Y006399D01*
X003230Y006229D01*
X003311Y006308D02*
X003352Y006284D01*
X003398Y006272D01*
X003864Y006272D01*
X003864Y006550D01*
X003241Y006550D01*
X003241Y006428D01*
X003254Y006382D01*
X003277Y006341D01*
X003311Y006308D01*
X003265Y006362D02*
X003230Y006362D01*
X003241Y006520D02*
X003180Y006520D01*
X003241Y006550D02*
X003864Y006550D01*
X003864Y006550D01*
X003864Y006550D01*
X003864Y006272D01*
X004331Y006272D01*
X004377Y006284D01*
X004418Y006308D01*
X004451Y006341D01*
X004475Y006382D01*
X004487Y006428D01*
X004487Y006550D01*
X003864Y006550D01*
X003864Y006550D01*
X004487Y006550D01*
X004487Y006672D01*
X004475Y006718D01*
X004451Y006759D01*
X004447Y006763D01*
X004447Y007021D01*
X004446Y007023D01*
X004447Y007024D01*
X004447Y007336D01*
X004446Y007337D01*
X004447Y007339D01*
X004447Y007610D01*
X005031Y007610D01*
X005044Y007597D01*
X005145Y007555D01*
X005255Y007555D01*
X005356Y007597D01*
X005433Y007674D01*
X005475Y007775D01*
X005475Y007885D01*
X005433Y007986D01*
X005356Y008063D01*
X005255Y008105D01*
X005145Y008105D01*
X005044Y008063D01*
X005031Y008050D01*
X003793Y008050D01*
X003791Y008048D01*
X003363Y008048D01*
X003281Y007966D01*
X003281Y007654D01*
X003282Y007652D01*
X003281Y007651D01*
X003281Y007339D01*
X003282Y007337D01*
X003281Y007336D01*
X003281Y007024D01*
X003282Y007023D01*
X003281Y007021D01*
X003281Y006763D01*
X003277Y006759D01*
X003254Y006718D01*
X003241Y006672D01*
X003241Y006550D01*
X003243Y006679D02*
X003038Y006679D01*
X003281Y006837D02*
X000730Y006837D01*
X000730Y006996D02*
X003281Y006996D01*
X003281Y007154D02*
X000730Y007154D01*
X000730Y007313D02*
X003281Y007313D01*
X003281Y007471D02*
X000730Y007471D01*
X000730Y007630D02*
X002694Y007630D01*
X002718Y007619D02*
X002888Y007619D01*
X003045Y007684D01*
X003165Y007804D01*
X003230Y007961D01*
X003230Y008131D01*
X003165Y008288D01*
X003045Y008408D01*
X002888Y008473D01*
X002718Y008473D01*
X002561Y008408D01*
X002441Y008288D01*
X002376Y008131D01*
X002376Y007961D01*
X002441Y007804D01*
X002561Y007684D01*
X002718Y007619D01*
X002913Y007630D02*
X003281Y007630D01*
X003281Y007788D02*
X003149Y007788D01*
X003224Y007947D02*
X003281Y007947D01*
X003230Y008105D02*
X008580Y008105D01*
X008580Y008264D02*
X003175Y008264D01*
X003265Y008398D02*
X004365Y008398D01*
X004447Y008480D01*
X004447Y009384D01*
X004365Y009466D01*
X003265Y009466D01*
X003183Y009384D01*
X003183Y008480D01*
X003265Y008398D01*
X003241Y008422D02*
X003011Y008422D01*
X003183Y008581D02*
X002301Y008581D01*
X002301Y008480D02*
X002219Y008398D01*
X001119Y008398D01*
X001037Y008480D01*
X001037Y009384D01*
X001119Y009466D01*
X002219Y009466D01*
X002301Y009384D01*
X002301Y008480D01*
X002243Y008422D02*
X002595Y008422D01*
X002431Y008264D02*
X000730Y008264D01*
X000730Y008422D02*
X001095Y008422D01*
X001037Y008581D02*
X000730Y008581D01*
X000730Y008739D02*
X001037Y008739D01*
X001037Y008898D02*
X000730Y008898D01*
X000730Y009056D02*
X001037Y009056D01*
X001037Y009215D02*
X000730Y009215D01*
X000730Y009373D02*
X001037Y009373D01*
X000730Y009532D02*
X006038Y009532D01*
X006038Y009373D02*
X004447Y009373D01*
X004447Y009215D02*
X006038Y009215D01*
X006038Y009056D02*
X004447Y009056D01*
X004447Y008898D02*
X006038Y008898D01*
X006038Y008739D02*
X004447Y008739D01*
X004447Y008581D02*
X008580Y008581D01*
X008595Y008739D02*
X008562Y008739D01*
X008562Y008898D02*
X008595Y008898D01*
X008595Y009056D02*
X008562Y009056D01*
X008562Y009215D02*
X008595Y009215D01*
X008562Y009373D02*
X008630Y009373D01*
X008900Y009630D02*
X007817Y009630D01*
X007300Y009213D01*
X007725Y009849D02*
X000730Y009849D01*
X000730Y010007D02*
X009033Y010007D01*
X008993Y009849D02*
X009090Y009849D01*
X008900Y009630D02*
X009120Y009410D01*
X009120Y008990D01*
X009370Y008990D02*
X009370Y009610D01*
X009350Y009630D01*
X009630Y009766D02*
X009844Y009980D01*
X009844Y010480D01*
X010014Y010800D02*
X010106Y010800D01*
X010356Y010800D02*
X010356Y010800D01*
X010356Y010641D02*
X010356Y010641D01*
X010356Y010483D02*
X010356Y010483D01*
X010356Y010480D02*
X010356Y010480D01*
X010356Y010123D01*
X010356Y009980D01*
X010356Y009980D01*
X010356Y010480D01*
X010356Y010480D01*
X010356Y010324D02*
X010356Y010324D01*
X010356Y010166D02*
X010356Y010166D01*
X010356Y010007D02*
X010356Y010007D01*
X010674Y010007D02*
X015070Y010007D01*
X015070Y009849D02*
X010674Y009849D01*
X010635Y009690D02*
X015070Y009690D01*
X015070Y009532D02*
X010375Y009532D01*
X010370Y009373D02*
X015070Y009373D01*
X015070Y009215D02*
X010405Y009215D01*
X010405Y009056D02*
X015070Y009056D01*
X015070Y008898D02*
X010405Y008898D01*
X010405Y008739D02*
X015070Y008739D01*
X015070Y008581D02*
X010420Y008581D01*
X010420Y008422D02*
X015070Y008422D01*
X015070Y008264D02*
X010420Y008264D01*
X010420Y008105D02*
X014153Y008105D01*
X014043Y007947D02*
X010420Y007947D01*
X010420Y007788D02*
X014010Y007788D01*
X014036Y007630D02*
X010420Y007630D01*
X010381Y007471D02*
X014137Y007471D01*
X014150Y007313D02*
X010365Y007313D01*
X010140Y007270D02*
X010140Y006790D01*
X010200Y006730D01*
X010453Y006837D02*
X014010Y006837D01*
X014063Y006996D02*
X010365Y006996D01*
X010365Y007154D02*
X014150Y007154D01*
X014016Y006679D02*
X010475Y006679D01*
X010379Y006520D02*
X014088Y006520D01*
X014589Y006362D02*
X015070Y006362D01*
X015070Y006520D02*
X014812Y006520D01*
X014884Y006679D02*
X015070Y006679D01*
X015070Y006837D02*
X014890Y006837D01*
X014837Y006996D02*
X015070Y006996D01*
X015070Y007154D02*
X014750Y007154D01*
X014750Y007313D02*
X015070Y007313D01*
X015070Y007471D02*
X014763Y007471D01*
X014864Y007630D02*
X015070Y007630D01*
X015070Y007788D02*
X014890Y007788D01*
X014857Y007947D02*
X015070Y007947D01*
X015070Y008105D02*
X014747Y008105D01*
X013297Y006203D02*
X013201Y006203D01*
X013201Y006045D02*
X013297Y006045D01*
X013297Y005886D02*
X013201Y005886D01*
X009200Y006362D02*
X004463Y006362D01*
X004487Y006520D02*
X006038Y006520D01*
X006038Y006679D02*
X004485Y006679D01*
X004447Y006837D02*
X006038Y006837D01*
X006038Y006996D02*
X004447Y006996D01*
X004447Y007154D02*
X006038Y007154D01*
X006038Y007313D02*
X004447Y007313D01*
X004447Y007471D02*
X006038Y007471D01*
X006070Y007630D02*
X005388Y007630D01*
X005475Y007788D02*
X008580Y007788D01*
X008580Y007630D02*
X008530Y007630D01*
X008562Y007471D02*
X008595Y007471D01*
X008595Y007313D02*
X008562Y007313D01*
X008562Y007154D02*
X008595Y007154D01*
X008595Y006996D02*
X008562Y006996D01*
X009101Y006520D02*
X009200Y006520D01*
X008580Y007947D02*
X005449Y007947D01*
X005200Y007830D02*
X003884Y007830D01*
X003864Y007810D01*
X004389Y008422D02*
X008580Y008422D01*
X009630Y008990D02*
X009630Y009766D01*
X009880Y009360D02*
X010100Y009580D01*
X009880Y009360D02*
X009880Y008990D01*
X010674Y010166D02*
X015070Y010166D01*
X015070Y010324D02*
X010674Y010324D01*
X010674Y010483D02*
X015070Y010483D01*
X015070Y010641D02*
X010674Y010641D01*
X010606Y010800D02*
X015037Y010800D01*
X009750Y010880D02*
X009600Y010880D01*
X009400Y010680D01*
X009350Y010686D01*
X009406Y010730D01*
X009033Y010800D02*
X000763Y010800D01*
X000730Y010641D02*
X009033Y010641D01*
X009040Y010483D02*
X000730Y010483D01*
X000730Y010324D02*
X009033Y010324D01*
X009033Y010166D02*
X000730Y010166D01*
X000730Y009690D02*
X006038Y009690D01*
X003183Y009373D02*
X002301Y009373D01*
X002301Y009215D02*
X003183Y009215D01*
X003183Y009056D02*
X002301Y009056D01*
X002301Y008898D02*
X003183Y008898D01*
X003183Y008739D02*
X002301Y008739D01*
X002376Y008105D02*
X000730Y008105D01*
X000730Y007947D02*
X002382Y007947D01*
X002458Y007788D02*
X000730Y007788D01*
X000730Y006679D02*
X002568Y006679D01*
X002427Y006520D02*
X000730Y006520D01*
X000730Y006362D02*
X002376Y006362D01*
X002387Y006203D02*
X000730Y006203D01*
X000730Y006045D02*
X002469Y006045D01*
X002301Y005880D02*
X002219Y005962D01*
X001119Y005962D01*
X001037Y005880D01*
X001037Y004976D01*
X001119Y004894D01*
X002219Y004894D01*
X002301Y004976D01*
X002301Y005880D01*
X002295Y005886D02*
X003189Y005886D01*
X003183Y005880D02*
X003183Y004976D01*
X003265Y004894D01*
X004365Y004894D01*
X004447Y004976D01*
X004447Y005880D01*
X004365Y005962D01*
X003265Y005962D01*
X003183Y005880D01*
X003183Y005728D02*
X002301Y005728D01*
X002301Y005569D02*
X003183Y005569D01*
X003183Y005411D02*
X002301Y005411D01*
X002301Y005252D02*
X003183Y005252D01*
X003183Y005094D02*
X002301Y005094D01*
X002260Y004935D02*
X003224Y004935D01*
X004406Y004935D02*
X004960Y004935D01*
X004960Y005094D02*
X004447Y005094D01*
X004447Y005252D02*
X004960Y005252D01*
X004960Y005411D02*
X004447Y005411D01*
X004447Y005569D02*
X004960Y005569D01*
X004960Y005728D02*
X004447Y005728D01*
X004441Y005886D02*
X005087Y005886D01*
X005246Y006045D02*
X003137Y006045D01*
X003864Y006362D02*
X003864Y006362D01*
X003864Y006520D02*
X003864Y006520D01*
X004960Y004777D02*
X000730Y004777D01*
X000730Y004618D02*
X004960Y004618D01*
X005052Y004460D02*
X000730Y004460D01*
X000730Y004935D02*
X001078Y004935D01*
X001037Y005094D02*
X000730Y005094D01*
X000730Y005252D02*
X001037Y005252D01*
X001037Y005411D02*
X000730Y005411D01*
X000730Y005569D02*
X001037Y005569D01*
X001037Y005728D02*
X000730Y005728D01*
X000730Y005886D02*
X001043Y005886D01*
X003976Y003984D02*
X004111Y003984D01*
X004111Y003826D02*
X003976Y003826D01*
D28*
X006000Y004560D03*
X006000Y005300D03*
X005530Y005630D03*
X007250Y005880D03*
X009500Y006730D03*
X010200Y006730D03*
X009900Y007955D03*
X009500Y007955D03*
X009500Y008305D03*
X009900Y008305D03*
X009100Y008305D03*
X009100Y007955D03*
X009350Y009630D03*
X010100Y009580D03*
X009750Y010880D03*
X005200Y007830D03*
X012800Y004580D03*
X012800Y004180D03*
X013900Y003930D03*
D29*
X013900Y004180D01*
X013850Y004180D01*
X013950Y004280D01*
X013950Y004480D01*
X013850Y004580D01*
X013170Y004580D01*
X013170Y004770D02*
X014460Y004770D01*
X014450Y004780D01*
X013850Y004180D02*
X013170Y004180D01*
X013170Y004380D02*
X012800Y004380D01*
X012800Y004180D01*
X012430Y003619D02*
X012544Y003505D01*
X013056Y003505D02*
X013725Y003505D01*
X014450Y002780D01*
X013170Y003619D02*
X013056Y003505D01*
X013170Y005141D02*
X013056Y005255D01*
X012544Y005255D02*
X012430Y005141D01*
X007250Y005880D02*
X006871Y005880D01*
X006280Y005880D02*
X005350Y005880D01*
X005150Y005680D01*
X005150Y004630D01*
X005220Y004560D01*
X005530Y004560D01*
D30*
X006000Y004560D02*
X006012Y004548D01*
X006012Y002070D01*
X005697Y001755D01*
X005067Y001755D01*
X010499Y003380D02*
X011306Y004187D01*
X011306Y004573D02*
X010499Y005380D01*
X012501Y005830D02*
X012544Y005775D01*
X012544Y005255D01*
X012544Y003505D02*
X012544Y002985D01*
X012501Y002930D01*
X009500Y007955D02*
X009500Y008130D01*
X009350Y009630D02*
X009350Y010174D01*
D31*
X009500Y006730D02*
X009500Y005380D01*
X008557Y005380D01*
X007783Y004606D01*
X007783Y003105D01*
X009500Y005380D02*
X010499Y005380D01*
X014450Y006780D02*
X014450Y007780D01*
D32*
X011601Y005380D02*
X011600Y005379D01*
X011600Y004880D01*
X011900Y004580D01*
X012430Y004580D01*
X012430Y004770D02*
X012430Y005141D01*
X013170Y005141D02*
X013170Y004770D01*
X012430Y004380D02*
X011306Y004380D01*
X011306Y004187D01*
X011306Y004380D02*
X011306Y004573D01*
X011900Y004180D02*
X011600Y003880D01*
X011601Y003879D01*
X011601Y003380D01*
X012430Y003619D02*
X012430Y003990D01*
X012430Y004180D02*
X011900Y004180D01*
X013170Y003990D02*
X013170Y003619D01*
M02*
