%
M48
M72
T01C0.0130
T02C0.0394
T03C0.0400
T04C0.0591
%
T01
X6000Y4560
X6000Y5300
X5530Y5630
X7250Y5880
X9500Y6730
X10200Y6730
X9900Y7955
X9500Y7955
X9500Y8305
X9900Y8305
X9100Y8305
X9100Y7955
X9350Y9630
X10100Y9580
X9750Y10880
X5200Y7830
X12800Y4580
X12800Y4180
X13900Y3930
T02
X2803Y6314
X2803Y8046
T03
X14450Y7780
X14450Y6780
X14450Y5780
X14450Y4780
X14450Y3780
X14450Y2780
X14450Y1780
X14450Y780
T04
X2075Y1026
X2075Y2837
X2075Y3822
X4043Y3487
X5224Y3172
X5067Y1755
M30
