G75*
G70*
%OFA0B0*%
%FSLAX24Y24*%
%IPPOS*%
%LPD*%
%AMOC8*
5,1,8,0,0,1.08239X$1,22.5*
%
%ADD10R,0.0170X0.0550*%
%ADD11R,0.1120X0.0650*%
%ADD12R,0.0320X0.0120*%
%ADD13R,0.0250X0.0940*%
%ADD14R,0.0886X0.0197*%
%ADD15R,0.0984X0.0787*%
%ADD16R,0.0276X0.0354*%
%ADD17R,0.0354X0.0276*%
%ADD18R,0.0394X0.1811*%
%ADD19R,0.0630X0.1339*%
%ADD20R,0.0480X0.0200*%
%ADD21R,0.0315X0.0315*%
%ADD22R,0.2244X0.0984*%
%ADD23R,0.0630X0.0866*%
%ADD24R,0.0512X0.0591*%
D10*
X008860Y007270D03*
X009120Y007270D03*
X009370Y007270D03*
X009630Y007270D03*
X009880Y007270D03*
X010140Y007270D03*
X010140Y008990D03*
X009880Y008990D03*
X009630Y008990D03*
X009370Y008990D03*
X009120Y008990D03*
X008860Y008990D03*
D11*
X009500Y008130D03*
D12*
X012430Y004770D03*
X012430Y004580D03*
X012430Y004380D03*
X012430Y004180D03*
X012430Y003990D03*
X013170Y003990D03*
X013170Y004180D03*
X013170Y004380D03*
X013170Y004580D03*
X013170Y004770D03*
D13*
X012800Y004380D03*
D14*
X003864Y006550D03*
X003864Y006865D03*
X003864Y007180D03*
X003864Y007495D03*
X003864Y007810D03*
D15*
X003815Y008932D03*
X001669Y008932D03*
X001669Y005428D03*
X003815Y005428D03*
D16*
X009844Y009980D03*
X010356Y009980D03*
X010356Y010480D03*
X009844Y010480D03*
X012544Y005255D03*
X013056Y005255D03*
X011306Y004380D03*
X010794Y004380D03*
X012544Y003505D03*
X013056Y003505D03*
D17*
X009350Y010174D03*
X009350Y010686D03*
D18*
X008571Y003105D03*
X007783Y003105D03*
D19*
X006839Y001058D03*
X009516Y001058D03*
D20*
X005530Y004560D03*
X005530Y004930D03*
X005530Y005300D03*
X006470Y005300D03*
X006470Y004560D03*
D21*
X006280Y005880D03*
X006871Y005880D03*
D22*
X007300Y007047D03*
X007300Y009213D03*
D23*
X010499Y005380D03*
X011601Y005380D03*
X011601Y003380D03*
X010499Y003380D03*
D24*
X012501Y002930D03*
X013249Y002930D03*
X013249Y005830D03*
X012501Y005830D03*
M02*
